<?xml version="1.0" encoding="iso-8859-1"?>
<!-- Generator: Adobe Illustrator 16.0.0, SVG Export Plug-In . SVG Version: 6.00 Build 0)  -->
<!DOCTYPE svg PUBLIC "-//W3C//DTD SVG 1.1//EN" "http://www.w3.org/Graphics/SVG/1.1/DTD/svg11.dtd">
<svg version="1.1" id="Lager_1" xmlns="http://www.w3.org/2000/svg" xmlns:xlink="http://www.w3.org/1999/xlink" x="0px" y="0px"
	 width="57.765px" height="12.062px" viewBox="0 0 57.765 12.062" style="enable-background:new 0 0 57.765 12.062;"
	 xml:space="preserve">
<g>
	<path style="fill-rule:evenodd;clip-rule:evenodd;fill:#FCC00D;" d="M12.091,6.031L9.652,6.897V5.165L12.091,6.031L12.091,6.031z
		 M10.32,1.766L9.209,4.1L7.982,2.875L10.32,1.766L10.32,1.766z M6.046,0l0.867,2.434H5.178L6.046,0L6.046,0z M1.771,1.766
		l2.339,1.109L2.882,4.1L1.771,1.766L1.771,1.766z M0,6.031l2.439-0.866v1.732L0,6.031L0,6.031z M1.771,10.295l1.112-2.333
		l1.227,1.225L1.771,10.295L1.771,10.295z M6.046,12.062L5.178,9.628h1.735L6.046,12.062L6.046,12.062z M10.32,10.295L7.982,9.187
		l1.227-1.225L10.32,10.295L10.32,10.295z M3.023,6.031c0-1.666,1.353-3.016,3.023-3.016c1.669,0,3.023,1.35,3.023,3.016
		c0,1.665-1.354,3.015-3.023,3.015C4.376,9.046,3.023,7.696,3.023,6.031L3.023,6.031z"/>
	<path style="fill-rule:evenodd;clip-rule:evenodd;fill:#FCC00D;" d="M27.316,6.031l-2.439,0.866V5.165L27.316,6.031L27.316,6.031z
		 M25.545,1.766L24.434,4.1l-1.227-1.225L25.545,1.766L25.545,1.766z M21.271,0l0.867,2.434h-1.735L21.271,0L21.271,0z
		 M16.995,1.766l2.339,1.109L18.107,4.1L16.995,1.766L16.995,1.766z M15.225,6.031l2.439-0.866v1.732L15.225,6.031L15.225,6.031z
		 M16.995,10.295l1.112-2.333l1.227,1.225L16.995,10.295L16.995,10.295z M21.271,12.062l-0.868-2.434h1.735L21.271,12.062
		L21.271,12.062z M25.545,10.295l-2.338-1.108l1.227-1.225L25.545,10.295L25.545,10.295z M18.248,6.031
		c0-1.666,1.353-3.016,3.023-3.016c1.669,0,3.023,1.35,3.023,3.016c0,1.665-1.354,3.015-3.023,3.015
		C19.601,9.046,18.248,7.696,18.248,6.031L18.248,6.031z"/>
	<path style="fill-rule:evenodd;clip-rule:evenodd;fill:#FCC00D;" d="M42.541,6.031l-2.439,0.866V5.165L42.541,6.031L42.541,6.031z
		 M40.77,1.766L39.658,4.1l-1.227-1.225L40.77,1.766L40.77,1.766z M36.495,0l0.867,2.434h-1.735L36.495,0L36.495,0z M32.22,1.766
		l2.339,1.109L33.332,4.1L32.22,1.766L32.22,1.766z M30.449,6.031l2.439-0.866v1.732L30.449,6.031L30.449,6.031z M32.22,10.295
		l1.112-2.333l1.227,1.225L32.22,10.295L32.22,10.295z M36.495,12.062l-0.868-2.434h1.735L36.495,12.062L36.495,12.062z
		 M40.77,10.295l-2.338-1.108l1.227-1.225L40.77,10.295L40.77,10.295z M33.472,6.031c0-1.666,1.353-3.016,3.023-3.016
		c1.669,0,3.022,1.35,3.022,3.016c0,1.665-1.353,3.015-3.022,3.015C34.825,9.046,33.472,7.696,33.472,6.031L33.472,6.031z"/>
	<path style="fill-rule:evenodd;clip-rule:evenodd;fill:#FCC00D;" d="M57.765,6.031l-2.439,0.866V5.165L57.765,6.031L57.765,6.031z
		 M55.994,1.766L54.883,4.1l-1.227-1.225L55.994,1.766L55.994,1.766z M51.72,0l0.867,2.434h-1.735L51.72,0L51.72,0z M47.444,1.766
		l2.339,1.109L48.556,4.1L47.444,1.766L47.444,1.766z M45.674,6.031l2.439-0.866v1.732L45.674,6.031L45.674,6.031z M47.444,10.295
		l1.112-2.333l1.227,1.225L47.444,10.295L47.444,10.295z M51.72,12.062l-0.868-2.434h1.735L51.72,12.062L51.72,12.062z
		 M55.994,10.295l-2.338-1.108l1.227-1.225L55.994,10.295L55.994,10.295z M48.697,6.031c0-1.666,1.353-3.016,3.023-3.016
		c1.669,0,3.022,1.35,3.022,3.016c0,1.665-1.353,3.015-3.022,3.015C50.05,9.046,48.697,7.696,48.697,6.031L48.697,6.031z"/>
</g>
<g id="theGroup">
</g>
<g>
</g>
<g>
</g>
<g>
</g>
<g>
</g>
<g>
</g>
<g>
</g>
</svg>
