<?xml version="1.0" encoding="iso-8859-1"?>
<!-- Generator: Adobe Illustrator 16.0.0, SVG Export Plug-In . SVG Version: 6.00 Build 0)  -->
<!DOCTYPE svg PUBLIC "-//W3C//DTD SVG 1.1//EN" "http://www.w3.org/Graphics/SVG/1.1/DTD/svg11.dtd">
<svg version="1.1" id="Lager_1" xmlns="http://www.w3.org/2000/svg" xmlns:xlink="http://www.w3.org/1999/xlink" x="0px" y="0px"
	 width="149.112px" height="42.867px" viewBox="0 0 149.112 42.867" style="enable-background:new 0 0 149.112 42.867;"
	 xml:space="preserve">
<g>
	<g>
		<g>
		</g>
	</g>
	<g>
		<g>
		</g>
	</g>
	<g>
		<g>
		</g>
	</g>
	<g>
		<g>
		</g>
	</g>
	<g>
		<g>
		</g>
	</g>
	<g>
		<g>
		</g>
	</g>
	<g>
		<g>
		</g>
	</g>
	<g>
		<g>
		</g>
	</g>
	<g>
		<g>
		</g>
	</g>
	<g>
		<g>
		</g>
	</g>
	<g>
		<g>
		</g>
	</g>
	<g>
		<g>
		</g>
	</g>
	<g>
		<g>
		</g>
	</g>
	<g>
		<g>
		</g>
	</g>
	<g>
		<g>
		</g>
	</g>
	<g>
		<g>
		</g>
	</g>
	<g>
		<g>
		</g>
	</g>
	<g>
		<g>
		</g>
	</g>
	<path style="fill-rule:evenodd;clip-rule:evenodd;fill:#FCC00D;" d="M12.092,8.088l-2.44,0.865v-1.73L12.092,8.088L12.092,8.088z
		 M10.32,3.823L9.209,6.157L7.982,4.933L10.32,3.823L10.32,3.823z M6.046,2.057l0.867,2.434H5.178L6.046,2.057L6.046,2.057z
		 M1.771,3.823l2.339,1.11L2.883,6.157L1.771,3.823L1.771,3.823z M0,8.088l2.439-0.865v1.73L0,8.088L0,8.088z M1.771,12.353
		l1.112-2.333l1.227,1.224L1.771,12.353L1.771,12.353z M6.046,14.119l-0.868-2.433h1.735L6.046,14.119L6.046,14.119z M10.32,12.353
		l-2.338-1.109l1.227-1.224L10.32,12.353L10.32,12.353z M3.023,8.088c0-1.666,1.353-3.016,3.023-3.016
		c1.669,0,3.023,1.35,3.023,3.016s-1.354,3.016-3.023,3.016C4.376,11.104,3.023,9.754,3.023,8.088L3.023,8.088z"/>
	<path style="fill-rule:evenodd;clip-rule:evenodd;fill:#FCC00D;" d="M27.316,8.088l-2.44,0.865v-1.73L27.316,8.088L27.316,8.088z
		 M25.545,3.823l-1.111,2.333l-1.227-1.224L25.545,3.823L25.545,3.823z M21.271,2.057l0.867,2.434h-1.735L21.271,2.057L21.271,2.057
		z M16.995,3.823l2.339,1.11l-1.227,1.224L16.995,3.823L16.995,3.823z M15.225,8.088l2.439-0.865v1.73L15.225,8.088L15.225,8.088z
		 M16.995,12.353l1.112-2.333l1.227,1.224L16.995,12.353L16.995,12.353z M21.271,14.119l-0.868-2.433h1.735L21.271,14.119
		L21.271,14.119z M25.545,12.353l-2.338-1.109l1.227-1.224L25.545,12.353L25.545,12.353z M18.248,8.088
		c0-1.666,1.353-3.016,3.023-3.016c1.669,0,3.023,1.35,3.023,3.016s-1.354,3.016-3.023,3.016
		C19.601,11.104,18.248,9.754,18.248,8.088L18.248,8.088z"/>
	<path style="fill-rule:evenodd;clip-rule:evenodd;fill:#FCC00D;" d="M42.541,8.088l-2.44,0.865v-1.73L42.541,8.088L42.541,8.088z
		 M40.77,3.823l-1.111,2.333l-1.227-1.224L40.77,3.823L40.77,3.823z M36.495,2.057l0.867,2.434h-1.735L36.495,2.057L36.495,2.057z
		 M32.22,3.823l2.339,1.11l-1.227,1.224L32.22,3.823L32.22,3.823z M30.449,8.088l2.439-0.865v1.73L30.449,8.088L30.449,8.088z
		 M32.22,12.353l1.112-2.333l1.227,1.224L32.22,12.353L32.22,12.353z M36.495,14.119l-0.868-2.433h1.735L36.495,14.119
		L36.495,14.119z M40.77,12.353l-2.338-1.109l1.227-1.224L40.77,12.353L40.77,12.353z M33.472,8.088
		c0-1.666,1.353-3.016,3.023-3.016c1.669,0,3.022,1.35,3.022,3.016s-1.353,3.016-3.022,3.016
		C34.825,11.104,33.472,9.754,33.472,8.088L33.472,8.088z"/>
	<path style="fill-rule:evenodd;clip-rule:evenodd;fill:#FCC00D;" d="M57.766,8.088l-2.44,0.865v-1.73L57.766,8.088L57.766,8.088z
		 M55.994,3.823l-1.111,2.333l-1.227-1.224L55.994,3.823L55.994,3.823z M51.72,2.057l0.867,2.434h-1.735L51.72,2.057L51.72,2.057z
		 M47.444,3.823l2.339,1.11l-1.227,1.224L47.444,3.823L47.444,3.823z M45.674,8.088l2.439-0.865v1.73L45.674,8.088L45.674,8.088z
		 M47.444,12.353l1.112-2.333l1.227,1.224L47.444,12.353L47.444,12.353z M51.72,14.119l-0.868-2.433h1.735L51.72,14.119
		L51.72,14.119z M55.994,12.353l-2.338-1.109l1.227-1.224L55.994,12.353L55.994,12.353z M48.697,8.088
		c0-1.666,1.353-3.016,3.023-3.016c1.669,0,3.022,1.35,3.022,3.016s-1.353,3.016-3.022,3.016
		C50.05,11.104,48.697,9.754,48.697,8.088L48.697,8.088z"/>
	<path style="fill-rule:evenodd;clip-rule:evenodd;fill:#FCC00D;" d="M72.99,8.088l-2.44,0.865v-1.73L72.99,8.088L72.99,8.088z
		 M71.219,3.823l-1.111,2.333L68.88,4.933L71.219,3.823L71.219,3.823z M66.944,2.057l0.868,2.434h-1.735L66.944,2.057L66.944,2.057z
		 M62.668,3.823l2.339,1.11L63.78,6.157L62.668,3.823L62.668,3.823z M60.897,8.088l2.44-0.865v1.73L60.897,8.088L60.897,8.088z
		 M62.668,12.353l1.112-2.333l1.228,1.224L62.668,12.353L62.668,12.353z M66.944,14.119l-0.867-2.433h1.735L66.944,14.119
		L66.944,14.119z M71.219,12.353l-2.338-1.109l1.227-1.224L71.219,12.353L71.219,12.353z M63.921,8.088
		c0-1.666,1.354-3.016,3.023-3.016c1.67,0,3.023,1.35,3.023,3.016s-1.353,3.016-3.023,3.016
		C65.274,11.104,63.921,9.754,63.921,8.088L63.921,8.088z"/>
	<path style="fill-rule:evenodd;clip-rule:evenodd;fill:#FCC00D;" d="M88.215,8.088l-2.44,0.865v-1.73L88.215,8.088L88.215,8.088z
		 M86.443,3.823l-1.111,2.333l-1.227-1.224L86.443,3.823L86.443,3.823z M82.168,2.057l0.868,2.434h-1.735L82.168,2.057L82.168,2.057
		z M77.893,3.823l2.339,1.11l-1.228,1.224L77.893,3.823L77.893,3.823z M76.122,8.088l2.44-0.865v1.73L76.122,8.088L76.122,8.088z
		 M77.893,12.353l1.112-2.333l1.228,1.224L77.893,12.353L77.893,12.353z M82.168,14.119l-0.867-2.433h1.735L82.168,14.119
		L82.168,14.119z M86.443,12.353l-2.338-1.109l1.227-1.224L86.443,12.353L86.443,12.353z M79.146,8.088
		c0-1.666,1.354-3.016,3.023-3.016c1.67,0,3.023,1.35,3.023,3.016s-1.353,3.016-3.023,3.016
		C80.499,11.104,79.146,9.754,79.146,8.088L79.146,8.088z"/>
	<path style="fill-rule:evenodd;clip-rule:evenodd;fill:#FCC00D;" d="M103.439,8.088L101,8.954v-1.73L103.439,8.088L103.439,8.088z
		 M101.668,3.823l-1.111,2.333L99.33,4.933L101.668,3.823L101.668,3.823z M97.393,2.057l0.868,2.434h-1.735L97.393,2.057
		L97.393,2.057z M93.118,3.823l2.339,1.11l-1.228,1.224L93.118,3.823L93.118,3.823z M91.347,8.088l2.44-0.865v1.73L91.347,8.088
		L91.347,8.088z M93.118,12.353l1.112-2.333l1.228,1.224L93.118,12.353L93.118,12.353z M97.393,14.119l-0.867-2.433h1.735
		L97.393,14.119L97.393,14.119z M101.668,12.353l-2.338-1.109l1.227-1.224L101.668,12.353L101.668,12.353z M94.37,8.088
		c0-1.666,1.354-3.016,3.023-3.016c1.67,0,3.023,1.35,3.023,3.016s-1.353,3.016-3.023,3.016C95.724,11.104,94.37,9.754,94.37,8.088
		L94.37,8.088z"/>
	<path style="fill-rule:evenodd;clip-rule:evenodd;fill:#FCC00D;" d="M118.664,8.088l-2.44,0.865v-1.73L118.664,8.088L118.664,8.088
		z M116.893,3.823l-1.111,2.333l-1.227-1.224L116.893,3.823L116.893,3.823z M112.617,2.057l0.868,2.434h-1.735L112.617,2.057
		L112.617,2.057z M108.342,3.823l2.339,1.11l-1.228,1.224L108.342,3.823L108.342,3.823z M106.571,8.088l2.44-0.865v1.73
		L106.571,8.088L106.571,8.088z M108.342,12.353l1.112-2.333l1.228,1.224L108.342,12.353L108.342,12.353z M112.617,14.119
		l-0.867-2.433h1.735L112.617,14.119L112.617,14.119z M116.893,12.353l-2.338-1.109l1.227-1.224L116.893,12.353L116.893,12.353z
		 M109.595,8.088c0-1.666,1.354-3.016,3.022-3.016c1.67,0,3.023,1.35,3.023,3.016s-1.354,3.016-3.023,3.016
		C110.948,11.104,109.595,9.754,109.595,8.088L109.595,8.088z"/>
	<path style="fill-rule:evenodd;clip-rule:evenodd;fill:#FCC00D;" d="M133.888,8.088l-2.438,0.865v-1.73L133.888,8.088
		L133.888,8.088z M132.118,3.823l-1.112,2.333l-1.227-1.224L132.118,3.823L132.118,3.823z M127.843,2.057l0.867,2.434h-1.736
		L127.843,2.057L127.843,2.057z M123.566,3.823l2.339,1.11l-1.227,1.224L123.566,3.823L123.566,3.823z M121.796,8.088l2.439-0.865
		v1.73L121.796,8.088L121.796,8.088z M123.566,12.353l1.112-2.333l1.227,1.224L123.566,12.353L123.566,12.353z M127.843,14.119
		l-0.869-2.433h1.736L127.843,14.119L127.843,14.119z M132.118,12.353l-2.339-1.109l1.227-1.224L132.118,12.353L132.118,12.353z
		 M124.819,8.088c0-1.666,1.354-3.016,3.023-3.016c1.669,0,3.022,1.35,3.022,3.016s-1.354,3.016-3.022,3.016
		C126.173,11.104,124.819,9.754,124.819,8.088L124.819,8.088z"/>
	<path style="fill-rule:evenodd;clip-rule:evenodd;fill:#FCC00D;" d="M149.112,8.088l-2.438,0.865v-1.73L149.112,8.088
		L149.112,8.088z M147.343,3.823l-1.112,2.333l-1.227-1.224L147.343,3.823L147.343,3.823z M143.067,2.057l0.867,2.434h-1.736
		L143.067,2.057L143.067,2.057z M138.791,3.823l2.339,1.11l-1.227,1.224L138.791,3.823L138.791,3.823z M137.021,8.088l2.439-0.865
		v1.73L137.021,8.088L137.021,8.088z M138.791,12.353l1.112-2.333l1.227,1.224L138.791,12.353L138.791,12.353z M143.067,14.119
		l-0.869-2.433h1.736L143.067,14.119L143.067,14.119z M147.343,12.353l-2.339-1.109l1.227-1.224L147.343,12.353L147.343,12.353z
		 M140.044,8.088c0-1.666,1.354-3.016,3.023-3.016c1.669,0,3.022,1.35,3.022,3.016s-1.354,3.016-3.022,3.016
		C141.397,11.104,140.044,9.754,140.044,8.088L140.044,8.088z"/>
	<path style="fill-rule:evenodd;clip-rule:evenodd;fill:#FCC00D;" d="M12.092,22.462l-2.44,0.865v-1.731L12.092,22.462
		L12.092,22.462z M10.32,18.197L9.209,20.53l-1.227-1.224L10.32,18.197L10.32,18.197z M6.046,16.431l0.867,2.434H5.178L6.046,16.431
		L6.046,16.431z M1.771,18.197l2.339,1.11L2.883,20.53L1.771,18.197L1.771,18.197z M0,22.462l2.439-0.866v1.731L0,22.462L0,22.462z
		 M1.771,26.727l1.112-2.333l1.227,1.224L1.771,26.727L1.771,26.727z M6.046,28.494L5.178,26.06h1.735L6.046,28.494L6.046,28.494z
		 M10.32,26.727l-2.338-1.109l1.227-1.224L10.32,26.727L10.32,26.727z M3.023,22.462c0-1.666,1.353-3.016,3.023-3.016
		c1.669,0,3.023,1.35,3.023,3.016c0,1.666-1.354,3.016-3.023,3.016C4.376,25.478,3.023,24.128,3.023,22.462L3.023,22.462z"/>
	<path style="fill-rule:evenodd;clip-rule:evenodd;fill:#FCC00D;" d="M27.316,22.462l-2.44,0.865v-1.731L27.316,22.462
		L27.316,22.462z M25.545,18.197l-1.111,2.333l-1.227-1.224L25.545,18.197L25.545,18.197z M21.271,16.431l0.867,2.434h-1.735
		L21.271,16.431L21.271,16.431z M16.995,18.197l2.339,1.11l-1.227,1.224L16.995,18.197L16.995,18.197z M15.225,22.462l2.439-0.866
		v1.731L15.225,22.462L15.225,22.462z M16.995,26.727l1.112-2.333l1.227,1.224L16.995,26.727L16.995,26.727z M21.271,28.494
		l-0.868-2.434h1.735L21.271,28.494L21.271,28.494z M25.545,26.727l-2.338-1.109l1.227-1.224L25.545,26.727L25.545,26.727z
		 M18.248,22.462c0-1.666,1.353-3.016,3.023-3.016c1.669,0,3.023,1.35,3.023,3.016c0,1.666-1.354,3.016-3.023,3.016
		C19.601,25.478,18.248,24.128,18.248,22.462L18.248,22.462z"/>
	<path style="fill-rule:evenodd;clip-rule:evenodd;fill:#FCC00D;" d="M42.541,22.462l-2.44,0.865v-1.731L42.541,22.462
		L42.541,22.462z M40.77,18.197l-1.111,2.333l-1.227-1.224L40.77,18.197L40.77,18.197z M36.495,16.431l0.867,2.434h-1.735
		L36.495,16.431L36.495,16.431z M32.22,18.197l2.339,1.11l-1.227,1.224L32.22,18.197L32.22,18.197z M30.449,22.462l2.439-0.866
		v1.731L30.449,22.462L30.449,22.462z M32.22,26.727l1.112-2.333l1.227,1.224L32.22,26.727L32.22,26.727z M36.495,28.494
		l-0.868-2.434h1.735L36.495,28.494L36.495,28.494z M40.77,26.727l-2.338-1.109l1.227-1.224L40.77,26.727L40.77,26.727z
		 M33.472,22.462c0-1.666,1.353-3.016,3.023-3.016c1.669,0,3.022,1.35,3.022,3.016c0,1.666-1.353,3.016-3.022,3.016
		C34.825,25.478,33.472,24.128,33.472,22.462L33.472,22.462z"/>
	<path style="fill-rule:evenodd;clip-rule:evenodd;fill:#FCC00D;" d="M57.766,22.462l-2.44,0.865v-1.731L57.766,22.462
		L57.766,22.462z M55.994,18.197l-1.111,2.333l-1.227-1.224L55.994,18.197L55.994,18.197z M51.72,16.431l0.867,2.434h-1.735
		L51.72,16.431L51.72,16.431z M47.444,18.197l2.339,1.11l-1.227,1.224L47.444,18.197L47.444,18.197z M45.674,22.462l2.439-0.866
		v1.731L45.674,22.462L45.674,22.462z M47.444,26.727l1.112-2.333l1.227,1.224L47.444,26.727L47.444,26.727z M51.72,28.494
		l-0.868-2.434h1.735L51.72,28.494L51.72,28.494z M55.994,26.727l-2.338-1.109l1.227-1.224L55.994,26.727L55.994,26.727z
		 M48.697,22.462c0-1.666,1.353-3.016,3.023-3.016c1.669,0,3.022,1.35,3.022,3.016c0,1.666-1.353,3.016-3.022,3.016
		C50.05,25.478,48.697,24.128,48.697,22.462L48.697,22.462z"/>
	<path style="fill-rule:evenodd;clip-rule:evenodd;fill:#FCC00D;" d="M72.99,22.462l-2.44,0.865v-1.731L72.99,22.462L72.99,22.462z
		 M71.219,18.197l-1.111,2.333l-1.227-1.224L71.219,18.197L71.219,18.197z M66.944,16.431l0.868,2.434h-1.735L66.944,16.431
		L66.944,16.431z M62.668,18.197l2.339,1.11L63.78,20.53L62.668,18.197L62.668,18.197z M60.897,22.462l2.44-0.866v1.731
		L60.897,22.462L60.897,22.462z M62.668,26.727l1.112-2.333l1.228,1.224L62.668,26.727L62.668,26.727z M66.944,28.494l-0.867-2.434
		h1.735L66.944,28.494L66.944,28.494z M71.219,26.727l-2.338-1.109l1.227-1.224L71.219,26.727L71.219,26.727z M63.921,22.462
		c0-1.666,1.354-3.016,3.023-3.016c1.67,0,3.023,1.35,3.023,3.016c0,1.666-1.353,3.016-3.023,3.016
		C65.274,25.478,63.921,24.128,63.921,22.462L63.921,22.462z"/>
	<path style="fill-rule:evenodd;clip-rule:evenodd;fill:#FCC00D;" d="M88.215,22.462l-2.44,0.865v-1.731L88.215,22.462
		L88.215,22.462z M86.443,18.197l-1.111,2.333l-1.227-1.224L86.443,18.197L86.443,18.197z M82.168,16.431l0.868,2.434h-1.735
		L82.168,16.431L82.168,16.431z M77.893,18.197l2.339,1.11l-1.228,1.224L77.893,18.197L77.893,18.197z M76.122,22.462l2.44-0.866
		v1.731L76.122,22.462L76.122,22.462z M77.893,26.727l1.112-2.333l1.228,1.224L77.893,26.727L77.893,26.727z M82.168,28.494
		l-0.867-2.434h1.735L82.168,28.494L82.168,28.494z M86.443,26.727l-2.338-1.109l1.227-1.224L86.443,26.727L86.443,26.727z
		 M79.146,22.462c0-1.666,1.354-3.016,3.023-3.016c1.67,0,3.023,1.35,3.023,3.016c0,1.666-1.353,3.016-3.023,3.016
		C80.499,25.478,79.146,24.128,79.146,22.462L79.146,22.462z"/>
	<path style="fill-rule:evenodd;clip-rule:evenodd;fill:#FCC00D;" d="M103.439,22.462L101,23.328v-1.731L103.439,22.462
		L103.439,22.462z M101.668,18.197l-1.111,2.333l-1.227-1.224L101.668,18.197L101.668,18.197z M97.393,16.431l0.868,2.434h-1.735
		L97.393,16.431L97.393,16.431z M93.118,18.197l2.339,1.11l-1.228,1.224L93.118,18.197L93.118,18.197z M91.347,22.462l2.44-0.866
		v1.731L91.347,22.462L91.347,22.462z M93.118,26.727l1.112-2.333l1.228,1.224L93.118,26.727L93.118,26.727z M97.393,28.494
		l-0.867-2.434h1.735L97.393,28.494L97.393,28.494z M101.668,26.727l-2.338-1.109l1.227-1.224L101.668,26.727L101.668,26.727z
		 M94.37,22.462c0-1.666,1.354-3.016,3.023-3.016c1.67,0,3.023,1.35,3.023,3.016c0,1.666-1.353,3.016-3.023,3.016
		C95.724,25.478,94.37,24.128,94.37,22.462L94.37,22.462z"/>
	<path style="fill-rule:evenodd;clip-rule:evenodd;fill:#FCC00D;" d="M118.664,22.462l-2.44,0.865v-1.731L118.664,22.462
		L118.664,22.462z M116.893,18.197l-1.111,2.333l-1.227-1.224L116.893,18.197L116.893,18.197z M112.617,16.431l0.868,2.434h-1.735
		L112.617,16.431L112.617,16.431z M108.342,18.197l2.339,1.11l-1.228,1.224L108.342,18.197L108.342,18.197z M106.571,22.462
		l2.44-0.866v1.731L106.571,22.462L106.571,22.462z M108.342,26.727l1.112-2.333l1.228,1.224L108.342,26.727L108.342,26.727z
		 M112.617,28.494l-0.867-2.434h1.735L112.617,28.494L112.617,28.494z M116.893,26.727l-2.338-1.109l1.227-1.224L116.893,26.727
		L116.893,26.727z M109.595,22.462c0-1.666,1.354-3.016,3.022-3.016c1.67,0,3.023,1.35,3.023,3.016c0,1.666-1.354,3.016-3.023,3.016
		C110.948,25.478,109.595,24.128,109.595,22.462L109.595,22.462z"/>
	<path style="fill-rule:evenodd;clip-rule:evenodd;fill:#FCC00D;" d="M133.888,22.462l-2.438,0.865v-1.731L133.888,22.462
		L133.888,22.462z M132.118,18.197l-1.112,2.333l-1.227-1.224L132.118,18.197L132.118,18.197z M127.843,16.431l0.867,2.434h-1.736
		L127.843,16.431L127.843,16.431z M123.566,18.197l2.339,1.11l-1.227,1.224L123.566,18.197L123.566,18.197z M121.796,22.462
		l2.439-0.866v1.731L121.796,22.462L121.796,22.462z M123.566,26.727l1.112-2.333l1.227,1.224L123.566,26.727L123.566,26.727z
		 M127.843,28.494l-0.869-2.434h1.736L127.843,28.494L127.843,28.494z M132.118,26.727l-2.339-1.109l1.227-1.224L132.118,26.727
		L132.118,26.727z M124.819,22.462c0-1.666,1.354-3.016,3.023-3.016c1.669,0,3.022,1.35,3.022,3.016
		c0,1.666-1.354,3.016-3.022,3.016C126.173,25.478,124.819,24.128,124.819,22.462L124.819,22.462z"/>
	<path style="fill-rule:evenodd;clip-rule:evenodd;fill:#FCC00D;" d="M149.112,22.462l-2.438,0.865v-1.731L149.112,22.462
		L149.112,22.462z M147.343,18.197l-1.112,2.333l-1.227-1.224L147.343,18.197L147.343,18.197z M143.067,16.431l0.867,2.434h-1.736
		L143.067,16.431L143.067,16.431z M138.791,18.197l2.339,1.11l-1.227,1.224L138.791,18.197L138.791,18.197z M137.021,22.462
		l2.439-0.866v1.731L137.021,22.462L137.021,22.462z M138.791,26.727l1.112-2.333l1.227,1.224L138.791,26.727L138.791,26.727z
		 M143.067,28.494l-0.869-2.434h1.736L143.067,28.494L143.067,28.494z M147.343,26.727l-2.339-1.109l1.227-1.224L147.343,26.727
		L147.343,26.727z M140.044,22.462c0-1.666,1.354-3.016,3.023-3.016c1.669,0,3.022,1.35,3.022,3.016
		c0,1.666-1.354,3.016-3.022,3.016C141.397,25.478,140.044,24.128,140.044,22.462L140.044,22.462z"/>
	<path style="fill-rule:evenodd;clip-rule:evenodd;fill:#FCC00D;" d="M12.092,36.835l-2.44,0.865V35.97L12.092,36.835L12.092,36.835
		z M10.32,32.571l-1.111,2.333L7.982,33.68L10.32,32.571L10.32,32.571z M6.046,30.805l0.867,2.433H5.178L6.046,30.805L6.046,30.805z
		 M1.771,32.571l2.339,1.108l-1.227,1.225L1.771,32.571L1.771,32.571z M0,36.835l2.439-0.866v1.731L0,36.835L0,36.835z
		 M1.771,41.101l1.112-2.333l1.227,1.225L1.771,41.101L1.771,41.101z M6.046,42.867l-0.868-2.434h1.735L6.046,42.867L6.046,42.867z
		 M10.32,41.101l-2.338-1.108l1.227-1.225L10.32,41.101L10.32,41.101z M3.023,36.835c0-1.665,1.353-3.015,3.023-3.015
		c1.669,0,3.023,1.35,3.023,3.015c0,1.666-1.354,3.016-3.023,3.016C4.376,39.852,3.023,38.501,3.023,36.835L3.023,36.835z"/>
	<path style="fill-rule:evenodd;clip-rule:evenodd;fill:#FCC00D;" d="M27.316,36.835l-2.44,0.865V35.97L27.316,36.835L27.316,36.835
		z M25.545,32.571l-1.111,2.333l-1.227-1.225L25.545,32.571L25.545,32.571z M21.271,30.805l0.867,2.433h-1.735L21.271,30.805
		L21.271,30.805z M16.995,32.571l2.339,1.108l-1.227,1.225L16.995,32.571L16.995,32.571z M15.225,36.835l2.439-0.866v1.731
		L15.225,36.835L15.225,36.835z M16.995,41.101l1.112-2.333l1.227,1.225L16.995,41.101L16.995,41.101z M21.271,42.867l-0.868-2.434
		h1.735L21.271,42.867L21.271,42.867z M25.545,41.101l-2.338-1.108l1.227-1.225L25.545,41.101L25.545,41.101z M18.248,36.835
		c0-1.665,1.353-3.015,3.023-3.015c1.669,0,3.023,1.35,3.023,3.015c0,1.666-1.354,3.016-3.023,3.016
		C19.601,39.852,18.248,38.501,18.248,36.835L18.248,36.835z"/>
	<path style="fill-rule:evenodd;clip-rule:evenodd;fill:#FCC00D;" d="M42.541,36.835l-2.44,0.865V35.97L42.541,36.835L42.541,36.835
		z M40.77,32.571l-1.111,2.333l-1.227-1.225L40.77,32.571L40.77,32.571z M36.495,30.805l0.867,2.433h-1.735L36.495,30.805
		L36.495,30.805z M32.22,32.571l2.339,1.108l-1.227,1.225L32.22,32.571L32.22,32.571z M30.449,36.835l2.439-0.866v1.731
		L30.449,36.835L30.449,36.835z M32.22,41.101l1.112-2.333l1.227,1.225L32.22,41.101L32.22,41.101z M36.495,42.867l-0.868-2.434
		h1.735L36.495,42.867L36.495,42.867z M40.77,41.101l-2.338-1.108l1.227-1.225L40.77,41.101L40.77,41.101z M33.472,36.835
		c0-1.665,1.353-3.015,3.023-3.015c1.669,0,3.022,1.35,3.022,3.015c0,1.666-1.353,3.016-3.022,3.016
		C34.825,39.852,33.472,38.501,33.472,36.835L33.472,36.835z"/>
	<path style="fill-rule:evenodd;clip-rule:evenodd;fill:#FCC00D;" d="M57.766,36.835l-2.44,0.865V35.97L57.766,36.835L57.766,36.835
		z M55.994,32.571l-1.111,2.333l-1.227-1.225L55.994,32.571L55.994,32.571z M51.72,30.805l0.867,2.433h-1.735L51.72,30.805
		L51.72,30.805z M47.444,32.571l2.339,1.108l-1.227,1.225L47.444,32.571L47.444,32.571z M45.674,36.835l2.439-0.866v1.731
		L45.674,36.835L45.674,36.835z M47.444,41.101l1.112-2.333l1.227,1.225L47.444,41.101L47.444,41.101z M51.72,42.867l-0.868-2.434
		h1.735L51.72,42.867L51.72,42.867z M55.994,41.101l-2.338-1.108l1.227-1.225L55.994,41.101L55.994,41.101z M48.697,36.835
		c0-1.665,1.353-3.015,3.023-3.015c1.669,0,3.022,1.35,3.022,3.015c0,1.666-1.353,3.016-3.022,3.016
		C50.05,39.852,48.697,38.501,48.697,36.835L48.697,36.835z"/>
	<path style="fill-rule:evenodd;clip-rule:evenodd;fill:#FCC00D;" d="M72.99,36.835l-2.44,0.865V35.97L72.99,36.835L72.99,36.835z
		 M71.219,32.571l-1.111,2.333L68.88,33.68L71.219,32.571L71.219,32.571z M66.944,30.805l0.868,2.433h-1.735L66.944,30.805
		L66.944,30.805z M62.668,32.571l2.339,1.108l-1.228,1.225L62.668,32.571L62.668,32.571z M60.897,36.835l2.44-0.866v1.731
		L60.897,36.835L60.897,36.835z M62.668,41.101l1.112-2.333l1.228,1.225L62.668,41.101L62.668,41.101z M66.944,42.867l-0.867-2.434
		h1.735L66.944,42.867L66.944,42.867z M71.219,41.101l-2.338-1.108l1.227-1.225L71.219,41.101L71.219,41.101z M63.921,36.835
		c0-1.665,1.354-3.015,3.023-3.015c1.67,0,3.023,1.35,3.023,3.015c0,1.666-1.353,3.016-3.023,3.016
		C65.274,39.852,63.921,38.501,63.921,36.835L63.921,36.835z"/>
	<path style="fill-rule:evenodd;clip-rule:evenodd;fill:#FCC00D;" d="M88.215,36.835l-2.44,0.865V35.97L88.215,36.835L88.215,36.835
		z M86.443,32.571l-1.111,2.333l-1.227-1.225L86.443,32.571L86.443,32.571z M82.168,30.805l0.868,2.433h-1.735L82.168,30.805
		L82.168,30.805z M77.893,32.571l2.339,1.108l-1.228,1.225L77.893,32.571L77.893,32.571z M76.122,36.835l2.44-0.866v1.731
		L76.122,36.835L76.122,36.835z M77.893,41.101l1.112-2.333l1.228,1.225L77.893,41.101L77.893,41.101z M82.168,42.867l-0.867-2.434
		h1.735L82.168,42.867L82.168,42.867z M86.443,41.101l-2.338-1.108l1.227-1.225L86.443,41.101L86.443,41.101z M79.146,36.835
		c0-1.665,1.354-3.015,3.023-3.015c1.67,0,3.023,1.35,3.023,3.015c0,1.666-1.353,3.016-3.023,3.016
		C80.499,39.852,79.146,38.501,79.146,36.835L79.146,36.835z"/>
	<path style="fill-rule:evenodd;clip-rule:evenodd;fill:#FCC00D;" d="M103.439,36.835L101,37.701V35.97L103.439,36.835
		L103.439,36.835z M101.668,32.571l-1.111,2.333L99.33,33.68L101.668,32.571L101.668,32.571z M97.393,30.805l0.868,2.433h-1.735
		L97.393,30.805L97.393,30.805z M93.118,32.571l2.339,1.108l-1.228,1.225L93.118,32.571L93.118,32.571z M91.347,36.835l2.44-0.866
		v1.731L91.347,36.835L91.347,36.835z M93.118,41.101l1.112-2.333l1.228,1.225L93.118,41.101L93.118,41.101z M97.393,42.867
		l-0.867-2.434h1.735L97.393,42.867L97.393,42.867z M101.668,41.101l-2.338-1.108l1.227-1.225L101.668,41.101L101.668,41.101z
		 M94.37,36.835c0-1.665,1.354-3.015,3.023-3.015c1.67,0,3.023,1.35,3.023,3.015c0,1.666-1.353,3.016-3.023,3.016
		C95.724,39.852,94.37,38.501,94.37,36.835L94.37,36.835z"/>
	<path style="fill-rule:evenodd;clip-rule:evenodd;fill:#FCC00D;" d="M118.664,36.835l-2.44,0.865V35.97L118.664,36.835
		L118.664,36.835z M116.893,32.571l-1.111,2.333l-1.227-1.225L116.893,32.571L116.893,32.571z M112.617,30.805l0.868,2.433h-1.735
		L112.617,30.805L112.617,30.805z M108.342,32.571l2.339,1.108l-1.228,1.225L108.342,32.571L108.342,32.571z M106.571,36.835
		l2.44-0.866v1.731L106.571,36.835L106.571,36.835z M108.342,41.101l1.112-2.333l1.228,1.225L108.342,41.101L108.342,41.101z
		 M112.617,42.867l-0.867-2.434h1.735L112.617,42.867L112.617,42.867z M116.893,41.101l-2.338-1.108l1.227-1.225L116.893,41.101
		L116.893,41.101z M109.595,36.835c0-1.665,1.354-3.015,3.022-3.015c1.67,0,3.023,1.35,3.023,3.015c0,1.666-1.354,3.016-3.023,3.016
		C110.948,39.852,109.595,38.501,109.595,36.835L109.595,36.835z"/>
	<path style="fill-rule:evenodd;clip-rule:evenodd;fill:#FCC00D;" d="M133.888,36.835l-2.438,0.865V35.97L133.888,36.835
		L133.888,36.835z M132.118,32.571l-1.112,2.333l-1.227-1.225L132.118,32.571L132.118,32.571z M127.843,30.805l0.867,2.433h-1.736
		L127.843,30.805L127.843,30.805z M123.566,32.571l2.339,1.108l-1.227,1.225L123.566,32.571L123.566,32.571z M121.796,36.835
		l2.439-0.866v1.731L121.796,36.835L121.796,36.835z M123.566,41.101l1.112-2.333l1.227,1.225L123.566,41.101L123.566,41.101z
		 M127.843,42.867l-0.869-2.434h1.736L127.843,42.867L127.843,42.867z M132.118,41.101l-2.339-1.108l1.227-1.225L132.118,41.101
		L132.118,41.101z M124.819,36.835c0-1.665,1.354-3.015,3.023-3.015c1.669,0,3.022,1.35,3.022,3.015
		c0,1.666-1.354,3.016-3.022,3.016C126.173,39.852,124.819,38.501,124.819,36.835L124.819,36.835z"/>
	<path style="fill-rule:evenodd;clip-rule:evenodd;fill:#FCC00D;" d="M149.112,36.835l-2.438,0.865V35.97L149.112,36.835
		L149.112,36.835z M147.343,32.571l-1.112,2.333l-1.227-1.225L147.343,32.571L147.343,32.571z M143.067,30.805l0.867,2.433h-1.736
		L143.067,30.805L143.067,30.805z M138.791,32.571l2.339,1.108l-1.227,1.225L138.791,32.571L138.791,32.571z M137.021,36.835
		l2.439-0.866v1.731L137.021,36.835L137.021,36.835z M138.791,41.101l1.112-2.333l1.227,1.225L138.791,41.101L138.791,41.101z
		 M143.067,42.867l-0.869-2.434h1.736L143.067,42.867L143.067,42.867z M147.343,41.101l-2.339-1.108l1.227-1.225L147.343,41.101
		L147.343,41.101z M140.044,36.835c0-1.665,1.354-3.015,3.023-3.015c1.669,0,3.022,1.35,3.022,3.015
		c0,1.666-1.354,3.016-3.022,3.016C141.397,39.852,140.044,38.501,140.044,36.835L140.044,36.835z"/>
</g>
<g id="theGroup">
</g>
<g>
</g>
<g>
</g>
<g>
</g>
<g>
</g>
<g>
</g>
<g>
</g>
</svg>
