<?xml version="1.0" encoding="iso-8859-1"?>
<!-- Generator: Adobe Illustrator 16.0.0, SVG Export Plug-In . SVG Version: 6.00 Build 0)  -->
<!DOCTYPE svg PUBLIC "-//W3C//DTD SVG 1.1//EN" "http://www.w3.org/Graphics/SVG/1.1/DTD/svg11.dtd">
<svg version="1.1" id="Lager_1" xmlns="http://www.w3.org/2000/svg" xmlns:xlink="http://www.w3.org/1999/xlink" x="0px" y="0px"
	 width="30.235px" height="21.434px" viewBox="0 0 30.235 21.434" style="enable-background:new 0 0 30.235 21.434;"
	 xml:space="preserve">
<g>
	<path style="fill-rule:evenodd;clip-rule:evenodd;fill:#E52620;" d="M3.84,2.218c1.174-2.99,5.756,0,0,3.844
		C-1.917,2.218,2.666-0.772,3.84,2.218L3.84,2.218z"/>
	<path style="fill:none;stroke:#E52620;stroke-width:2;stroke-linejoin:round;stroke-miterlimit:10;" d="M3.84,2.218
		c1.174-2.99,5.756,0,0,3.844C-1.917,2.218,2.666-0.772,3.84,2.218L3.84,2.218z"/>
	<path style="fill-rule:evenodd;clip-rule:evenodd;fill:#E52620;" d="M15.118,2.218c1.174-2.99,5.756,0,0,3.844
		C9.361,2.218,13.943-0.772,15.118,2.218L15.118,2.218z"/>
	<path style="fill:none;stroke:#E52620;stroke-width:2;stroke-linejoin:round;stroke-miterlimit:10;" d="M15.118,2.218
		c1.174-2.99,5.756,0,0,3.844C9.361,2.218,13.943-0.772,15.118,2.218L15.118,2.218z"/>
	<path style="fill-rule:evenodd;clip-rule:evenodd;fill:#E52620;" d="M26.395,2.218c1.174-2.99,5.756,0,0,3.844
		C20.639,2.218,25.22-0.772,26.395,2.218L26.395,2.218z"/>
	<path style="fill:none;stroke:#E52620;stroke-width:2;stroke-linejoin:round;stroke-miterlimit:10;" d="M26.395,2.218
		c1.174-2.99,5.756,0,0,3.844C20.639,2.218,25.22-0.772,26.395,2.218L26.395,2.218z"/>
	<path style="fill-rule:evenodd;clip-rule:evenodd;fill:#E52620;" d="M3.84,16.591c1.174-2.989,5.756,0,0,3.843
		C-1.917,16.591,2.666,13.602,3.84,16.591L3.84,16.591z"/>
	<path style="fill:none;stroke:#E52620;stroke-width:2;stroke-linejoin:round;stroke-miterlimit:10;" d="M3.84,16.591
		c1.174-2.989,5.756,0,0,3.843C-1.917,16.591,2.666,13.602,3.84,16.591L3.84,16.591z"/>
	<path style="fill-rule:evenodd;clip-rule:evenodd;fill:#E52620;" d="M15.118,16.591c1.174-2.989,5.756,0,0,3.843
		C9.361,16.591,13.943,13.602,15.118,16.591L15.118,16.591z"/>
	<path style="fill:none;stroke:#E52620;stroke-width:2;stroke-linejoin:round;stroke-miterlimit:10;" d="M15.118,16.591
		c1.174-2.989,5.756,0,0,3.843C9.361,16.591,13.943,13.602,15.118,16.591L15.118,16.591z"/>
	<path style="fill-rule:evenodd;clip-rule:evenodd;fill:#E52620;" d="M26.395,16.591c1.174-2.989,5.756,0,0,3.843
		C20.639,16.591,25.22,13.602,26.395,16.591L26.395,16.591z"/>
	<path style="fill:none;stroke:#E52620;stroke-width:2;stroke-linejoin:round;stroke-miterlimit:10;" d="M26.395,16.591
		c1.174-2.989,5.756,0,0,3.843C20.639,16.591,25.22,13.602,26.395,16.591L26.395,16.591z"/>
</g>
<g id="theGroup">
</g>
<g>
</g>
<g>
</g>
<g>
</g>
<g>
</g>
<g>
</g>
<g>
</g>
</svg>
