<?xml version="1.0" encoding="iso-8859-1"?>
<!-- Generator: Adobe Illustrator 16.0.0, SVG Export Plug-In . SVG Version: 6.00 Build 0)  -->
<!DOCTYPE svg PUBLIC "-//W3C//DTD SVG 1.1//EN" "http://www.w3.org/Graphics/SVG/1.1/DTD/svg11.dtd">
<svg version="1.1" id="Lager_1" xmlns="http://www.w3.org/2000/svg" xmlns:xlink="http://www.w3.org/1999/xlink" x="0px" y="0px"
	 width="94.479px" height="32.044px" viewBox="0 0 94.479 32.044" style="enable-background:new 0 0 94.479 32.044;"
	 xml:space="preserve">
<g>
	
		<line style="fill:none;stroke:#000000;stroke-width:0.5;stroke-linecap:square;stroke-miterlimit:10;" x1="87.394" y1="15.242" x2="94.229" y2="15.242"/>
	<g>
		<path d="M88.496,3.687c0.236-0.558,0.534-0.987,0.895-1.291c0.359-0.303,0.809-0.454,1.346-0.454c0.663,0,1.172,0.216,1.525,0.646
			c0.269,0.321,0.403,0.666,0.403,1.032c0,0.602-0.379,1.225-1.136,1.867c0.509,0.199,0.894,0.484,1.154,0.854
			c0.26,0.37,0.391,0.806,0.391,1.307c0,0.716-0.229,1.336-0.684,1.861c-0.595,0.684-1.455,1.025-2.582,1.025
			c-0.558,0-0.938-0.069-1.139-0.208c-0.201-0.138-0.302-0.286-0.302-0.445c0-0.118,0.048-0.222,0.144-0.312
			c0.095-0.089,0.21-0.134,0.345-0.134c0.102,0,0.205,0.016,0.312,0.049c0.068,0.021,0.226,0.095,0.47,0.223
			s0.413,0.204,0.507,0.229c0.15,0.045,0.311,0.067,0.481,0.067c0.415,0,0.776-0.161,1.084-0.482c0.307-0.321,0.46-0.701,0.46-1.141
			c0-0.322-0.07-0.635-0.213-0.94c-0.106-0.228-0.222-0.4-0.348-0.519c-0.176-0.163-0.416-0.311-0.721-0.442
			c-0.305-0.133-0.616-0.198-0.934-0.198H89.76V6.098c0.321-0.041,0.644-0.156,0.967-0.348c0.324-0.191,0.559-0.421,0.705-0.689
			s0.22-0.564,0.22-0.886c0-0.419-0.131-0.758-0.394-1.016c-0.263-0.259-0.589-0.388-0.979-0.388c-0.631,0-1.157,0.338-1.581,1.013
			L88.496,3.687z"/>
	</g>
	<g>
		<path d="M7.232,10.296l0.092,1.941H7.092c-0.045-0.342-0.106-0.586-0.183-0.732c-0.126-0.236-0.294-0.41-0.503-0.522
			c-0.21-0.111-0.485-0.168-0.827-0.168H4.413v6.323c0,0.509,0.055,0.826,0.165,0.952c0.155,0.171,0.393,0.257,0.714,0.257h0.287
			v0.226H2.069v-0.226h0.293c0.35,0,0.598-0.106,0.744-0.317c0.09-0.131,0.135-0.428,0.135-0.892v-6.323H2.246
			c-0.387,0-0.661,0.029-0.824,0.086c-0.211,0.077-0.393,0.226-0.543,0.445s-0.24,0.517-0.269,0.892H0.378l0.098-1.941H7.232z"/>
		<path d="M9.837,12.816v1.258c0.468-0.838,0.948-1.258,1.44-1.258c0.224,0,0.409,0.068,0.556,0.205s0.22,0.294,0.22,0.473
			c0,0.159-0.053,0.293-0.159,0.403c-0.105,0.109-0.231,0.164-0.378,0.164c-0.143,0-0.302-0.069-0.479-0.21
			c-0.177-0.141-0.308-0.211-0.394-0.211c-0.073,0-0.152,0.041-0.238,0.122c-0.183,0.167-0.372,0.441-0.567,0.824v2.679
			c0,0.31,0.039,0.544,0.116,0.702c0.053,0.11,0.146,0.202,0.28,0.274c0.135,0.074,0.328,0.11,0.58,0.11v0.22H7.951v-0.22
			c0.285,0,0.496-0.045,0.635-0.134c0.102-0.065,0.173-0.169,0.213-0.312c0.021-0.069,0.031-0.267,0.031-0.593v-2.166
			c0-0.651-0.014-1.038-0.04-1.163c-0.026-0.124-0.075-0.214-0.146-0.271c-0.071-0.057-0.16-0.085-0.266-0.085
			c-0.126,0-0.269,0.03-0.427,0.091L7.89,13.5l1.691-0.684H9.837z"/>
		<path d="M13.253,15.087c-0.004,0.83,0.197,1.481,0.604,1.953c0.407,0.473,0.885,0.708,1.435,0.708
			c0.366,0,0.685-0.101,0.955-0.302s0.498-0.546,0.681-1.034l0.189,0.121c-0.086,0.558-0.334,1.065-0.745,1.523
			c-0.411,0.458-0.925,0.687-1.544,0.687c-0.671,0-1.246-0.262-1.724-0.784c-0.479-0.522-0.717-1.226-0.717-2.108
			c0-0.956,0.245-1.702,0.735-2.237s1.106-0.803,1.847-0.803c0.626,0,1.141,0.207,1.544,0.62s0.604,0.965,0.604,1.656H13.253z
			 M13.253,14.733h2.588c-0.021-0.358-0.063-0.61-0.128-0.757c-0.102-0.228-0.253-0.407-0.455-0.537
			c-0.201-0.13-0.412-0.195-0.631-0.195c-0.338,0-0.64,0.131-0.907,0.394S13.298,14.266,13.253,14.733z"/>
		<path d="M23.097,13.421v3.675c0,0.521,0.057,0.85,0.171,0.988c0.15,0.179,0.352,0.269,0.604,0.269h0.507v0.22H21.04v-0.22h0.25
			c0.163,0,0.311-0.041,0.446-0.122c0.134-0.081,0.227-0.191,0.277-0.33c0.051-0.138,0.076-0.406,0.076-0.805v-3.675h-1.086v-0.439
			h1.086v-0.366c0-0.558,0.09-1.029,0.269-1.416c0.179-0.387,0.453-0.698,0.821-0.937c0.368-0.238,0.782-0.357,1.242-0.357
			c0.427,0,0.82,0.139,1.178,0.415c0.236,0.184,0.354,0.389,0.354,0.616c0,0.122-0.053,0.237-0.159,0.346
			c-0.106,0.107-0.22,0.161-0.342,0.161c-0.094,0-0.192-0.033-0.296-0.101c-0.104-0.067-0.231-0.211-0.382-0.434
			c-0.15-0.222-0.289-0.371-0.415-0.448c-0.126-0.077-0.266-0.116-0.421-0.116c-0.187,0-0.346,0.05-0.476,0.149
			c-0.13,0.101-0.224,0.255-0.281,0.464c-0.057,0.21-0.085,0.75-0.085,1.621v0.402h1.44v0.439H23.097z"/>
		<path d="M25.964,15.087c-0.004,0.83,0.197,1.481,0.604,1.953c0.407,0.473,0.885,0.708,1.435,0.708
			c0.366,0,0.685-0.101,0.955-0.302s0.498-0.546,0.681-1.034l0.189,0.121c-0.086,0.558-0.334,1.065-0.745,1.523
			c-0.411,0.458-0.925,0.687-1.544,0.687c-0.671,0-1.246-0.262-1.724-0.784c-0.479-0.522-0.717-1.226-0.717-2.108
			c0-0.956,0.245-1.702,0.735-2.237s1.106-0.803,1.847-0.803c0.626,0,1.141,0.207,1.544,0.62s0.604,0.965,0.604,1.656H25.964z
			 M25.964,14.733h2.588c-0.021-0.358-0.063-0.61-0.128-0.757c-0.102-0.228-0.253-0.407-0.455-0.537
			c-0.201-0.13-0.412-0.195-0.631-0.195c-0.338,0-0.64,0.131-0.907,0.394S26.009,14.266,25.964,14.733z"/>
		<path d="M32.158,14.007c0.407-0.406,0.647-0.641,0.72-0.702c0.183-0.154,0.38-0.274,0.592-0.359
			c0.211-0.086,0.421-0.129,0.628-0.129c0.35,0,0.651,0.103,0.903,0.306s0.421,0.498,0.506,0.885
			c0.419-0.488,0.773-0.809,1.062-0.961c0.289-0.152,0.586-0.229,0.891-0.229c0.297,0,0.561,0.077,0.791,0.229
			s0.412,0.401,0.546,0.747c0.089,0.236,0.134,0.606,0.134,1.111v2.404c0,0.351,0.026,0.59,0.08,0.721
			c0.041,0.089,0.116,0.166,0.226,0.229c0.11,0.063,0.289,0.095,0.537,0.095v0.22h-2.759v-0.22h0.116
			c0.24,0,0.427-0.047,0.562-0.141c0.093-0.064,0.161-0.169,0.201-0.312c0.016-0.068,0.024-0.266,0.024-0.592v-2.404
			c0-0.456-0.055-0.777-0.165-0.965c-0.158-0.26-0.413-0.391-0.763-0.391c-0.216,0-0.433,0.055-0.65,0.162
			c-0.218,0.108-0.481,0.309-0.791,0.602l-0.012,0.066l0.012,0.263v2.667c0,0.383,0.021,0.621,0.064,0.715
			c0.043,0.093,0.123,0.172,0.241,0.234c0.118,0.063,0.319,0.095,0.604,0.095v0.22h-2.826v-0.22c0.309,0,0.522-0.036,0.638-0.11
			c0.116-0.072,0.196-0.183,0.241-0.329c0.021-0.069,0.031-0.271,0.031-0.604v-2.404c0-0.456-0.067-0.783-0.202-0.982
			c-0.179-0.261-0.429-0.391-0.75-0.391c-0.22,0-0.438,0.059-0.653,0.177c-0.338,0.179-0.598,0.381-0.781,0.604v2.996
			c0,0.366,0.025,0.604,0.076,0.715c0.051,0.109,0.126,0.191,0.226,0.247c0.1,0.055,0.302,0.082,0.607,0.082v0.22h-2.765v-0.22
			c0.256,0,0.436-0.027,0.537-0.082c0.102-0.056,0.179-0.143,0.232-0.263s0.08-0.354,0.08-0.699v-2.136
			c0-0.614-0.019-1.011-0.055-1.19c-0.028-0.134-0.073-0.227-0.134-0.277s-0.145-0.076-0.25-0.076c-0.114,0-0.25,0.03-0.409,0.091
			L30.21,13.5l1.685-0.684h0.263V14.007z"/>
		<path d="M41.694,11.145v1.837H43v0.428h-1.306v3.625c0,0.362,0.052,0.606,0.156,0.732c0.104,0.126,0.237,0.189,0.399,0.189
			c0.135,0,0.265-0.042,0.391-0.125c0.126-0.084,0.224-0.207,0.293-0.37h0.238c-0.143,0.399-0.344,0.699-0.604,0.9
			c-0.26,0.202-0.529,0.303-0.806,0.303c-0.187,0-0.37-0.052-0.549-0.156c-0.179-0.104-0.312-0.252-0.397-0.445
			s-0.128-0.491-0.128-0.895v-3.759h-0.885v-0.202c0.224-0.089,0.453-0.24,0.687-0.454s0.442-0.467,0.626-0.76
			c0.093-0.155,0.224-0.438,0.391-0.849H41.694z"/>
		<path d="M44.521,15.087c-0.004,0.83,0.197,1.481,0.604,1.953c0.407,0.473,0.885,0.708,1.435,0.708
			c0.366,0,0.685-0.101,0.955-0.302s0.497-0.546,0.681-1.034l0.189,0.121c-0.086,0.558-0.334,1.065-0.745,1.523
			c-0.411,0.458-0.925,0.687-1.544,0.687c-0.671,0-1.246-0.262-1.724-0.784c-0.479-0.522-0.717-1.226-0.717-2.108
			c0-0.956,0.245-1.702,0.735-2.237s1.106-0.803,1.847-0.803c0.626,0,1.141,0.207,1.544,0.62c0.403,0.413,0.604,0.965,0.604,1.656
			H44.521z M44.521,14.733h2.588c-0.021-0.358-0.063-0.61-0.128-0.757c-0.102-0.228-0.253-0.407-0.455-0.537
			c-0.201-0.13-0.412-0.195-0.631-0.195c-0.338,0-0.64,0.131-0.907,0.394S44.566,14.266,44.521,14.733z"/>
		<path d="M53.003,17.943c-0.272,0.285-0.539,0.489-0.8,0.613s-0.541,0.187-0.843,0.187c-0.609,0-1.143-0.255-1.599-0.766
			s-0.684-1.167-0.684-1.969s0.252-1.535,0.757-2.2s1.153-0.998,1.947-0.998c0.492,0,0.899,0.157,1.221,0.47v-1.031
			c0-0.639-0.016-1.031-0.046-1.178s-0.078-0.246-0.144-0.299s-0.146-0.08-0.244-0.08c-0.105,0-0.246,0.033-0.421,0.098
			l-0.079-0.213l1.666-0.684h0.274v6.463c0,0.655,0.016,1.056,0.046,1.199c0.03,0.145,0.079,0.245,0.146,0.303
			c0.067,0.057,0.146,0.085,0.234,0.085c0.11,0,0.257-0.034,0.439-0.104l0.067,0.214l-1.66,0.689h-0.28V17.943z M53.003,17.517
			v-2.881c-0.024-0.276-0.098-0.529-0.22-0.757s-0.284-0.399-0.485-0.516s-0.397-0.174-0.589-0.174c-0.358,0-0.678,0.16-0.958,0.481
			c-0.371,0.424-0.556,1.042-0.556,1.855c0,0.822,0.179,1.452,0.537,1.89c0.357,0.438,0.757,0.656,1.196,0.656
			C52.299,18.072,52.657,17.887,53.003,17.517z"/>
		<path d="M56.243,15.087c-0.004,0.83,0.198,1.481,0.604,1.953c0.407,0.473,0.886,0.708,1.435,0.708
			c0.366,0,0.685-0.101,0.955-0.302s0.498-0.546,0.681-1.034l0.189,0.121c-0.086,0.558-0.334,1.065-0.745,1.523
			s-0.926,0.687-1.544,0.687c-0.671,0-1.246-0.262-1.725-0.784c-0.478-0.522-0.717-1.226-0.717-2.108
			c0-0.956,0.245-1.702,0.735-2.237s1.105-0.803,1.847-0.803c0.626,0,1.142,0.207,1.544,0.62s0.604,0.965,0.604,1.656H56.243z
			 M56.243,14.733h2.588c-0.02-0.358-0.062-0.61-0.128-0.757c-0.102-0.228-0.253-0.407-0.454-0.537
			c-0.202-0.13-0.412-0.195-0.632-0.195c-0.338,0-0.641,0.131-0.906,0.394C56.444,13.9,56.288,14.266,56.243,14.733z"/>
		<path d="M62.7,9.894v7.415c0,0.351,0.025,0.582,0.076,0.696c0.051,0.113,0.129,0.2,0.235,0.259
			c0.105,0.06,0.303,0.089,0.592,0.089v0.22h-2.74v-0.22c0.256,0,0.431-0.026,0.524-0.079s0.167-0.141,0.22-0.263
			s0.079-0.356,0.079-0.702V12.23c0-0.63-0.014-1.018-0.042-1.162c-0.029-0.145-0.075-0.243-0.138-0.296
			c-0.063-0.053-0.144-0.08-0.241-0.08c-0.105,0-0.24,0.033-0.402,0.098l-0.104-0.213l1.667-0.684H62.7z"/>
		<path d="M67.268,17.767c-0.574,0.443-0.934,0.7-1.08,0.769c-0.221,0.103-0.454,0.153-0.702,0.153
			c-0.387,0-0.705-0.133-0.955-0.397c-0.251-0.264-0.376-0.612-0.376-1.043c0-0.272,0.062-0.509,0.184-0.708
			c0.167-0.276,0.456-0.537,0.869-0.781s1.1-0.541,2.061-0.892v-0.22c0-0.557-0.089-0.939-0.266-1.147
			c-0.177-0.207-0.435-0.311-0.772-0.311c-0.256,0-0.46,0.069-0.61,0.207c-0.154,0.139-0.231,0.297-0.231,0.477l0.012,0.354
			c0,0.188-0.048,0.332-0.144,0.434s-0.221,0.152-0.375,0.152c-0.15,0-0.273-0.053-0.369-0.158
			c-0.096-0.106-0.144-0.251-0.144-0.434c0-0.35,0.179-0.672,0.537-0.965s0.86-0.439,1.508-0.439c0.496,0,0.903,0.084,1.221,0.251
			c0.24,0.126,0.417,0.323,0.53,0.592c0.074,0.175,0.11,0.533,0.11,1.074v1.897c0,0.533,0.01,0.86,0.03,0.98s0.054,0.2,0.101,0.24
			c0.047,0.041,0.101,0.062,0.162,0.062c0.065,0,0.122-0.015,0.171-0.043c0.086-0.053,0.25-0.201,0.494-0.445v0.342
			c-0.455,0.61-0.891,0.915-1.306,0.915c-0.199,0-0.358-0.068-0.477-0.207S67.271,18.101,67.268,17.767z M67.268,17.37v-2.13
			c-0.614,0.244-1.012,0.417-1.19,0.519c-0.321,0.179-0.552,0.366-0.689,0.562c-0.139,0.195-0.208,0.408-0.208,0.641
			c0,0.293,0.088,0.536,0.263,0.729s0.376,0.29,0.604,0.29C66.355,17.98,66.763,17.776,67.268,17.37z"/>
		<path d="M71.209,12.816v1.258c0.468-0.838,0.948-1.258,1.44-1.258c0.224,0,0.409,0.068,0.556,0.205s0.22,0.294,0.22,0.473
			c0,0.159-0.053,0.293-0.159,0.403c-0.105,0.109-0.231,0.164-0.378,0.164c-0.143,0-0.303-0.069-0.479-0.21
			s-0.308-0.211-0.394-0.211c-0.073,0-0.152,0.041-0.238,0.122c-0.183,0.167-0.372,0.441-0.567,0.824v2.679
			c0,0.31,0.039,0.544,0.116,0.702c0.053,0.11,0.146,0.202,0.28,0.274c0.135,0.074,0.328,0.11,0.58,0.11v0.22h-2.862v-0.22
			c0.284,0,0.496-0.045,0.635-0.134c0.102-0.065,0.173-0.169,0.213-0.312c0.021-0.069,0.031-0.267,0.031-0.593v-2.166
			c0-0.651-0.014-1.038-0.04-1.163c-0.026-0.124-0.075-0.214-0.146-0.271c-0.071-0.057-0.159-0.085-0.266-0.085
			c-0.126,0-0.269,0.03-0.427,0.091l-0.062-0.22l1.69-0.684H71.209z"/>
	</g>
	<g>
		<path d="M93.209,19.935l-0.476,1.038h-2.49l-0.544,1.11c1.079,0.159,1.934,0.56,2.564,1.202c0.541,0.554,0.812,1.205,0.812,1.953
			c0,0.436-0.089,0.839-0.266,1.209s-0.399,0.686-0.669,0.945c-0.268,0.261-0.567,0.471-0.896,0.629
			c-0.468,0.224-0.948,0.336-1.44,0.336c-0.497,0-0.857-0.085-1.084-0.253c-0.226-0.169-0.339-0.355-0.339-0.559
			c0-0.114,0.047-0.215,0.141-0.303c0.094-0.087,0.212-0.131,0.354-0.131c0.105,0,0.198,0.017,0.277,0.049s0.215,0.116,0.406,0.25
			c0.305,0.212,0.614,0.317,0.928,0.317c0.476,0,0.894-0.18,1.254-0.54s0.54-0.799,0.54-1.315c0-0.5-0.16-0.967-0.482-1.4
			c-0.321-0.434-0.765-0.769-1.33-1.004c-0.443-0.184-1.048-0.289-1.812-0.317l1.587-3.217H93.209z"/>
	</g>
	<g>
		<path d="M77.032,13.939h6.409v0.593h-6.409V13.939z M77.032,16.217h6.409v0.604h-6.409V16.217z"/>
	</g>
</g>
<g id="theGroup">
</g>
</svg>
