<?xml version="1.0" encoding="iso-8859-1"?>
<!-- Generator: Adobe Illustrator 16.0.0, SVG Export Plug-In . SVG Version: 6.00 Build 0)  -->
<!DOCTYPE svg PUBLIC "-//W3C//DTD SVG 1.1//EN" "http://www.w3.org/Graphics/SVG/1.1/DTD/svg11.dtd">
<svg version="1.1" id="Lager_1" xmlns="http://www.w3.org/2000/svg" xmlns:xlink="http://www.w3.org/1999/xlink" x="0px" y="0px"
	 width="156.07px" height="32.655px" viewBox="0 0 156.07 32.655" style="enable-background:new 0 0 156.07 32.655;"
	 xml:space="preserve">
<g>
	
		<line style="fill:none;stroke:#0066FF;stroke-width:0.5;stroke-linecap:square;stroke-miterlimit:10;" x1="0.25" y1="15.854" x2="47.867" y2="15.854"/>
	
		<line style="fill:none;stroke:#0066FF;stroke-width:0.5;stroke-linecap:square;stroke-miterlimit:10;" x1="62.008" y1="15.854" x2="94" y2="15.854"/>
	
		<line style="fill:none;stroke:#0066FF;stroke-width:0.5;stroke-linecap:square;stroke-miterlimit:10;" x1="108.141" y1="15.854" x2="128.844" y2="15.854"/>
	<g>
		<path style="fill:#0066FF;" d="M10.461,6.831C9.806,6.294,9.384,5.863,9.194,5.537C9.005,5.212,8.911,4.874,8.911,4.524
			c0-0.537,0.207-1,0.622-1.389s0.967-0.583,1.654-0.583c0.667,0,1.204,0.181,1.611,0.543c0.406,0.362,0.61,0.775,0.61,1.239
			c0,0.309-0.11,0.625-0.33,0.946c-0.22,0.321-0.677,0.7-1.373,1.135c0.716,0.554,1.19,0.989,1.422,1.307
			c0.31,0.415,0.464,0.852,0.464,1.312c0,0.582-0.222,1.08-0.665,1.492c-0.443,0.413-1.025,0.62-1.745,0.62
			c-0.786,0-1.398-0.246-1.838-0.738c-0.35-0.395-0.524-0.826-0.524-1.294c0-0.366,0.123-0.729,0.369-1.09
			C9.435,7.665,9.858,7.267,10.461,6.831z M10.748,7.063C10.41,7.348,10.16,7.658,9.997,7.994C9.834,8.33,9.753,8.693,9.753,9.083
			c0,0.525,0.144,0.945,0.431,1.26c0.286,0.315,0.651,0.473,1.096,0.473c0.439,0,0.791-0.124,1.056-0.373
			c0.265-0.248,0.396-0.549,0.396-0.903c0-0.293-0.077-0.555-0.231-0.787C12.211,8.323,11.627,7.759,10.748,7.063z M11.419,6.178
			c0.488-0.439,0.798-0.786,0.928-1.041c0.131-0.254,0.195-0.542,0.195-0.864c0-0.427-0.12-0.762-0.359-1.004
			c-0.24-0.242-0.568-0.363-0.983-0.363s-0.753,0.12-1.013,0.36c-0.261,0.24-0.391,0.521-0.391,0.843
			c0,0.211,0.054,0.423,0.161,0.635c0.108,0.211,0.262,0.413,0.461,0.604L11.419,6.178z"/>
		<path style="fill:#0066FF;" d="M29.281,13.447v0.226c-0.614-0.309-1.127-0.671-1.538-1.086c-0.586-0.59-1.037-1.286-1.354-2.087
			s-0.477-1.634-0.477-2.497c0-1.261,0.312-2.412,0.934-3.451c0.623-1.04,1.435-1.783,2.436-2.231v0.256
			c-0.5,0.277-0.911,0.655-1.232,1.135s-0.562,1.088-0.721,1.825C27.17,6.274,27.09,7.043,27.09,7.845
			c0,0.871,0.067,1.662,0.202,2.374c0.105,0.562,0.233,1.012,0.384,1.352c0.151,0.339,0.354,0.666,0.607,0.979
			C28.538,12.864,28.87,13.163,29.281,13.447z"/>
		<path style="fill:#0066FF;" d="M42.644,9.407L42.063,11h-4.883v-0.226c1.437-1.311,2.447-2.381,3.033-3.211
			s0.879-1.589,0.879-2.276c0-0.525-0.16-0.956-0.481-1.294s-0.706-0.507-1.154-0.507c-0.406,0-0.771,0.119-1.095,0.357
			c-0.324,0.238-0.562,0.587-0.718,1.047h-0.226c0.102-0.753,0.363-1.331,0.784-1.733c0.421-0.403,0.947-0.604,1.578-0.604
			c0.671,0,1.231,0.216,1.682,0.647c0.449,0.431,0.674,0.94,0.674,1.526c0,0.419-0.098,0.838-0.293,1.257
			c-0.301,0.659-0.789,1.357-1.465,2.093c-1.013,1.107-1.646,1.774-1.898,2.002h2.161c0.439,0,0.748-0.016,0.925-0.049
			c0.177-0.032,0.337-0.098,0.479-0.198c0.143-0.1,0.267-0.241,0.373-0.424H42.644z"/>
		<path style="fill:#0066FF;" d="M43.443,2.577V2.321c0.618,0.305,1.133,0.666,1.544,1.081c0.582,0.594,1.031,1.291,1.349,2.09
			c0.317,0.799,0.477,1.632,0.477,2.5c0,1.261-0.311,2.412-0.931,3.451c-0.621,1.04-1.434,1.783-2.438,2.231v-0.226
			c0.5-0.28,0.912-0.66,1.235-1.138c0.324-0.478,0.563-1.086,0.721-1.825c0.156-0.739,0.234-1.509,0.234-2.311
			c0-0.866-0.066-1.658-0.201-2.374c-0.102-0.562-0.229-1.011-0.381-1.349c-0.153-0.338-0.355-0.664-0.607-0.977
			C44.191,3.161,43.858,2.862,43.443,2.577z"/>
		<path style="fill:#0066FF;" d="M72.198,6.831c-0.654-0.537-1.077-0.968-1.266-1.294c-0.189-0.325-0.284-0.663-0.284-1.013
			c0-0.537,0.207-1,0.622-1.389s0.967-0.583,1.654-0.583c0.668,0,1.205,0.181,1.611,0.543c0.407,0.362,0.61,0.775,0.61,1.239
			c0,0.309-0.109,0.625-0.329,0.946c-0.22,0.321-0.678,0.7-1.374,1.135c0.717,0.554,1.19,0.989,1.423,1.307
			c0.309,0.415,0.464,0.852,0.464,1.312c0,0.582-0.222,1.08-0.666,1.492c-0.443,0.413-1.025,0.62-1.745,0.62
			c-0.785,0-1.397-0.246-1.837-0.738c-0.351-0.395-0.525-0.826-0.525-1.294c0-0.366,0.123-0.729,0.369-1.09
			C71.172,7.665,71.597,7.267,72.198,6.831z M72.485,7.063c-0.338,0.285-0.588,0.595-0.751,0.931
			C71.572,8.33,71.49,8.693,71.49,9.083c0,0.525,0.144,0.945,0.431,1.26c0.287,0.315,0.652,0.473,1.096,0.473
			c0.439,0,0.791-0.124,1.056-0.373c0.265-0.248,0.396-0.549,0.396-0.903c0-0.293-0.077-0.555-0.231-0.787
			C73.948,8.323,73.364,7.759,72.485,7.063z M73.157,6.178c0.488-0.439,0.797-0.786,0.928-1.041c0.13-0.254,0.195-0.542,0.195-0.864
			c0-0.427-0.12-0.762-0.36-1.004s-0.567-0.363-0.982-0.363s-0.753,0.12-1.014,0.36c-0.26,0.24-0.391,0.521-0.391,0.843
			c0,0.211,0.054,0.423,0.162,0.635c0.107,0.211,0.262,0.413,0.461,0.604L73.157,6.178z"/>
		<path style="fill:#0066FF;" d="M93.068,9.407L92.488,11h-4.883v-0.226c1.437-1.311,2.447-2.381,3.033-3.211
			s0.879-1.589,0.879-2.276c0-0.525-0.16-0.956-0.481-1.294c-0.322-0.338-0.706-0.507-1.154-0.507c-0.406,0-0.771,0.119-1.096,0.357
			c-0.323,0.238-0.562,0.587-0.717,1.047h-0.226c0.102-0.753,0.363-1.331,0.784-1.733c0.421-0.403,0.947-0.604,1.578-0.604
			c0.671,0,1.231,0.216,1.681,0.647c0.45,0.431,0.675,0.94,0.675,1.526c0,0.419-0.098,0.838-0.293,1.257
			c-0.301,0.659-0.789,1.357-1.465,2.093c-1.014,1.107-1.646,1.774-1.898,2.002h2.161c0.439,0,0.747-0.016,0.925-0.049
			c0.177-0.032,0.336-0.098,0.479-0.198c0.143-0.1,0.267-0.241,0.373-0.424H93.068z"/>
		<path style="fill:#0066FF;" d="M117.39,3.535l2.014-0.982h0.202v6.988c0,0.464,0.019,0.753,0.058,0.867
			c0.039,0.114,0.119,0.201,0.241,0.262s0.37,0.096,0.745,0.104V11h-3.113v-0.226c0.391-0.008,0.643-0.042,0.757-0.101
			c0.114-0.059,0.193-0.138,0.238-0.238s0.067-0.398,0.067-0.895V5.073c0-0.602-0.021-0.988-0.062-1.159
			c-0.028-0.13-0.08-0.226-0.155-0.287c-0.076-0.061-0.166-0.092-0.271-0.092c-0.151,0-0.36,0.063-0.629,0.189L117.39,3.535z"/>
		<path style="fill:#0066FF;" d="M122.626,6.911c0-0.944,0.143-1.757,0.428-2.438c0.285-0.681,0.663-1.189,1.135-1.523
			c0.367-0.264,0.745-0.396,1.136-0.396c0.635,0,1.204,0.323,1.709,0.971c0.631,0.801,0.946,1.888,0.946,3.259
			c0,0.96-0.139,1.776-0.415,2.448c-0.277,0.671-0.63,1.159-1.06,1.462c-0.429,0.303-0.843,0.455-1.242,0.455
			c-0.789,0-1.446-0.466-1.971-1.397C122.849,8.963,122.626,8.018,122.626,6.911z M123.823,7.063c0,1.139,0.14,2.069,0.421,2.789
			c0.231,0.606,0.577,0.909,1.037,0.909c0.22,0,0.448-0.098,0.684-0.296c0.236-0.197,0.415-0.528,0.537-0.992
			c0.188-0.7,0.281-1.687,0.281-2.96c0-0.944-0.098-1.731-0.293-2.362c-0.146-0.468-0.336-0.799-0.567-0.995
			c-0.167-0.135-0.369-0.202-0.604-0.202c-0.277,0-0.523,0.124-0.739,0.373c-0.293,0.337-0.492,0.869-0.598,1.593
			S123.823,6.359,123.823,7.063z"/>
	</g>
	<g>
		<path style="fill:#0066FF;" d="M155.246,10.907l-0.476,1.038h-2.49l-0.544,1.111c1.079,0.159,1.934,0.56,2.564,1.202
			c0.541,0.554,0.812,1.205,0.812,1.953c0,0.436-0.089,0.839-0.266,1.209s-0.399,0.686-0.669,0.945
			c-0.268,0.261-0.567,0.471-0.896,0.629c-0.468,0.224-0.948,0.336-1.44,0.336c-0.497,0-0.857-0.085-1.084-0.253
			c-0.226-0.169-0.339-0.355-0.339-0.559c0-0.114,0.047-0.215,0.141-0.303c0.094-0.087,0.212-0.131,0.354-0.131
			c0.105,0,0.198,0.017,0.277,0.049s0.215,0.116,0.406,0.25c0.305,0.212,0.614,0.317,0.928,0.317c0.476,0,0.894-0.18,1.254-0.54
			s0.54-0.799,0.54-1.315c0-0.5-0.16-0.967-0.482-1.4c-0.321-0.434-0.765-0.768-1.33-1.004c-0.443-0.184-1.048-0.289-1.812-0.317
			l1.587-3.217H155.246z"/>
	</g>
	<g>
		<path style="fill:#0066FF;" d="M26.831,27.229l-0.58,1.593h-4.883v-0.226c1.437-1.311,2.447-2.381,3.033-3.211
			s0.879-1.589,0.879-2.276c0-0.525-0.161-0.956-0.482-1.294s-0.706-0.507-1.153-0.507c-0.407,0-0.772,0.119-1.096,0.357
			s-0.562,0.587-0.717,1.047h-0.226c0.102-0.753,0.362-1.331,0.784-1.733c0.421-0.403,0.946-0.604,1.577-0.604
			c0.672,0,1.232,0.216,1.682,0.646c0.449,0.432,0.675,0.94,0.675,1.526c0,0.419-0.098,0.838-0.293,1.257
			c-0.302,0.66-0.79,1.357-1.465,2.094c-1.014,1.107-1.646,1.774-1.898,2.002h2.161c0.439,0,0.747-0.016,0.924-0.049
			c0.178-0.032,0.337-0.099,0.479-0.198s0.267-0.241,0.372-0.424H26.831z"/>
		<path style="fill:#0066FF;" d="M80.768,27.229l-0.58,1.593h-4.882v-0.226c1.437-1.311,2.447-2.381,3.033-3.211
			s0.879-1.589,0.879-2.276c0-0.525-0.161-0.956-0.482-1.294s-0.706-0.507-1.153-0.507c-0.407,0-0.772,0.119-1.096,0.357
			s-0.562,0.587-0.717,1.047h-0.226c0.102-0.753,0.362-1.331,0.784-1.733c0.421-0.403,0.946-0.604,1.577-0.604
			c0.672,0,1.232,0.216,1.682,0.646c0.449,0.432,0.675,0.94,0.675,1.526c0,0.419-0.098,0.838-0.293,1.257
			c-0.302,0.66-0.79,1.357-1.465,2.094c-1.014,1.107-1.646,1.774-1.898,2.002h2.161c0.439,0,0.747-0.016,0.924-0.049
			c0.177-0.032,0.337-0.099,0.479-0.198s0.266-0.241,0.373-0.424H80.768z"/>
		<path style="fill:#0066FF;" d="M121.269,27.229l-0.58,1.593h-4.883v-0.226c1.437-1.311,2.447-2.381,3.033-3.211
			s0.879-1.589,0.879-2.276c0-0.525-0.16-0.956-0.481-1.294c-0.322-0.338-0.706-0.507-1.154-0.507c-0.406,0-0.771,0.119-1.096,0.357
			c-0.323,0.238-0.562,0.587-0.717,1.047h-0.226c0.102-0.753,0.363-1.331,0.784-1.733c0.421-0.403,0.947-0.604,1.578-0.604
			c0.671,0,1.231,0.216,1.681,0.646c0.45,0.432,0.675,0.94,0.675,1.526c0,0.419-0.098,0.838-0.293,1.257
			c-0.301,0.66-0.789,1.357-1.465,2.094c-1.014,1.107-1.646,1.774-1.898,2.002h2.161c0.439,0,0.747-0.016,0.925-0.049
			c0.177-0.032,0.336-0.099,0.479-0.198s0.267-0.241,0.373-0.424H121.269z"/>
	</g>
	<g>
		<path style="fill:#0066FF;" d="M1.442,7.484h6.409v0.604H1.442V7.484z"/>
		<path style="fill:#0066FF;" d="M19.264,4.591h0.599v2.917h2.899v0.592h-2.899V11h-0.599V8.101h-2.911V7.509h2.911V4.591z"/>
		<path style="fill:#0066FF;" d="M30.288,7.484h6.409v0.604h-6.409V7.484z"/>
		<path style="fill:#0066FF;" d="M63.173,7.484h6.409v0.604h-6.409V7.484z"/>
		<path style="fill:#0066FF;" d="M78.283,7.484h6.409v0.604h-6.409V7.484z"/>
		<path style="fill:#0066FF;" d="M109.294,7.484h6.409v0.604h-6.409V7.484z"/>
	</g>
	<g>
		<path style="fill:#0066FF;" d="M51.647,14.551h6.409v0.592h-6.409V14.551z M51.647,16.827h6.409v0.604h-6.409V16.827z"/>
		<path style="fill:#0066FF;" d="M97.77,14.551h6.409v0.592H97.77V14.551z M97.77,16.827h6.409v0.604H97.77V16.827z"/>
		<path style="fill:#0066FF;" d="M132.605,14.551h6.409v0.592h-6.409V14.551z M132.605,16.827h6.409v0.604h-6.409V16.827z"/>
		<path style="fill:#0066FF;" d="M143.19,15.668h6.409v0.604h-6.409V15.668z"/>
	</g>
</g>
<g id="theGroup">
</g>
</svg>
