<?xml version="1.0" encoding="iso-8859-1"?>
<!-- Generator: Adobe Illustrator 16.0.0, SVG Export Plug-In . SVG Version: 6.00 Build 0)  -->
<!DOCTYPE svg PUBLIC "-//W3C//DTD SVG 1.1//EN" "http://www.w3.org/Graphics/SVG/1.1/DTD/svg11.dtd">
<svg version="1.1" id="Lager_1" xmlns="http://www.w3.org/2000/svg" xmlns:xlink="http://www.w3.org/1999/xlink" x="0px" y="0px"
	 width="118.057px" height="85.63px" viewBox="0 0 118.057 85.63" style="enable-background:new 0 0 118.057 85.63;"
	 xml:space="preserve">
<g id="XMLID_2_">
	<g>
		<path style="fill:#C6C6C6;" d="M0.27,43.24V2.31C5.88,2.34,11.21,3.5,16.05,5.59L0.65,42.75l-0.09,0.22l0.05,0.13L0.27,43.24z"/>
		<path style="fill:#C51A1B;" d="M0.27,43.24L0.61,43.1L36.17,28.37C38.12,32.979,39.2,38.06,39.2,43.38
			c0,21.36-17.319,38.67-38.68,38.67H0.27V43.24z"/>
		<path style="fill:#C6C6C6;" d="M36.17,28.37L0.61,43.1l-0.05-0.13l0.09-0.22L28.96,14.43c3.38,3.41,6.159,7.44,8.159,11.891
			l0.58,1.409L36.17,28.37z"/>
		<path style="fill:#C6C6C6;" d="M28.96,14.43L0.65,42.75l15.4-37.16C20.92,7.68,25.3,10.7,28.96,14.43z"/>
	</g>
	<g>
		<path style="fill:none;stroke:#F39200;stroke-width:3;" d="M36.16,28.33c0.011,0.01,0.011,0.03,0.011,0.04
			C38.12,32.979,39.2,38.06,39.2,43.38c0,21.36-17.319,38.67-38.68,38.67"/>
		<polyline style="fill:none;stroke:#000000;stroke-width:0.5;stroke-dasharray:2;" points="0.27,43.24 0.61,43.1 36.17,28.37 
			37.7,27.729 38.53,27.39 		"/>
		<polyline style="fill:none;stroke:#000000;stroke-width:0.5;stroke-dasharray:2;" points="0.44,42.96 0.65,42.75 28.96,14.43 
			29.72,13.67 		"/>
		<polyline style="fill:none;stroke:#000000;stroke-width:0.5;stroke-dasharray:2;" points="0.56,42.97 0.65,42.75 16.05,5.59 
			16.41,4.71 		"/>
		<polyline style="fill:none;stroke:#000000;stroke-width:0.5;stroke-dasharray:2;" points="0.27,2.13 0.27,2.31 0.27,43.24 
			0.27,82.05 0.27,85.63 		"/>
		<path style="fill:none;stroke:#000000;stroke-width:0.5;stroke-dasharray:2;" d="M0,2.3c0.09,0,0.18,0,0.27,0.01
			C5.88,2.34,11.21,3.5,16.05,5.59c4.87,2.09,9.25,5.11,12.91,8.84c3.38,3.41,6.159,7.44,8.159,11.891"/>
	</g>
</g>
<circle style="fill:#B1C599;" cx="29.85" cy="37.63" r="3.498"/>
<circle style="fill:#B1C599;" cx="8.485" cy="46.878" r="3.498"/>
<circle style="fill:#B1C599;" cx="23.23" cy="53.874" r="3.498"/>
<circle style="fill:#B1C599;" cx="4.987" cy="62.728" r="3.498"/>
<circle style="fill:#B1C599;" cx="15.207" cy="69.724" r="3.498"/>
<path style="fill:#B9917B;" d="M31.409,48.373c0,0-9.632-6.272-16.305-4.174"/>
<path style="fill:#B9917B;" d="M13.921,52.729c0,0,2.397,11.242,8.605,14.464"/>
<circle style="fill:#00723F;stroke:#00723F;" cx="33.349" cy="49.667" r="0.708"/>
<circle style="fill:#00723F;stroke:#00723F;" cx="23.23" cy="62.509" r="0.708"/>
<circle style="fill:#00723F;stroke:#00723F;" cx="15.08" cy="41.128" r="0.708"/>
<circle style="fill:#00723F;stroke:#00723F;" cx="4.987" cy="72.669" r="0.708"/>
<circle style="fill:#00723F;stroke:#00723F;" cx="7.03" cy="55.189" r="0.708"/>
<g id="XMLID_3_">
	<g>
		<path style="fill:#C6C6C6;" d="M116.701,42.96c0,3.82-0.53,7.51-1.521,11.01l-0.42,1.28l-1.36-0.44L77.18,43.05l37.66-12.229
			C116.05,34.649,116.701,38.729,116.701,42.96z"/>
		<path style="fill:#C6C6C6;" d="M77.18,43.05l-0.59,0.19v-0.28l23.65-32.54c6.819,5.02,12,12.14,14.6,20.4L77.18,43.05z"/>
		<path style="fill:#C51A1B;" d="M113.4,54.81v0.011c-5,15.56-19.59,26.81-36.81,26.81V43.24l0.59-0.19L113.4,54.81z"/>
		<path style="fill:#C6C6C6;" d="M100.241,10.42L76.59,42.96V2.57C85.44,2.63,93.611,5.54,100.241,10.42z"/>
	</g>
	<g>
		<path style="fill:none;stroke:#F39200;stroke-width:3;" d="M113.4,54.82c-5,15.56-19.59,26.81-36.81,26.81h-0.01"/>
		<path style="fill:none;stroke:#000000;stroke-width:0.5;stroke-dasharray:2;" d="M76.3,2.57c0.1,0,0.19,0,0.29,0
			c8.85,0.06,17.021,2.97,23.65,7.85c6.819,5.02,12,12.14,14.6,20.4c1.21,3.829,1.86,7.909,1.86,12.14c0,3.82-0.53,7.51-1.521,11.01
			"/>
		<polyline style="fill:none;stroke:#000000;stroke-width:0.5;stroke-dasharray:2;" points="76.59,85.63 76.59,81.63 76.59,43.24 
			76.59,42.96 76.59,2.57 76.59,0 		"/>
		<polyline style="fill:none;stroke:#000000;stroke-width:0.5;stroke-dasharray:2;" points="76.59,42.96 100.241,10.42 101.84,8.21 
					"/>
		<polyline style="fill:none;stroke:#000000;stroke-width:0.5;stroke-dasharray:2;" points="76.59,43.24 77.18,43.05 114.84,30.82 
			117.44,29.97 		"/>
		<polyline style="fill:none;stroke:#000000;stroke-width:0.5;stroke-dasharray:2;" points="77.13,43.03 77.18,43.05 113.4,54.81 
			114.76,55.25 117.98,56.3 		"/>
	</g>
</g>
<circle style="fill:#B1C599;" cx="82.39" cy="71.96" r="3.498"/>
<circle style="fill:#B1C599;" cx="83.64" cy="53.874" r="3.498"/>
<circle style="fill:#B1C599;" cx="97.025" cy="69.157" r="3.498"/>
<circle style="fill:#B1C599;" cx="98.498" cy="54.82" r="3.498"/>
<path style="fill:#B9917B;" d="M102.953,66.093c0,0-8.055-8.2-15.023-7.588"/>
<path style="fill:#B9917B;" d="M90.232,76.06c0,0-1.352-11.415-7.236-15.195"/>
<circle style="fill:#00723F;stroke:#00723F;" cx="90.234" cy="50.667" r="0.708"/>
<circle style="fill:#00723F;stroke:#00723F;" cx="80.142" cy="60.864" r="0.708"/>
<circle style="fill:#00723F;stroke:#00723F;" cx="91.651" cy="69.724" r="0.708"/>
<circle style="fill:#00723F;stroke:#00723F;" cx="103.659" cy="58.472" r="0.708"/>
<line style="fill:none;stroke:#000000;stroke-width:0.5;stroke-dasharray:2;" x1="76.6" y1="42.96" x2="101.85" y2="77.34"/>
<line style="fill:none;stroke:#000000;stroke-width:0.5;stroke-dasharray:2;" x1="0.52" y1="43.38" x2="41.94" y2="43.38"/>
<line style="fill:none;stroke:#000000;stroke-width:0.5;stroke-dasharray:2;" x1="0.27" y1="43.24" x2="38.53" y2="59.229"/>
<line style="fill:none;stroke:#000000;stroke-width:0.5;stroke-dasharray:2;" x1="0.27" y1="43.24" x2="29.85" y2="72.67"/>
<line style="fill:none;stroke:#000000;stroke-width:0.5;stroke-dasharray:2;" x1="0.27" y1="43.24" x2="16.41" y2="81.64"/>
<g id="theGroup">
</g>
<g>
</g>
<g>
</g>
<g>
</g>
<g>
</g>
<g>
</g>
<g>
</g>
<g>
</g>
<g>
</g>
<g>
</g>
<g>
</g>
<g>
</g>
<g>
</g>
</svg>
