<?xml version="1.0" encoding="iso-8859-1"?>
<!-- Generator: Adobe Illustrator 16.0.0, SVG Export Plug-In . SVG Version: 6.00 Build 0)  -->
<!DOCTYPE svg PUBLIC "-//W3C//DTD SVG 1.1//EN" "http://www.w3.org/Graphics/SVG/1.1/DTD/svg11.dtd">
<svg version="1.1" id="Lager_1" xmlns="http://www.w3.org/2000/svg" xmlns:xlink="http://www.w3.org/1999/xlink" x="0px" y="0px"
	 width="83.976px" height="32.044px" viewBox="0 0 83.976 32.044" style="enable-background:new 0 0 83.976 32.044;"
	 xml:space="preserve">
<g>
	
		<line style="fill:none;stroke:#0066FF;stroke-width:0.5;stroke-linecap:square;stroke-miterlimit:10;" x1="0.25" y1="15.242" x2="31.695" y2="15.242"/>
	<g>
		<path style="fill:#0066FF;" d="M1.275,3.687c0.236-0.558,0.534-0.987,0.894-1.291c0.36-0.303,0.809-0.454,1.346-0.454
			c0.663,0,1.172,0.216,1.525,0.646C5.309,2.909,5.444,3.254,5.444,3.62c0,0.602-0.379,1.225-1.136,1.867
			c0.509,0.199,0.894,0.484,1.154,0.854s0.391,0.806,0.391,1.307c0,0.716-0.228,1.336-0.684,1.861
			c-0.594,0.684-1.455,1.025-2.582,1.025c-0.558,0-0.937-0.069-1.139-0.208c-0.201-0.138-0.302-0.286-0.302-0.445
			c0-0.118,0.047-0.222,0.143-0.312C1.386,9.481,1.5,9.437,1.635,9.437c0.102,0,0.205,0.016,0.311,0.049
			c0.069,0.021,0.226,0.095,0.47,0.223s0.413,0.204,0.506,0.229c0.15,0.045,0.311,0.067,0.482,0.067
			c0.415,0,0.776-0.161,1.083-0.482S4.949,8.82,4.949,8.381c0-0.322-0.071-0.635-0.213-0.94C4.63,7.213,4.514,7.04,4.388,6.922
			c-0.175-0.163-0.415-0.311-0.72-0.442C3.362,6.347,3.051,6.281,2.734,6.281H2.539V6.098C2.86,6.057,3.182,5.941,3.506,5.75
			C3.829,5.559,4.064,5.329,4.21,5.061s0.22-0.564,0.22-0.886c0-0.419-0.131-0.758-0.394-1.016C3.774,2.9,3.448,2.771,3.057,2.771
			c-0.631,0-1.158,0.338-1.581,1.013L1.275,3.687z"/>
		<path style="fill:#0066FF;" d="M12.066,5.823c0.407-0.407,0.647-0.641,0.72-0.702c0.183-0.154,0.38-0.274,0.592-0.36
			c0.211-0.085,0.421-0.128,0.628-0.128c0.35,0,0.651,0.102,0.903,0.306c0.252,0.203,0.421,0.498,0.506,0.885
			c0.419-0.488,0.773-0.809,1.062-0.962c0.289-0.152,0.586-0.229,0.891-0.229c0.297,0,0.561,0.076,0.791,0.229
			c0.23,0.153,0.412,0.402,0.546,0.748c0.089,0.236,0.134,0.606,0.134,1.111v2.404c0,0.35,0.026,0.59,0.08,0.721
			c0.041,0.089,0.116,0.165,0.226,0.229s0.289,0.095,0.537,0.095v0.22h-2.759v-0.22h0.116c0.24,0,0.427-0.047,0.562-0.141
			c0.093-0.065,0.161-0.169,0.201-0.312c0.016-0.069,0.024-0.267,0.024-0.592V6.721c0-0.456-0.055-0.777-0.165-0.965
			C17.504,5.495,17.25,5.365,16.9,5.365c-0.216,0-0.433,0.054-0.65,0.162c-0.218,0.107-0.481,0.308-0.791,0.601l-0.012,0.067
			l0.012,0.263v2.667c0,0.383,0.021,0.62,0.064,0.714c0.043,0.094,0.123,0.172,0.241,0.235s0.319,0.095,0.604,0.095v0.22h-2.826
			v-0.22c0.309,0,0.522-0.037,0.638-0.11c0.116-0.073,0.196-0.183,0.241-0.329c0.021-0.069,0.031-0.271,0.031-0.604V6.721
			c0-0.456-0.067-0.784-0.202-0.983c-0.179-0.26-0.429-0.391-0.75-0.391c-0.22,0-0.438,0.06-0.653,0.178
			c-0.338,0.179-0.598,0.38-0.781,0.604v2.997c0,0.366,0.025,0.604,0.076,0.714c0.051,0.11,0.126,0.192,0.226,0.247
			c0.1,0.056,0.302,0.083,0.607,0.083v0.22H10.21v-0.22c0.256,0,0.436-0.027,0.537-0.083c0.102-0.055,0.179-0.142,0.232-0.262
			s0.08-0.354,0.08-0.699V6.989c0-0.615-0.019-1.012-0.055-1.19c-0.028-0.135-0.073-0.227-0.134-0.278
			c-0.061-0.051-0.145-0.076-0.25-0.076c-0.114,0-0.25,0.031-0.409,0.092l-0.092-0.22l1.685-0.684h0.263V5.823z"/>
		<path style="fill:#0066FF;" d="M23.592,4.633v1.904h-0.201c-0.155-0.598-0.354-1.005-0.595-1.221
			c-0.242-0.216-0.55-0.323-0.925-0.323c-0.285,0-0.515,0.075-0.69,0.226c-0.175,0.15-0.262,0.317-0.262,0.501
			c0,0.228,0.065,0.423,0.195,0.586c0.126,0.166,0.382,0.344,0.769,0.53l0.891,0.434c0.826,0.403,1.239,0.934,1.239,1.593
			c0,0.509-0.192,0.919-0.577,1.23c-0.384,0.311-0.815,0.467-1.291,0.467c-0.342,0-0.732-0.062-1.172-0.184
			c-0.135-0.04-0.244-0.061-0.33-0.061c-0.093,0-0.167,0.053-0.22,0.158h-0.201V8.479h0.201c0.114,0.569,0.332,0.998,0.653,1.287
			s0.682,0.434,1.08,0.434c0.281,0,0.51-0.082,0.687-0.247c0.177-0.165,0.265-0.363,0.265-0.595c0-0.281-0.099-0.518-0.296-0.708
			c-0.197-0.191-0.591-0.434-1.181-0.727c-0.59-0.293-0.977-0.558-1.16-0.794c-0.183-0.231-0.274-0.524-0.274-0.879
			c0-0.46,0.158-0.844,0.473-1.153c0.315-0.31,0.723-0.464,1.224-0.464c0.22,0,0.486,0.047,0.799,0.141
			c0.208,0.061,0.346,0.092,0.415,0.092c0.065,0,0.116-0.015,0.153-0.043s0.08-0.092,0.128-0.189H23.592z"/>
		<path style="fill:#0066FF;" d="M26.51,1.709v5.566l1.422-1.3c0.301-0.276,0.476-0.451,0.525-0.524
			c0.033-0.049,0.049-0.098,0.049-0.146c0-0.082-0.034-0.152-0.101-0.211c-0.067-0.059-0.178-0.093-0.333-0.101V4.798h2.429v0.195
			c-0.333,0.008-0.611,0.059-0.833,0.152s-0.465,0.261-0.729,0.501l-1.434,1.324l1.434,1.812c0.399,0.501,0.667,0.818,0.806,0.952
			c0.195,0.191,0.366,0.315,0.513,0.372c0.102,0.041,0.279,0.062,0.531,0.062v0.22h-2.716v-0.22c0.154-0.004,0.259-0.027,0.314-0.07
			c0.055-0.043,0.083-0.103,0.083-0.18c0-0.094-0.082-0.244-0.244-0.452L26.51,7.275v1.855c0,0.362,0.025,0.601,0.076,0.715
			c0.051,0.113,0.123,0.195,0.217,0.244c0.093,0.049,0.297,0.075,0.61,0.079v0.22h-2.845v-0.22c0.285,0,0.499-0.035,0.641-0.104
			c0.085-0.045,0.15-0.114,0.195-0.208c0.061-0.134,0.091-0.366,0.091-0.695V4.071c0-0.646-0.014-1.043-0.042-1.188
			c-0.028-0.144-0.075-0.244-0.14-0.299c-0.065-0.055-0.151-0.082-0.257-0.082c-0.085,0-0.213,0.034-0.384,0.104l-0.104-0.214
			l1.66-0.684H26.51z"/>
	</g>
	<g>
		<path style="fill:#0066FF;" d="M45.728,11.107l2.014-0.982h0.202v6.988c0,0.464,0.019,0.753,0.058,0.867
			c0.039,0.113,0.119,0.201,0.241,0.262c0.122,0.062,0.37,0.096,0.745,0.104v0.226h-3.113v-0.226
			c0.391-0.009,0.643-0.042,0.757-0.101c0.114-0.06,0.193-0.139,0.238-0.238s0.067-0.397,0.067-0.895v-4.468
			c0-0.602-0.021-0.988-0.062-1.159c-0.028-0.13-0.08-0.226-0.155-0.287c-0.076-0.061-0.166-0.092-0.271-0.092
			c-0.151,0-0.36,0.063-0.629,0.189L45.728,11.107z"/>
		<path style="fill:#0066FF;" d="M50.023,20.653v-0.269c0.419-0.138,0.743-0.353,0.973-0.644c0.23-0.291,0.346-0.6,0.346-0.925
			c0-0.077-0.019-0.143-0.056-0.195c-0.028-0.037-0.057-0.055-0.085-0.055c-0.045,0-0.143,0.04-0.293,0.122
			c-0.073,0.036-0.15,0.055-0.232,0.055c-0.199,0-0.357-0.059-0.476-0.177s-0.177-0.281-0.177-0.488c0-0.199,0.076-0.37,0.229-0.513
			s0.339-0.214,0.559-0.214c0.269,0,0.507,0.117,0.717,0.351c0.21,0.234,0.314,0.545,0.314,0.931c0,0.42-0.146,0.81-0.437,1.169
			C51.114,20.162,50.653,20.446,50.023,20.653z"/>
		<path style="fill:#0066FF;" d="M59.064,10.296l-0.476,1.038h-2.49l-0.544,1.11c1.079,0.159,1.934,0.56,2.564,1.202
			C58.66,14.2,58.93,14.852,58.93,15.6c0,0.436-0.089,0.838-0.266,1.209c-0.177,0.37-0.399,0.686-0.669,0.945
			c-0.268,0.261-0.567,0.471-0.896,0.629c-0.468,0.224-0.948,0.336-1.44,0.336c-0.497,0-0.857-0.085-1.084-0.253
			c-0.226-0.169-0.339-0.355-0.339-0.559c0-0.114,0.047-0.215,0.141-0.303c0.094-0.087,0.212-0.131,0.354-0.131
			c0.105,0,0.198,0.017,0.277,0.049s0.215,0.116,0.406,0.25c0.305,0.212,0.614,0.317,0.928,0.317c0.476,0,0.894-0.18,1.254-0.54
			s0.54-0.799,0.54-1.315c0-0.5-0.16-0.967-0.482-1.4c-0.321-0.434-0.765-0.768-1.33-1.004c-0.443-0.184-1.048-0.289-1.812-0.317
			l1.587-3.217H59.064z"/>
		<path style="fill:#0066FF;" d="M65.251,14.007c0.407-0.406,0.646-0.641,0.721-0.702c0.183-0.154,0.38-0.274,0.592-0.359
			c0.211-0.086,0.421-0.129,0.629-0.129c0.35,0,0.65,0.103,0.902,0.306c0.253,0.203,0.422,0.498,0.507,0.885
			c0.419-0.488,0.773-0.809,1.062-0.961s0.586-0.229,0.891-0.229c0.297,0,0.561,0.077,0.791,0.229
			c0.229,0.152,0.411,0.401,0.546,0.747c0.09,0.236,0.135,0.606,0.135,1.111v2.404c0,0.351,0.026,0.59,0.079,0.721
			c0.04,0.089,0.116,0.166,0.226,0.229c0.109,0.063,0.289,0.095,0.537,0.095v0.22H70.11v-0.22h0.116c0.24,0,0.427-0.047,0.562-0.141
			c0.094-0.064,0.16-0.169,0.201-0.312c0.017-0.068,0.024-0.266,0.024-0.592v-2.404c0-0.456-0.055-0.777-0.165-0.965
			c-0.158-0.26-0.413-0.391-0.763-0.391c-0.216,0-0.433,0.055-0.65,0.162c-0.218,0.108-0.48,0.309-0.79,0.602l-0.013,0.066
			l0.013,0.263v2.667c0,0.383,0.021,0.621,0.064,0.715c0.042,0.093,0.123,0.172,0.241,0.234c0.117,0.063,0.319,0.095,0.604,0.095
			v0.22h-2.826v-0.22c0.31,0,0.522-0.036,0.639-0.11c0.115-0.072,0.196-0.183,0.24-0.329c0.021-0.069,0.031-0.271,0.031-0.604
			v-2.404c0-0.456-0.067-0.783-0.201-0.982c-0.18-0.261-0.43-0.391-0.751-0.391c-0.22,0-0.438,0.059-0.653,0.177
			c-0.338,0.179-0.598,0.381-0.781,0.604v2.996c0,0.366,0.025,0.604,0.076,0.715c0.051,0.109,0.126,0.191,0.226,0.247
			c0.1,0.055,0.303,0.082,0.607,0.082v0.22h-2.765v-0.22c0.256,0,0.436-0.027,0.537-0.082c0.102-0.056,0.179-0.143,0.232-0.263
			c0.053-0.12,0.079-0.354,0.079-0.699v-2.136c0-0.614-0.019-1.011-0.056-1.19c-0.028-0.134-0.072-0.227-0.134-0.277
			s-0.145-0.076-0.25-0.076c-0.114,0-0.251,0.03-0.409,0.091l-0.092-0.22l1.685-0.684h0.263V14.007z"/>
		<path style="fill:#0066FF;" d="M76.778,12.816v1.904h-0.201c-0.155-0.598-0.354-1.005-0.596-1.221
			c-0.242-0.215-0.55-0.323-0.924-0.323c-0.285,0-0.516,0.075-0.69,0.226c-0.175,0.151-0.263,0.317-0.263,0.501
			c0,0.228,0.065,0.423,0.195,0.586c0.127,0.167,0.383,0.344,0.77,0.531l0.891,0.433c0.826,0.403,1.239,0.934,1.239,1.594
			c0,0.508-0.192,0.918-0.576,1.229c-0.385,0.312-0.815,0.467-1.291,0.467c-0.342,0-0.732-0.062-1.172-0.183
			c-0.135-0.041-0.244-0.062-0.33-0.062c-0.094,0-0.167,0.053-0.22,0.159h-0.201v-1.996h0.201c0.114,0.569,0.332,0.999,0.653,1.287
			c0.321,0.289,0.682,0.434,1.08,0.434c0.281,0,0.51-0.082,0.687-0.247c0.178-0.165,0.266-0.363,0.266-0.595
			c0-0.281-0.099-0.517-0.296-0.708s-0.591-0.434-1.181-0.727s-0.977-0.558-1.16-0.793c-0.183-0.232-0.274-0.525-0.274-0.879
			c0-0.46,0.157-0.845,0.473-1.154c0.315-0.309,0.724-0.464,1.224-0.464c0.221,0,0.486,0.047,0.8,0.141
			c0.208,0.062,0.346,0.092,0.415,0.092c0.065,0,0.116-0.015,0.152-0.043c0.037-0.028,0.08-0.092,0.129-0.189H76.778z"/>
		<path style="fill:#0066FF;" d="M79.696,9.894v5.566l1.422-1.301c0.301-0.276,0.477-0.451,0.525-0.524
			c0.032-0.049,0.049-0.098,0.049-0.146c0-0.081-0.034-0.151-0.102-0.211c-0.066-0.059-0.178-0.092-0.332-0.101v-0.195h2.429v0.195
			c-0.333,0.009-0.611,0.06-0.833,0.152c-0.222,0.094-0.465,0.261-0.729,0.501l-1.435,1.324l1.435,1.812
			c0.399,0.501,0.668,0.818,0.806,0.952c0.195,0.191,0.366,0.315,0.513,0.372c0.102,0.041,0.279,0.062,0.531,0.062v0.22h-2.716
			v-0.22c0.154-0.004,0.259-0.027,0.314-0.07c0.055-0.043,0.082-0.103,0.082-0.18c0-0.094-0.081-0.244-0.244-0.452l-1.715-2.19
			v1.854c0,0.362,0.025,0.601,0.076,0.715c0.051,0.113,0.123,0.195,0.217,0.244s0.297,0.075,0.61,0.079v0.22h-2.845v-0.22
			c0.285,0,0.499-0.034,0.641-0.104c0.086-0.045,0.151-0.114,0.195-0.208c0.062-0.134,0.092-0.366,0.092-0.695v-5.091
			c0-0.646-0.014-1.042-0.043-1.187c-0.028-0.145-0.075-0.244-0.14-0.299c-0.065-0.056-0.15-0.083-0.257-0.083
			c-0.085,0-0.213,0.035-0.385,0.104l-0.104-0.213l1.66-0.684H79.696z"/>
	</g>
	<g>
		<path style="fill:#0066FF;" d="M18.745,26.618l-0.58,1.593h-4.883v-0.226c1.437-1.311,2.447-2.381,3.033-3.211
			s0.879-1.589,0.879-2.276c0-0.525-0.161-0.956-0.482-1.294s-0.706-0.507-1.154-0.507c-0.407,0-0.772,0.119-1.095,0.357
			c-0.324,0.238-0.562,0.587-0.717,1.047H13.52c0.102-0.753,0.363-1.331,0.784-1.733c0.421-0.403,0.947-0.604,1.578-0.604
			c0.671,0,1.232,0.216,1.682,0.646c0.449,0.432,0.674,0.94,0.674,1.526c0,0.419-0.098,0.838-0.293,1.257
			c-0.301,0.66-0.79,1.357-1.465,2.094c-1.013,1.107-1.646,1.774-1.898,2.002h2.161c0.439,0,0.748-0.016,0.924-0.049
			c0.177-0.032,0.337-0.099,0.479-0.198c0.143-0.1,0.267-0.241,0.373-0.424H18.745z"/>
	</g>
	<g>
		<path style="fill:#0066FF;" d="M35.465,13.939h6.409v0.593h-6.409V13.939z M35.465,16.217h6.409v0.604h-6.409V16.217z"/>
	</g>
</g>
<g id="theGroup">
</g>
</svg>
