<?xml version="1.0" encoding="iso-8859-1"?>
<!-- Generator: Adobe Illustrator 16.0.0, SVG Export Plug-In . SVG Version: 6.00 Build 0)  -->
<!DOCTYPE svg PUBLIC "-//W3C//DTD SVG 1.1//EN" "http://www.w3.org/Graphics/SVG/1.1/DTD/svg11.dtd">
<svg version="1.1" id="Lager_1" xmlns="http://www.w3.org/2000/svg" xmlns:xlink="http://www.w3.org/1999/xlink" x="0px" y="0px"
	 width="78.281px" height="50.764px" viewBox="0 0 78.281 50.764" style="enable-background:new 0 0 78.281 50.764;"
	 xml:space="preserve">
<g>
	
		<line style="fill:none;stroke:#0066FF;stroke-width:0.5;stroke-linecap:square;stroke-miterlimit:10;" x1="0.586" y1="33.972" x2="19.336" y2="33.972"/>
	
		<line style="fill:none;stroke:#0066FF;stroke-width:0.5;stroke-linecap:square;stroke-miterlimit:10;" x1="33.282" y1="33.972" x2="51.837" y2="33.972"/>
	<g>
		<path style="fill:#0066FF;" d="M7.428,2.112L7.52,4.053H7.288C7.243,3.711,7.182,3.467,7.104,3.32
			c-0.126-0.236-0.294-0.41-0.503-0.522C6.391,2.687,6.116,2.63,5.774,2.63H4.608v6.323c0,0.509,0.055,0.826,0.165,0.952
			c0.155,0.171,0.393,0.257,0.714,0.257h0.287v0.226H2.265v-0.226h0.293c0.35,0,0.598-0.106,0.744-0.317
			c0.09-0.13,0.135-0.428,0.135-0.892V2.63H2.441c-0.387,0-0.661,0.029-0.824,0.086C1.406,2.793,1.225,2.942,1.074,3.162
			s-0.24,0.517-0.269,0.891H0.574l0.098-1.941H7.428z"/>
		<path style="fill:#0066FF;" d="M12.299,6.903c-0.004,0.83,0.197,1.481,0.604,1.953c0.407,0.472,0.885,0.708,1.435,0.708
			c0.366,0,0.685-0.101,0.955-0.302c0.271-0.202,0.498-0.546,0.681-1.035l0.189,0.122c-0.086,0.558-0.334,1.065-0.745,1.523
			c-0.411,0.458-0.925,0.687-1.544,0.687c-0.671,0-1.246-0.261-1.724-0.784c-0.479-0.523-0.717-1.226-0.717-2.109
			c0-0.956,0.245-1.702,0.735-2.237s1.106-0.803,1.847-0.803c0.626,0,1.141,0.207,1.544,0.62s0.604,0.965,0.604,1.657H12.299z
			 M12.299,6.549h2.588c-0.021-0.358-0.063-0.61-0.128-0.757c-0.102-0.228-0.253-0.407-0.455-0.537
			c-0.201-0.13-0.412-0.195-0.631-0.195c-0.338,0-0.64,0.131-0.907,0.394C12.499,5.716,12.344,6.081,12.299,6.549z"/>
		<path style="fill:#0066FF;" d="M16.606,4.797h2.63v0.226c-0.167,0-0.284,0.029-0.351,0.086c-0.067,0.057-0.101,0.132-0.101,0.226
			c0,0.098,0.071,0.248,0.214,0.452c0.044,0.065,0.112,0.167,0.201,0.305l0.396,0.635l0.458-0.635
			c0.293-0.403,0.439-0.657,0.439-0.763c0-0.086-0.035-0.158-0.104-0.217c-0.069-0.059-0.181-0.089-0.336-0.089V4.797h1.892v0.226
			c-0.199,0.013-0.373,0.067-0.519,0.165c-0.199,0.138-0.472,0.439-0.817,0.903l-0.763,1.02l1.392,2.002
			c0.342,0.492,0.586,0.788,0.732,0.888c0.146,0.1,0.335,0.156,0.568,0.168v0.22h-2.637v-0.22c0.183,0,0.325-0.041,0.427-0.122
			c0.078-0.057,0.116-0.132,0.116-0.226c0-0.094-0.13-0.33-0.391-0.708l-0.818-1.196L18.34,9.113
			c-0.277,0.37-0.415,0.59-0.415,0.659c0,0.098,0.045,0.186,0.137,0.265c0.091,0.08,0.229,0.123,0.412,0.131v0.22h-1.825v-0.22
			c0.146-0.021,0.275-0.071,0.384-0.152c0.155-0.118,0.415-0.419,0.781-0.903l1.172-1.557l-1.062-1.538
			c-0.301-0.439-0.534-0.715-0.699-0.827c-0.165-0.112-0.371-0.168-0.619-0.168V4.797z"/>
		<path style="fill:#0066FF;" d="M24.443,9.198c0.191,0,0.353,0.067,0.485,0.202s0.199,0.295,0.199,0.482
			c0,0.188-0.067,0.347-0.202,0.479c-0.134,0.132-0.295,0.198-0.482,0.198c-0.188,0-0.347-0.066-0.479-0.198
			c-0.132-0.132-0.198-0.292-0.198-0.479c0-0.187,0.066-0.348,0.198-0.482S24.256,9.198,24.443,9.198z M24.455,4.626
			c0.188,0,0.347,0.066,0.479,0.198c0.132,0.132,0.198,0.292,0.198,0.479c0,0.187-0.066,0.347-0.198,0.479
			c-0.132,0.132-0.292,0.198-0.479,0.198c-0.187,0-0.347-0.066-0.479-0.198s-0.198-0.292-0.198-0.479
			c0-0.188,0.066-0.347,0.198-0.479C24.108,4.693,24.268,4.626,24.455,4.626z"/>
	</g>
	<g>
		<path style="fill:#0066FF;" d="M1.465,21.673l2.014-0.982h0.202v6.988c0,0.464,0.019,0.753,0.058,0.867
			c0.039,0.113,0.119,0.201,0.241,0.262c0.122,0.062,0.37,0.096,0.745,0.104v0.226H1.611v-0.226
			c0.391-0.009,0.643-0.042,0.757-0.101c0.114-0.06,0.193-0.139,0.238-0.238c0.044-0.1,0.067-0.397,0.067-0.895v-4.468
			c0-0.602-0.021-0.988-0.061-1.159c-0.028-0.13-0.081-0.226-0.156-0.287s-0.166-0.092-0.271-0.092c-0.15,0-0.36,0.063-0.628,0.189
			L1.465,21.673z"/>
		<path style="fill:#0066FF;" d="M6.702,25.049c0-0.944,0.143-1.757,0.427-2.438c0.285-0.681,0.663-1.189,1.135-1.523
			c0.366-0.264,0.745-0.396,1.135-0.396c0.635,0,1.205,0.323,1.709,0.971c0.631,0.801,0.946,1.888,0.946,3.259
			c0,0.96-0.139,1.776-0.415,2.448c-0.277,0.671-0.63,1.158-1.059,1.461c-0.43,0.304-0.843,0.455-1.242,0.455
			c-0.79,0-1.447-0.466-1.971-1.397C6.923,27.102,6.702,26.156,6.702,25.049z M7.898,25.202c0,1.139,0.14,2.069,0.421,2.789
			C8.551,28.597,8.897,28.9,9.356,28.9c0.22,0,0.448-0.099,0.684-0.296c0.236-0.197,0.415-0.528,0.537-0.991
			c0.188-0.7,0.281-1.687,0.281-2.961c0-0.944-0.098-1.731-0.293-2.362c-0.146-0.468-0.336-0.799-0.568-0.995
			c-0.167-0.135-0.368-0.202-0.604-0.202c-0.277,0-0.523,0.124-0.739,0.373c-0.293,0.337-0.492,0.869-0.598,1.593
			S7.898,24.498,7.898,25.202z"/>
		<path style="fill:#0066FF;" d="M13.757,20.862h4.437v0.232l-2.759,8.215h-0.684l2.472-7.452h-2.277
			c-0.459,0-0.787,0.055-0.982,0.165c-0.342,0.187-0.616,0.476-0.824,0.867l-0.177-0.067L13.757,20.862z"/>
		<path style="fill:#0066FF;" d="M34.152,21.673l2.014-0.982h0.202v6.988c0,0.464,0.019,0.753,0.058,0.867
			c0.039,0.113,0.119,0.201,0.241,0.262c0.122,0.062,0.37,0.096,0.745,0.104v0.226h-3.113v-0.226
			c0.391-0.009,0.643-0.042,0.757-0.101c0.114-0.06,0.193-0.139,0.238-0.238c0.044-0.1,0.067-0.397,0.067-0.895v-4.468
			c0-0.602-0.021-0.988-0.061-1.159c-0.028-0.13-0.081-0.226-0.156-0.287s-0.166-0.092-0.271-0.092c-0.15,0-0.36,0.063-0.628,0.189
			L34.152,21.673z"/>
		<path style="fill:#0066FF;" d="M39.389,25.049c0-0.944,0.143-1.757,0.427-2.438c0.285-0.681,0.663-1.189,1.135-1.523
			c0.367-0.264,0.745-0.396,1.136-0.396c0.635,0,1.204,0.323,1.709,0.971c0.631,0.801,0.946,1.888,0.946,3.259
			c0,0.96-0.139,1.776-0.415,2.448c-0.277,0.671-0.63,1.158-1.06,1.461c-0.429,0.304-0.843,0.455-1.242,0.455
			c-0.789,0-1.446-0.466-1.971-1.397C39.611,27.102,39.389,26.156,39.389,25.049z M40.586,25.202c0,1.139,0.14,2.069,0.421,2.789
			c0.231,0.606,0.577,0.909,1.037,0.909c0.22,0,0.448-0.099,0.684-0.296c0.236-0.197,0.415-0.528,0.537-0.991
			c0.188-0.7,0.281-1.687,0.281-2.961c0-0.944-0.098-1.731-0.293-2.362c-0.146-0.468-0.336-0.799-0.567-0.995
			c-0.167-0.135-0.369-0.202-0.604-0.202c-0.277,0-0.523,0.124-0.739,0.373c-0.293,0.337-0.492,0.869-0.598,1.593
			S40.586,24.498,40.586,25.202z"/>
		<path style="fill:#0066FF;" d="M45.639,25.049c0-0.944,0.143-1.757,0.428-2.438c0.285-0.681,0.663-1.189,1.135-1.523
			c0.367-0.264,0.745-0.396,1.136-0.396c0.635,0,1.204,0.323,1.709,0.971c0.631,0.801,0.946,1.888,0.946,3.259
			c0,0.96-0.139,1.776-0.415,2.448c-0.277,0.671-0.63,1.158-1.06,1.461c-0.429,0.304-0.843,0.455-1.242,0.455
			c-0.789,0-1.446-0.466-1.971-1.397C45.861,27.102,45.639,26.156,45.639,25.049z M46.836,25.202c0,1.139,0.14,2.069,0.421,2.789
			c0.231,0.606,0.577,0.909,1.037,0.909c0.22,0,0.448-0.099,0.684-0.296c0.236-0.197,0.415-0.528,0.537-0.991
			c0.188-0.7,0.281-1.687,0.281-2.961c0-0.944-0.098-1.731-0.293-2.362c-0.146-0.468-0.336-0.799-0.567-0.995
			c-0.167-0.135-0.369-0.202-0.604-0.202c-0.277,0-0.523,0.124-0.739,0.373c-0.293,0.337-0.492,0.869-0.598,1.593
			S46.836,24.498,46.836,25.202z"/>
	</g>
	<g>
		<path style="fill:#0066FF;" d="M71.513,35.69l-0.58,1.593H66.05v-0.226c1.437-1.311,2.447-2.381,3.033-3.211
			s0.879-1.589,0.879-2.276c0-0.525-0.16-0.956-0.481-1.294c-0.322-0.338-0.706-0.507-1.154-0.507c-0.406,0-0.771,0.119-1.096,0.357
			c-0.323,0.238-0.562,0.587-0.717,1.047h-0.226c0.102-0.753,0.363-1.331,0.784-1.733c0.421-0.403,0.947-0.604,1.578-0.604
			c0.671,0,1.231,0.216,1.681,0.646c0.45,0.432,0.675,0.94,0.675,1.526c0,0.419-0.098,0.838-0.293,1.257
			c-0.301,0.66-0.789,1.357-1.465,2.094c-1.014,1.107-1.646,1.774-1.898,2.002h2.161c0.439,0,0.747-0.016,0.925-0.049
			c0.177-0.032,0.336-0.099,0.479-0.198s0.267-0.241,0.373-0.424H71.513z"/>
		<path style="fill:#0066FF;" d="M72.482,33.193c0-0.943,0.143-1.756,0.428-2.438s0.663-1.189,1.135-1.523
			c0.367-0.265,0.745-0.396,1.136-0.396c0.635,0,1.204,0.323,1.709,0.971c0.631,0.802,0.946,1.888,0.946,3.259
			c0,0.961-0.139,1.776-0.415,2.448c-0.277,0.671-0.63,1.158-1.06,1.461c-0.429,0.304-0.843,0.455-1.242,0.455
			c-0.789,0-1.446-0.466-1.971-1.397C72.705,35.247,72.482,34.3,72.482,33.193z M73.68,33.346c0,1.139,0.14,2.069,0.421,2.789
			c0.231,0.606,0.577,0.909,1.037,0.909c0.22,0,0.448-0.099,0.684-0.296c0.236-0.197,0.415-0.528,0.537-0.991
			c0.188-0.7,0.281-1.688,0.281-2.961c0-0.943-0.098-1.731-0.293-2.361c-0.146-0.469-0.336-0.8-0.567-0.995
			c-0.167-0.135-0.369-0.202-0.604-0.202c-0.277,0-0.523,0.125-0.739,0.373c-0.293,0.338-0.492,0.868-0.598,1.593
			S73.68,32.642,73.68,33.346z"/>
	</g>
	<g>
		<path style="fill:#0066FF;" d="M7.379,38.655l-0.476,1.038h-2.49l-0.543,1.11c1.078,0.159,1.933,0.56,2.563,1.202
			c0.541,0.554,0.812,1.205,0.812,1.953c0,0.436-0.089,0.839-0.266,1.209c-0.177,0.37-0.4,0.686-0.668,0.945
			c-0.269,0.261-0.568,0.471-0.897,0.629c-0.468,0.224-0.948,0.336-1.44,0.336c-0.497,0-0.858-0.085-1.083-0.253
			c-0.226-0.169-0.339-0.355-0.339-0.559c0-0.114,0.047-0.215,0.14-0.303c0.094-0.087,0.212-0.131,0.354-0.131
			c0.105,0,0.198,0.017,0.277,0.049c0.08,0.032,0.215,0.116,0.406,0.25c0.305,0.212,0.614,0.317,0.928,0.317
			c0.476,0,0.894-0.18,1.254-0.54c0.36-0.36,0.54-0.799,0.54-1.315c0-0.5-0.161-0.967-0.482-1.4s-0.765-0.769-1.331-1.004
			c-0.443-0.184-1.048-0.289-1.812-0.317l1.587-3.217H7.379z"/>
		<path style="fill:#0066FF;" d="M8.487,49.012v-0.269C8.906,48.606,9.23,48.391,9.46,48.1c0.229-0.291,0.345-0.6,0.345-0.925
			c0-0.077-0.018-0.143-0.055-0.195c-0.028-0.037-0.057-0.055-0.085-0.055c-0.045,0-0.143,0.04-0.293,0.122
			c-0.073,0.036-0.151,0.055-0.232,0.055c-0.199,0-0.358-0.059-0.476-0.177c-0.118-0.118-0.177-0.281-0.177-0.488
			c0-0.199,0.076-0.37,0.229-0.513c0.152-0.143,0.339-0.214,0.559-0.214c0.269,0,0.507,0.117,0.717,0.351
			c0.209,0.234,0.314,0.545,0.314,0.931c0,0.42-0.146,0.81-0.437,1.169C9.578,48.521,9.118,48.805,8.487,49.012z"/>
		<path style="fill:#0066FF;" d="M12.738,40.23c0.236-0.558,0.534-0.988,0.894-1.291c0.36-0.304,0.809-0.455,1.346-0.455
			c0.663,0,1.172,0.216,1.525,0.646c0.269,0.322,0.403,0.666,0.403,1.032c0,0.602-0.379,1.225-1.136,1.867
			c0.509,0.199,0.894,0.484,1.154,0.854s0.391,0.806,0.391,1.307c0,0.716-0.228,1.336-0.684,1.861
			c-0.594,0.684-1.455,1.025-2.582,1.025c-0.558,0-0.937-0.069-1.139-0.207c-0.201-0.139-0.302-0.287-0.302-0.446
			c0-0.118,0.047-0.222,0.143-0.312c0.096-0.089,0.21-0.134,0.345-0.134c0.102,0,0.205,0.017,0.311,0.049
			c0.069,0.021,0.226,0.095,0.47,0.223s0.413,0.204,0.506,0.229c0.15,0.044,0.311,0.066,0.482,0.066c0.415,0,0.776-0.16,1.083-0.482
			c0.307-0.321,0.461-0.701,0.461-1.141c0-0.321-0.071-0.635-0.213-0.94c-0.106-0.228-0.222-0.4-0.348-0.519
			c-0.175-0.163-0.415-0.311-0.72-0.442s-0.616-0.198-0.934-0.198h-0.195V42.64c0.321-0.04,0.644-0.156,0.967-0.348
			c0.323-0.191,0.558-0.421,0.705-0.689s0.22-0.563,0.22-0.885c0-0.42-0.131-0.758-0.394-1.017
			c-0.262-0.259-0.589-0.388-0.979-0.388c-0.631,0-1.158,0.338-1.581,1.014L12.738,40.23z"/>
		<path style="fill:#0066FF;" d="M44.941,38.655l-0.476,1.038h-2.49l-0.544,1.11c1.079,0.159,1.934,0.56,2.564,1.202
			c0.541,0.554,0.812,1.205,0.812,1.953c0,0.436-0.089,0.839-0.266,1.209s-0.399,0.686-0.669,0.945
			c-0.268,0.261-0.567,0.471-0.896,0.629c-0.468,0.224-0.948,0.336-1.44,0.336c-0.497,0-0.857-0.085-1.084-0.253
			c-0.226-0.169-0.338-0.355-0.338-0.559c0-0.114,0.047-0.215,0.14-0.303c0.094-0.087,0.212-0.131,0.354-0.131
			c0.105,0,0.198,0.017,0.277,0.049s0.215,0.116,0.406,0.25c0.305,0.212,0.614,0.317,0.928,0.317c0.476,0,0.894-0.18,1.254-0.54
			s0.54-0.799,0.54-1.315c0-0.5-0.16-0.967-0.482-1.4c-0.321-0.434-0.765-0.769-1.33-1.004c-0.443-0.184-1.048-0.289-1.812-0.317
			l1.587-3.217H44.941z"/>
	</g>
	<g>
		<path style="fill:#0066FF;" d="M29.135,31.942h0.305c-0.081,0.663-0.282,1.156-0.601,1.478s-0.693,0.482-1.12,0.482
			c-0.2,0-0.429-0.044-0.687-0.132c-0.258-0.087-0.659-0.284-1.202-0.589c-0.543-0.305-0.961-0.458-1.254-0.458
			c-0.269,0-0.503,0.097-0.705,0.29c-0.201,0.193-0.329,0.476-0.381,0.846h-0.281c0.077-0.659,0.274-1.15,0.592-1.475
			c0.317-0.323,0.678-0.484,1.081-0.484c0.199,0,0.448,0.049,0.745,0.146c0.216,0.072,0.641,0.278,1.275,0.616
			c0.48,0.256,0.873,0.384,1.178,0.384c0.26,0,0.474-0.081,0.641-0.244C28.939,32.591,29.078,32.304,29.135,31.942z M29.135,34.304
			h0.305c-0.081,0.663-0.282,1.156-0.601,1.48c-0.319,0.323-0.693,0.484-1.12,0.484c-0.2,0-0.429-0.044-0.687-0.134
			s-0.659-0.287-1.202-0.592c-0.543-0.306-0.961-0.458-1.254-0.458c-0.269,0-0.503,0.097-0.705,0.29
			c-0.201,0.193-0.329,0.477-0.381,0.852h-0.281c0.077-0.659,0.274-1.15,0.592-1.475c0.317-0.323,0.678-0.485,1.081-0.485
			c0.199,0,0.448,0.049,0.745,0.146c0.216,0.074,0.641,0.279,1.275,0.617c0.48,0.256,0.873,0.385,1.178,0.385
			c0.26,0,0.474-0.084,0.641-0.251C28.939,34.954,29.078,34.667,29.135,34.304z"/>
		<path style="fill:#0066FF;" d="M55.614,32.65h6.409v0.592h-6.409V32.65z M55.614,34.927h6.409v0.604h-6.409V34.927z"/>
	</g>
</g>
<g id="theGroup">
</g>
</svg>
