<?xml version="1.0" encoding="iso-8859-1"?>
<!-- Generator: Adobe Illustrator 16.0.0, SVG Export Plug-In . SVG Version: 6.00 Build 0)  -->
<!DOCTYPE svg PUBLIC "-//W3C//DTD SVG 1.1//EN" "http://www.w3.org/Graphics/SVG/1.1/DTD/svg11.dtd">
<svg version="1.1" id="Lager_1" xmlns="http://www.w3.org/2000/svg" xmlns:xlink="http://www.w3.org/1999/xlink" x="0px" y="0px"
	 width="77.77px" height="15.808px" viewBox="0 0 77.77 15.808" style="enable-background:new 0 0 77.77 15.808;"
	 xml:space="preserve">
<g>
	<g>
		<path style="fill:#0066FF;" d="M13.782,5.438l-0.335,0.921h-2.823v-0.13c0.831-0.758,1.415-1.376,1.754-1.856
			c0.338-0.479,0.508-0.918,0.508-1.316c0-0.304-0.093-0.553-0.279-0.748c-0.186-0.195-0.408-0.293-0.667-0.293
			c-0.235,0-0.446,0.069-0.633,0.207s-0.325,0.339-0.415,0.605h-0.13c0.059-0.435,0.21-0.769,0.453-1.002
			c0.244-0.233,0.548-0.35,0.912-0.35c0.388,0,0.712,0.125,0.972,0.374c0.26,0.25,0.39,0.543,0.39,0.882
			c0,0.242-0.057,0.485-0.169,0.727c-0.174,0.381-0.457,0.785-0.847,1.21c-0.586,0.64-0.952,1.026-1.098,1.158h1.249
			c0.254,0,0.433-0.009,0.535-0.028c0.103-0.019,0.195-0.057,0.277-0.115c0.082-0.058,0.154-0.139,0.215-0.245H13.782z"/>
		<path style="fill:#0066FF;" d="M20.44,2.485c0.136-0.322,0.309-0.571,0.517-0.746c0.208-0.175,0.468-0.263,0.778-0.263
			c0.383,0,0.677,0.125,0.882,0.374c0.155,0.186,0.233,0.385,0.233,0.597c0,0.348-0.219,0.708-0.656,1.08
			c0.294,0.115,0.517,0.28,0.667,0.494c0.15,0.214,0.226,0.466,0.226,0.755c0,0.414-0.131,0.773-0.395,1.076
			c-0.343,0.396-0.841,0.593-1.493,0.593c-0.322,0-0.542-0.04-0.658-0.12c-0.117-0.08-0.175-0.166-0.175-0.258
			c0-0.068,0.027-0.128,0.083-0.18c0.055-0.052,0.122-0.078,0.199-0.078c0.059,0,0.119,0.009,0.18,0.028
			c0.04,0.012,0.131,0.055,0.272,0.129s0.239,0.118,0.293,0.132c0.087,0.026,0.18,0.039,0.279,0.039c0.24,0,0.449-0.093,0.626-0.279
			c0.178-0.186,0.267-0.406,0.267-0.66c0-0.186-0.041-0.367-0.124-0.543c-0.061-0.132-0.128-0.232-0.201-0.3
			C22.138,4.261,22,4.176,21.823,4.099c-0.176-0.076-0.356-0.114-0.54-0.114H21.17V3.879c0.186-0.023,0.373-0.091,0.56-0.201
			c0.187-0.111,0.323-0.244,0.408-0.399c0.084-0.155,0.127-0.326,0.127-0.512c0-0.242-0.076-0.438-0.228-0.587
			c-0.152-0.149-0.341-0.224-0.566-0.224c-0.365,0-0.669,0.195-0.914,0.586L20.44,2.485z"/>
		<path style="fill:#0066FF;" d="M47.754,5.438l-0.335,0.921h-2.823v-0.13c0.83-0.758,1.415-1.376,1.754-1.856
			c0.339-0.479,0.508-0.918,0.508-1.316c0-0.304-0.093-0.553-0.278-0.748c-0.187-0.195-0.408-0.293-0.667-0.293
			c-0.235,0-0.446,0.069-0.634,0.207c-0.187,0.138-0.325,0.339-0.414,0.605h-0.131c0.059-0.435,0.21-0.769,0.453-1.002
			c0.244-0.233,0.548-0.35,0.912-0.35c0.389,0,0.713,0.125,0.973,0.374c0.26,0.25,0.39,0.543,0.39,0.882
			c0,0.242-0.057,0.485-0.169,0.727c-0.175,0.381-0.457,0.785-0.848,1.21c-0.585,0.64-0.951,1.026-1.097,1.158h1.249
			c0.254,0,0.432-0.009,0.534-0.028s0.194-0.057,0.277-0.115c0.082-0.058,0.154-0.139,0.215-0.245H47.754z"/>
		<path style="fill:#0066FF;" d="M50.271,2.485c0.136-0.322,0.309-0.571,0.517-0.746s0.468-0.263,0.778-0.263
			c0.383,0,0.678,0.125,0.882,0.374c0.155,0.186,0.233,0.385,0.233,0.597c0,0.348-0.219,0.708-0.656,1.08
			c0.294,0.115,0.516,0.28,0.666,0.494c0.151,0.214,0.227,0.466,0.227,0.755c0,0.414-0.132,0.773-0.396,1.076
			c-0.344,0.396-0.841,0.593-1.492,0.593c-0.322,0-0.542-0.04-0.658-0.12c-0.116-0.08-0.175-0.166-0.175-0.258
			c0-0.068,0.027-0.128,0.083-0.18c0.055-0.052,0.121-0.078,0.199-0.078c0.059,0,0.119,0.009,0.18,0.028
			c0.04,0.012,0.131,0.055,0.271,0.129c0.142,0.074,0.239,0.118,0.293,0.132c0.087,0.026,0.181,0.039,0.279,0.039
			c0.24,0,0.448-0.093,0.626-0.279c0.178-0.186,0.267-0.406,0.267-0.66c0-0.186-0.041-0.367-0.123-0.543
			c-0.062-0.132-0.129-0.232-0.201-0.3c-0.102-0.094-0.24-0.179-0.417-0.256c-0.176-0.076-0.356-0.114-0.54-0.114h-0.112V3.879
			c0.186-0.023,0.372-0.091,0.559-0.201c0.188-0.111,0.323-0.244,0.408-0.399c0.084-0.155,0.127-0.326,0.127-0.512
			c0-0.242-0.076-0.438-0.228-0.587c-0.152-0.149-0.341-0.224-0.566-0.224c-0.365,0-0.669,0.195-0.914,0.586L50.271,2.485z"/>
		<path style="fill:#0066FF;" d="M77.396,1.476v0.131c-0.311,0.03-0.564,0.092-0.761,0.185c-0.196,0.093-0.391,0.235-0.582,0.425
			s-0.351,0.403-0.477,0.637c-0.126,0.234-0.23,0.513-0.315,0.834c0.339-0.232,0.679-0.349,1.02-0.349
			c0.327,0,0.61,0.132,0.851,0.395c0.24,0.264,0.36,0.603,0.36,1.017c0,0.4-0.122,0.764-0.364,1.094c-0.291,0.4-0.677,0.6-1.157,0.6
			c-0.327,0-0.604-0.108-0.833-0.324c-0.446-0.421-0.67-0.967-0.67-1.638c0-0.428,0.086-0.835,0.258-1.221s0.417-0.728,0.735-1.027
			s0.624-0.5,0.916-0.604c0.291-0.104,0.563-0.155,0.814-0.155H77.396z M75.201,3.946c-0.043,0.317-0.064,0.574-0.064,0.769
			c0,0.226,0.042,0.471,0.126,0.736c0.083,0.265,0.207,0.475,0.372,0.63c0.12,0.111,0.266,0.166,0.438,0.166
			c0.205,0,0.388-0.097,0.549-0.29s0.241-0.468,0.241-0.826c0-0.402-0.08-0.75-0.239-1.044c-0.16-0.294-0.388-0.441-0.682-0.441
			c-0.089,0-0.185,0.019-0.287,0.056C75.552,3.74,75.4,3.821,75.201,3.946z"/>
	</g>
	<g>
		<path style="fill:#0066FF;" d="M3.882,14.422v0.227c-0.614-0.31-1.127-0.672-1.538-1.087c-0.586-0.59-1.038-1.286-1.355-2.087
			c-0.317-0.802-0.476-1.634-0.476-2.497c0-1.261,0.312-2.412,0.934-3.451c0.623-1.04,1.435-1.783,2.436-2.231v0.256
			c-0.5,0.277-0.912,0.655-1.233,1.135s-0.562,1.088-0.72,1.825C1.77,7.249,1.69,8.018,1.69,8.819c0,0.87,0.067,1.662,0.202,2.374
			c0.106,0.562,0.234,1.012,0.384,1.352c0.151,0.34,0.353,0.667,0.607,0.98C3.138,13.838,3.471,14.138,3.882,14.422z"/>
		<path style="fill:#0066FF;" d="M9.539,3.698L9.063,4.736h-2.49L6.029,5.847c1.078,0.159,1.933,0.56,2.563,1.202
			c0.541,0.554,0.812,1.205,0.812,1.953c0,0.436-0.089,0.839-0.266,1.209c-0.177,0.37-0.4,0.686-0.668,0.945
			c-0.269,0.261-0.568,0.471-0.897,0.629c-0.468,0.224-0.948,0.336-1.44,0.336c-0.497,0-0.858-0.085-1.083-0.253
			c-0.226-0.169-0.339-0.355-0.339-0.559c0-0.114,0.047-0.215,0.14-0.303c0.094-0.087,0.212-0.131,0.354-0.131
			c0.105,0,0.198,0.017,0.277,0.049c0.08,0.032,0.215,0.116,0.406,0.25c0.305,0.212,0.614,0.317,0.928,0.317
			c0.476,0,0.894-0.18,1.254-0.54c0.36-0.36,0.54-0.799,0.54-1.315c0-0.5-0.161-0.968-0.482-1.4
			C7.808,7.803,7.364,7.468,6.798,7.232C6.355,7.049,5.75,6.943,4.986,6.915l1.587-3.217H9.539z"/>
		<path style="fill:#0066FF;" d="M15.993,3.552V3.295c0.619,0.305,1.133,0.666,1.544,1.081c0.582,0.594,1.031,1.291,1.349,2.09
			c0.317,0.799,0.476,1.632,0.476,2.5c0,1.261-0.311,2.412-0.931,3.451c-0.621,1.04-1.434,1.783-2.438,2.231v-0.227
			c0.5-0.28,0.913-0.66,1.236-1.138c0.324-0.479,0.563-1.087,0.72-1.825s0.235-1.509,0.235-2.311c0-0.866-0.067-1.658-0.201-2.374
			c-0.102-0.562-0.229-1.011-0.381-1.349c-0.153-0.338-0.355-0.664-0.607-0.977C16.742,4.136,16.408,3.836,15.993,3.552z"/>
		<path style="fill:#0066FF;" d="M43.514,3.698l-0.476,1.038h-2.49l-0.543,1.111c1.078,0.159,1.933,0.56,2.563,1.202
			c0.541,0.554,0.812,1.205,0.812,1.953c0,0.436-0.089,0.839-0.266,1.209s-0.399,0.686-0.669,0.945
			c-0.268,0.261-0.567,0.471-0.896,0.629c-0.468,0.224-0.948,0.336-1.44,0.336c-0.497,0-0.858-0.085-1.083-0.253
			c-0.226-0.169-0.339-0.355-0.339-0.559c0-0.114,0.047-0.215,0.14-0.303c0.094-0.087,0.212-0.131,0.354-0.131
			c0.105,0,0.198,0.017,0.277,0.049c0.08,0.032,0.215,0.116,0.406,0.25c0.305,0.212,0.614,0.317,0.928,0.317
			c0.476,0,0.894-0.18,1.254-0.54s0.54-0.799,0.54-1.315c0-0.5-0.16-0.968-0.482-1.4c-0.321-0.434-0.765-0.768-1.33-1.004
			c-0.443-0.184-1.048-0.289-1.812-0.317l1.587-3.217H43.514z"/>
		<path style="fill:#0066FF;" d="M73.351,3.698l-0.476,1.038h-2.49l-0.544,1.111c1.079,0.159,1.934,0.56,2.564,1.202
			c0.541,0.554,0.812,1.205,0.812,1.953c0,0.436-0.089,0.839-0.266,1.209s-0.399,0.686-0.669,0.945
			c-0.268,0.261-0.567,0.471-0.896,0.629c-0.468,0.224-0.948,0.336-1.44,0.336c-0.497,0-0.857-0.085-1.084-0.253
			c-0.226-0.169-0.339-0.355-0.339-0.559c0-0.114,0.047-0.215,0.141-0.303c0.094-0.087,0.212-0.131,0.354-0.131
			c0.105,0,0.198,0.017,0.277,0.049s0.215,0.116,0.406,0.25c0.305,0.212,0.614,0.317,0.928,0.317c0.476,0,0.894-0.18,1.254-0.54
			s0.54-0.799,0.54-1.315c0-0.5-0.16-0.968-0.482-1.4c-0.321-0.434-0.765-0.768-1.33-1.004c-0.443-0.184-1.048-0.289-1.812-0.317
			l1.587-3.217H73.351z"/>
	</g>
	<g>
		<path style="fill:#0066FF;" d="M49.377,4.51c0,0.108-0.038,0.201-0.114,0.277c-0.076,0.076-0.168,0.114-0.273,0.114
			c-0.108,0-0.2-0.038-0.277-0.114c-0.076-0.077-0.114-0.169-0.114-0.277c0-0.108,0.038-0.2,0.114-0.277
			c0.077-0.077,0.169-0.115,0.277-0.115c0.105,0,0.197,0.038,0.273,0.115S49.377,4.402,49.377,4.51z"/>
	</g>
	<g>
		<path style="fill:#0066FF;" d="M28.312,7.342h6.409v0.592h-6.409V7.342z M28.312,9.619h6.409v0.604h-6.409V9.619z"/>
		<path style="fill:#0066FF;" d="M58.146,7.342h6.409v0.592h-6.409V7.342z M58.146,9.619h6.409v0.604h-6.409V9.619z"/>
	</g>
</g>
<g id="theGroup">
</g>
</svg>
