<?xml version="1.0" encoding="iso-8859-1"?>
<!-- Generator: Adobe Illustrator 16.0.0, SVG Export Plug-In . SVG Version: 6.00 Build 0)  -->
<!DOCTYPE svg PUBLIC "-//W3C//DTD SVG 1.1//EN" "http://www.w3.org/Graphics/SVG/1.1/DTD/svg11.dtd">
<svg version="1.1" id="Lager_1" xmlns="http://www.w3.org/2000/svg" xmlns:xlink="http://www.w3.org/1999/xlink" x="0px" y="0px"
	 width="169.297px" height="36.178px" viewBox="0 0 169.297 36.178" style="enable-background:new 0 0 169.297 36.178;"
	 xml:space="preserve">
<g>
	<path style="fill:none;stroke:#005CA9;stroke-width:0.5;stroke-miterlimit:10;" d="M0.586,18.357h12.305 M19.688,18.357h12.109
		 M45.938,18.357h29.258 M89.336,18.357h24.57 M128.047,18.357h19.688 M161.875,18.357h7.422"/>
	<g>
		<path style="fill:#005CA9;" d="M4.253,13.686V13.46c0.529-0.008,1.021-0.131,1.477-0.37c0.456-0.238,0.896-0.654,1.321-1.248
			s0.721-1.247,0.888-1.959C7.301,10.294,6.723,10.5,6.206,10.5c-0.582,0-1.08-0.225-1.495-0.674S4.088,8.778,4.088,8.034
			c0-0.724,0.208-1.369,0.623-1.935c0.5-0.688,1.153-1.031,1.959-1.031c0.68,0,1.261,0.281,1.746,0.842
			C9.01,6.605,9.307,7.464,9.307,8.485c0,0.919-0.226,1.777-0.678,2.573c-0.451,0.795-1.08,1.456-1.886,1.98
			c-0.655,0.431-1.369,0.647-2.143,0.647H4.253z M8.037,9.432c0.073-0.529,0.11-0.952,0.11-1.27c0-0.395-0.067-0.821-0.202-1.279
			C7.812,6.425,7.621,6.074,7.375,5.83C7.128,5.586,6.849,5.464,6.536,5.464c-0.362,0-0.68,0.163-0.952,0.488
			c-0.272,0.326-0.409,0.81-0.409,1.453c0,0.858,0.181,1.53,0.543,2.014c0.265,0.35,0.59,0.525,0.977,0.525
			c0.187,0,0.409-0.045,0.665-0.135C7.616,9.72,7.842,9.594,8.037,9.432z"/>
	</g>
	<g>
		<path style="fill:#005CA9;" d="M1.465,23.853l2.014-0.982h0.202v6.988c0,0.464,0.019,0.753,0.058,0.867
			c0.039,0.113,0.119,0.201,0.241,0.262c0.122,0.062,0.37,0.096,0.745,0.104v0.226H1.611v-0.226
			c0.391-0.009,0.643-0.042,0.757-0.101c0.114-0.06,0.193-0.139,0.238-0.238c0.044-0.1,0.067-0.397,0.067-0.895v-4.468
			c0-0.602-0.021-0.988-0.061-1.159c-0.028-0.131-0.081-0.227-0.156-0.287s-0.166-0.092-0.271-0.092c-0.15,0-0.36,0.063-0.628,0.189
			L1.465,23.853z"/>
		<path style="fill:#005CA9;" d="M12.066,28.266v0.866h-1.11v2.186H9.949v-2.186H6.445v-0.781l3.839-5.48h0.672v5.396H12.066z
			 M9.949,28.266v-4.107l-2.905,4.107H9.949z"/>
	</g>
	<g>
		<path style="fill:#005CA9;" d="M23.875,5.238h4.437V5.47l-2.759,8.215h-0.684l2.472-7.452h-2.277
			c-0.459,0-0.787,0.055-0.982,0.165c-0.342,0.187-0.616,0.476-0.824,0.867l-0.177-0.067L23.875,5.238z"/>
	</g>
	<g>
		<path style="fill:#005CA9;" d="M20.566,23.853l2.014-0.982h0.202v6.988c0,0.464,0.019,0.753,0.058,0.867
			c0.039,0.113,0.119,0.201,0.241,0.262c0.122,0.062,0.37,0.096,0.745,0.104v0.226h-3.113v-0.226
			c0.391-0.009,0.643-0.042,0.757-0.101c0.114-0.06,0.193-0.139,0.238-0.238c0.044-0.1,0.067-0.397,0.067-0.895v-4.468
			c0-0.602-0.021-0.988-0.061-1.159c-0.028-0.131-0.081-0.227-0.156-0.287s-0.166-0.092-0.271-0.092c-0.15,0-0.36,0.063-0.628,0.189
			L20.566,23.853z"/>
		<path style="fill:#005CA9;" d="M27.75,27.148c-0.655-0.537-1.077-0.968-1.266-1.294c-0.189-0.325-0.284-0.663-0.284-1.013
			c0-0.537,0.207-1,0.622-1.389s0.967-0.583,1.654-0.583c0.667,0,1.205,0.181,1.611,0.543s0.61,0.775,0.61,1.239
			c0,0.31-0.11,0.625-0.33,0.946s-0.677,0.699-1.374,1.135c0.716,0.554,1.19,0.989,1.422,1.307c0.309,0.415,0.464,0.853,0.464,1.312
			c0,0.581-0.222,1.079-0.666,1.492c-0.443,0.413-1.025,0.619-1.745,0.619c-0.786,0-1.398-0.246-1.837-0.738
			c-0.35-0.395-0.525-0.826-0.525-1.294c0-0.366,0.123-0.729,0.369-1.09S27.148,27.584,27.75,27.148z M28.037,27.381
			c-0.338,0.284-0.588,0.595-0.751,0.931c-0.163,0.336-0.244,0.699-0.244,1.09c0,0.524,0.144,0.944,0.431,1.26
			c0.287,0.315,0.652,0.473,1.096,0.473c0.439,0,0.791-0.124,1.056-0.372s0.396-0.549,0.396-0.903c0-0.293-0.077-0.555-0.231-0.787
			C29.5,28.64,28.916,28.076,28.037,27.381z M28.708,26.495c0.488-0.439,0.797-0.786,0.928-1.04s0.195-0.542,0.195-0.864
			c0-0.427-0.12-0.762-0.36-1.004c-0.24-0.241-0.568-0.363-0.983-0.363s-0.753,0.12-1.013,0.36s-0.391,0.521-0.391,0.843
			c0,0.211,0.054,0.423,0.162,0.635c0.108,0.211,0.262,0.413,0.461,0.604L28.708,26.495z"/>
	</g>
	<g>
		<path style="fill:#005CA9;" d="M51.958,13.686V13.46c0.529-0.008,1.021-0.131,1.477-0.37c0.456-0.238,0.896-0.654,1.321-1.248
			s0.721-1.247,0.888-1.959c-0.639,0.411-1.217,0.617-1.733,0.617c-0.582,0-1.08-0.225-1.495-0.674s-0.623-1.047-0.623-1.792
			c0-0.724,0.208-1.369,0.623-1.935c0.5-0.688,1.153-1.031,1.959-1.031c0.68,0,1.261,0.281,1.746,0.842
			c0.594,0.696,0.891,1.554,0.891,2.576c0,0.919-0.226,1.777-0.678,2.573c-0.451,0.795-1.08,1.456-1.886,1.98
			c-0.655,0.431-1.369,0.647-2.143,0.647H51.958z M55.742,9.432c0.073-0.529,0.11-0.952,0.11-1.27c0-0.395-0.067-0.821-0.202-1.279
			c-0.134-0.458-0.324-0.809-0.57-1.053c-0.247-0.244-0.526-0.366-0.839-0.366c-0.362,0-0.68,0.163-0.952,0.488
			c-0.272,0.326-0.409,0.81-0.409,1.453c0,0.858,0.181,1.53,0.543,2.014c0.265,0.35,0.59,0.525,0.977,0.525
			c0.187,0,0.409-0.045,0.665-0.135C55.321,9.72,55.547,9.594,55.742,9.432z"/>
		<path style="fill:#005CA9;" d="M64.631,5.238h4.437V5.47l-2.759,8.215h-0.684l2.472-7.452h-2.277
			c-0.459,0-0.787,0.055-0.982,0.165c-0.342,0.187-0.616,0.476-0.824,0.867l-0.177-0.067L64.631,5.238z"/>
	</g>
	<g>
		<path style="fill:#005CA9;" d="M46.826,23.853l2.014-0.982h0.202v6.988c0,0.464,0.019,0.753,0.058,0.867
			c0.039,0.113,0.119,0.201,0.241,0.262c0.122,0.062,0.37,0.096,0.745,0.104v0.226h-3.113v-0.226
			c0.391-0.009,0.643-0.042,0.757-0.101c0.114-0.06,0.193-0.139,0.238-0.238c0.044-0.1,0.067-0.397,0.067-0.895v-4.468
			c0-0.602-0.021-0.988-0.061-1.159c-0.028-0.131-0.081-0.227-0.156-0.287s-0.166-0.092-0.271-0.092c-0.15,0-0.36,0.063-0.628,0.189
			L46.826,23.853z"/>
		<path style="fill:#005CA9;" d="M57.428,28.266v0.866h-1.11v2.186H55.31v-2.186h-3.503v-0.781l3.839-5.48h0.672v5.396H57.428z
			 M55.31,28.266v-4.107l-2.905,4.107H55.31z"/>
	</g>
	<g>
		<path style="fill:#005CA9;" d="M63.965,23.853l2.014-0.982h0.202v6.988c0,0.464,0.019,0.753,0.058,0.867
			c0.039,0.113,0.119,0.201,0.241,0.262c0.122,0.062,0.37,0.096,0.745,0.104v0.226h-3.113v-0.226
			c0.391-0.009,0.643-0.042,0.757-0.101c0.114-0.06,0.193-0.139,0.238-0.238c0.044-0.1,0.067-0.397,0.067-0.895v-4.468
			c0-0.602-0.021-0.988-0.061-1.159c-0.028-0.131-0.081-0.227-0.156-0.287s-0.166-0.092-0.271-0.092c-0.15,0-0.36,0.063-0.628,0.189
			L63.965,23.853z"/>
		<path style="fill:#005CA9;" d="M71.148,27.148c-0.655-0.537-1.077-0.968-1.266-1.294c-0.189-0.325-0.284-0.663-0.284-1.013
			c0-0.537,0.207-1,0.622-1.389s0.967-0.583,1.654-0.583c0.667,0,1.205,0.181,1.611,0.543s0.61,0.775,0.61,1.239
			c0,0.31-0.11,0.625-0.33,0.946s-0.677,0.699-1.374,1.135c0.716,0.554,1.19,0.989,1.422,1.307c0.309,0.415,0.464,0.853,0.464,1.312
			c0,0.581-0.222,1.079-0.666,1.492c-0.443,0.413-1.025,0.619-1.745,0.619c-0.786,0-1.398-0.246-1.837-0.738
			c-0.35-0.395-0.525-0.826-0.525-1.294c0-0.366,0.123-0.729,0.369-1.09S70.546,27.584,71.148,27.148z M71.436,27.381
			c-0.338,0.284-0.588,0.595-0.751,0.931c-0.163,0.336-0.244,0.699-0.244,1.09c0,0.524,0.144,0.944,0.431,1.26
			c0.287,0.315,0.652,0.473,1.096,0.473c0.439,0,0.791-0.124,1.056-0.372s0.396-0.549,0.396-0.903c0-0.293-0.077-0.555-0.231-0.787
			C72.898,28.64,72.314,28.076,71.436,27.381z M72.107,26.495c0.488-0.439,0.797-0.786,0.928-1.04s0.195-0.542,0.195-0.864
			c0-0.427-0.12-0.762-0.36-1.004c-0.24-0.241-0.568-0.363-0.983-0.363s-0.753,0.12-1.013,0.36s-0.391,0.521-0.391,0.843
			c0,0.211,0.054,0.423,0.162,0.635c0.108,0.211,0.262,0.413,0.461,0.604L72.107,26.495z"/>
	</g>
	<g>
		<path style="fill:#005CA9;" d="M93.809,6.05l2.014-0.982h0.202v6.988c0,0.464,0.019,0.753,0.058,0.867
			c0.039,0.114,0.119,0.201,0.241,0.262s0.37,0.096,0.745,0.104v0.226h-3.113v-0.226c0.391-0.008,0.643-0.042,0.757-0.101
			c0.114-0.059,0.193-0.138,0.238-0.238s0.067-0.398,0.067-0.895V7.588c0-0.602-0.021-0.988-0.062-1.159
			c-0.028-0.13-0.08-0.226-0.155-0.287c-0.076-0.061-0.166-0.092-0.271-0.092c-0.151,0-0.36,0.063-0.629,0.189L93.809,6.05z"/>
		<path style="fill:#005CA9;" d="M104.701,5.238h4.437V5.47l-2.759,8.215h-0.684l2.473-7.452h-2.277
			c-0.46,0-0.787,0.055-0.982,0.165c-0.342,0.187-0.616,0.476-0.824,0.867l-0.177-0.067L104.701,5.238z"/>
	</g>
	<g>
		<path style="fill:#005CA9;" d="M90.215,23.853l2.014-0.982h0.202v6.988c0,0.464,0.019,0.753,0.058,0.867
			c0.039,0.113,0.119,0.201,0.241,0.262c0.122,0.062,0.37,0.096,0.745,0.104v0.226h-3.113v-0.226
			c0.391-0.009,0.643-0.042,0.757-0.101c0.114-0.06,0.193-0.139,0.238-0.238s0.067-0.397,0.067-0.895v-4.468
			c0-0.602-0.021-0.988-0.062-1.159c-0.028-0.131-0.08-0.227-0.155-0.287c-0.076-0.061-0.166-0.092-0.271-0.092
			c-0.151,0-0.36,0.063-0.629,0.189L90.215,23.853z"/>
		<path style="fill:#005CA9;" d="M100.816,28.266v0.866h-1.11v2.186h-1.007v-2.186h-3.504v-0.781l3.839-5.48h0.672v5.396H100.816z
			 M98.699,28.266v-4.107l-2.906,4.107H98.699z"/>
	</g>
	<g>
		<path style="fill:#005CA9;" d="M113.007,29.725l-0.58,1.593h-4.883v-0.226c1.437-1.311,2.447-2.381,3.033-3.211
			s0.879-1.589,0.879-2.276c0-0.525-0.16-0.956-0.481-1.294c-0.322-0.338-0.706-0.507-1.154-0.507c-0.406,0-0.771,0.119-1.096,0.357
			c-0.323,0.238-0.562,0.587-0.717,1.047h-0.226c0.102-0.753,0.363-1.331,0.784-1.733c0.421-0.403,0.947-0.604,1.578-0.604
			c0.671,0,1.231,0.216,1.681,0.646c0.45,0.432,0.675,0.94,0.675,1.526c0,0.419-0.098,0.838-0.293,1.257
			c-0.301,0.66-0.789,1.357-1.465,2.094c-1.014,1.107-1.646,1.774-1.898,2.002h2.161c0.439,0,0.747-0.016,0.925-0.049
			c0.177-0.032,0.336-0.099,0.479-0.198s0.267-0.241,0.373-0.424H113.007z"/>
	</g>
	<g>
		<path style="fill:#005CA9;" d="M131.279,6.05l2.014-0.982h0.202v6.988c0,0.464,0.019,0.753,0.058,0.867
			c0.039,0.114,0.119,0.201,0.241,0.262s0.37,0.096,0.745,0.104v0.226h-3.113v-0.226c0.391-0.008,0.643-0.042,0.757-0.101
			c0.114-0.059,0.193-0.138,0.238-0.238s0.067-0.398,0.067-0.895V7.588c0-0.602-0.021-0.988-0.062-1.159
			c-0.028-0.13-0.08-0.226-0.155-0.287C132.195,6.081,132.105,6.05,132,6.05c-0.151,0-0.36,0.063-0.629,0.189L131.279,6.05z"/>
		<path style="fill:#005CA9;" d="M141.204,6.05l2.014-0.982h0.202v6.988c0,0.464,0.019,0.753,0.058,0.867
			c0.039,0.114,0.119,0.201,0.241,0.262s0.37,0.096,0.745,0.104v0.226h-3.113v-0.226c0.391-0.008,0.643-0.042,0.757-0.101
			c0.114-0.059,0.193-0.138,0.238-0.238s0.067-0.398,0.067-0.895V7.588c0-0.602-0.021-0.988-0.062-1.159
			c-0.028-0.13-0.08-0.226-0.155-0.287c-0.076-0.061-0.166-0.092-0.271-0.092c-0.151,0-0.36,0.063-0.629,0.189L141.204,6.05z"/>
	</g>
	<g>
		<path style="fill:#005CA9;" d="M134.569,29.725l-0.58,1.593h-4.883v-0.226c1.437-1.311,2.447-2.381,3.033-3.211
			s0.879-1.589,0.879-2.276c0-0.525-0.16-0.956-0.481-1.294c-0.322-0.338-0.706-0.507-1.154-0.507c-0.406,0-0.771,0.119-1.096,0.357
			c-0.323,0.238-0.562,0.587-0.717,1.047h-0.226c0.102-0.753,0.363-1.331,0.784-1.733c0.421-0.403,0.947-0.604,1.578-0.604
			c0.671,0,1.231,0.216,1.681,0.646c0.45,0.432,0.675,0.94,0.675,1.526c0,0.419-0.098,0.838-0.293,1.257
			c-0.301,0.66-0.789,1.357-1.465,2.094c-1.014,1.107-1.646,1.774-1.898,2.002h2.161c0.439,0,0.747-0.016,0.925-0.049
			c0.177-0.032,0.336-0.099,0.479-0.198s0.267-0.241,0.373-0.424H134.569z"/>
		<path style="fill:#005CA9;" d="M146.832,29.725l-0.58,1.593h-4.883v-0.226c1.437-1.311,2.447-2.381,3.033-3.211
			s0.879-1.589,0.879-2.276c0-0.525-0.16-0.956-0.481-1.294c-0.322-0.338-0.706-0.507-1.154-0.507c-0.406,0-0.771,0.119-1.096,0.357
			c-0.323,0.238-0.562,0.587-0.717,1.047h-0.226c0.102-0.753,0.363-1.331,0.784-1.733c0.421-0.403,0.947-0.604,1.578-0.604
			c0.671,0,1.231,0.216,1.681,0.646c0.45,0.432,0.675,0.94,0.675,1.526c0,0.419-0.098,0.838-0.293,1.257
			c-0.301,0.66-0.789,1.357-1.465,2.094c-1.014,1.107-1.646,1.774-1.898,2.002h2.161c0.439,0,0.747-0.016,0.925-0.049
			c0.177-0.032,0.336-0.099,0.479-0.198s0.267-0.241,0.373-0.424H146.832z"/>
	</g>
	<g>
		<path style="fill:#005CA9;" d="M163.926,6.05l2.014-0.982h0.202v6.988c0,0.464,0.019,0.753,0.058,0.867
			c0.039,0.114,0.119,0.201,0.241,0.262s0.37,0.096,0.745,0.104v0.226h-3.113v-0.226c0.391-0.008,0.643-0.042,0.757-0.101
			c0.114-0.059,0.193-0.138,0.238-0.238s0.067-0.398,0.067-0.895V7.588c0-0.602-0.021-0.988-0.062-1.159
			c-0.028-0.13-0.08-0.226-0.155-0.287c-0.076-0.061-0.166-0.092-0.271-0.092c-0.151,0-0.36,0.063-0.629,0.189L163.926,6.05z"/>
	</g>
	<g>
		<path style="fill:#005CA9;" d="M168.473,28.266v0.866h-1.11v2.186h-1.007v-2.186h-3.504v-0.781l3.839-5.48h0.672v5.396H168.473z
			 M166.355,28.266v-4.107l-2.906,4.107H166.355z"/>
	</g>
	<g>
		<path style="fill:#005CA9;" d="M15.562,17.553c0-0.191,0.072-0.36,0.217-0.507s0.314-0.22,0.51-0.22
			c0.199,0,0.372,0.071,0.519,0.214s0.22,0.313,0.22,0.513c0,0.195-0.074,0.365-0.223,0.51s-0.32,0.217-0.516,0.217
			c-0.187,0-0.355-0.074-0.503-0.223C15.637,17.908,15.562,17.74,15.562,17.553z"/>
		<path style="fill:#005CA9;" d="M41.687,18.328h-5.798v-0.849h5.798V18.328z M41.687,19.976h-5.798v-0.849h5.798V19.976z"/>
	</g>
	<g>
		<path style="fill:#1F5DA5;" d="M59.625,9.389c0-0.191,0.072-0.36,0.217-0.507s0.314-0.22,0.51-0.22
			c0.199,0,0.372,0.071,0.519,0.214s0.22,0.313,0.22,0.513c0,0.195-0.074,0.365-0.223,0.51s-0.32,0.217-0.516,0.217
			c-0.187,0-0.355-0.074-0.503-0.223C59.699,9.744,59.625,9.576,59.625,9.389z"/>
	</g>
	<g>
		<path style="fill:#005CA9;" d="M59.947,27.191c0-0.191,0.072-0.36,0.217-0.507s0.314-0.22,0.51-0.22
			c0.199,0,0.372,0.071,0.519,0.214s0.22,0.313,0.22,0.513c0,0.195-0.074,0.365-0.223,0.51s-0.32,0.217-0.516,0.217
			c-0.187,0-0.355-0.074-0.503-0.223C60.021,27.547,59.947,27.379,59.947,27.191z"/>
	</g>
	<g>
		<path style="fill:#005CA9;" d="M85.095,18.328h-5.798v-0.849h5.798V18.328z M85.095,19.976h-5.798v-0.849h5.798V19.976z"/>
	</g>
	<g>
		<path style="fill:#305C82;" d="M99.713,9.389c0-0.191,0.072-0.36,0.217-0.507s0.314-0.22,0.51-0.22
			c0.199,0,0.372,0.071,0.519,0.214s0.22,0.313,0.22,0.513c0,0.195-0.074,0.365-0.223,0.51s-0.32,0.217-0.516,0.217
			c-0.188,0-0.355-0.074-0.504-0.223C99.787,9.744,99.713,9.576,99.713,9.389z"/>
	</g>
	<g>
		<path style="fill:#005CA9;" d="M103.336,27.191c0-0.191,0.072-0.36,0.217-0.507s0.314-0.22,0.51-0.22
			c0.199,0,0.372,0.071,0.519,0.214s0.22,0.313,0.22,0.513c0,0.195-0.074,0.365-0.223,0.51s-0.32,0.217-0.516,0.217
			c-0.188,0-0.355-0.074-0.504-0.223S103.336,27.379,103.336,27.191z"/>
	</g>
	<g>
		<path style="fill:#005CA9;" d="M123.797,18.328h-5.799v-0.849h5.799V18.328z M123.797,19.976h-5.799v-0.849h5.799V19.976z"/>
	</g>
	<g>
		<path style="fill:#1F5DA5;" d="M137.164,9.389c0-0.191,0.072-0.36,0.217-0.507s0.314-0.22,0.51-0.22
			c0.199,0,0.372,0.071,0.519,0.214s0.22,0.313,0.22,0.513c0,0.195-0.074,0.365-0.223,0.51s-0.32,0.217-0.516,0.217
			c-0.188,0-0.355-0.074-0.504-0.223C137.238,9.744,137.164,9.576,137.164,9.389z"/>
	</g>
	<g>
		<path style="fill:#305C82;" d="M137.164,27.191c0-0.191,0.072-0.36,0.217-0.507s0.314-0.22,0.51-0.22
			c0.199,0,0.372,0.071,0.519,0.214s0.22,0.313,0.22,0.513c0,0.195-0.074,0.365-0.223,0.51s-0.32,0.217-0.516,0.217
			c-0.188,0-0.355-0.074-0.504-0.223S137.164,27.379,137.164,27.191z"/>
	</g>
	<g>
		<path style="fill:#005CA9;" d="M157.635,18.328h-5.799v-0.849h5.799V18.328z M157.635,19.976h-5.799v-0.849h5.799V19.976z"/>
	</g>
</g>
<g>
	<path style="fill:#C51A1B;" d="M62.342,1.403l0.967-0.472h0.097v3.354c0,0.223,0.009,0.361,0.028,0.416s0.057,0.097,0.116,0.126
		s0.178,0.046,0.357,0.05v0.108h-1.494V4.878c0.188-0.004,0.309-0.02,0.363-0.048s0.093-0.066,0.114-0.115
		c0.021-0.047,0.032-0.19,0.032-0.429V2.142c0-0.289-0.01-0.475-0.029-0.557c-0.014-0.062-0.039-0.108-0.075-0.138
		s-0.08-0.044-0.13-0.044c-0.072,0-0.173,0.03-0.302,0.091L62.342,1.403z"/>
</g>
<line style="fill:none;stroke:#C51A1B;stroke-width:0.5;stroke-miterlimit:10;" x1="62.753" y1="7.329" x2="57.572" y2="15.686"/>
<line style="fill:none;stroke:#C51A1B;stroke-width:0.5;stroke-miterlimit:10;" x1="104.562" y1="7.329" x2="99.383" y2="15.686"/>
<g>
	<path style="fill:#C51A1B;" d="M104.295,1.403l0.967-0.472h0.098v3.354c0,0.223,0.009,0.361,0.027,0.416s0.057,0.097,0.115,0.126
		s0.178,0.046,0.357,0.05v0.108h-1.494V4.878c0.188-0.004,0.309-0.02,0.363-0.048s0.094-0.066,0.115-0.115
		c0.021-0.047,0.031-0.19,0.031-0.429V2.142c0-0.289-0.01-0.475-0.029-0.557c-0.014-0.062-0.038-0.108-0.074-0.138
		s-0.08-0.044-0.131-0.044c-0.072,0-0.172,0.03-0.301,0.091L104.295,1.403z"/>
</g>
<g>
	<path style="fill:#C51A1B;" d="M78.665,33.573l-0.278,0.765h-2.344v-0.108c0.689-0.629,1.175-1.143,1.456-1.541
		s0.422-0.763,0.422-1.093c0-0.252-0.077-0.459-0.231-0.621s-0.339-0.243-0.554-0.243c-0.195,0-0.371,0.058-0.526,0.171
		c-0.155,0.115-0.27,0.282-0.344,0.503h-0.108c0.049-0.361,0.174-0.639,0.376-0.832s0.455-0.29,0.757-0.29
		c0.322,0,0.591,0.104,0.807,0.311s0.324,0.451,0.324,0.732c0,0.201-0.047,0.402-0.141,0.604c-0.145,0.316-0.379,0.651-0.703,1.005
		c-0.486,0.531-0.79,0.852-0.911,0.961h1.037c0.211,0,0.359-0.008,0.444-0.023s0.162-0.047,0.23-0.095s0.128-0.116,0.179-0.204
		H78.665z"/>
</g>
<line style="fill:none;stroke:#C51A1B;stroke-width:0.5;stroke-miterlimit:10;" x1="74.316" y1="21.097" x2="69.136" y2="29.453"/>
<g>
	<path style="fill:#C51A1B;" d="M100.35,33.573l-0.278,0.765h-2.344v-0.108c0.689-0.629,1.175-1.143,1.456-1.541
		s0.422-0.763,0.422-1.093c0-0.252-0.077-0.459-0.231-0.621s-0.339-0.243-0.554-0.243c-0.195,0-0.371,0.058-0.525,0.171
		c-0.156,0.115-0.271,0.282-0.345,0.503h-0.108c0.049-0.361,0.174-0.639,0.377-0.832c0.201-0.193,0.454-0.29,0.757-0.29
		c0.322,0,0.591,0.104,0.808,0.311c0.215,0.207,0.323,0.451,0.323,0.732c0,0.201-0.047,0.402-0.141,0.604
		c-0.145,0.316-0.379,0.651-0.703,1.005c-0.486,0.531-0.79,0.852-0.911,0.961h1.037c0.211,0,0.359-0.008,0.443-0.023
		c0.086-0.016,0.162-0.047,0.23-0.095s0.128-0.116,0.179-0.204H100.35z"/>
</g>
<line style="fill:none;stroke:#C51A1B;stroke-width:0.5;stroke-miterlimit:10;" x1="96" y1="21.097" x2="90.821" y2="29.453"/>
<g id="theGroup">
</g>
</svg>
