<?xml version="1.0" encoding="iso-8859-1"?>
<!-- Generator: Adobe Illustrator 16.0.0, SVG Export Plug-In . SVG Version: 6.00 Build 0)  -->
<!DOCTYPE svg PUBLIC "-//W3C//DTD SVG 1.1//EN" "http://www.w3.org/Graphics/SVG/1.1/DTD/svg11.dtd">
<svg version="1.1" id="Lager_1" xmlns="http://www.w3.org/2000/svg" xmlns:xlink="http://www.w3.org/1999/xlink" x="0px" y="0px"
	 width="123.12px" height="51.376px" viewBox="0 0 123.12 51.376" style="enable-background:new 0 0 123.12 51.376;"
	 xml:space="preserve">
<g>
	
		<line style="fill:none;stroke:#0066FF;stroke-width:0.5;stroke-linecap:square;stroke-miterlimit:10;" x1="11.183" y1="34.585" x2="60.792" y2="34.585"/>
	<g>
		<path style="fill:#0066FF;" d="M5.731,2.534v2.863H5.505C5.432,4.848,5.301,4.41,5.112,4.085C4.922,3.759,4.653,3.501,4.303,3.31
			c-0.35-0.191-0.712-0.287-1.086-0.287c-0.423,0-0.773,0.129-1.05,0.388C1.89,3.669,1.752,3.963,1.752,4.292
			c0,0.252,0.087,0.482,0.262,0.69c0.252,0.305,0.853,0.712,1.8,1.221c0.773,0.415,1.301,0.733,1.584,0.955
			c0.283,0.222,0.5,0.483,0.653,0.785C6.204,8.243,6.28,8.559,6.28,8.888c0,0.626-0.243,1.167-0.729,1.621
			c-0.486,0.454-1.112,0.681-1.877,0.681c-0.24,0-0.466-0.019-0.677-0.055c-0.126-0.021-0.388-0.095-0.785-0.223
			c-0.396-0.128-0.648-0.192-0.753-0.192c-0.102,0-0.183,0.031-0.241,0.091c-0.059,0.062-0.103,0.188-0.131,0.379H0.86V8.351h0.226
			C1.192,8.945,1.334,9.39,1.514,9.685c0.179,0.295,0.453,0.54,0.821,0.735s0.772,0.293,1.211,0.293
			c0.509,0,0.911-0.134,1.206-0.402s0.443-0.586,0.443-0.952c0-0.204-0.056-0.409-0.168-0.617C4.914,8.534,4.74,8.341,4.504,8.162
			C4.346,8.04,3.912,7.78,3.204,7.384C2.496,6.987,1.993,6.67,1.694,6.435C1.395,6.199,1.168,5.938,1.013,5.653
			s-0.232-0.598-0.232-0.94c0-0.594,0.228-1.105,0.684-1.535C1.92,2.749,2.5,2.534,3.204,2.534c0.439,0,0.906,0.108,1.398,0.324
			C4.83,2.959,4.991,3.011,5.084,3.011c0.106,0,0.192-0.032,0.26-0.095c0.067-0.063,0.121-0.19,0.162-0.382H5.731z"/>
		<path style="fill:#0066FF;" d="M10.585,10.194c-0.574,0.443-0.934,0.7-1.081,0.769c-0.22,0.102-0.454,0.153-0.702,0.153
			c-0.387,0-0.705-0.132-0.956-0.397c-0.25-0.265-0.375-0.612-0.375-1.043c0-0.273,0.062-0.509,0.184-0.708
			c0.167-0.277,0.457-0.537,0.87-0.781c0.413-0.244,1.1-0.542,2.06-0.892v-0.22c0-0.557-0.089-0.939-0.266-1.147
			c-0.177-0.207-0.435-0.311-0.772-0.311c-0.256,0-0.459,0.069-0.61,0.208C8.783,5.962,8.706,6.121,8.706,6.3l0.012,0.354
			c0,0.187-0.048,0.332-0.143,0.434C8.479,7.189,8.354,7.24,8.199,7.24c-0.15,0-0.274-0.053-0.369-0.159
			c-0.096-0.106-0.144-0.25-0.144-0.433c0-0.35,0.179-0.672,0.537-0.965s0.86-0.439,1.508-0.439c0.496,0,0.903,0.083,1.221,0.25
			c0.24,0.126,0.417,0.324,0.531,0.592c0.073,0.175,0.11,0.533,0.11,1.074v1.898c0,0.533,0.01,0.86,0.03,0.979
			c0.021,0.12,0.054,0.201,0.101,0.241c0.046,0.041,0.101,0.061,0.162,0.061c0.065,0,0.122-0.014,0.171-0.043
			c0.085-0.053,0.25-0.201,0.494-0.445v0.342c-0.456,0.61-0.891,0.916-1.306,0.916c-0.2,0-0.358-0.069-0.477-0.208
			C10.65,10.764,10.589,10.528,10.585,10.194z M10.585,9.798v-2.13c-0.615,0.244-1.011,0.417-1.19,0.519
			C9.074,8.365,8.844,8.553,8.706,8.748C8.567,8.943,8.498,9.157,8.498,9.389c0,0.293,0.088,0.536,0.263,0.729
			s0.376,0.29,0.604,0.29C9.674,10.408,10.081,10.205,10.585,9.798z"/>
		<path style="fill:#0066FF;" d="M14.551,6.435c0.407-0.407,0.647-0.641,0.72-0.702c0.183-0.154,0.38-0.274,0.592-0.36
			c0.211-0.085,0.421-0.128,0.628-0.128c0.35,0,0.651,0.102,0.903,0.306c0.252,0.203,0.421,0.498,0.506,0.885
			c0.419-0.488,0.773-0.809,1.062-0.961c0.289-0.152,0.586-0.229,0.891-0.229c0.297,0,0.561,0.077,0.791,0.229
			c0.23,0.153,0.412,0.402,0.546,0.748c0.089,0.236,0.134,0.606,0.134,1.111v2.404c0,0.35,0.026,0.59,0.08,0.721
			c0.041,0.089,0.116,0.166,0.226,0.229c0.11,0.063,0.289,0.095,0.537,0.095V11h-2.759v-0.22h0.116c0.24,0,0.427-0.047,0.562-0.141
			c0.093-0.065,0.161-0.168,0.201-0.311c0.016-0.069,0.024-0.267,0.024-0.592V7.332c0-0.456-0.055-0.777-0.165-0.965
			c-0.158-0.26-0.413-0.391-0.763-0.391c-0.216,0-0.433,0.054-0.65,0.162c-0.218,0.108-0.481,0.308-0.791,0.601l-0.012,0.067
			l0.012,0.263v2.667c0,0.383,0.021,0.621,0.064,0.714c0.043,0.094,0.123,0.172,0.241,0.235c0.118,0.063,0.319,0.095,0.604,0.095V11
			h-2.826v-0.22c0.309,0,0.522-0.037,0.638-0.11c0.116-0.073,0.196-0.183,0.241-0.33c0.021-0.069,0.031-0.271,0.031-0.604V7.332
			c0-0.456-0.067-0.784-0.202-0.983c-0.179-0.26-0.429-0.391-0.75-0.391c-0.22,0-0.438,0.059-0.653,0.177
			c-0.338,0.179-0.598,0.38-0.781,0.604v2.997c0,0.366,0.025,0.604,0.076,0.714s0.126,0.192,0.226,0.247
			c0.1,0.055,0.302,0.083,0.607,0.083V11h-2.765v-0.22c0.256,0,0.436-0.027,0.537-0.083c0.102-0.055,0.179-0.142,0.232-0.262
			s0.08-0.353,0.08-0.699V7.601c0-0.615-0.019-1.011-0.055-1.19c-0.028-0.134-0.073-0.227-0.134-0.278
			c-0.061-0.051-0.145-0.076-0.25-0.076c-0.114,0-0.25,0.031-0.409,0.091l-0.092-0.22l1.685-0.684h0.263V6.435z"/>
		<path style="fill:#0066FF;" d="M24.087,3.572v1.837h1.306v0.427h-1.306v3.625c0,0.362,0.052,0.606,0.156,0.732
			c0.104,0.126,0.237,0.189,0.399,0.189c0.135,0,0.265-0.042,0.391-0.125c0.126-0.083,0.224-0.207,0.293-0.369h0.238
			c-0.143,0.399-0.344,0.699-0.604,0.9c-0.26,0.201-0.529,0.302-0.806,0.302c-0.187,0-0.37-0.052-0.549-0.156
			c-0.179-0.104-0.312-0.252-0.397-0.446c-0.085-0.193-0.128-0.491-0.128-0.894v-3.76h-0.885V5.635
			c0.224-0.089,0.453-0.241,0.687-0.455c0.234-0.213,0.442-0.467,0.626-0.76c0.093-0.155,0.224-0.438,0.391-0.848H24.087z"/>
		<path style="fill:#0066FF;" d="M29.142,10.194c-0.574,0.443-0.934,0.7-1.081,0.769c-0.22,0.102-0.454,0.153-0.702,0.153
			c-0.387,0-0.705-0.132-0.956-0.397c-0.25-0.265-0.375-0.612-0.375-1.043c0-0.273,0.062-0.509,0.184-0.708
			c0.167-0.277,0.457-0.537,0.87-0.781c0.413-0.244,1.1-0.542,2.06-0.892v-0.22c0-0.557-0.089-0.939-0.266-1.147
			c-0.177-0.207-0.435-0.311-0.772-0.311c-0.256,0-0.459,0.069-0.61,0.208c-0.154,0.138-0.231,0.297-0.231,0.476l0.012,0.354
			c0,0.187-0.048,0.332-0.143,0.434C27.035,7.189,26.91,7.24,26.755,7.24c-0.15,0-0.274-0.053-0.369-0.159
			c-0.096-0.106-0.144-0.25-0.144-0.433c0-0.35,0.179-0.672,0.537-0.965s0.86-0.439,1.508-0.439c0.496,0,0.903,0.083,1.221,0.25
			c0.24,0.126,0.417,0.324,0.531,0.592c0.073,0.175,0.11,0.533,0.11,1.074v1.898c0,0.533,0.01,0.86,0.03,0.979
			c0.021,0.12,0.054,0.201,0.101,0.241c0.046,0.041,0.101,0.061,0.162,0.061c0.065,0,0.122-0.014,0.171-0.043
			c0.085-0.053,0.25-0.201,0.494-0.445v0.342c-0.456,0.61-0.891,0.916-1.306,0.916c-0.2,0-0.358-0.069-0.477-0.208
			C29.207,10.764,29.146,10.528,29.142,10.194z M29.142,9.798v-2.13c-0.615,0.244-1.011,0.417-1.19,0.519
			C27.63,8.365,27.4,8.553,27.262,8.748c-0.139,0.195-0.208,0.409-0.208,0.641c0,0.293,0.088,0.536,0.263,0.729
			s0.376,0.29,0.604,0.29C28.23,10.408,28.637,10.205,29.142,9.798z"/>
		<path style="fill:#0066FF;" d="M33.37,2.321v7.416c0,0.35,0.025,0.582,0.076,0.696c0.051,0.114,0.129,0.2,0.235,0.259
			s0.303,0.088,0.592,0.088V11h-2.741v-0.22c0.256,0,0.431-0.026,0.525-0.079c0.094-0.053,0.167-0.141,0.22-0.263
			s0.079-0.356,0.079-0.702V4.658c0-0.63-0.014-1.018-0.042-1.163C32.286,3.352,32.24,3.252,32.177,3.2
			c-0.063-0.053-0.144-0.08-0.241-0.08c-0.106,0-0.24,0.033-0.403,0.098l-0.104-0.213l1.667-0.684H33.37z"/>
		<path style="fill:#0066FF;" d="M38.383,5.244v1.904h-0.201c-0.155-0.598-0.354-1.005-0.595-1.221
			c-0.242-0.215-0.55-0.323-0.925-0.323c-0.285,0-0.515,0.075-0.69,0.226c-0.175,0.151-0.262,0.317-0.262,0.501
			c0,0.228,0.065,0.423,0.195,0.586c0.126,0.167,0.382,0.344,0.769,0.531l0.891,0.433c0.826,0.403,1.239,0.934,1.239,1.593
			c0,0.509-0.192,0.918-0.577,1.23c-0.384,0.311-0.815,0.467-1.291,0.467c-0.342,0-0.732-0.061-1.172-0.183
			c-0.135-0.041-0.244-0.061-0.33-0.061c-0.093,0-0.167,0.053-0.22,0.159h-0.201V9.09h0.201c0.114,0.569,0.332,0.999,0.653,1.288
			s0.682,0.433,1.08,0.433c0.281,0,0.51-0.082,0.687-0.247c0.177-0.165,0.265-0.363,0.265-0.595c0-0.281-0.099-0.517-0.296-0.708
			c-0.197-0.191-0.591-0.434-1.181-0.727c-0.59-0.293-0.977-0.558-1.16-0.793c-0.183-0.232-0.274-0.525-0.274-0.879
			c0-0.46,0.158-0.844,0.473-1.154c0.315-0.309,0.723-0.464,1.224-0.464c0.22,0,0.486,0.047,0.799,0.141
			c0.208,0.061,0.346,0.092,0.415,0.092c0.065,0,0.116-0.015,0.153-0.043s0.08-0.092,0.128-0.189H38.383z"/>
		<path style="fill:#0066FF;" d="M41.271,3.572v1.837h1.306v0.427h-1.306v3.625c0,0.362,0.052,0.606,0.156,0.732
			c0.104,0.126,0.237,0.189,0.399,0.189c0.135,0,0.265-0.042,0.391-0.125c0.126-0.083,0.224-0.207,0.293-0.369h0.238
			c-0.143,0.399-0.344,0.699-0.604,0.9c-0.26,0.201-0.529,0.302-0.806,0.302c-0.187,0-0.37-0.052-0.549-0.156
			c-0.179-0.104-0.312-0.252-0.397-0.446c-0.085-0.193-0.128-0.491-0.128-0.894v-3.76h-0.885V5.635
			c0.224-0.089,0.453-0.241,0.687-0.455c0.234-0.213,0.442-0.467,0.626-0.76c0.093-0.155,0.224-0.438,0.391-0.848H41.271z"/>
		<path style="fill:#0066FF;" d="M45.086,5.244v4.492c0,0.35,0.025,0.583,0.076,0.699c0.051,0.116,0.126,0.202,0.226,0.259
			c0.1,0.057,0.282,0.085,0.546,0.085V11h-2.716v-0.22c0.272,0,0.456-0.026,0.549-0.079c0.094-0.053,0.168-0.141,0.223-0.263
			c0.055-0.122,0.083-0.356,0.083-0.702V7.582c0-0.606-0.018-0.999-0.055-1.178c-0.028-0.13-0.073-0.221-0.134-0.272
			c-0.062-0.051-0.145-0.076-0.25-0.076c-0.114,0-0.252,0.031-0.415,0.091l-0.085-0.22l1.685-0.684H45.086z M44.579,2.321
			c0.171,0,0.316,0.06,0.437,0.18s0.18,0.266,0.18,0.437s-0.06,0.317-0.18,0.439S44.75,3.56,44.579,3.56s-0.317-0.061-0.439-0.183
			s-0.183-0.269-0.183-0.439s0.06-0.316,0.18-0.437S44.404,2.321,44.579,2.321z"/>
		<path style="fill:#0066FF;" d="M50.617,10.371c-0.273,0.285-0.54,0.49-0.8,0.614s-0.541,0.186-0.842,0.186
			c-0.61,0-1.144-0.255-1.599-0.766c-0.456-0.51-0.684-1.167-0.684-1.968s0.252-1.535,0.757-2.2
			c0.504-0.666,1.153-0.998,1.947-0.998c0.492,0,0.899,0.157,1.221,0.47V4.677c0-0.639-0.016-1.031-0.046-1.178
			c-0.031-0.146-0.079-0.247-0.144-0.299s-0.146-0.08-0.244-0.08c-0.106,0-0.246,0.033-0.421,0.098l-0.08-0.213l1.667-0.684h0.274
			v6.463c0,0.655,0.015,1.055,0.046,1.2c0.03,0.145,0.079,0.245,0.146,0.302c0.067,0.057,0.146,0.085,0.235,0.085
			c0.11,0,0.256-0.034,0.439-0.104l0.067,0.214l-1.66,0.689h-0.28V10.371z M50.617,9.944V7.063c-0.024-0.277-0.098-0.529-0.22-0.757
			c-0.122-0.228-0.284-0.4-0.485-0.516c-0.202-0.116-0.398-0.174-0.589-0.174c-0.358,0-0.678,0.161-0.958,0.482
			c-0.37,0.423-0.555,1.042-0.555,1.855c0,0.822,0.179,1.452,0.537,1.889c0.358,0.438,0.757,0.656,1.196,0.656
			C49.913,10.5,50.271,10.314,50.617,9.944z"/>
		<path style="fill:#0066FF;" d="M53.858,7.515c-0.004,0.83,0.197,1.481,0.604,1.953c0.407,0.472,0.885,0.708,1.435,0.708
			c0.366,0,0.685-0.101,0.955-0.302c0.271-0.202,0.498-0.546,0.681-1.035l0.189,0.122c-0.086,0.558-0.334,1.065-0.745,1.523
			c-0.411,0.458-0.925,0.687-1.544,0.687c-0.671,0-1.246-0.261-1.724-0.784c-0.479-0.523-0.717-1.226-0.717-2.109
			c0-0.956,0.245-1.702,0.735-2.237s1.106-0.803,1.847-0.803c0.626,0,1.141,0.207,1.544,0.62s0.604,0.965,0.604,1.657H53.858z
			 M53.858,7.161h2.588c-0.021-0.358-0.063-0.61-0.128-0.757c-0.102-0.228-0.253-0.407-0.455-0.537
			c-0.201-0.13-0.412-0.195-0.631-0.195c-0.338,0-0.64,0.131-0.907,0.394C54.058,6.328,53.903,6.693,53.858,7.161z"/>
		<path style="fill:#0066FF;" d="M60.021,6.429c0.655-0.79,1.279-1.185,1.874-1.185c0.305,0,0.568,0.077,0.788,0.229
			c0.22,0.153,0.395,0.404,0.524,0.754c0.09,0.244,0.135,0.619,0.135,1.123v2.386c0,0.354,0.028,0.594,0.085,0.721
			c0.045,0.102,0.117,0.181,0.217,0.238s0.284,0.085,0.553,0.085V11H61.43v-0.22h0.116c0.261,0,0.443-0.04,0.546-0.119
			c0.104-0.079,0.176-0.196,0.217-0.351c0.016-0.062,0.024-0.252,0.024-0.574V7.448c0-0.509-0.066-0.878-0.198-1.108
			c-0.132-0.229-0.355-0.345-0.668-0.345c-0.484,0-0.966,0.265-1.446,0.793v2.948c0,0.379,0.022,0.613,0.067,0.702
			c0.057,0.118,0.135,0.205,0.235,0.259c0.1,0.055,0.302,0.083,0.607,0.083V11h-2.765v-0.22h0.122c0.285,0,0.477-0.072,0.577-0.217
			c0.1-0.144,0.149-0.42,0.149-0.827V7.661c0-0.671-0.015-1.08-0.046-1.227c-0.03-0.146-0.077-0.246-0.14-0.299
			c-0.063-0.053-0.147-0.08-0.253-0.08c-0.114,0-0.25,0.031-0.409,0.091l-0.092-0.22l1.685-0.684h0.263V6.429z"/>
		<path style="fill:#0066FF;" d="M69.694,5.244v4.492c0,0.35,0.025,0.583,0.076,0.699c0.051,0.116,0.126,0.202,0.226,0.259
			s0.282,0.085,0.547,0.085V11h-2.717v-0.22c0.273,0,0.456-0.026,0.55-0.079c0.094-0.053,0.168-0.141,0.223-0.263
			s0.083-0.356,0.083-0.702V7.582c0-0.606-0.019-0.999-0.056-1.178c-0.028-0.13-0.073-0.221-0.134-0.272
			c-0.062-0.051-0.145-0.076-0.25-0.076c-0.114,0-0.253,0.031-0.416,0.091l-0.085-0.22l1.685-0.684H69.694z M69.188,2.321
			c0.171,0,0.316,0.06,0.437,0.18s0.181,0.266,0.181,0.437s-0.061,0.317-0.181,0.439S69.358,3.56,69.188,3.56
			s-0.317-0.061-0.439-0.183s-0.183-0.269-0.183-0.439s0.06-0.316,0.18-0.437S69.013,2.321,69.188,2.321z"/>
		<path style="fill:#0066FF;" d="M76.062,6.435c0.407-0.407,0.646-0.641,0.721-0.702c0.183-0.154,0.38-0.274,0.592-0.36
			c0.211-0.085,0.421-0.128,0.629-0.128c0.35,0,0.65,0.102,0.902,0.306c0.253,0.203,0.422,0.498,0.507,0.885
			c0.419-0.488,0.773-0.809,1.062-0.961c0.289-0.152,0.586-0.229,0.891-0.229c0.297,0,0.561,0.077,0.791,0.229
			c0.229,0.153,0.411,0.402,0.546,0.748c0.09,0.236,0.135,0.606,0.135,1.111v2.404c0,0.35,0.026,0.59,0.079,0.721
			c0.04,0.089,0.116,0.166,0.226,0.229c0.109,0.063,0.289,0.095,0.537,0.095V11H80.92v-0.22h0.116c0.24,0,0.427-0.047,0.562-0.141
			c0.094-0.065,0.16-0.168,0.201-0.311c0.017-0.069,0.024-0.267,0.024-0.592V7.332c0-0.456-0.055-0.777-0.165-0.965
			c-0.158-0.26-0.413-0.391-0.763-0.391c-0.216,0-0.433,0.054-0.65,0.162s-0.48,0.308-0.79,0.601l-0.013,0.067l0.013,0.263v2.667
			c0,0.383,0.021,0.621,0.064,0.714c0.042,0.094,0.123,0.172,0.241,0.235c0.117,0.063,0.319,0.095,0.604,0.095V11h-2.826v-0.22
			c0.31,0,0.522-0.037,0.639-0.11c0.115-0.073,0.196-0.183,0.24-0.33c0.021-0.069,0.031-0.271,0.031-0.604V7.332
			c0-0.456-0.067-0.784-0.201-0.983c-0.18-0.26-0.43-0.391-0.751-0.391c-0.22,0-0.438,0.059-0.653,0.177
			c-0.338,0.179-0.598,0.38-0.781,0.604v2.997c0,0.366,0.025,0.604,0.076,0.714s0.126,0.192,0.226,0.247
			c0.1,0.055,0.303,0.083,0.607,0.083V11h-2.765v-0.22c0.256,0,0.436-0.027,0.537-0.083c0.102-0.055,0.179-0.142,0.232-0.262
			c0.053-0.12,0.079-0.353,0.079-0.699V7.601c0-0.615-0.019-1.011-0.056-1.19c-0.028-0.134-0.072-0.227-0.134-0.278
			c-0.062-0.051-0.145-0.076-0.25-0.076c-0.114,0-0.251,0.031-0.409,0.091l-0.092-0.22l1.685-0.684h0.263V6.435z"/>
		<path style="fill:#0066FF;" d="M85.902,5.244v4.492c0,0.35,0.025,0.583,0.076,0.699c0.051,0.116,0.126,0.202,0.226,0.259
			s0.282,0.085,0.547,0.085V11h-2.717v-0.22c0.273,0,0.456-0.026,0.55-0.079c0.094-0.053,0.168-0.141,0.223-0.263
			s0.083-0.356,0.083-0.702V7.582c0-0.606-0.019-0.999-0.056-1.178c-0.028-0.13-0.073-0.221-0.134-0.272
			c-0.062-0.051-0.145-0.076-0.25-0.076c-0.114,0-0.253,0.031-0.416,0.091l-0.085-0.22l1.685-0.684H85.902z M85.396,2.321
			c0.171,0,0.316,0.06,0.437,0.18s0.181,0.266,0.181,0.437s-0.061,0.317-0.181,0.439S85.566,3.56,85.396,3.56
			s-0.317-0.061-0.439-0.183s-0.183-0.269-0.183-0.439s0.06-0.316,0.18-0.437S85.221,2.321,85.396,2.321z"/>
		<path style="fill:#0066FF;" d="M89.114,6.429c0.655-0.79,1.279-1.185,1.874-1.185c0.305,0,0.567,0.077,0.787,0.229
			c0.22,0.153,0.395,0.404,0.524,0.754c0.09,0.244,0.135,0.619,0.135,1.123v2.386c0,0.354,0.028,0.594,0.085,0.721
			c0.045,0.102,0.117,0.181,0.217,0.238s0.284,0.085,0.553,0.085V11h-2.766v-0.22h0.116c0.261,0,0.442-0.04,0.547-0.119
			c0.104-0.079,0.176-0.196,0.216-0.351c0.017-0.062,0.025-0.252,0.025-0.574V7.448c0-0.509-0.066-0.878-0.199-1.108
			c-0.132-0.229-0.354-0.345-0.668-0.345c-0.484,0-0.967,0.265-1.446,0.793v2.948c0,0.379,0.022,0.613,0.067,0.702
			c0.057,0.118,0.135,0.205,0.234,0.259c0.1,0.055,0.303,0.083,0.607,0.083V11h-2.765v-0.22h0.122c0.284,0,0.477-0.072,0.576-0.217
			c0.1-0.144,0.15-0.42,0.15-0.827V7.661c0-0.671-0.016-1.08-0.046-1.227c-0.031-0.146-0.078-0.246-0.141-0.299
			c-0.063-0.053-0.147-0.08-0.253-0.08c-0.114,0-0.251,0.031-0.409,0.091l-0.092-0.22l1.685-0.684h0.263V6.429z"/>
		<path style="fill:#0066FF;" d="M98.636,5.409v3.388c0,0.646,0.015,1.042,0.046,1.187c0.03,0.145,0.079,0.245,0.146,0.302
			c0.066,0.057,0.146,0.085,0.234,0.085c0.126,0,0.269-0.034,0.428-0.104l0.085,0.214l-1.672,0.689h-0.274V9.987
			c-0.48,0.521-0.847,0.848-1.1,0.983c-0.252,0.134-0.519,0.201-0.799,0.201c-0.313,0-0.585-0.091-0.815-0.271
			c-0.229-0.181-0.39-0.414-0.479-0.699c-0.09-0.285-0.135-0.688-0.135-1.208V6.496c0-0.265-0.028-0.448-0.085-0.549
			c-0.058-0.102-0.142-0.18-0.254-0.235c-0.111-0.055-0.314-0.081-0.607-0.077V5.409h1.96V9.15c0,0.521,0.09,0.863,0.271,1.025
			c0.181,0.163,0.399,0.244,0.656,0.244c0.175,0,0.373-0.055,0.595-0.165s0.485-0.319,0.791-0.628V6.459
			c0-0.317-0.059-0.532-0.175-0.644c-0.115-0.112-0.356-0.172-0.723-0.18V5.409H98.636z"/>
		<path style="fill:#0066FF;" d="M101.607,3.572v1.837h1.307v0.427h-1.307v3.625c0,0.362,0.053,0.606,0.156,0.732
			s0.237,0.189,0.399,0.189c0.135,0,0.265-0.042,0.391-0.125c0.126-0.083,0.224-0.207,0.293-0.369h0.238
			c-0.143,0.399-0.344,0.699-0.604,0.9c-0.26,0.201-0.528,0.302-0.806,0.302c-0.187,0-0.37-0.052-0.549-0.156
			c-0.18-0.104-0.312-0.252-0.397-0.446c-0.085-0.193-0.128-0.491-0.128-0.894v-3.76h-0.885V5.635
			c0.224-0.089,0.452-0.241,0.687-0.455c0.234-0.213,0.442-0.467,0.626-0.76c0.094-0.155,0.224-0.438,0.391-0.848H101.607z"/>
		<path style="fill:#0066FF;" d="M104.435,7.515c-0.004,0.83,0.198,1.481,0.604,1.953c0.407,0.472,0.886,0.708,1.435,0.708
			c0.366,0,0.685-0.101,0.955-0.302c0.271-0.202,0.498-0.546,0.681-1.035l0.189,0.122c-0.086,0.558-0.334,1.065-0.745,1.523
			c-0.411,0.458-0.926,0.687-1.544,0.687c-0.671,0-1.246-0.261-1.725-0.784c-0.478-0.523-0.717-1.226-0.717-2.109
			c0-0.956,0.245-1.702,0.735-2.237s1.105-0.803,1.847-0.803c0.626,0,1.142,0.207,1.544,0.62s0.604,0.965,0.604,1.657H104.435z
			 M104.435,7.161h2.588c-0.02-0.358-0.062-0.61-0.128-0.757c-0.102-0.228-0.253-0.407-0.454-0.537
			c-0.202-0.13-0.412-0.195-0.632-0.195c-0.338,0-0.641,0.131-0.906,0.394C104.636,6.328,104.479,6.693,104.435,7.161z"/>
		<path style="fill:#0066FF;" d="M110.604,5.244v1.258c0.468-0.838,0.948-1.258,1.44-1.258c0.224,0,0.409,0.068,0.556,0.205
			c0.146,0.137,0.22,0.294,0.22,0.473c0,0.159-0.053,0.293-0.159,0.403c-0.105,0.11-0.231,0.165-0.378,0.165
			c-0.143,0-0.303-0.07-0.479-0.21c-0.177-0.14-0.308-0.21-0.394-0.21c-0.073,0-0.152,0.041-0.238,0.122
			c-0.183,0.167-0.372,0.441-0.567,0.824v2.679c0,0.309,0.039,0.543,0.116,0.702c0.053,0.11,0.146,0.202,0.28,0.275
			c0.135,0.073,0.328,0.11,0.58,0.11V11h-2.862v-0.22c0.284,0,0.496-0.045,0.635-0.134c0.102-0.065,0.173-0.169,0.213-0.311
			c0.021-0.069,0.031-0.267,0.031-0.592V7.576c0-0.651-0.014-1.039-0.04-1.163c-0.026-0.124-0.075-0.214-0.146-0.271
			s-0.159-0.085-0.266-0.085c-0.126,0-0.269,0.031-0.427,0.091l-0.062-0.22l1.69-0.684H110.604z"/>
	</g>
	<g>
		<path style="fill:#0066FF;" d="M12.061,22.285l2.014-0.982h0.202v6.988c0,0.464,0.019,0.753,0.058,0.867
			c0.039,0.113,0.119,0.201,0.241,0.262c0.122,0.062,0.37,0.096,0.745,0.104v0.226h-3.113v-0.226
			c0.391-0.009,0.643-0.042,0.757-0.101c0.114-0.06,0.193-0.139,0.238-0.238c0.044-0.1,0.067-0.397,0.067-0.895v-4.468
			c0-0.602-0.021-0.988-0.061-1.159c-0.028-0.13-0.081-0.226-0.156-0.287s-0.166-0.092-0.271-0.092c-0.15,0-0.36,0.063-0.628,0.189
			L12.061,22.285z"/>
		<path style="fill:#0066FF;" d="M22.662,26.698v0.866h-1.11v2.186h-1.007v-2.186h-3.503v-0.781l3.839-5.48h0.672v5.396H22.662z
			 M20.544,26.698v-4.107l-2.905,4.107H20.544z"/>
		<path style="fill:#0066FF;" d="M28.912,26.698v0.866h-1.11v2.186h-1.007v-2.186h-3.503v-0.781l3.839-5.48h0.672v5.396H28.912z
			 M26.794,26.698v-4.107l-2.905,4.107H26.794z"/>
		<path style="fill:#0066FF;" d="M29.83,31.831v-0.269c0.419-0.138,0.744-0.353,0.974-0.644c0.229-0.291,0.345-0.6,0.345-0.925
			c0-0.077-0.018-0.143-0.055-0.195c-0.028-0.037-0.057-0.055-0.085-0.055c-0.045,0-0.143,0.04-0.293,0.122
			c-0.073,0.036-0.151,0.055-0.232,0.055c-0.199,0-0.358-0.059-0.476-0.177c-0.118-0.118-0.177-0.281-0.177-0.488
			c0-0.199,0.076-0.37,0.229-0.513c0.152-0.143,0.339-0.214,0.559-0.214c0.269,0,0.507,0.117,0.717,0.351
			c0.209,0.234,0.314,0.545,0.314,0.931c0,0.42-0.146,0.81-0.437,1.169C30.921,31.34,30.46,31.624,29.83,31.831z"/>
		<path style="fill:#0066FF;" d="M34.105,29.921v-0.226c0.529-0.009,1.021-0.132,1.477-0.369c0.456-0.238,0.896-0.654,1.321-1.248
			c0.425-0.595,0.721-1.248,0.888-1.96c-0.639,0.411-1.217,0.616-1.733,0.616c-0.582,0-1.08-0.225-1.495-0.674
			c-0.415-0.45-0.623-1.047-0.623-1.792c0-0.724,0.208-1.369,0.623-1.935c0.5-0.688,1.153-1.031,1.959-1.031
			c0.68,0,1.261,0.281,1.746,0.842c0.594,0.696,0.891,1.554,0.891,2.576c0,0.919-0.226,1.777-0.678,2.572
			c-0.451,0.796-1.08,1.456-1.886,1.98c-0.655,0.432-1.369,0.647-2.143,0.647H34.105z M37.889,25.667
			c0.073-0.529,0.11-0.952,0.11-1.27c0-0.395-0.067-0.821-0.202-1.279c-0.134-0.458-0.324-0.809-0.57-1.053
			c-0.247-0.244-0.526-0.366-0.839-0.366c-0.362,0-0.68,0.163-0.952,0.488c-0.272,0.326-0.409,0.81-0.409,1.453
			c0,0.858,0.181,1.53,0.543,2.014c0.265,0.35,0.59,0.525,0.977,0.525c0.187,0,0.409-0.045,0.665-0.135
			C37.468,25.956,37.694,25.83,37.889,25.667z"/>
		<path style="fill:#0066FF;" d="M40.147,25.661c0-0.944,0.143-1.757,0.427-2.438c0.285-0.681,0.663-1.189,1.135-1.523
			c0.366-0.264,0.745-0.396,1.135-0.396c0.635,0,1.205,0.323,1.709,0.971c0.631,0.801,0.946,1.888,0.946,3.259
			c0,0.96-0.139,1.776-0.415,2.448c-0.277,0.671-0.63,1.158-1.059,1.461c-0.43,0.304-0.843,0.455-1.242,0.455
			c-0.79,0-1.447-0.466-1.971-1.397C40.369,27.714,40.147,26.768,40.147,25.661z M41.344,25.813c0,1.139,0.14,2.069,0.421,2.789
			c0.231,0.606,0.578,0.909,1.037,0.909c0.22,0,0.448-0.099,0.684-0.296c0.236-0.197,0.415-0.528,0.537-0.991
			c0.188-0.7,0.281-1.688,0.281-2.961c0-0.944-0.098-1.731-0.293-2.362c-0.146-0.468-0.336-0.799-0.568-0.995
			c-0.167-0.135-0.368-0.202-0.604-0.202c-0.277,0-0.523,0.124-0.739,0.373c-0.293,0.337-0.492,0.869-0.598,1.593
			S41.344,25.109,41.344,25.813z"/>
		<path style="fill:#0066FF;" d="M51.503,21.071v5.566l1.422-1.3c0.301-0.276,0.476-0.451,0.525-0.524
			c0.033-0.049,0.049-0.098,0.049-0.146c0-0.082-0.034-0.152-0.101-0.211c-0.067-0.059-0.178-0.092-0.333-0.101v-0.195h2.429v0.195
			c-0.333,0.008-0.611,0.059-0.833,0.152c-0.222,0.094-0.465,0.261-0.729,0.501l-1.434,1.324l1.434,1.812
			c0.399,0.501,0.667,0.818,0.806,0.952c0.195,0.191,0.366,0.315,0.513,0.372c0.102,0.041,0.279,0.062,0.531,0.062v0.22h-2.716
			v-0.22c0.154-0.004,0.259-0.027,0.314-0.07c0.055-0.043,0.083-0.103,0.083-0.18c0-0.094-0.082-0.244-0.244-0.452l-1.715-2.191
			v1.855c0,0.362,0.025,0.601,0.076,0.715c0.051,0.113,0.123,0.195,0.217,0.244c0.093,0.049,0.297,0.075,0.61,0.079v0.22h-2.845
			v-0.22c0.285,0,0.499-0.034,0.641-0.104c0.085-0.045,0.15-0.114,0.195-0.208c0.061-0.134,0.091-0.366,0.091-0.695v-5.091
			c0-0.646-0.014-1.042-0.042-1.187c-0.028-0.144-0.075-0.244-0.14-0.299c-0.065-0.055-0.151-0.083-0.257-0.083
			c-0.085,0-0.213,0.035-0.384,0.104l-0.104-0.213l1.66-0.684H51.503z"/>
		<path style="fill:#0066FF;" d="M57.734,23.994v1.258c0.468-0.838,0.948-1.258,1.44-1.258c0.224,0,0.409,0.068,0.556,0.205
			c0.146,0.137,0.22,0.294,0.22,0.473c0,0.159-0.053,0.293-0.159,0.403c-0.105,0.11-0.231,0.165-0.378,0.165
			c-0.143,0-0.302-0.07-0.479-0.21c-0.177-0.14-0.308-0.21-0.394-0.21c-0.073,0-0.152,0.041-0.238,0.122
			c-0.183,0.167-0.372,0.441-0.567,0.824v2.679c0,0.31,0.039,0.544,0.116,0.702c0.053,0.11,0.146,0.202,0.28,0.274
			c0.135,0.074,0.328,0.11,0.58,0.11v0.22h-2.862v-0.22c0.285,0,0.496-0.045,0.635-0.134c0.102-0.065,0.173-0.169,0.213-0.312
			c0.021-0.069,0.031-0.267,0.031-0.593v-2.166c0-0.651-0.014-1.039-0.04-1.163c-0.026-0.124-0.075-0.214-0.146-0.271
			s-0.16-0.085-0.266-0.085c-0.126,0-0.269,0.031-0.427,0.091l-0.062-0.22l1.691-0.684H57.734z"/>
	</g>
	<g>
		<path style="fill:#0066FF;" d="M80.458,36.292l-0.58,1.593h-4.883v-0.226c1.437-1.311,2.447-2.381,3.033-3.211
			s0.879-1.589,0.879-2.276c0-0.525-0.16-0.956-0.481-1.294c-0.322-0.338-0.706-0.507-1.154-0.507c-0.406,0-0.771,0.119-1.096,0.357
			c-0.323,0.238-0.562,0.587-0.717,1.047h-0.226c0.102-0.753,0.363-1.331,0.784-1.733c0.421-0.403,0.947-0.604,1.578-0.604
			c0.671,0,1.231,0.216,1.681,0.646c0.45,0.432,0.675,0.94,0.675,1.526c0,0.419-0.098,0.838-0.293,1.257
			c-0.301,0.66-0.789,1.357-1.465,2.094c-1.014,1.107-1.646,1.774-1.898,2.002h2.161c0.439,0,0.747-0.016,0.925-0.049
			c0.177-0.032,0.336-0.099,0.479-0.198s0.267-0.241,0.373-0.424H80.458z"/>
		<path style="fill:#0066FF;" d="M82.441,30.42l2.014-0.982h0.202v6.988c0,0.464,0.019,0.753,0.058,0.867
			c0.039,0.113,0.119,0.201,0.241,0.262c0.122,0.062,0.37,0.096,0.745,0.104v0.226h-3.113v-0.226
			c0.391-0.009,0.643-0.042,0.757-0.101c0.114-0.06,0.193-0.139,0.238-0.238s0.067-0.397,0.067-0.895v-4.468
			c0-0.602-0.021-0.988-0.062-1.159c-0.028-0.131-0.08-0.227-0.155-0.287c-0.076-0.061-0.166-0.092-0.271-0.092
			c-0.151,0-0.36,0.063-0.629,0.189L82.441,30.42z"/>
		<path style="fill:#0066FF;" d="M87.678,33.795c0-0.943,0.143-1.756,0.428-2.438s0.663-1.189,1.135-1.523
			c0.367-0.265,0.745-0.396,1.136-0.396c0.635,0,1.204,0.323,1.709,0.971c0.631,0.802,0.946,1.888,0.946,3.259
			c0,0.961-0.139,1.776-0.415,2.448c-0.277,0.671-0.63,1.158-1.06,1.461c-0.429,0.304-0.843,0.455-1.242,0.455
			c-0.789,0-1.446-0.466-1.971-1.397C87.9,35.849,87.678,34.902,87.678,33.795z M88.875,33.948c0,1.139,0.14,2.069,0.421,2.789
			c0.231,0.606,0.577,0.909,1.037,0.909c0.22,0,0.448-0.099,0.684-0.296c0.236-0.197,0.415-0.528,0.537-0.991
			c0.188-0.7,0.281-1.688,0.281-2.961c0-0.943-0.098-1.731-0.293-2.361c-0.146-0.469-0.336-0.8-0.567-0.995
			c-0.167-0.135-0.369-0.202-0.604-0.202c-0.277,0-0.523,0.125-0.739,0.373c-0.293,0.338-0.492,0.868-0.598,1.593
			S88.875,33.244,88.875,33.948z"/>
	</g>
	<g>
		<path style="fill:#0066FF;" d="M17.805,43.453c0-0.943,0.143-1.756,0.427-2.438s0.663-1.189,1.135-1.523
			c0.366-0.265,0.745-0.396,1.135-0.396c0.635,0,1.205,0.323,1.709,0.971c0.631,0.802,0.946,1.888,0.946,3.259
			c0,0.961-0.139,1.776-0.415,2.448c-0.277,0.671-0.63,1.158-1.059,1.461c-0.43,0.304-0.843,0.455-1.242,0.455
			c-0.79,0-1.447-0.466-1.971-1.397C18.027,45.507,17.805,44.561,17.805,43.453z M19.001,43.606c0,1.139,0.14,2.069,0.421,2.789
			c0.231,0.606,0.578,0.909,1.037,0.909c0.22,0,0.448-0.099,0.684-0.296c0.236-0.197,0.415-0.528,0.537-0.991
			c0.188-0.7,0.281-1.688,0.281-2.961c0-0.943-0.098-1.731-0.293-2.361c-0.146-0.469-0.336-0.8-0.568-0.995
			c-0.167-0.135-0.368-0.202-0.604-0.202c-0.277,0-0.523,0.125-0.739,0.373c-0.293,0.338-0.492,0.868-0.598,1.593
			S19.001,42.902,19.001,43.606z"/>
		<path style="fill:#0066FF;" d="M24.087,49.624v-0.269c0.419-0.138,0.744-0.353,0.974-0.644c0.229-0.291,0.345-0.6,0.345-0.925
			c0-0.077-0.018-0.143-0.055-0.195c-0.028-0.037-0.057-0.055-0.085-0.055c-0.045,0-0.143,0.04-0.293,0.122
			c-0.073,0.036-0.151,0.055-0.232,0.055c-0.199,0-0.358-0.059-0.476-0.177c-0.118-0.118-0.177-0.281-0.177-0.488
			c0-0.199,0.076-0.37,0.229-0.513c0.152-0.143,0.339-0.214,0.559-0.214c0.269,0,0.507,0.117,0.717,0.351
			c0.209,0.234,0.314,0.545,0.314,0.931c0,0.42-0.146,0.81-0.437,1.169C25.179,49.133,24.718,49.417,24.087,49.624z"/>
		<path style="fill:#0066FF;" d="M33.506,39.096v0.226c-0.537,0.053-0.976,0.16-1.315,0.32c-0.34,0.161-0.675,0.406-1.007,0.735
			c-0.332,0.33-0.606,0.697-0.824,1.103c-0.218,0.404-0.4,0.886-0.546,1.443c0.586-0.403,1.174-0.604,1.764-0.604
			c0.565,0,1.056,0.228,1.471,0.684s0.622,1.042,0.622,1.758c0,0.691-0.209,1.322-0.628,1.893c-0.504,0.691-1.172,1.037-2.002,1.037
			c-0.565,0-1.046-0.188-1.44-0.562c-0.773-0.729-1.16-1.673-1.16-2.832c0-0.74,0.148-1.444,0.445-2.112
			c0.297-0.667,0.721-1.259,1.273-1.775c0.551-0.517,1.079-0.865,1.583-1.044c0.505-0.179,0.975-0.269,1.41-0.269H33.506z
			 M29.71,43.368c-0.073,0.55-0.11,0.993-0.11,1.331c0,0.391,0.072,0.814,0.217,1.272c0.144,0.457,0.359,0.82,0.644,1.089
			c0.207,0.191,0.459,0.287,0.757,0.287c0.354,0,0.67-0.167,0.949-0.5c0.279-0.334,0.418-0.811,0.418-1.429
			c0-0.696-0.139-1.298-0.415-1.807c-0.277-0.509-0.669-0.763-1.178-0.763c-0.155,0-0.32,0.032-0.498,0.098
			C30.317,43.012,30.056,43.152,29.71,43.368z"/>
		<path style="fill:#0066FF;" d="M34.812,47.714v-0.226c0.529-0.009,1.021-0.132,1.477-0.369c0.456-0.238,0.896-0.654,1.321-1.248
			c0.425-0.595,0.721-1.248,0.888-1.96c-0.639,0.411-1.217,0.616-1.733,0.616c-0.582,0-1.08-0.225-1.495-0.674
			s-0.623-1.047-0.623-1.791c0-0.725,0.208-1.37,0.623-1.936c0.5-0.688,1.153-1.031,1.959-1.031c0.68,0,1.261,0.281,1.746,0.842
			c0.594,0.696,0.891,1.555,0.891,2.576c0,0.92-0.226,1.777-0.678,2.572c-0.451,0.796-1.08,1.456-1.886,1.98
			c-0.655,0.432-1.369,0.647-2.143,0.647H34.812z M38.597,43.46c0.073-0.529,0.11-0.952,0.11-1.27c0-0.395-0.067-0.821-0.202-1.279
			c-0.134-0.457-0.324-0.809-0.57-1.053c-0.247-0.244-0.526-0.366-0.839-0.366c-0.362,0-0.68,0.163-0.952,0.488
			c-0.272,0.326-0.409,0.81-0.409,1.453c0,0.858,0.181,1.529,0.543,2.014c0.265,0.351,0.59,0.525,0.977,0.525
			c0.187,0,0.409-0.045,0.665-0.135C38.176,43.749,38.401,43.622,38.597,43.46z"/>
		<path style="fill:#0066FF;" d="M45.961,38.863v5.566l1.422-1.3c0.301-0.276,0.476-0.451,0.525-0.524
			c0.033-0.049,0.049-0.098,0.049-0.146c0-0.082-0.034-0.151-0.101-0.211c-0.067-0.059-0.178-0.093-0.333-0.101v-0.195h2.429v0.195
			c-0.333,0.008-0.611,0.059-0.833,0.152s-0.465,0.261-0.729,0.501l-1.434,1.324l1.434,1.812c0.399,0.501,0.667,0.818,0.806,0.952
			c0.195,0.191,0.366,0.315,0.513,0.372c0.102,0.041,0.279,0.062,0.531,0.062v0.22h-2.716v-0.22c0.154-0.004,0.259-0.027,0.314-0.07
			c0.055-0.043,0.083-0.103,0.083-0.18c0-0.094-0.082-0.244-0.244-0.452l-1.715-2.191v1.855c0,0.362,0.025,0.601,0.076,0.715
			c0.051,0.113,0.123,0.195,0.217,0.244c0.093,0.049,0.297,0.075,0.61,0.079v0.22H44.02v-0.22c0.285,0,0.499-0.034,0.641-0.104
			c0.085-0.045,0.15-0.114,0.195-0.208c0.061-0.134,0.091-0.366,0.091-0.695v-5.091c0-0.646-0.014-1.042-0.042-1.187
			s-0.075-0.244-0.14-0.3c-0.065-0.055-0.151-0.082-0.257-0.082c-0.085,0-0.213,0.034-0.384,0.104l-0.104-0.214l1.66-0.684H45.961z"
			/>
		<path style="fill:#0066FF;" d="M52.192,41.787v1.258c0.468-0.839,0.948-1.258,1.44-1.258c0.224,0,0.409,0.068,0.556,0.205
			c0.146,0.136,0.22,0.294,0.22,0.473c0,0.158-0.053,0.293-0.159,0.402c-0.105,0.11-0.231,0.165-0.378,0.165
			c-0.143,0-0.302-0.07-0.479-0.21c-0.177-0.141-0.308-0.211-0.394-0.211c-0.073,0-0.152,0.041-0.238,0.122
			c-0.183,0.167-0.372,0.441-0.567,0.824v2.679c0,0.31,0.039,0.544,0.116,0.702c0.053,0.11,0.146,0.202,0.28,0.274
			c0.135,0.074,0.328,0.11,0.58,0.11v0.22h-2.862v-0.22c0.285,0,0.496-0.045,0.635-0.134c0.102-0.065,0.173-0.169,0.213-0.312
			c0.021-0.069,0.031-0.267,0.031-0.593v-2.166c0-0.651-0.014-1.039-0.04-1.163s-0.075-0.215-0.146-0.271s-0.16-0.085-0.266-0.085
			c-0.126,0-0.269,0.03-0.427,0.091l-0.062-0.22l1.691-0.684H52.192z"/>
	</g>
	<g>
		<path style="fill:#0066FF;" d="M116.485,6.367h6.409v0.592h-6.409V6.367z M116.485,8.644h6.409v0.604h-6.409V8.644z"/>
	</g>
	<g>
		<path style="fill:#0066FF;" d="M0.821,33.252H7.23v0.592H0.821V33.252z M0.821,35.529H7.23v0.604H0.821V35.529z"/>
		<path style="fill:#0066FF;" d="M64.569,33.252h6.409v0.592h-6.409V33.252z M64.569,35.529h6.409v0.604h-6.409V35.529z"/>
	</g>
</g>
<g id="theGroup">
</g>
</svg>
