<?xml version="1.0" encoding="iso-8859-1"?>
<!-- Generator: Adobe Illustrator 16.0.0, SVG Export Plug-In . SVG Version: 6.00 Build 0)  -->
<!DOCTYPE svg PUBLIC "-//W3C//DTD SVG 1.1//EN" "http://www.w3.org/Graphics/SVG/1.1/DTD/svg11.dtd">
<svg version="1.1" id="Lager_1" xmlns="http://www.w3.org/2000/svg" xmlns:xlink="http://www.w3.org/1999/xlink" x="0px" y="0px"
	 width="167.965px" height="32.044px" viewBox="0 0 167.965 32.044" style="enable-background:new 0 0 167.965 32.044;"
	 xml:space="preserve">
<g>
	
		<line style="fill:none;stroke:#0066FF;stroke-width:0.5;stroke-linecap:square;stroke-miterlimit:10;" x1="0.25" y1="15.242" x2="7.672" y2="15.242"/>
	
		<line style="fill:none;stroke:#0066FF;stroke-width:0.5;stroke-linecap:square;stroke-miterlimit:10;" x1="56.383" y1="15.242" x2="63.805" y2="15.242"/>
	
		<line style="fill:none;stroke:#0066FF;stroke-width:0.5;stroke-linecap:square;stroke-miterlimit:10;" x1="104.859" y1="15.242" x2="123.414" y2="15.242"/>
	<g>
		<path style="fill:#0066FF;" d="M1.666,3.687C1.902,3.129,2.2,2.699,2.56,2.396c0.36-0.303,0.809-0.454,1.346-0.454
			c0.663,0,1.172,0.216,1.525,0.646C5.7,2.909,5.835,3.254,5.835,3.62c0,0.602-0.379,1.225-1.136,1.867
			c0.509,0.199,0.894,0.484,1.154,0.854s0.391,0.806,0.391,1.307c0,0.716-0.228,1.336-0.684,1.861
			c-0.594,0.684-1.455,1.025-2.582,1.025c-0.558,0-0.937-0.069-1.139-0.208c-0.201-0.138-0.302-0.286-0.302-0.445
			c0-0.118,0.047-0.222,0.143-0.312c0.096-0.089,0.21-0.134,0.345-0.134c0.102,0,0.205,0.016,0.311,0.049
			c0.069,0.021,0.226,0.095,0.47,0.223S3.22,9.912,3.314,9.937c0.15,0.045,0.311,0.067,0.482,0.067c0.415,0,0.776-0.161,1.083-0.482
			S5.34,8.82,5.34,8.381c0-0.322-0.071-0.635-0.213-0.94c-0.106-0.228-0.222-0.4-0.348-0.519c-0.175-0.163-0.415-0.311-0.72-0.442
			C3.753,6.347,3.442,6.281,3.125,6.281H2.93V6.098C3.251,6.057,3.573,5.941,3.897,5.75C4.22,5.559,4.455,5.329,4.602,5.061
			s0.22-0.564,0.22-0.886c0-0.419-0.131-0.758-0.394-1.016C4.166,2.9,3.839,2.771,3.448,2.771c-0.631,0-1.158,0.338-1.581,1.013
			L1.666,3.687z"/>
		<path style="fill:#0066FF;" d="M57.791,3.687c0.236-0.558,0.534-0.987,0.894-1.291c0.36-0.303,0.809-0.454,1.346-0.454
			c0.663,0,1.172,0.216,1.525,0.646c0.269,0.321,0.403,0.666,0.403,1.032c0,0.602-0.379,1.225-1.136,1.867
			c0.509,0.199,0.894,0.484,1.154,0.854s0.391,0.806,0.391,1.307c0,0.716-0.228,1.336-0.684,1.861
			c-0.594,0.684-1.455,1.025-2.582,1.025c-0.558,0-0.937-0.069-1.139-0.208c-0.201-0.138-0.302-0.286-0.302-0.445
			c0-0.118,0.047-0.222,0.143-0.312c0.096-0.089,0.21-0.134,0.345-0.134c0.102,0,0.205,0.016,0.311,0.049
			c0.069,0.021,0.226,0.095,0.47,0.223s0.413,0.204,0.506,0.229c0.15,0.045,0.311,0.067,0.482,0.067
			c0.415,0,0.776-0.161,1.083-0.482s0.461-0.701,0.461-1.141c0-0.322-0.071-0.635-0.213-0.94c-0.106-0.228-0.222-0.4-0.348-0.519
			c-0.175-0.163-0.415-0.311-0.72-0.442c-0.305-0.133-0.616-0.198-0.934-0.198h-0.195V6.098c0.321-0.041,0.644-0.156,0.967-0.348
			c0.323-0.191,0.558-0.421,0.705-0.689s0.22-0.564,0.22-0.886c0-0.419-0.131-0.758-0.394-1.016
			c-0.262-0.259-0.589-0.388-0.979-0.388c-0.631,0-1.158,0.338-1.581,1.013L57.791,3.687z"/>
		<path style="fill:#0066FF;" d="M105.721,2.924l2.014-0.982h0.202V8.93c0,0.464,0.019,0.753,0.058,0.867
			c0.039,0.113,0.119,0.201,0.241,0.262c0.122,0.062,0.37,0.096,0.745,0.104v0.226h-3.113v-0.226
			c0.391-0.009,0.643-0.042,0.757-0.102c0.114-0.059,0.193-0.138,0.238-0.237s0.067-0.398,0.067-0.895V4.462
			c0-0.603-0.021-0.988-0.062-1.159c-0.028-0.131-0.08-0.227-0.155-0.287c-0.076-0.062-0.166-0.092-0.271-0.092
			c-0.151,0-0.36,0.063-0.629,0.189L105.721,2.924z"/>
		<path style="fill:#0066FF;" d="M112.904,6.22c-0.655-0.537-1.077-0.969-1.267-1.294c-0.188-0.325-0.283-0.663-0.283-1.013
			c0-0.537,0.207-1,0.622-1.389s0.967-0.583,1.654-0.583c0.667,0,1.204,0.181,1.611,0.543s0.61,0.775,0.61,1.239
			c0,0.309-0.11,0.624-0.329,0.946c-0.221,0.321-0.678,0.699-1.374,1.135c0.717,0.554,1.19,0.989,1.423,1.307
			c0.309,0.415,0.463,0.852,0.463,1.312c0,0.582-0.222,1.08-0.665,1.492c-0.443,0.413-1.025,0.62-1.745,0.62
			c-0.785,0-1.398-0.246-1.838-0.738c-0.35-0.396-0.524-0.826-0.524-1.294c0-0.366,0.123-0.729,0.369-1.09
			S112.303,6.655,112.904,6.22z M113.191,6.452c-0.338,0.284-0.588,0.595-0.751,0.931c-0.162,0.335-0.244,0.698-0.244,1.089
			c0,0.525,0.144,0.945,0.431,1.261s0.652,0.473,1.096,0.473c0.439,0,0.791-0.124,1.056-0.372s0.396-0.549,0.396-0.903
			c0-0.293-0.077-0.556-0.231-0.787C114.654,7.711,114.07,7.147,113.191,6.452z M113.863,5.566c0.488-0.439,0.797-0.786,0.928-1.04
			c0.13-0.255,0.195-0.543,0.195-0.864c0-0.427-0.12-0.762-0.36-1.004s-0.567-0.363-0.983-0.363c-0.414,0-0.752,0.12-1.013,0.36
			s-0.391,0.521-0.391,0.843c0,0.211,0.054,0.423,0.162,0.635c0.107,0.211,0.261,0.412,0.46,0.604L113.863,5.566z"/>
		<path style="fill:#0066FF;" d="M117.207,6.299c0-0.943,0.143-1.757,0.428-2.438c0.285-0.681,0.663-1.188,1.135-1.522
			c0.367-0.265,0.745-0.396,1.136-0.396c0.635,0,1.204,0.323,1.709,0.971c0.631,0.801,0.946,1.888,0.946,3.259
			c0,0.96-0.139,1.776-0.415,2.447c-0.277,0.672-0.63,1.159-1.06,1.462c-0.429,0.304-0.843,0.455-1.242,0.455
			c-0.789,0-1.446-0.466-1.971-1.397C117.43,8.352,117.207,7.406,117.207,6.299z M118.404,6.452c0,1.139,0.14,2.068,0.421,2.789
			c0.231,0.606,0.577,0.909,1.037,0.909c0.22,0,0.448-0.099,0.684-0.296c0.236-0.197,0.415-0.528,0.537-0.992
			c0.188-0.699,0.281-1.687,0.281-2.96c0-0.944-0.098-1.731-0.293-2.362c-0.146-0.468-0.336-0.799-0.567-0.994
			c-0.167-0.135-0.369-0.202-0.604-0.202c-0.277,0-0.523,0.124-0.739,0.373c-0.293,0.337-0.492,0.868-0.598,1.593
			C118.457,5.033,118.404,5.748,118.404,6.452z"/>
	</g>
	<g>
		<path style="fill:#0066FF;" d="M15.191,14.007c0.407-0.406,0.647-0.641,0.72-0.702c0.183-0.154,0.38-0.274,0.592-0.359
			c0.211-0.086,0.421-0.129,0.628-0.129c0.35,0,0.651,0.103,0.903,0.306s0.421,0.498,0.506,0.885
			c0.419-0.488,0.773-0.809,1.062-0.961c0.289-0.152,0.586-0.229,0.891-0.229c0.297,0,0.561,0.077,0.791,0.229
			s0.412,0.401,0.546,0.747c0.089,0.236,0.134,0.606,0.134,1.111v2.404c0,0.351,0.026,0.59,0.08,0.721
			c0.041,0.089,0.116,0.166,0.226,0.229c0.11,0.063,0.289,0.095,0.537,0.095v0.22H20.05v-0.22h0.116c0.24,0,0.427-0.047,0.562-0.141
			c0.093-0.064,0.161-0.169,0.201-0.312c0.016-0.068,0.024-0.266,0.024-0.592v-2.404c0-0.456-0.055-0.777-0.165-0.965
			c-0.158-0.26-0.413-0.391-0.763-0.391c-0.216,0-0.433,0.055-0.65,0.162c-0.218,0.108-0.481,0.309-0.791,0.602l-0.012,0.066
			l0.012,0.263v2.667c0,0.383,0.021,0.621,0.064,0.715c0.043,0.093,0.123,0.172,0.241,0.234c0.118,0.063,0.319,0.095,0.604,0.095
			v0.22h-2.826v-0.22c0.309,0,0.522-0.036,0.638-0.11c0.116-0.072,0.196-0.183,0.241-0.329c0.021-0.069,0.031-0.271,0.031-0.604
			v-2.404c0-0.456-0.067-0.783-0.202-0.982c-0.179-0.261-0.429-0.391-0.75-0.391c-0.22,0-0.438,0.059-0.653,0.177
			c-0.338,0.179-0.598,0.381-0.781,0.604v2.996c0,0.366,0.025,0.604,0.076,0.715c0.051,0.109,0.126,0.191,0.226,0.247
			c0.1,0.055,0.302,0.082,0.607,0.082v0.22h-2.765v-0.22c0.256,0,0.436-0.027,0.537-0.082c0.102-0.056,0.179-0.143,0.232-0.263
			s0.08-0.354,0.08-0.699v-2.136c0-0.614-0.019-1.011-0.055-1.19c-0.028-0.134-0.073-0.227-0.134-0.277s-0.145-0.076-0.25-0.076
			c-0.114,0-0.25,0.03-0.409,0.091l-0.092-0.22l1.685-0.684h0.263V14.007z"/>
		<path style="fill:#0066FF;" d="M25.033,12.816v4.492c0,0.351,0.025,0.583,0.076,0.699s0.126,0.202,0.226,0.26
			c0.1,0.057,0.282,0.085,0.546,0.085v0.22h-2.716v-0.22c0.272,0,0.456-0.026,0.549-0.079s0.168-0.141,0.223-0.263
			c0.055-0.122,0.083-0.356,0.083-0.702v-2.154c0-0.606-0.018-0.999-0.055-1.178c-0.028-0.13-0.073-0.221-0.134-0.271
			c-0.062-0.051-0.145-0.076-0.25-0.076c-0.114,0-0.252,0.03-0.415,0.091L23.08,13.5l1.685-0.684H25.033z M24.526,9.894
			c0.171,0,0.316,0.06,0.437,0.18s0.18,0.266,0.18,0.437s-0.06,0.317-0.18,0.439s-0.266,0.183-0.437,0.183s-0.317-0.061-0.439-0.183
			s-0.183-0.269-0.183-0.439s0.06-0.316,0.18-0.437S24.351,9.894,24.526,9.894z"/>
		<path style="fill:#0066FF;" d="M28.245,14.001c0.655-0.789,1.279-1.185,1.874-1.185c0.305,0,0.568,0.077,0.788,0.229
			S31.3,13.449,31.43,13.8c0.09,0.244,0.135,0.618,0.135,1.123v2.386c0,0.354,0.028,0.595,0.085,0.721
			c0.045,0.102,0.117,0.181,0.217,0.238c0.1,0.057,0.284,0.085,0.553,0.085v0.22h-2.765v-0.22h0.116c0.261,0,0.443-0.04,0.546-0.119
			c0.104-0.079,0.176-0.196,0.217-0.351c0.016-0.062,0.024-0.253,0.024-0.574v-2.288c0-0.509-0.066-0.878-0.198-1.108
			c-0.132-0.229-0.355-0.345-0.668-0.345c-0.484,0-0.966,0.265-1.446,0.794v2.947c0,0.379,0.022,0.612,0.067,0.702
			c0.057,0.118,0.135,0.204,0.235,0.26c0.1,0.055,0.302,0.082,0.607,0.082v0.22h-2.765v-0.22h0.122c0.285,0,0.477-0.072,0.577-0.217
			c0.1-0.145,0.149-0.42,0.149-0.827v-2.075c0-0.671-0.015-1.08-0.046-1.227c-0.03-0.146-0.077-0.246-0.14-0.299
			c-0.063-0.053-0.147-0.079-0.253-0.079c-0.114,0-0.25,0.03-0.409,0.091l-0.092-0.22l1.685-0.684h0.263V14.001z"/>
		<path style="fill:#0066FF;" d="M37.766,12.981v3.388c0,0.646,0.015,1.043,0.045,1.187c0.031,0.145,0.08,0.245,0.146,0.303
			c0.067,0.057,0.146,0.085,0.235,0.085c0.126,0,0.269-0.034,0.428-0.104l0.085,0.214l-1.672,0.689h-0.275v-1.185
			c-0.48,0.521-0.846,0.849-1.099,0.983c-0.252,0.134-0.519,0.201-0.799,0.201c-0.313,0-0.585-0.091-0.815-0.271
			c-0.23-0.181-0.39-0.414-0.479-0.699c-0.09-0.284-0.135-0.688-0.135-1.208v-2.496c0-0.265-0.028-0.448-0.085-0.55
			c-0.057-0.102-0.142-0.18-0.253-0.234c-0.112-0.056-0.314-0.081-0.607-0.077v-0.226h1.959v3.741c0,0.521,0.09,0.863,0.271,1.025
			c0.181,0.163,0.399,0.244,0.656,0.244c0.175,0,0.373-0.055,0.595-0.164c0.222-0.11,0.485-0.32,0.791-0.629v-3.168
			c0-0.317-0.058-0.531-0.174-0.644c-0.116-0.112-0.357-0.172-0.723-0.181v-0.226H37.766z"/>
		<path style="fill:#0066FF;" d="M40.738,11.145v1.837h1.306v0.428h-1.306v3.625c0,0.362,0.052,0.606,0.156,0.732
			c0.104,0.126,0.237,0.189,0.399,0.189c0.135,0,0.265-0.042,0.391-0.125c0.126-0.084,0.224-0.207,0.293-0.37h0.238
			c-0.143,0.399-0.344,0.699-0.604,0.9c-0.26,0.202-0.529,0.303-0.806,0.303c-0.187,0-0.37-0.052-0.549-0.156
			c-0.179-0.104-0.312-0.252-0.397-0.445s-0.128-0.491-0.128-0.895v-3.759h-0.885v-0.202c0.224-0.089,0.453-0.24,0.687-0.454
			s0.442-0.467,0.626-0.76c0.093-0.155,0.224-0.438,0.391-0.849H40.738z"/>
		<path style="fill:#0066FF;" d="M75.8,10.125v0.226c-0.537,0.054-0.976,0.16-1.315,0.321c-0.34,0.16-0.675,0.405-1.007,0.735
			c-0.332,0.329-0.606,0.696-0.824,1.102s-0.4,0.886-0.546,1.443c0.586-0.403,1.174-0.604,1.764-0.604
			c0.565,0,1.056,0.229,1.471,0.684c0.415,0.456,0.622,1.042,0.622,1.758c0,0.691-0.209,1.322-0.628,1.893
			c-0.504,0.691-1.172,1.037-2.002,1.037c-0.565,0-1.046-0.188-1.44-0.562c-0.773-0.729-1.16-1.673-1.16-2.832
			c0-0.74,0.148-1.444,0.445-2.111c0.297-0.668,0.721-1.26,1.273-1.776c0.551-0.517,1.079-0.864,1.583-1.044
			c0.505-0.179,0.975-0.269,1.41-0.269H75.8z M72.003,14.397c-0.073,0.55-0.11,0.993-0.11,1.331c0,0.391,0.072,0.814,0.217,1.272
			c0.144,0.457,0.359,0.82,0.644,1.089c0.207,0.191,0.459,0.287,0.757,0.287c0.354,0,0.67-0.167,0.949-0.5
			c0.279-0.334,0.418-0.811,0.418-1.429c0-0.695-0.139-1.298-0.415-1.807c-0.277-0.509-0.669-0.763-1.178-0.763
			c-0.155,0-0.32,0.032-0.498,0.098C72.611,14.042,72.349,14.182,72.003,14.397z"/>
		<path style="fill:#0066FF;" d="M76.898,14.483c0-0.944,0.143-1.757,0.427-2.438s0.663-1.189,1.135-1.523
			c0.366-0.264,0.745-0.396,1.135-0.396c0.635,0,1.205,0.323,1.709,0.971c0.631,0.802,0.946,1.888,0.946,3.259
			c0,0.961-0.139,1.776-0.415,2.448c-0.277,0.671-0.63,1.158-1.059,1.461c-0.43,0.304-0.843,0.455-1.242,0.455
			c-0.79,0-1.447-0.466-1.971-1.397C77.12,16.535,76.898,15.59,76.898,14.483z M78.095,14.636c0,1.14,0.14,2.069,0.421,2.789
			c0.231,0.606,0.578,0.909,1.037,0.909c0.22,0,0.448-0.099,0.684-0.296c0.236-0.197,0.415-0.528,0.537-0.991
			c0.188-0.7,0.281-1.687,0.281-2.961c0-0.943-0.098-1.73-0.293-2.361c-0.146-0.468-0.336-0.8-0.568-0.995
			c-0.167-0.135-0.368-0.201-0.604-0.201c-0.277,0-0.523,0.124-0.739,0.372c-0.293,0.338-0.492,0.869-0.598,1.593
			C78.147,13.218,78.095,13.932,78.095,14.636z"/>
		<path style="fill:#0066FF;" d="M90.213,12.816v1.904h-0.201c-0.155-0.598-0.354-1.005-0.596-1.221
			c-0.242-0.215-0.55-0.323-0.924-0.323c-0.285,0-0.516,0.075-0.69,0.226c-0.175,0.151-0.263,0.317-0.263,0.501
			c0,0.228,0.065,0.423,0.195,0.586c0.127,0.167,0.383,0.344,0.77,0.531l0.891,0.433c0.826,0.403,1.239,0.934,1.239,1.594
			c0,0.508-0.192,0.918-0.576,1.229c-0.385,0.312-0.815,0.467-1.291,0.467c-0.342,0-0.732-0.062-1.172-0.183
			c-0.135-0.041-0.244-0.062-0.33-0.062c-0.094,0-0.167,0.053-0.22,0.159h-0.201v-1.996h0.201c0.114,0.569,0.332,0.999,0.653,1.287
			c0.321,0.289,0.682,0.434,1.08,0.434c0.281,0,0.51-0.082,0.687-0.247c0.178-0.165,0.266-0.363,0.266-0.595
			c0-0.281-0.099-0.517-0.296-0.708s-0.591-0.434-1.181-0.727s-0.977-0.558-1.16-0.793c-0.183-0.232-0.274-0.525-0.274-0.879
			c0-0.46,0.157-0.845,0.473-1.154c0.315-0.309,0.724-0.464,1.224-0.464c0.221,0,0.486,0.047,0.8,0.141
			c0.208,0.062,0.346,0.092,0.415,0.092c0.065,0,0.116-0.015,0.152-0.043c0.037-0.028,0.08-0.092,0.129-0.189H90.213z"/>
		<path style="fill:#0066FF;" d="M132.865,12.816v1.904h-0.201c-0.155-0.598-0.354-1.005-0.596-1.221
			c-0.242-0.215-0.55-0.323-0.924-0.323c-0.285,0-0.516,0.075-0.69,0.226c-0.175,0.151-0.263,0.317-0.263,0.501
			c0,0.228,0.065,0.423,0.195,0.586c0.127,0.167,0.383,0.344,0.77,0.531l0.891,0.433c0.826,0.403,1.239,0.934,1.239,1.594
			c0,0.508-0.192,0.918-0.576,1.229c-0.385,0.312-0.815,0.467-1.291,0.467c-0.342,0-0.732-0.062-1.172-0.183
			c-0.135-0.041-0.244-0.062-0.33-0.062c-0.094,0-0.167,0.053-0.22,0.159h-0.201v-1.996h0.201c0.114,0.569,0.332,0.999,0.653,1.287
			c0.321,0.289,0.682,0.434,1.08,0.434c0.281,0,0.51-0.082,0.687-0.247c0.178-0.165,0.266-0.363,0.266-0.595
			c0-0.281-0.099-0.517-0.296-0.708s-0.591-0.434-1.181-0.727s-0.977-0.558-1.16-0.793c-0.183-0.232-0.274-0.525-0.274-0.879
			c0-0.46,0.157-0.845,0.473-1.154c0.315-0.309,0.724-0.464,1.224-0.464c0.221,0,0.486,0.047,0.8,0.141
			c0.208,0.062,0.346,0.092,0.415,0.092c0.065,0,0.116-0.015,0.152-0.043c0.037-0.028,0.08-0.092,0.129-0.189H132.865z"/>
		<path style="fill:#0066FF;" d="M153.104,15.521v0.866h-1.11v2.186h-1.007v-2.186h-3.504v-0.78l3.839-5.481h0.672v5.396H153.104z
			 M150.987,15.521v-4.107l-2.906,4.107H150.987z"/>
		<path style="fill:#0066FF;" d="M158.964,10.296l-0.476,1.038h-2.49l-0.544,1.11c1.079,0.159,1.934,0.56,2.564,1.202
			c0.541,0.554,0.812,1.205,0.812,1.953c0,0.436-0.089,0.838-0.266,1.209c-0.177,0.37-0.399,0.686-0.669,0.945
			c-0.268,0.261-0.567,0.471-0.896,0.629c-0.468,0.224-0.948,0.336-1.44,0.336c-0.497,0-0.857-0.085-1.084-0.253
			c-0.226-0.169-0.339-0.355-0.339-0.559c0-0.114,0.047-0.215,0.141-0.303c0.094-0.087,0.212-0.131,0.354-0.131
			c0.105,0,0.198,0.017,0.277,0.049s0.215,0.116,0.406,0.25c0.305,0.212,0.614,0.317,0.928,0.317c0.476,0,0.894-0.18,1.254-0.54
			s0.54-0.799,0.54-1.315c0-0.5-0.16-0.967-0.482-1.4c-0.321-0.434-0.765-0.768-1.33-1.004c-0.443-0.184-1.048-0.289-1.812-0.317
			l1.587-3.217H158.964z"/>
		<path style="fill:#0066FF;" d="M167.104,12.816v1.904h-0.201c-0.155-0.598-0.354-1.005-0.596-1.221
			c-0.242-0.215-0.55-0.323-0.924-0.323c-0.285,0-0.516,0.075-0.69,0.226c-0.175,0.151-0.263,0.317-0.263,0.501
			c0,0.228,0.065,0.423,0.195,0.586c0.127,0.167,0.383,0.344,0.77,0.531l0.891,0.433c0.826,0.403,1.239,0.934,1.239,1.594
			c0,0.508-0.192,0.918-0.576,1.229c-0.385,0.312-0.815,0.467-1.291,0.467c-0.342,0-0.732-0.062-1.172-0.183
			c-0.135-0.041-0.244-0.062-0.33-0.062c-0.094,0-0.167,0.053-0.22,0.159h-0.201v-1.996h0.201c0.114,0.569,0.332,0.999,0.653,1.287
			c0.321,0.289,0.682,0.434,1.08,0.434c0.281,0,0.51-0.082,0.687-0.247c0.178-0.165,0.266-0.363,0.266-0.595
			c0-0.281-0.099-0.517-0.296-0.708s-0.591-0.434-1.181-0.727s-0.977-0.558-1.16-0.793c-0.183-0.232-0.274-0.525-0.274-0.879
			c0-0.46,0.157-0.845,0.473-1.154c0.315-0.309,0.724-0.464,1.224-0.464c0.221,0,0.486,0.047,0.8,0.141
			c0.208,0.062,0.346,0.092,0.415,0.092c0.065,0,0.116-0.015,0.152-0.043c0.037-0.028,0.08-0.092,0.129-0.189H167.104z"/>
	</g>
	<g>
		<path style="fill:#0066FF;" d="M6.848,25.159v0.866h-1.11v2.186H4.73v-2.186H1.227v-0.781l3.839-5.48h0.672v5.396H6.848z
			 M4.73,25.159v-4.107l-2.905,4.107H4.73z"/>
		<path style="fill:#0066FF;" d="M62.973,25.159v0.866h-1.11v2.186h-1.007v-2.186h-3.503v-0.781l3.839-5.48h0.672v5.396H62.973z
			 M60.855,25.159v-4.107l-2.905,4.107H60.855z"/>
		<path style="fill:#0066FF;" d="M116.985,25.159v0.866h-1.11v2.186h-1.007v-2.186h-3.504v-0.781l3.839-5.48h0.672v5.396H116.985z
			 M114.868,25.159v-4.107l-2.906,4.107H114.868z"/>
	</g>
	<g>
		<path style="fill:#0066FF;" d="M46.013,13.939h6.409v0.593h-6.409V13.939z M46.013,16.217h6.409v0.604h-6.409V16.217z"/>
		<path style="fill:#0066FF;" d="M67.856,15.374c0,0.188-0.066,0.348-0.198,0.479c-0.132,0.132-0.29,0.198-0.473,0.198
			c-0.187,0-0.347-0.066-0.479-0.198c-0.132-0.132-0.199-0.292-0.199-0.479c0-0.187,0.066-0.347,0.199-0.479
			c0.132-0.133,0.292-0.199,0.479-0.199c0.183,0,0.341,0.066,0.473,0.199C67.79,15.027,67.856,15.188,67.856,15.374z"/>
		<path style="fill:#0066FF;" d="M94.473,13.939h6.409v0.593h-6.409V13.939z M94.473,16.217h6.409v0.604h-6.409V16.217z"/>
		<path style="fill:#0066FF;" d="M137.121,13.939h6.409v0.593h-6.409V13.939z M137.121,16.217h6.409v0.604h-6.409V16.217z"/>
	</g>
</g>
<g id="theGroup">
</g>
</svg>
