<?xml version="1.0" encoding="iso-8859-1"?>
<!-- Generator: Adobe Illustrator 16.0.0, SVG Export Plug-In . SVG Version: 6.00 Build 0)  -->
<!DOCTYPE svg PUBLIC "-//W3C//DTD SVG 1.1//EN" "http://www.w3.org/Graphics/SVG/1.1/DTD/svg11.dtd">
<svg version="1.1" id="Lager_1" xmlns="http://www.w3.org/2000/svg" xmlns:xlink="http://www.w3.org/1999/xlink" x="0px" y="0px"
	 width="95.056px" height="32.044px" viewBox="0 0 95.056 32.044" style="enable-background:new 0 0 95.056 32.044;"
	 xml:space="preserve">
<g>
	
		<line style="fill:none;stroke:#0066FF;stroke-width:0.5;stroke-linecap:square;stroke-miterlimit:10;" x1="8.008" y1="15.242" x2="14.649" y2="15.242"/>
	
		<line style="fill:none;stroke:#CC0000;stroke-width:0.5;stroke-linecap:square;stroke-miterlimit:10;" x1="28.79" y1="15.242" x2="35.43" y2="15.242"/>
	
		<line style="fill:none;stroke:#CC0000;stroke-width:0.5;stroke-linecap:square;stroke-miterlimit:10;" x1="47.696" y1="15.242" x2="54.337" y2="15.242"/>
	
		<line style="fill:none;stroke:#0066FF;stroke-width:0.5;stroke-linecap:square;stroke-miterlimit:10;" x1="66.603" y1="15.242" x2="73.243" y2="15.242"/>
	
		<line style="fill:none;stroke:#0066FF;stroke-width:0.5;stroke-linecap:square;stroke-miterlimit:10;" x1="87.384" y1="15.242" x2="94.806" y2="15.242"/>
	<g>
		<path style="fill:#CC0000;" d="M29.814,3.687c0.236-0.558,0.534-0.987,0.894-1.291c0.36-0.303,0.809-0.454,1.346-0.454
			c0.663,0,1.172,0.216,1.525,0.646c0.269,0.321,0.403,0.666,0.403,1.032c0,0.602-0.379,1.225-1.136,1.867
			c0.509,0.199,0.894,0.484,1.154,0.854s0.391,0.806,0.391,1.307c0,0.716-0.228,1.336-0.684,1.861
			c-0.594,0.684-1.455,1.025-2.582,1.025c-0.558,0-0.937-0.069-1.139-0.208c-0.201-0.138-0.302-0.286-0.302-0.445
			c0-0.118,0.047-0.222,0.143-0.312c0.096-0.089,0.21-0.134,0.345-0.134c0.102,0,0.205,0.016,0.311,0.049
			c0.069,0.021,0.226,0.095,0.47,0.223s0.413,0.204,0.506,0.229c0.15,0.045,0.311,0.067,0.482,0.067
			c0.415,0,0.776-0.161,1.083-0.482s0.461-0.701,0.461-1.141c0-0.322-0.071-0.635-0.213-0.94c-0.106-0.228-0.222-0.4-0.348-0.519
			c-0.175-0.163-0.415-0.311-0.72-0.442c-0.305-0.133-0.616-0.198-0.934-0.198h-0.195V6.098c0.321-0.041,0.644-0.156,0.967-0.348
			c0.323-0.191,0.558-0.421,0.705-0.689s0.22-0.564,0.22-0.886c0-0.419-0.131-0.758-0.394-1.016
			c-0.262-0.259-0.589-0.388-0.979-0.388c-0.631,0-1.158,0.338-1.581,1.013L29.814,3.687z"/>
		<path style="fill:#CC0000;" d="M48.714,3.687c0.236-0.558,0.535-0.987,0.895-1.291c0.359-0.303,0.809-0.454,1.346-0.454
			c0.664,0,1.172,0.216,1.525,0.646c0.27,0.321,0.404,0.666,0.404,1.032c0,0.602-0.379,1.225-1.137,1.867
			c0.51,0.199,0.895,0.484,1.154,0.854s0.391,0.806,0.391,1.307c0,0.716-0.229,1.336-0.684,1.861
			c-0.594,0.684-1.455,1.025-2.582,1.025c-0.557,0-0.938-0.069-1.139-0.208c-0.201-0.138-0.301-0.286-0.301-0.445
			c0-0.118,0.047-0.222,0.143-0.312c0.096-0.089,0.211-0.134,0.346-0.134c0.102,0,0.205,0.016,0.311,0.049
			c0.068,0.021,0.227,0.095,0.471,0.223s0.412,0.204,0.506,0.229c0.15,0.045,0.311,0.067,0.482,0.067
			c0.414,0,0.775-0.161,1.084-0.482c0.307-0.321,0.459-0.701,0.459-1.141c0-0.322-0.07-0.635-0.213-0.94
			c-0.105-0.228-0.221-0.4-0.348-0.519c-0.176-0.163-0.416-0.311-0.721-0.442c-0.305-0.133-0.615-0.198-0.934-0.198h-0.195V6.098
			c0.322-0.041,0.645-0.156,0.967-0.348c0.324-0.191,0.559-0.421,0.705-0.689s0.221-0.564,0.221-0.886
			c0-0.419-0.131-0.758-0.395-1.016c-0.262-0.259-0.588-0.388-0.979-0.388c-0.631,0-1.158,0.338-1.582,1.013L48.714,3.687z"/>
	</g>
	<g>
		<path style="fill:#CC0000;" d="M5.731,16.979l-0.58,1.593H0.269v-0.226c1.437-1.311,2.447-2.381,3.033-3.211
			s0.879-1.589,0.879-2.276c0-0.524-0.161-0.956-0.482-1.294s-0.706-0.507-1.154-0.507c-0.407,0-0.772,0.119-1.095,0.357
			c-0.324,0.238-0.562,0.587-0.717,1.047H0.507c0.102-0.753,0.363-1.331,0.784-1.733c0.421-0.403,0.947-0.604,1.578-0.604
			c0.671,0,1.232,0.216,1.682,0.647C5,11.203,5.225,11.712,5.225,12.298c0,0.419-0.098,0.839-0.293,1.258
			c-0.301,0.659-0.79,1.356-1.465,2.093c-1.013,1.107-1.646,1.774-1.898,2.002h2.161c0.439,0,0.748-0.016,0.924-0.049
			c0.177-0.032,0.337-0.099,0.479-0.198c0.143-0.1,0.267-0.241,0.373-0.424H5.731z"/>
	</g>
	<g>
		<path style="fill:#CC0000;" d="M29.814,21.51c0.236-0.558,0.534-0.988,0.894-1.291c0.36-0.304,0.809-0.455,1.346-0.455
			c0.663,0,1.172,0.216,1.525,0.646c0.269,0.322,0.403,0.666,0.403,1.032c0,0.602-0.379,1.225-1.136,1.867
			c0.509,0.199,0.894,0.484,1.154,0.854s0.391,0.806,0.391,1.307c0,0.716-0.228,1.336-0.684,1.861
			c-0.594,0.684-1.455,1.025-2.582,1.025c-0.558,0-0.937-0.069-1.139-0.207c-0.201-0.139-0.302-0.287-0.302-0.446
			c0-0.118,0.047-0.222,0.143-0.312c0.096-0.089,0.21-0.134,0.345-0.134c0.102,0,0.205,0.017,0.311,0.049
			c0.069,0.021,0.226,0.095,0.47,0.223s0.413,0.204,0.506,0.229c0.15,0.044,0.311,0.066,0.482,0.066c0.415,0,0.776-0.16,1.083-0.482
			c0.307-0.321,0.461-0.701,0.461-1.141c0-0.321-0.071-0.635-0.213-0.94c-0.106-0.228-0.222-0.4-0.348-0.519
			c-0.175-0.163-0.415-0.311-0.72-0.442s-0.616-0.198-0.934-0.198h-0.195V23.92c0.321-0.04,0.644-0.156,0.967-0.348
			c0.323-0.191,0.558-0.421,0.705-0.689s0.22-0.563,0.22-0.885c0-0.42-0.131-0.758-0.394-1.017
			c-0.262-0.259-0.589-0.388-0.979-0.388c-0.631,0-1.158,0.338-1.581,1.014L29.814,21.51z"/>
		<path style="fill:#CC0000;" d="M48.714,21.51c0.236-0.558,0.535-0.988,0.895-1.291c0.359-0.304,0.809-0.455,1.346-0.455
			c0.664,0,1.172,0.216,1.525,0.646c0.27,0.322,0.404,0.666,0.404,1.032c0,0.602-0.379,1.225-1.137,1.867
			c0.51,0.199,0.895,0.484,1.154,0.854s0.391,0.806,0.391,1.307c0,0.716-0.229,1.336-0.684,1.861
			c-0.594,0.684-1.455,1.025-2.582,1.025c-0.557,0-0.938-0.069-1.139-0.207c-0.201-0.139-0.301-0.287-0.301-0.446
			c0-0.118,0.047-0.222,0.143-0.312c0.096-0.089,0.211-0.134,0.346-0.134c0.102,0,0.205,0.017,0.311,0.049
			c0.068,0.021,0.227,0.095,0.471,0.223s0.412,0.204,0.506,0.229c0.15,0.044,0.311,0.066,0.482,0.066
			c0.414,0,0.775-0.16,1.084-0.482c0.307-0.321,0.459-0.701,0.459-1.141c0-0.321-0.07-0.635-0.213-0.94
			c-0.105-0.228-0.221-0.4-0.348-0.519c-0.176-0.163-0.416-0.311-0.721-0.442s-0.615-0.198-0.934-0.198h-0.195V23.92
			c0.322-0.04,0.645-0.156,0.967-0.348c0.324-0.191,0.559-0.421,0.705-0.689s0.221-0.563,0.221-0.885
			c0-0.42-0.131-0.758-0.395-1.017c-0.262-0.259-0.588-0.388-0.979-0.388c-0.631,0-1.158,0.338-1.582,1.014L48.714,21.51z"/>
	</g>
	<g>
		<path style="fill:#0066FF;" d="M9.668,2.924l2.014-0.982h0.202V8.93c0,0.464,0.019,0.753,0.058,0.867
			c0.039,0.113,0.119,0.201,0.241,0.262c0.122,0.062,0.37,0.096,0.745,0.104v0.226H9.814v-0.226
			c0.391-0.009,0.643-0.042,0.757-0.102c0.114-0.059,0.193-0.138,0.238-0.237c0.044-0.1,0.067-0.398,0.067-0.895V4.462
			c0-0.603-0.021-0.988-0.061-1.159c-0.028-0.131-0.081-0.227-0.156-0.287c-0.075-0.062-0.166-0.092-0.271-0.092
			c-0.15,0-0.36,0.063-0.628,0.189L9.668,2.924z"/>
		<path style="fill:#0066FF;" d="M68.256,2.924l2.014-0.982h0.202V8.93c0,0.464,0.019,0.753,0.058,0.867
			c0.039,0.113,0.119,0.201,0.241,0.262c0.122,0.062,0.37,0.096,0.745,0.104v0.226h-3.113v-0.226
			c0.391-0.009,0.643-0.042,0.757-0.102c0.114-0.059,0.193-0.138,0.238-0.237s0.067-0.398,0.067-0.895V4.462
			c0-0.603-0.021-0.988-0.062-1.159c-0.028-0.131-0.08-0.227-0.155-0.287c-0.076-0.062-0.166-0.092-0.271-0.092
			c-0.151,0-0.36,0.063-0.629,0.189L68.256,2.924z"/>
		<path style="fill:#0066FF;" d="M89.211,2.112h4.437v0.231l-2.759,8.216h-0.684l2.473-7.452H90.4c-0.46,0-0.787,0.055-0.982,0.164
			c-0.342,0.188-0.616,0.477-0.824,0.867l-0.177-0.067L89.211,2.112z"/>
	</g>
	<g>
		<path style="fill:#0066FF;" d="M9.023,21.51c0.236-0.558,0.534-0.988,0.894-1.291c0.36-0.304,0.809-0.455,1.346-0.455
			c0.663,0,1.172,0.216,1.525,0.646c0.269,0.322,0.403,0.666,0.403,1.032c0,0.602-0.379,1.225-1.136,1.867
			c0.509,0.199,0.894,0.484,1.154,0.854s0.391,0.806,0.391,1.307c0,0.716-0.228,1.336-0.684,1.861
			c-0.594,0.684-1.455,1.025-2.582,1.025c-0.558,0-0.937-0.069-1.139-0.207c-0.201-0.139-0.302-0.287-0.302-0.446
			c0-0.118,0.047-0.222,0.143-0.312c0.096-0.089,0.21-0.134,0.345-0.134c0.102,0,0.205,0.017,0.311,0.049
			c0.069,0.021,0.226,0.095,0.47,0.223s0.413,0.204,0.506,0.229c0.15,0.044,0.311,0.066,0.482,0.066c0.415,0,0.776-0.16,1.083-0.482
			c0.307-0.321,0.461-0.701,0.461-1.141c0-0.321-0.071-0.635-0.213-0.94c-0.106-0.228-0.222-0.4-0.348-0.519
			c-0.175-0.163-0.415-0.311-0.72-0.442s-0.616-0.198-0.934-0.198h-0.195V23.92c0.321-0.04,0.644-0.156,0.967-0.348
			c0.323-0.191,0.558-0.421,0.705-0.689s0.22-0.563,0.22-0.885c0-0.42-0.131-0.758-0.394-1.017
			c-0.262-0.259-0.589-0.388-0.979-0.388c-0.631,0-1.158,0.338-1.581,1.014L9.023,21.51z"/>
		<path style="fill:#0066FF;" d="M67.611,21.51c0.236-0.558,0.534-0.988,0.895-1.291c0.359-0.304,0.809-0.455,1.346-0.455
			c0.663,0,1.172,0.216,1.525,0.646c0.269,0.322,0.403,0.666,0.403,1.032c0,0.602-0.379,1.225-1.136,1.867
			c0.509,0.199,0.894,0.484,1.154,0.854c0.26,0.37,0.391,0.806,0.391,1.307c0,0.716-0.229,1.336-0.684,1.861
			c-0.595,0.684-1.455,1.025-2.582,1.025c-0.558,0-0.938-0.069-1.139-0.207c-0.201-0.139-0.302-0.287-0.302-0.446
			c0-0.118,0.048-0.222,0.144-0.312c0.095-0.089,0.21-0.134,0.345-0.134c0.102,0,0.205,0.017,0.312,0.049
			c0.068,0.021,0.226,0.095,0.47,0.223s0.413,0.204,0.507,0.229c0.15,0.044,0.311,0.066,0.481,0.066c0.415,0,0.776-0.16,1.084-0.482
			c0.307-0.321,0.46-0.701,0.46-1.141c0-0.321-0.07-0.635-0.213-0.94c-0.106-0.228-0.222-0.4-0.348-0.519
			c-0.176-0.163-0.416-0.311-0.721-0.442s-0.616-0.198-0.934-0.198h-0.195V23.92c0.321-0.04,0.644-0.156,0.967-0.348
			c0.324-0.191,0.559-0.421,0.705-0.689s0.22-0.563,0.22-0.885c0-0.42-0.131-0.758-0.394-1.017s-0.589-0.388-0.979-0.388
			c-0.631,0-1.157,0.338-1.581,1.014L67.611,21.51z"/>
		<path style="fill:#0066FF;" d="M88.773,21.51c0.236-0.558,0.534-0.988,0.895-1.291c0.359-0.304,0.809-0.455,1.346-0.455
			c0.663,0,1.172,0.216,1.525,0.646c0.269,0.322,0.403,0.666,0.403,1.032c0,0.602-0.379,1.225-1.136,1.867
			c0.509,0.199,0.894,0.484,1.154,0.854c0.26,0.37,0.391,0.806,0.391,1.307c0,0.716-0.229,1.336-0.684,1.861
			c-0.595,0.684-1.455,1.025-2.582,1.025c-0.558,0-0.938-0.069-1.139-0.207c-0.201-0.139-0.302-0.287-0.302-0.446
			c0-0.118,0.048-0.222,0.144-0.312c0.095-0.089,0.21-0.134,0.345-0.134c0.102,0,0.205,0.017,0.312,0.049
			c0.068,0.021,0.226,0.095,0.47,0.223s0.413,0.204,0.507,0.229c0.15,0.044,0.311,0.066,0.481,0.066c0.415,0,0.776-0.16,1.084-0.482
			c0.307-0.321,0.46-0.701,0.46-1.141c0-0.321-0.07-0.635-0.213-0.94c-0.106-0.228-0.222-0.4-0.348-0.519
			c-0.176-0.163-0.416-0.311-0.721-0.442s-0.616-0.198-0.934-0.198h-0.195V23.92c0.321-0.04,0.644-0.156,0.967-0.348
			c0.324-0.191,0.559-0.421,0.705-0.689s0.22-0.563,0.22-0.885c0-0.42-0.131-0.758-0.394-1.017s-0.589-0.388-0.979-0.388
			c-0.631,0-1.157,0.338-1.581,1.014L88.773,21.51z"/>
	</g>
	<g>
		<path style="fill:#0066FF;" d="M18.419,13.939h6.409v0.593h-6.409V13.939z M18.419,16.217h6.409v0.604h-6.409V16.217z"/>
		<path style="fill:#0066FF;" d="M41.166,12.164h0.598v2.917h2.899v0.592h-2.899v2.899h-0.598v-2.899h-2.912v-0.592h2.912V12.164z"
			/>
		<path style="fill:#0066FF;" d="M60.063,12.164h0.599v2.917h2.899v0.592h-2.899v2.899h-0.599v-2.899h-2.911v-0.592h2.911V12.164z"
			/>
		<path style="fill:#0066FF;" d="M76.987,13.939h6.409v0.593h-6.409V13.939z M76.987,16.217h6.409v0.604h-6.409V16.217z"/>
	</g>
</g>
<g id="theGroup">
</g>
</svg>
