<?xml version="1.0" encoding="iso-8859-1"?>
<!-- Generator: Adobe Illustrator 16.0.0, SVG Export Plug-In . SVG Version: 6.00 Build 0)  -->
<!DOCTYPE svg PUBLIC "-//W3C//DTD SVG 1.1//EN" "http://www.w3.org/Graphics/SVG/1.1/DTD/svg11.dtd">
<svg version="1.1" id="Lager_1" xmlns="http://www.w3.org/2000/svg" xmlns:xlink="http://www.w3.org/1999/xlink" x="0px" y="0px"
	 width="16.191px" height="15.454px" viewBox="0 0 16.191 15.454" style="enable-background:new 0 0 16.191 15.454;"
	 xml:space="preserve">
<g>
	<g>
		<path d="M12.959,6.104v-0.13c0.306-0.005,0.591-0.076,0.854-0.213c0.263-0.138,0.518-0.378,0.764-0.722s0.417-0.721,0.514-1.133
			c-0.37,0.238-0.704,0.356-1.003,0.356c-0.336,0-0.624-0.13-0.864-0.39c-0.239-0.26-0.359-0.605-0.359-1.036
			c0-0.419,0.12-0.792,0.359-1.119c0.29-0.397,0.667-0.597,1.133-0.597c0.393,0,0.729,0.163,1.009,0.487
			c0.344,0.402,0.516,0.898,0.516,1.489c0,0.532-0.131,1.027-0.392,1.487s-0.625,0.842-1.091,1.145
			c-0.378,0.25-0.791,0.374-1.238,0.374H12.959z M15.146,3.645c0.043-0.306,0.064-0.55,0.064-0.734c0-0.228-0.039-0.475-0.117-0.739
			c-0.077-0.265-0.188-0.467-0.33-0.608c-0.142-0.141-0.304-0.212-0.484-0.212c-0.21,0-0.394,0.094-0.551,0.282
			c-0.157,0.188-0.236,0.468-0.236,0.84c0,0.497,0.104,0.885,0.313,1.165c0.153,0.202,0.342,0.303,0.565,0.303
			c0.107,0,0.236-0.025,0.384-0.078C14.903,3.812,15.034,3.739,15.146,3.645z"/>
	</g>
	<g>
		<path d="M1.465,4.156l2.014-0.982h0.202v6.988c0,0.464,0.019,0.753,0.058,0.867c0.039,0.113,0.119,0.201,0.241,0.262
			c0.122,0.062,0.37,0.096,0.745,0.104v0.226H1.611v-0.226c0.391-0.009,0.643-0.042,0.757-0.101c0.114-0.06,0.193-0.139,0.238-0.238
			c0.044-0.1,0.067-0.397,0.067-0.895V5.694c0-0.602-0.021-0.988-0.061-1.159c-0.028-0.13-0.081-0.226-0.156-0.287
			S2.291,4.156,2.185,4.156c-0.15,0-0.36,0.063-0.628,0.189L1.465,4.156z"/>
		<path d="M6.702,7.532c0-0.944,0.143-1.757,0.427-2.438C7.414,4.412,7.792,3.904,8.264,3.57C8.63,3.306,9.009,3.174,9.399,3.174
			c0.635,0,1.204,0.323,1.709,0.971c0.631,0.801,0.946,1.888,0.946,3.259c0,0.96-0.139,1.776-0.415,2.448
			c-0.277,0.671-0.63,1.158-1.06,1.461c-0.429,0.304-0.843,0.455-1.242,0.455c-0.789,0-1.446-0.466-1.971-1.397
			C6.923,9.585,6.702,8.639,6.702,7.532z M7.898,7.685c0,1.139,0.14,2.069,0.421,2.789c0.231,0.606,0.578,0.909,1.037,0.909
			c0.22,0,0.448-0.099,0.684-0.296c0.236-0.197,0.415-0.528,0.537-0.991c0.188-0.7,0.281-1.687,0.281-2.961
			c0-0.944-0.098-1.731-0.293-2.362c-0.146-0.468-0.336-0.799-0.567-0.995C9.831,3.644,9.629,3.577,9.394,3.577
			c-0.277,0-0.523,0.124-0.738,0.373C8.362,4.287,8.163,4.818,8.057,5.542S7.898,6.98,7.898,7.685z"/>
	</g>
</g>
<g id="theGroup">
</g>
</svg>
