<?xml version="1.0" encoding="iso-8859-1"?>
<!-- Generator: Adobe Illustrator 16.0.0, SVG Export Plug-In . SVG Version: 6.00 Build 0)  -->
<!DOCTYPE svg PUBLIC "-//W3C//DTD SVG 1.1//EN" "http://www.w3.org/Graphics/SVG/1.1/DTD/svg11.dtd">
<svg version="1.1" id="Lager_1" xmlns="http://www.w3.org/2000/svg" xmlns:xlink="http://www.w3.org/1999/xlink" x="0px" y="0px"
	 width="77.868px" height="32.044px" viewBox="0 0 77.868 32.044" style="enable-background:new 0 0 77.868 32.044;"
	 xml:space="preserve">
<g>
	
		<line style="fill:none;stroke:#000000;stroke-width:0.5;stroke-linecap:square;stroke-miterlimit:10;" x1="65.313" y1="15.242" x2="77.618" y2="15.242"/>
	<g>
		<path d="M69.775,2.924l2.014-0.982h0.202V8.93c0,0.464,0.019,0.753,0.058,0.867c0.039,0.113,0.119,0.201,0.241,0.262
			c0.122,0.062,0.37,0.096,0.745,0.104v0.226h-3.113v-0.226c0.391-0.009,0.643-0.042,0.757-0.102
			c0.114-0.059,0.193-0.138,0.238-0.237s0.067-0.398,0.067-0.895V4.462c0-0.603-0.021-0.988-0.062-1.159
			c-0.028-0.131-0.08-0.227-0.155-0.287c-0.076-0.062-0.166-0.092-0.271-0.092c-0.151,0-0.36,0.063-0.629,0.189L69.775,2.924z"/>
	</g>
	<g>
		<path d="M2.612,10.748v3.271h1.819c0.472,0,0.788-0.071,0.946-0.214c0.212-0.188,0.33-0.517,0.354-0.989h0.226v2.881H5.731
			c-0.057-0.402-0.114-0.661-0.171-0.774c-0.073-0.143-0.193-0.255-0.36-0.336s-0.423-0.122-0.769-0.122H2.612v2.729
			c0,0.365,0.016,0.589,0.049,0.668s0.089,0.143,0.171,0.189s0.236,0.07,0.464,0.07H4.7c0.468,0,0.808-0.033,1.019-0.098
			c0.212-0.065,0.415-0.193,0.61-0.385c0.252-0.253,0.511-0.633,0.775-1.142h0.244l-0.714,2.075H0.256v-0.226h0.293
			c0.195,0,0.38-0.047,0.555-0.141c0.13-0.065,0.219-0.163,0.266-0.293s0.07-0.396,0.07-0.8v-5.377c0-0.524-0.053-0.849-0.159-0.971
			c-0.146-0.162-0.391-0.244-0.732-0.244H0.256v-0.226h6.378l0.091,1.812H6.488c-0.086-0.435-0.18-0.734-0.284-0.896
			c-0.104-0.163-0.257-0.287-0.461-0.373c-0.163-0.061-0.449-0.091-0.86-0.091H2.612z"/>
		<path d="M9.644,14.001c0.655-0.789,1.279-1.185,1.874-1.185c0.305,0,0.568,0.077,0.788,0.229s0.395,0.403,0.524,0.754
			c0.09,0.244,0.135,0.618,0.135,1.123v2.386c0,0.354,0.028,0.595,0.085,0.721c0.045,0.102,0.117,0.181,0.217,0.238
			c0.1,0.057,0.284,0.085,0.553,0.085v0.22h-2.765v-0.22h0.116c0.261,0,0.443-0.04,0.546-0.119c0.104-0.079,0.176-0.196,0.217-0.351
			c0.016-0.062,0.024-0.253,0.024-0.574v-2.288c0-0.509-0.066-0.878-0.198-1.108c-0.132-0.229-0.355-0.345-0.668-0.345
			c-0.484,0-0.966,0.265-1.446,0.794v2.947c0,0.379,0.022,0.612,0.067,0.702c0.057,0.118,0.135,0.204,0.235,0.26
			c0.1,0.055,0.302,0.082,0.607,0.082v0.22H7.788v-0.22H7.91c0.285,0,0.477-0.072,0.577-0.217c0.1-0.145,0.149-0.42,0.149-0.827
			v-2.075c0-0.671-0.015-1.08-0.046-1.227c-0.03-0.146-0.077-0.246-0.14-0.299c-0.063-0.053-0.147-0.079-0.253-0.079
			c-0.114,0-0.25,0.03-0.409,0.091L7.696,13.5l1.685-0.684h0.263V14.001z"/>
		<path d="M19.012,11.145v1.837h1.306v0.428h-1.306v3.625c0,0.362,0.052,0.606,0.156,0.732c0.104,0.126,0.237,0.189,0.399,0.189
			c0.135,0,0.265-0.042,0.391-0.125c0.126-0.084,0.224-0.207,0.293-0.37h0.238c-0.143,0.399-0.344,0.699-0.604,0.9
			c-0.26,0.202-0.529,0.303-0.806,0.303c-0.187,0-0.37-0.052-0.549-0.156c-0.179-0.104-0.312-0.252-0.397-0.445
			s-0.128-0.491-0.128-0.895v-3.759H17.12v-0.202c0.224-0.089,0.453-0.24,0.687-0.454s0.442-0.467,0.626-0.76
			c0.093-0.155,0.224-0.438,0.391-0.849H19.012z"/>
		<path d="M22.828,12.816v4.492c0,0.351,0.025,0.583,0.076,0.699s0.126,0.202,0.226,0.26c0.1,0.057,0.282,0.085,0.546,0.085v0.22
			H20.96v-0.22c0.272,0,0.456-0.026,0.549-0.079s0.168-0.141,0.223-0.263c0.055-0.122,0.083-0.356,0.083-0.702v-2.154
			c0-0.606-0.018-0.999-0.055-1.178c-0.028-0.13-0.073-0.221-0.134-0.271c-0.062-0.051-0.145-0.076-0.25-0.076
			c-0.114,0-0.252,0.03-0.415,0.091l-0.085-0.22l1.685-0.684H22.828z M22.321,9.894c0.171,0,0.316,0.06,0.437,0.18
			s0.18,0.266,0.18,0.437s-0.06,0.317-0.18,0.439s-0.266,0.183-0.437,0.183s-0.317-0.061-0.439-0.183s-0.183-0.269-0.183-0.439
			s0.06-0.316,0.18-0.437S22.146,9.894,22.321,9.894z"/>
		<path d="M27.144,12.816c0.846,0,1.526,0.322,2.039,0.965c0.436,0.549,0.653,1.18,0.653,1.892c0,0.501-0.12,1.007-0.36,1.521
			c-0.24,0.512-0.571,0.898-0.992,1.159c-0.421,0.261-0.89,0.391-1.407,0.391c-0.842,0-1.511-0.336-2.008-1.007
			c-0.419-0.565-0.629-1.201-0.629-1.904c0-0.513,0.127-1.022,0.382-1.529c0.254-0.506,0.589-0.881,1.004-1.123
			C26.24,12.938,26.68,12.816,27.144,12.816z M26.954,13.214c-0.215,0-0.432,0.063-0.65,0.192c-0.218,0.128-0.394,0.353-0.528,0.674
			s-0.201,0.734-0.201,1.239c0,0.813,0.162,1.516,0.485,2.105c0.324,0.59,0.75,0.885,1.279,0.885c0.395,0,0.72-0.162,0.977-0.488
			c0.256-0.325,0.385-0.885,0.385-1.678c0-0.993-0.214-1.774-0.641-2.344C27.77,13.409,27.402,13.214,26.954,13.214z"/>
		<path d="M32.289,14.001c0.655-0.789,1.279-1.185,1.874-1.185c0.305,0,0.568,0.077,0.788,0.229s0.395,0.403,0.524,0.754
			c0.09,0.244,0.135,0.618,0.135,1.123v2.386c0,0.354,0.028,0.595,0.085,0.721c0.045,0.102,0.117,0.181,0.217,0.238
			c0.1,0.057,0.284,0.085,0.553,0.085v0.22h-2.765v-0.22h0.116c0.261,0,0.443-0.04,0.546-0.119c0.104-0.079,0.176-0.196,0.217-0.351
			c0.016-0.062,0.024-0.253,0.024-0.574v-2.288c0-0.509-0.066-0.878-0.198-1.108c-0.132-0.229-0.355-0.345-0.668-0.345
			c-0.484,0-0.966,0.265-1.446,0.794v2.947c0,0.379,0.022,0.612,0.067,0.702c0.057,0.118,0.135,0.204,0.235,0.26
			c0.1,0.055,0.302,0.082,0.607,0.082v0.22h-2.765v-0.22h0.122c0.285,0,0.477-0.072,0.577-0.217c0.1-0.145,0.149-0.42,0.149-0.827
			v-2.075c0-0.671-0.015-1.08-0.046-1.227c-0.03-0.146-0.077-0.246-0.14-0.299c-0.063-0.053-0.147-0.079-0.253-0.079
			c-0.114,0-0.25,0.03-0.409,0.091l-0.092-0.22l1.685-0.684h0.263V14.001z"/>
		<path d="M40.858,17.943c-0.272,0.285-0.539,0.489-0.8,0.613s-0.541,0.187-0.842,0.187c-0.61,0-1.144-0.255-1.599-0.766
			s-0.684-1.167-0.684-1.969s0.252-1.535,0.757-2.2s1.153-0.998,1.947-0.998c0.492,0,0.899,0.157,1.221,0.47v-1.031
			c0-0.639-0.016-1.031-0.046-1.178s-0.078-0.246-0.144-0.299s-0.146-0.08-0.244-0.08c-0.105,0-0.246,0.033-0.421,0.098
			l-0.079-0.213l1.666-0.684h0.274v6.463c0,0.655,0.016,1.056,0.046,1.199c0.03,0.145,0.079,0.245,0.146,0.303
			c0.067,0.057,0.146,0.085,0.234,0.085c0.11,0,0.257-0.034,0.439-0.104l0.067,0.214l-1.66,0.689h-0.28V17.943z M40.858,17.517
			v-2.881c-0.024-0.276-0.098-0.529-0.22-0.757s-0.284-0.399-0.485-0.516s-0.398-0.174-0.589-0.174c-0.358,0-0.678,0.16-0.958,0.481
			c-0.37,0.424-0.555,1.042-0.555,1.855c0,0.822,0.179,1.452,0.537,1.89c0.358,0.438,0.757,0.656,1.196,0.656
			C40.154,18.072,40.513,17.887,40.858,17.517z"/>
		<path d="M44.099,15.087c-0.004,0.83,0.198,1.481,0.604,1.953c0.407,0.473,0.886,0.708,1.435,0.708
			c0.366,0,0.685-0.101,0.955-0.302s0.498-0.546,0.681-1.034l0.189,0.121c-0.086,0.558-0.334,1.065-0.745,1.523
			s-0.926,0.687-1.544,0.687c-0.671,0-1.246-0.262-1.725-0.784c-0.478-0.522-0.717-1.226-0.717-2.108
			c0-0.956,0.245-1.702,0.735-2.237s1.105-0.803,1.847-0.803c0.626,0,1.142,0.207,1.544,0.62s0.604,0.965,0.604,1.656H44.099z
			 M44.099,14.733h2.588c-0.02-0.358-0.062-0.61-0.128-0.757c-0.102-0.228-0.253-0.407-0.454-0.537
			c-0.202-0.13-0.412-0.195-0.632-0.195c-0.338,0-0.641,0.131-0.906,0.394C44.3,13.9,44.144,14.266,44.099,14.733z"/>
		<path d="M50.556,9.894v7.415c0,0.351,0.025,0.582,0.076,0.696c0.051,0.113,0.129,0.2,0.235,0.259
			c0.105,0.06,0.303,0.089,0.592,0.089v0.22h-2.74v-0.22c0.256,0,0.431-0.026,0.524-0.079s0.167-0.141,0.22-0.263
			s0.079-0.356,0.079-0.702V12.23c0-0.63-0.014-1.018-0.042-1.162c-0.029-0.145-0.075-0.243-0.138-0.296
			c-0.063-0.053-0.144-0.08-0.241-0.08c-0.105,0-0.24,0.033-0.402,0.098l-0.104-0.213l1.667-0.684H50.556z"/>
	</g>
	<g>
		<path d="M66.191,20.746l2.014-0.982h0.202v6.988c0,0.464,0.019,0.753,0.058,0.867c0.039,0.113,0.119,0.201,0.241,0.262
			c0.122,0.062,0.37,0.096,0.745,0.104v0.226h-3.113v-0.226c0.391-0.009,0.643-0.042,0.757-0.101
			c0.114-0.06,0.193-0.139,0.238-0.238s0.067-0.397,0.067-0.895v-4.468c0-0.602-0.021-0.988-0.062-1.159
			c-0.028-0.131-0.08-0.227-0.155-0.287c-0.076-0.061-0.166-0.092-0.271-0.092c-0.151,0-0.36,0.063-0.629,0.189L66.191,20.746z"/>
		<path d="M71.428,24.121c0-0.943,0.143-1.756,0.428-2.438s0.663-1.189,1.135-1.523c0.367-0.265,0.745-0.396,1.136-0.396
			c0.635,0,1.204,0.323,1.709,0.971c0.631,0.802,0.946,1.888,0.946,3.259c0,0.961-0.139,1.776-0.415,2.448
			c-0.277,0.671-0.63,1.158-1.06,1.461c-0.429,0.304-0.843,0.455-1.242,0.455c-0.789,0-1.446-0.466-1.971-1.397
			C71.65,26.175,71.428,25.229,71.428,24.121z M72.625,24.274c0,1.139,0.14,2.069,0.421,2.789c0.231,0.606,0.577,0.909,1.037,0.909
			c0.22,0,0.448-0.099,0.684-0.296c0.236-0.197,0.415-0.528,0.537-0.991c0.188-0.7,0.281-1.688,0.281-2.961
			c0-0.943-0.098-1.731-0.293-2.361c-0.146-0.469-0.336-0.8-0.567-0.995c-0.167-0.135-0.369-0.202-0.604-0.202
			c-0.277,0-0.523,0.125-0.739,0.373c-0.293,0.338-0.492,0.868-0.598,1.593S72.625,23.57,72.625,24.274z"/>
	</g>
	<g>
		<path d="M54.942,13.939h6.409v0.593h-6.409V13.939z M54.942,16.217h6.409v0.604h-6.409V16.217z"/>
	</g>
</g>
<g id="theGroup">
</g>
</svg>
