<?xml version="1.0" encoding="iso-8859-1"?>
<!-- Generator: Adobe Illustrator 16.0.0, SVG Export Plug-In . SVG Version: 6.00 Build 0)  -->
<!DOCTYPE svg PUBLIC "-//W3C//DTD SVG 1.1//EN" "http://www.w3.org/Graphics/SVG/1.1/DTD/svg11.dtd">
<svg version="1.1" id="Lager_1" xmlns="http://www.w3.org/2000/svg" xmlns:xlink="http://www.w3.org/1999/xlink" x="0px" y="0px"
	 width="128.234px" height="32.044px" viewBox="0 0 128.234 32.044" style="enable-background:new 0 0 128.234 32.044;"
	 xml:space="preserve">
<g>
	
		<line style="fill:none;stroke:#0066FF;stroke-width:0.5;stroke-linecap:square;stroke-miterlimit:10;" x1="0.25" y1="15.242" x2="40.875" y2="15.242"/>
	
		<line style="fill:none;stroke:#0066FF;stroke-width:0.5;stroke-linecap:square;stroke-miterlimit:10;" x1="55.016" y1="15.242" x2="79.977" y2="15.242"/>
	
		<line style="fill:none;stroke:#0066FF;stroke-width:0.5;stroke-linecap:square;stroke-miterlimit:10;" x1="94.117" y1="15.242" x2="106.422" y2="15.242"/>
	
		<line style="fill:none;stroke:#0066FF;stroke-width:0.5;stroke-linecap:square;stroke-miterlimit:10;" x1="120.562" y1="15.242" x2="127.984" y2="15.242"/>
	<g>
		<path style="fill:#0066FF;" d="M11.338,9.76c-0.273,0.285-0.54,0.489-0.8,0.613c-0.261,0.124-0.541,0.187-0.843,0.187
			c-0.61,0-1.144-0.256-1.599-0.767c-0.456-0.51-0.684-1.166-0.684-1.968s0.252-1.535,0.757-2.2
			c0.504-0.666,1.153-0.998,1.947-0.998c0.492,0,0.898,0.156,1.221,0.47V4.065c0-0.639-0.016-1.031-0.046-1.178
			c-0.031-0.146-0.079-0.247-0.144-0.3c-0.065-0.053-0.146-0.079-0.244-0.079c-0.106,0-0.246,0.032-0.421,0.098l-0.08-0.214
			l1.667-0.684h0.274v6.464c0,0.655,0.015,1.055,0.046,1.199c0.03,0.145,0.079,0.245,0.146,0.303
			c0.066,0.057,0.146,0.085,0.234,0.085c0.11,0,0.257-0.034,0.439-0.104l0.067,0.214l-1.66,0.689h-0.28V9.76z M11.338,9.333V6.452
			c-0.024-0.277-0.098-0.529-0.22-0.757c-0.122-0.229-0.284-0.4-0.485-0.517c-0.202-0.115-0.398-0.174-0.589-0.174
			c-0.358,0-0.678,0.161-0.959,0.482C8.715,5.91,8.53,6.529,8.53,7.343c0,0.822,0.179,1.452,0.537,1.889
			c0.357,0.438,0.757,0.656,1.196,0.656C10.634,9.888,10.991,9.703,11.338,9.333z"/>
		<path style="fill:#0066FF;" d="M14.578,6.903c-0.004,0.83,0.197,1.481,0.604,1.953s0.885,0.708,1.435,0.708
			c0.366,0,0.685-0.101,0.955-0.302c0.271-0.202,0.497-0.547,0.681-1.035l0.189,0.122c-0.086,0.558-0.334,1.065-0.745,1.523
			c-0.411,0.457-0.926,0.687-1.544,0.687c-0.672,0-1.246-0.262-1.725-0.784c-0.479-0.523-0.717-1.227-0.717-2.109
			c0-0.956,0.245-1.701,0.735-2.236s1.105-0.803,1.847-0.803c0.626,0,1.141,0.206,1.544,0.619c0.402,0.413,0.604,0.966,0.604,1.657
			H14.578z M14.578,6.55h2.588c-0.021-0.358-0.062-0.61-0.128-0.757c-0.102-0.229-0.253-0.407-0.455-0.537
			c-0.201-0.131-0.411-0.195-0.631-0.195c-0.338,0-0.641,0.131-0.907,0.394C14.778,5.716,14.623,6.081,14.578,6.55z"/>
		<path style="fill:#0066FF;" d="M21.034,1.709v7.416c0,0.35,0.025,0.582,0.076,0.696c0.051,0.113,0.129,0.2,0.235,0.259
			c0.105,0.06,0.303,0.089,0.592,0.089v0.22h-2.74v-0.22c0.256,0,0.431-0.026,0.524-0.079c0.094-0.054,0.167-0.141,0.22-0.263
			s0.079-0.356,0.079-0.702V4.047c0-0.631-0.014-1.019-0.042-1.163c-0.028-0.144-0.074-0.243-0.138-0.296S19.697,2.509,19.6,2.509
			c-0.105,0-0.24,0.032-0.402,0.098l-0.104-0.214l1.667-0.684H21.034z"/>
		<path style="fill:#0066FF;" d="M23.374,6.903c-0.004,0.83,0.197,1.481,0.604,1.953s0.885,0.708,1.435,0.708
			c0.366,0,0.685-0.101,0.955-0.302c0.271-0.202,0.497-0.547,0.681-1.035l0.189,0.122c-0.086,0.558-0.334,1.065-0.745,1.523
			c-0.411,0.457-0.926,0.687-1.544,0.687c-0.672,0-1.246-0.262-1.725-0.784c-0.479-0.523-0.717-1.227-0.717-2.109
			c0-0.956,0.245-1.701,0.735-2.236s1.105-0.803,1.847-0.803c0.626,0,1.141,0.206,1.544,0.619c0.402,0.413,0.604,0.966,0.604,1.657
			H23.374z M23.374,6.55h2.588c-0.021-0.358-0.062-0.61-0.128-0.757c-0.102-0.229-0.253-0.407-0.455-0.537
			c-0.201-0.131-0.411-0.195-0.631-0.195c-0.338,0-0.641,0.131-0.907,0.394C23.574,5.716,23.419,6.081,23.374,6.55z"/>
		<path style="fill:#0066FF;" d="M29.537,5.817c0.655-0.79,1.279-1.185,1.874-1.185c0.305,0,0.567,0.076,0.787,0.229
			c0.22,0.153,0.395,0.404,0.524,0.754c0.09,0.244,0.135,0.619,0.135,1.123v2.387c0,0.354,0.028,0.594,0.085,0.721
			c0.045,0.102,0.117,0.181,0.217,0.237c0.1,0.058,0.284,0.086,0.553,0.086v0.22h-2.765v-0.22h0.115c0.261,0,0.443-0.04,0.547-0.119
			s0.176-0.196,0.217-0.351c0.016-0.062,0.024-0.253,0.024-0.574V6.836c0-0.509-0.066-0.878-0.198-1.107
			c-0.133-0.229-0.355-0.345-0.669-0.345c-0.484,0-0.966,0.265-1.446,0.793v2.948c0,0.379,0.022,0.612,0.067,0.702
			c0.057,0.118,0.135,0.204,0.234,0.259c0.1,0.056,0.303,0.083,0.607,0.083v0.22h-2.765v-0.22h0.122
			c0.285,0,0.477-0.072,0.577-0.217c0.1-0.145,0.149-0.42,0.149-0.827V7.05c0-0.671-0.016-1.08-0.046-1.227
			s-0.077-0.246-0.141-0.299c-0.063-0.054-0.147-0.08-0.253-0.08c-0.114,0-0.251,0.031-0.409,0.092l-0.092-0.22l1.685-0.684h0.263
			V5.817z"/>
		<path style="fill:#0066FF;" d="M70.357,7.337v0.866h-1.109v2.186H68.24V8.203h-3.503V7.422l3.839-5.48h0.672v5.396H70.357z
			 M68.24,7.337V3.229l-2.905,4.107H68.24z"/>
		<path style="fill:#0066FF;" d="M103.12,7.337v0.866h-1.11v2.186h-1.007V8.203h-3.504V7.422l3.839-5.48h0.672v5.396H103.12z
			 M101.003,7.337V3.229l-2.906,4.107H101.003z"/>
		<path style="fill:#0066FF;" d="M127.048,8.796l-0.58,1.593h-4.883v-0.226c1.437-1.311,2.447-2.381,3.033-3.211
			s0.879-1.589,0.879-2.276c0-0.525-0.16-0.956-0.481-1.294c-0.322-0.338-0.706-0.507-1.154-0.507c-0.406,0-0.771,0.119-1.096,0.357
			c-0.323,0.237-0.562,0.587-0.717,1.047h-0.226c0.102-0.753,0.363-1.331,0.784-1.733c0.421-0.403,0.947-0.604,1.578-0.604
			c0.671,0,1.231,0.216,1.681,0.646c0.45,0.432,0.675,0.94,0.675,1.526c0,0.419-0.098,0.838-0.293,1.257
			c-0.301,0.659-0.789,1.357-1.465,2.094c-1.014,1.106-1.646,1.774-1.898,2.002h2.161c0.439,0,0.747-0.017,0.925-0.049
			c0.177-0.032,0.336-0.099,0.479-0.198s0.267-0.241,0.373-0.424H127.048z"/>
	</g>
	<g>
		<path style="fill:#0066FF;" d="M5.176,27.582c-0.273,0.285-0.54,0.489-0.8,0.613c-0.261,0.124-0.541,0.187-0.843,0.187
			c-0.61,0-1.144-0.255-1.599-0.766c-0.456-0.511-0.684-1.167-0.684-1.969s0.252-1.535,0.757-2.2
			c0.504-0.665,1.153-0.998,1.947-0.998c0.492,0,0.898,0.156,1.221,0.47v-1.031c0-0.639-0.016-1.031-0.046-1.178
			c-0.031-0.146-0.079-0.246-0.144-0.3c-0.065-0.053-0.146-0.079-0.244-0.079c-0.106,0-0.246,0.033-0.421,0.098l-0.08-0.214
			l1.667-0.684h0.274v6.464c0,0.655,0.015,1.056,0.046,1.199c0.03,0.145,0.079,0.245,0.146,0.303
			c0.066,0.057,0.146,0.085,0.234,0.085c0.11,0,0.257-0.034,0.439-0.104l0.067,0.214l-1.66,0.689h-0.28V27.582z M5.176,27.155
			v-2.881c-0.024-0.277-0.098-0.529-0.22-0.757c-0.122-0.229-0.284-0.4-0.485-0.516c-0.202-0.116-0.398-0.174-0.589-0.174
			c-0.358,0-0.678,0.16-0.959,0.481c-0.37,0.424-0.555,1.042-0.555,1.855c0,0.822,0.179,1.452,0.537,1.89
			c0.357,0.438,0.757,0.656,1.196,0.656C4.472,27.711,4.829,27.525,5.176,27.155z"/>
		<path style="fill:#0066FF;" d="M8.416,24.726c-0.004,0.83,0.197,1.481,0.604,1.953c0.407,0.473,0.885,0.708,1.435,0.708
			c0.366,0,0.685-0.101,0.955-0.302s0.497-0.546,0.681-1.034l0.189,0.121c-0.086,0.558-0.334,1.065-0.745,1.523
			s-0.926,0.687-1.544,0.687c-0.672,0-1.246-0.262-1.725-0.784S7.55,26.372,7.55,25.488c0-0.956,0.245-1.701,0.735-2.236
			s1.105-0.803,1.847-0.803c0.626,0,1.141,0.207,1.544,0.619c0.402,0.413,0.604,0.966,0.604,1.657H8.416z M8.416,24.372h2.588
			c-0.021-0.358-0.062-0.61-0.128-0.757c-0.102-0.229-0.253-0.407-0.455-0.537c-0.201-0.131-0.411-0.195-0.631-0.195
			c-0.338,0-0.641,0.131-0.907,0.394S8.461,23.904,8.416,24.372z"/>
		<path style="fill:#0066FF;" d="M14.573,20.783v1.837h1.306v0.427h-1.306v3.626c0,0.362,0.052,0.606,0.155,0.732
			s0.237,0.189,0.399,0.189c0.135,0,0.265-0.042,0.391-0.125c0.127-0.084,0.225-0.207,0.293-0.37h0.238
			c-0.143,0.399-0.344,0.699-0.604,0.9c-0.26,0.202-0.528,0.303-0.806,0.303c-0.187,0-0.37-0.052-0.549-0.156
			c-0.179-0.104-0.312-0.252-0.396-0.445c-0.086-0.193-0.129-0.491-0.129-0.895v-3.76h-0.885v-0.201
			c0.224-0.089,0.453-0.241,0.687-0.454c0.234-0.214,0.442-0.468,0.626-0.761c0.094-0.154,0.224-0.437,0.391-0.848H14.573z"/>
		<path style="fill:#0066FF;" d="M21.227,19.531v4.09c0.452-0.496,0.81-0.814,1.074-0.955s0.529-0.211,0.794-0.211
			c0.317,0,0.59,0.088,0.817,0.263s0.396,0.449,0.507,0.824c0.077,0.26,0.116,0.736,0.116,1.428v1.978
			c0,0.354,0.028,0.597,0.085,0.727c0.041,0.098,0.11,0.175,0.208,0.232c0.098,0.057,0.276,0.085,0.537,0.085v0.22h-2.747v-0.22
			h0.128c0.261,0,0.441-0.04,0.544-0.119c0.102-0.079,0.173-0.196,0.213-0.351c0.013-0.065,0.019-0.257,0.019-0.574V24.97
			c0-0.61-0.031-1.011-0.095-1.202s-0.164-0.335-0.302-0.431c-0.139-0.095-0.306-0.144-0.501-0.144
			c-0.199,0-0.406,0.054-0.622,0.159s-0.475,0.319-0.775,0.641v2.954c0,0.383,0.021,0.621,0.064,0.715
			c0.042,0.093,0.122,0.172,0.237,0.234c0.116,0.063,0.316,0.095,0.602,0.095v0.22h-2.771v-0.22c0.248,0,0.443-0.039,0.586-0.116
			c0.081-0.04,0.146-0.118,0.195-0.231c0.049-0.114,0.073-0.346,0.073-0.696v-5.06c0-0.639-0.016-1.031-0.046-1.178
			c-0.031-0.146-0.078-0.246-0.141-0.3c-0.063-0.053-0.147-0.079-0.253-0.079c-0.086,0-0.225,0.033-0.415,0.098l-0.086-0.214
			l1.673-0.684H21.227z"/>
		<path style="fill:#0066FF;" d="M26.774,24.726c-0.004,0.83,0.197,1.481,0.604,1.953c0.407,0.473,0.885,0.708,1.435,0.708
			c0.366,0,0.685-0.101,0.955-0.302s0.497-0.546,0.681-1.034l0.189,0.121c-0.086,0.558-0.334,1.065-0.745,1.523
			s-0.926,0.687-1.544,0.687c-0.672,0-1.246-0.262-1.725-0.784s-0.717-1.226-0.717-2.109c0-0.956,0.245-1.701,0.735-2.236
			s1.105-0.803,1.847-0.803c0.626,0,1.141,0.207,1.544,0.619c0.402,0.413,0.604,0.966,0.604,1.657H26.774z M26.774,24.372h2.588
			c-0.021-0.358-0.062-0.61-0.128-0.757c-0.102-0.229-0.253-0.407-0.455-0.537c-0.201-0.131-0.411-0.195-0.631-0.195
			c-0.338,0-0.641,0.131-0.907,0.394S26.819,23.904,26.774,24.372z"/>
		<path style="fill:#0066FF;" d="M33.23,19.531v7.416c0,0.351,0.025,0.582,0.076,0.696c0.051,0.113,0.129,0.2,0.235,0.259
			c0.105,0.06,0.303,0.089,0.592,0.089v0.22h-2.74v-0.22c0.256,0,0.431-0.026,0.524-0.079s0.167-0.141,0.22-0.263
			s0.079-0.356,0.079-0.702v-5.078c0-0.631-0.014-1.018-0.042-1.162s-0.074-0.243-0.138-0.297c-0.063-0.053-0.144-0.079-0.241-0.079
			c-0.105,0-0.24,0.033-0.402,0.098l-0.104-0.214l1.667-0.684H33.23z"/>
		<path style="fill:#0066FF;" d="M37.799,27.405c-0.574,0.443-0.935,0.7-1.081,0.769c-0.22,0.103-0.453,0.153-0.701,0.153
			c-0.387,0-0.705-0.133-0.956-0.397c-0.25-0.264-0.375-0.612-0.375-1.043c0-0.272,0.062-0.509,0.184-0.708
			c0.166-0.277,0.456-0.537,0.869-0.781s1.1-0.541,2.061-0.892v-0.22c0-0.558-0.089-0.939-0.266-1.147
			c-0.178-0.207-0.435-0.311-0.772-0.311c-0.256,0-0.46,0.068-0.61,0.207c-0.154,0.139-0.231,0.297-0.231,0.477l0.012,0.354
			c0,0.188-0.048,0.332-0.144,0.434s-0.221,0.152-0.375,0.152c-0.15,0-0.274-0.053-0.369-0.158
			c-0.096-0.106-0.144-0.251-0.144-0.434c0-0.351,0.179-0.672,0.537-0.965c0.357-0.293,0.86-0.439,1.508-0.439
			c0.496,0,0.903,0.084,1.221,0.25c0.239,0.127,0.417,0.324,0.53,0.593c0.073,0.175,0.11,0.533,0.11,1.074v1.897
			c0,0.533,0.01,0.86,0.03,0.98s0.054,0.2,0.101,0.24c0.047,0.041,0.101,0.062,0.162,0.062c0.064,0,0.122-0.015,0.171-0.043
			c0.085-0.053,0.25-0.201,0.494-0.445v0.342c-0.456,0.61-0.891,0.915-1.306,0.915c-0.2,0-0.358-0.068-0.477-0.207
			S37.803,27.739,37.799,27.405z M37.799,27.009v-2.13c-0.615,0.244-1.012,0.417-1.19,0.519c-0.321,0.179-0.552,0.366-0.689,0.562
			c-0.139,0.195-0.208,0.408-0.208,0.641c0,0.293,0.088,0.536,0.263,0.729s0.376,0.29,0.604,0.29
			C36.887,27.619,37.294,27.415,37.799,27.009z"/>
		<path style="fill:#0066FF;" d="M61.204,19.764v0.226c-0.537,0.053-0.976,0.16-1.315,0.32c-0.34,0.161-0.676,0.406-1.007,0.735
			c-0.332,0.33-0.606,0.697-0.824,1.103c-0.218,0.404-0.4,0.886-0.547,1.443c0.586-0.403,1.175-0.604,1.765-0.604
			c0.565,0,1.056,0.228,1.471,0.684s0.622,1.042,0.622,1.758c0,0.691-0.209,1.322-0.628,1.893c-0.505,0.691-1.172,1.037-2.002,1.037
			c-0.565,0-1.046-0.188-1.44-0.562c-0.773-0.729-1.16-1.673-1.16-2.832c0-0.74,0.148-1.444,0.445-2.112
			c0.298-0.667,0.722-1.259,1.273-1.775c0.551-0.517,1.079-0.865,1.583-1.044c0.505-0.179,0.975-0.269,1.41-0.269H61.204z
			 M57.407,24.036c-0.073,0.55-0.109,0.993-0.109,1.331c0,0.391,0.072,0.814,0.217,1.272c0.144,0.457,0.358,0.82,0.644,1.089
			c0.207,0.191,0.46,0.287,0.757,0.287c0.354,0,0.67-0.167,0.949-0.5c0.278-0.334,0.418-0.811,0.418-1.429
			c0-0.696-0.139-1.298-0.415-1.807s-0.669-0.763-1.178-0.763c-0.155,0-0.32,0.032-0.498,0.098
			C58.015,23.68,57.753,23.82,57.407,24.036z"/>
		<path style="fill:#0066FF;" d="M79.142,25.159v0.866h-1.11v2.186h-1.007v-2.186h-3.504v-0.781l3.839-5.48h0.672v5.396H79.142z
			 M77.024,25.159v-4.107l-2.906,4.107H77.024z"/>
		<path style="fill:#0066FF;" d="M94.978,20.746l2.014-0.982h0.202v6.988c0,0.464,0.019,0.753,0.058,0.867
			c0.039,0.113,0.119,0.201,0.241,0.262c0.122,0.062,0.37,0.096,0.745,0.104v0.226h-3.113v-0.226
			c0.391-0.009,0.643-0.042,0.757-0.101c0.114-0.06,0.193-0.139,0.238-0.238s0.067-0.397,0.067-0.895v-4.468
			c0-0.602-0.021-0.988-0.062-1.159c-0.028-0.131-0.08-0.227-0.155-0.287c-0.076-0.061-0.166-0.092-0.271-0.092
			c-0.151,0-0.36,0.063-0.629,0.189L94.978,20.746z"/>
		<path style="fill:#0066FF;" d="M100.214,24.121c0-0.943,0.143-1.756,0.428-2.438s0.663-1.189,1.135-1.523
			c0.367-0.265,0.745-0.396,1.136-0.396c0.635,0,1.204,0.323,1.709,0.971c0.631,0.802,0.946,1.888,0.946,3.259
			c0,0.961-0.139,1.776-0.415,2.448c-0.277,0.671-0.63,1.158-1.06,1.461c-0.429,0.304-0.843,0.455-1.242,0.455
			c-0.789,0-1.446-0.466-1.971-1.397C100.437,26.175,100.214,25.229,100.214,24.121z M101.411,24.274
			c0,1.139,0.14,2.069,0.421,2.789c0.231,0.606,0.577,0.909,1.037,0.909c0.22,0,0.448-0.099,0.684-0.296
			c0.236-0.197,0.415-0.528,0.537-0.991c0.188-0.7,0.281-1.688,0.281-2.961c0-0.943-0.098-1.731-0.293-2.361
			c-0.146-0.469-0.336-0.8-0.567-0.995c-0.167-0.135-0.369-0.202-0.604-0.202c-0.277,0-0.523,0.125-0.739,0.373
			c-0.293,0.338-0.492,0.868-0.598,1.593S101.411,23.57,101.411,24.274z"/>
		<path style="fill:#0066FF;" d="M126.664,19.935l-0.476,1.038h-2.49l-0.544,1.11c1.079,0.159,1.934,0.56,2.564,1.202
			c0.541,0.554,0.812,1.205,0.812,1.953c0,0.436-0.089,0.839-0.266,1.209s-0.399,0.686-0.669,0.945
			c-0.268,0.261-0.567,0.471-0.896,0.629c-0.468,0.224-0.948,0.336-1.44,0.336c-0.497,0-0.857-0.085-1.084-0.253
			c-0.226-0.169-0.339-0.355-0.339-0.559c0-0.114,0.047-0.215,0.141-0.303c0.094-0.087,0.212-0.131,0.354-0.131
			c0.105,0,0.198,0.017,0.277,0.049s0.215,0.116,0.406,0.25c0.305,0.212,0.614,0.317,0.928,0.317c0.476,0,0.894-0.18,1.254-0.54
			s0.54-0.799,0.54-1.315c0-0.5-0.16-0.967-0.482-1.4c-0.321-0.434-0.765-0.769-1.33-1.004c-0.443-0.184-1.048-0.289-1.812-0.317
			l1.587-3.217H126.664z"/>
	</g>
	<g>
		<path style="fill:#0066FF;" d="M44.655,13.939h6.409v0.593h-6.409V13.939z M44.655,16.217h6.409v0.604h-6.409V16.217z"/>
		<path style="fill:#0066FF;" d="M83.753,13.939h6.409v0.593h-6.409V13.939z M83.753,16.217h6.409v0.604h-6.409V16.217z"/>
		<path style="fill:#0066FF;" d="M110.188,13.939h6.409v0.593h-6.409V13.939z M110.188,16.217h6.409v0.604h-6.409V16.217z"/>
	</g>
	<g>
		<path style="fill:#0066FF;" d="M67.02,21.803h0.598v2.917h2.9v0.592h-2.9v2.899H67.02v-2.899h-2.911V24.72h2.911V21.803z"/>
	</g>
</g>
<g id="theGroup">
</g>
</svg>
