<?xml version="1.0" encoding="iso-8859-1"?>
<!-- Generator: Adobe Illustrator 16.0.0, SVG Export Plug-In . SVG Version: 6.00 Build 0)  -->
<!DOCTYPE svg PUBLIC "-//W3C//DTD SVG 1.1//EN" "http://www.w3.org/Graphics/SVG/1.1/DTD/svg11.dtd">
<svg version="1.1" id="Lager_1" xmlns="http://www.w3.org/2000/svg" xmlns:xlink="http://www.w3.org/1999/xlink" x="0px" y="0px"
	 width="65.896px" height="32.044px" viewBox="0 0 65.896 32.044" style="enable-background:new 0 0 65.896 32.044;"
	 xml:space="preserve">
<g>
	
		<line style="fill:none;stroke:#0066FF;stroke-width:0.5;stroke-linecap:square;stroke-miterlimit:10;" x1="0.586" y1="15.242" x2="26.172" y2="15.242"/>
	<g>
		<path style="fill:#0066FF;" d="M1.465,2.924l2.014-0.982h0.202V8.93c0,0.464,0.019,0.753,0.058,0.867
			c0.039,0.113,0.119,0.201,0.241,0.262c0.122,0.062,0.37,0.096,0.745,0.104v0.226H1.611v-0.226
			c0.391-0.009,0.643-0.042,0.757-0.102c0.114-0.059,0.193-0.138,0.238-0.237c0.044-0.1,0.067-0.398,0.067-0.895V4.462
			c0-0.603-0.021-0.988-0.061-1.159C2.584,3.172,2.532,3.076,2.457,3.016C2.381,2.954,2.291,2.924,2.185,2.924
			c-0.15,0-0.36,0.063-0.628,0.189L1.465,2.924z"/>
		<path style="fill:#0066FF;" d="M5.759,12.47v-0.269c0.419-0.139,0.744-0.354,0.974-0.644c0.229-0.291,0.345-0.6,0.345-0.925
			c0-0.077-0.018-0.143-0.055-0.195c-0.028-0.037-0.057-0.055-0.085-0.055c-0.045,0-0.143,0.04-0.293,0.122
			c-0.073,0.036-0.151,0.055-0.232,0.055c-0.199,0-0.358-0.06-0.476-0.177c-0.118-0.118-0.177-0.281-0.177-0.488
			c0-0.2,0.076-0.371,0.229-0.513C6.14,9.239,6.327,9.168,6.546,9.168c0.269,0,0.507,0.117,0.717,0.351
			c0.209,0.234,0.314,0.544,0.314,0.931c0,0.419-0.146,0.809-0.437,1.169S6.39,12.263,5.759,12.47z"/>
		<path style="fill:#0066FF;" d="M14.801,2.112l-0.476,1.037h-2.49l-0.543,1.111c1.078,0.158,1.933,0.56,2.563,1.202
			c0.541,0.554,0.812,1.204,0.812,1.953c0,0.436-0.089,0.838-0.266,1.209c-0.177,0.37-0.4,0.686-0.668,0.945
			c-0.269,0.261-0.568,0.471-0.897,0.629c-0.468,0.224-0.948,0.336-1.44,0.336c-0.497,0-0.858-0.085-1.083-0.254
			c-0.226-0.168-0.339-0.354-0.339-0.558c0-0.114,0.047-0.215,0.14-0.303c0.094-0.087,0.212-0.131,0.354-0.131
			c0.105,0,0.198,0.016,0.277,0.049c0.08,0.032,0.215,0.116,0.406,0.25c0.305,0.212,0.614,0.317,0.928,0.317
			c0.476,0,0.894-0.18,1.254-0.54c0.36-0.36,0.54-0.799,0.54-1.315c0-0.5-0.161-0.968-0.482-1.4
			c-0.321-0.434-0.765-0.769-1.331-1.004c-0.443-0.184-1.048-0.289-1.812-0.317l1.587-3.217H14.801z"/>
		<path style="fill:#0066FF;" d="M20.97,1.709v4.09c0.452-0.497,0.81-0.815,1.074-0.955c0.265-0.141,0.529-0.211,0.794-0.211
			c0.317,0,0.59,0.088,0.817,0.263c0.228,0.175,0.397,0.449,0.507,0.824c0.077,0.26,0.116,0.736,0.116,1.428v1.978
			c0,0.354,0.028,0.596,0.085,0.727c0.041,0.098,0.11,0.175,0.208,0.231c0.098,0.058,0.276,0.086,0.537,0.086v0.22h-2.747v-0.22
			h0.128c0.26,0,0.441-0.04,0.543-0.119c0.102-0.079,0.173-0.196,0.213-0.351c0.012-0.065,0.018-0.257,0.018-0.574V7.147
			c0-0.61-0.031-1.011-0.094-1.202c-0.063-0.191-0.164-0.335-0.302-0.431s-0.305-0.144-0.5-0.144c-0.199,0-0.407,0.053-0.623,0.159
			c-0.216,0.105-0.474,0.319-0.775,0.641v2.954c0,0.383,0.021,0.62,0.064,0.714c0.042,0.094,0.122,0.172,0.238,0.235
			c0.116,0.063,0.316,0.095,0.601,0.095v0.22h-2.771v-0.22c0.248,0,0.443-0.039,0.586-0.116c0.081-0.041,0.146-0.118,0.195-0.231
			c0.049-0.114,0.073-0.347,0.073-0.696v-5.06c0-0.639-0.016-1.031-0.046-1.178c-0.031-0.146-0.078-0.247-0.141-0.3
			s-0.147-0.079-0.253-0.079c-0.086,0-0.224,0.032-0.415,0.098l-0.086-0.214l1.673-0.684H20.97z"/>
	</g>
	<g>
		<path style="fill:#0066FF;" d="M40.373,14.483c0-0.944,0.143-1.757,0.428-2.438s0.663-1.189,1.135-1.523
			c0.367-0.264,0.745-0.396,1.136-0.396c0.635,0,1.204,0.323,1.709,0.971c0.631,0.802,0.946,1.888,0.946,3.259
			c0,0.961-0.139,1.776-0.415,2.448c-0.277,0.671-0.63,1.158-1.06,1.461c-0.429,0.304-0.843,0.455-1.242,0.455
			c-0.789,0-1.446-0.466-1.971-1.397C40.596,16.535,40.373,15.59,40.373,14.483z M41.57,14.636c0,1.14,0.14,2.069,0.421,2.789
			c0.231,0.606,0.577,0.909,1.037,0.909c0.22,0,0.448-0.099,0.684-0.296c0.236-0.197,0.415-0.528,0.537-0.991
			c0.188-0.7,0.281-1.687,0.281-2.961c0-0.943-0.098-1.73-0.293-2.361c-0.146-0.468-0.336-0.8-0.567-0.995
			c-0.167-0.135-0.369-0.201-0.604-0.201c-0.277,0-0.523,0.124-0.739,0.372c-0.293,0.338-0.492,0.869-0.598,1.593
			C41.623,13.218,41.57,13.932,41.57,14.636z"/>
		<path style="fill:#0066FF;" d="M46.656,20.653v-0.269c0.419-0.138,0.743-0.353,0.973-0.644c0.23-0.291,0.346-0.6,0.346-0.925
			c0-0.077-0.019-0.143-0.056-0.195c-0.028-0.037-0.057-0.055-0.085-0.055c-0.045,0-0.143,0.04-0.293,0.122
			c-0.073,0.036-0.15,0.055-0.232,0.055c-0.199,0-0.357-0.059-0.476-0.177s-0.177-0.281-0.177-0.488c0-0.199,0.076-0.37,0.229-0.513
			s0.339-0.214,0.559-0.214c0.269,0,0.507,0.117,0.717,0.351c0.21,0.234,0.314,0.545,0.314,0.931c0,0.42-0.146,0.81-0.437,1.169
			C47.747,20.162,47.286,20.446,46.656,20.653z"/>
		<path style="fill:#0066FF;" d="M50.906,11.871c0.236-0.558,0.534-0.988,0.895-1.291c0.359-0.303,0.809-0.455,1.346-0.455
			c0.663,0,1.172,0.216,1.525,0.647c0.269,0.321,0.403,0.665,0.403,1.031c0,0.603-0.379,1.225-1.136,1.867
			c0.509,0.2,0.894,0.484,1.154,0.854c0.26,0.371,0.391,0.806,0.391,1.307c0,0.716-0.229,1.336-0.684,1.861
			c-0.595,0.684-1.455,1.025-2.582,1.025c-0.558,0-0.938-0.069-1.139-0.207c-0.201-0.139-0.302-0.287-0.302-0.446
			c0-0.118,0.048-0.222,0.144-0.312c0.095-0.089,0.21-0.134,0.345-0.134c0.102,0,0.205,0.017,0.312,0.049
			c0.068,0.021,0.226,0.095,0.47,0.223s0.413,0.204,0.507,0.229c0.15,0.044,0.311,0.066,0.481,0.066c0.415,0,0.776-0.16,1.084-0.482
			c0.307-0.321,0.46-0.701,0.46-1.141c0-0.322-0.07-0.635-0.213-0.94c-0.106-0.228-0.222-0.4-0.348-0.519
			c-0.176-0.162-0.416-0.31-0.721-0.442c-0.305-0.132-0.616-0.198-0.934-0.198H52.17v-0.184c0.321-0.04,0.644-0.156,0.967-0.348
			c0.324-0.191,0.559-0.421,0.705-0.689s0.22-0.563,0.22-0.885c0-0.419-0.131-0.758-0.394-1.017
			c-0.263-0.258-0.589-0.388-0.979-0.388c-0.631,0-1.157,0.338-1.581,1.014L50.906,11.871z"/>
		<path style="fill:#0066FF;" d="M61.679,9.894v4.089c0.452-0.496,0.81-0.814,1.074-0.955s0.529-0.211,0.794-0.211
			c0.317,0,0.59,0.088,0.817,0.263c0.229,0.175,0.397,0.45,0.507,0.824c0.077,0.261,0.116,0.736,0.116,1.428v1.978
			c0,0.354,0.028,0.597,0.085,0.727c0.041,0.098,0.11,0.175,0.208,0.232c0.098,0.057,0.276,0.085,0.537,0.085v0.22H63.07v-0.22
			h0.129c0.26,0,0.441-0.04,0.543-0.119s0.173-0.196,0.213-0.351c0.013-0.065,0.019-0.257,0.019-0.574v-1.978
			c0-0.61-0.031-1.011-0.095-1.202c-0.062-0.191-0.163-0.334-0.302-0.43s-0.306-0.144-0.501-0.144c-0.199,0-0.406,0.053-0.622,0.158
			c-0.216,0.106-0.474,0.319-0.775,0.641v2.954c0,0.383,0.021,0.621,0.064,0.715c0.043,0.093,0.122,0.172,0.238,0.234
			c0.115,0.063,0.316,0.095,0.601,0.095v0.22h-2.771v-0.22c0.248,0,0.443-0.039,0.586-0.116c0.081-0.04,0.146-0.118,0.195-0.231
			c0.049-0.114,0.073-0.346,0.073-0.696v-5.06c0-0.639-0.016-1.031-0.046-1.178s-0.077-0.246-0.141-0.299s-0.147-0.08-0.253-0.08
			c-0.086,0-0.224,0.033-0.415,0.098l-0.086-0.213l1.673-0.684H61.679z"/>
	</g>
	<g>
		<path style="fill:#0066FF;" d="M15.768,19.935l-0.476,1.038h-2.49l-0.543,1.11c1.078,0.159,1.933,0.56,2.563,1.202
			c0.541,0.554,0.812,1.205,0.812,1.953c0,0.436-0.089,0.839-0.266,1.209c-0.177,0.37-0.4,0.686-0.668,0.945
			c-0.269,0.261-0.568,0.471-0.897,0.629c-0.468,0.224-0.948,0.336-1.44,0.336c-0.497,0-0.858-0.085-1.083-0.253
			c-0.226-0.169-0.339-0.355-0.339-0.559c0-0.114,0.047-0.215,0.14-0.303c0.094-0.087,0.212-0.131,0.354-0.131
			c0.105,0,0.198,0.017,0.277,0.049c0.08,0.032,0.215,0.116,0.406,0.25c0.305,0.212,0.614,0.317,0.928,0.317
			c0.476,0,0.894-0.18,1.254-0.54c0.36-0.36,0.54-0.799,0.54-1.315c0-0.5-0.161-0.967-0.482-1.4s-0.765-0.769-1.331-1.004
			c-0.443-0.184-1.048-0.289-1.812-0.317l1.587-3.217H15.768z"/>
	</g>
	<g>
		<path style="fill:#0066FF;" d="M29.952,13.939h6.409v0.593h-6.409V13.939z M29.952,16.217h6.409v0.604h-6.409V16.217z"/>
	</g>
</g>
<g id="theGroup">
</g>
</svg>
