<?xml version="1.0" encoding="iso-8859-1"?>
<!-- Generator: Adobe Illustrator 16.0.0, SVG Export Plug-In . SVG Version: 6.00 Build 0)  -->
<!DOCTYPE svg PUBLIC "-//W3C//DTD SVG 1.1//EN" "http://www.w3.org/Graphics/SVG/1.1/DTD/svg11.dtd">
<svg version="1.1" id="Lager_1" xmlns="http://www.w3.org/2000/svg" xmlns:xlink="http://www.w3.org/1999/xlink" x="0px" y="0px"
	 width="60.969px" height="32.655px" viewBox="0 0 60.969 32.655" style="enable-background:new 0 0 60.969 32.655;"
	 xml:space="preserve">
<g>
	
		<line style="fill:none;stroke:#0066FF;stroke-width:0.5;stroke-linecap:square;stroke-miterlimit:10;" x1="0.25" y1="15.854" x2="60.719" y2="15.854"/>
	<g>
		<path style="fill:#0066FF;" d="M6.763,9.407L6.183,11H1.3v-0.226c1.437-1.311,2.447-2.381,3.033-3.211s0.879-1.589,0.879-2.276
			c0-0.525-0.161-0.956-0.482-1.294S4.024,3.486,3.576,3.486c-0.407,0-0.772,0.119-1.095,0.357C2.157,4.082,1.918,4.431,1.764,4.891
			H1.538C1.64,4.138,1.901,3.56,2.322,3.157C2.743,2.754,3.269,2.553,3.9,2.553c0.671,0,1.232,0.216,1.682,0.647
			c0.449,0.431,0.674,0.94,0.674,1.526c0,0.419-0.098,0.838-0.293,1.257C5.662,6.642,5.173,7.34,4.498,8.076
			C3.485,9.183,2.852,9.851,2.6,10.078h2.161c0.439,0,0.748-0.016,0.924-0.049c0.177-0.032,0.337-0.098,0.479-0.198
			c0.143-0.1,0.267-0.241,0.373-0.424H6.763z"/>
		<path style="fill:#0066FF;" d="M12.707,2.724l-0.476,1.038h-2.49L9.198,4.872c1.078,0.159,1.933,0.56,2.563,1.202
			c0.541,0.554,0.812,1.205,0.812,1.953c0,0.436-0.089,0.838-0.266,1.209c-0.177,0.37-0.4,0.686-0.668,0.946
			s-0.568,0.47-0.897,0.628c-0.468,0.224-0.948,0.336-1.44,0.336c-0.497,0-0.858-0.084-1.083-0.253
			c-0.226-0.168-0.339-0.355-0.339-0.558c0-0.114,0.047-0.215,0.14-0.302c0.094-0.087,0.212-0.131,0.354-0.131
			c0.105,0,0.198,0.016,0.277,0.049c0.08,0.033,0.215,0.116,0.406,0.25c0.305,0.212,0.614,0.317,0.928,0.317
			c0.476,0,0.894-0.18,1.254-0.54c0.36-0.36,0.54-0.798,0.54-1.315c0-0.5-0.161-0.967-0.482-1.4
			c-0.321-0.434-0.765-0.768-1.331-1.004C9.523,6.074,8.919,5.969,8.154,5.94l1.587-3.217H12.707z"/>
		<path style="fill:#0066FF;" d="M13.983,6.911c0-0.944,0.143-1.757,0.427-2.438c0.285-0.681,0.663-1.189,1.135-1.523
			c0.366-0.264,0.745-0.396,1.135-0.396c0.635,0,1.205,0.323,1.709,0.971c0.631,0.801,0.946,1.888,0.946,3.259
			c0,0.96-0.139,1.776-0.415,2.448c-0.277,0.671-0.63,1.159-1.059,1.462c-0.43,0.303-0.843,0.455-1.242,0.455
			c-0.79,0-1.447-0.466-1.971-1.397C14.205,8.963,13.983,8.018,13.983,6.911z M15.179,7.063c0,1.139,0.14,2.069,0.421,2.789
			c0.231,0.606,0.578,0.909,1.037,0.909c0.22,0,0.448-0.098,0.684-0.296c0.236-0.197,0.415-0.528,0.537-0.992
			c0.188-0.7,0.281-1.687,0.281-2.96c0-0.944-0.098-1.731-0.293-2.362c-0.146-0.468-0.336-0.799-0.568-0.995
			c-0.167-0.135-0.368-0.202-0.604-0.202c-0.277,0-0.523,0.124-0.739,0.373c-0.293,0.337-0.492,0.869-0.598,1.593
			S15.179,6.359,15.179,7.063z"/>
		<path style="fill:#0066FF;" d="M36.295,2.724l-0.477,1.038h-2.49l-0.543,1.111c1.078,0.159,1.934,0.56,2.564,1.202
			c0.541,0.554,0.811,1.205,0.811,1.953c0,0.436-0.088,0.838-0.266,1.209c-0.176,0.37-0.398,0.686-0.668,0.946
			c-0.268,0.26-0.568,0.47-0.896,0.628c-0.469,0.224-0.949,0.336-1.441,0.336c-0.496,0-0.857-0.084-1.083-0.253
			c-0.226-0.168-0.339-0.355-0.339-0.558c0-0.114,0.047-0.215,0.14-0.302c0.094-0.087,0.212-0.131,0.354-0.131
			c0.105,0,0.199,0.016,0.277,0.049c0.08,0.033,0.215,0.116,0.406,0.25c0.305,0.212,0.615,0.317,0.928,0.317
			c0.477,0,0.895-0.18,1.254-0.54c0.361-0.36,0.541-0.798,0.541-1.315c0-0.5-0.16-0.967-0.482-1.4
			c-0.322-0.434-0.766-0.768-1.33-1.004c-0.443-0.184-1.049-0.289-1.813-0.317l1.586-3.217H36.295z"/>
		<path style="fill:#0066FF;" d="M43.033,3.535l2.014-0.982h0.202v6.988c0,0.464,0.019,0.753,0.058,0.867
			c0.039,0.114,0.119,0.201,0.241,0.262s0.37,0.096,0.745,0.104V11H43.18v-0.226c0.391-0.008,0.643-0.042,0.757-0.101
			c0.114-0.059,0.193-0.138,0.238-0.238s0.067-0.398,0.067-0.895V5.073c0-0.602-0.021-0.988-0.062-1.159
			c-0.028-0.13-0.08-0.226-0.155-0.287c-0.076-0.061-0.166-0.092-0.271-0.092c-0.151,0-0.36,0.063-0.629,0.189L43.033,3.535z"/>
		<path style="fill:#0066FF;" d="M53.244,2.724l-0.476,1.038h-2.49l-0.544,1.111c1.079,0.159,1.934,0.56,2.564,1.202
			c0.541,0.554,0.812,1.205,0.812,1.953c0,0.436-0.089,0.838-0.266,1.209c-0.177,0.37-0.399,0.686-0.669,0.946
			c-0.268,0.26-0.567,0.47-0.896,0.628c-0.468,0.224-0.948,0.336-1.44,0.336c-0.497,0-0.857-0.084-1.084-0.253
			c-0.226-0.168-0.339-0.355-0.339-0.558c0-0.114,0.047-0.215,0.141-0.302s0.212-0.131,0.354-0.131c0.105,0,0.198,0.016,0.277,0.049
			s0.215,0.116,0.406,0.25c0.305,0.212,0.614,0.317,0.928,0.317c0.476,0,0.894-0.18,1.254-0.54c0.36-0.36,0.54-0.798,0.54-1.315
			c0-0.5-0.16-0.967-0.482-1.4c-0.321-0.434-0.765-0.768-1.33-1.004c-0.443-0.184-1.048-0.289-1.812-0.317l1.587-3.217H53.244z"/>
		<path style="fill:#0066FF;" d="M54.52,6.911c0-0.944,0.143-1.757,0.428-2.438c0.285-0.681,0.663-1.189,1.135-1.523
			c0.367-0.264,0.745-0.396,1.136-0.396c0.635,0,1.204,0.323,1.709,0.971c0.631,0.801,0.946,1.888,0.946,3.259
			c0,0.96-0.139,1.776-0.415,2.448c-0.277,0.671-0.63,1.159-1.06,1.462c-0.429,0.303-0.843,0.455-1.242,0.455
			c-0.789,0-1.446-0.466-1.971-1.397C54.742,8.963,54.52,8.018,54.52,6.911z M55.717,7.063c0,1.139,0.14,2.069,0.421,2.789
			c0.231,0.606,0.577,0.909,1.037,0.909c0.22,0,0.448-0.098,0.684-0.296c0.236-0.197,0.415-0.528,0.537-0.992
			c0.188-0.7,0.281-1.687,0.281-2.96c0-0.944-0.098-1.731-0.293-2.362c-0.146-0.468-0.336-0.799-0.567-0.995
			c-0.167-0.135-0.369-0.202-0.604-0.202c-0.277,0-0.523,0.124-0.739,0.373c-0.293,0.337-0.492,0.869-0.598,1.593
			S55.717,6.359,55.717,7.063z"/>
	</g>
	<g>
		<path style="fill:#0066FF;" d="M32.902,20.546l-0.476,1.038h-2.49l-0.543,1.11c1.078,0.159,1.933,0.56,2.563,1.202
			c0.542,0.554,0.812,1.205,0.812,1.953c0,0.436-0.089,0.839-0.266,1.209s-0.399,0.686-0.668,0.945
			c-0.269,0.261-0.568,0.471-0.897,0.629c-0.468,0.224-0.948,0.336-1.44,0.336c-0.497,0-0.858-0.085-1.083-0.253
			c-0.226-0.169-0.339-0.355-0.339-0.559c0-0.114,0.047-0.215,0.14-0.303c0.094-0.087,0.212-0.131,0.354-0.131
			c0.105,0,0.198,0.017,0.277,0.049c0.08,0.032,0.215,0.116,0.406,0.25c0.305,0.212,0.614,0.317,0.928,0.317
			c0.476,0,0.894-0.18,1.254-0.54c0.36-0.36,0.54-0.799,0.54-1.315c0-0.5-0.161-0.967-0.482-1.4s-0.765-0.769-1.331-1.004
			c-0.443-0.184-1.048-0.289-1.812-0.317l1.587-3.217H32.902z"/>
	</g>
	<g>
		<path style="fill:#0066FF;" d="M24.95,4.591h0.598v2.917h2.899v0.592h-2.899V11H24.95V8.101h-2.912V7.509h2.912V4.591z"/>
		<path style="fill:#0066FF;" d="M40.407,7.802c0,0.187-0.066,0.347-0.199,0.479c-0.132,0.132-0.289,0.199-0.473,0.199
			c-0.188,0-0.347-0.066-0.479-0.199c-0.132-0.132-0.198-0.292-0.198-0.479s0.066-0.347,0.198-0.479
			c0.133-0.132,0.292-0.199,0.479-0.199c0.184,0,0.341,0.066,0.473,0.199C40.341,7.455,40.407,7.615,40.407,7.802z"/>
	</g>
</g>
<g id="theGroup">
</g>
</svg>
