<?xml version="1.0" encoding="iso-8859-1"?>
<!-- Generator: Adobe Illustrator 16.0.0, SVG Export Plug-In . SVG Version: 6.00 Build 0)  -->
<!DOCTYPE svg PUBLIC "-//W3C//DTD SVG 1.1//EN" "http://www.w3.org/Graphics/SVG/1.1/DTD/svg11.dtd">
<svg version="1.1" id="Lager_1" xmlns="http://www.w3.org/2000/svg" xmlns:xlink="http://www.w3.org/1999/xlink" x="0px" y="0px"
	 width="14.199px" height="15.818px" viewBox="0 0 14.199 15.818" style="enable-background:new 0 0 14.199 15.818;"
	 xml:space="preserve">
<g>
	<g>
		<path d="M13.948,4.595v0.501h-0.642V6.36h-0.582V5.096h-2.025V4.645l2.219-3.169h0.389v3.119H13.948z M12.725,4.595V2.22
			l-1.68,2.375H12.725z"/>
	</g>
	<g>
		<path d="M5.731,10.392l-0.58,1.593H0.269v-0.226c1.437-1.311,2.447-2.381,3.033-3.211s0.879-1.589,0.879-2.276
			c0-0.524-0.161-0.956-0.482-1.294S2.993,4.471,2.545,4.471c-0.407,0-0.772,0.119-1.095,0.357C1.126,5.067,0.887,5.416,0.732,5.875
			H0.507C0.608,5.123,0.87,4.544,1.291,4.142c0.421-0.403,0.947-0.604,1.578-0.604c0.671,0,1.232,0.216,1.682,0.647
			C5,4.616,5.225,5.125,5.225,5.71c0,0.419-0.098,0.839-0.293,1.258C4.63,7.627,4.142,8.325,3.467,9.061
			c-1.013,1.107-1.646,1.774-1.898,2.002h2.161c0.439,0,0.748-0.016,0.924-0.049c0.177-0.032,0.337-0.099,0.479-0.198
			c0.143-0.1,0.267-0.241,0.373-0.424H5.731z"/>
	</g>
	<g>
		<path d="M6.771,4.328h3.706v0.349H6.771V4.328z"/>
	</g>
</g>
<g id="theGroup">
</g>
</svg>
