<?xml version="1.0" encoding="iso-8859-1"?>
<!-- Generator: Adobe Illustrator 16.0.0, SVG Export Plug-In . SVG Version: 6.00 Build 0)  -->
<!DOCTYPE svg PUBLIC "-//W3C//DTD SVG 1.1//EN" "http://www.w3.org/Graphics/SVG/1.1/DTD/svg11.dtd">
<svg version="1.1" id="Lager_1" xmlns="http://www.w3.org/2000/svg" xmlns:xlink="http://www.w3.org/1999/xlink" x="0px" y="0px"
	 width="185.825px" height="33.315px" viewBox="0 0 185.825 33.315" style="enable-background:new 0 0 185.825 33.315;"
	 xml:space="preserve">
<g>
	<path style="fill:none;stroke:#000000;stroke-width:0.5;stroke-miterlimit:10;" d="M0,16.483h12.969 M27.109,16.483h81.015"/>
	<g>
		<path d="M6.511,10.038l-0.58,1.593H1.048v-0.226c1.437-1.311,2.447-2.381,3.033-3.211S4.96,6.605,4.96,5.918
			c0-0.525-0.161-0.956-0.482-1.294S3.772,4.117,3.325,4.117c-0.407,0-0.772,0.119-1.095,0.357C1.906,4.712,1.667,5.062,1.512,5.521
			H1.287C1.388,4.769,1.649,4.19,2.071,3.788c0.421-0.403,0.947-0.604,1.578-0.604c0.671,0,1.232,0.216,1.682,0.647
			c0.449,0.431,0.674,0.94,0.674,1.526c0,0.419-0.098,0.838-0.293,1.257C5.41,7.273,4.922,7.971,4.247,8.707
			c-1.013,1.107-1.646,1.774-1.898,2.002h2.161c0.439,0,0.748-0.016,0.924-0.049c0.177-0.032,0.337-0.098,0.479-0.198
			c0.143-0.1,0.267-0.241,0.373-0.424H6.511z"/>
	</g>
	<g>
		<path d="M6.511,27.89l-0.58,1.593H1.048v-0.226c1.437-1.311,2.447-2.381,3.033-3.211S4.96,24.457,4.96,23.77
			c0-0.525-0.161-0.956-0.482-1.294s-0.706-0.507-1.154-0.507c-0.407,0-0.772,0.119-1.095,0.357
			c-0.324,0.238-0.562,0.587-0.717,1.047H1.287c0.102-0.753,0.363-1.331,0.784-1.733c0.421-0.403,0.947-0.604,1.578-0.604
			c0.671,0,1.232,0.216,1.682,0.646c0.449,0.432,0.674,0.94,0.674,1.526c0,0.419-0.098,0.838-0.293,1.257
			c-0.301,0.66-0.79,1.357-1.465,2.094c-1.013,1.107-1.646,1.774-1.898,2.002h2.161c0.439,0,0.748-0.016,0.924-0.049
			c0.177-0.032,0.337-0.099,0.479-0.198c0.143-0.1,0.267-0.241,0.373-0.424H6.511z"/>
	</g>
	<g>
		<path d="M33.63,10.038l-0.58,1.593h-4.883v-0.226c1.437-1.311,2.447-2.381,3.033-3.211s0.879-1.589,0.879-2.276
			c0-0.525-0.161-0.956-0.482-1.294s-0.706-0.507-1.154-0.507c-0.407,0-0.772,0.119-1.095,0.357
			c-0.324,0.238-0.562,0.587-0.717,1.047h-0.226c0.102-0.753,0.363-1.331,0.784-1.733c0.421-0.403,0.947-0.604,1.578-0.604
			c0.671,0,1.232,0.216,1.682,0.647c0.449,0.431,0.674,0.94,0.674,1.526c0,0.419-0.098,0.838-0.293,1.257
			c-0.301,0.659-0.79,1.357-1.465,2.093c-1.013,1.107-1.646,1.774-1.898,2.002h2.161c0.439,0,0.748-0.016,0.924-0.049
			c0.177-0.032,0.337-0.098,0.479-0.198c0.143-0.1,0.267-0.241,0.373-0.424H33.63z"/>
	</g>
	<g>
		<path d="M45.886,10.038l-0.58,1.593h-4.883v-0.226c1.437-1.311,2.447-2.381,3.033-3.211s0.879-1.589,0.879-2.276
			c0-0.525-0.161-0.956-0.482-1.294S43.147,4.117,42.7,4.117c-0.407,0-0.772,0.119-1.095,0.357
			c-0.324,0.238-0.562,0.587-0.717,1.047h-0.226c0.102-0.753,0.363-1.331,0.784-1.733c0.421-0.403,0.947-0.604,1.578-0.604
			c0.671,0,1.232,0.216,1.682,0.647c0.449,0.431,0.674,0.94,0.674,1.526c0,0.419-0.098,0.838-0.293,1.257
			c-0.301,0.659-0.79,1.357-1.465,2.093c-1.013,1.107-1.646,1.774-1.898,2.002h2.161c0.439,0,0.748-0.016,0.924-0.049
			c0.177-0.032,0.337-0.098,0.479-0.198c0.143-0.1,0.267-0.241,0.373-0.424H45.886z"/>
		<path d="M58.149,10.038l-0.58,1.593h-4.883v-0.226c1.437-1.311,2.447-2.381,3.033-3.211s0.879-1.589,0.879-2.276
			c0-0.525-0.161-0.956-0.482-1.294s-0.706-0.507-1.154-0.507c-0.407,0-0.772,0.119-1.095,0.357
			c-0.324,0.238-0.562,0.587-0.717,1.047h-0.226c0.102-0.753,0.363-1.331,0.784-1.733c0.421-0.403,0.947-0.604,1.578-0.604
			c0.671,0,1.232,0.216,1.682,0.647c0.449,0.431,0.674,0.94,0.674,1.526c0,0.419-0.098,0.838-0.293,1.257
			c-0.301,0.659-0.79,1.357-1.465,2.093c-1.013,1.107-1.646,1.774-1.898,2.002h2.161c0.439,0,0.748-0.016,0.924-0.049
			c0.177-0.032,0.337-0.098,0.479-0.198c0.143-0.1,0.267-0.241,0.373-0.424H58.149z"/>
		<path d="M70.411,10.038l-0.58,1.593h-4.883v-0.226c1.437-1.311,2.447-2.381,3.033-3.211s0.879-1.589,0.879-2.276
			c0-0.525-0.161-0.956-0.482-1.294s-0.706-0.507-1.154-0.507c-0.407,0-0.772,0.119-1.095,0.357
			c-0.324,0.238-0.562,0.587-0.717,1.047h-0.226c0.102-0.753,0.363-1.331,0.784-1.733c0.421-0.403,0.947-0.604,1.578-0.604
			c0.671,0,1.232,0.216,1.682,0.647c0.449,0.431,0.674,0.94,0.674,1.526c0,0.419-0.098,0.838-0.293,1.257
			c-0.301,0.659-0.79,1.357-1.465,2.093c-1.013,1.107-1.646,1.774-1.898,2.002h2.161c0.439,0,0.748-0.016,0.924-0.049
			c0.177-0.032,0.337-0.098,0.479-0.198c0.143-0.1,0.267-0.241,0.373-0.424H70.411z"/>
		<path d="M82.674,10.038l-0.58,1.593h-4.883v-0.226c1.437-1.311,2.447-2.381,3.033-3.211s0.879-1.589,0.879-2.276
			c0-0.525-0.161-0.956-0.482-1.294s-0.706-0.507-1.154-0.507c-0.407,0-0.772,0.119-1.095,0.357
			c-0.324,0.238-0.562,0.587-0.717,1.047h-0.226c0.102-0.753,0.363-1.331,0.784-1.733c0.421-0.403,0.947-0.604,1.578-0.604
			c0.671,0,1.232,0.216,1.682,0.647c0.449,0.431,0.674,0.94,0.674,1.526c0,0.419-0.098,0.838-0.293,1.257
			c-0.301,0.659-0.79,1.357-1.465,2.093c-1.013,1.107-1.646,1.774-1.898,2.002h2.161c0.439,0,0.748-0.016,0.924-0.049
			c0.177-0.032,0.337-0.098,0.479-0.198c0.143-0.1,0.267-0.241,0.373-0.424H82.674z"/>
		<path d="M94.936,10.038l-0.58,1.593h-4.883v-0.226c1.437-1.311,2.447-2.381,3.033-3.211s0.879-1.589,0.879-2.276
			c0-0.525-0.161-0.956-0.482-1.294s-0.706-0.507-1.154-0.507c-0.407,0-0.772,0.119-1.095,0.357
			c-0.324,0.238-0.562,0.587-0.717,1.047h-0.226c0.102-0.753,0.363-1.331,0.784-1.733c0.421-0.403,0.947-0.604,1.578-0.604
			c0.671,0,1.232,0.216,1.682,0.647c0.449,0.431,0.674,0.94,0.674,1.526c0,0.419-0.098,0.838-0.293,1.257
			c-0.301,0.659-0.79,1.357-1.465,2.093c-1.013,1.107-1.646,1.774-1.898,2.002h2.161c0.439,0,0.748-0.016,0.924-0.049
			c0.177-0.032,0.337-0.098,0.479-0.198c0.143-0.1,0.267-0.241,0.372-0.424H94.936z"/>
		<path d="M107.199,10.038l-0.58,1.593h-4.883v-0.226c1.437-1.311,2.447-2.381,3.033-3.211s0.879-1.589,0.879-2.276
			c0-0.525-0.16-0.956-0.481-1.294c-0.322-0.338-0.706-0.507-1.154-0.507c-0.406,0-0.771,0.119-1.096,0.357
			c-0.323,0.238-0.562,0.587-0.717,1.047h-0.226c0.102-0.753,0.363-1.331,0.784-1.733c0.421-0.403,0.947-0.604,1.578-0.604
			c0.671,0,1.231,0.216,1.681,0.647c0.45,0.431,0.675,0.94,0.675,1.526c0,0.419-0.098,0.838-0.293,1.257
			c-0.301,0.659-0.789,1.357-1.465,2.093c-1.014,1.107-1.646,1.774-1.898,2.002h2.161c0.439,0,0.747-0.016,0.925-0.049
			c0.177-0.032,0.336-0.098,0.479-0.198c0.143-0.1,0.267-0.241,0.373-0.424H107.199z"/>
	</g>
	<g>
		<path d="M52.019,27.86l-0.58,1.593h-4.883v-0.226c1.437-1.311,2.447-2.381,3.033-3.211s0.879-1.589,0.879-2.276
			c0-0.525-0.161-0.956-0.482-1.294s-0.706-0.507-1.154-0.507c-0.407,0-0.772,0.119-1.095,0.357
			c-0.324,0.238-0.562,0.587-0.717,1.047h-0.226c0.102-0.753,0.363-1.331,0.784-1.733c0.421-0.403,0.947-0.604,1.578-0.604
			c0.671,0,1.232,0.216,1.682,0.646c0.449,0.432,0.674,0.94,0.674,1.526c0,0.419-0.098,0.838-0.293,1.257
			c-0.301,0.66-0.79,1.357-1.465,2.094c-1.013,1.107-1.646,1.774-1.898,2.002h2.161c0.439,0,0.748-0.016,0.924-0.049
			c0.177-0.032,0.337-0.099,0.479-0.198c0.143-0.1,0.267-0.241,0.373-0.424H52.019z"/>
		<path d="M64.282,27.86l-0.58,1.593h-4.883v-0.226c1.437-1.311,2.447-2.381,3.033-3.211s0.879-1.589,0.879-2.276
			c0-0.525-0.161-0.956-0.482-1.294s-0.706-0.507-1.154-0.507c-0.407,0-0.772,0.119-1.095,0.357
			c-0.324,0.238-0.562,0.587-0.717,1.047h-0.226c0.102-0.753,0.363-1.331,0.784-1.733c0.421-0.403,0.947-0.604,1.578-0.604
			c0.671,0,1.232,0.216,1.682,0.646c0.449,0.432,0.674,0.94,0.674,1.526c0,0.419-0.098,0.838-0.293,1.257
			c-0.301,0.66-0.79,1.357-1.465,2.094c-1.013,1.107-1.646,1.774-1.898,2.002h2.161c0.439,0,0.748-0.016,0.924-0.049
			c0.177-0.032,0.337-0.099,0.479-0.198c0.143-0.1,0.267-0.241,0.373-0.424H64.282z"/>
		<path d="M76.544,27.86l-0.58,1.593h-4.883v-0.226c1.437-1.311,2.447-2.381,3.033-3.211s0.879-1.589,0.879-2.276
			c0-0.525-0.161-0.956-0.482-1.294s-0.706-0.507-1.154-0.507c-0.407,0-0.772,0.119-1.095,0.357
			c-0.324,0.238-0.562,0.587-0.717,1.047h-0.226c0.102-0.753,0.363-1.331,0.784-1.733c0.421-0.403,0.947-0.604,1.578-0.604
			c0.671,0,1.232,0.216,1.682,0.646c0.449,0.432,0.674,0.94,0.674,1.526c0,0.419-0.098,0.838-0.293,1.257
			c-0.301,0.66-0.79,1.357-1.465,2.094c-1.013,1.107-1.646,1.774-1.898,2.002h2.161c0.439,0,0.748-0.016,0.924-0.049
			c0.177-0.032,0.337-0.099,0.479-0.198c0.143-0.1,0.267-0.241,0.373-0.424H76.544z"/>
		<path d="M88.807,27.86l-0.58,1.593h-4.883v-0.226c1.437-1.311,2.447-2.381,3.033-3.211s0.879-1.589,0.879-2.276
			c0-0.525-0.161-0.956-0.482-1.294s-0.706-0.507-1.154-0.507c-0.407,0-0.772,0.119-1.095,0.357
			c-0.324,0.238-0.562,0.587-0.717,1.047h-0.226c0.102-0.753,0.363-1.331,0.784-1.733c0.421-0.403,0.947-0.604,1.578-0.604
			c0.671,0,1.232,0.216,1.682,0.646c0.449,0.432,0.674,0.94,0.674,1.526c0,0.419-0.098,0.838-0.293,1.257
			c-0.301,0.66-0.79,1.357-1.465,2.094c-1.013,1.107-1.646,1.774-1.898,2.002h2.161c0.439,0,0.748-0.016,0.924-0.049
			c0.177-0.032,0.337-0.099,0.479-0.198c0.143-0.1,0.267-0.241,0.373-0.424H88.807z"/>
	</g>
	<g>
		<path d="M127.8,18.212l-0.58,1.593h-4.883v-0.226c1.437-1.311,2.447-2.381,3.033-3.211s0.879-1.589,0.879-2.276
			c0-0.525-0.16-0.956-0.481-1.294c-0.322-0.338-0.706-0.507-1.154-0.507c-0.406,0-0.771,0.119-1.096,0.357
			c-0.323,0.238-0.562,0.587-0.717,1.047h-0.226c0.102-0.753,0.363-1.331,0.784-1.733c0.421-0.403,0.947-0.604,1.578-0.604
			c0.671,0,1.231,0.216,1.681,0.647c0.45,0.431,0.675,0.94,0.675,1.526c0,0.419-0.098,0.838-0.293,1.257
			c-0.301,0.659-0.789,1.357-1.465,2.093c-1.014,1.107-1.646,1.774-1.898,2.002h2.161c0.439,0,0.747-0.016,0.925-0.049
			c0.177-0.032,0.336-0.099,0.479-0.198s0.267-0.241,0.373-0.424H127.8z"/>
		<path d="M140.063,18.212l-0.58,1.593H134.6v-0.226c1.437-1.311,2.447-2.381,3.033-3.211s0.879-1.589,0.879-2.276
			c0-0.525-0.16-0.956-0.481-1.294c-0.322-0.338-0.706-0.507-1.154-0.507c-0.406,0-0.771,0.119-1.096,0.357
			c-0.323,0.238-0.562,0.587-0.717,1.047h-0.226c0.102-0.753,0.363-1.331,0.784-1.733c0.421-0.403,0.947-0.604,1.578-0.604
			c0.671,0,1.231,0.216,1.681,0.647c0.45,0.431,0.675,0.94,0.675,1.526c0,0.419-0.098,0.838-0.293,1.257
			c-0.301,0.659-0.789,1.357-1.465,2.093c-1.014,1.107-1.646,1.774-1.898,2.002h2.161c0.439,0,0.747-0.016,0.925-0.049
			c0.177-0.032,0.336-0.099,0.479-0.198s0.267-0.241,0.373-0.424H140.063z"/>
	</g>
	<g>
		<path d="M152.332,18.212l-0.58,1.593h-4.883v-0.226c1.437-1.311,2.447-2.381,3.033-3.211s0.879-1.589,0.879-2.276
			c0-0.525-0.16-0.956-0.481-1.294c-0.322-0.338-0.706-0.507-1.154-0.507c-0.406,0-0.771,0.119-1.096,0.357
			c-0.323,0.238-0.562,0.587-0.717,1.047h-0.226c0.102-0.753,0.363-1.331,0.784-1.733c0.421-0.403,0.947-0.604,1.578-0.604
			c0.671,0,1.231,0.216,1.681,0.647c0.45,0.431,0.675,0.94,0.675,1.526c0,0.419-0.098,0.838-0.293,1.257
			c-0.301,0.659-0.789,1.357-1.465,2.093c-1.014,1.107-1.646,1.774-1.898,2.002h2.161c0.439,0,0.747-0.016,0.925-0.049
			c0.177-0.032,0.336-0.099,0.479-0.198s0.267-0.241,0.373-0.424H152.332z"/>
		<path d="M171.944,18.212l-0.58,1.593h-4.883v-0.226c1.437-1.311,2.447-2.381,3.033-3.211s0.879-1.589,0.879-2.276
			c0-0.525-0.16-0.956-0.481-1.294c-0.322-0.338-0.706-0.507-1.154-0.507c-0.406,0-0.771,0.119-1.096,0.357
			c-0.323,0.238-0.562,0.587-0.717,1.047h-0.226c0.102-0.753,0.363-1.331,0.784-1.733c0.421-0.403,0.947-0.604,1.578-0.604
			c0.671,0,1.231,0.216,1.681,0.647c0.45,0.431,0.675,0.94,0.675,1.526c0,0.419-0.098,0.838-0.293,1.257
			c-0.301,0.659-0.789,1.357-1.465,2.093c-1.014,1.107-1.646,1.774-1.898,2.002h2.161c0.439,0,0.747-0.016,0.925-0.049
			c0.177-0.032,0.336-0.099,0.479-0.198s0.267-0.241,0.373-0.424H171.944z"/>
	</g>
	<g>
		<path d="M7.959,1.221h2.565v0.134L8.93,6.104H8.535l1.429-4.308H8.648c-0.267,0-0.455,0.032-0.568,0.095
			C7.882,2,7.723,2.167,7.603,2.393L7.5,2.354L7.959,1.221z"/>
	</g>
	<g>
		<path d="M10.705,22.093v0.501h-0.642v1.264H9.48v-1.264H7.455v-0.451l2.22-3.169h0.388v3.119H10.705z M9.48,22.093v-2.374
			l-1.68,2.374H9.48z"/>
	</g>
	<g>
		<path d="M172.915,10.295c0.136-0.322,0.309-0.571,0.517-0.746s0.468-0.263,0.778-0.263c0.383,0,0.678,0.125,0.882,0.374
			c0.155,0.186,0.233,0.385,0.233,0.597c0,0.348-0.219,0.708-0.656,1.08c0.294,0.115,0.516,0.28,0.666,0.494
			c0.151,0.214,0.227,0.466,0.227,0.755c0,0.414-0.132,0.773-0.396,1.076c-0.344,0.396-0.841,0.593-1.492,0.593
			c-0.322,0-0.542-0.04-0.658-0.12c-0.116-0.08-0.175-0.166-0.175-0.258c0-0.068,0.027-0.128,0.083-0.18
			c0.055-0.052,0.121-0.078,0.199-0.078c0.059,0,0.119,0.009,0.18,0.028c0.04,0.012,0.131,0.055,0.271,0.129
			c0.142,0.074,0.239,0.118,0.293,0.132c0.087,0.026,0.181,0.039,0.279,0.039c0.24,0,0.448-0.093,0.626-0.279
			c0.178-0.186,0.267-0.406,0.267-0.66c0-0.186-0.041-0.367-0.123-0.543c-0.062-0.132-0.129-0.232-0.201-0.3
			c-0.102-0.094-0.24-0.179-0.417-0.256c-0.176-0.076-0.356-0.114-0.54-0.114h-0.112v-0.106c0.186-0.023,0.372-0.091,0.559-0.201
			c0.188-0.111,0.323-0.244,0.408-0.399c0.084-0.155,0.127-0.326,0.127-0.512c0-0.242-0.076-0.438-0.228-0.587
			c-0.152-0.149-0.341-0.224-0.566-0.224c-0.365,0-0.669,0.195-0.914,0.586L172.915,10.295z"/>
	</g>
	<g>
		<path d="M22.857,16.454h-5.798v-0.849h5.798V16.454z M22.857,18.102h-5.798v-0.848h5.798V18.102z"/>
	</g>
	<g>
		<path d="M36.225,7.505c0-0.191,0.072-0.36,0.217-0.507s0.314-0.22,0.51-0.22c0.199,0,0.372,0.071,0.519,0.214
			s0.22,0.313,0.22,0.513c0,0.195-0.074,0.365-0.223,0.51s-0.32,0.217-0.516,0.217c-0.187,0-0.355-0.074-0.503-0.223
			C36.299,7.86,36.225,7.692,36.225,7.505z"/>
	</g>
	<g>
		<path d="M48.491,7.505c0-0.191,0.072-0.36,0.217-0.507s0.314-0.22,0.51-0.22c0.199,0,0.372,0.071,0.519,0.214
			s0.22,0.313,0.22,0.513c0,0.195-0.074,0.365-0.223,0.51s-0.32,0.217-0.516,0.217c-0.187,0-0.355-0.074-0.503-0.223
			C48.565,7.86,48.491,7.692,48.491,7.505z"/>
		<path d="M60.753,7.505c0-0.191,0.072-0.36,0.217-0.507s0.314-0.22,0.51-0.22c0.199,0,0.372,0.071,0.519,0.214
			s0.22,0.313,0.22,0.513c0,0.195-0.074,0.365-0.223,0.51s-0.32,0.217-0.516,0.217c-0.187,0-0.355-0.074-0.503-0.223
			C60.828,7.86,60.753,7.692,60.753,7.505z"/>
		<path d="M73.016,7.505c0-0.191,0.072-0.36,0.217-0.507s0.314-0.22,0.51-0.22c0.199,0,0.372,0.071,0.519,0.214
			s0.22,0.313,0.22,0.513c0,0.195-0.074,0.365-0.223,0.51s-0.32,0.217-0.516,0.217c-0.187,0-0.355-0.074-0.503-0.223
			C73.09,7.86,73.016,7.692,73.016,7.505z"/>
		<path d="M85.278,7.505c0-0.191,0.072-0.36,0.217-0.507s0.314-0.22,0.51-0.22c0.199,0,0.372,0.071,0.519,0.214
			s0.22,0.313,0.22,0.513c0,0.195-0.074,0.365-0.223,0.51s-0.32,0.217-0.516,0.217c-0.187,0-0.355-0.074-0.503-0.223
			C85.353,7.86,85.278,7.692,85.278,7.505z"/>
	</g>
	<g>
		<path d="M97.553,7.505c0-0.191,0.072-0.36,0.217-0.507s0.314-0.22,0.51-0.22c0.199,0,0.372,0.071,0.519,0.214
			s0.22,0.313,0.22,0.513c0,0.195-0.074,0.365-0.223,0.51s-0.32,0.217-0.516,0.217c-0.188,0-0.355-0.074-0.504-0.223
			C97.627,7.86,97.553,7.692,97.553,7.505z"/>
	</g>
	<g>
		<path d="M54.633,25.327c0-0.191,0.072-0.36,0.217-0.507s0.314-0.22,0.51-0.22c0.199,0,0.372,0.071,0.519,0.214
			s0.22,0.313,0.22,0.513c0,0.195-0.074,0.365-0.223,0.51s-0.32,0.217-0.516,0.217c-0.187,0-0.355-0.074-0.503-0.223
			C54.708,25.683,54.633,25.515,54.633,25.327z"/>
		<path d="M66.896,25.327c0-0.191,0.072-0.36,0.217-0.507s0.314-0.22,0.51-0.22c0.199,0,0.372,0.071,0.519,0.214
			s0.22,0.313,0.22,0.513c0,0.195-0.074,0.365-0.223,0.51s-0.32,0.217-0.516,0.217c-0.187,0-0.355-0.074-0.503-0.223
			C66.97,25.683,66.896,25.515,66.896,25.327z"/>
	</g>
	<g>
		<path d="M79.155,25.327c0-0.191,0.072-0.36,0.217-0.507s0.314-0.22,0.51-0.22c0.199,0,0.372,0.071,0.519,0.214
			s0.22,0.313,0.22,0.513c0,0.195-0.074,0.365-0.223,0.51s-0.32,0.217-0.516,0.217c-0.187,0-0.355-0.074-0.503-0.223
			C79.229,25.683,79.155,25.515,79.155,25.327z"/>
	</g>
	<g>
		<path d="M118.024,16.454h-5.799v-0.849h5.799V16.454z M118.024,18.102h-5.799v-0.848h5.799V18.102z"/>
		<path d="M130.41,15.679c0-0.191,0.072-0.36,0.217-0.507s0.314-0.22,0.51-0.22c0.199,0,0.372,0.071,0.519,0.214
			s0.22,0.313,0.22,0.513c0,0.195-0.074,0.365-0.223,0.51s-0.32,0.217-0.516,0.217c-0.188,0-0.355-0.074-0.504-0.223
			C130.484,16.034,130.41,15.866,130.41,15.679z"/>
	</g>
	<g>
		<path d="M142.67,15.679c0-0.191,0.072-0.36,0.217-0.507s0.314-0.22,0.51-0.22c0.199,0,0.372,0.071,0.519,0.214
			s0.22,0.313,0.22,0.513c0,0.195-0.074,0.365-0.223,0.51s-0.32,0.217-0.516,0.217c-0.188,0-0.355-0.074-0.504-0.223
			C142.745,16.034,142.67,15.866,142.67,15.679z"/>
		<path d="M162.158,16.454h-5.799v-0.849h5.799V16.454z M162.158,18.102h-5.799v-0.848h5.799V18.102z"/>
	</g>
</g>
<line style="fill:none;stroke:#C51A1B;stroke-width:0.5;stroke-miterlimit:10;" x1="89.808" y1="19.513" x2="84.627" y2="27.869"/>
<line style="fill:none;stroke:#C51A1B;stroke-width:0.5;stroke-miterlimit:10;" x1="79.886" y1="19.513" x2="74.705" y2="27.869"/>
<line style="fill:none;stroke:#C51A1B;stroke-width:0.5;stroke-miterlimit:10;" x1="69.965" y1="19.513" x2="64.784" y2="27.869"/>
<line style="fill:none;stroke:#C51A1B;stroke-width:0.5;stroke-miterlimit:10;" x1="60.041" y1="19.513" x2="54.86" y2="27.869"/>
<line style="fill:none;stroke:#C51A1B;stroke-width:0.5;stroke-miterlimit:10;" x1="104.251" y1="5.353" x2="99.071" y2="13.709"/>
<line style="fill:none;stroke:#C51A1B;stroke-width:0.5;stroke-miterlimit:10;" x1="84.41" y1="5.353" x2="79.228" y2="13.709"/>
<line style="fill:none;stroke:#C51A1B;stroke-width:0.5;stroke-miterlimit:10;" x1="94.198" y1="5.353" x2="89.017" y2="13.709"/>
<line style="fill:none;stroke:#C51A1B;stroke-width:0.5;stroke-miterlimit:10;" x1="75.055" y1="5.353" x2="69.873" y2="13.709"/>
<g id="theGroup">
</g>
</svg>
