<?xml version="1.0" encoding="iso-8859-1"?>
<!-- Generator: Adobe Illustrator 16.0.0, SVG Export Plug-In . SVG Version: 6.00 Build 0)  -->
<!DOCTYPE svg PUBLIC "-//W3C//DTD SVG 1.1//EN" "http://www.w3.org/Graphics/SVG/1.1/DTD/svg11.dtd">
<svg version="1.1" id="Lager_1" xmlns="http://www.w3.org/2000/svg" xmlns:xlink="http://www.w3.org/1999/xlink" x="0px" y="0px"
	 width="151.828px" height="32.655px" viewBox="0 0 151.828 32.655" style="enable-background:new 0 0 151.828 32.655;"
	 xml:space="preserve">
<g>
	
		<line style="fill:none;stroke:#0066FF;stroke-width:0.5;stroke-linecap:square;stroke-miterlimit:10;" x1="0.25" y1="15.854" x2="7.672" y2="15.854"/>
	
		<line style="fill:none;stroke:#0066FF;stroke-width:0.5;stroke-linecap:square;stroke-miterlimit:10;" x1="36.422" y1="15.854" x2="43.844" y2="15.854"/>
	
		<line style="fill:none;stroke:#CC0000;stroke-width:0.5;stroke-linecap:square;stroke-miterlimit:10;" x1="52.984" y1="15.854" x2="60.406" y2="15.854"/>
	
		<line style="fill:none;stroke:#0066FF;stroke-width:0.5;stroke-linecap:square;stroke-miterlimit:10;" x1="74.547" y1="15.854" x2="81.969" y2="15.854"/>
	
		<line style="fill:none;stroke:#CC0000;stroke-width:0.5;stroke-linecap:square;stroke-miterlimit:10;" x1="88.766" y1="15.854" x2="96.188" y2="15.854"/>
	
		<line style="fill:none;stroke:#0066FF;stroke-width:0.5;stroke-linecap:square;stroke-miterlimit:10;" x1="110.328" y1="15.854" x2="130.016" y2="15.854"/>
	
		<line style="fill:none;stroke:#0066FF;stroke-width:0.5;stroke-linecap:square;stroke-miterlimit:10;" x1="144.156" y1="15.854" x2="151.578" y2="15.854"/>
	<g>
		<path style="fill:#0066FF;" d="M6.763,9.407L6.183,11H1.3v-0.226c1.437-1.311,2.447-2.381,3.033-3.211s0.879-1.589,0.879-2.276
			c0-0.525-0.161-0.956-0.482-1.294S4.024,3.486,3.576,3.486c-0.407,0-0.772,0.119-1.095,0.357C2.157,4.082,1.918,4.431,1.764,4.891
			H1.538C1.64,4.138,1.901,3.56,2.322,3.157C2.743,2.754,3.269,2.553,3.9,2.553c0.671,0,1.232,0.216,1.682,0.647
			c0.449,0.431,0.674,0.94,0.674,1.526c0,0.419-0.098,0.838-0.293,1.257C5.662,6.642,5.173,7.34,4.498,8.076
			C3.485,9.183,2.852,9.851,2.6,10.078h2.161c0.439,0,0.748-0.016,0.924-0.049c0.177-0.032,0.337-0.098,0.479-0.198
			c0.143-0.1,0.267-0.241,0.373-0.424H6.763z"/>
		<path style="fill:#0066FF;" d="M42.925,9.407L42.345,11h-4.883v-0.226c1.437-1.311,2.447-2.381,3.033-3.211
			s0.879-1.589,0.879-2.276c0-0.525-0.161-0.956-0.482-1.294s-0.706-0.507-1.154-0.507c-0.407,0-0.772,0.119-1.095,0.357
			c-0.324,0.238-0.562,0.587-0.717,1.047h-0.226c0.102-0.753,0.363-1.331,0.784-1.733c0.421-0.403,0.947-0.604,1.578-0.604
			c0.671,0,1.232,0.216,1.682,0.647c0.449,0.431,0.674,0.94,0.674,1.526c0,0.419-0.098,0.838-0.293,1.257
			c-0.301,0.659-0.79,1.357-1.465,2.093c-1.013,1.107-1.646,1.774-1.898,2.002h2.161c0.439,0,0.748-0.016,0.924-0.049
			c0.177-0.032,0.337-0.098,0.479-0.198c0.143-0.1,0.267-0.241,0.373-0.424H42.925z"/>
		<path style="fill:#0066FF;" d="M81.051,9.407L80.471,11h-4.883v-0.226c1.437-1.311,2.448-2.381,3.034-3.211S79.5,5.975,79.5,5.287
			c0-0.525-0.16-0.956-0.482-1.294s-0.705-0.507-1.154-0.507c-0.406,0-0.771,0.119-1.095,0.357
			c-0.324,0.238-0.562,0.587-0.717,1.047h-0.226c0.102-0.753,0.363-1.331,0.784-1.733c0.421-0.403,0.947-0.604,1.578-0.604
			c0.672,0,1.232,0.216,1.682,0.647s0.674,0.94,0.674,1.526c0,0.419-0.098,0.838-0.293,1.257c-0.301,0.659-0.789,1.357-1.465,2.093
			c-1.014,1.107-1.646,1.774-1.898,2.002h2.162c0.439,0,0.746-0.016,0.924-0.049c0.178-0.032,0.336-0.098,0.479-0.198
			c0.143-0.1,0.268-0.241,0.373-0.424H81.051z"/>
		<path style="fill:#0066FF;" d="M118,9.407L117.42,11h-4.883v-0.226c1.437-1.311,2.447-2.381,3.033-3.211s0.879-1.589,0.879-2.276
			c0-0.525-0.16-0.956-0.481-1.294c-0.322-0.338-0.706-0.507-1.154-0.507c-0.406,0-0.771,0.119-1.096,0.357
			c-0.323,0.238-0.562,0.587-0.717,1.047h-0.226c0.102-0.753,0.363-1.331,0.784-1.733c0.421-0.403,0.947-0.604,1.578-0.604
			c0.671,0,1.231,0.216,1.681,0.647c0.45,0.431,0.675,0.94,0.675,1.526c0,0.419-0.098,0.838-0.293,1.257
			c-0.301,0.659-0.789,1.357-1.465,2.093c-1.014,1.107-1.646,1.774-1.898,2.002h2.161c0.439,0,0.747-0.016,0.925-0.049
			c0.177-0.032,0.336-0.098,0.479-0.198c0.143-0.1,0.267-0.241,0.373-0.424H118z"/>
		<path style="fill:#0066FF;" d="M124.621,3.535l2.014-0.982h0.202v6.988c0,0.464,0.019,0.753,0.058,0.867
			c0.039,0.114,0.119,0.201,0.241,0.262s0.37,0.096,0.745,0.104V11h-3.113v-0.226c0.391-0.008,0.643-0.042,0.757-0.101
			c0.114-0.059,0.193-0.138,0.238-0.238s0.067-0.398,0.067-0.895V5.073c0-0.602-0.021-0.988-0.062-1.159
			c-0.028-0.13-0.08-0.226-0.155-0.287c-0.076-0.061-0.166-0.092-0.271-0.092c-0.151,0-0.36,0.063-0.629,0.189L124.621,3.535z"/>
		<path style="fill:#0066FF;" d="M146.184,3.535l2.014-0.982h0.202v6.988c0,0.464,0.019,0.753,0.058,0.867
			c0.039,0.114,0.119,0.201,0.241,0.262s0.37,0.096,0.745,0.104V11h-3.113v-0.226c0.391-0.008,0.643-0.042,0.757-0.101
			c0.114-0.059,0.193-0.138,0.238-0.238s0.067-0.398,0.067-0.895V5.073c0-0.602-0.021-0.988-0.062-1.159
			c-0.028-0.13-0.08-0.226-0.155-0.287c-0.076-0.061-0.166-0.092-0.271-0.092c-0.151,0-0.36,0.063-0.629,0.189L146.184,3.535z"/>
	</g>
	<g>
		<path style="fill:#0066FF;" d="M13.988,10.504l-2.997,8.85h-0.488l2.997-8.85H13.988z"/>
		<path style="fill:#0066FF;" d="M22.339,17.591l-0.58,1.593h-4.883v-0.226c1.437-1.311,2.447-2.381,3.033-3.211
			s0.879-1.589,0.879-2.276c0-0.525-0.161-0.956-0.482-1.294S19.6,11.67,19.152,11.67c-0.407,0-0.772,0.119-1.095,0.357
			c-0.324,0.238-0.562,0.587-0.717,1.047h-0.226c0.102-0.753,0.363-1.331,0.784-1.733c0.421-0.403,0.947-0.604,1.578-0.604
			c0.671,0,1.232,0.216,1.682,0.647c0.449,0.431,0.674,0.94,0.674,1.526c0,0.419-0.098,0.838-0.293,1.257
			c-0.301,0.659-0.79,1.357-1.465,2.093c-1.013,1.107-1.646,1.774-1.898,2.002h2.161c0.439,0,0.748-0.016,0.924-0.049
			c0.177-0.032,0.337-0.099,0.479-0.198c0.143-0.1,0.267-0.241,0.373-0.424H22.339z"/>
		<path style="fill:#0066FF;" d="M50.148,10.504l-2.997,8.85h-0.488l2.997-8.85H50.148z"/>
	</g>
	<g>
		<path style="fill:#0066FF;" d="M2.093,20.546H6.53v0.231l-2.759,8.216H3.088l2.472-7.452H3.283c-0.459,0-0.787,0.055-0.982,0.164
			c-0.342,0.188-0.616,0.477-0.824,0.867L1.3,22.505L2.093,20.546z"/>
		<path style="fill:#0066FF;" d="M38.256,20.546h4.437v0.231l-2.759,8.216H39.25l2.472-7.452h-2.277
			c-0.459,0-0.787,0.055-0.982,0.164c-0.342,0.188-0.616,0.477-0.824,0.867l-0.177-0.067L38.256,20.546z"/>
		<path style="fill:#0066FF;" d="M76.381,20.546h4.438v0.231l-2.76,8.216h-0.684l2.473-7.452H77.57
			c-0.459,0-0.787,0.055-0.982,0.164c-0.342,0.188-0.616,0.477-0.824,0.867l-0.177-0.067L76.381,20.546z"/>
	</g>
	<g>
		<path style="fill:#CC0000;" d="M59.497,9.407L58.917,11h-4.883v-0.226c1.437-1.311,2.447-2.381,3.033-3.211
			s0.879-1.589,0.879-2.276c0-0.525-0.161-0.956-0.482-1.294s-0.706-0.507-1.154-0.507c-0.407,0-0.772,0.119-1.095,0.357
			c-0.324,0.238-0.562,0.587-0.717,1.047h-0.226c0.102-0.753,0.363-1.331,0.784-1.733c0.421-0.403,0.947-0.604,1.578-0.604
			c0.671,0,1.232,0.216,1.682,0.647c0.449,0.431,0.674,0.94,0.674,1.526c0,0.419-0.098,0.838-0.293,1.257
			c-0.301,0.659-0.79,1.357-1.465,2.093c-1.013,1.107-1.646,1.774-1.898,2.002h2.161c0.439,0,0.748-0.016,0.924-0.049
			c0.177-0.032,0.337-0.098,0.479-0.198c0.143-0.1,0.267-0.241,0.373-0.424H59.497z"/>
		<path style="fill:#CC0000;" d="M90.806,3.535l2.014-0.982h0.202v6.988c0,0.464,0.019,0.753,0.058,0.867
			c0.039,0.114,0.119,0.201,0.241,0.262s0.37,0.096,0.745,0.104V11h-3.113v-0.226c0.391-0.008,0.643-0.042,0.757-0.101
			c0.114-0.059,0.193-0.138,0.238-0.238s0.067-0.398,0.067-0.895V5.073c0-0.602-0.021-0.988-0.062-1.159
			c-0.028-0.13-0.08-0.226-0.155-0.287c-0.076-0.061-0.166-0.092-0.271-0.092c-0.151,0-0.36,0.063-0.629,0.189L90.806,3.535z"/>
	</g>
	<g>
		<path style="fill:#CC0000;" d="M55.035,21.357l2.014-0.982h0.202v6.988c0,0.464,0.019,0.753,0.058,0.867
			c0.039,0.113,0.119,0.201,0.241,0.262c0.122,0.062,0.37,0.096,0.745,0.104v0.226h-3.113v-0.226
			c0.391-0.009,0.643-0.042,0.757-0.101c0.114-0.06,0.193-0.139,0.238-0.238c0.044-0.1,0.067-0.397,0.067-0.895v-4.468
			c0-0.602-0.021-0.988-0.061-1.159c-0.028-0.131-0.081-0.227-0.156-0.287s-0.166-0.092-0.271-0.092c-0.15,0-0.36,0.063-0.628,0.189
			L55.035,21.357z"/>
		<path style="fill:#CC0000;" d="M95.276,27.229l-0.58,1.593h-4.883v-0.226c1.437-1.311,2.447-2.381,3.033-3.211
			s0.879-1.589,0.879-2.276c0-0.525-0.16-0.956-0.481-1.294c-0.322-0.338-0.706-0.507-1.154-0.507c-0.406,0-0.771,0.119-1.096,0.357
			c-0.323,0.238-0.562,0.587-0.717,1.047h-0.226c0.102-0.753,0.363-1.331,0.784-1.733c0.421-0.403,0.947-0.604,1.578-0.604
			c0.671,0,1.231,0.216,1.681,0.646c0.45,0.432,0.675,0.94,0.675,1.526c0,0.419-0.098,0.838-0.293,1.257
			c-0.301,0.66-0.789,1.357-1.465,2.094c-1.014,1.107-1.646,1.774-1.898,2.002h2.161c0.439,0,0.747-0.016,0.925-0.049
			c0.177-0.032,0.336-0.099,0.479-0.198s0.267-0.241,0.373-0.424H95.276z"/>
	</g>
	<g>
		<path style="fill:#0066FF;" d="M112.172,20.546h4.437v0.231l-2.759,8.216h-0.684l2.473-7.452h-2.277
			c-0.46,0-0.787,0.055-0.982,0.164c-0.342,0.188-0.616,0.477-0.824,0.867l-0.177-0.067L112.172,20.546z"/>
		<path style="fill:#0066FF;" d="M129.096,27.229l-0.58,1.593h-4.883v-0.226c1.437-1.311,2.447-2.381,3.033-3.211
			s0.879-1.589,0.879-2.276c0-0.525-0.16-0.956-0.481-1.294c-0.322-0.338-0.706-0.507-1.154-0.507c-0.406,0-0.771,0.119-1.096,0.357
			c-0.323,0.238-0.562,0.587-0.717,1.047h-0.226c0.102-0.753,0.363-1.331,0.784-1.733c0.421-0.403,0.947-0.604,1.578-0.604
			c0.671,0,1.231,0.216,1.681,0.646c0.45,0.432,0.675,0.94,0.675,1.526c0,0.419-0.098,0.838-0.293,1.257
			c-0.301,0.66-0.789,1.357-1.465,2.094c-1.014,1.107-1.646,1.774-1.898,2.002h2.161c0.439,0,0.747-0.016,0.925-0.049
			c0.177-0.032,0.336-0.099,0.479-0.198s0.267-0.241,0.373-0.424H129.096z"/>
		<path style="fill:#0066FF;" d="M145.984,20.546h4.437v0.231l-2.759,8.216h-0.684l2.473-7.452h-2.277
			c-0.46,0-0.787,0.055-0.982,0.164c-0.342,0.188-0.616,0.477-0.824,0.867l-0.177-0.067L145.984,20.546z"/>
	</g>
	<g>
		<path style="fill:#0066FF;" d="M122.016,7.802c0,0.187-0.066,0.347-0.199,0.479c-0.132,0.132-0.289,0.199-0.473,0.199
			c-0.188,0-0.347-0.066-0.479-0.199c-0.132-0.132-0.198-0.292-0.198-0.479s0.066-0.347,0.198-0.479
			c0.133-0.132,0.292-0.199,0.479-0.199c0.184,0,0.341,0.066,0.473,0.199C121.949,7.455,122.016,7.615,122.016,7.802z"/>
	</g>
	<g>
		<path style="fill:#0066FF;" d="M26.062,14.551h6.409v0.592h-6.409V14.551z M26.062,16.827h6.409v0.604h-6.409V16.827z"/>
		<path style="fill:#0066FF;" d="M64.185,14.551h6.409v0.592h-6.409V14.551z M64.185,16.827h6.409v0.604h-6.409V16.827z"/>
		<path style="fill:#0066FF;" d="M86.028,15.985c0,0.187-0.066,0.348-0.199,0.479c-0.132,0.133-0.289,0.199-0.473,0.199
			c-0.188,0-0.347-0.066-0.479-0.199c-0.132-0.131-0.198-0.292-0.198-0.479s0.066-0.347,0.198-0.479
			c0.133-0.132,0.292-0.199,0.479-0.199c0.184,0,0.341,0.066,0.473,0.199C85.962,15.639,86.028,15.798,86.028,15.985z"/>
		<path style="fill:#0066FF;" d="M99.957,14.551h6.409v0.592h-6.409V14.551z M99.957,16.827h6.409v0.604h-6.409V16.827z"/>
		<path style="fill:#0066FF;" d="M133.78,14.551h6.409v0.592h-6.409V14.551z M133.78,16.827h6.409v0.604h-6.409V16.827z"/>
	</g>
	<g>
		<path style="fill:#0066FF;" d="M120.844,25.624c0,0.188-0.066,0.347-0.199,0.479c-0.132,0.132-0.289,0.198-0.473,0.198
			c-0.188,0-0.347-0.066-0.479-0.198c-0.132-0.133-0.198-0.292-0.198-0.479s0.066-0.347,0.198-0.479
			c0.133-0.132,0.292-0.198,0.479-0.198c0.184,0,0.341,0.066,0.473,0.198C120.777,25.277,120.844,25.437,120.844,25.624z"/>
	</g>
</g>
<g id="theGroup">
</g>
</svg>
