<?xml version="1.0" encoding="iso-8859-1"?>
<!-- Generator: Adobe Illustrator 16.0.0, SVG Export Plug-In . SVG Version: 6.00 Build 0)  -->
<!DOCTYPE svg PUBLIC "-//W3C//DTD SVG 1.1//EN" "http://www.w3.org/Graphics/SVG/1.1/DTD/svg11.dtd">
<svg version="1.1" id="Lager_1" xmlns="http://www.w3.org/2000/svg" xmlns:xlink="http://www.w3.org/1999/xlink" x="0px" y="0px"
	 width="12.956px" height="32.044px" viewBox="0 0 12.956 32.044" style="enable-background:new 0 0 12.956 32.044;"
	 xml:space="preserve">
<g>
	
		<line style="fill:none;stroke:#000000;stroke-width:0.5;stroke-linecap:square;stroke-miterlimit:10;" x1="0.596" y1="15.242" x2="12.706" y2="15.242"/>
	<g>
		<path d="M4.98,2.924l2.014-0.982h0.202V8.93c0,0.464,0.019,0.753,0.058,0.867c0.039,0.113,0.119,0.201,0.241,0.262
			c0.122,0.062,0.37,0.096,0.745,0.104v0.226H5.127v-0.226c0.391-0.009,0.643-0.042,0.757-0.102
			c0.114-0.059,0.193-0.138,0.238-0.237c0.044-0.1,0.067-0.398,0.067-0.895V4.462c0-0.603-0.021-0.988-0.061-1.159
			C6.1,3.172,6.047,3.076,5.972,3.016C5.897,2.954,5.807,2.924,5.701,2.924c-0.15,0-0.36,0.063-0.628,0.189L4.98,2.924z"/>
	</g>
	<g>
		<path d="M1.465,20.746l2.014-0.982h0.202v6.988c0,0.464,0.019,0.753,0.058,0.867c0.039,0.113,0.119,0.201,0.241,0.262
			c0.122,0.062,0.37,0.096,0.745,0.104v0.226H1.611v-0.226c0.391-0.009,0.643-0.042,0.757-0.101c0.114-0.06,0.193-0.139,0.238-0.238
			c0.044-0.1,0.067-0.397,0.067-0.895v-4.468c0-0.602-0.021-0.988-0.061-1.159c-0.028-0.131-0.081-0.227-0.156-0.287
			s-0.166-0.092-0.271-0.092c-0.15,0-0.36,0.063-0.628,0.189L1.465,20.746z"/>
		<path d="M8.648,24.042c-0.654-0.537-1.077-0.968-1.266-1.294c-0.19-0.325-0.284-0.663-0.284-1.013c0-0.537,0.207-1,0.622-1.389
			s0.967-0.583,1.654-0.583c0.667,0,1.204,0.181,1.611,0.543s0.61,0.775,0.61,1.239c0,0.31-0.11,0.625-0.329,0.946
			c-0.221,0.321-0.678,0.699-1.374,1.135c0.717,0.554,1.19,0.989,1.423,1.307c0.309,0.415,0.463,0.853,0.463,1.312
			c0,0.581-0.222,1.079-0.665,1.492s-1.025,0.619-1.745,0.619c-0.785,0-1.398-0.246-1.838-0.738
			c-0.35-0.395-0.524-0.826-0.524-1.294c0-0.366,0.123-0.729,0.369-1.09S8.047,24.478,8.648,24.042z M8.936,24.274
			c-0.338,0.284-0.588,0.595-0.751,0.931s-0.244,0.699-0.244,1.09c0,0.524,0.144,0.944,0.431,1.26s0.652,0.473,1.096,0.473
			c0.439,0,0.791-0.124,1.056-0.372s0.396-0.549,0.396-0.903c0-0.293-0.077-0.555-0.231-0.787
			C10.398,25.533,9.814,24.97,8.936,24.274z M9.607,23.389c0.488-0.439,0.797-0.786,0.928-1.04c0.13-0.254,0.195-0.542,0.195-0.864
			c0-0.427-0.12-0.762-0.36-1.004c-0.24-0.241-0.567-0.363-0.983-0.363c-0.414,0-0.752,0.12-1.013,0.36s-0.391,0.521-0.391,0.843
			c0,0.211,0.054,0.423,0.161,0.635c0.108,0.211,0.262,0.413,0.461,0.604L9.607,23.389z"/>
	</g>
</g>
<g id="theGroup">
</g>
</svg>
