<?xml version="1.0" encoding="iso-8859-1"?>
<!-- Generator: Adobe Illustrator 16.0.0, SVG Export Plug-In . SVG Version: 6.00 Build 0)  -->
<!DOCTYPE svg PUBLIC "-//W3C//DTD SVG 1.1//EN" "http://www.w3.org/Graphics/SVG/1.1/DTD/svg11.dtd">
<svg version="1.1" id="Lager_1" xmlns="http://www.w3.org/2000/svg" xmlns:xlink="http://www.w3.org/1999/xlink" x="0px" y="0px"
	 width="44.641px" height="32.044px" viewBox="0 0 44.641 32.044" style="enable-background:new 0 0 44.641 32.044;"
	 xml:space="preserve">
<g>
	
		<line style="fill:none;stroke:#3A1968;stroke-width:0.5;stroke-linecap:square;stroke-miterlimit:10;" x1="0.25" y1="15.242" x2="44.391" y2="15.242"/>
	<g>
		<path style="fill:#3A1968;" d="M6.057,2.112L5.581,3.149h-2.49L2.547,4.261C3.625,4.419,4.48,4.82,5.111,5.463
			c0.541,0.554,0.812,1.204,0.812,1.953c0,0.436-0.089,0.838-0.266,1.209c-0.177,0.37-0.4,0.686-0.668,0.945
			c-0.269,0.261-0.568,0.471-0.897,0.629c-0.468,0.224-0.948,0.336-1.44,0.336c-0.497,0-0.858-0.085-1.083-0.254
			c-0.226-0.168-0.339-0.354-0.339-0.558c0-0.114,0.047-0.215,0.14-0.303C1.463,9.334,1.581,9.29,1.724,9.29
			c0.105,0,0.198,0.016,0.277,0.049c0.08,0.032,0.215,0.116,0.406,0.25c0.305,0.212,0.614,0.317,0.928,0.317
			c0.476,0,0.894-0.18,1.254-0.54c0.36-0.36,0.54-0.799,0.54-1.315c0-0.5-0.161-0.968-0.482-1.4
			C4.326,6.217,3.882,5.882,3.316,5.646C2.873,5.463,2.269,5.357,1.504,5.329l1.587-3.217H6.057z"/>
		<path style="fill:#3A1968;" d="M9.279,6.22C8.625,5.683,8.202,5.251,8.013,4.926C7.824,4.601,7.729,4.263,7.729,3.913
			c0-0.537,0.207-1,0.622-1.389s0.967-0.583,1.654-0.583c0.667,0,1.205,0.181,1.611,0.543s0.61,0.775,0.61,1.239
			c0,0.309-0.11,0.624-0.33,0.946c-0.22,0.321-0.677,0.699-1.374,1.135c0.716,0.554,1.19,0.989,1.422,1.307
			c0.309,0.415,0.464,0.852,0.464,1.312c0,0.582-0.222,1.08-0.666,1.492c-0.443,0.413-1.025,0.62-1.745,0.62
			c-0.786,0-1.398-0.246-1.837-0.738c-0.35-0.396-0.525-0.826-0.525-1.294c0-0.366,0.123-0.729,0.369-1.09S8.677,6.655,9.279,6.22z
			 M9.566,6.452C9.229,6.736,8.979,7.047,8.815,7.383C8.653,7.718,8.571,8.081,8.571,8.472c0,0.525,0.144,0.945,0.431,1.261
			c0.287,0.315,0.652,0.473,1.096,0.473c0.439,0,0.791-0.124,1.056-0.372S11.55,9.284,11.55,8.93c0-0.293-0.077-0.556-0.231-0.787
			C11.029,7.711,10.445,7.147,9.566,6.452z M10.238,5.566c0.488-0.439,0.797-0.786,0.928-1.04c0.13-0.255,0.195-0.543,0.195-0.864
			c0-0.427-0.12-0.762-0.36-1.004c-0.24-0.242-0.568-0.363-0.983-0.363s-0.753,0.12-1.013,0.36S8.614,3.176,8.614,3.498
			c0,0.211,0.054,0.423,0.162,0.635c0.108,0.211,0.262,0.412,0.461,0.604L10.238,5.566z"/>
		<path style="fill:#3A1968;" d="M13.415,12.47v-0.269c0.419-0.139,0.744-0.354,0.974-0.644c0.229-0.291,0.345-0.6,0.345-0.925
			c0-0.077-0.018-0.143-0.055-0.195c-0.028-0.037-0.057-0.055-0.085-0.055c-0.045,0-0.143,0.04-0.293,0.122
			c-0.073,0.036-0.151,0.055-0.232,0.055c-0.199,0-0.358-0.06-0.476-0.177c-0.118-0.118-0.177-0.281-0.177-0.488
			c0-0.2,0.076-0.371,0.229-0.513c0.152-0.143,0.339-0.214,0.559-0.214c0.269,0,0.507,0.117,0.717,0.351
			c0.209,0.234,0.314,0.544,0.314,0.931c0,0.419-0.146,0.809-0.437,1.169S14.045,12.263,13.415,12.47z"/>
		<path style="fill:#3A1968;" d="M17.69,10.56v-0.226c0.529-0.009,1.021-0.132,1.477-0.37c0.456-0.237,0.896-0.653,1.321-1.248
			c0.425-0.594,0.721-1.247,0.888-1.959c-0.639,0.411-1.217,0.616-1.733,0.616c-0.582,0-1.08-0.225-1.495-0.674
			c-0.415-0.45-0.623-1.047-0.623-1.792c0-0.724,0.208-1.369,0.623-1.935c0.5-0.688,1.153-1.031,1.959-1.031
			c0.68,0,1.261,0.28,1.746,0.842c0.594,0.696,0.891,1.555,0.891,2.576c0,0.919-0.226,1.777-0.678,2.572
			c-0.451,0.796-1.08,1.456-1.886,1.98c-0.655,0.432-1.369,0.647-2.143,0.647H17.69z M21.474,6.306
			c0.073-0.529,0.11-0.952,0.11-1.27c0-0.396-0.067-0.821-0.202-1.279c-0.134-0.458-0.324-0.809-0.57-1.053
			c-0.247-0.244-0.526-0.366-0.839-0.366c-0.362,0-0.68,0.163-0.952,0.488s-0.409,0.81-0.409,1.453c0,0.858,0.181,1.529,0.543,2.014
			c0.265,0.35,0.59,0.525,0.977,0.525c0.187,0,0.409-0.045,0.665-0.135C21.053,6.594,21.279,6.468,21.474,6.306z"/>
		<path style="fill:#3A1968;" d="M23.732,6.299c0-0.943,0.143-1.757,0.428-2.438c0.285-0.681,0.662-1.188,1.135-1.522
			c0.367-0.265,0.744-0.396,1.135-0.396c0.635,0,1.205,0.323,1.709,0.971c0.631,0.801,0.947,1.888,0.947,3.259
			c0,0.96-0.139,1.776-0.416,2.447c-0.277,0.672-0.629,1.159-1.059,1.462c-0.43,0.304-0.844,0.455-1.242,0.455
			c-0.789,0-1.447-0.466-1.971-1.397C23.954,8.352,23.732,7.406,23.732,6.299z M24.93,6.452c0,1.139,0.139,2.068,0.42,2.789
			c0.232,0.606,0.578,0.909,1.037,0.909c0.221,0,0.449-0.099,0.684-0.296c0.236-0.197,0.416-0.528,0.537-0.992
			c0.188-0.699,0.281-1.687,0.281-2.96c0-0.944-0.098-1.731-0.293-2.362c-0.146-0.468-0.336-0.799-0.566-0.994
			c-0.168-0.135-0.369-0.202-0.605-0.202c-0.277,0-0.523,0.124-0.738,0.373c-0.293,0.337-0.492,0.868-0.598,1.593
			C24.982,5.033,24.93,5.748,24.93,6.452z"/>
		<path style="fill:#3A1968;" d="M35.088,1.709v5.566l1.422-1.3c0.301-0.276,0.477-0.451,0.525-0.524
			c0.032-0.049,0.049-0.098,0.049-0.146c0-0.082-0.034-0.152-0.102-0.211c-0.066-0.059-0.178-0.093-0.332-0.101V4.798h2.429v0.195
			c-0.333,0.008-0.611,0.059-0.833,0.152s-0.465,0.261-0.729,0.501l-1.435,1.324l1.435,1.812c0.399,0.501,0.668,0.818,0.806,0.952
			c0.195,0.191,0.366,0.315,0.513,0.372c0.102,0.041,0.279,0.062,0.531,0.062v0.22H36.65v-0.22c0.154-0.004,0.259-0.027,0.314-0.07
			c0.055-0.043,0.082-0.103,0.082-0.18c0-0.094-0.081-0.244-0.244-0.452l-1.715-2.191v1.855c0,0.362,0.025,0.601,0.076,0.715
			c0.051,0.113,0.123,0.195,0.217,0.244s0.297,0.075,0.61,0.079v0.22h-2.845v-0.22c0.285,0,0.499-0.035,0.641-0.104
			c0.086-0.045,0.151-0.114,0.195-0.208c0.062-0.134,0.092-0.366,0.092-0.695V4.071c0-0.646-0.014-1.043-0.043-1.188
			c-0.028-0.144-0.075-0.244-0.14-0.299c-0.065-0.055-0.15-0.082-0.257-0.082c-0.085,0-0.213,0.034-0.385,0.104l-0.104-0.214
			l1.66-0.684H35.088z"/>
		<path style="fill:#3A1968;" d="M41.319,4.633v1.258c0.468-0.839,0.948-1.258,1.44-1.258c0.224,0,0.409,0.068,0.556,0.204
			c0.146,0.137,0.22,0.294,0.22,0.474c0,0.158-0.053,0.293-0.159,0.402c-0.105,0.11-0.231,0.165-0.378,0.165
			c-0.143,0-0.303-0.07-0.479-0.211c-0.177-0.14-0.308-0.21-0.394-0.21c-0.073,0-0.152,0.04-0.238,0.122
			c-0.183,0.167-0.372,0.441-0.567,0.824v2.679c0,0.31,0.039,0.544,0.116,0.702c0.053,0.11,0.146,0.201,0.28,0.274
			c0.135,0.073,0.328,0.11,0.58,0.11v0.22h-2.862v-0.22c0.284,0,0.496-0.045,0.635-0.135c0.102-0.064,0.173-0.169,0.213-0.311
			c0.021-0.069,0.031-0.267,0.031-0.593V6.965c0-0.651-0.014-1.039-0.04-1.163s-0.075-0.215-0.146-0.271
			c-0.071-0.058-0.159-0.086-0.266-0.086c-0.126,0-0.269,0.031-0.427,0.092l-0.062-0.22l1.69-0.684H41.319z"/>
	</g>
	<g>
		<path style="fill:#3A1968;" d="M17.066,20.746l2.014-0.982h0.202v6.988c0,0.464,0.019,0.753,0.058,0.867
			c0.039,0.113,0.119,0.201,0.241,0.262c0.122,0.062,0.37,0.096,0.745,0.104v0.226h-3.113v-0.226
			c0.391-0.009,0.643-0.042,0.757-0.101c0.114-0.06,0.193-0.139,0.238-0.238c0.044-0.1,0.067-0.397,0.067-0.895v-4.468
			c0-0.602-0.021-0.988-0.061-1.159c-0.028-0.131-0.081-0.227-0.156-0.287s-0.166-0.092-0.271-0.092c-0.15,0-0.36,0.063-0.628,0.189
			L17.066,20.746z"/>
		<path style="fill:#3A1968;" d="M22.303,24.121c0-0.943,0.143-1.756,0.427-2.438s0.663-1.189,1.135-1.523
			c0.367-0.265,0.745-0.396,1.136-0.396c0.635,0,1.204,0.323,1.709,0.971c0.631,0.802,0.946,1.888,0.946,3.259
			c0,0.961-0.139,1.776-0.415,2.448c-0.277,0.671-0.63,1.158-1.06,1.461c-0.429,0.304-0.843,0.455-1.242,0.455
			c-0.789,0-1.446-0.466-1.971-1.397C22.525,26.175,22.303,25.229,22.303,24.121z M23.5,24.274c0,1.139,0.14,2.069,0.421,2.789
			c0.231,0.606,0.577,0.909,1.037,0.909c0.22,0,0.448-0.099,0.684-0.296c0.236-0.197,0.415-0.528,0.537-0.991
			c0.188-0.7,0.281-1.688,0.281-2.961c0-0.943-0.098-1.731-0.293-2.361c-0.146-0.469-0.336-0.8-0.567-0.995
			c-0.167-0.135-0.369-0.202-0.604-0.202c-0.277,0-0.523,0.125-0.739,0.373c-0.293,0.338-0.492,0.868-0.598,1.593
			S23.5,23.57,23.5,24.274z"/>
	</g>
</g>
<g id="theGroup">
</g>
</svg>
