<?xml version="1.0" encoding="iso-8859-1"?>
<!-- Generator: Adobe Illustrator 16.0.0, SVG Export Plug-In . SVG Version: 6.00 Build 0)  -->
<!DOCTYPE svg PUBLIC "-//W3C//DTD SVG 1.1//EN" "http://www.w3.org/Graphics/SVG/1.1/DTD/svg11.dtd">
<svg version="1.1" id="Lager_1" xmlns="http://www.w3.org/2000/svg" xmlns:xlink="http://www.w3.org/1999/xlink" x="0px" y="0px"
	 width="7.727px" height="32.044px" viewBox="0 0 7.727 32.044" style="enable-background:new 0 0 7.727 32.044;"
	 xml:space="preserve">
<g>
	
		<line style="fill:none;stroke:#3A1968;stroke-width:0.5;stroke-linecap:square;stroke-miterlimit:10;" x1="0.25" y1="15.242" x2="7.477" y2="15.242"/>
	<g>
		<path style="fill:#3A1968;" d="M6.439,1.941v0.226c-0.537,0.053-0.977,0.16-1.315,0.32C4.783,2.648,4.448,2.894,4.117,3.223
			C3.785,3.553,3.51,3.92,3.292,4.324c-0.218,0.405-0.4,0.887-0.546,1.444C3.332,5.365,3.92,5.164,4.51,5.164
			c0.566,0,1.056,0.228,1.471,0.684c0.415,0.455,0.622,1.041,0.622,1.758c0,0.691-0.209,1.322-0.629,1.892
			c-0.504,0.692-1.172,1.038-2.001,1.038c-0.565,0-1.046-0.188-1.44-0.562c-0.773-0.729-1.16-1.673-1.16-2.832
			c0-0.741,0.148-1.444,0.445-2.112C2.116,4.362,2.54,3.771,3.091,3.254C3.643,2.736,4.17,2.389,4.675,2.21
			c0.505-0.18,0.975-0.269,1.41-0.269H6.439z M2.643,6.214c-0.073,0.549-0.11,0.992-0.11,1.33c0,0.391,0.072,0.815,0.217,1.272
			c0.144,0.458,0.359,0.821,0.644,1.09c0.207,0.191,0.459,0.287,0.757,0.287c0.354,0,0.67-0.167,0.949-0.501
			c0.278-0.333,0.418-0.81,0.418-1.428c0-0.696-0.139-1.298-0.415-1.807S4.433,5.695,3.924,5.695c-0.155,0-0.32,0.032-0.498,0.098
			C3.25,5.857,2.988,5.998,2.643,6.214z"/>
	</g>
	<g>
		<path style="fill:#3A1968;" d="M6.262,19.935l-0.476,1.038h-2.49l-0.543,1.11c1.078,0.159,1.933,0.56,2.564,1.202
			c0.541,0.554,0.812,1.205,0.812,1.953c0,0.436-0.089,0.839-0.266,1.209s-0.399,0.686-0.669,0.945
			c-0.268,0.261-0.567,0.471-0.896,0.629c-0.468,0.224-0.948,0.336-1.44,0.336c-0.497,0-0.858-0.085-1.083-0.253
			c-0.226-0.169-0.339-0.355-0.339-0.559c0-0.114,0.047-0.215,0.14-0.303c0.094-0.087,0.212-0.131,0.354-0.131
			c0.105,0,0.198,0.017,0.277,0.049c0.08,0.032,0.215,0.116,0.406,0.25c0.305,0.212,0.614,0.317,0.928,0.317
			c0.476,0,0.894-0.18,1.254-0.54c0.36-0.36,0.54-0.799,0.54-1.315c0-0.5-0.16-0.967-0.482-1.4c-0.321-0.434-0.765-0.769-1.33-1.004
			c-0.443-0.184-1.048-0.289-1.812-0.317l1.587-3.217H6.262z"/>
	</g>
</g>
<g id="theGroup">
</g>
</svg>
