<?xml version="1.0" encoding="iso-8859-1"?>
<!-- Generator: Adobe Illustrator 16.0.0, SVG Export Plug-In . SVG Version: 6.00 Build 0)  -->
<!DOCTYPE svg PUBLIC "-//W3C//DTD SVG 1.1//EN" "http://www.w3.org/Graphics/SVG/1.1/DTD/svg11.dtd">
<svg version="1.1" id="Lager_1" xmlns="http://www.w3.org/2000/svg" xmlns:xlink="http://www.w3.org/1999/xlink" x="0px" y="0px"
	 width="13.977px" height="32.044px" viewBox="0 0 13.977 32.044" style="enable-background:new 0 0 13.977 32.044;"
	 xml:space="preserve">
<g>
	
		<line style="fill:none;stroke:#000000;stroke-width:0.5;stroke-linecap:square;stroke-miterlimit:10;" x1="0.25" y1="15.242" x2="13.727" y2="15.242"/>
	<g>
		<path d="M1.47,3.687c0.236-0.558,0.534-0.987,0.894-1.291c0.36-0.303,0.809-0.454,1.346-0.454c0.663,0,1.172,0.216,1.525,0.646
			C5.504,2.909,5.639,3.254,5.639,3.62c0,0.602-0.379,1.225-1.136,1.867c0.509,0.199,0.894,0.484,1.154,0.854
			s0.391,0.806,0.391,1.307c0,0.716-0.228,1.336-0.684,1.861c-0.594,0.684-1.455,1.025-2.582,1.025
			c-0.558,0-0.937-0.069-1.139-0.208c-0.201-0.138-0.302-0.286-0.302-0.445c0-0.118,0.047-0.222,0.143-0.312
			c0.096-0.089,0.21-0.134,0.345-0.134c0.102,0,0.205,0.016,0.311,0.049c0.069,0.021,0.226,0.095,0.47,0.223
			s0.413,0.204,0.506,0.229c0.15,0.045,0.311,0.067,0.482,0.067c0.415,0,0.776-0.161,1.083-0.482S5.145,8.82,5.145,8.381
			c0-0.322-0.071-0.635-0.213-0.94c-0.106-0.228-0.222-0.4-0.348-0.519c-0.175-0.163-0.415-0.311-0.72-0.442
			C3.558,6.347,3.247,6.281,2.929,6.281H2.734V6.098C3.055,6.057,3.377,5.941,3.701,5.75c0.323-0.191,0.558-0.421,0.705-0.689
			s0.22-0.564,0.22-0.886c0-0.419-0.131-0.758-0.394-1.016C3.97,2.9,3.643,2.771,3.252,2.771c-0.631,0-1.158,0.338-1.581,1.013
			L1.47,3.687z"/>
		<path d="M12.512,2.112l-0.477,1.037h-2.49L9.002,4.261c1.078,0.158,1.934,0.56,2.564,1.202c0.541,0.554,0.811,1.204,0.811,1.953
			c0,0.436-0.088,0.838-0.266,1.209c-0.176,0.37-0.398,0.686-0.668,0.945c-0.268,0.261-0.568,0.471-0.896,0.629
			c-0.469,0.224-0.949,0.336-1.441,0.336c-0.496,0-0.857-0.085-1.083-0.254c-0.226-0.168-0.339-0.354-0.339-0.558
			c0-0.114,0.047-0.215,0.14-0.303C7.917,9.334,8.036,9.29,8.178,9.29c0.105,0,0.199,0.016,0.277,0.049
			c0.08,0.032,0.215,0.116,0.406,0.25c0.305,0.212,0.615,0.317,0.928,0.317c0.477,0,0.895-0.18,1.254-0.54
			c0.361-0.36,0.541-0.799,0.541-1.315c0-0.5-0.16-0.968-0.482-1.4c-0.322-0.434-0.766-0.769-1.33-1.004
			C9.328,5.463,8.723,5.357,7.958,5.329l1.586-3.217H12.512z"/>
	</g>
	<g>
		<path d="M6.438,19.764v0.226c-0.537,0.053-0.976,0.16-1.315,0.32c-0.34,0.161-0.675,0.406-1.007,0.735
			c-0.332,0.33-0.606,0.697-0.824,1.103c-0.218,0.404-0.4,0.886-0.546,1.443c0.586-0.403,1.174-0.604,1.764-0.604
			c0.565,0,1.056,0.228,1.471,0.684s0.622,1.042,0.622,1.758c0,0.691-0.209,1.322-0.628,1.893c-0.504,0.691-1.172,1.037-2.002,1.037
			c-0.565,0-1.046-0.188-1.44-0.562c-0.773-0.729-1.16-1.673-1.16-2.832c0-0.74,0.148-1.444,0.445-2.112
			c0.297-0.667,0.721-1.259,1.273-1.775c0.551-0.517,1.079-0.865,1.583-1.044c0.505-0.179,0.975-0.269,1.41-0.269H6.438z
			 M2.642,24.036c-0.073,0.55-0.11,0.993-0.11,1.331c0,0.391,0.072,0.814,0.217,1.272c0.144,0.457,0.359,0.82,0.644,1.089
			C3.6,27.92,3.853,28.016,4.15,28.016c0.354,0,0.67-0.167,0.949-0.5c0.279-0.334,0.418-0.811,0.418-1.429
			c0-0.696-0.139-1.298-0.415-1.807c-0.277-0.509-0.669-0.763-1.178-0.763c-0.155,0-0.32,0.032-0.498,0.098
			C3.25,23.68,2.988,23.82,2.642,24.036z"/>
		<path d="M12.689,19.764v0.226c-0.537,0.053-0.977,0.16-1.316,0.32c-0.34,0.161-0.676,0.406-1.008,0.735
			c-0.33,0.33-0.605,0.697-0.822,1.103c-0.219,0.404-0.4,0.886-0.547,1.443c0.586-0.403,1.174-0.604,1.764-0.604
			c0.566,0,1.057,0.228,1.471,0.684c0.416,0.456,0.623,1.042,0.623,1.758c0,0.691-0.209,1.322-0.629,1.893
			c-0.504,0.691-1.172,1.037-2.002,1.037c-0.566,0-1.045-0.188-1.44-0.562c-0.773-0.729-1.16-1.673-1.16-2.832
			c0-0.74,0.148-1.444,0.445-2.112c0.297-0.667,0.721-1.259,1.272-1.775c0.553-0.517,1.08-0.865,1.584-1.044
			c0.506-0.179,0.975-0.269,1.41-0.269H12.689z M8.893,24.036c-0.074,0.55-0.11,0.993-0.11,1.331c0,0.391,0.072,0.814,0.217,1.272
			c0.144,0.457,0.358,0.82,0.644,1.089c0.207,0.191,0.461,0.287,0.758,0.287c0.354,0,0.67-0.167,0.949-0.5
			c0.277-0.334,0.418-0.811,0.418-1.429c0-0.696-0.139-1.298-0.416-1.807s-0.67-0.763-1.178-0.763c-0.154,0-0.32,0.032-0.498,0.098
			C9.5,23.68,9.238,23.82,8.893,24.036z"/>
	</g>
</g>
<g id="theGroup">
</g>
</svg>
