<?xml version="1.0" encoding="iso-8859-1"?>
<!-- Generator: Adobe Illustrator 16.0.0, SVG Export Plug-In . SVG Version: 6.00 Build 0)  -->
<!DOCTYPE svg PUBLIC "-//W3C//DTD SVG 1.1//EN" "http://www.w3.org/Graphics/SVG/1.1/DTD/svg11.dtd">
<svg version="1.1" id="Lager_1" xmlns="http://www.w3.org/2000/svg" xmlns:xlink="http://www.w3.org/1999/xlink" x="0px" y="0px"
	 width="40.259px" height="15.474px" viewBox="0 0 40.259 15.474" style="enable-background:new 0 0 40.259 15.474;"
	 xml:space="preserve">
<g>
	<g>
		<path d="M33.894,1.69l1.165-0.568h0.116v4.041c0,0.268,0.011,0.435,0.033,0.501s0.069,0.117,0.14,0.152s0.214,0.055,0.431,0.06
			v0.13h-1.8v-0.13c0.226-0.005,0.371-0.024,0.438-0.059c0.065-0.034,0.111-0.08,0.138-0.137c0.025-0.058,0.039-0.23,0.039-0.517
			V2.58c0-0.348-0.012-0.572-0.036-0.67c-0.016-0.075-0.046-0.13-0.09-0.166c-0.043-0.035-0.096-0.053-0.156-0.053
			c-0.088,0-0.209,0.037-0.364,0.109L33.894,1.69z"/>
		<path d="M36.906,3.642c0-0.545,0.083-1.016,0.247-1.41c0.165-0.394,0.384-0.688,0.656-0.88c0.212-0.153,0.431-0.229,0.656-0.229
			c0.367,0,0.696,0.187,0.988,0.561c0.365,0.464,0.547,1.092,0.547,1.884c0,0.555-0.08,1.027-0.239,1.415
			c-0.16,0.388-0.364,0.67-0.612,0.845C38.9,6.003,38.661,6.09,38.431,6.09c-0.456,0-0.836-0.269-1.14-0.808
			C37.035,4.829,36.906,4.282,36.906,3.642z M37.599,3.73c0,0.659,0.081,1.196,0.243,1.612c0.134,0.351,0.334,0.526,0.6,0.526
			c0.127,0,0.259-0.057,0.396-0.171c0.137-0.114,0.24-0.305,0.311-0.574c0.108-0.404,0.162-0.975,0.162-1.711
			c0-0.545-0.057-1-0.169-1.365c-0.085-0.271-0.194-0.462-0.328-0.575c-0.097-0.078-0.213-0.117-0.35-0.117
			c-0.16,0-0.303,0.072-0.427,0.215c-0.17,0.195-0.285,0.502-0.346,0.921C37.629,2.91,37.599,3.323,37.599,3.73z"/>
	</g>
	<g>
		<path d="M0.635,4.939c0.236-0.558,0.534-0.988,0.894-1.291c0.36-0.303,0.809-0.455,1.346-0.455c0.663,0,1.172,0.216,1.525,0.647
			c0.269,0.321,0.403,0.666,0.403,1.032c0,0.602-0.379,1.225-1.136,1.867c0.509,0.2,0.894,0.484,1.154,0.854S5.212,8.399,5.212,8.9
			c0,0.716-0.228,1.336-0.684,1.861c-0.594,0.684-1.455,1.025-2.582,1.025c-0.558,0-0.937-0.069-1.139-0.207
			c-0.201-0.139-0.302-0.287-0.302-0.446c0-0.118,0.047-0.222,0.143-0.312c0.096-0.089,0.21-0.134,0.345-0.134
			c0.102,0,0.205,0.017,0.311,0.049c0.069,0.021,0.226,0.095,0.47,0.223s0.413,0.204,0.506,0.229
			c0.15,0.044,0.311,0.066,0.482,0.066c0.415,0,0.776-0.16,1.083-0.482c0.307-0.321,0.461-0.701,0.461-1.141
			c0-0.321-0.071-0.635-0.213-0.94c-0.106-0.228-0.222-0.4-0.348-0.519c-0.175-0.163-0.415-0.311-0.72-0.442
			C2.722,7.599,2.411,7.533,2.094,7.533H1.898V7.35C2.22,7.309,2.542,7.193,2.866,7.002C3.189,6.811,3.424,6.581,3.57,6.312
			s0.22-0.564,0.22-0.885c0-0.419-0.131-0.758-0.394-1.016C3.134,4.153,2.808,4.023,2.417,4.023c-0.631,0-1.158,0.338-1.581,1.013
			L0.635,4.939z"/>
		<path d="M6.346,13.722v-0.269c0.419-0.138,0.744-0.353,0.974-0.644c0.229-0.291,0.345-0.6,0.345-0.925
			c0-0.077-0.018-0.143-0.055-0.195c-0.028-0.037-0.057-0.055-0.085-0.055c-0.045,0-0.143,0.04-0.293,0.122
			c-0.073,0.036-0.151,0.055-0.232,0.055c-0.199,0-0.358-0.059-0.476-0.177c-0.118-0.118-0.177-0.281-0.177-0.488
			c0-0.199,0.076-0.37,0.229-0.513c0.152-0.143,0.339-0.214,0.559-0.214c0.269,0,0.507,0.117,0.717,0.351
			c0.209,0.234,0.314,0.545,0.314,0.931c0,0.42-0.146,0.81-0.437,1.169C7.438,13.23,6.977,13.515,6.346,13.722z"/>
		<path d="M15.766,3.193v0.226c-0.537,0.053-0.976,0.16-1.315,0.321s-0.675,0.406-1.007,0.735c-0.332,0.33-0.606,0.697-0.824,1.102
			c-0.218,0.405-0.4,0.886-0.546,1.444c0.586-0.403,1.174-0.604,1.764-0.604c0.565,0,1.056,0.228,1.471,0.684
			c0.415,0.456,0.622,1.042,0.622,1.758c0,0.691-0.209,1.322-0.628,1.893c-0.504,0.691-1.172,1.037-2.002,1.037
			c-0.565,0-1.046-0.188-1.44-0.562c-0.773-0.729-1.16-1.673-1.16-2.832c0-0.74,0.148-1.444,0.445-2.112
			c0.297-0.667,0.721-1.259,1.273-1.776c0.551-0.517,1.079-0.865,1.583-1.044c0.505-0.179,0.975-0.269,1.41-0.269H15.766z
			 M11.969,7.466c-0.073,0.55-0.11,0.993-0.11,1.331c0,0.391,0.072,0.814,0.217,1.272c0.144,0.457,0.359,0.82,0.644,1.089
			c0.207,0.191,0.459,0.287,0.757,0.287c0.354,0,0.67-0.167,0.949-0.5c0.279-0.334,0.418-0.811,0.418-1.429
			c0-0.696-0.139-1.298-0.415-1.807c-0.277-0.509-0.669-0.763-1.178-0.763c-0.155,0-0.32,0.032-0.498,0.098
			C12.577,7.11,12.315,7.25,11.969,7.466z"/>
		<path d="M22.515,4.176l2.014-0.982h0.202v6.988c0,0.464,0.019,0.753,0.058,0.867c0.039,0.113,0.119,0.201,0.241,0.262
			c0.122,0.062,0.37,0.096,0.745,0.104v0.226h-3.113v-0.226c0.391-0.009,0.643-0.042,0.757-0.101
			c0.114-0.06,0.193-0.139,0.238-0.238s0.067-0.397,0.067-0.895V5.714c0-0.602-0.021-0.988-0.062-1.159
			c-0.028-0.13-0.08-0.226-0.155-0.287c-0.076-0.061-0.166-0.092-0.271-0.092c-0.151,0-0.36,0.063-0.629,0.189L22.515,4.176z"/>
		<path d="M27.751,7.552c0-0.944,0.143-1.757,0.428-2.439c0.285-0.681,0.663-1.189,1.135-1.523c0.367-0.264,0.745-0.396,1.136-0.396
			c0.635,0,1.204,0.323,1.709,0.971c0.631,0.801,0.946,1.888,0.946,3.259c0,0.961-0.139,1.776-0.415,2.448
			c-0.277,0.671-0.63,1.158-1.06,1.461c-0.429,0.304-0.843,0.455-1.242,0.455c-0.789,0-1.446-0.466-1.971-1.397
			C27.974,9.604,27.751,8.658,27.751,7.552z M28.948,7.704c0,1.139,0.14,2.069,0.421,2.789c0.231,0.606,0.577,0.909,1.037,0.909
			c0.22,0,0.448-0.099,0.684-0.296c0.236-0.197,0.415-0.528,0.537-0.991c0.188-0.7,0.281-1.688,0.281-2.961
			c0-0.944-0.098-1.731-0.293-2.362c-0.146-0.468-0.336-0.799-0.567-0.995c-0.167-0.135-0.369-0.202-0.604-0.202
			c-0.277,0-0.523,0.124-0.739,0.373c-0.293,0.337-0.492,0.869-0.598,1.593S28.948,7,28.948,7.704z"/>
	</g>
	<g>
		<path d="M19.88,8.442c0,0.188-0.066,0.347-0.198,0.479c-0.132,0.132-0.29,0.198-0.473,0.198c-0.187,0-0.347-0.066-0.479-0.198
			c-0.132-0.133-0.199-0.292-0.199-0.479s0.066-0.347,0.199-0.479c0.132-0.132,0.292-0.198,0.479-0.198
			c0.183,0,0.341,0.066,0.473,0.198C19.814,8.096,19.88,8.255,19.88,8.442z"/>
	</g>
</g>
<g id="theGroup">
</g>
</svg>
