<?xml version="1.0" encoding="iso-8859-1"?>
<!-- Generator: Adobe Illustrator 16.0.0, SVG Export Plug-In . SVG Version: 6.00 Build 0)  -->
<!DOCTYPE svg PUBLIC "-//W3C//DTD SVG 1.1//EN" "http://www.w3.org/Graphics/SVG/1.1/DTD/svg11.dtd">
<svg version="1.1" id="Lager_1" xmlns="http://www.w3.org/2000/svg" xmlns:xlink="http://www.w3.org/1999/xlink" x="0px" y="0px"
	 width="21.033px" height="15.846px" viewBox="0 0 21.033 15.846" style="enable-background:new 0 0 21.033 15.846;"
	 xml:space="preserve">
<g>
	<g>
		<path d="M14.893,10.303v1.101h-0.116c-0.089-0.346-0.204-0.581-0.344-0.706c-0.141-0.124-0.318-0.187-0.535-0.187
			c-0.164,0-0.297,0.043-0.398,0.131c-0.102,0.087-0.151,0.183-0.151,0.289c0,0.132,0.037,0.244,0.112,0.339
			c0.073,0.097,0.222,0.198,0.445,0.307l0.515,0.251c0.478,0.232,0.717,0.539,0.717,0.921c0,0.294-0.111,0.53-0.334,0.711
			c-0.222,0.18-0.471,0.27-0.746,0.27c-0.197,0-0.424-0.035-0.678-0.105c-0.077-0.023-0.141-0.035-0.19-0.035
			c-0.054,0-0.097,0.03-0.127,0.092h-0.116v-1.154h0.116c0.065,0.329,0.191,0.577,0.378,0.744c0.186,0.168,0.394,0.251,0.624,0.251
			c0.162,0,0.295-0.048,0.397-0.143c0.102-0.096,0.153-0.21,0.153-0.345c0-0.162-0.058-0.299-0.171-0.409
			c-0.114-0.11-0.342-0.25-0.684-0.42c-0.341-0.169-0.564-0.322-0.67-0.458c-0.105-0.135-0.159-0.304-0.159-0.509
			c0-0.266,0.092-0.488,0.273-0.667c0.183-0.179,0.419-0.268,0.708-0.268c0.127,0,0.281,0.026,0.462,0.081
			c0.12,0.035,0.2,0.053,0.24,0.053c0.037,0,0.067-0.008,0.088-0.024c0.021-0.017,0.046-0.054,0.074-0.109H14.893z"/>
		<path d="M16.738,10.303v3.253c0,0.553-0.117,0.964-0.353,1.231c-0.235,0.269-0.541,0.402-0.918,0.402
			c-0.214,0-0.372-0.039-0.476-0.116c-0.104-0.078-0.155-0.158-0.155-0.24s0.028-0.152,0.086-0.212
			c0.058-0.059,0.126-0.088,0.203-0.088c0.062,0,0.123,0.016,0.188,0.046c0.039,0.017,0.116,0.076,0.23,0.178
			c0.114,0.103,0.21,0.154,0.288,0.154c0.056,0,0.111-0.022,0.165-0.065c0.055-0.044,0.095-0.116,0.12-0.219
			c0.026-0.103,0.039-0.324,0.039-0.665v-2.301c0-0.355-0.011-0.584-0.031-0.685c-0.017-0.078-0.043-0.131-0.078-0.161
			c-0.035-0.029-0.083-0.044-0.145-0.044c-0.066,0-0.146,0.018-0.24,0.053l-0.049-0.127l0.974-0.395H16.738z M16.436,8.609
			c0.101,0,0.187,0.035,0.257,0.106c0.071,0.07,0.106,0.156,0.106,0.257c0,0.1-0.035,0.184-0.106,0.255
			c-0.07,0.07-0.156,0.105-0.257,0.105c-0.1,0-0.184-0.035-0.255-0.105c-0.07-0.071-0.105-0.155-0.105-0.255
			c0-0.101,0.035-0.187,0.105-0.257C16.252,8.644,16.336,8.609,16.436,8.609z"/>
		<path d="M20.479,10.398v1.959c0,0.374,0.009,0.603,0.026,0.686c0.018,0.084,0.046,0.143,0.085,0.175
			c0.038,0.033,0.084,0.05,0.136,0.05c0.072,0,0.155-0.021,0.247-0.061l0.049,0.124l-0.967,0.398h-0.158v-0.685
			c-0.278,0.302-0.49,0.49-0.636,0.568c-0.146,0.077-0.3,0.116-0.462,0.116c-0.182,0-0.339-0.052-0.472-0.157
			c-0.133-0.104-0.225-0.239-0.276-0.403c-0.052-0.165-0.078-0.397-0.078-0.699v-1.443c0-0.152-0.017-0.259-0.049-0.317
			c-0.033-0.059-0.082-0.104-0.146-0.136c-0.065-0.031-0.182-0.046-0.352-0.044v-0.131h1.133v2.163c0,0.302,0.053,0.499,0.157,0.593
			c0.104,0.095,0.231,0.142,0.379,0.142c0.102,0,0.216-0.032,0.345-0.096c0.128-0.063,0.28-0.185,0.457-0.363v-1.831
			c0-0.184-0.034-0.308-0.101-0.372c-0.067-0.065-0.207-0.1-0.419-0.104v-0.131H20.479z"/>
	</g>
	<g>
		<path d="M5.816,7.336v0.867h-1.11v2.185H3.699V8.203H0.195V7.422l3.839-5.481h0.672v5.396H5.816z M3.699,7.336V3.229L0.793,7.336
			H3.699z"/>
		<path d="M12.066,7.336v0.867h-1.11v2.185H9.949V8.203H6.445V7.422l3.839-5.481h0.672v5.396H12.066z M9.949,7.336V3.229
			L7.043,7.336H9.949z"/>
	</g>
</g>
<g id="theGroup">
</g>
</svg>
