<?xml version="1.0" encoding="iso-8859-1"?>
<!-- Generator: Adobe Illustrator 16.0.0, SVG Export Plug-In . SVG Version: 6.00 Build 0)  -->
<!DOCTYPE svg PUBLIC "-//W3C//DTD SVG 1.1//EN" "http://www.w3.org/Graphics/SVG/1.1/DTD/svg11.dtd">
<svg version="1.1" id="Lager_1" xmlns="http://www.w3.org/2000/svg" xmlns:xlink="http://www.w3.org/1999/xlink" x="0px" y="0px"
	 width="67.219px" height="32.655px" viewBox="0 0 67.219 32.655" style="enable-background:new 0 0 67.219 32.655;"
	 xml:space="preserve">
<g>
	
		<line style="fill:none;stroke:#000000;stroke-width:0.5;stroke-linecap:square;stroke-miterlimit:10;" x1="0.25" y1="15.854" x2="6.891" y2="15.854"/>
	
		<line style="fill:none;stroke:#000000;stroke-width:0.5;stroke-linecap:square;stroke-miterlimit:10;" x1="21.031" y1="15.854" x2="39.156" y2="15.854"/>
	
		<line style="fill:none;stroke:#000000;stroke-width:0.5;stroke-linecap:square;stroke-miterlimit:10;" x1="53.297" y1="15.854" x2="66.969" y2="15.854"/>
	<g>
		<path d="M1.91,3.535l2.014-0.982h0.202v6.988c0,0.464,0.019,0.753,0.058,0.867c0.039,0.114,0.119,0.201,0.241,0.262
			s0.37,0.096,0.745,0.104V11H2.057v-0.226c0.391-0.008,0.643-0.042,0.757-0.101c0.114-0.059,0.193-0.138,0.238-0.238
			c0.044-0.1,0.067-0.398,0.067-0.895V5.073c0-0.602-0.021-0.988-0.061-1.159c-0.028-0.13-0.081-0.226-0.156-0.287
			S2.736,3.535,2.63,3.535c-0.15,0-0.36,0.063-0.628,0.189L1.91,3.535z"/>
		<path d="M22.685,3.535l2.014-0.982h0.202v6.988c0,0.464,0.019,0.753,0.058,0.867c0.039,0.114,0.119,0.201,0.241,0.262
			s0.37,0.096,0.745,0.104V11h-3.113v-0.226c0.391-0.008,0.643-0.042,0.757-0.101c0.114-0.059,0.193-0.138,0.238-0.238
			c0.044-0.1,0.067-0.398,0.067-0.895V5.073c0-0.602-0.021-0.988-0.061-1.159c-0.028-0.13-0.081-0.226-0.156-0.287
			s-0.166-0.092-0.271-0.092c-0.15,0-0.36,0.063-0.628,0.189L22.685,3.535z"/>
		<path d="M34.319,6.831c-0.655-0.537-1.077-0.968-1.266-1.294c-0.189-0.325-0.284-0.663-0.284-1.013c0-0.537,0.207-1,0.622-1.389
			s0.967-0.583,1.654-0.583c0.668,0,1.205,0.181,1.611,0.543c0.408,0.362,0.611,0.775,0.611,1.239c0,0.309-0.111,0.625-0.33,0.946
			c-0.221,0.321-0.678,0.7-1.373,1.135c0.717,0.554,1.189,0.989,1.422,1.307c0.309,0.415,0.463,0.852,0.463,1.312
			c0,0.582-0.221,1.08-0.664,1.492c-0.443,0.413-1.025,0.62-1.746,0.62c-0.785,0-1.397-0.246-1.837-0.738
			c-0.35-0.395-0.525-0.826-0.525-1.294c0-0.366,0.123-0.729,0.369-1.09C33.292,7.665,33.717,7.267,34.319,6.831z M34.606,7.063
			c-0.338,0.285-0.588,0.595-0.751,0.931c-0.163,0.335-0.244,0.699-0.244,1.089c0,0.525,0.144,0.945,0.431,1.26
			c0.287,0.315,0.652,0.473,1.095,0.473c0.439,0,0.791-0.124,1.057-0.373c0.264-0.248,0.396-0.549,0.396-0.903
			c0-0.293-0.078-0.555-0.232-0.787C36.068,8.323,35.484,7.759,34.606,7.063z M35.277,6.178c0.488-0.439,0.797-0.786,0.928-1.041
			S36.4,4.595,36.4,4.274c0-0.427-0.119-0.762-0.359-1.004s-0.568-0.363-0.984-0.363c-0.414,0-0.752,0.12-1.012,0.36
			c-0.26,0.24-0.391,0.521-0.391,0.843c0,0.211,0.054,0.423,0.162,0.635c0.108,0.211,0.262,0.413,0.461,0.604L35.277,6.178z"/>
		<path d="M59.394,6.831c-0.655-0.537-1.077-0.968-1.267-1.294c-0.188-0.325-0.283-0.663-0.283-1.013c0-0.537,0.207-1,0.622-1.389
			s0.967-0.583,1.654-0.583c0.667,0,1.204,0.181,1.611,0.543c0.407,0.362,0.61,0.775,0.61,1.239c0,0.309-0.11,0.625-0.329,0.946
			c-0.221,0.321-0.678,0.7-1.374,1.135c0.717,0.554,1.19,0.989,1.423,1.307c0.309,0.415,0.463,0.852,0.463,1.312
			c0,0.582-0.222,1.08-0.665,1.492c-0.443,0.413-1.025,0.62-1.745,0.62c-0.785,0-1.398-0.246-1.838-0.738
			c-0.35-0.395-0.524-0.826-0.524-1.294c0-0.366,0.123-0.729,0.369-1.09C58.367,7.665,58.792,7.267,59.394,6.831z M59.681,7.063
			c-0.338,0.285-0.588,0.595-0.751,0.931c-0.162,0.335-0.244,0.699-0.244,1.089c0,0.525,0.144,0.945,0.431,1.26
			c0.287,0.315,0.652,0.473,1.096,0.473c0.439,0,0.791-0.124,1.056-0.373c0.265-0.248,0.396-0.549,0.396-0.903
			c0-0.293-0.077-0.555-0.231-0.787C61.144,8.323,60.56,7.759,59.681,7.063z M60.353,6.178c0.488-0.439,0.797-0.786,0.928-1.041
			c0.13-0.254,0.195-0.542,0.195-0.864c0-0.427-0.12-0.762-0.36-1.004s-0.567-0.363-0.983-0.363c-0.414,0-0.752,0.12-1.013,0.36
			c-0.261,0.24-0.391,0.521-0.391,0.843c0,0.211,0.054,0.423,0.162,0.635c0.107,0.211,0.261,0.413,0.46,0.604L60.353,6.178z"/>
	</g>
	<g>
		<path d="M1.275,22.121c0.236-0.558,0.534-0.988,0.894-1.291c0.36-0.304,0.809-0.455,1.346-0.455c0.663,0,1.172,0.216,1.525,0.646
			c0.269,0.322,0.403,0.666,0.403,1.032c0,0.602-0.379,1.225-1.136,1.867c0.509,0.199,0.894,0.484,1.154,0.854
			s0.391,0.806,0.391,1.307c0,0.716-0.228,1.336-0.684,1.861c-0.594,0.684-1.455,1.025-2.582,1.025
			c-0.558,0-0.937-0.069-1.139-0.207c-0.201-0.139-0.302-0.287-0.302-0.446c0-0.118,0.047-0.222,0.143-0.312
			c0.096-0.089,0.21-0.134,0.345-0.134c0.102,0,0.205,0.017,0.311,0.049c0.069,0.021,0.226,0.095,0.47,0.223
			s0.413,0.204,0.506,0.229c0.15,0.044,0.311,0.066,0.482,0.066c0.415,0,0.776-0.16,1.083-0.482
			c0.307-0.321,0.461-0.701,0.461-1.141c0-0.321-0.071-0.635-0.213-0.94c-0.106-0.228-0.222-0.4-0.348-0.519
			c-0.175-0.163-0.415-0.311-0.72-0.442s-0.616-0.198-0.934-0.198H2.539v-0.184c0.321-0.04,0.644-0.156,0.967-0.348
			c0.323-0.191,0.558-0.421,0.705-0.689s0.22-0.563,0.22-0.885c0-0.42-0.131-0.758-0.394-1.017
			c-0.262-0.259-0.589-0.388-0.979-0.388c-0.631,0-1.158,0.338-1.581,1.014L1.275,22.121z"/>
		<path d="M22.05,22.121c0.236-0.558,0.534-0.988,0.894-1.291c0.36-0.304,0.809-0.455,1.346-0.455c0.663,0,1.172,0.216,1.525,0.646
			c0.269,0.322,0.403,0.666,0.403,1.032c0,0.602-0.379,1.225-1.136,1.867c0.509,0.199,0.894,0.484,1.154,0.854
			s0.391,0.806,0.391,1.307c0,0.716-0.228,1.336-0.684,1.861c-0.594,0.684-1.455,1.025-2.582,1.025
			c-0.558,0-0.937-0.069-1.139-0.207c-0.201-0.139-0.302-0.287-0.302-0.446c0-0.118,0.047-0.222,0.143-0.312
			c0.096-0.089,0.21-0.134,0.345-0.134c0.102,0,0.205,0.017,0.311,0.049c0.069,0.021,0.226,0.095,0.47,0.223
			s0.413,0.204,0.506,0.229c0.15,0.044,0.311,0.066,0.482,0.066c0.415,0,0.776-0.16,1.083-0.482
			c0.307-0.321,0.461-0.701,0.461-1.141c0-0.321-0.071-0.635-0.213-0.94c-0.106-0.228-0.222-0.4-0.348-0.519
			c-0.175-0.163-0.415-0.311-0.72-0.442s-0.616-0.198-0.934-0.198h-0.195v-0.184c0.321-0.04,0.644-0.156,0.967-0.348
			c0.323-0.191,0.558-0.421,0.705-0.689s0.22-0.563,0.22-0.885c0-0.42-0.131-0.758-0.394-1.017
			c-0.262-0.259-0.589-0.388-0.979-0.388c-0.631,0-1.158,0.338-1.581,1.014L22.05,22.121z"/>
		<path d="M35.102,24.653c-0.655-0.537-1.077-0.968-1.266-1.294c-0.189-0.325-0.284-0.663-0.284-1.013c0-0.537,0.207-1,0.622-1.389
			s0.967-0.583,1.654-0.583c0.667,0,1.204,0.181,1.611,0.543s0.61,0.775,0.61,1.239c0,0.31-0.11,0.625-0.329,0.946
			c-0.221,0.321-0.678,0.699-1.374,1.135c0.717,0.554,1.19,0.989,1.423,1.307c0.309,0.415,0.463,0.853,0.463,1.312
			c0,0.581-0.222,1.079-0.665,1.492s-1.025,0.619-1.745,0.619c-0.785,0-1.398-0.246-1.837-0.738
			c-0.35-0.395-0.525-0.826-0.525-1.294c0-0.366,0.123-0.729,0.369-1.09S34.5,25.089,35.102,24.653z M35.389,24.886
			c-0.338,0.284-0.588,0.595-0.751,0.931c-0.163,0.336-0.244,0.699-0.244,1.09c0,0.524,0.144,0.944,0.431,1.26
			s0.652,0.473,1.096,0.473c0.439,0,0.791-0.124,1.056-0.372s0.396-0.549,0.396-0.903c0-0.293-0.077-0.555-0.231-0.787
			C36.852,26.145,36.268,25.581,35.389,24.886z M36.061,24c0.488-0.439,0.797-0.786,0.928-1.04c0.13-0.254,0.195-0.542,0.195-0.864
			c0-0.427-0.12-0.762-0.36-1.004c-0.24-0.241-0.567-0.363-0.983-0.363c-0.414,0-0.752,0.12-1.013,0.36
			c-0.26,0.24-0.391,0.521-0.391,0.843c0,0.211,0.054,0.423,0.162,0.635c0.108,0.211,0.261,0.413,0.46,0.604L36.061,24z"/>
		<path d="M59.797,27.229l-0.58,1.593h-4.883v-0.226c1.437-1.311,2.447-2.381,3.033-3.211s0.879-1.589,0.879-2.276
			c0-0.525-0.16-0.956-0.481-1.294c-0.322-0.338-0.706-0.507-1.154-0.507c-0.406,0-0.771,0.119-1.096,0.357
			c-0.323,0.238-0.562,0.587-0.717,1.047h-0.226c0.102-0.753,0.363-1.331,0.784-1.733c0.421-0.403,0.947-0.604,1.578-0.604
			c0.671,0,1.231,0.216,1.681,0.646c0.45,0.432,0.675,0.94,0.675,1.526c0,0.419-0.098,0.838-0.293,1.257
			c-0.301,0.66-0.789,1.357-1.465,2.094c-1.014,1.107-1.646,1.774-1.898,2.002h2.161c0.439,0,0.747-0.016,0.925-0.049
			c0.177-0.032,0.336-0.099,0.479-0.198s0.267-0.241,0.373-0.424H59.797z"/>
		<path d="M66.132,25.771v0.866h-1.11v2.186h-1.007v-2.186h-3.504v-0.781l3.839-5.48h0.672v5.396H66.132z M64.015,25.771v-4.107
			l-2.906,4.107H64.015z"/>
	</g>
	<g>
		<path d="M29.984,7.802c0,0.187-0.066,0.347-0.198,0.479c-0.132,0.132-0.29,0.199-0.473,0.199c-0.187,0-0.347-0.066-0.479-0.199
			c-0.132-0.132-0.199-0.292-0.199-0.479s0.066-0.347,0.199-0.479c0.132-0.132,0.292-0.199,0.479-0.199
			c0.183,0,0.341,0.066,0.473,0.199C29.917,7.455,29.984,7.615,29.984,7.802z"/>
	</g>
	<g>
		<path d="M10.671,14.551h6.409v0.592h-6.409V14.551z M10.671,16.827h6.409v0.604h-6.409V16.827z"/>
		<path d="M42.932,14.551h6.409v0.592h-6.409V14.551z M42.932,16.827h6.409v0.604h-6.409V16.827z"/>
	</g>
	<g>
		<path d="M30.765,25.624c0,0.188-0.066,0.347-0.198,0.479c-0.132,0.132-0.29,0.198-0.473,0.198c-0.187,0-0.347-0.066-0.479-0.198
			c-0.132-0.133-0.199-0.292-0.199-0.479s0.066-0.347,0.199-0.479c0.132-0.132,0.292-0.198,0.479-0.198
			c0.183,0,0.341,0.066,0.473,0.198C30.699,25.277,30.765,25.437,30.765,25.624z"/>
	</g>
</g>
<g id="theGroup">
</g>
</svg>
