<?xml version="1.0" encoding="iso-8859-1"?>
<!-- Generator: Adobe Illustrator 16.0.0, SVG Export Plug-In . SVG Version: 6.00 Build 0)  -->
<!DOCTYPE svg PUBLIC "-//W3C//DTD SVG 1.1//EN" "http://www.w3.org/Graphics/SVG/1.1/DTD/svg11.dtd">
<svg version="1.1" id="Lager_1" xmlns="http://www.w3.org/2000/svg" xmlns:xlink="http://www.w3.org/1999/xlink" x="0px" y="0px"
	 width="91.3px" height="15.454px" viewBox="0 0 91.3 15.454" style="enable-background:new 0 0 91.3 15.454;" xml:space="preserve"
	>
<g>
	<g>
		<path style="fill:#0066FF;" d="M10.081,5.085L9.746,6.006H6.923v-0.13c0.831-0.758,1.415-1.376,1.754-1.856
			C9.015,3.54,9.185,3.101,9.185,2.703c0-0.304-0.093-0.553-0.279-0.748C8.72,1.76,8.498,1.662,8.239,1.662
			c-0.235,0-0.446,0.069-0.633,0.207S7.28,2.208,7.191,2.474h-0.13c0.059-0.435,0.21-0.769,0.453-1.002
			c0.244-0.233,0.548-0.35,0.912-0.35c0.388,0,0.712,0.125,0.972,0.374c0.26,0.25,0.39,0.543,0.39,0.882
			c0,0.242-0.057,0.485-0.169,0.727C9.444,3.486,9.162,3.89,8.772,4.315C8.186,4.956,7.82,5.341,7.674,5.473h1.249
			c0.254,0,0.433-0.009,0.535-0.028C9.561,5.426,9.653,5.388,9.735,5.33C9.817,5.272,9.889,5.191,9.95,5.085H10.081z"/>
		<path style="fill:#0066FF;" d="M24.719,3.642c0-0.545,0.082-1.016,0.247-1.41c0.165-0.394,0.383-0.688,0.656-0.88
			c0.211-0.153,0.43-0.229,0.656-0.229c0.367,0,0.696,0.187,0.988,0.561c0.365,0.464,0.547,1.092,0.547,1.884
			c0,0.555-0.08,1.027-0.24,1.415s-0.364,0.67-0.612,0.845S26.474,6.09,26.244,6.09c-0.457,0-0.836-0.269-1.14-0.808
			C24.847,4.829,24.719,4.282,24.719,3.642z M25.411,3.73c0,0.659,0.081,1.196,0.244,1.612c0.134,0.351,0.334,0.526,0.6,0.526
			c0.127,0,0.259-0.057,0.396-0.171c0.136-0.114,0.24-0.305,0.311-0.574c0.108-0.404,0.162-0.975,0.162-1.711
			c0-0.545-0.057-1-0.169-1.365c-0.084-0.271-0.194-0.462-0.328-0.575c-0.096-0.078-0.213-0.117-0.349-0.117
			c-0.16,0-0.302,0.072-0.427,0.215c-0.169,0.195-0.285,0.502-0.346,0.921C25.441,2.91,25.411,3.323,25.411,3.73z"/>
	</g>
	<g>
		<path style="fill:#0066FF;" d="M1.257,3.345h4.437v0.232l-2.759,8.215H2.252L4.724,4.34H2.447c-0.459,0-0.787,0.055-0.982,0.165
			C1.123,4.691,0.849,4.98,0.641,5.371L0.464,5.304L1.257,3.345z"/>
		<path style="fill:#0066FF;" d="M19.07,3.345h4.437v0.232l-2.759,8.215h-0.684l2.472-7.452H20.26c-0.459,0-0.787,0.055-0.982,0.165
			c-0.342,0.187-0.616,0.476-0.824,0.867l-0.177-0.067L19.07,3.345z"/>
		<path style="fill:#0066FF;" d="M48.854,8.569v0.866h-1.109v2.186h-1.008V9.436h-3.503V8.654l3.839-5.48h0.672v5.396H48.854z
			 M46.736,8.569V4.462l-2.905,4.107H46.736z"/>
		<path style="fill:#0066FF;" d="M49.946,11.792v-0.226c0.529-0.009,1.021-0.132,1.478-0.369c0.455-0.238,0.896-0.654,1.321-1.248
			c0.425-0.595,0.721-1.248,0.888-1.96c-0.639,0.411-1.217,0.617-1.733,0.617c-0.582,0-1.08-0.225-1.495-0.675
			s-0.623-1.047-0.623-1.792c0-0.724,0.208-1.369,0.623-1.935c0.5-0.688,1.153-1.031,1.959-1.031c0.68,0,1.262,0.281,1.746,0.842
			C54.703,4.712,55,5.57,55,6.592c0,0.919-0.226,1.777-0.678,2.572c-0.451,0.796-1.08,1.456-1.886,1.98
			c-0.655,0.432-1.369,0.647-2.143,0.647H49.946z M53.73,7.538c0.073-0.529,0.109-0.952,0.109-1.27c0-0.395-0.066-0.821-0.201-1.279
			c-0.134-0.458-0.324-0.809-0.57-1.053s-0.526-0.366-0.84-0.366c-0.361,0-0.679,0.163-0.951,0.488
			c-0.273,0.326-0.409,0.81-0.409,1.453c0,0.858,0.181,1.53,0.543,2.014c0.265,0.35,0.59,0.525,0.977,0.525
			c0.188,0,0.409-0.045,0.665-0.135C53.31,7.827,53.535,7.701,53.73,7.538z"/>
		<path style="fill:#0066FF;" d="M61.64,4.156l2.014-0.982h0.202v6.988c0,0.464,0.019,0.753,0.058,0.867
			c0.039,0.113,0.119,0.201,0.241,0.262c0.122,0.062,0.37,0.096,0.745,0.104v0.226h-3.113v-0.226
			c0.391-0.009,0.643-0.042,0.757-0.101c0.114-0.06,0.193-0.139,0.238-0.238s0.067-0.397,0.067-0.895V5.694
			c0-0.602-0.021-0.988-0.062-1.159c-0.028-0.13-0.08-0.226-0.155-0.287c-0.076-0.061-0.166-0.092-0.271-0.092
			c-0.151,0-0.36,0.063-0.629,0.189L61.64,4.156z"/>
		<path style="fill:#0066FF;" d="M84.616,8.569v0.866h-1.11v2.186h-1.007V9.436h-3.504V8.654l3.839-5.48h0.672v5.396H84.616z
			 M82.499,8.569V4.462l-2.906,4.107H82.499z"/>
		<path style="fill:#0066FF;" d="M85.709,11.792v-0.226c0.529-0.009,1.021-0.132,1.478-0.369c0.455-0.238,0.896-0.654,1.321-1.248
			c0.425-0.595,0.721-1.248,0.888-1.96c-0.639,0.411-1.217,0.617-1.733,0.617c-0.582,0-1.08-0.225-1.495-0.675
			s-0.623-1.047-0.623-1.792c0-0.724,0.208-1.369,0.623-1.935c0.5-0.688,1.153-1.031,1.959-1.031c0.68,0,1.262,0.281,1.746,0.842
			c0.594,0.696,0.891,1.554,0.891,2.576c0,0.919-0.226,1.777-0.678,2.572c-0.451,0.796-1.08,1.456-1.886,1.98
			c-0.655,0.432-1.369,0.647-2.143,0.647H85.709z M89.493,7.538c0.073-0.529,0.109-0.952,0.109-1.27
			c0-0.395-0.066-0.821-0.201-1.279c-0.134-0.458-0.324-0.809-0.57-1.053s-0.526-0.366-0.84-0.366c-0.361,0-0.679,0.163-0.951,0.488
			c-0.273,0.326-0.409,0.81-0.409,1.453c0,0.858,0.181,1.53,0.543,2.014c0.265,0.35,0.59,0.525,0.977,0.525
			c0.188,0,0.409-0.045,0.665-0.135C89.072,7.827,89.298,7.701,89.493,7.538z"/>
	</g>
	<g>
		<path style="fill:#0066FF;" d="M15.486,8.423c0,0.188-0.066,0.347-0.198,0.479c-0.132,0.132-0.29,0.198-0.473,0.198
			c-0.187,0-0.347-0.066-0.479-0.198c-0.132-0.133-0.199-0.292-0.199-0.479c0-0.187,0.066-0.347,0.199-0.479
			c0.132-0.132,0.292-0.199,0.479-0.199c0.183,0,0.341,0.066,0.473,0.199C15.419,8.076,15.486,8.236,15.486,8.423z"/>
		<path style="fill:#0066FF;" d="M32.89,6.988h6.409v0.592H32.89V6.988z M32.89,9.266h6.409v0.604H32.89V9.266z"/>
		<path style="fill:#0066FF;" d="M59.034,8.423c0,0.188-0.066,0.347-0.199,0.479c-0.132,0.132-0.289,0.198-0.473,0.198
			c-0.188,0-0.347-0.066-0.479-0.198c-0.132-0.133-0.198-0.292-0.198-0.479c0-0.187,0.066-0.347,0.198-0.479
			c0.133-0.132,0.292-0.199,0.479-0.199c0.184,0,0.341,0.066,0.473,0.199C58.968,8.076,59.034,8.236,59.034,8.423z"/>
		<path style="fill:#0066FF;" d="M68.663,6.988h6.409v0.592h-6.409V6.988z M68.663,9.266h6.409v0.604h-6.409V9.266z"/>
	</g>
</g>
<g id="theGroup">
</g>
</svg>
