<?xml version="1.0" encoding="iso-8859-1"?>
<!-- Generator: Adobe Illustrator 16.0.0, SVG Export Plug-In . SVG Version: 6.00 Build 0)  -->
<!DOCTYPE svg PUBLIC "-//W3C//DTD SVG 1.1//EN" "http://www.w3.org/Graphics/SVG/1.1/DTD/svg11.dtd">
<svg version="1.1" id="Lager_1" xmlns="http://www.w3.org/2000/svg" xmlns:xlink="http://www.w3.org/1999/xlink" x="0px" y="0px"
	 width="20.422px" height="32.044px" viewBox="0 0 20.422 32.044" style="enable-background:new 0 0 20.422 32.044;"
	 xml:space="preserve">
<g>
	
		<line style="fill:none;stroke:#000000;stroke-width:0.5;stroke-linecap:square;stroke-miterlimit:10;" x1="0.25" y1="15.242" x2="20.172" y2="15.242"/>
	<g>
		<path d="M6.753,8.796l-0.58,1.593H1.29v-0.226c1.437-1.311,2.447-2.381,3.033-3.211s0.879-1.589,0.879-2.276
			c0-0.525-0.161-0.956-0.482-1.294S4.014,2.875,3.566,2.875c-0.407,0-0.772,0.119-1.095,0.357C2.147,3.47,1.909,3.819,1.754,4.279
			H1.528C1.63,3.526,1.891,2.948,2.312,2.546C2.733,2.143,3.259,1.941,3.89,1.941c0.671,0,1.232,0.216,1.682,0.646
			c0.449,0.432,0.674,0.94,0.674,1.526c0,0.419-0.098,0.838-0.293,1.257C5.652,6.03,5.164,6.729,4.488,7.465
			C3.475,8.571,2.842,9.239,2.59,9.467h2.161c0.439,0,0.748-0.017,0.924-0.049C5.853,9.386,6.012,9.319,6.154,9.22
			c0.143-0.1,0.267-0.241,0.373-0.424H6.753z"/>
		<path d="M7.723,6.299c0-0.943,0.143-1.757,0.427-2.438C8.435,3.18,8.813,2.672,9.286,2.338c0.366-0.265,0.745-0.396,1.135-0.396
			c0.635,0,1.204,0.323,1.709,0.971c0.631,0.801,0.946,1.888,0.946,3.259c0,0.96-0.139,1.776-0.415,2.447
			c-0.277,0.672-0.63,1.159-1.06,1.462c-0.43,0.304-0.843,0.455-1.242,0.455c-0.79,0-1.447-0.466-1.971-1.397
			C7.945,8.352,7.723,7.406,7.723,6.299z M8.919,6.452c0,1.139,0.14,2.068,0.421,2.789c0.231,0.606,0.578,0.909,1.037,0.909
			c0.22,0,0.448-0.099,0.684-0.296c0.236-0.197,0.415-0.528,0.537-0.992c0.188-0.699,0.281-1.687,0.281-2.96
			c0-0.944-0.098-1.731-0.293-2.362c-0.146-0.468-0.336-0.799-0.567-0.994c-0.167-0.135-0.369-0.202-0.604-0.202
			c-0.277,0-0.523,0.124-0.739,0.373C9.383,3.054,9.184,3.585,9.078,4.31C8.972,5.033,8.919,5.748,8.919,6.452z"/>
		<path d="M13.973,6.299c0-0.943,0.143-1.757,0.428-2.438c0.285-0.681,0.663-1.188,1.135-1.522c0.367-0.265,0.745-0.396,1.136-0.396
			c0.635,0,1.204,0.323,1.709,0.971c0.631,0.801,0.946,1.888,0.946,3.259c0,0.96-0.139,1.776-0.415,2.447
			c-0.277,0.672-0.63,1.159-1.06,1.462c-0.429,0.304-0.843,0.455-1.242,0.455c-0.789,0-1.446-0.466-1.971-1.397
			C14.195,8.352,13.973,7.406,13.973,6.299z M15.17,6.452c0,1.139,0.14,2.068,0.421,2.789c0.231,0.606,0.577,0.909,1.037,0.909
			c0.22,0,0.448-0.099,0.684-0.296c0.236-0.197,0.415-0.528,0.537-0.992c0.188-0.699,0.281-1.687,0.281-2.96
			c0-0.944-0.098-1.731-0.293-2.362c-0.146-0.468-0.336-0.799-0.567-0.994c-0.167-0.135-0.369-0.202-0.604-0.202
			c-0.277,0-0.523,0.124-0.739,0.373c-0.293,0.337-0.492,0.868-0.598,1.593C15.223,5.033,15.17,5.748,15.17,6.452z"/>
	</g>
	<g>
		<path d="M7.906,21.51c0.236-0.558,0.534-0.988,0.894-1.291c0.36-0.304,0.809-0.455,1.346-0.455c0.663,0,1.172,0.216,1.525,0.646
			c0.269,0.322,0.403,0.666,0.403,1.032c0,0.602-0.379,1.225-1.136,1.867c0.509,0.199,0.894,0.484,1.154,0.854
			c0.26,0.37,0.391,0.806,0.391,1.307c0,0.716-0.229,1.336-0.684,1.861c-0.595,0.684-1.455,1.025-2.582,1.025
			c-0.558,0-0.937-0.069-1.139-0.207c-0.201-0.139-0.302-0.287-0.302-0.446c0-0.118,0.047-0.222,0.143-0.312
			c0.096-0.089,0.21-0.134,0.345-0.134c0.102,0,0.205,0.017,0.311,0.049c0.069,0.021,0.226,0.095,0.47,0.223
			s0.413,0.204,0.506,0.229c0.15,0.044,0.311,0.066,0.482,0.066c0.415,0,0.776-0.16,1.083-0.482
			c0.308-0.321,0.461-0.701,0.461-1.141c0-0.321-0.07-0.635-0.213-0.94c-0.105-0.228-0.223-0.4-0.348-0.519
			c-0.175-0.163-0.416-0.311-0.721-0.442s-0.616-0.198-0.934-0.198H9.17V23.92c0.321-0.04,0.644-0.156,0.967-0.348
			c0.323-0.191,0.558-0.421,0.705-0.689s0.22-0.563,0.22-0.885c0-0.42-0.131-0.758-0.394-1.017
			c-0.262-0.259-0.589-0.388-0.979-0.388c-0.631,0-1.158,0.338-1.581,1.014L7.906,21.51z"/>
	</g>
</g>
<g id="theGroup">
</g>
</svg>
