<?xml version="1.0" encoding="iso-8859-1"?>
<!-- Generator: Adobe Illustrator 16.0.0, SVG Export Plug-In . SVG Version: 6.00 Build 0)  -->
<!DOCTYPE svg PUBLIC "-//W3C//DTD SVG 1.1//EN" "http://www.w3.org/Graphics/SVG/1.1/DTD/svg11.dtd">
<svg version="1.1" id="Lager_1" xmlns="http://www.w3.org/2000/svg" xmlns:xlink="http://www.w3.org/1999/xlink" x="0px" y="0px"
	 width="44.313px" height="34.261px" viewBox="0 0 44.313 34.261" style="enable-background:new 0 0 44.313 34.261;"
	 xml:space="preserve">
<g>
	
		<line style="fill:none;stroke:#3A1968;stroke-width:0.5;stroke-linecap:square;stroke-miterlimit:10;" x1="30.626" y1="15.242" x2="44.063" y2="15.242"/>
	<g>
		<path style="fill:#3A1968;" d="M35.674,2.923l2.014-0.982h0.202v6.988c0,0.464,0.019,0.753,0.058,0.867
			c0.039,0.114,0.119,0.201,0.241,0.262s0.37,0.096,0.745,0.104v0.226H35.82v-0.226c0.391-0.008,0.643-0.042,0.757-0.101
			c0.114-0.059,0.193-0.138,0.238-0.238s0.067-0.398,0.067-0.895V4.461c0-0.602-0.021-0.988-0.062-1.159
			c-0.028-0.13-0.08-0.226-0.155-0.287C36.59,2.954,36.5,2.923,36.395,2.923c-0.151,0-0.36,0.063-0.629,0.189L35.674,2.923z"/>
	</g>
	<g>
		<path style="fill:#3A1968;" d="M12.137,9.158h0.822l0.868,1.331l0.879-1.331l0.772,0.018L14.205,11l1.33,1.937h-0.812
			l-0.938-1.418l-0.911,1.418H12.07L13.4,11L12.137,9.158z"/>
	</g>
	<g>
		<path style="fill:#3A1968;" d="M38.738,18.835h0.822l0.868,1.33l0.879-1.33l0.772,0.018l-1.273,1.824l1.33,1.938h-0.812
			l-0.938-1.419l-0.91,1.419h-0.805l1.33-1.938L38.738,18.835z"/>
	</g>
	<g>
		<path style="fill:#3A1968;" d="M4.309,14.616c0.252-0.032,0.421-0.138,0.507-0.317c0.048-0.098,0.073-0.239,0.073-0.423
			c0-0.375-0.133-0.648-0.399-0.818c-0.266-0.169-0.646-0.254-1.142-0.254c-0.572,0-0.979,0.155-1.218,0.466
			c-0.134,0.172-0.221,0.428-0.262,0.767H0.842c0.021-0.808,0.281-1.37,0.783-1.686s1.084-0.474,1.747-0.474
			c0.768,0,1.392,0.146,1.872,0.439c0.476,0.293,0.713,0.749,0.713,1.367v3.767c0,0.113,0.023,0.205,0.07,0.273
			c0.046,0.069,0.146,0.104,0.296,0.104c0.049,0,0.104-0.004,0.165-0.01c0.061-0.006,0.126-0.015,0.195-0.027v0.812
			c-0.171,0.049-0.301,0.079-0.391,0.092c-0.09,0.013-0.212,0.019-0.366,0.019c-0.379,0-0.653-0.135-0.824-0.403
			c-0.089-0.142-0.152-0.344-0.189-0.604c-0.224,0.293-0.545,0.547-0.964,0.763c-0.419,0.216-0.881,0.323-1.386,0.323
			c-0.606,0-1.102-0.184-1.486-0.552C0.693,17.872,0.5,17.412,0.5,16.859c0-0.605,0.189-1.075,0.568-1.408
			c0.378-0.333,0.875-0.539,1.489-0.616L4.309,14.616z M1.996,17.583c0.231,0.183,0.506,0.274,0.824,0.274
			c0.387,0,0.761-0.09,1.123-0.269c0.61-0.296,0.916-0.782,0.916-1.456V15.25c-0.134,0.086-0.307,0.157-0.518,0.214
			c-0.211,0.057-0.418,0.098-0.622,0.122l-0.664,0.085c-0.398,0.053-0.697,0.136-0.897,0.25c-0.34,0.19-0.51,0.495-0.51,0.913
			C1.648,17.151,1.764,17.401,1.996,17.583z"/>
	</g>
	<g>
		<path style="fill:#3A1968;" d="M35.716,24.293c0.252-0.032,0.421-0.138,0.506-0.316c0.049-0.099,0.073-0.239,0.073-0.423
			c0-0.376-0.133-0.648-0.398-0.818c-0.267-0.169-0.647-0.254-1.143-0.254c-0.572,0-0.979,0.155-1.218,0.466
			c-0.135,0.172-0.222,0.428-0.263,0.767h-1.025c0.021-0.808,0.282-1.37,0.784-1.687c0.502-0.315,1.084-0.474,1.746-0.474
			c0.769,0,1.393,0.146,1.872,0.439c0.476,0.293,0.713,0.748,0.713,1.367v3.766c0,0.114,0.023,0.206,0.07,0.274
			c0.047,0.069,0.146,0.104,0.296,0.104c0.049,0,0.104-0.004,0.165-0.01c0.061-0.006,0.126-0.015,0.195-0.027v0.812
			c-0.171,0.049-0.302,0.079-0.391,0.092c-0.09,0.013-0.212,0.019-0.366,0.019c-0.379,0-0.653-0.135-0.824-0.403
			c-0.09-0.142-0.152-0.344-0.189-0.604c-0.224,0.293-0.545,0.547-0.964,0.763s-0.881,0.323-1.386,0.323
			c-0.606,0-1.102-0.184-1.486-0.552s-0.577-0.828-0.577-1.381c0-0.605,0.189-1.074,0.568-1.408
			c0.378-0.333,0.875-0.538,1.489-0.615L35.716,24.293z M33.402,27.261c0.231,0.183,0.506,0.274,0.824,0.274
			c0.386,0,0.761-0.09,1.123-0.269c0.609-0.296,0.915-0.782,0.915-1.456v-0.884c-0.134,0.086-0.307,0.157-0.518,0.214
			c-0.211,0.058-0.418,0.099-0.621,0.123l-0.664,0.085c-0.398,0.053-0.697,0.136-0.898,0.25c-0.34,0.19-0.509,0.495-0.509,0.913
			C33.055,26.829,33.17,27.079,33.402,27.261z"/>
	</g>
	<g>
		<path style="fill:#3A1968;" d="M7.162,10.905h3.705v0.349H7.162V10.905z"/>
	</g>
	<g>
		<path style="fill:#3A1968;" d="M20.255,13.939h6.409v0.592h-6.409V13.939z M20.255,16.216h6.409v0.604h-6.409V16.216z"/>
	</g>
</g>
<g id="theGroup">
</g>
</svg>
