<?xml version="1.0" encoding="iso-8859-1"?>
<!-- Generator: Adobe Illustrator 16.0.0, SVG Export Plug-In . SVG Version: 6.00 Build 0)  -->
<!DOCTYPE svg PUBLIC "-//W3C//DTD SVG 1.1//EN" "http://www.w3.org/Graphics/SVG/1.1/DTD/svg11.dtd">
<svg version="1.1" id="Lager_1" xmlns="http://www.w3.org/2000/svg" xmlns:xlink="http://www.w3.org/1999/xlink" x="0px" y="0px"
	 width="39.172px" height="32.044px" viewBox="0 0 39.172 32.044" style="enable-background:new 0 0 39.172 32.044;"
	 xml:space="preserve">
<g>
	
		<line style="fill:none;stroke:#0066FF;stroke-width:0.5;stroke-linecap:square;stroke-miterlimit:10;" x1="0.25" y1="15.242" x2="7.477" y2="15.242"/>
	
		<line style="fill:none;stroke:#0066FF;stroke-width:0.5;stroke-linecap:square;stroke-miterlimit:10;" x1="26.617" y1="15.242" x2="38.922" y2="15.242"/>
	<g>
		<path style="fill:#0066FF;" d="M6.261,2.112L5.786,3.149h-2.49L2.752,4.261C3.83,4.419,4.685,4.82,5.315,5.463
			c0.541,0.554,0.812,1.204,0.812,1.953c0,0.436-0.089,0.838-0.266,1.209c-0.177,0.37-0.4,0.686-0.668,0.945
			c-0.269,0.261-0.568,0.471-0.897,0.629c-0.468,0.224-0.948,0.336-1.44,0.336c-0.497,0-0.858-0.085-1.083-0.254
			c-0.226-0.168-0.339-0.354-0.339-0.558c0-0.114,0.047-0.215,0.14-0.303C1.667,9.334,1.786,9.29,1.928,9.29
			c0.105,0,0.198,0.016,0.277,0.049c0.08,0.032,0.215,0.116,0.406,0.25C2.917,9.801,3.226,9.906,3.54,9.906
			c0.476,0,0.894-0.18,1.254-0.54c0.36-0.36,0.54-0.799,0.54-1.315c0-0.5-0.161-0.968-0.482-1.4C4.53,6.217,4.086,5.882,3.521,5.646
			C3.078,5.463,2.473,5.357,1.708,5.329l1.587-3.217H6.261z"/>
		<path style="fill:#0066FF;" d="M30.445,3.687c0.236-0.558,0.534-0.987,0.895-1.291c0.359-0.303,0.809-0.454,1.346-0.454
			c0.663,0,1.172,0.216,1.525,0.646c0.269,0.321,0.403,0.666,0.403,1.032c0,0.602-0.379,1.225-1.136,1.867
			c0.509,0.199,0.894,0.484,1.154,0.854c0.26,0.37,0.391,0.806,0.391,1.307c0,0.716-0.229,1.336-0.684,1.861
			c-0.595,0.684-1.455,1.025-2.582,1.025c-0.558,0-0.938-0.069-1.139-0.208c-0.201-0.138-0.302-0.286-0.302-0.445
			c0-0.118,0.048-0.222,0.144-0.312c0.095-0.089,0.21-0.134,0.345-0.134c0.102,0,0.205,0.016,0.312,0.049
			c0.068,0.021,0.226,0.095,0.47,0.223S32,9.912,32.094,9.937c0.15,0.045,0.311,0.067,0.481,0.067c0.415,0,0.776-0.161,1.084-0.482
			c0.307-0.321,0.46-0.701,0.46-1.141c0-0.322-0.07-0.635-0.213-0.94c-0.106-0.228-0.222-0.4-0.348-0.519
			c-0.176-0.163-0.416-0.311-0.721-0.442c-0.305-0.133-0.616-0.198-0.934-0.198h-0.195V6.098c0.321-0.041,0.644-0.156,0.967-0.348
			C33,5.559,33.234,5.329,33.381,5.061s0.22-0.564,0.22-0.886c0-0.419-0.131-0.758-0.394-1.016
			c-0.263-0.259-0.589-0.388-0.979-0.388c-0.631,0-1.157,0.338-1.581,1.013L30.445,3.687z"/>
	</g>
	<g>
		<path style="fill:#0066FF;" d="M16.503,17.767c-0.574,0.443-0.934,0.7-1.081,0.769c-0.22,0.103-0.454,0.153-0.702,0.153
			c-0.387,0-0.705-0.133-0.956-0.397c-0.25-0.264-0.375-0.612-0.375-1.043c0-0.272,0.062-0.509,0.184-0.708
			c0.167-0.276,0.457-0.537,0.87-0.781c0.413-0.244,1.1-0.541,2.06-0.892v-0.22c0-0.557-0.089-0.939-0.266-1.147
			c-0.177-0.207-0.435-0.311-0.772-0.311c-0.256,0-0.459,0.069-0.61,0.207c-0.154,0.139-0.231,0.297-0.231,0.477l0.012,0.354
			c0,0.188-0.048,0.332-0.143,0.434c-0.096,0.102-0.221,0.152-0.375,0.152c-0.15,0-0.274-0.053-0.369-0.158
			c-0.096-0.106-0.144-0.251-0.144-0.434c0-0.35,0.179-0.672,0.537-0.965s0.86-0.439,1.508-0.439c0.496,0,0.903,0.084,1.221,0.251
			c0.24,0.126,0.417,0.323,0.531,0.592c0.073,0.175,0.11,0.533,0.11,1.074v1.897c0,0.533,0.01,0.86,0.03,0.98
			c0.021,0.12,0.054,0.2,0.101,0.24c0.046,0.041,0.101,0.062,0.162,0.062c0.065,0,0.122-0.015,0.171-0.043
			c0.085-0.053,0.25-0.201,0.494-0.445v0.342c-0.456,0.61-0.891,0.915-1.306,0.915c-0.2,0-0.358-0.068-0.477-0.207
			C16.568,18.336,16.507,18.101,16.503,17.767z M16.503,17.37v-2.13c-0.615,0.244-1.011,0.417-1.19,0.519
			c-0.321,0.179-0.551,0.366-0.689,0.562c-0.139,0.195-0.208,0.408-0.208,0.641c0,0.293,0.088,0.536,0.263,0.729
			s0.376,0.29,0.604,0.29C15.592,17.98,15.999,17.776,16.503,17.37z"/>
		<path style="fill:#0066FF;" d="M18.521,12.981h2.631v0.226h-0.171c-0.159,0-0.28,0.039-0.363,0.116s-0.125,0.182-0.125,0.312
			c0,0.143,0.043,0.312,0.128,0.507l1.301,3.088l1.306-3.204c0.094-0.228,0.141-0.4,0.141-0.519c0-0.058-0.017-0.104-0.049-0.141
			c-0.045-0.062-0.102-0.103-0.171-0.125s-0.21-0.034-0.422-0.034v-0.226h1.825v0.226c-0.211,0.017-0.357,0.06-0.439,0.129
			c-0.143,0.122-0.271,0.325-0.384,0.61l-1.984,4.797h-0.25l-1.996-4.718c-0.089-0.22-0.175-0.377-0.256-0.473
			c-0.082-0.096-0.186-0.177-0.312-0.241c-0.069-0.037-0.206-0.071-0.409-0.104V12.981z"/>
	</g>
	<g>
		<path style="fill:#0066FF;" d="M6.438,19.764v0.226c-0.537,0.053-0.976,0.16-1.315,0.32c-0.34,0.161-0.675,0.406-1.007,0.735
			c-0.332,0.33-0.606,0.697-0.824,1.103c-0.218,0.404-0.4,0.886-0.546,1.443c0.586-0.403,1.174-0.604,1.764-0.604
			c0.565,0,1.056,0.228,1.471,0.684s0.622,1.042,0.622,1.758c0,0.691-0.209,1.322-0.628,1.893c-0.504,0.691-1.172,1.037-2.002,1.037
			c-0.565,0-1.046-0.188-1.44-0.562c-0.773-0.729-1.16-1.673-1.16-2.832c0-0.74,0.148-1.444,0.445-2.112
			c0.297-0.667,0.721-1.259,1.273-1.775c0.551-0.517,1.079-0.865,1.583-1.044c0.505-0.179,0.975-0.269,1.41-0.269H6.438z
			 M2.642,24.036c-0.073,0.55-0.11,0.993-0.11,1.331c0,0.391,0.072,0.814,0.217,1.272c0.144,0.457,0.359,0.82,0.644,1.089
			C3.6,27.92,3.853,28.016,4.15,28.016c0.354,0,0.67-0.167,0.949-0.5c0.279-0.334,0.418-0.811,0.418-1.429
			c0-0.696-0.139-1.298-0.415-1.807c-0.277-0.509-0.669-0.763-1.178-0.763c-0.155,0-0.32,0.032-0.498,0.098
			C3.25,23.68,2.988,23.82,2.642,24.036z"/>
		<path style="fill:#0066FF;" d="M27.488,20.746l2.014-0.982h0.202v6.988c0,0.464,0.019,0.753,0.058,0.867
			c0.039,0.113,0.119,0.201,0.241,0.262c0.122,0.062,0.37,0.096,0.745,0.104v0.226h-3.113v-0.226
			c0.391-0.009,0.643-0.042,0.757-0.101c0.114-0.06,0.193-0.139,0.238-0.238s0.067-0.397,0.067-0.895v-4.468
			c0-0.602-0.021-0.988-0.062-1.159c-0.028-0.131-0.08-0.227-0.155-0.287c-0.076-0.061-0.166-0.092-0.271-0.092
			c-0.151,0-0.36,0.063-0.629,0.189L27.488,20.746z"/>
		<path style="fill:#0066FF;" d="M32.725,24.121c0-0.943,0.143-1.756,0.428-2.438s0.663-1.189,1.135-1.523
			c0.367-0.265,0.745-0.396,1.136-0.396c0.635,0,1.204,0.323,1.709,0.971c0.631,0.802,0.946,1.888,0.946,3.259
			c0,0.961-0.139,1.776-0.415,2.448c-0.277,0.671-0.63,1.158-1.06,1.461c-0.429,0.304-0.843,0.455-1.242,0.455
			c-0.789,0-1.446-0.466-1.971-1.397C32.947,26.175,32.725,25.229,32.725,24.121z M33.922,24.274c0,1.139,0.14,2.069,0.421,2.789
			c0.231,0.606,0.577,0.909,1.037,0.909c0.22,0,0.448-0.099,0.684-0.296c0.236-0.197,0.415-0.528,0.537-0.991
			c0.188-0.7,0.281-1.688,0.281-2.961c0-0.943-0.098-1.731-0.293-2.361c-0.146-0.469-0.336-0.8-0.567-0.995
			c-0.167-0.135-0.369-0.202-0.604-0.202c-0.277,0-0.523,0.125-0.739,0.373c-0.293,0.338-0.492,0.868-0.598,1.593
			S33.922,23.57,33.922,24.274z"/>
	</g>
</g>
<g id="theGroup">
</g>
</svg>
