<?xml version="1.0" encoding="iso-8859-1"?>
<!-- Generator: Adobe Illustrator 16.0.0, SVG Export Plug-In . SVG Version: 6.00 Build 0)  -->
<!DOCTYPE svg PUBLIC "-//W3C//DTD SVG 1.1//EN" "http://www.w3.org/Graphics/SVG/1.1/DTD/svg11.dtd">
<svg version="1.1" id="Lager_1" xmlns="http://www.w3.org/2000/svg" xmlns:xlink="http://www.w3.org/1999/xlink" x="0px" y="0px"
	 width="48.781px" height="32.044px" viewBox="0 0 48.781 32.044" style="enable-background:new 0 0 48.781 32.044;"
	 xml:space="preserve">
<g>
	
		<line style="fill:none;stroke:#0066FF;stroke-width:0.5;stroke-linecap:square;stroke-miterlimit:10;" x1="0.25" y1="15.242" x2="7.672" y2="15.242"/>
	
		<line style="fill:none;stroke:#0066FF;stroke-width:0.5;stroke-linecap:square;stroke-miterlimit:10;" x1="19.938" y1="15.242" x2="27.164" y2="15.242"/>
	
		<line style="fill:none;stroke:#0066FF;stroke-width:0.5;stroke-linecap:square;stroke-miterlimit:10;" x1="41.305" y1="15.242" x2="48.531" y2="15.242"/>
	<g>
		<path style="fill:#0066FF;" d="M6.762,8.796l-0.58,1.593H1.299v-0.226c1.437-1.311,2.447-2.381,3.033-3.211
			s0.879-1.589,0.879-2.276c0-0.525-0.161-0.956-0.482-1.294S4.023,2.875,3.576,2.875c-0.407,0-0.772,0.119-1.095,0.357
			C2.157,3.47,1.918,3.819,1.763,4.279H1.538C1.639,3.526,1.9,2.948,2.322,2.546c0.421-0.403,0.947-0.604,1.578-0.604
			c0.671,0,1.232,0.216,1.682,0.646C6.03,3.02,6.255,3.528,6.255,4.114c0,0.419-0.098,0.838-0.293,1.257
			C5.661,6.03,5.173,6.729,4.498,7.465C3.484,8.571,2.852,9.239,2.599,9.467H4.76c0.439,0,0.748-0.017,0.924-0.049
			C5.862,9.386,6.021,9.319,6.164,9.22c0.143-0.1,0.267-0.241,0.373-0.424H6.762z"/>
		<path style="fill:#0066FF;" d="M21.871,2.924l2.014-0.982h0.202V8.93c0,0.464,0.019,0.753,0.058,0.867
			c0.039,0.113,0.119,0.201,0.241,0.262c0.122,0.062,0.37,0.096,0.745,0.104v0.226h-3.113v-0.226
			c0.391-0.009,0.643-0.042,0.757-0.102c0.114-0.059,0.193-0.138,0.238-0.237c0.044-0.1,0.067-0.398,0.067-0.895V4.462
			c0-0.603-0.021-0.988-0.061-1.159c-0.028-0.131-0.081-0.227-0.156-0.287c-0.075-0.062-0.166-0.092-0.271-0.092
			c-0.15,0-0.36,0.063-0.628,0.189L21.871,2.924z"/>
		<path style="fill:#0066FF;" d="M43.233,2.924l2.014-0.982h0.202V8.93c0,0.464,0.019,0.753,0.058,0.867
			c0.039,0.113,0.119,0.201,0.241,0.262c0.122,0.062,0.37,0.096,0.745,0.104v0.226H43.38v-0.226
			c0.391-0.009,0.643-0.042,0.757-0.102c0.114-0.059,0.193-0.138,0.238-0.237s0.067-0.398,0.067-0.895V4.462
			c0-0.603-0.021-0.988-0.062-1.159c-0.028-0.131-0.08-0.227-0.155-0.287c-0.076-0.062-0.166-0.092-0.271-0.092
			c-0.151,0-0.36,0.063-0.629,0.189L43.233,2.924z"/>
	</g>
	<g>
		<path style="fill:#0066FF;" d="M6.546,19.764v0.226c-0.537,0.053-0.976,0.16-1.315,0.32c-0.34,0.161-0.675,0.406-1.007,0.735
			c-0.332,0.33-0.606,0.697-0.824,1.103c-0.218,0.404-0.4,0.886-0.546,1.443c0.586-0.403,1.174-0.604,1.764-0.604
			c0.565,0,1.056,0.228,1.471,0.684s0.622,1.042,0.622,1.758c0,0.691-0.209,1.322-0.628,1.893c-0.504,0.691-1.172,1.037-2.002,1.037
			c-0.565,0-1.046-0.188-1.44-0.562c-0.773-0.729-1.16-1.673-1.16-2.832c0-0.74,0.148-1.444,0.445-2.112
			c0.297-0.667,0.721-1.259,1.273-1.775c0.551-0.517,1.079-0.865,1.583-1.044c0.505-0.179,0.975-0.269,1.41-0.269H6.546z
			 M2.75,24.036c-0.073,0.55-0.11,0.993-0.11,1.331c0,0.391,0.072,0.814,0.217,1.272C3,27.097,3.215,27.46,3.5,27.729
			c0.207,0.191,0.459,0.287,0.757,0.287c0.354,0,0.67-0.167,0.949-0.5c0.279-0.334,0.418-0.811,0.418-1.429
			c0-0.696-0.139-1.298-0.415-1.807c-0.277-0.509-0.669-0.763-1.178-0.763c-0.155,0-0.32,0.032-0.498,0.098
			C3.357,23.68,3.095,23.82,2.75,24.036z"/>
		<path style="fill:#0066FF;" d="M26.108,19.764v0.226c-0.537,0.053-0.976,0.16-1.315,0.32c-0.34,0.161-0.675,0.406-1.007,0.735
			c-0.332,0.33-0.606,0.697-0.824,1.103c-0.218,0.404-0.4,0.886-0.546,1.443c0.586-0.403,1.174-0.604,1.764-0.604
			c0.565,0,1.056,0.228,1.471,0.684c0.416,0.456,0.623,1.042,0.623,1.758c0,0.691-0.21,1.322-0.629,1.893
			c-0.504,0.691-1.172,1.037-2.002,1.037c-0.565,0-1.046-0.188-1.44-0.562c-0.773-0.729-1.16-1.673-1.16-2.832
			c0-0.74,0.148-1.444,0.445-2.112c0.297-0.667,0.721-1.259,1.273-1.775c0.551-0.517,1.079-0.865,1.583-1.044
			c0.505-0.179,0.975-0.269,1.41-0.269H26.108z M22.312,24.036c-0.073,0.55-0.11,0.993-0.11,1.331c0,0.391,0.072,0.814,0.217,1.272
			c0.144,0.457,0.359,0.82,0.644,1.089c0.207,0.191,0.459,0.287,0.757,0.287c0.354,0,0.67-0.167,0.949-0.5
			c0.279-0.334,0.418-0.811,0.418-1.429c0-0.696-0.139-1.298-0.415-1.807c-0.277-0.509-0.669-0.763-1.178-0.763
			c-0.155,0-0.32,0.032-0.498,0.098C22.919,23.68,22.658,23.82,22.312,24.036z"/>
		<path style="fill:#0066FF;" d="M47.472,19.764v0.226c-0.537,0.053-0.977,0.16-1.315,0.32c-0.34,0.161-0.676,0.406-1.008,0.735
			c-0.331,0.33-0.606,0.697-0.823,1.103c-0.218,0.404-0.4,0.886-0.547,1.443c0.586-0.403,1.174-0.604,1.764-0.604
			c0.566,0,1.057,0.228,1.472,0.684s0.622,1.042,0.622,1.758c0,0.691-0.209,1.322-0.629,1.893c-0.504,0.691-1.172,1.037-2.002,1.037
			c-0.565,0-1.045-0.188-1.439-0.562c-0.773-0.729-1.16-1.673-1.16-2.832c0-0.74,0.148-1.444,0.445-2.112
			c0.297-0.667,0.722-1.259,1.272-1.775c0.552-0.517,1.08-0.865,1.584-1.044c0.505-0.179,0.975-0.269,1.41-0.269H47.472z
			 M43.675,24.036c-0.073,0.55-0.109,0.993-0.109,1.331c0,0.391,0.071,0.814,0.216,1.272c0.145,0.457,0.359,0.82,0.645,1.089
			c0.207,0.191,0.46,0.287,0.757,0.287c0.354,0,0.67-0.167,0.949-0.5c0.278-0.334,0.418-0.811,0.418-1.429
			c0-0.696-0.139-1.298-0.415-1.807c-0.277-0.509-0.67-0.763-1.179-0.763c-0.154,0-0.32,0.032-0.497,0.098
			C44.282,23.68,44.021,23.82,43.675,24.036z"/>
	</g>
	<g>
		<path style="fill:#0066FF;" d="M10.709,15.057h6.409v0.604h-6.409V15.057z"/>
		<path style="fill:#0066FF;" d="M30.933,13.939h6.409v0.593h-6.409V13.939z M30.933,16.217h6.409v0.604h-6.409V16.217z"/>
	</g>
</g>
<g id="theGroup">
</g>
</svg>
