<?xml version="1.0" encoding="iso-8859-1"?>
<!-- Generator: Adobe Illustrator 16.0.0, SVG Export Plug-In . SVG Version: 6.00 Build 0)  -->
<!DOCTYPE svg PUBLIC "-//W3C//DTD SVG 1.1//EN" "http://www.w3.org/Graphics/SVG/1.1/DTD/svg11.dtd">
<svg version="1.1" id="Lager_1" xmlns="http://www.w3.org/2000/svg" xmlns:xlink="http://www.w3.org/1999/xlink" x="0px" y="0px"
	 width="14.312px" height="15.846px" viewBox="0 0 14.312 15.846" style="enable-background:new 0 0 14.312 15.846;"
	 xml:space="preserve">
<g>
	<g>
		<path d="M7.805,9.336v1.062H8.56v0.247H7.805v2.096c0,0.21,0.03,0.351,0.09,0.424s0.137,0.109,0.231,0.109
			c0.078,0,0.153-0.024,0.226-0.072c0.073-0.048,0.129-0.119,0.169-0.214h0.138c-0.082,0.23-0.199,0.404-0.35,0.521
			c-0.15,0.117-0.306,0.175-0.466,0.175c-0.108,0-0.214-0.03-0.317-0.09s-0.18-0.146-0.229-0.258
			c-0.049-0.111-0.074-0.284-0.074-0.517v-2.174H6.711v-0.116c0.129-0.052,0.261-0.14,0.397-0.263
			c0.135-0.124,0.255-0.271,0.361-0.439c0.054-0.09,0.129-0.253,0.226-0.49H7.805z"/>
		<path d="M10.011,10.303V12.9c0,0.202,0.015,0.337,0.044,0.404c0.029,0.066,0.073,0.117,0.131,0.149
			c0.058,0.033,0.163,0.05,0.315,0.05v0.127h-1.57v-0.127c0.158,0,0.264-0.016,0.318-0.046c0.054-0.03,0.097-0.081,0.128-0.151
			C9.409,13.235,9.425,13.1,9.425,12.9v-1.245c0-0.351-0.011-0.578-0.031-0.682c-0.017-0.075-0.043-0.127-0.078-0.157
			c-0.035-0.029-0.083-0.044-0.145-0.044c-0.065,0-0.146,0.018-0.24,0.053l-0.049-0.127l0.974-0.395H10.011z M9.718,8.613
			c0.099,0,0.183,0.034,0.252,0.104c0.07,0.069,0.104,0.153,0.104,0.252S10.04,9.153,9.97,9.223C9.9,9.293,9.816,9.329,9.718,9.329
			S9.534,9.293,9.464,9.223S9.358,9.068,9.358,8.969s0.034-0.183,0.104-0.252C9.531,8.647,9.617,8.613,9.718,8.613z"/>
		<path d="M12.506,10.303c0.489,0,0.882,0.186,1.179,0.558c0.252,0.317,0.377,0.682,0.377,1.094c0,0.289-0.069,0.582-0.208,0.878
			c-0.139,0.297-0.33,0.521-0.573,0.671s-0.515,0.226-0.813,0.226c-0.486,0-0.874-0.194-1.161-0.582
			c-0.242-0.327-0.363-0.694-0.363-1.101c0-0.297,0.074-0.592,0.221-0.884c0.147-0.293,0.341-0.51,0.581-0.649
			C11.983,10.373,12.237,10.303,12.506,10.303z M12.396,10.533c-0.125,0-0.25,0.036-0.376,0.11s-0.228,0.204-0.305,0.391
			c-0.078,0.186-0.117,0.424-0.117,0.716c0,0.471,0.094,0.876,0.281,1.218c0.187,0.341,0.433,0.512,0.739,0.512
			c0.228,0,0.416-0.095,0.564-0.282c0.148-0.188,0.222-0.512,0.222-0.971c0-0.574-0.123-1.025-0.37-1.355
			C12.868,10.645,12.655,10.533,12.396,10.533z"/>
	</g>
	<g>
		<path d="M0.659,10.559v-0.226c0.529-0.009,1.021-0.132,1.477-0.369C2.592,9.726,3.032,9.31,3.458,8.716
			c0.425-0.595,0.721-1.248,0.888-1.96C3.707,7.167,3.129,7.373,2.612,7.373c-0.582,0-1.08-0.225-1.495-0.674
			S0.494,5.652,0.494,4.907c0-0.724,0.208-1.369,0.623-1.935c0.5-0.688,1.153-1.031,1.959-1.031c0.68,0,1.261,0.281,1.746,0.842
			c0.594,0.696,0.891,1.554,0.891,2.576c0,0.919-0.226,1.777-0.678,2.573c-0.451,0.795-1.08,1.456-1.886,1.98
			c-0.655,0.432-1.369,0.647-2.143,0.647H0.659z M4.443,6.305c0.073-0.529,0.11-0.952,0.11-1.27c0-0.395-0.067-0.821-0.202-1.279
			c-0.134-0.458-0.324-0.809-0.57-1.053C3.535,2.459,3.255,2.337,2.942,2.337c-0.362,0-0.68,0.163-0.952,0.488
			c-0.272,0.326-0.409,0.81-0.409,1.453c0,0.858,0.181,1.53,0.543,2.014c0.265,0.35,0.59,0.525,0.977,0.525
			c0.187,0,0.409-0.045,0.665-0.135C4.022,6.594,4.248,6.468,4.443,6.305z"/>
	</g>
</g>
<g id="theGroup">
</g>
</svg>
