<?xml version="1.0" encoding="iso-8859-1"?>
<!-- Generator: Adobe Illustrator 16.0.0, SVG Export Plug-In . SVG Version: 6.00 Build 0)  -->
<!DOCTYPE svg PUBLIC "-//W3C//DTD SVG 1.1//EN" "http://www.w3.org/Graphics/SVG/1.1/DTD/svg11.dtd">
<svg version="1.1" id="Lager_1" xmlns="http://www.w3.org/2000/svg" xmlns:xlink="http://www.w3.org/1999/xlink" x="0px" y="0px"
	 width="90.027px" height="89.888px" viewBox="0 0 90.027 89.888" style="enable-background:new 0 0 90.027 89.888;"
	 xml:space="preserve">
<g id="XMLID_1_">
	<g>
		<polygon style="fill:#E5E99B;" points="89.418,0.43 89.418,0.35 89.678,0.35 89.678,89.53 59.808,59.63 45.018,44.851 		"/>
		<polygon style="fill:#E5E99B;" points="59.808,59.63 89.678,89.53 0.508,89.53 0.508,89.38 45.018,44.851 		"/>
		<polygon style="fill:#B1B57A;" points="89.418,0.35 89.418,0.43 45.018,44.851 0.508,0.35 		"/>
		<polygon style="fill:#E5E99B;" points="0.508,0.35 45.018,44.851 0.508,89.38 		"/>
	</g>
	<g>
		<polygon style="fill:none;stroke:#000000;stroke-width:0.7;" points="89.678,89.53 0.508,89.53 0.508,89.38 0.508,0.35 
			89.418,0.35 89.678,0.35 		"/>
		<polyline style="fill:none;stroke:#000000;stroke-width:0.7;" points="0.248,89.641 0.508,89.38 45.018,44.851 89.418,0.43 		"/>
		<polyline style="fill:none;stroke:#000000;stroke-width:0.7;" points="0.508,0.35 45.018,44.851 59.808,59.63 89.678,89.53 		"/>
	</g>
</g>
<g>
	<path d="M42.868,20.149l1.775-5.773h0.952l1.774,5.773h-0.671l-0.545-1.807h-2.07l-0.544,1.807H42.868z M44.243,17.798h1.751
		l-0.831-2.975h-0.089L44.243,17.798z"/>
</g>
<g id="theGroup">
</g>
<g>
</g>
<g>
</g>
<g>
</g>
<g>
</g>
<g>
</g>
<g>
</g>
</svg>
