<?xml version="1.0" encoding="iso-8859-1"?>
<!-- Generator: Adobe Illustrator 16.0.0, SVG Export Plug-In . SVG Version: 6.00 Build 0)  -->
<!DOCTYPE svg PUBLIC "-//W3C//DTD SVG 1.1//EN" "http://www.w3.org/Graphics/SVG/1.1/DTD/svg11.dtd">
<svg version="1.1" id="Lager_1" xmlns="http://www.w3.org/2000/svg" xmlns:xlink="http://www.w3.org/1999/xlink" x="0px" y="0px"
	 width="48.18px" height="32.044px" viewBox="0 0 48.18 32.044" style="enable-background:new 0 0 48.18 32.044;"
	 xml:space="preserve">
<g>
	
		<line style="fill:none;stroke:#1C5BA3;stroke-width:0.5;stroke-linecap:square;stroke-miterlimit:10;" x1="0.25" y1="15.242" x2="14.703" y2="15.242"/>
	<g>
		<path style="fill:#1C5BA3;" d="M1.861,3.687c0.236-0.558,0.534-0.987,0.894-1.291c0.36-0.303,0.809-0.454,1.346-0.454
			c0.663,0,1.172,0.216,1.525,0.646C5.895,2.909,6.03,3.254,6.03,3.62c0,0.602-0.379,1.225-1.136,1.867
			c0.509,0.199,0.894,0.484,1.154,0.854s0.391,0.806,0.391,1.307c0,0.716-0.228,1.336-0.684,1.861
			c-0.594,0.684-1.455,1.025-2.582,1.025c-0.558,0-0.937-0.069-1.139-0.208c-0.201-0.138-0.302-0.286-0.302-0.445
			c0-0.118,0.047-0.222,0.143-0.312c0.096-0.089,0.21-0.134,0.345-0.134c0.102,0,0.205,0.016,0.311,0.049
			c0.069,0.021,0.226,0.095,0.47,0.223s0.413,0.204,0.506,0.229c0.15,0.045,0.311,0.067,0.482,0.067
			c0.415,0,0.776-0.161,1.083-0.482S5.535,8.82,5.535,8.381c0-0.322-0.071-0.635-0.213-0.94C5.216,7.213,5.1,7.04,4.974,6.922
			c-0.175-0.163-0.415-0.311-0.72-0.442C3.948,6.347,3.637,6.281,3.32,6.281H3.125V6.098C3.446,6.057,3.768,5.941,4.092,5.75
			C4.415,5.559,4.65,5.329,4.796,5.061s0.22-0.564,0.22-0.886c0-0.419-0.131-0.758-0.394-1.016C4.36,2.9,4.034,2.771,3.643,2.771
			c-0.631,0-1.158,0.338-1.581,1.013L1.861,3.687z"/>
		<path style="fill:#1C5BA3;" d="M13.208,8.796l-0.58,1.593H7.745v-0.226c1.437-1.311,2.447-2.381,3.033-3.211
			s0.879-1.589,0.879-2.276c0-0.525-0.161-0.956-0.482-1.294s-0.706-0.507-1.154-0.507c-0.407,0-0.772,0.119-1.095,0.357
			C8.602,3.47,8.363,3.819,8.208,4.279H7.983c0.102-0.753,0.363-1.331,0.784-1.733c0.421-0.403,0.947-0.604,1.578-0.604
			c0.671,0,1.232,0.216,1.682,0.646c0.449,0.432,0.674,0.94,0.674,1.526c0,0.419-0.098,0.838-0.293,1.257
			c-0.301,0.659-0.79,1.357-1.465,2.094C9.93,8.571,9.297,9.239,9.044,9.467h2.161c0.439,0,0.748-0.017,0.924-0.049
			c0.177-0.032,0.337-0.099,0.479-0.198c0.143-0.1,0.267-0.241,0.373-0.424H13.208z"/>
	</g>
	<g>
		<path style="fill:#1C5BA3;" d="M37.145,11.107l2.014-0.982h0.202v6.988c0,0.464,0.019,0.753,0.058,0.867
			c0.039,0.113,0.119,0.201,0.241,0.262c0.122,0.062,0.37,0.096,0.745,0.104v0.226h-3.113v-0.226
			c0.391-0.009,0.643-0.042,0.757-0.101c0.114-0.06,0.193-0.139,0.238-0.238s0.067-0.397,0.067-0.895v-4.468
			c0-0.602-0.021-0.988-0.062-1.159c-0.028-0.13-0.08-0.226-0.155-0.287c-0.076-0.061-0.166-0.092-0.271-0.092
			c-0.151,0-0.36,0.063-0.629,0.189L37.145,11.107z"/>
		<path style="fill:#1C5BA3;" d="M47.533,10.125v0.226c-0.537,0.054-0.977,0.16-1.315,0.321c-0.34,0.16-0.676,0.405-1.008,0.735
			c-0.331,0.329-0.606,0.696-0.823,1.102c-0.218,0.405-0.4,0.886-0.547,1.443c0.586-0.403,1.174-0.604,1.764-0.604
			c0.566,0,1.057,0.229,1.472,0.684c0.415,0.456,0.622,1.042,0.622,1.758c0,0.691-0.209,1.322-0.629,1.893
			c-0.504,0.691-1.172,1.037-2.002,1.037c-0.565,0-1.045-0.188-1.439-0.562c-0.773-0.729-1.16-1.673-1.16-2.832
			c0-0.74,0.148-1.444,0.445-2.111c0.297-0.668,0.722-1.26,1.272-1.776c0.552-0.517,1.08-0.864,1.584-1.044
			c0.505-0.179,0.975-0.269,1.41-0.269H47.533z M43.736,14.397c-0.073,0.55-0.109,0.993-0.109,1.331
			c0,0.391,0.071,0.814,0.216,1.272c0.145,0.457,0.359,0.82,0.645,1.089c0.207,0.191,0.46,0.287,0.757,0.287
			c0.354,0,0.67-0.167,0.949-0.5c0.278-0.334,0.418-0.811,0.418-1.429c0-0.695-0.139-1.298-0.415-1.807
			c-0.277-0.509-0.67-0.763-1.179-0.763c-0.154,0-0.32,0.032-0.497,0.098S44.082,14.182,43.736,14.397z"/>
	</g>
	<g>
		<path style="fill:#1C5BA3;" d="M13.784,26.618l-0.58,1.593H8.321v-0.226c1.437-1.311,2.447-2.381,3.033-3.211
			s0.879-1.589,0.879-2.276c0-0.525-0.161-0.956-0.482-1.294s-0.706-0.507-1.154-0.507c-0.407,0-0.772,0.119-1.095,0.357
			c-0.324,0.238-0.562,0.587-0.717,1.047H8.559c0.102-0.753,0.363-1.331,0.784-1.733c0.421-0.403,0.947-0.604,1.578-0.604
			c0.671,0,1.232,0.216,1.682,0.646c0.449,0.432,0.674,0.94,0.674,1.526c0,0.419-0.098,0.838-0.293,1.257
			c-0.301,0.66-0.79,1.357-1.465,2.094c-1.013,1.107-1.646,1.774-1.898,2.002h2.161c0.439,0,0.748-0.016,0.924-0.049
			c0.177-0.032,0.337-0.099,0.479-0.198c0.143-0.1,0.267-0.241,0.373-0.424H13.784z"/>
	</g>
	<g>
		<path style="fill:#1C5BA3;" d="M18.483,13.939h6.41v0.593h-6.41V13.939z M18.483,16.217h6.41v0.604h-6.41V16.217z"/>
		<path style="fill:#1C5BA3;" d="M29.068,15.057h6.409v0.604h-6.409V15.057z"/>
	</g>
	<g>
		<path style="fill:#1C5BA3;" d="M1.452,24.695h6.409V25.3H1.452V24.695z"/>
	</g>
</g>
<g id="theGroup">
</g>
</svg>
