<?xml version="1.0" encoding="iso-8859-1"?>
<!-- Generator: Adobe Illustrator 16.0.0, SVG Export Plug-In . SVG Version: 6.00 Build 0)  -->
<!DOCTYPE svg PUBLIC "-//W3C//DTD SVG 1.1//EN" "http://www.w3.org/Graphics/SVG/1.1/DTD/svg11.dtd">
<svg version="1.1" id="Lager_1" xmlns="http://www.w3.org/2000/svg" xmlns:xlink="http://www.w3.org/1999/xlink" x="0px" y="0px"
	 width="71.118px" height="53.896px" viewBox="0 0 71.118 53.896" style="enable-background:new 0 0 71.118 53.896;"
	 xml:space="preserve">
<g>
	<g>
		<path style="fill:#CC0000;" d="M36.833,20.813v0.131c-0.311,0.03-0.564,0.092-0.76,0.185c-0.197,0.093-0.391,0.235-0.583,0.425
			c-0.191,0.19-0.351,0.403-0.476,0.637c-0.126,0.234-0.231,0.513-0.316,0.834c0.339-0.232,0.679-0.349,1.02-0.349
			c0.327,0,0.611,0.132,0.851,0.395c0.24,0.264,0.36,0.603,0.36,1.017c0,0.4-0.122,0.764-0.363,1.094
			c-0.293,0.4-0.678,0.6-1.158,0.6c-0.327,0-0.604-0.108-0.833-0.324c-0.447-0.421-0.67-0.967-0.67-1.638
			c0-0.428,0.086-0.835,0.257-1.221c0.172-0.386,0.417-0.728,0.736-1.027s0.624-0.5,0.916-0.604
			c0.292-0.104,0.562-0.155,0.814-0.155H36.833z M34.638,23.284c-0.042,0.317-0.063,0.574-0.063,0.769
			c0,0.226,0.042,0.471,0.125,0.736c0.083,0.265,0.208,0.475,0.372,0.63c0.12,0.111,0.266,0.166,0.438,0.166
			c0.205,0,0.388-0.097,0.549-0.29s0.241-0.468,0.241-0.826c0-0.402-0.08-0.75-0.24-1.044s-0.387-0.441-0.681-0.441
			c-0.09,0-0.186,0.019-0.288,0.056C34.989,23.078,34.838,23.159,34.638,23.284z"/>
	</g>
	<g>
		<path style="fill:#0066FF;" d="M0.635,4.298c0.236-0.558,0.534-0.988,0.894-1.291c0.36-0.303,0.809-0.455,1.346-0.455
			c0.663,0,1.172,0.216,1.525,0.647c0.269,0.321,0.403,0.666,0.403,1.032c0,0.602-0.379,1.225-1.136,1.867
			c0.509,0.2,0.894,0.484,1.154,0.854c0.26,0.371,0.391,0.806,0.391,1.307c0,0.716-0.228,1.336-0.684,1.861
			c-0.594,0.684-1.455,1.025-2.582,1.025c-0.558,0-0.937-0.069-1.139-0.208c-0.201-0.138-0.302-0.287-0.302-0.446
			c0-0.118,0.047-0.222,0.143-0.311s0.21-0.134,0.345-0.134c0.102,0,0.205,0.016,0.311,0.049c0.069,0.021,0.226,0.095,0.47,0.223
			c0.244,0.128,0.413,0.205,0.506,0.229c0.15,0.045,0.311,0.067,0.482,0.067c0.415,0,0.776-0.161,1.083-0.482
			s0.461-0.702,0.461-1.141c0-0.322-0.071-0.635-0.213-0.94c-0.106-0.228-0.222-0.4-0.348-0.519c-0.175-0.163-0.415-0.31-0.72-0.442
			S2.411,6.893,2.094,6.893H1.898V6.709C2.22,6.668,2.542,6.553,2.866,6.361C3.189,6.17,3.424,5.94,3.57,5.672
			s0.22-0.564,0.22-0.885c0-0.419-0.131-0.758-0.394-1.016C3.134,3.512,2.808,3.383,2.417,3.383c-0.631,0-1.158,0.338-1.581,1.013
			L0.635,4.298z"/>
		<path style="fill:#0066FF;" d="M26.274,6.776c0.574,0.122,1.003,0.317,1.288,0.586c0.395,0.375,0.592,0.832,0.592,1.373
			c0,0.411-0.13,0.805-0.391,1.181c-0.26,0.376-0.618,0.651-1.071,0.824S25.545,11,24.614,11h-3.906v-0.226h0.311
			c0.346,0,0.594-0.11,0.745-0.33c0.093-0.142,0.14-0.445,0.14-0.909V4.188c0-0.513-0.059-0.836-0.177-0.971
			c-0.158-0.179-0.395-0.269-0.708-0.269h-0.311V2.724h3.577c0.667,0,1.202,0.049,1.605,0.146c0.61,0.146,1.076,0.406,1.397,0.778
			c0.321,0.372,0.482,0.8,0.482,1.285c0,0.415-0.126,0.787-0.379,1.114C27.139,6.375,26.766,6.618,26.274,6.776z M23.076,6.447
			c0.15,0.028,0.322,0.05,0.516,0.064c0.193,0.015,0.406,0.021,0.638,0.021c0.594,0,1.041-0.064,1.339-0.192
			c0.299-0.128,0.528-0.324,0.687-0.589c0.158-0.265,0.238-0.553,0.238-0.867c0-0.484-0.197-0.897-0.592-1.239
			c-0.395-0.342-0.97-0.513-1.727-0.513c-0.407,0-0.773,0.044-1.099,0.134V6.447z M23.076,10.402
			c0.472,0.11,0.938,0.165,1.398,0.165c0.736,0,1.298-0.166,1.685-0.497c0.386-0.332,0.58-0.742,0.58-1.23
			c0-0.321-0.087-0.631-0.262-0.928c-0.175-0.297-0.46-0.531-0.854-0.702c-0.395-0.171-0.883-0.257-1.465-0.257
			c-0.252,0-0.468,0.004-0.647,0.013c-0.179,0.008-0.323,0.022-0.433,0.042V10.402z"/>
	</g>
	<g>
		<path style="fill:#0066FF;" d="M11.016,24.611c0.236-0.558,0.534-0.988,0.894-1.291c0.36-0.303,0.809-0.455,1.346-0.455
			c0.663,0,1.172,0.216,1.525,0.647c0.269,0.321,0.403,0.666,0.403,1.032c0,0.602-0.379,1.225-1.136,1.867
			c0.509,0.2,0.894,0.484,1.154,0.854c0.26,0.371,0.391,0.806,0.391,1.307c0,0.716-0.228,1.336-0.684,1.861
			c-0.594,0.684-1.455,1.025-2.582,1.025c-0.558,0-0.937-0.069-1.139-0.207c-0.201-0.139-0.302-0.287-0.302-0.446
			c0-0.118,0.047-0.222,0.143-0.312c0.096-0.089,0.21-0.134,0.345-0.134c0.102,0,0.205,0.017,0.311,0.049
			c0.069,0.021,0.226,0.095,0.47,0.223s0.413,0.204,0.506,0.229c0.15,0.044,0.311,0.066,0.482,0.066c0.415,0,0.776-0.16,1.083-0.482
			c0.307-0.321,0.461-0.701,0.461-1.141c0-0.322-0.071-0.635-0.213-0.94c-0.106-0.228-0.222-0.4-0.348-0.519
			c-0.175-0.163-0.415-0.31-0.72-0.442s-0.616-0.198-0.934-0.198h-0.195v-0.184c0.321-0.041,0.644-0.156,0.967-0.348
			c0.323-0.191,0.558-0.421,0.705-0.689s0.22-0.564,0.22-0.885c0-0.419-0.131-0.758-0.394-1.016
			c-0.262-0.258-0.589-0.388-0.979-0.388c-0.631,0-1.158,0.338-1.581,1.013L11.016,24.611z"/>
		<path style="fill:#0066FF;" d="M48.104,27.089c0.574,0.122,1.004,0.317,1.288,0.586c0.395,0.375,0.593,0.832,0.593,1.373
			c0,0.411-0.131,0.805-0.391,1.182c-0.261,0.376-0.618,0.65-1.071,0.823c-0.454,0.174-1.146,0.26-2.079,0.26h-3.906v-0.226h0.312
			c0.346,0,0.595-0.11,0.745-0.33c0.094-0.143,0.141-0.445,0.141-0.909v-5.347c0-0.513-0.06-0.836-0.178-0.971
			c-0.158-0.179-0.395-0.269-0.708-0.269h-0.312v-0.226h3.577c0.667,0,1.202,0.049,1.605,0.146c0.61,0.146,1.076,0.406,1.397,0.778
			c0.321,0.372,0.482,0.8,0.482,1.285c0,0.415-0.126,0.787-0.379,1.114C48.97,26.687,48.598,26.93,48.104,27.089z M44.907,26.759
			c0.15,0.028,0.322,0.05,0.516,0.064c0.192,0.015,0.405,0.021,0.638,0.021c0.594,0,1.04-0.064,1.34-0.192
			c0.299-0.128,0.527-0.324,0.687-0.589c0.158-0.265,0.238-0.553,0.238-0.867c0-0.484-0.198-0.897-0.593-1.239
			s-0.97-0.513-1.728-0.513c-0.406,0-0.772,0.044-1.098,0.134V26.759z M44.907,30.715c0.472,0.109,0.938,0.164,1.397,0.164
			c0.736,0,1.298-0.165,1.685-0.497s0.58-0.741,0.58-1.229c0-0.322-0.088-0.631-0.263-0.928c-0.175-0.297-0.46-0.531-0.854-0.702
			s-0.883-0.257-1.465-0.257c-0.253,0-0.468,0.004-0.647,0.013c-0.179,0.008-0.323,0.022-0.433,0.042V30.715z"/>
	</g>
	<g>
		<path style="fill:#0066FF;" d="M11.016,43.361c0.236-0.558,0.534-0.988,0.894-1.291c0.36-0.304,0.809-0.455,1.346-0.455
			c0.663,0,1.172,0.216,1.525,0.646c0.269,0.322,0.403,0.666,0.403,1.032c0,0.602-0.379,1.225-1.136,1.867
			c0.509,0.199,0.894,0.484,1.154,0.854s0.391,0.806,0.391,1.307c0,0.716-0.228,1.336-0.684,1.861
			c-0.594,0.684-1.455,1.025-2.582,1.025c-0.558,0-0.937-0.069-1.139-0.207c-0.201-0.139-0.302-0.287-0.302-0.446
			c0-0.118,0.047-0.222,0.143-0.312c0.096-0.089,0.21-0.134,0.345-0.134c0.102,0,0.205,0.017,0.311,0.049
			c0.069,0.021,0.226,0.095,0.47,0.223s0.413,0.204,0.506,0.229c0.15,0.044,0.311,0.066,0.482,0.066c0.415,0,0.776-0.16,1.083-0.482
			c0.307-0.321,0.461-0.701,0.461-1.141c0-0.321-0.071-0.635-0.213-0.94c-0.106-0.228-0.222-0.4-0.348-0.519
			c-0.175-0.163-0.415-0.311-0.72-0.442s-0.616-0.198-0.934-0.198h-0.195v-0.184c0.321-0.04,0.644-0.156,0.967-0.348
			c0.323-0.191,0.558-0.421,0.705-0.689s0.22-0.563,0.22-0.885c0-0.42-0.131-0.758-0.394-1.017
			c-0.262-0.259-0.589-0.388-0.979-0.388c-0.631,0-1.158,0.338-1.581,1.014L11.016,43.361z"/>
		<path style="fill:#0066FF;" d="M19.458,45.973c0-0.943,0.143-1.756,0.427-2.438s0.663-1.189,1.135-1.523
			c0.366-0.265,0.745-0.396,1.135-0.396c0.635,0,1.205,0.323,1.709,0.971c0.631,0.802,0.946,1.888,0.946,3.259
			c0,0.961-0.139,1.776-0.415,2.448c-0.277,0.671-0.63,1.158-1.059,1.461c-0.43,0.304-0.843,0.455-1.242,0.455
			c-0.79,0-1.447-0.466-1.971-1.397C19.679,48.026,19.458,47.08,19.458,45.973z M20.654,46.126c0,1.139,0.14,2.069,0.421,2.789
			c0.231,0.606,0.578,0.909,1.037,0.909c0.22,0,0.448-0.099,0.684-0.296c0.236-0.197,0.415-0.528,0.537-0.991
			c0.188-0.7,0.281-1.688,0.281-2.961c0-0.943-0.098-1.731-0.293-2.361c-0.146-0.469-0.336-0.8-0.568-0.995
			c-0.167-0.135-0.368-0.202-0.604-0.202c-0.277,0-0.523,0.125-0.739,0.373c-0.293,0.338-0.492,0.868-0.598,1.593
			S20.654,45.422,20.654,46.126z"/>
		<path style="fill:#0066FF;" d="M25.708,45.973c0-0.943,0.143-1.756,0.427-2.438s0.663-1.189,1.135-1.523
			c0.366-0.265,0.745-0.396,1.135-0.396c0.635,0,1.205,0.323,1.709,0.971c0.631,0.802,0.946,1.888,0.946,3.259
			c0,0.961-0.139,1.776-0.415,2.448c-0.277,0.671-0.63,1.158-1.059,1.461c-0.43,0.304-0.843,0.455-1.242,0.455
			c-0.79,0-1.447-0.466-1.971-1.397C25.929,48.026,25.708,47.08,25.708,45.973z M26.904,46.126c0,1.139,0.14,2.069,0.421,2.789
			c0.231,0.606,0.578,0.909,1.037,0.909c0.22,0,0.448-0.099,0.684-0.296c0.236-0.197,0.415-0.528,0.537-0.991
			c0.188-0.7,0.281-1.688,0.281-2.961c0-0.943-0.098-1.731-0.293-2.361c-0.146-0.469-0.336-0.8-0.568-0.995
			c-0.167-0.135-0.368-0.202-0.604-0.202c-0.277,0-0.523,0.125-0.739,0.373c-0.293,0.338-0.492,0.868-0.598,1.593
			S26.904,45.422,26.904,46.126z"/>
		<path style="fill:#0066FF;" d="M31.958,45.973c0-0.943,0.143-1.756,0.427-2.438s0.663-1.189,1.135-1.523
			c0.366-0.265,0.745-0.396,1.135-0.396c0.635,0,1.205,0.323,1.709,0.971c0.631,0.802,0.946,1.888,0.946,3.259
			c0,0.961-0.139,1.776-0.415,2.448c-0.277,0.671-0.63,1.158-1.059,1.461c-0.43,0.304-0.843,0.455-1.242,0.455
			c-0.79,0-1.447-0.466-1.971-1.397C32.179,48.026,31.958,47.08,31.958,45.973z M33.154,46.126c0,1.139,0.14,2.069,0.421,2.789
			c0.231,0.606,0.578,0.909,1.037,0.909c0.22,0,0.448-0.099,0.684-0.296c0.236-0.197,0.415-0.528,0.537-0.991
			c0.188-0.7,0.281-1.688,0.281-2.961c0-0.943-0.098-1.731-0.293-2.361c-0.146-0.469-0.336-0.8-0.568-0.995
			c-0.167-0.135-0.368-0.202-0.604-0.202c-0.277,0-0.523,0.125-0.739,0.373c-0.293,0.338-0.492,0.868-0.598,1.593
			S33.154,45.422,33.154,46.126z"/>
		<path style="fill:#0066FF;" d="M40.97,45.973c0-0.943,0.143-1.756,0.428-2.438s0.663-1.189,1.135-1.523
			c0.367-0.265,0.745-0.396,1.136-0.396c0.635,0,1.204,0.323,1.709,0.971c0.631,0.802,0.946,1.888,0.946,3.259
			c0,0.961-0.139,1.776-0.415,2.448c-0.277,0.671-0.63,1.158-1.06,1.461c-0.429,0.304-0.843,0.455-1.242,0.455
			c-0.789,0-1.446-0.466-1.971-1.397C41.192,48.026,40.97,47.08,40.97,45.973z M42.167,46.126c0,1.139,0.14,2.069,0.421,2.789
			c0.231,0.606,0.577,0.909,1.037,0.909c0.22,0,0.448-0.099,0.684-0.296c0.236-0.197,0.415-0.528,0.537-0.991
			c0.188-0.7,0.281-1.688,0.281-2.961c0-0.943-0.098-1.731-0.293-2.361c-0.146-0.469-0.336-0.8-0.567-0.995
			c-0.167-0.135-0.369-0.202-0.604-0.202c-0.277,0-0.523,0.125-0.739,0.373c-0.293,0.338-0.492,0.868-0.598,1.593
			S42.167,45.422,42.167,46.126z"/>
		<path style="fill:#0066FF;" d="M47.22,45.973c0-0.943,0.143-1.756,0.428-2.438s0.663-1.189,1.135-1.523
			c0.367-0.265,0.745-0.396,1.136-0.396c0.635,0,1.204,0.323,1.709,0.971c0.631,0.802,0.946,1.888,0.946,3.259
			c0,0.961-0.139,1.776-0.415,2.448c-0.277,0.671-0.63,1.158-1.06,1.461c-0.429,0.304-0.843,0.455-1.242,0.455
			c-0.789,0-1.446-0.466-1.971-1.397C47.442,48.026,47.22,47.08,47.22,45.973z M48.417,46.126c0,1.139,0.14,2.069,0.421,2.789
			c0.231,0.606,0.577,0.909,1.037,0.909c0.22,0,0.448-0.099,0.684-0.296c0.236-0.197,0.415-0.528,0.537-0.991
			c0.188-0.7,0.281-1.688,0.281-2.961c0-0.943-0.098-1.731-0.293-2.361c-0.146-0.469-0.336-0.8-0.567-0.995
			c-0.167-0.135-0.369-0.202-0.604-0.202c-0.277,0-0.523,0.125-0.739,0.373c-0.293,0.338-0.492,0.868-0.598,1.593
			S48.417,45.422,48.417,46.126z"/>
		<path style="fill:#0066FF;" d="M53.47,45.973c0-0.943,0.143-1.756,0.428-2.438s0.663-1.189,1.135-1.523
			c0.367-0.265,0.745-0.396,1.136-0.396c0.635,0,1.204,0.323,1.709,0.971c0.631,0.802,0.946,1.888,0.946,3.259
			c0,0.961-0.139,1.776-0.415,2.448c-0.277,0.671-0.63,1.158-1.06,1.461c-0.429,0.304-0.843,0.455-1.242,0.455
			c-0.789,0-1.446-0.466-1.971-1.397C53.692,48.026,53.47,47.08,53.47,45.973z M54.667,46.126c0,1.139,0.14,2.069,0.421,2.789
			c0.231,0.606,0.577,0.909,1.037,0.909c0.22,0,0.448-0.099,0.684-0.296c0.236-0.197,0.415-0.528,0.537-0.991
			c0.188-0.7,0.281-1.688,0.281-2.961c0-0.943-0.098-1.731-0.293-2.361c-0.146-0.469-0.336-0.8-0.567-0.995
			c-0.167-0.135-0.369-0.202-0.604-0.202c-0.277,0-0.523,0.125-0.739,0.373c-0.293,0.338-0.492,0.868-0.598,1.593
			S54.667,45.422,54.667,46.126z"/>
		<path style="fill:#0066FF;" d="M68.555,45.839c0.574,0.122,1.004,0.317,1.288,0.586c0.395,0.374,0.593,0.832,0.593,1.373
			c0,0.411-0.131,0.805-0.391,1.182c-0.261,0.376-0.618,0.65-1.071,0.823c-0.454,0.174-1.146,0.26-2.079,0.26h-3.906v-0.226H63.3
			c0.346,0,0.595-0.11,0.745-0.33c0.094-0.143,0.141-0.445,0.141-0.909v-5.347c0-0.513-0.06-0.836-0.178-0.971
			c-0.158-0.179-0.395-0.269-0.708-0.269h-0.312v-0.226h3.577c0.667,0,1.202,0.049,1.605,0.146c0.61,0.146,1.076,0.406,1.397,0.778
			s0.482,0.801,0.482,1.285c0,0.414-0.126,0.786-0.379,1.113C69.42,45.438,69.048,45.68,68.555,45.839z M65.357,45.51
			c0.15,0.028,0.322,0.05,0.516,0.063c0.192,0.015,0.405,0.021,0.638,0.021c0.594,0,1.04-0.064,1.34-0.192
			c0.299-0.128,0.527-0.324,0.687-0.589c0.158-0.265,0.238-0.554,0.238-0.866c0-0.484-0.198-0.897-0.593-1.239
			s-0.97-0.513-1.728-0.513c-0.406,0-0.772,0.045-1.098,0.134V45.51z M65.357,49.465c0.472,0.109,0.938,0.164,1.397,0.164
			c0.736,0,1.298-0.165,1.685-0.497s0.58-0.741,0.58-1.229c0-0.322-0.088-0.631-0.263-0.928c-0.175-0.298-0.46-0.531-0.854-0.702
			s-0.883-0.257-1.465-0.257c-0.253,0-0.468,0.004-0.647,0.013c-0.179,0.008-0.323,0.022-0.433,0.042V49.465z"/>
	</g>
	<g>
		<path style="fill:#CC0000;" d="M14.49,11l-3.198-6.964v5.529c0,0.509,0.055,0.826,0.165,0.952
			c0.151,0.171,0.389,0.257,0.714,0.257h0.293V11H9.583v-0.226h0.293c0.35,0,0.598-0.106,0.745-0.317
			c0.089-0.13,0.134-0.428,0.134-0.892V4.158c0-0.366-0.041-0.631-0.122-0.794c-0.057-0.118-0.162-0.216-0.314-0.296
			C10.166,2.989,9.92,2.949,9.583,2.949V2.724h2.344l3.003,6.476l2.954-6.476h2.344v0.226H19.94c-0.354,0-0.604,0.106-0.751,0.317
			c-0.089,0.13-0.134,0.428-0.134,0.892v5.407c0,0.509,0.057,0.826,0.171,0.952c0.15,0.171,0.389,0.257,0.714,0.257h0.287V11h-3.516
			v-0.226h0.293c0.354,0,0.602-0.106,0.745-0.317c0.089-0.13,0.134-0.428,0.134-0.892V4.036L14.691,11H14.49z"/>
	</g>
	<g>
		<path style="fill:#CC0000;" d="M22.354,23.848l2.014-0.982h0.202v6.988c0,0.464,0.019,0.753,0.058,0.867
			c0.039,0.113,0.119,0.201,0.241,0.262c0.122,0.062,0.37,0.096,0.745,0.104v0.226H22.5v-0.226c0.391-0.009,0.643-0.042,0.757-0.101
			c0.114-0.06,0.193-0.139,0.238-0.238c0.044-0.1,0.067-0.397,0.067-0.895v-4.468c0-0.602-0.021-0.988-0.061-1.159
			c-0.028-0.13-0.081-0.226-0.156-0.287s-0.166-0.092-0.271-0.092c-0.15,0-0.36,0.063-0.628,0.189L22.354,23.848z"/>
		<path style="fill:#CC0000;" d="M27.59,27.223c0-0.944,0.143-1.757,0.427-2.438c0.285-0.681,0.663-1.189,1.135-1.523
			c0.366-0.264,0.745-0.396,1.135-0.396c0.635,0,1.205,0.323,1.709,0.971c0.631,0.801,0.946,1.888,0.946,3.259
			c0,0.96-0.139,1.776-0.415,2.448c-0.277,0.671-0.63,1.158-1.059,1.461c-0.43,0.304-0.843,0.455-1.242,0.455
			c-0.79,0-1.447-0.466-1.971-1.397C27.812,29.275,27.59,28.33,27.59,27.223z M28.787,27.376c0,1.14,0.14,2.069,0.421,2.789
			c0.231,0.606,0.578,0.909,1.037,0.909c0.22,0,0.448-0.099,0.684-0.296c0.236-0.197,0.415-0.528,0.537-0.991
			c0.188-0.7,0.281-1.687,0.281-2.961c0-0.944-0.098-1.731-0.293-2.362c-0.146-0.468-0.336-0.799-0.568-0.995
			c-0.167-0.135-0.368-0.202-0.604-0.202c-0.277,0-0.523,0.124-0.739,0.373c-0.293,0.337-0.492,0.869-0.598,1.593
			S28.787,26.672,28.787,27.376z"/>
	</g>
	<g>
		<path style="fill:#0066FF;" d="M31.905,6.367h6.409v0.592h-6.409V6.367z M31.905,8.644h6.409v0.604h-6.409V8.644z"/>
	</g>
	<g>
		<path style="fill:#0066FF;" d="M0.616,26.68h6.409v0.592H0.616V26.68z M0.616,28.957h6.409v0.604H0.616V28.957z"/>
		<path style="fill:#0066FF;" d="M19.722,28.114c0,0.187-0.066,0.347-0.198,0.479c-0.132,0.132-0.29,0.198-0.473,0.198
			c-0.187,0-0.347-0.066-0.479-0.198c-0.132-0.133-0.199-0.292-0.199-0.479s0.066-0.347,0.199-0.479
			c0.132-0.132,0.292-0.199,0.479-0.199c0.183,0,0.341,0.066,0.473,0.199C19.656,27.768,19.722,27.927,19.722,28.114z"/>
		<path style="fill:#0066FF;" d="M53.727,26.68h6.409v0.592h-6.409V26.68z M53.727,28.957h6.409v0.604h-6.409V28.957z"/>
	</g>
	<g>
		<path style="fill:#0066FF;" d="M0.616,45.43h6.409v0.592H0.616V45.43z M0.616,47.707h6.409v0.604H0.616V47.707z"/>
	</g>
</g>
<g id="theGroup">
</g>
</svg>
