<?xml version="1.0" encoding="iso-8859-1"?>
<!-- Generator: Adobe Illustrator 16.0.0, SVG Export Plug-In . SVG Version: 6.00 Build 0)  -->
<!DOCTYPE svg PUBLIC "-//W3C//DTD SVG 1.1//EN" "http://www.w3.org/Graphics/SVG/1.1/DTD/svg11.dtd">
<svg version="1.1" id="Lager_1" xmlns="http://www.w3.org/2000/svg" xmlns:xlink="http://www.w3.org/1999/xlink" x="0px" y="0px"
	 width="7.922px" height="32.044px" viewBox="0 0 7.922 32.044" style="enable-background:new 0 0 7.922 32.044;"
	 xml:space="preserve">
<g>
	
		<line style="fill:none;stroke:#0066FF;stroke-width:0.5;stroke-linecap:square;stroke-miterlimit:10;" x1="0.25" y1="15.242" x2="7.672" y2="15.242"/>
	<g>
		<path style="fill:#0066FF;" d="M6.753,8.796l-0.58,1.593H1.29v-0.226c1.437-1.311,2.447-2.381,3.033-3.211
			s0.879-1.589,0.879-2.276c0-0.525-0.16-0.956-0.482-1.294C4.399,3.044,4.014,2.875,3.566,2.875c-0.407,0-0.772,0.119-1.095,0.357
			C2.147,3.47,1.909,3.819,1.754,4.279H1.528C1.63,3.526,1.891,2.948,2.312,2.546C2.733,2.143,3.259,1.941,3.89,1.941
			c0.671,0,1.232,0.216,1.681,0.646c0.45,0.432,0.675,0.94,0.675,1.526c0,0.419-0.098,0.838-0.293,1.257
			C5.652,6.03,5.164,6.729,4.488,7.465C3.475,8.571,2.842,9.239,2.59,9.467h2.161c0.439,0,0.747-0.017,0.925-0.049
			C5.853,9.386,6.012,9.319,6.154,9.22s0.267-0.241,0.373-0.424H6.753z"/>
	</g>
	<g>
		<path style="fill:#0066FF;" d="M1.656,21.51c0.236-0.558,0.534-0.988,0.894-1.291c0.36-0.304,0.809-0.455,1.346-0.455
			c0.663,0,1.172,0.216,1.525,0.646c0.269,0.322,0.403,0.666,0.403,1.032c0,0.602-0.379,1.225-1.136,1.867
			c0.509,0.199,0.894,0.484,1.154,0.854c0.26,0.37,0.391,0.806,0.391,1.307c0,0.716-0.229,1.336-0.684,1.861
			c-0.595,0.684-1.455,1.025-2.582,1.025c-0.558,0-0.937-0.069-1.139-0.207c-0.201-0.139-0.302-0.287-0.302-0.446
			c0-0.118,0.047-0.222,0.143-0.312c0.096-0.089,0.21-0.134,0.345-0.134c0.102,0,0.205,0.017,0.311,0.049
			c0.069,0.021,0.226,0.095,0.47,0.223s0.413,0.204,0.506,0.229c0.15,0.044,0.311,0.066,0.482,0.066c0.415,0,0.776-0.16,1.083-0.482
			c0.308-0.321,0.461-0.701,0.461-1.141c0-0.321-0.07-0.635-0.213-0.94c-0.105-0.228-0.223-0.4-0.348-0.519
			c-0.175-0.163-0.416-0.311-0.721-0.442s-0.616-0.198-0.934-0.198H2.92V23.92c0.321-0.04,0.644-0.156,0.967-0.348
			c0.323-0.191,0.558-0.421,0.705-0.689s0.22-0.563,0.22-0.885c0-0.42-0.131-0.758-0.394-1.017
			c-0.262-0.259-0.589-0.388-0.979-0.388c-0.631,0-1.158,0.338-1.581,1.014L1.656,21.51z"/>
	</g>
</g>
<g id="theGroup">
</g>
</svg>
