<?xml version="1.0" encoding="iso-8859-1"?>
<!-- Generator: Adobe Illustrator 16.0.0, SVG Export Plug-In . SVG Version: 6.00 Build 0)  -->
<!DOCTYPE svg PUBLIC "-//W3C//DTD SVG 1.1//EN" "http://www.w3.org/Graphics/SVG/1.1/DTD/svg11.dtd">
<svg version="1.1" id="Lager_1" xmlns="http://www.w3.org/2000/svg" xmlns:xlink="http://www.w3.org/1999/xlink" x="0px" y="0px"
	 width="44.277px" height="32.044px" viewBox="0 0 44.277 32.044" style="enable-background:new 0 0 44.277 32.044;"
	 xml:space="preserve">
<g>
	
		<line style="fill:none;stroke:#000000;stroke-width:0.5;stroke-linecap:square;stroke-miterlimit:10;" x1="0.25" y1="15.242" x2="7.672" y2="15.242"/>
	<g>
		<path d="M6.763,8.796l-0.58,1.593H1.3v-0.226c1.437-1.311,2.447-2.381,3.033-3.211s0.879-1.589,0.879-2.276
			c0-0.525-0.161-0.956-0.482-1.294S4.024,2.875,3.577,2.875c-0.407,0-0.772,0.119-1.095,0.357C2.158,3.47,1.919,3.819,1.764,4.279
			H1.539C1.64,3.526,1.901,2.948,2.323,2.546C2.744,2.143,3.27,1.941,3.9,1.941c0.671,0,1.232,0.216,1.682,0.646
			c0.449,0.432,0.674,0.94,0.674,1.526c0,0.419-0.098,0.838-0.293,1.257C5.662,6.03,5.174,6.729,4.499,7.465
			C3.485,8.571,2.853,9.239,2.6,9.467h2.161c0.439,0,0.748-0.017,0.924-0.049C5.863,9.386,6.022,9.319,6.165,9.22
			c0.143-0.1,0.267-0.241,0.373-0.424H6.763z"/>
	</g>
	<g>
		<path d="M21.679,14.483c0-0.944,0.143-1.757,0.427-2.438s0.663-1.189,1.135-1.523c0.367-0.264,0.745-0.396,1.135-0.396
			c0.635,0,1.204,0.323,1.709,0.971c0.631,0.802,0.946,1.888,0.946,3.259c0,0.961-0.139,1.776-0.415,2.448
			c-0.277,0.671-0.63,1.158-1.06,1.461c-0.429,0.304-0.843,0.455-1.242,0.455c-0.789,0-1.446-0.466-1.971-1.397
			C21.9,16.535,21.679,15.59,21.679,14.483z M22.875,14.636c0,1.14,0.14,2.069,0.421,2.789c0.231,0.606,0.577,0.909,1.037,0.909
			c0.22,0,0.448-0.099,0.684-0.296c0.236-0.197,0.415-0.528,0.537-0.991c0.188-0.7,0.281-1.687,0.281-2.961
			c0-0.943-0.098-1.73-0.293-2.361c-0.146-0.468-0.336-0.8-0.567-0.995c-0.167-0.135-0.369-0.201-0.604-0.201
			c-0.276,0-0.522,0.124-0.739,0.372c-0.292,0.338-0.492,0.869-0.598,1.593C22.928,13.218,22.875,13.932,22.875,14.636z"/>
		<path d="M27.961,20.653v-0.269c0.419-0.138,0.743-0.353,0.973-0.644c0.23-0.291,0.346-0.6,0.346-0.925
			c0-0.077-0.019-0.143-0.056-0.195c-0.028-0.037-0.057-0.055-0.085-0.055c-0.045,0-0.143,0.04-0.293,0.122
			c-0.073,0.036-0.15,0.055-0.232,0.055c-0.199,0-0.357-0.059-0.476-0.177s-0.177-0.281-0.177-0.488c0-0.199,0.076-0.37,0.229-0.513
			s0.339-0.214,0.559-0.214c0.269,0,0.507,0.117,0.717,0.351c0.21,0.234,0.314,0.545,0.314,0.931c0,0.42-0.146,0.81-0.437,1.169
			C29.052,20.162,28.591,20.446,27.961,20.653z"/>
		<path d="M37.38,10.125v0.226c-0.537,0.054-0.977,0.16-1.315,0.321c-0.34,0.16-0.676,0.405-1.008,0.735
			c-0.331,0.329-0.606,0.696-0.823,1.102c-0.218,0.405-0.4,0.886-0.547,1.443c0.586-0.403,1.174-0.604,1.764-0.604
			c0.566,0,1.057,0.229,1.472,0.684c0.415,0.456,0.622,1.042,0.622,1.758c0,0.691-0.209,1.322-0.629,1.893
			c-0.504,0.691-1.172,1.037-2.002,1.037c-0.565,0-1.045-0.188-1.439-0.562c-0.773-0.729-1.16-1.673-1.16-2.832
			c0-0.74,0.148-1.444,0.445-2.111c0.297-0.668,0.722-1.26,1.272-1.776c0.552-0.517,1.08-0.864,1.584-1.044
			c0.505-0.179,0.975-0.269,1.41-0.269H37.38z M33.583,14.397c-0.073,0.55-0.109,0.993-0.109,1.331c0,0.391,0.071,0.814,0.216,1.272
			c0.145,0.457,0.359,0.82,0.645,1.089c0.207,0.191,0.46,0.287,0.757,0.287c0.354,0,0.67-0.167,0.949-0.5
			c0.278-0.334,0.418-0.811,0.418-1.429c0-0.695-0.139-1.298-0.415-1.807c-0.277-0.509-0.67-0.763-1.179-0.763
			c-0.154,0-0.32,0.032-0.497,0.098S33.929,14.182,33.583,14.397z"/>
		<path d="M39.285,10.296h4.437v0.232l-2.759,8.215h-0.684l2.473-7.452h-2.277c-0.46,0-0.787,0.055-0.982,0.165
			c-0.342,0.187-0.616,0.476-0.824,0.866l-0.177-0.067L39.285,10.296z"/>
	</g>
	<g>
		<path d="M1.667,21.51c0.236-0.558,0.534-0.988,0.894-1.291c0.36-0.304,0.809-0.455,1.346-0.455c0.663,0,1.172,0.216,1.525,0.646
			c0.269,0.322,0.403,0.666,0.403,1.032c0,0.602-0.379,1.225-1.136,1.867c0.509,0.199,0.894,0.484,1.154,0.854
			s0.391,0.806,0.391,1.307c0,0.716-0.228,1.336-0.684,1.861c-0.594,0.684-1.455,1.025-2.582,1.025
			c-0.558,0-0.937-0.069-1.139-0.207c-0.201-0.139-0.302-0.287-0.302-0.446c0-0.118,0.047-0.222,0.143-0.312
			c0.096-0.089,0.21-0.134,0.345-0.134c0.102,0,0.205,0.017,0.311,0.049c0.069,0.021,0.226,0.095,0.47,0.223
			s0.413,0.204,0.506,0.229c0.15,0.044,0.311,0.066,0.482,0.066c0.415,0,0.776-0.16,1.083-0.482
			c0.307-0.321,0.461-0.701,0.461-1.141c0-0.321-0.071-0.635-0.213-0.94c-0.106-0.228-0.222-0.4-0.348-0.519
			c-0.175-0.163-0.415-0.311-0.72-0.442s-0.616-0.198-0.934-0.198H2.93V23.92c0.321-0.04,0.644-0.156,0.967-0.348
			c0.323-0.191,0.558-0.421,0.705-0.689s0.22-0.563,0.22-0.885c0-0.42-0.131-0.758-0.394-1.017
			c-0.262-0.259-0.589-0.388-0.979-0.388c-0.631,0-1.158,0.338-1.581,1.014L1.667,21.51z"/>
	</g>
	<g>
		<path d="M17.471,13.231h0.305c-0.081,0.664-0.282,1.156-0.601,1.478s-0.693,0.482-1.12,0.482c-0.2,0-0.429-0.044-0.687-0.132
			c-0.258-0.087-0.659-0.283-1.202-0.589c-0.543-0.305-0.961-0.458-1.254-0.458c-0.269,0-0.503,0.098-0.705,0.29
			c-0.201,0.193-0.329,0.476-0.381,0.846h-0.281c0.077-0.659,0.274-1.15,0.592-1.474c0.317-0.324,0.678-0.485,1.081-0.485
			c0.199,0,0.448,0.049,0.745,0.146c0.216,0.073,0.641,0.278,1.275,0.616c0.48,0.256,0.873,0.385,1.178,0.385
			c0.26,0,0.474-0.082,0.641-0.244C17.276,13.881,17.414,13.594,17.471,13.231z M17.471,15.594h0.305
			c-0.081,0.663-0.282,1.156-0.601,1.48c-0.319,0.323-0.693,0.484-1.12,0.484c-0.2,0-0.429-0.044-0.687-0.134
			s-0.659-0.287-1.202-0.592c-0.543-0.306-0.961-0.458-1.254-0.458c-0.269,0-0.503,0.097-0.705,0.29
			c-0.201,0.193-0.329,0.477-0.381,0.852h-0.281c0.077-0.659,0.274-1.151,0.592-1.474c0.317-0.324,0.678-0.485,1.081-0.485
			c0.199,0,0.448,0.049,0.745,0.146c0.216,0.073,0.641,0.278,1.275,0.616c0.48,0.256,0.873,0.385,1.178,0.385
			c0.26,0,0.474-0.084,0.641-0.251C17.276,16.242,17.414,15.956,17.471,15.594z"/>
	</g>
</g>
<g id="theGroup">
</g>
</svg>
