<?xml version="1.0" encoding="iso-8859-1"?>
<!-- Generator: Adobe Illustrator 16.0.0, SVG Export Plug-In . SVG Version: 6.00 Build 0)  -->
<!DOCTYPE svg PUBLIC "-//W3C//DTD SVG 1.1//EN" "http://www.w3.org/Graphics/SVG/1.1/DTD/svg11.dtd">
<svg version="1.1" id="Lager_1" xmlns="http://www.w3.org/2000/svg" xmlns:xlink="http://www.w3.org/1999/xlink" x="0px" y="0px"
	 width="162.34px" height="32.044px" viewBox="0 0 162.34 32.044" style="enable-background:new 0 0 162.34 32.044;"
	 xml:space="preserve">
<g>
	
		<line style="fill:none;stroke:#0066FF;stroke-width:0.5;stroke-linecap:square;stroke-miterlimit:10;" x1="0.25" y1="15.242" x2="7.672" y2="15.242"/>
	
		<line style="fill:none;stroke:#0066FF;stroke-width:0.5;stroke-linecap:square;stroke-miterlimit:10;" x1="51.891" y1="15.242" x2="59.312" y2="15.242"/>
	
		<line style="fill:none;stroke:#0066FF;stroke-width:0.5;stroke-linecap:square;stroke-miterlimit:10;" x1="102.32" y1="15.242" x2="115.797" y2="15.242"/>
	<g>
		<path style="fill:#0066FF;" d="M6.763,8.796l-0.58,1.593H1.3v-0.226c1.437-1.311,2.447-2.381,3.033-3.211s0.879-1.589,0.879-2.276
			c0-0.525-0.161-0.956-0.482-1.294S4.023,2.875,3.576,2.875c-0.407,0-0.772,0.119-1.096,0.357C2.157,3.47,1.918,3.819,1.764,4.279
			H1.538C1.64,3.526,1.9,2.948,2.322,2.546c0.421-0.403,0.946-0.604,1.577-0.604c0.672,0,1.232,0.216,1.682,0.646
			C6.03,3.02,6.256,3.528,6.256,4.114c0,0.419-0.098,0.838-0.293,1.257C5.661,6.03,5.173,6.729,4.498,7.465
			C3.484,8.571,2.852,9.239,2.6,9.467h2.161c0.439,0,0.747-0.017,0.924-0.049C5.862,9.386,6.021,9.319,6.164,9.22
			s0.267-0.241,0.372-0.424H6.763z"/>
		<path style="fill:#0066FF;" d="M58.4,8.796l-0.58,1.593h-4.883v-0.226c1.437-1.311,2.447-2.381,3.033-3.211
			s0.879-1.589,0.879-2.276c0-0.525-0.161-0.956-0.482-1.294s-0.706-0.507-1.153-0.507c-0.407,0-0.772,0.119-1.096,0.357
			c-0.323,0.237-0.562,0.587-0.717,1.047h-0.226c0.102-0.753,0.362-1.331,0.784-1.733c0.421-0.403,0.946-0.604,1.577-0.604
			c0.672,0,1.232,0.216,1.682,0.646c0.449,0.432,0.675,0.94,0.675,1.526c0,0.419-0.098,0.838-0.293,1.257
			c-0.302,0.659-0.79,1.357-1.465,2.094c-1.014,1.106-1.646,1.774-1.898,2.002h2.161c0.439,0,0.747-0.017,0.924-0.049
			c0.178-0.032,0.337-0.099,0.479-0.198s0.267-0.241,0.372-0.424H58.4z"/>
		<path style="fill:#0066FF;" d="M108.91,7.337v0.866h-1.11v2.186h-1.007V8.203h-3.504V7.422l3.839-5.48h0.672v5.396H108.91z
			 M106.793,7.337V3.229l-2.906,4.107H106.793z"/>
		<path style="fill:#0066FF;" d="M111.742,6.22c-0.655-0.537-1.077-0.969-1.267-1.294c-0.188-0.325-0.283-0.663-0.283-1.013
			c0-0.537,0.207-1,0.622-1.389s0.967-0.583,1.654-0.583c0.667,0,1.204,0.181,1.611,0.543s0.61,0.775,0.61,1.239
			c0,0.309-0.11,0.624-0.329,0.946c-0.221,0.321-0.678,0.699-1.374,1.135c0.717,0.554,1.19,0.989,1.423,1.307
			c0.309,0.415,0.463,0.852,0.463,1.312c0,0.582-0.222,1.08-0.665,1.492c-0.443,0.413-1.025,0.62-1.745,0.62
			c-0.785,0-1.398-0.246-1.838-0.738c-0.35-0.396-0.524-0.826-0.524-1.294c0-0.366,0.123-0.729,0.369-1.09
			S111.141,6.655,111.742,6.22z M112.029,6.452c-0.338,0.284-0.588,0.595-0.751,0.931c-0.162,0.335-0.244,0.698-0.244,1.089
			c0,0.525,0.144,0.945,0.431,1.261s0.652,0.473,1.096,0.473c0.439,0,0.791-0.124,1.056-0.372s0.396-0.549,0.396-0.903
			c0-0.293-0.077-0.556-0.231-0.787C113.492,7.711,112.908,7.147,112.029,6.452z M112.701,5.566c0.488-0.439,0.797-0.786,0.928-1.04
			c0.13-0.255,0.195-0.543,0.195-0.864c0-0.427-0.12-0.762-0.36-1.004s-0.567-0.363-0.983-0.363c-0.414,0-0.752,0.12-1.013,0.36
			s-0.391,0.521-0.391,0.843c0,0.211,0.054,0.423,0.162,0.635c0.107,0.211,0.261,0.412,0.46,0.604L112.701,5.566z"/>
	</g>
	<g>
		<path style="fill:#0066FF;" d="M17.48,17.943c-0.273,0.285-0.54,0.489-0.8,0.613c-0.261,0.124-0.541,0.187-0.843,0.187
			c-0.61,0-1.144-0.255-1.599-0.766c-0.456-0.511-0.684-1.167-0.684-1.969s0.252-1.535,0.757-2.2
			c0.504-0.665,1.153-0.998,1.947-0.998c0.492,0,0.898,0.157,1.221,0.47v-1.031c0-0.639-0.016-1.031-0.046-1.178
			c-0.031-0.146-0.079-0.246-0.144-0.299c-0.065-0.053-0.146-0.08-0.244-0.08c-0.106,0-0.246,0.033-0.421,0.098l-0.08-0.213
			l1.667-0.684h0.274v6.463c0,0.655,0.015,1.056,0.046,1.199c0.03,0.145,0.079,0.245,0.146,0.303
			c0.066,0.057,0.146,0.085,0.234,0.085c0.11,0,0.257-0.034,0.439-0.104l0.067,0.214l-1.66,0.689h-0.28V17.943z M17.48,17.517
			v-2.881c-0.024-0.276-0.098-0.529-0.22-0.757s-0.284-0.399-0.485-0.516c-0.202-0.116-0.398-0.174-0.589-0.174
			c-0.358,0-0.678,0.16-0.959,0.481c-0.37,0.424-0.555,1.042-0.555,1.855c0,0.822,0.179,1.452,0.537,1.89
			c0.357,0.438,0.757,0.656,1.196,0.656C16.776,18.072,17.134,17.887,17.48,17.517z"/>
		<path style="fill:#0066FF;" d="M19.464,12.981h2.606v0.226h-0.129c-0.183,0-0.32,0.04-0.412,0.119
			c-0.091,0.08-0.137,0.179-0.137,0.296c0,0.159,0.067,0.379,0.201,0.659l1.361,2.82l1.251-3.089
			c0.069-0.166,0.104-0.331,0.104-0.494c0-0.073-0.014-0.128-0.042-0.165c-0.033-0.044-0.084-0.08-0.153-0.106
			s-0.191-0.04-0.366-0.04v-0.226h1.819v0.226c-0.15,0.017-0.267,0.049-0.348,0.098c-0.082,0.049-0.171,0.141-0.269,0.275
			c-0.037,0.057-0.106,0.213-0.208,0.47l-2.276,5.578c-0.22,0.541-0.508,0.95-0.864,1.228c-0.355,0.276-0.698,0.414-1.028,0.414
			c-0.24,0-0.438-0.068-0.592-0.207s-0.231-0.297-0.231-0.477c0-0.17,0.056-0.308,0.167-0.411c0.112-0.104,0.266-0.156,0.461-0.156
			c0.135,0,0.317,0.045,0.55,0.135c0.162,0.061,0.265,0.091,0.305,0.091c0.122,0,0.256-0.062,0.4-0.188
			c0.144-0.126,0.29-0.37,0.437-0.732l0.396-0.971l-2.008-4.218c-0.062-0.126-0.159-0.282-0.293-0.47
			c-0.103-0.143-0.186-0.238-0.251-0.287c-0.094-0.064-0.244-0.122-0.451-0.171V12.981z"/>
		<path style="fill:#0066FF;" d="M27.139,16.533c-0.342-0.166-0.604-0.399-0.787-0.698c-0.184-0.299-0.274-0.63-0.274-0.992
			c0-0.553,0.208-1.029,0.625-1.428s0.951-0.599,1.603-0.599c0.533,0,0.995,0.131,1.386,0.391h1.184
			c0.175,0,0.276,0.006,0.306,0.016c0.028,0.011,0.049,0.027,0.061,0.052c0.024,0.037,0.037,0.102,0.037,0.195
			c0,0.106-0.011,0.18-0.031,0.22c-0.012,0.021-0.033,0.037-0.063,0.049c-0.031,0.013-0.134,0.019-0.309,0.019h-0.727
			c0.229,0.293,0.342,0.667,0.342,1.123c0,0.521-0.199,0.967-0.598,1.337c-0.399,0.37-0.934,0.555-1.605,0.555
			c-0.276,0-0.56-0.04-0.849-0.122c-0.179,0.155-0.3,0.29-0.363,0.406c-0.062,0.116-0.094,0.215-0.094,0.296
			c0,0.069,0.033,0.137,0.101,0.201c0.066,0.065,0.198,0.112,0.394,0.141c0.113,0.017,0.398,0.03,0.854,0.043
			c0.838,0.021,1.381,0.049,1.63,0.085c0.378,0.053,0.68,0.193,0.906,0.421c0.226,0.229,0.339,0.509,0.339,0.843
			c0,0.46-0.216,0.892-0.647,1.294c-0.635,0.594-1.463,0.891-2.484,0.891c-0.785,0-1.448-0.177-1.989-0.53
			c-0.306-0.204-0.458-0.415-0.458-0.635c0-0.098,0.022-0.195,0.067-0.293c0.069-0.15,0.211-0.36,0.427-0.629
			c0.028-0.036,0.236-0.257,0.623-0.659c-0.212-0.126-0.361-0.239-0.449-0.339c-0.087-0.1-0.131-0.213-0.131-0.339
			c0-0.143,0.058-0.309,0.174-0.5S26.72,16.884,27.139,16.533z M27.078,18.572c-0.191,0.207-0.336,0.4-0.434,0.58
			c-0.098,0.179-0.146,0.344-0.146,0.494c0,0.195,0.118,0.366,0.354,0.513c0.407,0.252,0.995,0.378,1.765,0.378
			c0.732,0,1.272-0.129,1.62-0.387c0.348-0.259,0.521-0.534,0.521-0.827c0-0.212-0.104-0.362-0.311-0.452
			c-0.212-0.089-0.631-0.143-1.258-0.158C28.274,18.688,27.57,18.642,27.078,18.572z M28.201,13.109c-0.302,0-0.554,0.12-0.757,0.36
			c-0.204,0.24-0.306,0.608-0.306,1.104c0,0.644,0.139,1.142,0.415,1.496c0.212,0.268,0.48,0.402,0.806,0.402
			c0.31,0,0.563-0.116,0.763-0.348c0.199-0.232,0.3-0.596,0.3-1.093c0-0.646-0.141-1.153-0.422-1.52
			C28.793,13.244,28.526,13.109,28.201,13.109z"/>
		<path style="fill:#0066FF;" d="M33.523,14.001c0.654-0.789,1.279-1.185,1.873-1.185c0.306,0,0.568,0.077,0.788,0.229
			s0.395,0.403,0.524,0.754c0.09,0.244,0.135,0.618,0.135,1.123v2.386c0,0.354,0.028,0.595,0.085,0.721
			c0.045,0.102,0.117,0.181,0.217,0.238c0.1,0.057,0.284,0.085,0.553,0.085v0.22h-2.766v-0.22h0.116c0.261,0,0.442-0.04,0.546-0.119
			c0.104-0.079,0.177-0.196,0.217-0.351c0.017-0.062,0.024-0.253,0.024-0.574v-2.288c0-0.509-0.066-0.878-0.198-1.108
			c-0.132-0.229-0.354-0.345-0.668-0.345c-0.484,0-0.967,0.265-1.446,0.794v2.947c0,0.379,0.021,0.612,0.066,0.702
			c0.058,0.118,0.136,0.204,0.235,0.26c0.1,0.055,0.302,0.082,0.607,0.082v0.22h-2.765v-0.22h0.122c0.284,0,0.477-0.072,0.576-0.217
			s0.149-0.42,0.149-0.827v-2.075c0-0.671-0.015-1.08-0.046-1.227c-0.03-0.146-0.077-0.246-0.14-0.299
			c-0.063-0.053-0.147-0.079-0.254-0.079c-0.113,0-0.25,0.03-0.408,0.091l-0.092-0.22l1.685-0.684h0.263V14.001z"/>
		<path style="fill:#0066FF;" d="M71.646,16.979l-0.58,1.593h-4.883v-0.226c1.437-1.311,2.447-2.381,3.033-3.211
			s0.879-1.589,0.879-2.276c0-0.524-0.16-0.956-0.481-1.294s-0.706-0.507-1.154-0.507c-0.406,0-0.771,0.119-1.095,0.357
			c-0.324,0.238-0.562,0.587-0.718,1.047h-0.226c0.102-0.753,0.363-1.331,0.784-1.733c0.421-0.403,0.947-0.604,1.578-0.604
			c0.671,0,1.231,0.216,1.682,0.647c0.449,0.431,0.674,0.939,0.674,1.525c0,0.419-0.098,0.839-0.293,1.258
			c-0.301,0.659-0.789,1.356-1.465,2.093c-1.013,1.107-1.646,1.774-1.898,2.002h2.161c0.439,0,0.748-0.016,0.925-0.049
			c0.177-0.032,0.337-0.099,0.479-0.198c0.143-0.1,0.267-0.241,0.373-0.424H71.646z"/>
		<path style="fill:#0066FF;" d="M77.981,15.521v0.866h-1.11v2.186h-1.007v-2.186H72.36v-0.78l3.839-5.481h0.672v5.396H77.981z
			 M75.864,15.521v-4.107l-2.905,4.107H75.864z"/>
		<path style="fill:#0066FF;" d="M83.96,9.894v4.089c0.452-0.496,0.81-0.814,1.074-0.955s0.529-0.211,0.794-0.211
			c0.317,0,0.59,0.088,0.817,0.263c0.229,0.175,0.397,0.45,0.507,0.824c0.077,0.261,0.116,0.736,0.116,1.428v1.978
			c0,0.354,0.028,0.597,0.085,0.727c0.041,0.098,0.11,0.175,0.208,0.232c0.098,0.057,0.276,0.085,0.537,0.085v0.22h-2.747v-0.22
			h0.129c0.26,0,0.441-0.04,0.543-0.119s0.173-0.196,0.213-0.351c0.013-0.065,0.019-0.257,0.019-0.574v-1.978
			c0-0.61-0.031-1.011-0.095-1.202c-0.062-0.191-0.163-0.334-0.302-0.43s-0.306-0.144-0.501-0.144c-0.199,0-0.406,0.053-0.622,0.158
			c-0.216,0.106-0.474,0.319-0.775,0.641v2.954c0,0.383,0.021,0.621,0.064,0.715c0.043,0.093,0.122,0.172,0.238,0.234
			c0.115,0.063,0.316,0.095,0.601,0.095v0.22h-2.771v-0.22c0.248,0,0.443-0.039,0.586-0.116c0.081-0.04,0.146-0.118,0.195-0.231
			c0.049-0.114,0.073-0.346,0.073-0.696v-5.06c0-0.639-0.016-1.031-0.046-1.178s-0.077-0.246-0.141-0.299s-0.147-0.08-0.253-0.08
			c-0.086,0-0.225,0.033-0.415,0.098l-0.086-0.213l1.673-0.684H83.96z"/>
		<path style="fill:#0066FF;" d="M123.285,9.894v4.089c0.452-0.496,0.81-0.814,1.074-0.955s0.529-0.211,0.794-0.211
			c0.317,0,0.59,0.088,0.817,0.263c0.229,0.175,0.397,0.45,0.507,0.824c0.077,0.261,0.116,0.736,0.116,1.428v1.978
			c0,0.354,0.028,0.597,0.085,0.727c0.041,0.098,0.11,0.175,0.208,0.232c0.098,0.057,0.276,0.085,0.537,0.085v0.22h-2.747v-0.22
			h0.129c0.26,0,0.441-0.04,0.543-0.119s0.173-0.196,0.213-0.351c0.013-0.065,0.019-0.257,0.019-0.574v-1.978
			c0-0.61-0.031-1.011-0.095-1.202c-0.062-0.191-0.163-0.334-0.302-0.43s-0.306-0.144-0.501-0.144c-0.199,0-0.406,0.053-0.622,0.158
			c-0.216,0.106-0.474,0.319-0.775,0.641v2.954c0,0.383,0.021,0.621,0.064,0.715c0.043,0.093,0.122,0.172,0.238,0.234
			c0.115,0.063,0.316,0.095,0.601,0.095v0.22h-2.771v-0.22c0.248,0,0.443-0.039,0.586-0.116c0.081-0.04,0.146-0.118,0.195-0.231
			c0.049-0.114,0.073-0.346,0.073-0.696v-5.06c0-0.639-0.016-1.031-0.046-1.178s-0.077-0.246-0.141-0.299s-0.147-0.08-0.253-0.08
			c-0.086,0-0.224,0.033-0.415,0.098l-0.086-0.213l1.673-0.684H123.285z"/>
		<path style="fill:#0066FF;" d="M141.543,11.107l2.014-0.982h0.202v6.988c0,0.464,0.019,0.753,0.058,0.867
			c0.039,0.113,0.119,0.201,0.241,0.262c0.122,0.062,0.37,0.096,0.745,0.104v0.226h-3.113v-0.226
			c0.391-0.009,0.643-0.042,0.757-0.101c0.114-0.06,0.193-0.139,0.238-0.238s0.067-0.397,0.067-0.895v-4.468
			c0-0.602-0.021-0.988-0.062-1.159c-0.028-0.13-0.08-0.226-0.155-0.287c-0.076-0.061-0.166-0.092-0.271-0.092
			c-0.151,0-0.36,0.063-0.629,0.189L141.543,11.107z"/>
		<path style="fill:#0066FF;" d="M151.932,10.125v0.226c-0.537,0.054-0.977,0.16-1.315,0.321c-0.34,0.16-0.676,0.405-1.008,0.735
			c-0.331,0.329-0.606,0.696-0.823,1.102c-0.218,0.405-0.4,0.886-0.547,1.443c0.586-0.403,1.174-0.604,1.764-0.604
			c0.566,0,1.057,0.229,1.472,0.684c0.415,0.456,0.622,1.042,0.622,1.758c0,0.691-0.209,1.322-0.629,1.893
			c-0.504,0.691-1.172,1.037-2.002,1.037c-0.565,0-1.045-0.188-1.439-0.562c-0.773-0.729-1.16-1.673-1.16-2.832
			c0-0.74,0.148-1.444,0.445-2.111c0.297-0.668,0.722-1.26,1.272-1.776c0.552-0.517,1.08-0.864,1.584-1.044
			c0.505-0.179,0.975-0.269,1.41-0.269H151.932z M148.135,14.397c-0.073,0.55-0.109,0.993-0.109,1.331
			c0,0.391,0.071,0.814,0.216,1.272c0.145,0.457,0.359,0.82,0.645,1.089c0.207,0.191,0.46,0.287,0.757,0.287
			c0.354,0,0.67-0.167,0.949-0.5c0.278-0.334,0.418-0.811,0.418-1.429c0-0.695-0.139-1.298-0.415-1.807
			c-0.277-0.509-0.67-0.763-1.179-0.763c-0.154,0-0.32,0.032-0.497,0.098S148.48,14.182,148.135,14.397z"/>
		<path style="fill:#0066FF;" d="M158.122,9.894v4.089c0.452-0.496,0.81-0.814,1.074-0.955s0.529-0.211,0.794-0.211
			c0.317,0,0.59,0.088,0.817,0.263c0.229,0.175,0.397,0.45,0.507,0.824c0.077,0.261,0.116,0.736,0.116,1.428v1.978
			c0,0.354,0.028,0.597,0.085,0.727c0.041,0.098,0.11,0.175,0.208,0.232c0.098,0.057,0.276,0.085,0.537,0.085v0.22h-2.747v-0.22
			h0.129c0.26,0,0.441-0.04,0.543-0.119s0.173-0.196,0.213-0.351c0.013-0.065,0.019-0.257,0.019-0.574v-1.978
			c0-0.61-0.031-1.011-0.095-1.202c-0.062-0.191-0.163-0.334-0.302-0.43s-0.306-0.144-0.501-0.144c-0.199,0-0.406,0.053-0.622,0.158
			c-0.216,0.106-0.474,0.319-0.775,0.641v2.954c0,0.383,0.021,0.621,0.064,0.715c0.043,0.093,0.122,0.172,0.238,0.234
			c0.115,0.063,0.316,0.095,0.601,0.095v0.22h-2.771v-0.22c0.248,0,0.443-0.039,0.586-0.116c0.081-0.04,0.146-0.118,0.195-0.231
			c0.049-0.114,0.073-0.346,0.073-0.696v-5.06c0-0.639-0.016-1.031-0.046-1.178s-0.077-0.246-0.141-0.299s-0.147-0.08-0.253-0.08
			c-0.086,0-0.224,0.033-0.415,0.098l-0.086-0.213l1.673-0.684H158.122z"/>
	</g>
	<g>
		<path style="fill:#0066FF;" d="M1.666,21.51c0.235-0.558,0.534-0.988,0.894-1.291c0.36-0.304,0.81-0.455,1.347-0.455
			c0.663,0,1.172,0.216,1.525,0.646c0.269,0.322,0.403,0.666,0.403,1.032c0,0.602-0.379,1.225-1.136,1.867
			c0.509,0.199,0.894,0.484,1.153,0.854c0.261,0.37,0.391,0.806,0.391,1.307c0,0.716-0.228,1.336-0.684,1.861
			c-0.594,0.684-1.454,1.025-2.581,1.025c-0.558,0-0.938-0.069-1.139-0.207c-0.201-0.139-0.302-0.287-0.302-0.446
			c0-0.118,0.047-0.222,0.143-0.312c0.096-0.089,0.211-0.134,0.346-0.134c0.102,0,0.205,0.017,0.311,0.049
			c0.069,0.021,0.227,0.095,0.471,0.223s0.412,0.204,0.506,0.229c0.15,0.044,0.312,0.066,0.482,0.066
			c0.415,0,0.776-0.16,1.083-0.482c0.308-0.321,0.461-0.701,0.461-1.141c0-0.321-0.071-0.635-0.213-0.94
			c-0.106-0.228-0.223-0.4-0.349-0.519c-0.175-0.163-0.415-0.311-0.72-0.442c-0.306-0.132-0.616-0.198-0.934-0.198H2.93V23.92
			c0.321-0.04,0.644-0.156,0.967-0.348s0.559-0.421,0.705-0.689s0.22-0.563,0.22-0.885c0-0.42-0.131-0.758-0.394-1.017
			s-0.589-0.388-0.979-0.388c-0.631,0-1.158,0.338-1.581,1.014L1.666,21.51z"/>
		<path style="fill:#0066FF;" d="M53.304,21.51c0.235-0.558,0.534-0.988,0.894-1.291c0.36-0.304,0.81-0.455,1.347-0.455
			c0.663,0,1.172,0.216,1.525,0.646c0.269,0.322,0.403,0.666,0.403,1.032c0,0.602-0.379,1.225-1.136,1.867
			c0.509,0.199,0.894,0.484,1.153,0.854c0.261,0.37,0.391,0.806,0.391,1.307c0,0.716-0.228,1.336-0.684,1.861
			c-0.594,0.684-1.454,1.025-2.581,1.025c-0.558,0-0.938-0.069-1.139-0.207c-0.201-0.139-0.302-0.287-0.302-0.446
			c0-0.118,0.047-0.222,0.143-0.312c0.096-0.089,0.211-0.134,0.346-0.134c0.102,0,0.205,0.017,0.311,0.049
			c0.069,0.021,0.227,0.095,0.471,0.223s0.412,0.204,0.506,0.229c0.15,0.044,0.312,0.066,0.482,0.066
			c0.415,0,0.776-0.16,1.083-0.482c0.308-0.321,0.461-0.701,0.461-1.141c0-0.321-0.071-0.635-0.213-0.94
			c-0.106-0.228-0.223-0.4-0.349-0.519c-0.175-0.163-0.415-0.311-0.72-0.442c-0.306-0.132-0.616-0.198-0.934-0.198h-0.195V23.92
			c0.321-0.04,0.644-0.156,0.967-0.348s0.559-0.421,0.705-0.689s0.22-0.563,0.22-0.885c0-0.42-0.131-0.758-0.394-1.017
			s-0.589-0.388-0.979-0.388c-0.631,0-1.158,0.338-1.581,1.014L53.304,21.51z"/>
		<path style="fill:#0066FF;" d="M106.74,21.51c0.236-0.558,0.534-0.988,0.895-1.291c0.359-0.304,0.809-0.455,1.346-0.455
			c0.663,0,1.172,0.216,1.525,0.646c0.269,0.322,0.403,0.666,0.403,1.032c0,0.602-0.379,1.225-1.136,1.867
			c0.509,0.199,0.894,0.484,1.154,0.854c0.26,0.37,0.391,0.806,0.391,1.307c0,0.716-0.229,1.336-0.684,1.861
			c-0.595,0.684-1.455,1.025-2.582,1.025c-0.558,0-0.938-0.069-1.139-0.207c-0.201-0.139-0.302-0.287-0.302-0.446
			c0-0.118,0.048-0.222,0.144-0.312c0.095-0.089,0.21-0.134,0.345-0.134c0.102,0,0.205,0.017,0.312,0.049
			c0.068,0.021,0.226,0.095,0.47,0.223s0.413,0.204,0.507,0.229c0.15,0.044,0.311,0.066,0.481,0.066c0.415,0,0.776-0.16,1.084-0.482
			c0.307-0.321,0.46-0.701,0.46-1.141c0-0.321-0.07-0.635-0.213-0.94c-0.106-0.228-0.222-0.4-0.348-0.519
			c-0.176-0.163-0.416-0.311-0.721-0.442s-0.616-0.198-0.934-0.198h-0.195V23.92c0.321-0.04,0.644-0.156,0.967-0.348
			c0.324-0.191,0.559-0.421,0.705-0.689s0.22-0.563,0.22-0.885c0-0.42-0.131-0.758-0.394-1.017s-0.589-0.388-0.979-0.388
			c-0.631,0-1.157,0.338-1.581,1.014L106.74,21.51z"/>
	</g>
	<g>
		<path style="fill:#0066FF;" d="M41.53,13.939h6.409v0.593H41.53V13.939z M41.53,16.217h6.409v0.604H41.53V16.217z"/>
		<path style="fill:#0066FF;" d="M63.374,15.374c0,0.188-0.066,0.348-0.198,0.479c-0.133,0.132-0.29,0.198-0.474,0.198
			c-0.187,0-0.347-0.066-0.479-0.198c-0.133-0.132-0.199-0.292-0.199-0.479c0-0.187,0.066-0.347,0.199-0.479
			c0.132-0.133,0.292-0.199,0.479-0.199c0.184,0,0.341,0.066,0.474,0.199C63.308,15.027,63.374,15.188,63.374,15.374z"/>
		<path style="fill:#0066FF;" d="M91.94,13.939h6.409v0.593H91.94V13.939z M91.94,16.217h6.409v0.604H91.94V16.217z"/>
		<path style="fill:#0066FF;" d="M131.275,13.939h6.409v0.593h-6.409V13.939z M131.275,16.217h6.409v0.604h-6.409V16.217z"/>
	</g>
</g>
<g id="theGroup">
</g>
</svg>
