<?xml version="1.0" encoding="iso-8859-1"?>
<!-- Generator: Adobe Illustrator 16.0.0, SVG Export Plug-In . SVG Version: 6.00 Build 0)  -->
<!DOCTYPE svg PUBLIC "-//W3C//DTD SVG 1.1//EN" "http://www.w3.org/Graphics/SVG/1.1/DTD/svg11.dtd">
<svg version="1.1" id="Lager_1" xmlns="http://www.w3.org/2000/svg" xmlns:xlink="http://www.w3.org/1999/xlink" x="0px" y="0px"
	 width="139.138px" height="15.454px" viewBox="0 0 139.138 15.454" style="enable-background:new 0 0 139.138 15.454;"
	 xml:space="preserve">
<g>
	<g>
		<path style="fill:#0066FF;" d="M9.69,5.085L9.355,6.006H6.532v-0.13c0.831-0.758,1.415-1.376,1.754-1.856
			C8.625,3.54,8.794,3.101,8.794,2.703c0-0.304-0.093-0.553-0.279-0.748C8.33,1.76,8.107,1.662,7.848,1.662
			c-0.235,0-0.446,0.069-0.633,0.207S6.89,2.208,6.8,2.474H6.67c0.059-0.435,0.21-0.769,0.453-1.002
			c0.244-0.233,0.548-0.35,0.912-0.35c0.388,0,0.712,0.125,0.972,0.374c0.26,0.25,0.39,0.543,0.39,0.882
			c0,0.242-0.057,0.485-0.169,0.727C9.054,3.486,8.771,3.89,8.381,4.315C7.795,4.956,7.43,5.341,7.284,5.473h1.249
			c0.254,0,0.433-0.009,0.535-0.028C9.17,5.426,9.262,5.388,9.345,5.33C9.427,5.272,9.499,5.191,9.56,5.085H9.69z"/>
		<path style="fill:#0066FF;" d="M29.099,1.69l1.165-0.568h0.117v4.041c0,0.268,0.011,0.435,0.033,0.501s0.069,0.117,0.14,0.152
			c0.07,0.035,0.214,0.055,0.43,0.06v0.13h-1.799v-0.13c0.226-0.005,0.372-0.024,0.438-0.059c0.066-0.034,0.112-0.08,0.138-0.137
			s0.039-0.23,0.039-0.517V2.58c0-0.348-0.012-0.572-0.035-0.67c-0.017-0.075-0.046-0.13-0.09-0.166
			c-0.044-0.035-0.096-0.053-0.157-0.053c-0.087,0-0.208,0.037-0.363,0.109L29.099,1.69z"/>
		<path style="fill:#0066FF;" d="M50.54,3.642c0-0.545,0.082-1.016,0.247-1.41c0.165-0.394,0.383-0.688,0.656-0.88
			c0.211-0.153,0.43-0.229,0.656-0.229c0.367,0,0.696,0.187,0.988,0.561c0.365,0.464,0.547,1.092,0.547,1.884
			c0,0.555-0.08,1.027-0.24,1.415s-0.364,0.67-0.612,0.845S52.294,6.09,52.064,6.09c-0.457,0-0.836-0.269-1.14-0.808
			C50.667,4.829,50.54,4.282,50.54,3.642z M51.231,3.73c0,0.659,0.081,1.196,0.244,1.612c0.134,0.351,0.334,0.526,0.6,0.526
			c0.127,0,0.259-0.057,0.396-0.171c0.136-0.114,0.24-0.305,0.311-0.574c0.108-0.404,0.162-0.975,0.162-1.711
			c0-0.545-0.057-1-0.169-1.365c-0.084-0.271-0.194-0.462-0.328-0.575c-0.096-0.078-0.213-0.117-0.349-0.117
			c-0.16,0-0.302,0.072-0.427,0.215c-0.169,0.195-0.285,0.502-0.346,0.921C51.262,2.91,51.231,3.323,51.231,3.73z"/>
	</g>
	<g>
		<path style="fill:#0066FF;" d="M5.426,3.345L4.95,4.382H2.46L1.917,5.493c1.078,0.159,1.933,0.56,2.563,1.202
			C5.021,7.249,5.292,7.9,5.292,8.648c0,0.436-0.089,0.839-0.266,1.209c-0.177,0.37-0.4,0.686-0.668,0.945
			c-0.269,0.261-0.568,0.471-0.897,0.629c-0.468,0.224-0.948,0.336-1.44,0.336c-0.497,0-0.858-0.085-1.083-0.253
			c-0.226-0.169-0.339-0.355-0.339-0.559c0-0.114,0.047-0.215,0.14-0.303c0.094-0.087,0.212-0.131,0.354-0.131
			c0.105,0,0.198,0.017,0.277,0.049c0.08,0.032,0.215,0.116,0.406,0.25c0.305,0.212,0.614,0.317,0.928,0.317
			c0.476,0,0.894-0.18,1.254-0.54c0.36-0.36,0.54-0.799,0.54-1.315c0-0.5-0.161-0.967-0.482-1.4
			C3.695,7.449,3.251,7.115,2.686,6.879C2.242,6.695,1.638,6.59,0.873,6.562L2.46,3.345H5.426z"/>
		<path style="fill:#0066FF;" d="M28.113,3.345l-0.476,1.038h-2.49l-0.543,1.111c1.078,0.159,1.933,0.56,2.563,1.202
			c0.541,0.554,0.812,1.205,0.812,1.953c0,0.436-0.089,0.839-0.266,1.209c-0.177,0.37-0.4,0.686-0.668,0.945
			c-0.269,0.261-0.568,0.471-0.897,0.629c-0.468,0.224-0.948,0.336-1.44,0.336c-0.497,0-0.858-0.085-1.083-0.253
			c-0.226-0.169-0.339-0.355-0.339-0.559c0-0.114,0.047-0.215,0.14-0.303c0.094-0.087,0.212-0.131,0.354-0.131
			c0.105,0,0.198,0.017,0.277,0.049c0.08,0.032,0.215,0.116,0.406,0.25c0.305,0.212,0.614,0.317,0.928,0.317
			c0.476,0,0.894-0.18,1.254-0.54c0.36-0.36,0.54-0.799,0.54-1.315c0-0.5-0.161-0.967-0.482-1.4
			c-0.321-0.434-0.765-0.768-1.331-1.004c-0.443-0.184-1.048-0.289-1.812-0.317l1.587-3.217H28.113z"/>
		<path style="fill:#0066FF;" d="M49.438,3.345l-0.476,1.038h-2.49l-0.543,1.111c1.078,0.159,1.933,0.56,2.563,1.202
			c0.541,0.554,0.812,1.205,0.812,1.953c0,0.436-0.089,0.839-0.266,1.209c-0.177,0.37-0.4,0.686-0.668,0.945
			c-0.269,0.261-0.568,0.471-0.897,0.629c-0.468,0.224-0.948,0.336-1.44,0.336c-0.497,0-0.858-0.085-1.083-0.253
			c-0.226-0.169-0.339-0.355-0.339-0.559c0-0.114,0.047-0.215,0.14-0.303c0.094-0.087,0.212-0.131,0.354-0.131
			c0.105,0,0.198,0.017,0.277,0.049c0.08,0.032,0.215,0.116,0.406,0.25c0.305,0.212,0.614,0.317,0.928,0.317
			c0.476,0,0.894-0.18,1.254-0.54c0.36-0.36,0.54-0.799,0.54-1.315c0-0.5-0.161-0.967-0.482-1.4
			c-0.321-0.434-0.765-0.768-1.331-1.004c-0.443-0.184-1.048-0.289-1.812-0.317l1.587-3.217H49.438z"/>
		<path style="fill:#0066FF;" d="M74.581,10.028l-0.58,1.593h-4.882v-0.226c1.437-1.311,2.447-2.381,3.033-3.211
			s0.879-1.589,0.879-2.276c0-0.525-0.16-0.956-0.48-1.294c-0.322-0.338-0.707-0.507-1.154-0.507c-0.406,0-0.772,0.119-1.096,0.357
			c-0.324,0.238-0.562,0.587-0.717,1.047h-0.226c0.102-0.753,0.363-1.331,0.785-1.733c0.42-0.403,0.947-0.604,1.578-0.604
			c0.67,0,1.23,0.216,1.68,0.647c0.451,0.431,0.676,0.94,0.676,1.526c0,0.419-0.098,0.838-0.293,1.257
			c-0.301,0.659-0.789,1.357-1.465,2.093c-1.014,1.107-1.646,1.774-1.898,2.002h2.16c0.439,0,0.748-0.016,0.926-0.049
			c0.176-0.032,0.336-0.099,0.479-0.198s0.266-0.241,0.373-0.424H74.581z"/>
		<path style="fill:#0066FF;" d="M80.525,3.345L80.05,4.382h-2.49l-0.544,1.111c1.079,0.159,1.934,0.56,2.564,1.202
			c0.541,0.554,0.812,1.205,0.812,1.953c0,0.436-0.089,0.839-0.266,1.209s-0.399,0.686-0.669,0.945
			c-0.268,0.261-0.567,0.471-0.896,0.629c-0.468,0.224-0.948,0.336-1.44,0.336c-0.497,0-0.857-0.085-1.084-0.253
			c-0.226-0.169-0.339-0.355-0.339-0.559c0-0.114,0.047-0.215,0.141-0.303c0.094-0.087,0.212-0.131,0.354-0.131
			c0.105,0,0.198,0.017,0.277,0.049s0.215,0.116,0.406,0.25c0.305,0.212,0.614,0.317,0.928,0.317c0.476,0,0.894-0.18,1.254-0.54
			s0.54-0.799,0.54-1.315c0-0.5-0.16-0.967-0.482-1.4c-0.321-0.434-0.765-0.768-1.33-1.004c-0.443-0.184-1.048-0.289-1.812-0.317
			l1.587-3.217H80.525z"/>
		<path style="fill:#0066FF;" d="M97.663,3.345l-0.476,1.038h-2.49l-0.544,1.111c1.079,0.159,1.934,0.56,2.564,1.202
			c0.541,0.554,0.812,1.205,0.812,1.953c0,0.436-0.089,0.839-0.266,1.209s-0.399,0.686-0.669,0.945
			c-0.268,0.261-0.567,0.471-0.896,0.629c-0.468,0.224-0.948,0.336-1.44,0.336c-0.497,0-0.857-0.085-1.084-0.253
			c-0.226-0.169-0.339-0.355-0.339-0.559c0-0.114,0.047-0.215,0.141-0.303c0.094-0.087,0.212-0.131,0.354-0.131
			c0.105,0,0.198,0.017,0.277,0.049s0.215,0.116,0.406,0.25c0.305,0.212,0.614,0.317,0.928,0.317c0.476,0,0.894-0.18,1.254-0.54
			s0.54-0.799,0.54-1.315c0-0.5-0.16-0.967-0.482-1.4c-0.321-0.434-0.765-0.768-1.33-1.004c-0.443-0.184-1.048-0.289-1.812-0.317
			l1.587-3.217H97.663z"/>
		<path style="fill:#0066FF;" d="M109.865,4.156l2.014-0.982h0.202v6.988c0,0.464,0.019,0.753,0.058,0.867
			c0.039,0.113,0.119,0.201,0.241,0.262c0.122,0.062,0.37,0.096,0.745,0.104v0.226h-3.113v-0.226
			c0.391-0.009,0.643-0.042,0.757-0.101c0.114-0.06,0.193-0.139,0.238-0.238s0.067-0.397,0.067-0.895V5.694
			c0-0.602-0.021-0.988-0.062-1.159c-0.028-0.13-0.08-0.226-0.155-0.287c-0.076-0.061-0.166-0.092-0.271-0.092
			c-0.151,0-0.36,0.063-0.629,0.189L109.865,4.156z"/>
		<path style="fill:#0066FF;" d="M127.272,4.919c0.236-0.558,0.534-0.988,0.895-1.291c0.359-0.303,0.809-0.455,1.346-0.455
			c0.663,0,1.172,0.216,1.525,0.647c0.269,0.321,0.403,0.666,0.403,1.032c0,0.602-0.379,1.225-1.136,1.867
			c0.509,0.2,0.894,0.484,1.154,0.854c0.26,0.371,0.391,0.806,0.391,1.307c0,0.716-0.229,1.336-0.684,1.861
			c-0.595,0.684-1.455,1.025-2.582,1.025c-0.558,0-0.938-0.069-1.139-0.207c-0.201-0.139-0.302-0.287-0.302-0.446
			c0-0.118,0.048-0.222,0.144-0.312c0.095-0.089,0.21-0.134,0.345-0.134c0.102,0,0.205,0.017,0.312,0.049
			c0.068,0.021,0.226,0.095,0.47,0.223s0.413,0.204,0.507,0.229c0.15,0.044,0.311,0.066,0.481,0.066c0.415,0,0.776-0.16,1.084-0.482
			c0.307-0.321,0.46-0.701,0.46-1.141c0-0.321-0.07-0.635-0.213-0.94c-0.106-0.228-0.222-0.4-0.348-0.519
			c-0.176-0.163-0.416-0.31-0.721-0.442s-0.616-0.198-0.934-0.198h-0.195V7.33c0.321-0.041,0.644-0.156,0.967-0.348
			c0.324-0.191,0.559-0.421,0.705-0.689s0.22-0.564,0.22-0.885c0-0.419-0.131-0.758-0.394-1.016s-0.589-0.388-0.979-0.388
			c-0.631,0-1.157,0.338-1.581,1.013L127.272,4.919z"/>
		<path style="fill:#0066FF;" d="M134.353,4.156l2.014-0.982h0.202v6.988c0,0.464,0.019,0.753,0.058,0.867
			c0.039,0.113,0.119,0.201,0.241,0.262c0.122,0.062,0.37,0.096,0.745,0.104v0.226h-3.113v-0.226
			c0.391-0.009,0.643-0.042,0.757-0.101c0.114-0.06,0.193-0.139,0.238-0.238s0.067-0.397,0.067-0.895V5.694
			c0-0.602-0.021-0.988-0.062-1.159c-0.028-0.13-0.08-0.226-0.155-0.287c-0.076-0.061-0.166-0.092-0.271-0.092
			c-0.151,0-0.36,0.063-0.629,0.189L134.353,4.156z"/>
	</g>
	<g>
		<path style="fill:#0066FF;" d="M16.77,5.212h0.598V8.13h2.899v0.592h-2.899v2.899H16.77V8.722h-2.912V8.13h2.912V5.212z"/>
		<path style="fill:#0066FF;" d="M38.093,5.212h0.598V8.13h2.899v0.592h-2.899v2.899h-0.598V8.722h-2.912V8.13h2.912V5.212z"/>
		<path style="fill:#0066FF;" d="M58.691,6.988h6.409v0.592h-6.409V6.988z M58.691,9.266h6.409v0.604h-6.409V9.266z"/>
		<path style="fill:#0066FF;" d="M86.325,5.212h0.599V8.13h2.899v0.592h-2.899v2.899h-0.599V8.722h-2.911V8.13h2.911V5.212z"/>
		<path style="fill:#0066FF;" d="M103.474,5.212h0.599V8.13h2.899v0.592h-2.899v2.899h-0.599V8.722h-2.911V8.13h2.911V5.212z"/>
		<path style="fill:#0066FF;" d="M116.885,6.988h6.409v0.592h-6.409V6.988z M116.885,9.266h6.409v0.604h-6.409V9.266z"/>
	</g>
</g>
<g id="theGroup">
</g>
</svg>
