<?xml version="1.0" encoding="iso-8859-1"?>
<!-- Generator: Adobe Illustrator 16.0.0, SVG Export Plug-In . SVG Version: 6.00 Build 0)  -->
<!DOCTYPE svg PUBLIC "-//W3C//DTD SVG 1.1//EN" "http://www.w3.org/Graphics/SVG/1.1/DTD/svg11.dtd">
<svg version="1.1" id="Lager_1" xmlns="http://www.w3.org/2000/svg" xmlns:xlink="http://www.w3.org/1999/xlink" x="0px" y="0px"
	 width="213.672px" height="36.319px" viewBox="0 0 213.672 36.319" style="enable-background:new 0 0 213.672 36.319;"
	 xml:space="preserve">
<g>
	<path style="fill:none;stroke:#005CA9;stroke-width:0.5;stroke-miterlimit:10;" d="M0.586,18.621h12.109 M21.836,18.621h13.477
		 M49.454,18.621h12.109 M68.36,18.621h13.477 M95.977,18.621h24.961 M135.079,18.621h18.906 M168.125,18.621h19.102
		 M201.368,18.621h12.305"/>
	<g>
		<path style="fill:#005CA9;" d="M5.914,9.609C5.259,9.072,4.837,8.641,4.648,8.315C4.458,7.99,4.364,7.652,4.364,7.303
			c0-0.537,0.207-1,0.622-1.389s0.967-0.583,1.654-0.583c0.667,0,1.205,0.181,1.611,0.543c0.407,0.362,0.61,0.775,0.61,1.239
			c0,0.309-0.11,0.625-0.33,0.946c-0.22,0.321-0.677,0.7-1.374,1.135c0.716,0.554,1.19,0.989,1.422,1.307
			c0.309,0.415,0.464,0.852,0.464,1.312c0,0.582-0.222,1.08-0.666,1.492c-0.443,0.413-1.025,0.62-1.745,0.62
			c-0.786,0-1.398-0.246-1.837-0.738c-0.35-0.395-0.525-0.826-0.525-1.294c0-0.366,0.123-0.729,0.369-1.09
			C4.888,10.443,5.312,10.045,5.914,9.609z M6.201,9.842c-0.338,0.285-0.588,0.595-0.751,0.931
			c-0.163,0.335-0.244,0.699-0.244,1.089c0,0.525,0.144,0.945,0.431,1.26c0.287,0.315,0.652,0.473,1.096,0.473
			c0.439,0,0.791-0.124,1.056-0.373c0.265-0.248,0.396-0.549,0.396-0.903c0-0.293-0.077-0.555-0.231-0.787
			C7.664,11.101,7.08,10.537,6.201,9.842z M6.873,8.957C7.361,8.517,7.67,8.17,7.8,7.916s0.195-0.542,0.195-0.864
			c0-0.427-0.12-0.762-0.36-1.004c-0.24-0.242-0.568-0.363-0.983-0.363S5.9,5.805,5.64,6.045c-0.26,0.24-0.391,0.521-0.391,0.843
			c0,0.211,0.054,0.423,0.162,0.635c0.108,0.211,0.262,0.413,0.461,0.604L6.873,8.957z"/>
	</g>
	<g>
		<path style="fill:#005CA9;" d="M1.465,24.116l2.014-0.982h0.202v6.988c0,0.464,0.019,0.753,0.058,0.867
			c0.039,0.113,0.119,0.201,0.241,0.262c0.122,0.062,0.37,0.096,0.745,0.104v0.226H1.611v-0.226
			c0.391-0.009,0.643-0.042,0.757-0.101c0.114-0.06,0.193-0.139,0.238-0.238c0.044-0.1,0.067-0.397,0.067-0.895v-4.468
			c0-0.602-0.021-0.988-0.061-1.159c-0.028-0.131-0.081-0.227-0.156-0.287s-0.166-0.092-0.271-0.092c-0.15,0-0.36,0.063-0.628,0.189
			L1.465,24.116z"/>
		<path style="fill:#005CA9;" d="M11.676,23.305L11.2,24.343H8.71l-0.543,1.11c1.078,0.159,1.933,0.56,2.563,1.202
			c0.541,0.554,0.812,1.205,0.812,1.953c0,0.436-0.089,0.839-0.266,1.209c-0.177,0.37-0.4,0.686-0.668,0.945
			c-0.269,0.261-0.568,0.471-0.897,0.629c-0.468,0.224-0.948,0.336-1.44,0.336c-0.497,0-0.858-0.085-1.083-0.253
			c-0.226-0.169-0.339-0.355-0.339-0.559c0-0.114,0.047-0.215,0.14-0.303c0.094-0.087,0.212-0.131,0.354-0.131
			c0.105,0,0.198,0.017,0.277,0.049c0.08,0.032,0.215,0.116,0.406,0.25c0.305,0.212,0.614,0.317,0.928,0.317
			c0.476,0,0.894-0.18,1.254-0.54c0.36-0.36,0.54-0.799,0.54-1.315c0-0.5-0.161-0.967-0.482-1.4s-0.765-0.769-1.331-1.004
			c-0.443-0.184-1.048-0.289-1.812-0.317l1.587-3.217H11.676z"/>
	</g>
	<g>
		<path style="fill:#005CA9;" d="M31.441,10.727v0.867h-1.11v2.185h-1.007v-2.185H25.82v-0.781l3.839-5.481h0.672v5.396H31.441z
			 M29.324,10.727V6.619l-2.905,4.107H29.324z"/>
	</g>
	<g>
		<path style="fill:#005CA9;" d="M28.358,29.988l-0.58,1.593h-4.883v-0.226c1.437-1.311,2.447-2.381,3.033-3.211
			s0.879-1.589,0.879-2.276c0-0.525-0.161-0.956-0.482-1.294s-0.706-0.507-1.154-0.507c-0.407,0-0.772,0.119-1.095,0.357
			c-0.324,0.238-0.562,0.587-0.717,1.047h-0.226c0.102-0.753,0.363-1.331,0.784-1.733c0.421-0.403,0.947-0.604,1.578-0.604
			c0.671,0,1.232,0.216,1.682,0.646c0.449,0.432,0.674,0.94,0.674,1.526c0,0.419-0.098,0.838-0.293,1.257
			c-0.301,0.66-0.79,1.357-1.465,2.094c-1.013,1.107-1.646,1.774-1.898,2.002h2.161c0.439,0,0.748-0.016,0.924-0.049
			c0.177-0.032,0.337-0.099,0.479-0.198c0.143-0.1,0.267-0.241,0.373-0.424H28.358z"/>
		<path style="fill:#005CA9;" d="M34.303,23.305l-0.476,1.038h-2.49l-0.543,1.11c1.078,0.159,1.933,0.56,2.563,1.202
			c0.541,0.554,0.812,1.205,0.812,1.953c0,0.436-0.089,0.839-0.266,1.209c-0.177,0.37-0.4,0.686-0.668,0.945
			c-0.269,0.261-0.568,0.471-0.897,0.629c-0.468,0.224-0.948,0.336-1.44,0.336c-0.497,0-0.858-0.085-1.083-0.253
			c-0.226-0.169-0.339-0.355-0.339-0.559c0-0.114,0.047-0.215,0.14-0.303c0.094-0.087,0.212-0.131,0.354-0.131
			c0.105,0,0.198,0.017,0.277,0.049c0.08,0.032,0.215,0.116,0.406,0.25c0.305,0.212,0.614,0.317,0.928,0.317
			c0.476,0,0.894-0.18,1.254-0.54c0.36-0.36,0.54-0.799,0.54-1.315c0-0.5-0.161-0.967-0.482-1.4s-0.765-0.769-1.331-1.004
			c-0.443-0.184-1.048-0.289-1.812-0.317l1.587-3.217H34.303z"/>
	</g>
	<g>
		<path style="fill:#005CA9;" d="M54.781,9.609c-0.655-0.537-1.077-0.968-1.266-1.294c-0.189-0.325-0.284-0.663-0.284-1.013
			c0-0.537,0.207-1,0.622-1.389s0.967-0.583,1.654-0.583c0.667,0,1.205,0.181,1.611,0.543c0.407,0.362,0.61,0.775,0.61,1.239
			c0,0.309-0.11,0.625-0.33,0.946c-0.22,0.321-0.677,0.7-1.374,1.135c0.716,0.554,1.19,0.989,1.422,1.307
			c0.309,0.415,0.464,0.852,0.464,1.312c0,0.582-0.222,1.08-0.666,1.492c-0.443,0.413-1.025,0.62-1.745,0.62
			c-0.786,0-1.398-0.246-1.837-0.738c-0.35-0.395-0.525-0.826-0.525-1.294c0-0.366,0.123-0.729,0.369-1.09
			C53.755,10.443,54.179,10.045,54.781,9.609z M55.068,9.842c-0.338,0.285-0.588,0.595-0.751,0.931
			c-0.163,0.335-0.244,0.699-0.244,1.089c0,0.525,0.144,0.945,0.431,1.26c0.287,0.315,0.652,0.473,1.096,0.473
			c0.439,0,0.791-0.124,1.056-0.373c0.265-0.248,0.396-0.549,0.396-0.903c0-0.293-0.077-0.555-0.231-0.787
			C56.531,11.101,55.947,10.537,55.068,9.842z M55.74,8.957c0.488-0.439,0.797-0.786,0.928-1.041s0.195-0.542,0.195-0.864
			c0-0.427-0.12-0.762-0.36-1.004c-0.24-0.242-0.568-0.363-0.983-0.363s-0.753,0.12-1.013,0.36c-0.26,0.24-0.391,0.521-0.391,0.843
			c0,0.211,0.054,0.423,0.162,0.635c0.108,0.211,0.262,0.413,0.461,0.604L55.74,8.957z"/>
	</g>
	<g>
		<path style="fill:#005CA9;" d="M50.332,24.116l2.014-0.982h0.202v6.988c0,0.464,0.019,0.753,0.058,0.867
			c0.039,0.113,0.119,0.201,0.241,0.262c0.122,0.062,0.37,0.096,0.745,0.104v0.226h-3.113v-0.226
			c0.391-0.009,0.643-0.042,0.757-0.101c0.114-0.06,0.193-0.139,0.238-0.238c0.044-0.1,0.067-0.397,0.067-0.895v-4.468
			c0-0.602-0.021-0.988-0.061-1.159c-0.028-0.131-0.081-0.227-0.156-0.287s-0.166-0.092-0.271-0.092c-0.15,0-0.36,0.063-0.628,0.189
			L50.332,24.116z"/>
		<path style="fill:#005CA9;" d="M60.543,23.305l-0.476,1.038h-2.49l-0.543,1.11c1.078,0.159,1.933,0.56,2.563,1.202
			c0.541,0.554,0.812,1.205,0.812,1.953c0,0.436-0.089,0.839-0.266,1.209c-0.177,0.37-0.4,0.686-0.668,0.945
			c-0.269,0.261-0.568,0.471-0.897,0.629c-0.468,0.224-0.948,0.336-1.44,0.336c-0.497,0-0.858-0.085-1.083-0.253
			c-0.226-0.169-0.339-0.355-0.339-0.559c0-0.114,0.047-0.215,0.14-0.303c0.094-0.087,0.212-0.131,0.354-0.131
			c0.105,0,0.198,0.017,0.277,0.049c0.08,0.032,0.215,0.116,0.406,0.25c0.305,0.212,0.614,0.317,0.928,0.317
			c0.476,0,0.894-0.18,1.254-0.54c0.36-0.36,0.54-0.799,0.54-1.315c0-0.5-0.161-0.967-0.482-1.4s-0.765-0.769-1.331-1.004
			c-0.443-0.184-1.048-0.289-1.812-0.317l1.587-3.217H60.543z"/>
	</g>
	<g>
		<path style="fill:#005CA9;" d="M74.872,12.186l-0.58,1.593h-4.883v-0.226c1.437-1.311,2.447-2.381,3.033-3.211
			s0.879-1.589,0.879-2.276c0-0.525-0.161-0.956-0.482-1.294s-0.706-0.507-1.154-0.507c-0.407,0-0.772,0.119-1.095,0.357
			c-0.324,0.238-0.562,0.587-0.717,1.047h-0.226c0.102-0.753,0.363-1.331,0.784-1.733c0.421-0.403,0.947-0.604,1.578-0.604
			c0.671,0,1.232,0.216,1.682,0.647c0.449,0.431,0.674,0.94,0.674,1.526c0,0.419-0.098,0.838-0.293,1.257
			c-0.301,0.659-0.79,1.357-1.465,2.093c-1.013,1.107-1.646,1.774-1.898,2.002h2.161c0.439,0,0.748-0.016,0.924-0.049
			c0.177-0.032,0.337-0.098,0.479-0.198c0.143-0.1,0.267-0.241,0.373-0.424H74.872z"/>
		<path style="fill:#005CA9;" d="M80.816,5.502L80.341,6.54h-2.49L77.307,7.65c1.078,0.159,1.933,0.56,2.563,1.202
			c0.541,0.554,0.812,1.205,0.812,1.953c0,0.436-0.089,0.838-0.266,1.209c-0.177,0.37-0.4,0.686-0.668,0.946
			s-0.568,0.47-0.897,0.628c-0.468,0.224-0.948,0.336-1.44,0.336c-0.497,0-0.858-0.084-1.083-0.253
			c-0.226-0.168-0.339-0.355-0.339-0.558c0-0.114,0.047-0.215,0.14-0.302c0.094-0.087,0.212-0.131,0.354-0.131
			c0.105,0,0.198,0.016,0.277,0.049c0.08,0.033,0.215,0.116,0.406,0.25c0.305,0.212,0.614,0.317,0.928,0.317
			c0.476,0,0.894-0.18,1.254-0.54c0.36-0.36,0.54-0.798,0.54-1.315c0-0.5-0.161-0.967-0.482-1.4
			c-0.321-0.434-0.765-0.768-1.331-1.004c-0.443-0.184-1.048-0.289-1.812-0.317l1.587-3.217H80.816z"/>
	</g>
	<g>
		<path style="fill:#005CA9;" d="M77.975,28.529v0.866h-1.11v2.186h-1.007v-2.186h-3.503v-0.781l3.839-5.48h0.672v5.396H77.975z
			 M75.857,28.529v-4.107l-2.905,4.107H75.857z"/>
	</g>
	<g>
		<path style="fill:#005CA9;" d="M98.58,9.609c-0.655-0.537-1.077-0.968-1.266-1.294C97.125,7.99,97.03,7.652,97.03,7.303
			c0-0.537,0.207-1,0.622-1.389s0.967-0.583,1.654-0.583c0.667,0,1.205,0.181,1.611,0.543c0.407,0.362,0.61,0.775,0.61,1.239
			c0,0.309-0.11,0.625-0.33,0.946c-0.22,0.321-0.677,0.7-1.374,1.135c0.716,0.554,1.19,0.989,1.422,1.307
			c0.309,0.415,0.464,0.852,0.464,1.312c0,0.582-0.222,1.08-0.666,1.492c-0.443,0.413-1.025,0.62-1.745,0.62
			c-0.786,0-1.398-0.246-1.837-0.738c-0.35-0.395-0.525-0.826-0.525-1.294c0-0.366,0.123-0.729,0.369-1.09
			C97.554,10.443,97.978,10.045,98.58,9.609z M98.867,9.842c-0.338,0.285-0.588,0.595-0.751,0.931
			c-0.163,0.335-0.244,0.699-0.244,1.089c0,0.525,0.144,0.945,0.431,1.26c0.287,0.315,0.652,0.473,1.096,0.473
			c0.439,0,0.791-0.124,1.056-0.373c0.265-0.248,0.396-0.549,0.396-0.903c0-0.293-0.077-0.555-0.231-0.787
			C100.33,11.101,99.746,10.537,98.867,9.842z M99.539,8.957c0.488-0.439,0.797-0.786,0.928-1.041s0.195-0.542,0.195-0.864
			c0-0.427-0.12-0.762-0.36-1.004c-0.24-0.242-0.568-0.363-0.983-0.363s-0.753,0.12-1.013,0.36c-0.26,0.24-0.391,0.521-0.391,0.843
			c0,0.211,0.054,0.423,0.162,0.635c0.108,0.211,0.262,0.413,0.461,0.604L99.539,8.957z"/>
		<path style="fill:#005CA9;" d="M113.988,12.186l-0.58,1.593h-4.883v-0.226c1.437-1.311,2.447-2.381,3.033-3.211
			s0.879-1.589,0.879-2.276c0-0.525-0.16-0.956-0.481-1.294c-0.322-0.338-0.706-0.507-1.154-0.507c-0.406,0-0.771,0.119-1.096,0.357
			c-0.323,0.238-0.562,0.587-0.717,1.047h-0.226c0.102-0.753,0.363-1.331,0.784-1.733c0.421-0.403,0.947-0.604,1.578-0.604
			c0.671,0,1.231,0.216,1.681,0.647c0.45,0.431,0.675,0.94,0.675,1.526c0,0.419-0.098,0.838-0.293,1.257
			c-0.301,0.659-0.789,1.357-1.465,2.093c-1.014,1.107-1.646,1.774-1.898,2.002h2.161c0.439,0,0.747-0.016,0.925-0.049
			c0.177-0.032,0.336-0.098,0.479-0.198c0.143-0.1,0.267-0.241,0.373-0.424H113.988z"/>
	</g>
	<g>
		<path style="fill:#005CA9;" d="M119.918,5.502l-0.476,1.038h-2.49l-0.544,1.111c1.079,0.159,1.934,0.56,2.564,1.202
			c0.541,0.554,0.812,1.205,0.812,1.953c0,0.436-0.089,0.838-0.266,1.209c-0.177,0.37-0.399,0.686-0.669,0.946
			c-0.268,0.26-0.567,0.47-0.896,0.628c-0.468,0.224-0.948,0.336-1.44,0.336c-0.497,0-0.857-0.084-1.084-0.253
			c-0.226-0.168-0.339-0.355-0.339-0.558c0-0.114,0.047-0.215,0.141-0.302s0.212-0.131,0.354-0.131c0.105,0,0.198,0.016,0.277,0.049
			s0.215,0.116,0.406,0.25c0.305,0.212,0.614,0.317,0.928,0.317c0.476,0,0.894-0.18,1.254-0.54c0.36-0.36,0.54-0.798,0.54-1.315
			c0-0.5-0.16-0.967-0.482-1.4c-0.321-0.434-0.765-0.768-1.33-1.004c-0.443-0.184-1.048-0.289-1.812-0.317l1.587-3.217H119.918z"/>
	</g>
	<g>
		<path style="fill:#005CA9;" d="M97.139,24.116l2.014-0.982h0.202v6.988c0,0.464,0.019,0.753,0.058,0.867
			c0.039,0.113,0.119,0.201,0.241,0.262c0.122,0.062,0.37,0.096,0.745,0.104v0.226h-3.113v-0.226
			c0.391-0.009,0.643-0.042,0.757-0.101c0.114-0.06,0.193-0.139,0.238-0.238c0.044-0.1,0.067-0.397,0.067-0.895v-4.468
			c0-0.602-0.021-0.988-0.061-1.159c-0.028-0.131-0.081-0.227-0.156-0.287s-0.166-0.092-0.271-0.092c-0.15,0-0.36,0.063-0.628,0.189
			L97.139,24.116z"/>
		<path style="fill:#005CA9;" d="M107.35,23.305l-0.476,1.038h-2.49l-0.543,1.11c1.078,0.159,1.933,0.56,2.563,1.202
			c0.541,0.554,0.812,1.205,0.812,1.953c0,0.436-0.089,0.839-0.266,1.209c-0.177,0.37-0.4,0.686-0.668,0.945
			c-0.269,0.261-0.568,0.471-0.897,0.629c-0.468,0.224-0.948,0.336-1.44,0.336c-0.497,0-0.858-0.085-1.083-0.253
			c-0.226-0.169-0.339-0.355-0.339-0.559c0-0.114,0.047-0.215,0.14-0.303c0.094-0.087,0.212-0.131,0.354-0.131
			c0.105,0,0.198,0.017,0.277,0.049c0.08,0.032,0.215,0.116,0.406,0.25c0.305,0.212,0.614,0.317,0.928,0.317
			c0.476,0,0.894-0.18,1.254-0.54c0.36-0.36,0.54-0.799,0.54-1.315c0-0.5-0.161-0.967-0.482-1.4s-0.765-0.769-1.331-1.004
			c-0.443-0.184-1.048-0.289-1.812-0.317l1.587-3.217H107.35z"/>
	</g>
	<g>
		<path style="fill:#005CA9;" d="M119.801,28.529v0.866h-1.11v2.186h-1.007v-2.186h-3.504v-0.781l3.839-5.48h0.672v5.396H119.801z
			 M117.684,28.529v-4.107l-2.906,4.107H117.684z"/>
	</g>
	<g>
		<path style="fill:#005CA9;" d="M137.985,9.609c-0.655-0.537-1.077-0.968-1.267-1.294c-0.188-0.325-0.283-0.663-0.283-1.013
			c0-0.537,0.207-1,0.622-1.389s0.967-0.583,1.654-0.583c0.667,0,1.204,0.181,1.611,0.543c0.407,0.362,0.61,0.775,0.61,1.239
			c0,0.309-0.11,0.625-0.329,0.946c-0.221,0.321-0.678,0.7-1.374,1.135c0.717,0.554,1.19,0.989,1.423,1.307
			c0.309,0.415,0.463,0.852,0.463,1.312c0,0.582-0.222,1.08-0.665,1.492c-0.443,0.413-1.025,0.62-1.745,0.62
			c-0.785,0-1.398-0.246-1.838-0.738c-0.35-0.395-0.524-0.826-0.524-1.294c0-0.366,0.123-0.729,0.369-1.09
			C136.958,10.443,137.383,10.045,137.985,9.609z M138.272,9.842c-0.338,0.285-0.588,0.595-0.751,0.931
			c-0.162,0.335-0.244,0.699-0.244,1.089c0,0.525,0.144,0.945,0.431,1.26c0.287,0.315,0.652,0.473,1.096,0.473
			c0.439,0,0.791-0.124,1.056-0.373c0.265-0.248,0.396-0.549,0.396-0.903c0-0.293-0.077-0.555-0.231-0.787
			C139.735,11.101,139.151,10.537,138.272,9.842z M138.944,8.957c0.488-0.439,0.797-0.786,0.928-1.041
			c0.13-0.254,0.195-0.542,0.195-0.864c0-0.427-0.12-0.762-0.36-1.004s-0.567-0.363-0.983-0.363c-0.414,0-0.752,0.12-1.013,0.36
			c-0.261,0.24-0.391,0.521-0.391,0.843c0,0.211,0.054,0.423,0.162,0.635c0.107,0.211,0.261,0.413,0.46,0.604L138.944,8.957z"/>
		<path style="fill:#005CA9;" d="M152.687,5.502l-0.476,1.038h-2.49l-0.544,1.111c1.079,0.159,1.934,0.56,2.564,1.202
			c0.541,0.554,0.812,1.205,0.812,1.953c0,0.436-0.089,0.838-0.266,1.209c-0.177,0.37-0.399,0.686-0.669,0.946
			c-0.268,0.26-0.567,0.47-0.896,0.628c-0.468,0.224-0.948,0.336-1.44,0.336c-0.497,0-0.857-0.084-1.084-0.253
			c-0.226-0.168-0.339-0.355-0.339-0.558c0-0.114,0.047-0.215,0.141-0.302s0.212-0.131,0.354-0.131c0.105,0,0.198,0.016,0.277,0.049
			s0.215,0.116,0.406,0.25c0.305,0.212,0.614,0.317,0.928,0.317c0.476,0,0.894-0.18,1.254-0.54c0.36-0.36,0.54-0.798,0.54-1.315
			c0-0.5-0.16-0.967-0.482-1.4c-0.321-0.434-0.765-0.768-1.33-1.004c-0.443-0.184-1.048-0.289-1.812-0.317l1.587-3.217H152.687z"/>
	</g>
	<g>
		<path style="fill:#005CA9;" d="M136.104,24.88c0.236-0.558,0.534-0.988,0.895-1.291c0.359-0.304,0.809-0.455,1.346-0.455
			c0.663,0,1.172,0.216,1.525,0.646c0.269,0.322,0.403,0.666,0.403,1.032c0,0.602-0.379,1.225-1.136,1.867
			c0.509,0.199,0.894,0.484,1.154,0.854c0.26,0.37,0.391,0.806,0.391,1.307c0,0.716-0.229,1.336-0.684,1.861
			c-0.595,0.684-1.455,1.025-2.582,1.025c-0.558,0-0.938-0.069-1.139-0.207c-0.201-0.139-0.302-0.287-0.302-0.446
			c0-0.118,0.048-0.222,0.144-0.312c0.095-0.089,0.21-0.134,0.345-0.134c0.102,0,0.205,0.017,0.312,0.049
			c0.068,0.021,0.226,0.095,0.47,0.223s0.413,0.204,0.507,0.229c0.15,0.044,0.311,0.066,0.481,0.066c0.415,0,0.776-0.16,1.084-0.482
			c0.307-0.321,0.46-0.701,0.46-1.141c0-0.321-0.07-0.635-0.213-0.94c-0.106-0.228-0.222-0.4-0.348-0.519
			c-0.176-0.163-0.416-0.311-0.721-0.442s-0.616-0.198-0.934-0.198h-0.195V27.29c0.321-0.04,0.644-0.156,0.967-0.348
			c0.324-0.191,0.559-0.421,0.705-0.689s0.22-0.563,0.22-0.885c0-0.42-0.131-0.758-0.394-1.017s-0.589-0.388-0.979-0.388
			c-0.631,0-1.157,0.338-1.581,1.014L136.104,24.88z"/>
		<path style="fill:#005CA9;" d="M153.161,28.529v0.866h-1.11v2.186h-1.007v-2.186h-3.504v-0.781l3.839-5.48h0.672v5.396H153.161z
			 M151.043,28.529v-4.107l-2.906,4.107H151.043z"/>
	</g>
	<g>
		<path style="fill:#005CA9;" d="M174.648,12.186l-0.58,1.593h-4.883v-0.226c1.437-1.311,2.447-2.381,3.033-3.211
			s0.879-1.589,0.879-2.276c0-0.525-0.16-0.956-0.481-1.294c-0.322-0.338-0.706-0.507-1.154-0.507c-0.406,0-0.771,0.119-1.096,0.357
			c-0.323,0.238-0.562,0.587-0.717,1.047h-0.226c0.102-0.753,0.363-1.331,0.784-1.733c0.421-0.403,0.947-0.604,1.578-0.604
			c0.671,0,1.231,0.216,1.681,0.647c0.45,0.431,0.675,0.94,0.675,1.526c0,0.419-0.098,0.838-0.293,1.257
			c-0.301,0.659-0.789,1.357-1.465,2.093c-1.014,1.107-1.646,1.774-1.898,2.002h2.161c0.439,0,0.747-0.016,0.925-0.049
			c0.177-0.032,0.336-0.098,0.479-0.198c0.143-0.1,0.267-0.241,0.373-0.424H174.648z"/>
		<path style="fill:#005CA9;" d="M186.217,5.502l-0.476,1.038h-2.49l-0.544,1.111c1.079,0.159,1.934,0.56,2.564,1.202
			c0.541,0.554,0.812,1.205,0.812,1.953c0,0.436-0.089,0.838-0.266,1.209c-0.177,0.37-0.399,0.686-0.669,0.946
			c-0.268,0.26-0.567,0.47-0.896,0.628c-0.468,0.224-0.948,0.336-1.44,0.336c-0.497,0-0.857-0.084-1.084-0.253
			c-0.226-0.168-0.339-0.355-0.339-0.558c0-0.114,0.047-0.215,0.141-0.302s0.212-0.131,0.354-0.131c0.105,0,0.198,0.016,0.277,0.049
			s0.215,0.116,0.406,0.25c0.305,0.212,0.614,0.317,0.928,0.317c0.476,0,0.894-0.18,1.254-0.54c0.36-0.36,0.54-0.798,0.54-1.315
			c0-0.5-0.16-0.967-0.482-1.4c-0.321-0.434-0.765-0.768-1.33-1.004c-0.443-0.184-1.048-0.289-1.812-0.317l1.587-3.217H186.217z"/>
	</g>
	<g>
		<path style="fill:#005CA9;" d="M170.401,24.88c0.236-0.558,0.534-0.988,0.895-1.291c0.359-0.304,0.809-0.455,1.346-0.455
			c0.663,0,1.172,0.216,1.525,0.646c0.269,0.322,0.403,0.666,0.403,1.032c0,0.602-0.379,1.225-1.136,1.867
			c0.509,0.199,0.894,0.484,1.154,0.854c0.26,0.37,0.391,0.806,0.391,1.307c0,0.716-0.229,1.336-0.684,1.861
			c-0.595,0.684-1.455,1.025-2.582,1.025c-0.558,0-0.938-0.069-1.139-0.207c-0.201-0.139-0.302-0.287-0.302-0.446
			c0-0.118,0.048-0.222,0.144-0.312c0.095-0.089,0.21-0.134,0.345-0.134c0.102,0,0.205,0.017,0.312,0.049
			c0.068,0.021,0.226,0.095,0.47,0.223s0.413,0.204,0.507,0.229c0.15,0.044,0.311,0.066,0.481,0.066c0.415,0,0.776-0.16,1.084-0.482
			c0.307-0.321,0.46-0.701,0.46-1.141c0-0.321-0.07-0.635-0.213-0.94c-0.106-0.228-0.222-0.4-0.348-0.519
			c-0.176-0.163-0.416-0.311-0.721-0.442s-0.616-0.198-0.934-0.198h-0.195V27.29c0.321-0.04,0.644-0.156,0.967-0.348
			c0.324-0.191,0.559-0.421,0.705-0.689s0.22-0.563,0.22-0.885c0-0.42-0.131-0.758-0.394-1.017s-0.589-0.388-0.979-0.388
			c-0.631,0-1.157,0.338-1.581,1.014L170.401,24.88z"/>
		<path style="fill:#005CA9;" d="M181.744,24.116l2.014-0.982h0.202v6.988c0,0.464,0.019,0.753,0.058,0.867
			c0.039,0.113,0.119,0.201,0.241,0.262c0.122,0.062,0.37,0.096,0.745,0.104v0.226h-3.113v-0.226
			c0.391-0.009,0.643-0.042,0.757-0.101c0.114-0.06,0.193-0.139,0.238-0.238s0.067-0.397,0.067-0.895v-4.468
			c0-0.602-0.021-0.988-0.062-1.159c-0.028-0.131-0.08-0.227-0.155-0.287c-0.076-0.061-0.166-0.092-0.271-0.092
			c-0.151,0-0.36,0.063-0.629,0.189L181.744,24.116z"/>
	</g>
	<g>
		<path style="fill:#005CA9;" d="M202.247,6.313l2.014-0.982h0.202v6.988c0,0.464,0.019,0.753,0.058,0.867
			c0.039,0.114,0.119,0.201,0.241,0.262s0.37,0.096,0.745,0.104v0.226h-3.113v-0.226c0.391-0.008,0.643-0.042,0.757-0.101
			c0.114-0.059,0.193-0.138,0.238-0.238s0.067-0.398,0.067-0.895V7.852c0-0.602-0.021-0.988-0.062-1.159
			c-0.028-0.13-0.08-0.226-0.155-0.287c-0.076-0.061-0.166-0.092-0.271-0.092c-0.151,0-0.36,0.063-0.629,0.189L202.247,6.313z"/>
		<path style="fill:#005CA9;" d="M207.483,9.689c0-0.944,0.143-1.757,0.428-2.438c0.285-0.681,0.663-1.189,1.135-1.523
			c0.367-0.264,0.745-0.396,1.136-0.396c0.635,0,1.204,0.323,1.709,0.971c0.631,0.801,0.946,1.888,0.946,3.259
			c0,0.96-0.139,1.776-0.415,2.448c-0.277,0.671-0.63,1.159-1.06,1.462c-0.429,0.303-0.843,0.455-1.242,0.455
			c-0.789,0-1.446-0.466-1.971-1.397C207.706,11.742,207.483,10.796,207.483,9.689z M208.68,9.842c0,1.139,0.14,2.069,0.421,2.789
			c0.231,0.606,0.577,0.909,1.037,0.909c0.22,0,0.448-0.098,0.684-0.296c0.236-0.197,0.415-0.528,0.537-0.992
			c0.188-0.7,0.281-1.687,0.281-2.96c0-0.944-0.098-1.731-0.293-2.362c-0.146-0.468-0.336-0.799-0.567-0.995
			c-0.167-0.135-0.369-0.202-0.604-0.202c-0.277,0-0.523,0.124-0.739,0.373c-0.293,0.337-0.492,0.869-0.598,1.593
			S208.68,9.138,208.68,9.842z"/>
	</g>
	<g>
		<path style="fill:#005CA9;" d="M205.215,24.88c0.236-0.558,0.534-0.988,0.895-1.291c0.359-0.304,0.809-0.455,1.346-0.455
			c0.663,0,1.172,0.216,1.525,0.646c0.269,0.322,0.403,0.666,0.403,1.032c0,0.602-0.379,1.225-1.136,1.867
			c0.509,0.199,0.894,0.484,1.154,0.854c0.26,0.37,0.391,0.806,0.391,1.307c0,0.716-0.229,1.336-0.684,1.861
			c-0.595,0.684-1.455,1.025-2.582,1.025c-0.558,0-0.938-0.069-1.139-0.207c-0.201-0.139-0.302-0.287-0.302-0.446
			c0-0.118,0.048-0.222,0.144-0.312c0.095-0.089,0.21-0.134,0.345-0.134c0.102,0,0.205,0.017,0.312,0.049
			c0.068,0.021,0.226,0.095,0.47,0.223s0.413,0.204,0.507,0.229c0.15,0.044,0.311,0.066,0.481,0.066c0.415,0,0.776-0.16,1.084-0.482
			c0.307-0.321,0.46-0.701,0.46-1.141c0-0.321-0.07-0.635-0.213-0.94c-0.106-0.228-0.222-0.4-0.348-0.519
			c-0.176-0.163-0.416-0.311-0.721-0.442s-0.616-0.198-0.934-0.198h-0.195V27.29c0.321-0.04,0.644-0.156,0.967-0.348
			c0.324-0.191,0.559-0.421,0.705-0.689s0.22-0.563,0.22-0.885c0-0.42-0.131-0.758-0.394-1.017s-0.589-0.388-0.979-0.388
			c-0.631,0-1.157,0.338-1.581,1.014L205.215,24.88z"/>
	</g>
	<g>
		<path style="fill:#005CA9;" d="M19.021,13.263l-2.997,8.85h-0.488l2.997-8.85H19.021z"/>
	</g>
	<g>
		<path style="fill:#005CA9;" d="M45.203,18.592h-5.798v-0.849h5.798V18.592z M45.203,20.239h-5.798v-0.849h5.798V20.239z"/>
		<path style="fill:#005CA9;" d="M64.238,17.816c0-0.191,0.072-0.36,0.217-0.507s0.314-0.22,0.51-0.22
			c0.199,0,0.372,0.071,0.519,0.214s0.22,0.313,0.22,0.513c0,0.195-0.074,0.365-0.223,0.51s-0.32,0.217-0.516,0.217
			c-0.187,0-0.355-0.074-0.503-0.223C64.312,18.171,64.238,18.003,64.238,17.816z"/>
	</g>
	<g>
		<path style="fill:#005CA9;" d="M91.726,18.592h-5.798v-0.849h5.798V18.592z M91.726,20.239h-5.798v-0.849h5.798V20.239z"/>
	</g>
	<g>
		<path style="fill:#1F5DA5;" d="M104.322,9.652c0-0.191,0.072-0.36,0.217-0.507s0.314-0.22,0.51-0.22
			c0.199,0,0.372,0.071,0.519,0.214s0.22,0.313,0.22,0.513c0,0.195-0.074,0.365-0.223,0.51s-0.32,0.217-0.516,0.217
			c-0.187,0-0.355-0.074-0.503-0.223C104.396,10.007,104.322,9.839,104.322,9.652z"/>
	</g>
	<g>
		<path style="fill:#005CA9;" d="M110.055,27.455c0-0.191,0.072-0.36,0.217-0.507s0.314-0.22,0.51-0.22
			c0.199,0,0.372,0.071,0.519,0.214s0.22,0.313,0.22,0.513c0,0.195-0.074,0.365-0.223,0.51s-0.32,0.217-0.516,0.217
			c-0.188,0-0.355-0.074-0.504-0.223S110.055,27.643,110.055,27.455z"/>
	</g>
	<g>
		<path style="fill:#005CA9;" d="M130.838,18.592h-5.799v-0.849h5.799V18.592z M130.838,20.239h-5.799v-0.849h5.799V20.239z"/>
	</g>
	<g>
		<path style="fill:#1F5DA5;" d="M143.727,9.652c0-0.191,0.072-0.36,0.217-0.507s0.314-0.22,0.51-0.22
			c0.199,0,0.372,0.071,0.519,0.214s0.22,0.313,0.22,0.513c0,0.195-0.074,0.365-0.223,0.51s-0.32,0.217-0.516,0.217
			c-0.188,0-0.355-0.074-0.504-0.223C143.801,10.007,143.727,9.839,143.727,9.652z"/>
	</g>
	<g>
		<path style="fill:#1F5DA5;" d="M143.415,27.455c0-0.191,0.072-0.36,0.217-0.507s0.314-0.22,0.51-0.22
			c0.199,0,0.372,0.071,0.519,0.214s0.22,0.313,0.22,0.513c0,0.195-0.074,0.365-0.223,0.51s-0.32,0.217-0.516,0.217
			c-0.188,0-0.355-0.074-0.504-0.223S143.415,27.643,143.415,27.455z"/>
	</g>
	<g>
		<path style="fill:#005CA9;" d="M163.875,18.592h-5.799v-0.849h5.799V18.592z M163.875,20.239h-5.799v-0.849h5.799V20.239z"/>
	</g>
	<g>
		<path style="fill:#1F5DA5;" d="M177.243,9.652c0-0.191,0.072-0.36,0.217-0.507s0.314-0.22,0.51-0.22
			c0.199,0,0.372,0.071,0.519,0.214s0.22,0.313,0.22,0.513c0,0.195-0.074,0.365-0.223,0.51s-0.32,0.217-0.516,0.217
			c-0.188,0-0.355-0.074-0.504-0.223C177.317,10.007,177.243,9.839,177.243,9.652z"/>
	</g>
	<g>
		<path style="fill:#1F5DA5;" d="M177.711,27.455c0-0.191,0.072-0.36,0.217-0.507s0.314-0.22,0.51-0.22
			c0.199,0,0.372,0.071,0.519,0.214s0.22,0.313,0.22,0.513c0,0.195-0.074,0.365-0.223,0.51s-0.32,0.217-0.516,0.217
			c-0.188,0-0.355-0.074-0.504-0.223S177.711,27.643,177.711,27.455z"/>
	</g>
	<g>
		<path style="fill:#005CA9;" d="M197.127,18.592h-5.799v-0.849h5.799V18.592z M197.127,20.239h-5.799v-0.849h5.799V20.239z"/>
	</g>
</g>
<g>
	<path style="fill:#C51A1B;" d="M119.9,1.014l-0.229,0.498h-1.195l-0.261,0.533c0.518,0.076,0.928,0.269,1.23,0.577
		c0.26,0.266,0.39,0.578,0.39,0.938c0,0.209-0.042,0.402-0.128,0.58c-0.084,0.178-0.191,0.329-0.32,0.454s-0.272,0.226-0.431,0.302
		c-0.225,0.107-0.455,0.161-0.691,0.161c-0.238,0-0.411-0.041-0.521-0.121c-0.107-0.081-0.162-0.171-0.162-0.269
		c0-0.055,0.022-0.103,0.067-0.146c0.045-0.041,0.102-0.062,0.17-0.062c0.051,0,0.095,0.008,0.134,0.023
		c0.037,0.016,0.103,0.056,0.194,0.12c0.146,0.102,0.295,0.152,0.445,0.152c0.229,0,0.429-0.087,0.603-0.259
		c0.172-0.174,0.259-0.384,0.259-0.632c0-0.24-0.077-0.464-0.231-0.673c-0.154-0.207-0.367-0.368-0.639-0.481
		c-0.213-0.088-0.503-0.139-0.87-0.152l0.762-1.544H119.9z"/>
</g>
<line style="fill:none;stroke:#C51A1B;stroke-width:0.5;stroke-miterlimit:10;" x1="115.574" y1="7.466" x2="110.394" y2="15.822"/>
<line style="fill:none;stroke:#C51A1B;stroke-width:0.5;stroke-miterlimit:10;" x1="134.708" y1="7.466" x2="129.529" y2="15.822"/>
<g>
	<path style="fill:#C51A1B;" d="M136.487,4.363l-0.277,0.765h-2.344V5.02c0.689-0.629,1.174-1.143,1.455-1.541
		s0.422-0.763,0.422-1.093c0-0.252-0.076-0.459-0.23-0.621s-0.34-0.243-0.555-0.243c-0.195,0-0.37,0.058-0.525,0.171
		c-0.155,0.115-0.27,0.282-0.344,0.503h-0.109c0.049-0.361,0.175-0.639,0.377-0.832s0.455-0.29,0.758-0.29
		c0.322,0,0.591,0.104,0.807,0.311s0.324,0.451,0.324,0.732c0,0.201-0.047,0.402-0.141,0.604c-0.145,0.316-0.379,0.651-0.703,1.005
		c-0.486,0.531-0.791,0.852-0.912,0.961h1.037c0.211,0,0.359-0.008,0.444-0.023s0.161-0.047,0.229-0.095s0.129-0.116,0.18-0.204
		H136.487z"/>
</g>
<g>
	<path style="fill:#C51A1B;" d="M107.354,31.263c0.113-0.268,0.256-0.474,0.429-0.619s0.389-0.219,0.646-0.219
		c0.318,0,0.562,0.104,0.732,0.311c0.129,0.154,0.193,0.319,0.193,0.495c0,0.289-0.182,0.588-0.545,0.896
		c0.244,0.096,0.428,0.232,0.553,0.41s0.188,0.387,0.188,0.627c0,0.344-0.109,0.642-0.328,0.894
		c-0.285,0.328-0.697,0.492-1.238,0.492c-0.268,0-0.45-0.033-0.547-0.1s-0.145-0.138-0.145-0.214c0-0.057,0.023-0.106,0.069-0.149
		s0.102-0.064,0.166-0.064c0.049,0,0.098,0.008,0.148,0.023c0.033,0.01,0.109,0.045,0.227,0.107
		c0.117,0.061,0.197,0.098,0.242,0.109c0.072,0.021,0.15,0.032,0.232,0.032c0.199,0,0.372-0.077,0.52-0.231s0.221-0.337,0.221-0.548
		c0-0.154-0.033-0.305-0.102-0.451c-0.051-0.109-0.107-0.192-0.168-0.249c-0.084-0.078-0.199-0.148-0.346-0.213
		c-0.146-0.062-0.295-0.095-0.447-0.095h-0.094V32.42c0.154-0.02,0.309-0.075,0.464-0.167s0.269-0.202,0.339-0.331
		s0.105-0.271,0.105-0.425c0-0.201-0.063-0.363-0.189-0.488c-0.126-0.123-0.283-0.186-0.471-0.186c-0.303,0-0.555,0.162-0.758,0.486
		L107.354,31.263z"/>
</g>
<line style="fill:none;stroke:#C51A1B;stroke-width:0.5;stroke-miterlimit:10;" x1="105.454" y1="21.234" x2="100.271" y2="29.594"/>
<g>
	<path style="fill:#C51A1B;" d="M146.446,30.896l0.967-0.472h0.097v3.354c0,0.223,0.009,0.361,0.028,0.416
		c0.018,0.055,0.057,0.097,0.115,0.126s0.178,0.046,0.357,0.05v0.108h-1.494v-0.108c0.188-0.004,0.309-0.02,0.363-0.048
		s0.093-0.066,0.114-0.115c0.021-0.047,0.032-0.19,0.032-0.429v-2.145c0-0.289-0.01-0.475-0.029-0.557
		c-0.014-0.062-0.039-0.108-0.074-0.138c-0.037-0.029-0.08-0.044-0.131-0.044c-0.072,0-0.173,0.03-0.302,0.091L146.446,30.896z"/>
</g>
<line style="fill:none;stroke:#C51A1B;stroke-width:0.5;stroke-miterlimit:10;" x1="144.142" y1="21.234" x2="138.963" y2="29.594"/>
<g id="theGroup">
</g>
</svg>
