<?xml version="1.0" encoding="iso-8859-1"?>
<!-- Generator: Adobe Illustrator 16.0.0, SVG Export Plug-In . SVG Version: 6.00 Build 0)  -->
<!DOCTYPE svg PUBLIC "-//W3C//DTD SVG 1.1//EN" "http://www.w3.org/Graphics/SVG/1.1/DTD/svg11.dtd">
<svg version="1.1" id="Lager_1" xmlns="http://www.w3.org/2000/svg" xmlns:xlink="http://www.w3.org/1999/xlink" x="0px" y="0px"
	 width="35.086px" height="32.044px" viewBox="0 0 35.086 32.044" style="enable-background:new 0 0 35.086 32.044;"
	 xml:space="preserve">
<g>
	
		<line style="fill:none;stroke:#000000;stroke-width:0.5;stroke-linecap:square;stroke-miterlimit:10;" x1="0.25" y1="15.242" x2="7.672" y2="15.242"/>
	
		<line style="fill:none;stroke:#000000;stroke-width:0.5;stroke-linecap:square;stroke-miterlimit:10;" x1="21.812" y1="15.242" x2="34.508" y2="15.242"/>
	<g>
		<path d="M6.753,8.796l-0.58,1.593H1.29v-0.226c1.437-1.311,2.447-2.381,3.033-3.211s0.879-1.589,0.879-2.276
			c0-0.525-0.161-0.956-0.482-1.294S4.014,2.875,3.566,2.875c-0.407,0-0.772,0.119-1.096,0.357C2.147,3.47,1.908,3.819,1.754,4.279
			H1.528C1.63,3.526,1.891,2.948,2.312,2.546C2.733,2.143,3.259,1.941,3.89,1.941c0.672,0,1.232,0.216,1.682,0.646
			c0.449,0.432,0.675,0.94,0.675,1.526c0,0.419-0.098,0.838-0.293,1.257C5.651,6.03,5.163,6.729,4.488,7.465
			C3.475,8.571,2.842,9.239,2.59,9.467h2.161c0.439,0,0.747-0.017,0.924-0.049C5.853,9.386,6.012,9.319,6.154,9.22
			s0.267-0.241,0.372-0.424H6.753z"/>
		<path d="M30.725,1.941v0.226c-0.537,0.053-0.977,0.16-1.315,0.32c-0.34,0.161-0.676,0.406-1.008,0.735
			c-0.331,0.33-0.606,0.697-0.823,1.102c-0.218,0.405-0.4,0.887-0.547,1.444c0.586-0.403,1.174-0.604,1.764-0.604
			c0.566,0,1.057,0.228,1.472,0.684c0.415,0.455,0.622,1.041,0.622,1.758c0,0.691-0.209,1.322-0.629,1.892
			c-0.504,0.692-1.172,1.038-2.002,1.038c-0.565,0-1.045-0.188-1.439-0.562c-0.773-0.729-1.16-1.673-1.16-2.832
			c0-0.741,0.148-1.444,0.445-2.112c0.297-0.667,0.722-1.259,1.272-1.775c0.552-0.518,1.08-0.865,1.584-1.044
			c0.505-0.18,0.975-0.269,1.41-0.269H30.725z M26.928,6.214c-0.073,0.549-0.109,0.992-0.109,1.33c0,0.391,0.071,0.815,0.216,1.272
			c0.145,0.458,0.359,0.821,0.645,1.09c0.207,0.191,0.46,0.287,0.757,0.287c0.354,0,0.67-0.167,0.949-0.501
			c0.278-0.333,0.418-0.81,0.418-1.428c0-0.696-0.139-1.298-0.415-1.807c-0.277-0.509-0.67-0.763-1.179-0.763
			c-0.154,0-0.32,0.032-0.497,0.098C27.535,5.857,27.273,5.998,26.928,6.214z"/>
	</g>
	<g>
		<path d="M2.093,19.935H6.53v0.231l-2.759,8.216H3.088L5.56,20.93H3.283c-0.46,0-0.787,0.055-0.982,0.164
			c-0.342,0.188-0.616,0.477-0.824,0.867L1.3,21.894L2.093,19.935z"/>
		<path d="M28.317,26.618l-0.58,1.593h-4.883v-0.226c1.437-1.311,2.447-2.381,3.033-3.211s0.879-1.589,0.879-2.276
			c0-0.525-0.16-0.956-0.481-1.294c-0.322-0.338-0.706-0.507-1.154-0.507c-0.406,0-0.771,0.119-1.096,0.357
			c-0.323,0.238-0.562,0.587-0.717,1.047h-0.226c0.102-0.753,0.363-1.331,0.784-1.733c0.421-0.403,0.947-0.604,1.578-0.604
			c0.671,0,1.231,0.216,1.681,0.646c0.45,0.432,0.675,0.94,0.675,1.526c0,0.419-0.098,0.838-0.293,1.257
			c-0.301,0.66-0.789,1.357-1.465,2.094c-1.014,1.107-1.646,1.774-1.898,2.002h2.161c0.439,0,0.747-0.016,0.925-0.049
			c0.177-0.032,0.336-0.099,0.479-0.198s0.267-0.241,0.373-0.424H28.317z"/>
		<path d="M30.301,20.746l2.014-0.982h0.202v6.988c0,0.464,0.019,0.753,0.058,0.867c0.039,0.113,0.119,0.201,0.241,0.262
			c0.122,0.062,0.37,0.096,0.745,0.104v0.226h-3.113v-0.226c0.391-0.009,0.643-0.042,0.757-0.101
			c0.114-0.06,0.193-0.139,0.238-0.238s0.067-0.397,0.067-0.895v-4.468c0-0.602-0.021-0.988-0.062-1.159
			c-0.028-0.131-0.08-0.227-0.155-0.287c-0.076-0.061-0.166-0.092-0.271-0.092c-0.151,0-0.36,0.063-0.629,0.189L30.301,20.746z"/>
	</g>
	<g>
		<path d="M11.452,13.939h6.409v0.593h-6.409V13.939z M11.452,16.217h6.409v0.604h-6.409V16.217z"/>
	</g>
</g>
<g id="theGroup">
</g>
</svg>
