<?xml version="1.0" encoding="iso-8859-1"?>
<!-- Generator: Adobe Illustrator 16.0.0, SVG Export Plug-In . SVG Version: 6.00 Build 0)  -->
<!DOCTYPE svg PUBLIC "-//W3C//DTD SVG 1.1//EN" "http://www.w3.org/Graphics/SVG/1.1/DTD/svg11.dtd">
<svg version="1.1" id="Lager_1" xmlns="http://www.w3.org/2000/svg" xmlns:xlink="http://www.w3.org/1999/xlink" x="0px" y="0px"
	 width="44.076px" height="65.677px" viewBox="0 0 44.076 65.677" style="enable-background:new 0 0 44.076 65.677;"
	 xml:space="preserve">
<g>
	
		<line style="fill:none;stroke:#0066FF;stroke-width:0.5;stroke-linecap:square;stroke-miterlimit:10;" x1="0.25" y1="15.242" x2="7.672" y2="15.242"/>
	
		<line style="fill:none;stroke:#0066FF;stroke-width:0.5;stroke-linecap:square;stroke-miterlimit:10;" x1="0.25" y1="48.875" x2="7.672" y2="48.875"/>
	<g>
		<path style="fill:#0066FF;" d="M2.083,2.112h4.437v0.232l-2.759,8.215H3.078L5.55,3.107H3.273c-0.459,0-0.787,0.055-0.982,0.165
			C1.949,3.458,1.675,3.748,1.467,4.138L1.29,4.071L2.083,2.112z"/>
	</g>
	<g>
		<path style="fill:#0066FF;" d="M21.705,11.107l2.014-0.982h0.202v6.988c0,0.464,0.019,0.753,0.058,0.867
			c0.039,0.114,0.119,0.201,0.241,0.262s0.37,0.096,0.745,0.104v0.226h-3.113v-0.226c0.391-0.008,0.643-0.042,0.757-0.101
			c0.114-0.059,0.193-0.138,0.238-0.238c0.044-0.1,0.067-0.398,0.067-0.895v-4.468c0-0.602-0.021-0.988-0.061-1.159
			c-0.028-0.13-0.081-0.226-0.156-0.287s-0.166-0.092-0.271-0.092c-0.15,0-0.36,0.063-0.628,0.189L21.705,11.107z"/>
		<path style="fill:#0066FF;" d="M26,20.653v-0.269c0.419-0.138,0.743-0.353,0.973-0.644c0.23-0.291,0.346-0.599,0.346-0.925
			c0-0.077-0.019-0.143-0.056-0.195c-0.028-0.037-0.057-0.055-0.085-0.055c-0.045,0-0.143,0.041-0.293,0.122
			c-0.073,0.036-0.15,0.055-0.232,0.055c-0.199,0-0.357-0.059-0.476-0.177C26.059,18.448,26,18.285,26,18.078
			c0-0.2,0.076-0.371,0.229-0.513c0.152-0.143,0.339-0.214,0.559-0.214c0.269,0,0.507,0.117,0.717,0.351s0.314,0.544,0.314,0.931
			c0,0.419-0.146,0.809-0.437,1.169C27.091,20.162,26.63,20.446,26,20.653z"/>
		<path style="fill:#0066FF;" d="M31.073,10.295h4.437v0.232l-2.759,8.215h-0.684l2.473-7.452h-2.277
			c-0.46,0-0.787,0.055-0.982,0.165c-0.342,0.187-0.616,0.476-0.824,0.867l-0.177-0.067L31.073,10.295z"/>
		<path style="fill:#0066FF;" d="M41.491,10.295l-0.476,1.038h-2.49l-0.544,1.111c1.079,0.159,1.934,0.56,2.564,1.202
			c0.541,0.554,0.812,1.205,0.812,1.953c0,0.436-0.089,0.838-0.266,1.209c-0.177,0.37-0.399,0.686-0.669,0.946
			c-0.268,0.26-0.567,0.47-0.896,0.628c-0.468,0.224-0.948,0.336-1.44,0.336c-0.497,0-0.857-0.084-1.084-0.253
			c-0.226-0.168-0.339-0.355-0.339-0.558c0-0.114,0.047-0.215,0.141-0.302s0.212-0.131,0.354-0.131c0.105,0,0.198,0.016,0.277,0.049
			s0.215,0.116,0.406,0.25c0.305,0.212,0.614,0.317,0.928,0.317c0.476,0,0.894-0.18,1.254-0.54c0.36-0.36,0.54-0.798,0.54-1.315
			c0-0.5-0.16-0.967-0.482-1.4c-0.321-0.434-0.765-0.768-1.33-1.004c-0.443-0.184-1.048-0.289-1.812-0.317l1.587-3.217H41.491z"/>
	</g>
	<g>
		<path style="fill:#0066FF;" d="M6.848,25.159v0.867h-1.11v2.185H4.73v-2.185H1.227v-0.781l3.839-5.481h0.672v5.396H6.848z
			 M4.73,25.159v-4.107l-2.905,4.107H4.73z"/>
	</g>
	<g>
		<path style="fill:#0066FF;" d="M6.848,40.979v0.866h-1.11v2.186H4.73v-2.186H1.227v-0.781l3.839-5.48h0.672v5.396H6.848z
			 M4.73,40.979v-4.107l-2.905,4.107H4.73z"/>
	</g>
	<g>
		<path style="fill:#0066FF;" d="M21.678,48.096c0-0.943,0.143-1.756,0.427-2.438s0.663-1.189,1.135-1.523
			c0.367-0.265,0.745-0.396,1.135-0.396c0.635,0,1.204,0.323,1.709,0.971c0.631,0.802,0.946,1.888,0.946,3.259
			c0,0.961-0.139,1.776-0.415,2.448c-0.277,0.671-0.63,1.158-1.06,1.461c-0.429,0.304-0.843,0.455-1.242,0.455
			c-0.789,0-1.446-0.466-1.971-1.397C21.9,50.149,21.678,49.203,21.678,48.096z M22.875,48.249c0,1.139,0.14,2.069,0.421,2.789
			c0.231,0.606,0.577,0.909,1.037,0.909c0.22,0,0.448-0.099,0.684-0.296c0.236-0.197,0.415-0.528,0.537-0.991
			c0.188-0.7,0.281-1.688,0.281-2.961c0-0.943-0.098-1.731-0.293-2.361c-0.146-0.469-0.336-0.8-0.567-0.995
			c-0.167-0.135-0.369-0.202-0.604-0.202c-0.276,0-0.522,0.125-0.739,0.373c-0.292,0.338-0.492,0.868-0.598,1.593
			S22.875,47.545,22.875,48.249z"/>
		<path style="fill:#0066FF;" d="M27.961,54.267v-0.269c0.419-0.138,0.743-0.353,0.973-0.644c0.23-0.291,0.346-0.6,0.346-0.925
			c0-0.077-0.019-0.143-0.056-0.195c-0.028-0.037-0.057-0.055-0.085-0.055c-0.045,0-0.143,0.04-0.293,0.122
			c-0.073,0.036-0.15,0.055-0.232,0.055c-0.199,0-0.357-0.059-0.476-0.177s-0.177-0.281-0.177-0.488c0-0.199,0.076-0.37,0.229-0.513
			s0.339-0.214,0.559-0.214c0.269,0,0.507,0.117,0.717,0.351c0.21,0.234,0.314,0.545,0.314,0.931c0,0.42-0.146,0.81-0.437,1.169
			C29.052,53.775,28.591,54.06,27.961,54.267z"/>
		<path style="fill:#0066FF;" d="M37.002,43.909l-0.476,1.038h-2.49l-0.544,1.11c1.079,0.159,1.934,0.56,2.564,1.202
			c0.541,0.554,0.812,1.205,0.812,1.953c0,0.436-0.089,0.839-0.266,1.209s-0.399,0.686-0.669,0.945
			c-0.268,0.261-0.567,0.471-0.896,0.629c-0.468,0.224-0.948,0.336-1.44,0.336c-0.497,0-0.857-0.085-1.084-0.253
			c-0.226-0.169-0.339-0.355-0.339-0.559c0-0.114,0.047-0.215,0.141-0.303c0.094-0.087,0.212-0.131,0.354-0.131
			c0.105,0,0.198,0.017,0.277,0.049s0.215,0.116,0.406,0.25c0.305,0.212,0.614,0.317,0.928,0.317c0.476,0,0.894-0.18,1.254-0.54
			s0.54-0.799,0.54-1.315c0-0.5-0.16-0.967-0.482-1.4c-0.321-0.434-0.765-0.769-1.33-1.004c-0.443-0.184-1.048-0.289-1.812-0.317
			l1.587-3.217H37.002z"/>
		<path style="fill:#0066FF;" d="M39.084,43.909h4.437v0.231l-2.759,8.216h-0.684l2.473-7.452h-2.277
			c-0.46,0-0.787,0.055-0.982,0.164c-0.342,0.188-0.616,0.477-0.824,0.867l-0.177-0.067L39.084,43.909z"/>
	</g>
	<g>
		<path style="fill:#0066FF;" d="M2.083,53.567h4.437v0.231l-2.759,8.216H3.078l2.472-7.452H3.273c-0.459,0-0.787,0.055-0.982,0.164
			c-0.342,0.188-0.616,0.477-0.824,0.867L1.29,55.526L2.083,53.567z"/>
	</g>
	<g>
		<path style="fill:#0066FF;" d="M11.452,13.939h6.409v0.592h-6.409V13.939z M11.452,16.216h6.409v0.604h-6.409V16.216z"/>
	</g>
	<g>
		<path style="fill:#0066FF;" d="M17.471,46.845h0.305c-0.081,0.663-0.282,1.156-0.601,1.478s-0.693,0.482-1.12,0.482
			c-0.2,0-0.429-0.044-0.687-0.132c-0.258-0.087-0.659-0.284-1.202-0.589c-0.543-0.305-0.961-0.458-1.254-0.458
			c-0.269,0-0.503,0.097-0.705,0.29c-0.201,0.193-0.329,0.476-0.381,0.846h-0.281c0.077-0.659,0.274-1.15,0.592-1.475
			c0.317-0.323,0.678-0.484,1.081-0.484c0.199,0,0.448,0.049,0.745,0.146c0.216,0.072,0.641,0.278,1.275,0.616
			c0.48,0.256,0.873,0.384,1.178,0.384c0.26,0,0.474-0.081,0.641-0.244C17.275,47.494,17.414,47.207,17.471,46.845z M17.471,49.207
			h0.305c-0.081,0.663-0.282,1.156-0.601,1.48c-0.319,0.323-0.693,0.484-1.12,0.484c-0.2,0-0.429-0.044-0.687-0.134
			s-0.659-0.287-1.202-0.592c-0.543-0.306-0.961-0.458-1.254-0.458c-0.269,0-0.503,0.097-0.705,0.29
			c-0.201,0.193-0.329,0.477-0.381,0.852h-0.281c0.077-0.659,0.274-1.15,0.592-1.475c0.317-0.323,0.678-0.485,1.081-0.485
			c0.199,0,0.448,0.049,0.745,0.146c0.216,0.074,0.641,0.279,1.275,0.617c0.48,0.256,0.873,0.385,1.178,0.385
			c0.26,0,0.474-0.084,0.641-0.251C17.275,49.856,17.414,49.569,17.471,49.207z"/>
	</g>
</g>
<g id="theGroup">
</g>
</svg>
