<?xml version="1.0" encoding="iso-8859-1"?>
<!-- Generator: Adobe Illustrator 16.0.0, SVG Export Plug-In . SVG Version: 6.00 Build 0)  -->
<!DOCTYPE svg PUBLIC "-//W3C//DTD SVG 1.1//EN" "http://www.w3.org/Graphics/SVG/1.1/DTD/svg11.dtd">
<svg version="1.1" id="Lager_1" xmlns="http://www.w3.org/2000/svg" xmlns:xlink="http://www.w3.org/1999/xlink" x="0px" y="0px"
	 width="78.988px" height="32.044px" viewBox="0 0 78.988 32.044" style="enable-background:new 0 0 78.988 32.044;"
	 xml:space="preserve">
<g>
	
		<line style="fill:none;stroke:#0066FF;stroke-width:0.5;stroke-linecap:square;stroke-miterlimit:10;" x1="0.25" y1="15.242" x2="31.109" y2="15.242"/>
	<g>
		<path style="fill:#0066FF;" d="M6.753,8.796l-0.58,1.593H1.29v-0.226c1.437-1.311,2.447-2.381,3.033-3.211
			s0.879-1.589,0.879-2.276c0-0.525-0.161-0.956-0.482-1.294S4.014,2.875,3.566,2.875c-0.407,0-0.772,0.119-1.095,0.357
			C2.147,3.47,1.909,3.819,1.754,4.279H1.528C1.63,3.526,1.891,2.948,2.312,2.546C2.733,2.143,3.259,1.941,3.89,1.941
			c0.671,0,1.232,0.216,1.682,0.646c0.449,0.432,0.674,0.94,0.674,1.526c0,0.419-0.098,0.838-0.293,1.257
			C5.652,6.03,5.164,6.729,4.488,7.465C3.475,8.571,2.842,9.239,2.59,9.467h2.161c0.439,0,0.748-0.017,0.924-0.049
			C5.853,9.386,6.012,9.319,6.154,9.22c0.143-0.1,0.267-0.241,0.373-0.424H6.753z"/>
		<path style="fill:#0066FF;" d="M7.755,12.47v-0.269c0.419-0.139,0.744-0.354,0.974-0.644c0.229-0.291,0.345-0.6,0.345-0.925
			c0-0.077-0.018-0.143-0.055-0.195C8.99,10.4,8.962,10.383,8.934,10.383c-0.045,0-0.143,0.04-0.293,0.122
			C8.567,10.541,8.49,10.56,8.408,10.56c-0.199,0-0.358-0.06-0.476-0.177c-0.118-0.118-0.177-0.281-0.177-0.488
			c0-0.2,0.076-0.371,0.229-0.513c0.152-0.143,0.339-0.214,0.559-0.214c0.269,0,0.507,0.117,0.717,0.351
			c0.209,0.234,0.314,0.544,0.314,0.931c0,0.419-0.146,0.809-0.437,1.169S8.386,12.263,7.755,12.47z"/>
		<path style="fill:#0066FF;" d="M16.797,2.112l-0.476,1.037h-2.49l-0.543,1.111c1.078,0.158,1.933,0.56,2.563,1.202
			c0.541,0.554,0.812,1.204,0.812,1.953c0,0.436-0.089,0.838-0.266,1.209c-0.177,0.37-0.4,0.686-0.668,0.945
			c-0.269,0.261-0.568,0.471-0.897,0.629c-0.468,0.224-0.948,0.336-1.44,0.336c-0.497,0-0.858-0.085-1.083-0.254
			c-0.226-0.168-0.339-0.354-0.339-0.558c0-0.114,0.047-0.215,0.14-0.303c0.094-0.087,0.212-0.131,0.354-0.131
			c0.105,0,0.198,0.016,0.277,0.049c0.08,0.032,0.215,0.116,0.406,0.25c0.305,0.212,0.614,0.317,0.928,0.317
			c0.476,0,0.894-0.18,1.254-0.54c0.36-0.36,0.54-0.799,0.54-1.315c0-0.5-0.161-0.968-0.482-1.4
			c-0.321-0.434-0.765-0.769-1.331-1.004c-0.443-0.184-1.048-0.289-1.812-0.317l1.587-3.217H16.797z"/>
		<path style="fill:#0066FF;" d="M25.274,9.76c-0.273,0.285-0.54,0.489-0.8,0.613s-0.541,0.187-0.842,0.187
			c-0.61,0-1.144-0.256-1.599-0.767c-0.456-0.51-0.684-1.166-0.684-1.968s0.252-1.535,0.757-2.2
			c0.504-0.666,1.153-0.998,1.947-0.998c0.492,0,0.899,0.156,1.221,0.47V4.065c0-0.639-0.016-1.031-0.046-1.178
			c-0.031-0.146-0.079-0.247-0.144-0.3s-0.146-0.079-0.244-0.079c-0.106,0-0.246,0.032-0.421,0.098l-0.08-0.214l1.667-0.684h0.274
			v6.464c0,0.655,0.015,1.055,0.046,1.199c0.03,0.145,0.079,0.245,0.146,0.303c0.067,0.057,0.146,0.085,0.235,0.085
			c0.11,0,0.256-0.034,0.439-0.104l0.067,0.214l-1.66,0.689h-0.28V9.76z M25.274,9.333V6.452c-0.024-0.277-0.098-0.529-0.22-0.757
			c-0.122-0.229-0.284-0.4-0.485-0.517c-0.202-0.115-0.398-0.174-0.589-0.174c-0.358,0-0.678,0.161-0.958,0.482
			c-0.37,0.423-0.555,1.042-0.555,1.855c0,0.822,0.179,1.452,0.537,1.889c0.358,0.438,0.757,0.656,1.196,0.656
			C24.57,9.888,24.928,9.703,25.274,9.333z"/>
		<path style="fill:#0066FF;" d="M29.498,1.709v7.416c0,0.35,0.025,0.582,0.076,0.696c0.051,0.113,0.129,0.2,0.235,0.259
			c0.106,0.06,0.303,0.089,0.592,0.089v0.22H27.66v-0.22c0.256,0,0.431-0.026,0.525-0.079c0.094-0.054,0.167-0.141,0.22-0.263
			s0.079-0.356,0.079-0.702V4.047c0-0.631-0.014-1.019-0.042-1.163c-0.028-0.144-0.074-0.243-0.137-0.296
			c-0.063-0.053-0.144-0.079-0.241-0.079c-0.106,0-0.24,0.032-0.403,0.098l-0.104-0.214l1.667-0.684H29.498z"/>
	</g>
	<g>
		<path style="fill:#0066FF;" d="M45.143,11.107l2.014-0.982h0.202v6.988c0,0.464,0.019,0.753,0.058,0.867
			c0.039,0.113,0.119,0.201,0.241,0.262c0.122,0.062,0.37,0.096,0.745,0.104v0.226h-3.113v-0.226
			c0.391-0.009,0.643-0.042,0.757-0.101c0.114-0.06,0.193-0.139,0.238-0.238s0.067-0.397,0.067-0.895v-4.468
			c0-0.602-0.021-0.988-0.062-1.159c-0.028-0.13-0.08-0.226-0.155-0.287c-0.076-0.061-0.166-0.092-0.271-0.092
			c-0.151,0-0.36,0.063-0.629,0.189L45.143,11.107z"/>
		<path style="fill:#0066FF;" d="M49.438,20.653v-0.269c0.419-0.138,0.743-0.353,0.973-0.644c0.23-0.291,0.346-0.6,0.346-0.925
			c0-0.077-0.019-0.143-0.056-0.195c-0.028-0.037-0.057-0.055-0.085-0.055c-0.045,0-0.143,0.04-0.293,0.122
			c-0.073,0.036-0.15,0.055-0.232,0.055c-0.199,0-0.357-0.059-0.476-0.177s-0.177-0.281-0.177-0.488c0-0.199,0.076-0.37,0.229-0.513
			s0.339-0.214,0.559-0.214c0.269,0,0.507,0.117,0.717,0.351c0.21,0.234,0.314,0.545,0.314,0.931c0,0.42-0.146,0.81-0.437,1.169
			C50.528,20.162,50.067,20.446,49.438,20.653z"/>
		<path style="fill:#0066FF;" d="M59.185,16.979l-0.58,1.593h-4.883v-0.226c1.437-1.311,2.447-2.381,3.033-3.211
			s0.879-1.589,0.879-2.276c0-0.524-0.16-0.956-0.481-1.294c-0.322-0.338-0.706-0.507-1.154-0.507c-0.406,0-0.771,0.119-1.096,0.357
			c-0.323,0.238-0.562,0.587-0.717,1.047H53.96c0.102-0.753,0.363-1.331,0.784-1.733c0.421-0.403,0.947-0.604,1.578-0.604
			c0.671,0,1.231,0.216,1.681,0.647c0.45,0.431,0.675,0.939,0.675,1.525c0,0.419-0.098,0.839-0.293,1.258
			c-0.301,0.659-0.789,1.356-1.465,2.093c-1.014,1.107-1.646,1.774-1.898,2.002h2.161c0.439,0,0.747-0.016,0.925-0.049
			c0.177-0.032,0.336-0.099,0.479-0.198s0.267-0.241,0.373-0.424H59.185z"/>
		<path style="fill:#0066FF;" d="M65.129,10.296l-0.476,1.038h-2.49l-0.544,1.11c1.079,0.159,1.934,0.56,2.564,1.202
			c0.541,0.554,0.812,1.205,0.812,1.953c0,0.436-0.089,0.838-0.266,1.209c-0.177,0.37-0.399,0.686-0.669,0.945
			c-0.268,0.261-0.567,0.471-0.896,0.629c-0.468,0.224-0.948,0.336-1.44,0.336c-0.497,0-0.857-0.085-1.084-0.253
			c-0.226-0.169-0.339-0.355-0.339-0.559c0-0.114,0.047-0.215,0.141-0.303c0.094-0.087,0.212-0.131,0.354-0.131
			c0.105,0,0.198,0.017,0.277,0.049s0.215,0.116,0.406,0.25c0.305,0.212,0.614,0.317,0.928,0.317c0.476,0,0.894-0.18,1.254-0.54
			s0.54-0.799,0.54-1.315c0-0.5-0.16-0.967-0.482-1.4c-0.321-0.434-0.765-0.768-1.33-1.004c-0.443-0.184-1.048-0.289-1.812-0.317
			l1.587-3.217H65.129z"/>
		<path style="fill:#0066FF;" d="M73.605,17.943c-0.272,0.285-0.539,0.489-0.8,0.613s-0.541,0.187-0.843,0.187
			c-0.609,0-1.143-0.255-1.599-0.766s-0.684-1.167-0.684-1.969s0.252-1.535,0.757-2.2s1.153-0.998,1.947-0.998
			c0.492,0,0.899,0.157,1.221,0.47v-1.031c0-0.639-0.016-1.031-0.046-1.178s-0.078-0.246-0.144-0.299s-0.146-0.08-0.244-0.08
			c-0.105,0-0.246,0.033-0.421,0.098l-0.079-0.213l1.666-0.684h0.274v6.463c0,0.655,0.016,1.056,0.046,1.199
			c0.03,0.145,0.079,0.245,0.146,0.303c0.067,0.057,0.146,0.085,0.234,0.085c0.11,0,0.257-0.034,0.439-0.104l0.067,0.214
			l-1.66,0.689h-0.28V17.943z M73.605,17.517v-2.881c-0.024-0.276-0.098-0.529-0.22-0.757s-0.284-0.399-0.485-0.516
			s-0.397-0.174-0.589-0.174c-0.358,0-0.678,0.16-0.958,0.481c-0.371,0.424-0.556,1.042-0.556,1.855c0,0.822,0.179,1.452,0.537,1.89
			c0.357,0.438,0.757,0.656,1.196,0.656C72.901,18.072,73.26,17.887,73.605,17.517z"/>
		<path style="fill:#0066FF;" d="M77.829,9.894v7.415c0,0.351,0.025,0.582,0.076,0.696c0.051,0.113,0.129,0.2,0.235,0.259
			c0.105,0.06,0.303,0.089,0.592,0.089v0.22h-2.74v-0.22c0.256,0,0.431-0.026,0.524-0.079s0.167-0.141,0.22-0.263
			s0.079-0.356,0.079-0.702V12.23c0-0.63-0.014-1.018-0.042-1.162c-0.029-0.145-0.075-0.243-0.138-0.296
			c-0.063-0.053-0.144-0.08-0.241-0.08c-0.105,0-0.24,0.033-0.402,0.098l-0.104-0.213l1.667-0.684H77.829z"/>
	</g>
	<g>
		<path style="fill:#0066FF;" d="M18.472,26.618l-0.58,1.593h-4.883v-0.226c1.437-1.311,2.447-2.381,3.033-3.211
			s0.879-1.589,0.879-2.276c0-0.525-0.161-0.956-0.482-1.294s-0.706-0.507-1.154-0.507c-0.407,0-0.772,0.119-1.095,0.357
			c-0.324,0.238-0.562,0.587-0.717,1.047h-0.226c0.102-0.753,0.363-1.331,0.784-1.733c0.421-0.403,0.947-0.604,1.578-0.604
			c0.671,0,1.232,0.216,1.682,0.646c0.449,0.432,0.674,0.94,0.674,1.526c0,0.419-0.098,0.838-0.293,1.257
			c-0.301,0.66-0.79,1.357-1.465,2.094c-1.013,1.107-1.646,1.774-1.898,2.002h2.161c0.439,0,0.748-0.016,0.924-0.049
			c0.177-0.032,0.337-0.099,0.479-0.198c0.143-0.1,0.267-0.241,0.373-0.424H18.472z"/>
	</g>
	<g>
		<path style="fill:#0066FF;" d="M34.89,13.939h6.409v0.593H34.89V13.939z M34.89,16.217h6.409v0.604H34.89V16.217z"/>
	</g>
</g>
<g id="theGroup">
</g>
</svg>
