<?xml version="1.0" encoding="iso-8859-1"?>
<!-- Generator: Adobe Illustrator 16.0.0, SVG Export Plug-In . SVG Version: 6.00 Build 0)  -->
<!DOCTYPE svg PUBLIC "-//W3C//DTD SVG 1.1//EN" "http://www.w3.org/Graphics/SVG/1.1/DTD/svg11.dtd">
<svg version="1.1" id="Lager_1" xmlns="http://www.w3.org/2000/svg" xmlns:xlink="http://www.w3.org/1999/xlink" x="0px" y="0px"
	 width="67.219px" height="32.655px" viewBox="0 0 67.219 32.655" style="enable-background:new 0 0 67.219 32.655;"
	 xml:space="preserve">
<g>
	
		<line style="fill:none;stroke:#000000;stroke-width:0.5;stroke-linecap:square;stroke-miterlimit:10;" x1="0.25" y1="15.854" x2="6.891" y2="15.854"/>
	
		<line style="fill:none;stroke:#000000;stroke-width:0.5;stroke-linecap:square;stroke-miterlimit:10;" x1="21.031" y1="15.854" x2="39.156" y2="15.854"/>
	
		<line style="fill:none;stroke:#000000;stroke-width:0.5;stroke-linecap:square;stroke-miterlimit:10;" x1="53.297" y1="15.854" x2="66.969" y2="15.854"/>
	<g>
		<path d="M1.275,4.298C1.511,3.741,1.81,3.311,2.169,3.007c0.36-0.303,0.809-0.455,1.346-0.455c0.663,0,1.172,0.216,1.525,0.647
			C5.31,3.521,5.444,3.865,5.444,4.231c0,0.602-0.379,1.225-1.136,1.867c0.509,0.2,0.894,0.484,1.154,0.854
			c0.26,0.371,0.391,0.806,0.391,1.307c0,0.716-0.228,1.336-0.684,1.861c-0.594,0.684-1.455,1.025-2.582,1.025
			c-0.558,0-0.937-0.069-1.139-0.208c-0.201-0.138-0.302-0.287-0.302-0.446c0-0.118,0.047-0.222,0.143-0.311s0.21-0.134,0.345-0.134
			c0.102,0,0.205,0.016,0.311,0.049c0.069,0.021,0.226,0.095,0.47,0.223c0.244,0.128,0.413,0.205,0.506,0.229
			c0.15,0.045,0.311,0.067,0.482,0.067c0.415,0,0.776-0.161,1.083-0.482S4.95,9.432,4.95,8.992c0-0.322-0.071-0.635-0.213-0.94
			c-0.106-0.228-0.222-0.4-0.348-0.519c-0.175-0.163-0.415-0.31-0.72-0.442S3.052,6.893,2.734,6.893H2.539V6.709
			C2.86,6.668,3.183,6.553,3.506,6.361C3.83,6.17,4.064,5.94,4.211,5.672s0.22-0.564,0.22-0.885c0-0.419-0.131-0.758-0.394-1.016
			C3.775,3.512,3.448,3.383,3.058,3.383c-0.631,0-1.158,0.338-1.581,1.013L1.275,4.298z"/>
		<path d="M22.05,4.298c0.236-0.558,0.534-0.988,0.894-1.291c0.36-0.303,0.809-0.455,1.346-0.455c0.663,0,1.172,0.216,1.525,0.647
			c0.269,0.321,0.403,0.666,0.403,1.032c0,0.602-0.379,1.225-1.136,1.867c0.509,0.2,0.894,0.484,1.154,0.854
			c0.26,0.371,0.391,0.806,0.391,1.307c0,0.716-0.228,1.336-0.684,1.861c-0.594,0.684-1.455,1.025-2.582,1.025
			c-0.558,0-0.937-0.069-1.139-0.208c-0.201-0.138-0.302-0.287-0.302-0.446c0-0.118,0.047-0.222,0.143-0.311s0.21-0.134,0.345-0.134
			c0.102,0,0.205,0.016,0.311,0.049c0.069,0.021,0.226,0.095,0.47,0.223c0.244,0.128,0.413,0.205,0.506,0.229
			c0.15,0.045,0.311,0.067,0.482,0.067c0.415,0,0.776-0.161,1.083-0.482s0.461-0.702,0.461-1.141c0-0.322-0.071-0.635-0.213-0.94
			c-0.106-0.228-0.222-0.4-0.348-0.519c-0.175-0.163-0.415-0.31-0.72-0.442s-0.616-0.198-0.934-0.198h-0.195V6.709
			c0.321-0.041,0.644-0.156,0.967-0.348c0.323-0.191,0.558-0.421,0.705-0.689s0.22-0.564,0.22-0.885
			c0-0.419-0.131-0.758-0.394-1.016c-0.262-0.258-0.589-0.388-0.979-0.388c-0.631,0-1.158,0.338-1.581,1.013L22.05,4.298z"/>
		<path d="M33.525,4.298c0.236-0.558,0.534-0.988,0.894-1.291c0.36-0.303,0.809-0.455,1.346-0.455c0.663,0,1.172,0.216,1.525,0.647
			c0.269,0.321,0.403,0.666,0.403,1.032c0,0.602-0.379,1.225-1.136,1.867c0.509,0.2,0.894,0.484,1.154,0.854
			c0.26,0.371,0.391,0.806,0.391,1.307c0,0.716-0.229,1.336-0.684,1.861c-0.595,0.684-1.455,1.025-2.582,1.025
			c-0.558,0-0.937-0.069-1.139-0.208c-0.201-0.138-0.302-0.287-0.302-0.446c0-0.118,0.047-0.222,0.143-0.311s0.21-0.134,0.345-0.134
			c0.102,0,0.205,0.016,0.311,0.049c0.069,0.021,0.226,0.095,0.47,0.223c0.244,0.128,0.413,0.205,0.507,0.229
			c0.15,0.045,0.311,0.067,0.481,0.067c0.415,0,0.776-0.161,1.084-0.482c0.307-0.321,0.46-0.702,0.46-1.141
			c0-0.322-0.07-0.635-0.213-0.94c-0.106-0.228-0.222-0.4-0.348-0.519c-0.176-0.163-0.416-0.31-0.721-0.442
			s-0.616-0.198-0.934-0.198h-0.195V6.709c0.321-0.041,0.644-0.156,0.967-0.348c0.324-0.191,0.559-0.421,0.705-0.689
			s0.22-0.564,0.22-0.885c0-0.419-0.131-0.758-0.394-1.016s-0.589-0.388-0.979-0.388c-0.631,0-1.158,0.338-1.581,1.013L33.525,4.298
			z"/>
		<path d="M57.649,11.171v-0.226c0.529-0.008,1.021-0.131,1.478-0.37c0.455-0.238,0.896-0.654,1.321-1.248
			c0.425-0.594,0.721-1.247,0.888-1.959c-0.639,0.411-1.217,0.617-1.733,0.617c-0.582,0-1.08-0.225-1.495-0.674
			s-0.623-1.047-0.623-1.792c0-0.724,0.208-1.369,0.623-1.935c0.5-0.688,1.153-1.031,1.959-1.031c0.68,0,1.262,0.281,1.746,0.842
			c0.594,0.696,0.891,1.554,0.891,2.576c0,0.919-0.226,1.777-0.678,2.573c-0.451,0.795-1.08,1.456-1.886,1.98
			c-0.655,0.431-1.369,0.647-2.143,0.647H57.649z M61.434,6.917c0.073-0.529,0.109-0.952,0.109-1.27
			c0-0.395-0.066-0.821-0.201-1.279c-0.134-0.458-0.324-0.809-0.57-1.053s-0.526-0.366-0.84-0.366c-0.361,0-0.679,0.163-0.951,0.488
			c-0.273,0.326-0.409,0.81-0.409,1.453c0,0.858,0.181,1.53,0.543,2.014c0.265,0.35,0.59,0.525,0.977,0.525
			c0.188,0,0.409-0.045,0.665-0.135C61.013,7.206,61.238,7.08,61.434,6.917z"/>
	</g>
	<g>
		<path d="M2.844,24.653c-0.655-0.537-1.077-0.968-1.266-1.294c-0.189-0.325-0.284-0.663-0.284-1.013c0-0.537,0.207-1,0.622-1.389
			s0.967-0.583,1.654-0.583c0.667,0,1.205,0.181,1.611,0.543s0.61,0.775,0.61,1.239c0,0.31-0.11,0.625-0.33,0.946
			s-0.677,0.699-1.374,1.135c0.716,0.554,1.19,0.989,1.422,1.307c0.309,0.415,0.464,0.853,0.464,1.312
			c0,0.581-0.222,1.079-0.666,1.492c-0.443,0.413-1.025,0.619-1.745,0.619c-0.786,0-1.398-0.246-1.837-0.738
			c-0.35-0.395-0.525-0.826-0.525-1.294c0-0.366,0.123-0.729,0.369-1.09S2.242,25.089,2.844,24.653z M3.131,24.886
			C2.793,25.17,2.543,25.48,2.38,25.816c-0.163,0.336-0.244,0.699-0.244,1.09c0,0.524,0.144,0.944,0.431,1.26
			c0.287,0.315,0.652,0.473,1.096,0.473c0.439,0,0.791-0.124,1.056-0.372s0.396-0.549,0.396-0.903c0-0.293-0.077-0.555-0.231-0.787
			C4.594,26.145,4.01,25.581,3.131,24.886z M3.802,24c0.488-0.439,0.797-0.786,0.928-1.04s0.195-0.542,0.195-0.864
			c0-0.427-0.12-0.762-0.36-1.004c-0.24-0.241-0.568-0.363-0.983-0.363s-0.753,0.12-1.013,0.36s-0.391,0.521-0.391,0.843
			c0,0.211,0.054,0.423,0.162,0.635c0.108,0.211,0.262,0.413,0.461,0.604L3.802,24z"/>
		<path d="M23.619,24.653c-0.655-0.537-1.077-0.968-1.266-1.294c-0.189-0.325-0.284-0.663-0.284-1.013c0-0.537,0.207-1,0.622-1.389
			s0.967-0.583,1.654-0.583c0.667,0,1.205,0.181,1.611,0.543s0.61,0.775,0.61,1.239c0,0.31-0.11,0.625-0.33,0.946
			s-0.677,0.699-1.374,1.135c0.716,0.554,1.19,0.989,1.422,1.307c0.309,0.415,0.464,0.853,0.464,1.312
			c0,0.581-0.222,1.079-0.666,1.492c-0.443,0.413-1.025,0.619-1.745,0.619c-0.786,0-1.398-0.246-1.837-0.738
			c-0.35-0.395-0.525-0.826-0.525-1.294c0-0.366,0.123-0.729,0.369-1.09S23.017,25.089,23.619,24.653z M23.906,24.886
			c-0.338,0.284-0.588,0.595-0.751,0.931c-0.163,0.336-0.244,0.699-0.244,1.09c0,0.524,0.144,0.944,0.431,1.26
			c0.287,0.315,0.652,0.473,1.096,0.473c0.439,0,0.791-0.124,1.056-0.372s0.396-0.549,0.396-0.903c0-0.293-0.077-0.555-0.231-0.787
			C25.369,26.145,24.785,25.581,23.906,24.886z M24.577,24c0.488-0.439,0.797-0.786,0.928-1.04s0.195-0.542,0.195-0.864
			c0-0.427-0.12-0.762-0.36-1.004c-0.24-0.241-0.568-0.363-0.983-0.363s-0.753,0.12-1.013,0.36s-0.391,0.521-0.391,0.843
			c0,0.211,0.054,0.423,0.162,0.635c0.108,0.211,0.262,0.413,0.461,0.604L24.577,24z"/>
		<path d="M33.53,22.121c0.236-0.558,0.534-0.988,0.894-1.291c0.361-0.304,0.809-0.455,1.346-0.455c0.663,0,1.172,0.216,1.525,0.646
			c0.269,0.322,0.403,0.666,0.403,1.032c0,0.602-0.379,1.225-1.136,1.867c0.509,0.199,0.894,0.484,1.154,0.854
			c0.26,0.37,0.391,0.806,0.391,1.307c0,0.716-0.229,1.336-0.684,1.861c-0.595,0.684-1.455,1.025-2.582,1.025
			c-0.558,0-0.937-0.069-1.139-0.207c-0.201-0.139-0.302-0.287-0.302-0.446c0-0.118,0.047-0.222,0.143-0.312
			c0.096-0.089,0.21-0.134,0.345-0.134c0.102,0,0.205,0.017,0.311,0.049c0.069,0.021,0.226,0.095,0.47,0.223
			s0.413,0.204,0.507,0.229c0.15,0.044,0.311,0.066,0.481,0.066c0.415,0,0.776-0.16,1.084-0.482c0.307-0.321,0.46-0.701,0.46-1.141
			c0-0.321-0.07-0.635-0.213-0.94c-0.106-0.228-0.222-0.4-0.348-0.519c-0.176-0.163-0.416-0.311-0.721-0.442
			s-0.616-0.198-0.934-0.198h-0.195v-0.184c0.321-0.04,0.644-0.156,0.967-0.348c0.324-0.191,0.559-0.421,0.705-0.689
			s0.22-0.563,0.22-0.885c0-0.42-0.131-0.758-0.394-1.017s-0.589-0.388-0.979-0.388c-0.631,0-1.158,0.338-1.581,1.014L33.53,22.121z
			"/>
		<path d="M59.789,27.229l-0.58,1.593h-4.883v-0.226c1.437-1.311,2.447-2.381,3.033-3.211s0.879-1.589,0.879-2.276
			c0-0.525-0.16-0.956-0.481-1.294c-0.322-0.338-0.706-0.507-1.154-0.507c-0.406,0-0.771,0.119-1.096,0.357
			c-0.323,0.238-0.562,0.587-0.717,1.047h-0.226c0.102-0.753,0.363-1.331,0.784-1.733c0.421-0.403,0.947-0.604,1.578-0.604
			c0.671,0,1.231,0.216,1.681,0.646c0.45,0.432,0.675,0.94,0.675,1.526c0,0.419-0.098,0.838-0.293,1.257
			c-0.301,0.66-0.789,1.357-1.465,2.094c-1.014,1.107-1.646,1.774-1.898,2.002h2.161c0.439,0,0.747-0.016,0.925-0.049
			c0.177-0.032,0.336-0.099,0.479-0.198s0.267-0.241,0.373-0.424H59.789z"/>
		<path d="M66.124,25.771v0.866h-1.11v2.186h-1.007v-2.186h-3.504v-0.781l3.839-5.48h0.672v5.396H66.124z M64.007,25.771v-4.107
			l-2.906,4.107H64.007z"/>
	</g>
	<g>
		<path d="M30.765,7.802c0,0.187-0.066,0.347-0.198,0.479c-0.132,0.132-0.29,0.199-0.473,0.199c-0.187,0-0.347-0.066-0.479-0.199
			c-0.132-0.132-0.199-0.292-0.199-0.479s0.066-0.347,0.199-0.479c0.132-0.132,0.292-0.199,0.479-0.199
			c0.183,0,0.341,0.066,0.473,0.199C30.699,7.455,30.765,7.615,30.765,7.802z"/>
	</g>
	<g>
		<path d="M10.671,14.551h6.409v0.592h-6.409V14.551z M10.671,16.827h6.409v0.604h-6.409V16.827z"/>
		<path d="M42.932,14.551h6.409v0.592h-6.409V14.551z M42.932,16.827h6.409v0.604h-6.409V16.827z"/>
	</g>
	<g>
		<path d="M30.765,25.624c0,0.188-0.066,0.347-0.198,0.479c-0.132,0.132-0.29,0.198-0.473,0.198c-0.187,0-0.347-0.066-0.479-0.198
			c-0.132-0.133-0.199-0.292-0.199-0.479s0.066-0.347,0.199-0.479c0.132-0.132,0.292-0.198,0.479-0.198
			c0.183,0,0.341,0.066,0.473,0.198C30.699,25.277,30.765,25.437,30.765,25.624z"/>
	</g>
</g>
<g id="theGroup">
</g>
</svg>
