<?xml version="1.0" encoding="iso-8859-1"?>
<!-- Generator: Adobe Illustrator 16.0.0, SVG Export Plug-In . SVG Version: 6.00 Build 0)  -->
<!DOCTYPE svg PUBLIC "-//W3C//DTD SVG 1.1//EN" "http://www.w3.org/Graphics/SVG/1.1/DTD/svg11.dtd">
<svg version="1.1" id="Lager_1" xmlns="http://www.w3.org/2000/svg" xmlns:xlink="http://www.w3.org/1999/xlink" x="0px" y="0px"
	 width="69.316px" height="51.247px" viewBox="0 0 69.316 51.247" style="enable-background:new 0 0 69.316 51.247;"
	 xml:space="preserve">
<g>
	
		<line style="fill:none;stroke:#0066FF;stroke-width:0.5;stroke-linecap:square;stroke-miterlimit:10;" x1="1.563" y1="16.828" x2="23.438" y2="16.828"/>
	<g>
		<path style="fill:#0066FF;" d="M21.126,5.438l-0.335,0.921h-2.823v-0.13c0.831-0.758,1.415-1.376,1.754-1.856
			c0.338-0.479,0.508-0.918,0.508-1.316c0-0.304-0.093-0.553-0.279-0.748c-0.186-0.195-0.408-0.293-0.667-0.293
			c-0.235,0-0.446,0.069-0.633,0.207s-0.325,0.339-0.415,0.605h-0.13c0.059-0.435,0.21-0.769,0.453-1.002
			c0.244-0.233,0.548-0.35,0.912-0.35c0.388,0,0.712,0.125,0.972,0.374c0.26,0.25,0.39,0.543,0.39,0.882
			c0,0.242-0.057,0.485-0.169,0.727c-0.174,0.381-0.457,0.785-0.847,1.21c-0.586,0.64-0.952,1.026-1.098,1.158h1.249
			c0.254,0,0.433-0.009,0.535-0.028c0.103-0.019,0.195-0.057,0.277-0.115c0.082-0.058,0.154-0.139,0.215-0.245H21.126z"/>
	</g>
	<g>
		<path style="fill:#0066FF;" d="M21.027,19.426l-0.275,0.6h-1.44l-0.314,0.643c0.624,0.091,1.117,0.323,1.482,0.695
			c0.313,0.32,0.469,0.696,0.469,1.129c0,0.251-0.051,0.484-0.153,0.699c-0.102,0.214-0.231,0.396-0.386,0.547
			c-0.155,0.15-0.328,0.271-0.519,0.363c-0.271,0.129-0.548,0.194-0.833,0.194c-0.287,0-0.496-0.049-0.626-0.146
			c-0.13-0.098-0.196-0.206-0.196-0.323c0-0.066,0.027-0.124,0.081-0.174c0.054-0.051,0.123-0.076,0.205-0.076
			c0.061,0,0.114,0.01,0.16,0.028c0.046,0.019,0.124,0.067,0.235,0.145c0.176,0.123,0.355,0.184,0.536,0.184
			c0.275,0,0.517-0.104,0.725-0.312c0.208-0.208,0.312-0.462,0.312-0.761c0-0.289-0.093-0.559-0.279-0.81s-0.442-0.444-0.769-0.581
			c-0.256-0.106-0.606-0.167-1.048-0.184l0.917-1.859H21.027z"/>
	</g>
	<g>
		<path style="fill:#0066FF;" d="M20.149,40.868l-0.335,0.921h-2.823v-0.131c0.831-0.757,1.415-1.376,1.754-1.855
			c0.338-0.48,0.508-0.919,0.508-1.316c0-0.304-0.093-0.553-0.279-0.748c-0.186-0.195-0.408-0.293-0.667-0.293
			c-0.235,0-0.446,0.069-0.633,0.206c-0.187,0.138-0.325,0.34-0.415,0.605h-0.13c0.059-0.436,0.21-0.77,0.453-1.002
			c0.244-0.233,0.548-0.35,0.912-0.35c0.388,0,0.712,0.125,0.972,0.374c0.26,0.25,0.39,0.544,0.39,0.883
			c0,0.242-0.057,0.484-0.169,0.727c-0.174,0.381-0.457,0.784-0.847,1.21c-0.586,0.64-0.952,1.026-1.098,1.157h1.249
			c0.254,0,0.433-0.009,0.535-0.028c0.103-0.019,0.195-0.057,0.277-0.114c0.082-0.058,0.154-0.14,0.215-0.245H20.149z"/>
		<path style="fill:#0066FF;" d="M27.824,43.204v0.131c-0.355-0.179-0.651-0.389-0.889-0.629c-0.339-0.341-0.6-0.743-0.783-1.206
			c-0.184-0.464-0.275-0.944-0.275-1.443c0-0.729,0.18-1.395,0.54-1.995c0.36-0.602,0.829-1.031,1.408-1.29v0.148
			c-0.289,0.16-0.527,0.379-0.713,0.656c-0.186,0.277-0.325,0.629-0.416,1.055c-0.092,0.426-0.138,0.87-0.138,1.334
			c0,0.503,0.039,0.961,0.116,1.373c0.061,0.324,0.135,0.585,0.223,0.781c0.087,0.196,0.204,0.385,0.351,0.566
			C27.395,42.866,27.586,43.039,27.824,43.204z"/>
		<path style="fill:#0066FF;" d="M35.741,37.004l-0.275,0.601h-1.439l-0.314,0.642c0.624,0.092,1.117,0.324,1.482,0.695
			c0.312,0.32,0.47,0.696,0.47,1.129c0,0.252-0.052,0.485-0.153,0.699c-0.103,0.214-0.231,0.396-0.387,0.547
			s-0.328,0.271-0.519,0.363c-0.271,0.129-0.548,0.194-0.833,0.194c-0.287,0-0.496-0.049-0.626-0.146
			c-0.13-0.098-0.196-0.205-0.196-0.323c0-0.065,0.027-0.124,0.081-0.175c0.054-0.05,0.123-0.075,0.205-0.075
			c0.061,0,0.114,0.009,0.16,0.028c0.046,0.019,0.124,0.066,0.235,0.145c0.176,0.122,0.355,0.184,0.536,0.184
			c0.275,0,0.517-0.104,0.725-0.312s0.312-0.462,0.312-0.761c0-0.289-0.093-0.56-0.279-0.81c-0.186-0.251-0.442-0.444-0.769-0.581
			c-0.256-0.105-0.606-0.167-1.048-0.183l0.917-1.86H35.741z"/>
		<path style="fill:#0066FF;" d="M36.669,36.92v-0.148c0.357,0.177,0.655,0.385,0.893,0.624c0.337,0.344,0.597,0.747,0.78,1.209
			s0.275,0.944,0.275,1.445c0,0.729-0.18,1.395-0.538,1.995c-0.359,0.601-0.829,1.031-1.41,1.29v-0.131
			c0.289-0.162,0.527-0.382,0.715-0.658c0.187-0.276,0.326-0.628,0.416-1.055c0.091-0.428,0.136-0.872,0.136-1.336
			c0-0.501-0.038-0.959-0.116-1.373c-0.059-0.324-0.132-0.584-0.221-0.779c-0.088-0.195-0.205-0.384-0.351-0.564
			C37.102,37.257,36.909,37.084,36.669,36.92z"/>
	</g>
	<g>
		<path style="fill:#0066FF;" d="M2.441,4.529l2.014-0.982h0.202v6.988c0,0.464,0.019,0.753,0.058,0.867
			c0.039,0.114,0.119,0.201,0.241,0.262s0.37,0.096,0.745,0.104v0.226H2.588v-0.226c0.391-0.008,0.643-0.042,0.757-0.101
			c0.114-0.059,0.193-0.138,0.238-0.238c0.044-0.1,0.067-0.398,0.067-0.895V6.067c0-0.602-0.021-0.988-0.061-1.159
			c-0.028-0.13-0.081-0.226-0.156-0.287S3.268,4.529,3.162,4.529c-0.15,0-0.36,0.063-0.628,0.189L2.441,4.529z"/>
		<path style="fill:#0066FF;" d="M7.678,7.905c0-0.944,0.143-1.757,0.427-2.438C8.39,4.785,8.769,4.277,9.241,3.943
			c0.366-0.264,0.745-0.396,1.135-0.396c0.635,0,1.205,0.323,1.709,0.971c0.631,0.801,0.946,1.888,0.946,3.259
			c0,0.96-0.139,1.776-0.415,2.448c-0.277,0.671-0.63,1.159-1.059,1.462c-0.43,0.303-0.843,0.455-1.242,0.455
			c-0.79,0-1.447-0.466-1.971-1.397C7.9,9.958,7.678,9.012,7.678,7.905z M8.875,8.058c0,1.139,0.14,2.069,0.421,2.789
			c0.231,0.606,0.578,0.909,1.037,0.909c0.22,0,0.448-0.098,0.684-0.296c0.236-0.197,0.415-0.528,0.537-0.992
			c0.188-0.7,0.281-1.687,0.281-2.96c0-0.944-0.098-1.731-0.293-2.362c-0.146-0.468-0.336-0.799-0.568-0.995
			C10.807,4.017,10.606,3.95,10.37,3.95c-0.277,0-0.523,0.124-0.739,0.373C9.338,4.66,9.139,5.191,9.033,5.915
			S8.875,7.354,8.875,8.058z"/>
	</g>
	<g>
		<path style="fill:#0066FF;" d="M37.48,12.664l2.014-0.982h0.202v6.988c0,0.464,0.019,0.753,0.058,0.867
			c0.039,0.114,0.119,0.201,0.241,0.262s0.37,0.096,0.745,0.104v0.226h-3.113v-0.226c0.391-0.008,0.643-0.042,0.757-0.101
			c0.114-0.059,0.193-0.138,0.238-0.238s0.067-0.398,0.067-0.895v-4.468c0-0.602-0.021-0.988-0.062-1.159
			c-0.028-0.13-0.08-0.226-0.155-0.287c-0.076-0.061-0.166-0.092-0.271-0.092c-0.151,0-0.36,0.063-0.629,0.189L37.48,12.664z"/>
		<path style="fill:#0066FF;" d="M42.717,16.04c0-0.944,0.143-1.757,0.428-2.438c0.285-0.681,0.663-1.189,1.135-1.523
			c0.367-0.264,0.745-0.396,1.136-0.396c0.635,0,1.204,0.323,1.709,0.971c0.631,0.801,0.946,1.888,0.946,3.259
			c0,0.96-0.139,1.776-0.415,2.448c-0.277,0.671-0.63,1.159-1.06,1.462c-0.429,0.303-0.843,0.455-1.242,0.455
			c-0.789,0-1.446-0.466-1.971-1.397C42.939,18.092,42.717,17.146,42.717,16.04z M43.914,16.192c0,1.139,0.14,2.069,0.421,2.789
			c0.231,0.606,0.577,0.909,1.037,0.909c0.22,0,0.448-0.098,0.684-0.296c0.236-0.197,0.415-0.528,0.537-0.992
			c0.188-0.7,0.281-1.687,0.281-2.96c0-0.944-0.098-1.731-0.293-2.362c-0.146-0.468-0.336-0.799-0.567-0.995
			c-0.167-0.135-0.369-0.202-0.604-0.202c-0.277,0-0.523,0.124-0.739,0.373c-0.293,0.337-0.492,0.869-0.598,1.593
			S43.914,15.488,43.914,16.192z"/>
	</g>
	<g>
		<path style="fill:#0066FF;" d="M2.52,22.371l2.014-0.982h0.202v6.988c0,0.464,0.019,0.753,0.058,0.867
			c0.039,0.113,0.119,0.201,0.241,0.262c0.122,0.062,0.37,0.096,0.745,0.104v0.226H2.666V29.61c0.391-0.009,0.643-0.042,0.757-0.101
			c0.114-0.06,0.193-0.139,0.238-0.238c0.044-0.1,0.067-0.397,0.067-0.895v-4.468c0-0.602-0.021-0.988-0.061-1.159
			c-0.028-0.13-0.081-0.226-0.156-0.287s-0.166-0.092-0.271-0.092c-0.15,0-0.36,0.063-0.628,0.189L2.52,22.371z"/>
		<path style="fill:#0066FF;" d="M7.756,25.747c0-0.944,0.143-1.757,0.427-2.438c0.285-0.681,0.663-1.189,1.135-1.523
			c0.366-0.264,0.745-0.396,1.135-0.396c0.635,0,1.205,0.323,1.709,0.971c0.631,0.801,0.946,1.888,0.946,3.259
			c0,0.96-0.139,1.776-0.415,2.448c-0.277,0.671-0.63,1.158-1.059,1.461c-0.43,0.304-0.843,0.455-1.242,0.455
			c-0.79,0-1.447-0.466-1.971-1.397C7.978,27.8,7.756,26.854,7.756,25.747z M8.953,25.899c0,1.139,0.14,2.069,0.421,2.789
			c0.231,0.606,0.578,0.909,1.037,0.909c0.22,0,0.448-0.099,0.684-0.296c0.236-0.197,0.415-0.528,0.537-0.991
			c0.188-0.7,0.281-1.688,0.281-2.961c0-0.944-0.098-1.731-0.293-2.362c-0.146-0.468-0.336-0.799-0.568-0.995
			c-0.167-0.135-0.368-0.202-0.604-0.202c-0.277,0-0.523,0.124-0.739,0.373c-0.293,0.337-0.492,0.869-0.598,1.593
			S8.953,25.195,8.953,25.899z"/>
	</g>
	<g>
		<path style="fill:#0066FF;" d="M1.465,39.949l2.014-0.982h0.202v6.988c0,0.464,0.019,0.753,0.058,0.867
			c0.039,0.113,0.119,0.201,0.241,0.262c0.122,0.062,0.37,0.096,0.745,0.104v0.226H1.611v-0.226
			c0.391-0.009,0.643-0.042,0.757-0.101c0.114-0.06,0.193-0.139,0.238-0.238c0.044-0.1,0.067-0.397,0.067-0.895v-4.468
			c0-0.602-0.021-0.988-0.061-1.159c-0.028-0.131-0.081-0.227-0.156-0.287s-0.166-0.092-0.271-0.092c-0.15,0-0.36,0.063-0.628,0.189
			L1.465,39.949z"/>
		<path style="fill:#0066FF;" d="M6.702,43.324c0-0.943,0.143-1.756,0.427-2.438s0.663-1.189,1.135-1.523
			c0.366-0.265,0.745-0.396,1.135-0.396c0.635,0,1.205,0.323,1.709,0.971c0.631,0.802,0.946,1.888,0.946,3.259
			c0,0.961-0.139,1.776-0.415,2.448c-0.277,0.671-0.63,1.158-1.059,1.461c-0.43,0.304-0.843,0.455-1.242,0.455
			c-0.79,0-1.447-0.466-1.971-1.397C6.923,45.378,6.702,44.432,6.702,43.324z M7.898,43.478c0,1.139,0.14,2.069,0.421,2.789
			c0.231,0.606,0.578,0.909,1.037,0.909c0.22,0,0.448-0.099,0.684-0.296c0.236-0.197,0.415-0.528,0.537-0.991
			c0.188-0.7,0.281-1.688,0.281-2.961c0-0.943-0.098-1.731-0.293-2.361c-0.146-0.469-0.336-0.8-0.568-0.995
			c-0.167-0.135-0.368-0.202-0.604-0.202c-0.277,0-0.523,0.125-0.739,0.373c-0.293,0.338-0.492,0.868-0.598,1.593
			S7.898,42.773,7.898,43.478z"/>
		<path style="fill:#0066FF;" d="M54.077,39.949l2.014-0.982h0.202v6.988c0,0.464,0.019,0.753,0.058,0.867
			c0.039,0.113,0.119,0.201,0.241,0.262c0.122,0.062,0.37,0.096,0.745,0.104v0.226h-3.113v-0.226
			c0.391-0.009,0.643-0.042,0.757-0.101c0.114-0.06,0.193-0.139,0.238-0.238s0.067-0.397,0.067-0.895v-4.468
			c0-0.602-0.021-0.988-0.062-1.159c-0.028-0.131-0.08-0.227-0.155-0.287c-0.076-0.061-0.166-0.092-0.271-0.092
			c-0.151,0-0.36,0.063-0.629,0.189L54.077,39.949z"/>
		<path style="fill:#0066FF;" d="M59.313,43.324c0-0.943,0.143-1.756,0.428-2.438s0.663-1.189,1.135-1.523
			c0.367-0.265,0.745-0.396,1.136-0.396c0.635,0,1.204,0.323,1.709,0.971c0.631,0.802,0.946,1.888,0.946,3.259
			c0,0.961-0.139,1.776-0.415,2.448c-0.277,0.671-0.63,1.158-1.06,1.461c-0.429,0.304-0.843,0.455-1.242,0.455
			c-0.789,0-1.446-0.466-1.971-1.397C59.536,45.378,59.313,44.432,59.313,43.324z M60.511,43.478c0,1.139,0.14,2.069,0.421,2.789
			c0.231,0.606,0.577,0.909,1.037,0.909c0.22,0,0.448-0.099,0.684-0.296c0.236-0.197,0.415-0.528,0.537-0.991
			c0.188-0.7,0.281-1.688,0.281-2.961c0-0.943-0.098-1.731-0.293-2.361c-0.146-0.469-0.336-0.8-0.567-0.995
			c-0.167-0.135-0.369-0.202-0.604-0.202c-0.277,0-0.523,0.125-0.739,0.373c-0.293,0.338-0.492,0.868-0.598,1.593
			S60.511,42.773,60.511,43.478z"/>
	</g>
	<g>
		<path style="fill:#0066FF;" d="M49.207,10.744h0.822l0.868,1.331l0.879-1.331l0.772,0.018l-1.273,1.825l1.33,1.937h-0.812
			l-0.938-1.418l-0.91,1.418h-0.805l1.33-1.937L49.207,10.744z"/>
	</g>
	<g>
		<path style="fill:#0066FF;" d="M65.809,38.01h0.822l0.868,1.33l0.879-1.33l0.772,0.018l-1.273,1.824l1.33,1.938h-0.812
			l-0.938-1.419l-0.91,1.419h-0.805l1.33-1.938L65.809,38.01z"/>
	</g>
	<g>
		<path style="fill:#0066FF;" d="M13.998,4.327h3.705v0.349h-3.705V4.327z"/>
	</g>
	<g>
		<path style="fill:#0066FF;" d="M14.076,22.179h3.705v0.349h-3.705V22.179z"/>
	</g>
	<g>
		<path style="fill:#0066FF;" d="M13.021,39.757h3.705v0.349h-3.705V39.757z"/>
		<path style="fill:#0066FF;" d="M21.143,39.757h3.705v0.349h-3.705V39.757z"/>
		<path style="fill:#0066FF;" d="M28.794,39.757h3.705v0.349h-3.705V39.757z"/>
	</g>
	<g>
		<path style="fill:#0066FF;" d="M27.218,15.496h6.409v0.592h-6.409V15.496z M27.218,17.773h6.409v0.604h-6.409V17.773z"/>
	</g>
	<g>
		<path style="fill:#0066FF;" d="M43.81,42.781h6.409v0.592H43.81V42.781z M43.81,45.059h6.409v0.604H43.81V45.059z"/>
	</g>
</g>
<g id="theGroup">
</g>
</svg>
