<?xml version="1.0" encoding="iso-8859-1"?>
<!-- Generator: Adobe Illustrator 16.0.0, SVG Export Plug-In . SVG Version: 6.00 Build 0)  -->
<!DOCTYPE svg PUBLIC "-//W3C//DTD SVG 1.1//EN" "http://www.w3.org/Graphics/SVG/1.1/DTD/svg11.dtd">
<svg version="1.1" id="Lager_1" xmlns="http://www.w3.org/2000/svg" xmlns:xlink="http://www.w3.org/1999/xlink" x="0px" y="0px"
	 width="34.172px" height="32.044px" viewBox="0 0 34.172 32.044" style="enable-background:new 0 0 34.172 32.044;"
	 xml:space="preserve">
<g>
	
		<line style="fill:none;stroke:#000000;stroke-width:0.5;stroke-linecap:square;stroke-miterlimit:10;" x1="0.25" y1="15.242" x2="7.477" y2="15.242"/>
	
		<line style="fill:none;stroke:#000000;stroke-width:0.5;stroke-linecap:square;stroke-miterlimit:10;" x1="27.086" y1="15.242" x2="33.922" y2="15.242"/>
	<g>
		<path d="M6.438,1.941v0.226c-0.537,0.053-0.976,0.16-1.315,0.32c-0.34,0.161-0.675,0.406-1.007,0.735
			C3.784,3.553,3.51,3.92,3.292,4.324c-0.218,0.405-0.4,0.887-0.546,1.444C3.332,5.365,3.92,5.164,4.51,5.164
			c0.565,0,1.056,0.228,1.471,0.684c0.415,0.455,0.622,1.041,0.622,1.758c0,0.691-0.209,1.322-0.628,1.892
			c-0.504,0.692-1.172,1.038-2.002,1.038c-0.565,0-1.046-0.188-1.44-0.562c-0.773-0.729-1.16-1.673-1.16-2.832
			c0-0.741,0.148-1.444,0.445-2.112c0.297-0.667,0.721-1.259,1.273-1.775C3.642,2.736,4.17,2.389,4.674,2.21
			c0.505-0.18,0.975-0.269,1.41-0.269H6.438z M2.642,6.214c-0.073,0.549-0.11,0.992-0.11,1.33c0,0.391,0.072,0.815,0.217,1.272
			c0.144,0.458,0.359,0.821,0.644,1.09c0.207,0.191,0.459,0.287,0.757,0.287c0.354,0,0.67-0.167,0.949-0.501
			c0.279-0.333,0.418-0.81,0.418-1.428c0-0.696-0.139-1.298-0.415-1.807C4.825,5.949,4.433,5.695,3.924,5.695
			c-0.155,0-0.32,0.032-0.498,0.098C3.25,5.857,2.988,5.998,2.642,6.214z"/>
		<path d="M28.812,2.924l2.014-0.982h0.202V8.93c0,0.464,0.019,0.753,0.058,0.867c0.039,0.113,0.119,0.201,0.241,0.262
			c0.122,0.062,0.37,0.096,0.745,0.104v0.226h-3.113v-0.226c0.391-0.009,0.643-0.042,0.757-0.102
			c0.114-0.059,0.193-0.138,0.238-0.237s0.067-0.398,0.067-0.895V4.462c0-0.603-0.021-0.988-0.062-1.159
			c-0.028-0.131-0.08-0.227-0.155-0.287c-0.076-0.062-0.166-0.092-0.271-0.092c-0.151,0-0.36,0.063-0.629,0.189L28.812,2.924z"/>
	</g>
	<g>
		<path d="M21.51,11.107l2.014-0.982h0.202v6.988c0,0.464,0.019,0.753,0.058,0.867c0.039,0.113,0.119,0.201,0.241,0.262
			c0.122,0.062,0.37,0.096,0.745,0.104v0.226h-3.113v-0.226c0.391-0.009,0.643-0.042,0.757-0.101
			c0.114-0.06,0.193-0.139,0.238-0.238s0.067-0.397,0.067-0.895v-4.468c0-0.602-0.021-0.988-0.062-1.159
			c-0.028-0.13-0.08-0.226-0.155-0.287c-0.076-0.061-0.166-0.092-0.271-0.092c-0.151,0-0.36,0.063-0.629,0.189L21.51,11.107z"/>
	</g>
	<g>
		<path d="M6.261,19.935l-0.476,1.038h-2.49l-0.543,1.11c1.078,0.159,1.933,0.56,2.563,1.202c0.541,0.554,0.812,1.205,0.812,1.953
			c0,0.436-0.089,0.839-0.266,1.209c-0.177,0.37-0.4,0.686-0.668,0.945c-0.269,0.261-0.568,0.471-0.897,0.629
			c-0.468,0.224-0.948,0.336-1.44,0.336c-0.497,0-0.858-0.085-1.083-0.253c-0.226-0.169-0.339-0.355-0.339-0.559
			c0-0.114,0.047-0.215,0.14-0.303c0.094-0.087,0.212-0.131,0.354-0.131c0.105,0,0.198,0.017,0.277,0.049
			c0.08,0.032,0.215,0.116,0.406,0.25c0.305,0.212,0.614,0.317,0.928,0.317c0.476,0,0.894-0.18,1.254-0.54
			c0.36-0.36,0.54-0.799,0.54-1.315c0-0.5-0.161-0.967-0.482-1.4s-0.765-0.769-1.331-1.004c-0.443-0.184-1.048-0.289-1.812-0.317
			l1.587-3.217H6.261z"/>
		<path d="M32.898,19.935l-0.476,1.038h-2.49l-0.544,1.11c1.079,0.159,1.934,0.56,2.564,1.202c0.541,0.554,0.812,1.205,0.812,1.953
			c0,0.436-0.089,0.839-0.266,1.209s-0.399,0.686-0.669,0.945c-0.268,0.261-0.567,0.471-0.896,0.629
			c-0.468,0.224-0.948,0.336-1.44,0.336c-0.497,0-0.857-0.085-1.084-0.253c-0.226-0.169-0.339-0.355-0.339-0.559
			c0-0.114,0.047-0.215,0.141-0.303c0.094-0.087,0.212-0.131,0.354-0.131c0.105,0,0.198,0.017,0.277,0.049s0.215,0.116,0.406,0.25
			c0.305,0.212,0.614,0.317,0.928,0.317c0.476,0,0.894-0.18,1.254-0.54s0.54-0.799,0.54-1.315c0-0.5-0.16-0.967-0.482-1.4
			c-0.321-0.434-0.765-0.769-1.33-1.004c-0.443-0.184-1.048-0.289-1.812-0.317l1.587-3.217H32.898z"/>
	</g>
	<g>
		<path d="M11.247,13.939h6.409v0.593h-6.409V13.939z M11.247,16.217h6.409v0.604h-6.409V16.217z"/>
	</g>
</g>
<g id="theGroup">
</g>
</svg>
