<?xml version="1.0" encoding="iso-8859-1"?>
<!-- Generator: Adobe Illustrator 16.0.0, SVG Export Plug-In . SVG Version: 6.00 Build 0)  -->
<!DOCTYPE svg PUBLIC "-//W3C//DTD SVG 1.1//EN" "http://www.w3.org/Graphics/SVG/1.1/DTD/svg11.dtd">
<svg version="1.1" id="Lager_1" xmlns="http://www.w3.org/2000/svg" xmlns:xlink="http://www.w3.org/1999/xlink" x="0px" y="0px"
	 width="135.852px" height="66.483px" viewBox="0 0 135.852 66.483" style="enable-background:new 0 0 135.852 66.483;"
	 xml:space="preserve">
<g>
	
		<line style="fill:none;stroke:#0066FF;stroke-width:0.5;stroke-linecap:square;stroke-miterlimit:10;" x1="0.25" y1="15.845" x2="7.086" y2="15.845"/>
	
		<line style="fill:none;stroke:#0066FF;stroke-width:0.5;stroke-linecap:square;stroke-miterlimit:10;" x1="19.352" y1="15.845" x2="31.461" y2="15.845"/>
	
		<line style="fill:none;stroke:#0066FF;stroke-width:0.5;stroke-linecap:square;stroke-miterlimit:10;" x1="45.602" y1="15.845" x2="63.922" y2="15.845"/>
	
		<line style="fill:none;stroke:#0066FF;stroke-width:0.5;stroke-linecap:square;stroke-miterlimit:10;" x1="76.188" y1="15.845" x2="88.297" y2="15.845"/>
	
		<line style="fill:none;stroke:#0066FF;stroke-width:0.5;stroke-linecap:square;stroke-miterlimit:10;" x1="10.641" y1="49.673" x2="22.75" y2="49.673"/>
	
		<line style="fill:none;stroke:#0066FF;stroke-width:0.5;stroke-linecap:square;stroke-miterlimit:10;" x1="35.016" y1="49.673" x2="47.125" y2="49.673"/>
	
		<line style="fill:none;stroke:#0066FF;stroke-width:0.5;stroke-linecap:square;stroke-miterlimit:10;" x1="61.266" y1="49.673" x2="73.57" y2="49.673"/>
	
		<line style="fill:none;stroke:#0066FF;stroke-width:0.5;stroke-linecap:square;stroke-miterlimit:10;" x1="87.711" y1="49.673" x2="114.039" y2="49.673"/>
	
		<line style="fill:none;stroke:#0066FF;stroke-width:0.5;stroke-linecap:square;stroke-miterlimit:10;" x1="128.18" y1="49.673" x2="135.602" y2="49.673"/>
	<g>
		<path style="fill:#0066FF;" d="M1.354,4.298c0.236-0.558,0.534-0.988,0.894-1.291c0.36-0.303,0.809-0.455,1.346-0.455
			c0.663,0,1.172,0.216,1.525,0.647c0.269,0.321,0.403,0.666,0.403,1.032c0,0.602-0.379,1.225-1.136,1.867
			c0.509,0.2,0.894,0.484,1.154,0.854c0.26,0.371,0.391,0.806,0.391,1.307c0,0.716-0.228,1.336-0.684,1.861
			c-0.594,0.684-1.455,1.025-2.582,1.025c-0.558,0-0.937-0.069-1.139-0.208c-0.201-0.138-0.302-0.287-0.302-0.446
			c0-0.118,0.047-0.222,0.143-0.311s0.21-0.134,0.345-0.134c0.102,0,0.205,0.016,0.311,0.049c0.069,0.021,0.226,0.095,0.47,0.223
			c0.244,0.128,0.413,0.205,0.506,0.229c0.15,0.045,0.311,0.067,0.482,0.067c0.415,0,0.776-0.161,1.083-0.482
			s0.461-0.702,0.461-1.141c0-0.322-0.071-0.635-0.213-0.94c-0.106-0.228-0.222-0.4-0.348-0.519c-0.175-0.163-0.415-0.31-0.72-0.442
			S3.13,6.893,2.812,6.893H2.617V6.709c0.321-0.041,0.644-0.156,0.967-0.348C3.908,6.17,4.143,5.94,4.289,5.672
			s0.22-0.564,0.22-0.885c0-0.419-0.131-0.758-0.394-1.016C3.853,3.512,3.526,3.383,3.136,3.383c-0.631,0-1.158,0.338-1.581,1.013
			L1.354,4.298z"/>
		<path style="fill:#0066FF;" d="M23.746,3.535l2.014-0.982h0.202v6.988c0,0.464,0.019,0.753,0.058,0.867
			c0.039,0.114,0.119,0.201,0.241,0.262s0.37,0.096,0.745,0.104V11h-3.113v-0.226c0.391-0.008,0.643-0.042,0.757-0.101
			c0.114-0.059,0.193-0.138,0.238-0.238c0.044-0.1,0.067-0.398,0.067-0.895V5.073c0-0.602-0.021-0.988-0.061-1.159
			c-0.028-0.13-0.081-0.226-0.156-0.287s-0.166-0.092-0.271-0.092c-0.15,0-0.36,0.063-0.628,0.189L23.746,3.535z"/>
		<path style="fill:#0066FF;" d="M46.704,4.298c0.236-0.558,0.534-0.988,0.894-1.291c0.36-0.303,0.809-0.455,1.346-0.455
			c0.663,0,1.172,0.216,1.525,0.647c0.269,0.321,0.403,0.666,0.403,1.032c0,0.602-0.379,1.225-1.136,1.867
			c0.509,0.2,0.894,0.484,1.154,0.854c0.26,0.371,0.391,0.806,0.391,1.307c0,0.716-0.228,1.336-0.684,1.861
			c-0.594,0.684-1.455,1.025-2.582,1.025c-0.558,0-0.937-0.069-1.139-0.208c-0.201-0.138-0.302-0.287-0.302-0.446
			c0-0.118,0.047-0.222,0.143-0.311s0.21-0.134,0.345-0.134c0.102,0,0.205,0.016,0.311,0.049c0.069,0.021,0.226,0.095,0.47,0.223
			c0.244,0.128,0.413,0.205,0.506,0.229c0.15,0.045,0.311,0.067,0.482,0.067c0.415,0,0.776-0.161,1.083-0.482
			s0.461-0.702,0.461-1.141c0-0.322-0.071-0.635-0.213-0.94c-0.106-0.228-0.222-0.4-0.348-0.519c-0.175-0.163-0.415-0.31-0.72-0.442
			s-0.616-0.198-0.934-0.198h-0.195V6.709c0.321-0.041,0.644-0.156,0.967-0.348c0.323-0.191,0.558-0.421,0.705-0.689
			s0.22-0.564,0.22-0.885c0-0.419-0.131-0.758-0.394-1.016c-0.262-0.258-0.589-0.388-0.979-0.388c-0.631,0-1.158,0.338-1.581,1.013
			L46.704,4.298z"/>
		<path style="fill:#0066FF;" d="M80.571,3.535l2.014-0.982h0.202v6.988c0,0.464,0.019,0.753,0.058,0.867
			c0.039,0.114,0.119,0.201,0.241,0.262s0.37,0.096,0.745,0.104V11h-3.113v-0.226c0.391-0.008,0.643-0.042,0.757-0.101
			c0.114-0.059,0.193-0.138,0.238-0.238s0.067-0.398,0.067-0.895V5.073c0-0.602-0.021-0.988-0.062-1.159
			c-0.028-0.13-0.08-0.226-0.155-0.287c-0.076-0.061-0.166-0.092-0.271-0.092c-0.151,0-0.36,0.063-0.629,0.189L80.571,3.535z"/>
	</g>
	<g>
		<path style="fill:#0066FF;" d="M6.066,20.526l-0.476,1.038h-2.49l-0.543,1.111c1.078,0.159,1.933,0.56,2.563,1.202
			c0.541,0.554,0.812,1.205,0.812,1.953c0,0.436-0.089,0.838-0.266,1.209c-0.177,0.37-0.4,0.686-0.668,0.946
			s-0.568,0.47-0.897,0.628c-0.468,0.224-0.948,0.336-1.44,0.336c-0.497,0-0.858-0.084-1.083-0.253
			c-0.226-0.168-0.339-0.355-0.339-0.558c0-0.114,0.047-0.215,0.14-0.302c0.094-0.087,0.212-0.131,0.354-0.131
			c0.105,0,0.198,0.016,0.277,0.049c0.08,0.033,0.215,0.116,0.406,0.25c0.305,0.212,0.614,0.317,0.928,0.317
			c0.476,0,0.894-0.18,1.254-0.54c0.36-0.36,0.54-0.798,0.54-1.315c0-0.5-0.161-0.967-0.482-1.4
			c-0.321-0.434-0.765-0.768-1.331-1.004c-0.443-0.184-1.048-0.289-1.812-0.317l1.587-3.217H6.066z"/>
		<path style="fill:#0066FF;" d="M20.23,21.338l2.014-0.982h0.202v6.988c0,0.464,0.019,0.753,0.058,0.867
			c0.039,0.114,0.119,0.201,0.241,0.262s0.37,0.096,0.745,0.104v0.226h-3.113v-0.226c0.391-0.008,0.643-0.042,0.757-0.101
			c0.114-0.059,0.193-0.138,0.238-0.238c0.044-0.1,0.067-0.398,0.067-0.895v-4.468c0-0.602-0.021-0.988-0.061-1.159
			c-0.028-0.13-0.081-0.226-0.156-0.287s-0.166-0.092-0.271-0.092c-0.15,0-0.36,0.063-0.628,0.189L20.23,21.338z"/>
		<path style="fill:#0066FF;" d="M30.441,20.526l-0.476,1.038h-2.49l-0.543,1.111c1.078,0.159,1.933,0.56,2.563,1.202
			c0.541,0.554,0.812,1.205,0.812,1.953c0,0.436-0.089,0.838-0.266,1.209c-0.177,0.37-0.4,0.686-0.668,0.946
			s-0.568,0.47-0.897,0.628c-0.468,0.224-0.948,0.336-1.44,0.336c-0.497,0-0.858-0.084-1.083-0.253
			c-0.226-0.168-0.339-0.355-0.339-0.558c0-0.114,0.047-0.215,0.14-0.302c0.094-0.087,0.212-0.131,0.354-0.131
			c0.105,0,0.198,0.016,0.277,0.049c0.08,0.033,0.215,0.116,0.406,0.25c0.305,0.212,0.614,0.317,0.928,0.317
			c0.476,0,0.894-0.18,1.254-0.54c0.36-0.36,0.54-0.798,0.54-1.315c0-0.5-0.161-0.967-0.482-1.4
			c-0.321-0.434-0.765-0.768-1.331-1.004c-0.443-0.184-1.048-0.289-1.812-0.317l1.587-3.217H30.441z"/>
		<path style="fill:#0066FF;" d="M51.417,20.526l-0.476,1.038h-2.49l-0.543,1.111c1.078,0.159,1.933,0.56,2.563,1.202
			c0.541,0.554,0.812,1.205,0.812,1.953c0,0.436-0.089,0.838-0.266,1.209c-0.177,0.37-0.4,0.686-0.668,0.946
			s-0.568,0.47-0.897,0.628c-0.468,0.224-0.948,0.336-1.44,0.336c-0.497,0-0.858-0.084-1.083-0.253
			c-0.226-0.168-0.339-0.355-0.339-0.558c0-0.114,0.047-0.215,0.14-0.302c0.094-0.087,0.212-0.131,0.354-0.131
			c0.105,0,0.198,0.016,0.277,0.049c0.08,0.033,0.215,0.116,0.406,0.25c0.305,0.212,0.614,0.317,0.928,0.317
			c0.476,0,0.894-0.18,1.254-0.54c0.36-0.36,0.54-0.798,0.54-1.315c0-0.5-0.161-0.967-0.482-1.4
			c-0.321-0.434-0.765-0.768-1.331-1.004c-0.443-0.184-1.048-0.289-1.812-0.317l1.587-3.217H51.417z"/>
		<path style="fill:#0066FF;" d="M77.056,21.338l2.014-0.982h0.202v6.988c0,0.464,0.019,0.753,0.058,0.867
			c0.039,0.114,0.119,0.201,0.241,0.262s0.37,0.096,0.745,0.104v0.226h-3.113v-0.226c0.391-0.008,0.643-0.042,0.757-0.101
			c0.114-0.059,0.193-0.138,0.238-0.238s0.067-0.398,0.067-0.895v-4.468c0-0.602-0.021-0.988-0.062-1.159
			c-0.028-0.13-0.08-0.226-0.155-0.287c-0.076-0.061-0.166-0.092-0.271-0.092c-0.151,0-0.36,0.063-0.629,0.189L77.056,21.338z"/>
		<path style="fill:#0066FF;" d="M87.267,20.526l-0.476,1.038h-2.49l-0.544,1.111c1.079,0.159,1.934,0.56,2.564,1.202
			c0.541,0.554,0.812,1.205,0.812,1.953c0,0.436-0.089,0.838-0.266,1.209c-0.177,0.37-0.399,0.686-0.669,0.946
			c-0.268,0.26-0.567,0.47-0.896,0.628c-0.468,0.224-0.948,0.336-1.44,0.336c-0.497,0-0.857-0.084-1.084-0.253
			c-0.226-0.168-0.339-0.355-0.339-0.558c0-0.114,0.047-0.215,0.141-0.302s0.212-0.131,0.354-0.131c0.105,0,0.198,0.016,0.277,0.049
			s0.215,0.116,0.406,0.25c0.305,0.212,0.614,0.317,0.928,0.317c0.476,0,0.894-0.18,1.254-0.54c0.36-0.36,0.54-0.798,0.54-1.315
			c0-0.5-0.16-0.967-0.482-1.4c-0.321-0.434-0.765-0.768-1.33-1.004c-0.443-0.184-1.048-0.289-1.812-0.317l1.587-3.217H87.267z"/>
	</g>
	<g>
		<path style="fill:#0066FF;" d="M14.229,44.989v-0.226c0.529-0.009,1.021-0.132,1.477-0.369c0.456-0.238,0.896-0.654,1.321-1.248
			c0.425-0.595,0.721-1.248,0.888-1.96c-0.639,0.411-1.217,0.616-1.733,0.616c-0.582,0-1.08-0.225-1.495-0.674
			s-0.623-1.047-0.623-1.791c0-0.725,0.208-1.37,0.623-1.936c0.5-0.688,1.153-1.031,1.959-1.031c0.68,0,1.261,0.281,1.746,0.842
			c0.594,0.696,0.891,1.555,0.891,2.576c0,0.92-0.226,1.777-0.678,2.572c-0.451,0.796-1.08,1.456-1.886,1.98
			c-0.655,0.432-1.369,0.647-2.143,0.647H14.229z M18.014,40.735c0.073-0.529,0.11-0.952,0.11-1.27c0-0.395-0.067-0.821-0.202-1.279
			c-0.134-0.457-0.324-0.809-0.57-1.053c-0.247-0.244-0.526-0.366-0.839-0.366c-0.362,0-0.68,0.163-0.952,0.488
			c-0.272,0.326-0.409,0.81-0.409,1.453c0,0.858,0.181,1.529,0.543,2.014c0.265,0.351,0.59,0.525,0.977,0.525
			c0.187,0,0.409-0.045,0.665-0.135C17.593,41.024,17.818,40.897,18.014,40.735z"/>
		<path style="fill:#0066FF;" d="M39.41,37.354l2.014-0.982h0.202v6.988c0,0.464,0.019,0.753,0.058,0.867
			c0.039,0.113,0.119,0.201,0.241,0.262c0.122,0.062,0.37,0.096,0.745,0.104v0.226h-3.113v-0.226
			c0.391-0.009,0.643-0.042,0.757-0.101c0.114-0.06,0.193-0.139,0.238-0.238c0.044-0.1,0.067-0.397,0.067-0.895v-4.468
			c0-0.602-0.021-0.988-0.061-1.159c-0.028-0.131-0.081-0.227-0.156-0.287s-0.166-0.092-0.271-0.092c-0.15,0-0.36,0.063-0.628,0.189
			L39.41,37.354z"/>
		<path style="fill:#0066FF;" d="M62.135,37.354l2.014-0.982h0.202v6.988c0,0.464,0.019,0.753,0.058,0.867
			c0.039,0.113,0.119,0.201,0.241,0.262c0.122,0.062,0.37,0.096,0.745,0.104v0.226h-3.113v-0.226
			c0.391-0.009,0.643-0.042,0.757-0.101c0.114-0.06,0.193-0.139,0.238-0.238c0.044-0.1,0.067-0.397,0.067-0.895v-4.468
			c0-0.602-0.021-0.988-0.061-1.159c-0.028-0.131-0.081-0.227-0.156-0.287s-0.166-0.092-0.271-0.092c-0.15,0-0.36,0.063-0.628,0.189
			L62.135,37.354z"/>
		<path style="fill:#0066FF;" d="M67.372,40.729c0-0.943,0.143-1.756,0.427-2.438s0.663-1.189,1.135-1.523
			c0.366-0.265,0.745-0.396,1.136-0.396c0.635,0,1.203,0.323,1.709,0.971c0.631,0.802,0.945,1.888,0.945,3.259
			c0,0.961-0.139,1.776-0.414,2.448c-0.277,0.671-0.631,1.158-1.061,1.461c-0.428,0.304-0.842,0.455-1.242,0.455
			c-0.789,0-1.446-0.466-1.97-1.397C67.594,42.782,67.372,41.836,67.372,40.729z M68.568,40.882c0,1.139,0.14,2.069,0.421,2.789
			c0.231,0.606,0.578,0.909,1.038,0.909c0.219,0,0.447-0.099,0.684-0.296s0.414-0.528,0.537-0.991
			c0.188-0.7,0.281-1.688,0.281-2.961c0-0.943-0.098-1.731-0.293-2.361c-0.146-0.469-0.336-0.8-0.568-0.995
			c-0.166-0.135-0.369-0.202-0.604-0.202c-0.277,0-0.523,0.125-0.739,0.373c-0.293,0.338-0.492,0.868-0.598,1.593
			S68.568,40.178,68.568,40.882z"/>
		<path style="fill:#0066FF;" d="M88.572,37.354l2.014-0.982h0.202v6.988c0,0.464,0.019,0.753,0.058,0.867
			c0.039,0.113,0.119,0.201,0.241,0.262c0.122,0.062,0.37,0.096,0.745,0.104v0.226h-3.113v-0.226
			c0.391-0.009,0.643-0.042,0.757-0.101c0.114-0.06,0.193-0.139,0.238-0.238s0.067-0.397,0.067-0.895v-4.468
			c0-0.602-0.021-0.988-0.062-1.159c-0.028-0.131-0.08-0.227-0.155-0.287c-0.076-0.061-0.166-0.092-0.271-0.092
			c-0.151,0-0.36,0.063-0.629,0.189L88.572,37.354z"/>
		<path style="fill:#0066FF;" d="M93.809,40.729c0-0.943,0.143-1.756,0.428-2.438s0.663-1.189,1.135-1.523
			c0.367-0.265,0.745-0.396,1.136-0.396c0.635,0,1.204,0.323,1.709,0.971c0.631,0.802,0.946,1.888,0.946,3.259
			c0,0.961-0.139,1.776-0.415,2.448c-0.277,0.671-0.63,1.158-1.06,1.461c-0.429,0.304-0.843,0.455-1.242,0.455
			c-0.789,0-1.446-0.466-1.971-1.397C94.031,42.782,93.809,41.836,93.809,40.729z M95.006,40.882c0,1.139,0.14,2.069,0.421,2.789
			c0.231,0.606,0.577,0.909,1.037,0.909c0.22,0,0.448-0.099,0.684-0.296c0.236-0.197,0.415-0.528,0.537-0.991
			c0.188-0.7,0.281-1.688,0.281-2.961c0-0.943-0.098-1.731-0.293-2.361c-0.146-0.469-0.336-0.8-0.567-0.995
			c-0.167-0.135-0.369-0.202-0.604-0.202c-0.277,0-0.523,0.125-0.739,0.373c-0.293,0.338-0.492,0.868-0.598,1.593
			S95.006,40.178,95.006,40.882z"/>
		<path style="fill:#0066FF;" d="M134.664,43.226l-0.58,1.593h-4.883v-0.226c1.437-1.311,2.447-2.381,3.033-3.211
			s0.879-1.589,0.879-2.276c0-0.525-0.16-0.956-0.481-1.294c-0.322-0.338-0.706-0.507-1.154-0.507c-0.406,0-0.771,0.119-1.096,0.357
			c-0.323,0.238-0.562,0.587-0.717,1.047h-0.226c0.102-0.753,0.363-1.331,0.784-1.733c0.421-0.403,0.947-0.604,1.578-0.604
			c0.671,0,1.231,0.216,1.681,0.646c0.45,0.432,0.675,0.94,0.675,1.526c0,0.419-0.098,0.838-0.293,1.257
			c-0.301,0.66-0.789,1.357-1.465,2.094c-1.014,1.107-1.646,1.774-1.898,2.002h2.161c0.439,0,0.747-0.016,0.925-0.049
			c0.177-0.032,0.336-0.099,0.479-0.198s0.267-0.241,0.373-0.424H134.664z"/>
	</g>
	<g>
		<path style="fill:#0066FF;" d="M11.52,55.186l2.014-0.982h0.202v6.988c0,0.464,0.019,0.753,0.058,0.867
			c0.039,0.113,0.119,0.201,0.241,0.262c0.122,0.062,0.37,0.096,0.745,0.104v0.226h-3.113v-0.226
			c0.391-0.009,0.643-0.042,0.757-0.101c0.114-0.06,0.193-0.139,0.238-0.238c0.044-0.1,0.067-0.397,0.067-0.895v-4.468
			c0-0.602-0.021-0.988-0.061-1.159c-0.028-0.131-0.081-0.227-0.156-0.287s-0.166-0.092-0.271-0.092c-0.15,0-0.36,0.063-0.628,0.189
			L11.52,55.186z"/>
		<path style="fill:#0066FF;" d="M21.73,54.374l-0.476,1.038h-2.49l-0.543,1.11c1.078,0.159,1.933,0.56,2.563,1.202
			c0.541,0.554,0.812,1.205,0.812,1.953c0,0.436-0.089,0.839-0.266,1.209c-0.177,0.37-0.4,0.686-0.668,0.945
			c-0.269,0.261-0.568,0.471-0.897,0.629c-0.468,0.224-0.948,0.336-1.44,0.336c-0.497,0-0.858-0.085-1.083-0.253
			c-0.226-0.169-0.339-0.355-0.339-0.559c0-0.114,0.047-0.215,0.14-0.303c0.094-0.087,0.212-0.131,0.354-0.131
			c0.105,0,0.198,0.017,0.277,0.049c0.08,0.032,0.215,0.116,0.406,0.25c0.305,0.212,0.614,0.317,0.928,0.317
			c0.476,0,0.894-0.18,1.254-0.54c0.36-0.36,0.54-0.799,0.54-1.315c0-0.5-0.161-0.967-0.482-1.4s-0.765-0.769-1.331-1.004
			c-0.443-0.184-1.048-0.289-1.812-0.317l1.587-3.217H21.73z"/>
		<path style="fill:#0066FF;" d="M35.895,55.186l2.014-0.982h0.202v6.988c0,0.464,0.019,0.753,0.058,0.867
			c0.039,0.113,0.119,0.201,0.241,0.262c0.122,0.062,0.37,0.096,0.745,0.104v0.226h-3.113v-0.226
			c0.391-0.009,0.643-0.042,0.757-0.101c0.114-0.06,0.193-0.139,0.238-0.238c0.044-0.1,0.067-0.397,0.067-0.895v-4.468
			c0-0.602-0.021-0.988-0.061-1.159c-0.028-0.131-0.081-0.227-0.156-0.287s-0.166-0.092-0.271-0.092c-0.15,0-0.36,0.063-0.628,0.189
			L35.895,55.186z"/>
		<path style="fill:#0066FF;" d="M46.105,54.374l-0.476,1.038h-2.49l-0.543,1.11c1.078,0.159,1.933,0.56,2.563,1.202
			c0.541,0.554,0.812,1.205,0.812,1.953c0,0.436-0.089,0.839-0.266,1.209c-0.177,0.37-0.4,0.686-0.668,0.945
			c-0.269,0.261-0.568,0.471-0.897,0.629c-0.468,0.224-0.948,0.336-1.44,0.336c-0.497,0-0.858-0.085-1.083-0.253
			c-0.226-0.169-0.339-0.355-0.339-0.559c0-0.114,0.047-0.215,0.14-0.303c0.094-0.087,0.212-0.131,0.354-0.131
			c0.105,0,0.198,0.017,0.277,0.049c0.08,0.032,0.215,0.116,0.406,0.25c0.305,0.212,0.614,0.317,0.928,0.317
			c0.476,0,0.894-0.18,1.254-0.54c0.36-0.36,0.54-0.799,0.54-1.315c0-0.5-0.161-0.967-0.482-1.4s-0.765-0.769-1.331-1.004
			c-0.443-0.184-1.048-0.289-1.812-0.317l1.587-3.217H46.105z"/>
		<path style="fill:#0066FF;" d="M62.22,55.186l2.014-0.982h0.202v6.988c0,0.464,0.019,0.753,0.058,0.867
			c0.039,0.113,0.119,0.201,0.241,0.262c0.122,0.062,0.37,0.096,0.745,0.104v0.226h-3.113v-0.226
			c0.391-0.009,0.643-0.042,0.757-0.101c0.114-0.06,0.193-0.139,0.238-0.238c0.044-0.1,0.067-0.397,0.067-0.895v-4.468
			c0-0.602-0.021-0.988-0.061-1.159c-0.028-0.131-0.081-0.227-0.156-0.287s-0.166-0.092-0.271-0.092c-0.15,0-0.36,0.063-0.628,0.189
			L62.22,55.186z"/>
		<path style="fill:#0066FF;" d="M72.431,54.374l-0.476,1.038h-2.49l-0.543,1.11c1.079,0.159,1.933,0.56,2.564,1.202
			c0.541,0.554,0.812,1.205,0.812,1.953c0,0.436-0.089,0.839-0.266,1.209s-0.399,0.686-0.669,0.945
			c-0.268,0.261-0.567,0.471-0.896,0.629c-0.468,0.224-0.948,0.336-1.44,0.336c-0.497,0-0.858-0.085-1.083-0.253
			c-0.226-0.169-0.339-0.355-0.339-0.559c0-0.114,0.047-0.215,0.14-0.303c0.094-0.087,0.212-0.131,0.354-0.131
			c0.105,0,0.198,0.017,0.277,0.049c0.08,0.032,0.215,0.116,0.406,0.25c0.305,0.212,0.614,0.317,0.928,0.317
			c0.476,0,0.894-0.18,1.254-0.54s0.54-0.799,0.54-1.315c0-0.5-0.16-0.967-0.482-1.4c-0.321-0.434-0.765-0.769-1.33-1.004
			c-0.443-0.184-1.048-0.289-1.812-0.317l1.587-3.217H72.431z"/>
	</g>
	<g>
		<path style="fill:#CC0000;" d="M58.189,4.298c0.236-0.558,0.534-0.988,0.894-1.291c0.36-0.303,0.809-0.455,1.346-0.455
			c0.663,0,1.172,0.216,1.525,0.647c0.269,0.321,0.403,0.666,0.403,1.032c0,0.602-0.379,1.225-1.136,1.867
			c0.509,0.2,0.894,0.484,1.154,0.854c0.26,0.371,0.391,0.806,0.391,1.307c0,0.716-0.228,1.336-0.684,1.861
			c-0.594,0.684-1.455,1.025-2.582,1.025c-0.558,0-0.937-0.069-1.139-0.208c-0.201-0.138-0.302-0.287-0.302-0.446
			c0-0.118,0.047-0.222,0.143-0.311s0.21-0.134,0.345-0.134c0.102,0,0.205,0.016,0.311,0.049c0.069,0.021,0.226,0.095,0.47,0.223
			c0.244,0.128,0.413,0.205,0.506,0.229c0.15,0.045,0.311,0.067,0.482,0.067c0.415,0,0.776-0.161,1.083-0.482
			s0.461-0.702,0.461-1.141c0-0.322-0.071-0.635-0.213-0.94c-0.106-0.228-0.222-0.4-0.348-0.519c-0.175-0.163-0.415-0.31-0.72-0.442
			s-0.616-0.198-0.934-0.198h-0.195V6.709c0.321-0.041,0.644-0.156,0.967-0.348c0.323-0.191,0.558-0.421,0.705-0.689
			s0.22-0.564,0.22-0.885c0-0.419-0.131-0.758-0.394-1.016c-0.262-0.258-0.589-0.388-0.979-0.388c-0.631,0-1.158,0.338-1.581,1.013
			L58.189,4.298z"/>
	</g>
	<g>
		<path style="fill:#CC0000;" d="M58.307,22.101c0.236-0.558,0.534-0.988,0.894-1.291c0.36-0.303,0.809-0.455,1.346-0.455
			c0.663,0,1.172,0.216,1.525,0.647c0.269,0.321,0.403,0.666,0.403,1.032c0,0.602-0.379,1.225-1.136,1.867
			c0.509,0.2,0.894,0.484,1.154,0.854c0.26,0.371,0.391,0.806,0.391,1.307c0,0.716-0.228,1.336-0.684,1.861
			c-0.594,0.684-1.455,1.025-2.582,1.025c-0.558,0-0.937-0.069-1.139-0.208c-0.201-0.138-0.302-0.287-0.302-0.446
			c0-0.118,0.047-0.222,0.143-0.311s0.21-0.134,0.345-0.134c0.102,0,0.205,0.016,0.311,0.049c0.069,0.021,0.226,0.095,0.47,0.223
			c0.244,0.128,0.413,0.205,0.506,0.229c0.15,0.045,0.311,0.067,0.482,0.067c0.415,0,0.776-0.161,1.083-0.482
			s0.461-0.702,0.461-1.141c0-0.322-0.071-0.635-0.213-0.94c-0.106-0.228-0.222-0.4-0.348-0.519c-0.175-0.163-0.415-0.31-0.72-0.442
			s-0.616-0.198-0.934-0.198H59.57v-0.184c0.321-0.041,0.644-0.156,0.967-0.348c0.323-0.191,0.558-0.421,0.705-0.689
			s0.22-0.564,0.22-0.885c0-0.419-0.131-0.758-0.394-1.016c-0.262-0.258-0.589-0.388-0.979-0.388c-0.631,0-1.158,0.338-1.581,1.013
			L58.307,22.101z"/>
	</g>
	<g>
		<path style="fill:#CC0000;" d="M105.355,36.139l-2.997,8.851h-0.488l2.997-8.851H105.355z"/>
		<path style="fill:#CC0000;" d="M113.013,36.542l-0.476,1.038h-2.49l-0.544,1.11c1.079,0.159,1.934,0.56,2.564,1.202
			c0.541,0.554,0.812,1.205,0.812,1.953c0,0.436-0.089,0.839-0.266,1.209s-0.399,0.686-0.669,0.945
			c-0.268,0.261-0.567,0.471-0.896,0.629c-0.468,0.224-0.948,0.336-1.44,0.336c-0.497,0-0.857-0.085-1.084-0.253
			c-0.226-0.169-0.339-0.355-0.339-0.559c0-0.114,0.047-0.215,0.141-0.303c0.094-0.087,0.212-0.131,0.354-0.131
			c0.105,0,0.198,0.017,0.277,0.049s0.215,0.116,0.406,0.25c0.305,0.212,0.614,0.317,0.928,0.317c0.476,0,0.894-0.18,1.254-0.54
			s0.54-0.799,0.54-1.315c0-0.5-0.16-0.967-0.482-1.4c-0.321-0.434-0.765-0.769-1.33-1.004c-0.443-0.184-1.048-0.289-1.812-0.317
			l1.587-3.217H113.013z"/>
	</g>
	<g>
		<path style="fill:#CC0000;" d="M105.268,53.971l-2.997,8.851h-0.488l2.997-8.851H105.268z"/>
		<path style="fill:#CC0000;" d="M112.925,54.374l-0.476,1.038h-2.49l-0.544,1.11c1.079,0.159,1.934,0.56,2.564,1.202
			c0.541,0.554,0.812,1.205,0.812,1.953c0,0.436-0.089,0.839-0.266,1.209s-0.399,0.686-0.669,0.945
			c-0.268,0.261-0.567,0.471-0.896,0.629c-0.468,0.224-0.948,0.336-1.44,0.336c-0.497,0-0.857-0.085-1.084-0.253
			c-0.226-0.169-0.339-0.355-0.339-0.559c0-0.114,0.047-0.215,0.141-0.303c0.094-0.087,0.212-0.131,0.354-0.131
			c0.105,0,0.198,0.017,0.277,0.049s0.215,0.116,0.406,0.25c0.305,0.212,0.614,0.317,0.928,0.317c0.476,0,0.894-0.18,1.254-0.54
			s0.54-0.799,0.54-1.315c0-0.5-0.16-0.967-0.482-1.4c-0.321-0.434-0.765-0.769-1.33-1.004c-0.443-0.184-1.048-0.289-1.812-0.317
			l1.587-3.217H112.925z"/>
	</g>
	<g>
		<path style="fill:#0066FF;" d="M88.707,55.186l2.014-0.982h0.202v6.988c0,0.464,0.019,0.753,0.058,0.867
			c0.039,0.113,0.119,0.201,0.241,0.262c0.122,0.062,0.37,0.096,0.745,0.104v0.226h-3.113v-0.226
			c0.391-0.009,0.643-0.042,0.757-0.101c0.114-0.06,0.193-0.139,0.238-0.238s0.067-0.397,0.067-0.895v-4.468
			c0-0.602-0.021-0.988-0.062-1.159c-0.028-0.131-0.08-0.227-0.155-0.287c-0.076-0.061-0.166-0.092-0.271-0.092
			c-0.151,0-0.36,0.063-0.629,0.189L88.707,55.186z"/>
		<path style="fill:#0066FF;" d="M98.918,54.374l-0.476,1.038h-2.49l-0.544,1.11c1.079,0.159,1.934,0.56,2.564,1.202
			c0.541,0.554,0.812,1.205,0.812,1.953c0,0.436-0.089,0.839-0.266,1.209s-0.399,0.686-0.669,0.945
			c-0.268,0.261-0.567,0.471-0.896,0.629c-0.468,0.224-0.948,0.336-1.44,0.336c-0.497,0-0.857-0.085-1.084-0.253
			c-0.226-0.169-0.339-0.355-0.339-0.559c0-0.114,0.047-0.215,0.141-0.303c0.094-0.087,0.212-0.131,0.354-0.131
			c0.105,0,0.198,0.017,0.277,0.049s0.215,0.116,0.406,0.25c0.305,0.212,0.614,0.317,0.928,0.317c0.476,0,0.894-0.18,1.254-0.54
			s0.54-0.799,0.54-1.315c0-0.5-0.16-0.967-0.482-1.4c-0.321-0.434-0.765-0.769-1.33-1.004c-0.443-0.184-1.048-0.289-1.812-0.317
			l1.587-3.217H98.918z"/>
		<path style="fill:#0066FF;" d="M129.59,55.949c0.236-0.558,0.534-0.988,0.895-1.291c0.359-0.304,0.809-0.455,1.346-0.455
			c0.663,0,1.172,0.216,1.525,0.646c0.269,0.322,0.403,0.666,0.403,1.032c0,0.602-0.379,1.225-1.136,1.867
			c0.509,0.199,0.894,0.484,1.154,0.854c0.26,0.37,0.391,0.806,0.391,1.307c0,0.716-0.229,1.336-0.684,1.861
			c-0.595,0.684-1.455,1.025-2.582,1.025c-0.558,0-0.938-0.069-1.139-0.207c-0.201-0.139-0.302-0.287-0.302-0.446
			c0-0.118,0.048-0.222,0.144-0.312c0.095-0.089,0.21-0.134,0.345-0.134c0.102,0,0.205,0.017,0.312,0.049
			c0.068,0.021,0.226,0.095,0.47,0.223s0.413,0.204,0.507,0.229c0.15,0.044,0.311,0.066,0.481,0.066c0.415,0,0.776-0.16,1.084-0.482
			c0.307-0.321,0.46-0.701,0.46-1.141c0-0.321-0.07-0.635-0.213-0.94c-0.106-0.228-0.222-0.4-0.348-0.519
			c-0.176-0.163-0.416-0.311-0.721-0.442s-0.616-0.198-0.934-0.198h-0.195v-0.184c0.321-0.04,0.644-0.156,0.967-0.348
			c0.324-0.191,0.559-0.421,0.705-0.689s0.22-0.563,0.22-0.885c0-0.42-0.131-0.758-0.394-1.017s-0.589-0.388-0.979-0.388
			c-0.631,0-1.157,0.338-1.581,1.014L129.59,55.949z"/>
	</g>
	<g>
		<path style="fill:#0066FF;" d="M12.84,12.755h0.598v2.917h2.899v0.592h-2.899v2.899H12.84v-2.899H9.929v-0.592h2.912V12.755z"/>
		<path style="fill:#0066FF;" d="M35.239,14.531h6.409v0.592h-6.409V14.531z M35.239,16.808h6.409v0.604h-6.409V16.808z"/>
		<path style="fill:#0066FF;" d="M69.673,12.755h0.599v2.917h2.899v0.592h-2.899v2.899h-0.599v-2.899h-2.911v-0.592h2.911V12.755z"
			/>
		<path style="fill:#0066FF;" d="M92.072,14.531h6.409v0.592h-6.409V14.531z M92.072,16.808h6.409v0.604h-6.409V16.808z"/>
	</g>
	<g>
		<path style="fill:#0066FF;" d="M0.28,48.359h6.409v0.592H0.28V48.359z M0.28,50.637h6.409v0.604H0.28V50.637z"/>
		<path style="fill:#0066FF;" d="M28.502,46.584h0.598v2.917H32v0.592h-2.899v2.899h-0.598v-2.899h-2.912v-0.592h2.912V46.584z"/>
		<path style="fill:#0066FF;" d="M50.901,48.359h6.409v0.592h-6.409V48.359z M50.901,50.637h6.409v0.604h-6.409V50.637z"/>
		<path style="fill:#0066FF;" d="M77.336,48.359h6.409v0.592h-6.409V48.359z M77.336,50.637h6.409v0.604h-6.409V50.637z"/>
		<path style="fill:#0066FF;" d="M117.797,48.359h6.409v0.592h-6.409V48.359z M117.797,50.637h6.409v0.604h-6.409V50.637z"/>
	</g>
	<g>
		<path style="fill:#CC0000;" d="M55.414,7.802c0,0.187-0.066,0.347-0.198,0.479c-0.132,0.132-0.29,0.199-0.473,0.199
			c-0.187,0-0.347-0.066-0.479-0.199c-0.132-0.132-0.199-0.292-0.199-0.479s0.066-0.347,0.199-0.479
			c0.132-0.132,0.292-0.199,0.479-0.199c0.183,0,0.341,0.066,0.473,0.199C55.347,7.455,55.414,7.615,55.414,7.802z"/>
	</g>
	<g>
		<path style="fill:#CC0000;" d="M55.521,25.604c0,0.187-0.066,0.347-0.198,0.479c-0.132,0.132-0.29,0.199-0.473,0.199
			c-0.187,0-0.347-0.066-0.479-0.199c-0.132-0.132-0.199-0.292-0.199-0.479s0.066-0.347,0.199-0.479
			c0.132-0.132,0.292-0.199,0.479-0.199c0.183,0,0.341,0.066,0.473,0.199C55.455,25.258,55.521,25.417,55.521,25.604z"/>
	</g>
</g>
<g id="theGroup">
</g>
</svg>
