<?xml version="1.0" encoding="iso-8859-1"?>
<!-- Generator: Adobe Illustrator 16.0.0, SVG Export Plug-In . SVG Version: 6.00 Build 0)  -->
<!DOCTYPE svg PUBLIC "-//W3C//DTD SVG 1.1//EN" "http://www.w3.org/Graphics/SVG/1.1/DTD/svg11.dtd">
<svg version="1.1" id="Lager_1" xmlns="http://www.w3.org/2000/svg" xmlns:xlink="http://www.w3.org/1999/xlink" x="0px" y="0px"
	 width="191.23px" height="32.083px" viewBox="0 0 191.23 32.083" style="enable-background:new 0 0 191.23 32.083;"
	 xml:space="preserve">
<g>
	
		<line style="fill:none;stroke:#0066FF;stroke-width:0.5;stroke-linecap:square;stroke-miterlimit:10;" x1="78.204" y1="15.232" x2="126.329" y2="15.232"/>
	
		<line style="fill:none;stroke:#0066FF;stroke-width:0.5;stroke-linecap:square;stroke-miterlimit:10;" x1="140.47" y1="15.232" x2="158.204" y2="15.232"/>
	<g>
		<path style="fill:#0066FF;" d="M190.856,8.043v0.131c-0.311,0.03-0.564,0.092-0.761,0.185c-0.196,0.093-0.391,0.235-0.582,0.425
			s-0.351,0.403-0.477,0.637c-0.126,0.234-0.23,0.513-0.315,0.834c0.339-0.232,0.679-0.349,1.02-0.349
			c0.327,0,0.61,0.132,0.851,0.395c0.24,0.264,0.36,0.603,0.36,1.017c0,0.4-0.122,0.764-0.364,1.094c-0.291,0.4-0.677,0.6-1.157,0.6
			c-0.327,0-0.604-0.108-0.833-0.324c-0.446-0.421-0.67-0.967-0.67-1.638c0-0.428,0.086-0.835,0.258-1.221s0.417-0.728,0.735-1.027
			s0.624-0.5,0.916-0.604c0.291-0.104,0.563-0.155,0.814-0.155H190.856z M188.662,10.514c-0.043,0.317-0.064,0.574-0.064,0.769
			c0,0.226,0.042,0.471,0.126,0.736c0.083,0.265,0.207,0.475,0.372,0.63c0.12,0.111,0.266,0.166,0.438,0.166
			c0.205,0,0.388-0.097,0.549-0.29s0.241-0.468,0.241-0.826c0-0.402-0.08-0.75-0.239-1.044c-0.16-0.294-0.388-0.441-0.682-0.441
			c-0.089,0-0.185,0.019-0.287,0.056C189.013,10.308,188.861,10.389,188.662,10.514z"/>
	</g>
	<g>
		<path style="fill:#0066FF;" d="M155.817,17.731v0.131c-0.311,0.03-0.564,0.092-0.761,0.186c-0.196,0.093-0.391,0.234-0.582,0.425
			s-0.351,0.403-0.477,0.637c-0.126,0.234-0.23,0.513-0.315,0.835c0.339-0.233,0.679-0.35,1.02-0.35c0.327,0,0.61,0.132,0.851,0.396
			s0.36,0.602,0.36,1.016c0,0.4-0.122,0.765-0.364,1.094c-0.291,0.4-0.677,0.601-1.157,0.601c-0.327,0-0.604-0.108-0.833-0.325
			c-0.446-0.421-0.67-0.967-0.67-1.637c0-0.429,0.086-0.835,0.258-1.221s0.417-0.729,0.735-1.027s0.624-0.5,0.916-0.604
			c0.291-0.104,0.563-0.155,0.814-0.155H155.817z M153.623,20.202c-0.043,0.317-0.064,0.573-0.064,0.769
			c0,0.226,0.042,0.472,0.126,0.736c0.083,0.265,0.207,0.475,0.372,0.63c0.12,0.11,0.266,0.165,0.438,0.165
			c0.205,0,0.388-0.096,0.549-0.289c0.161-0.192,0.241-0.468,0.241-0.825c0-0.402-0.08-0.751-0.239-1.045
			c-0.16-0.294-0.388-0.441-0.682-0.441c-0.089,0-0.185,0.02-0.287,0.057C153.974,19.996,153.822,20.077,153.623,20.202z"/>
	</g>
	<g>
		<path style="fill:#0066FF;" d="M100.596,2.923l2.014-0.982h0.202v6.988c0,0.464,0.019,0.753,0.058,0.867
			c0.039,0.114,0.119,0.201,0.241,0.262s0.37,0.096,0.745,0.104v0.226h-3.113v-0.226c0.391-0.008,0.643-0.042,0.757-0.101
			c0.114-0.059,0.193-0.138,0.238-0.238s0.067-0.398,0.067-0.895V4.461c0-0.602-0.021-0.988-0.062-1.159
			c-0.028-0.13-0.08-0.226-0.155-0.287c-0.076-0.061-0.166-0.092-0.271-0.092c-0.151,0-0.36,0.063-0.629,0.189L100.596,2.923z"/>
		<path style="fill:#0066FF;" d="M147.658,2.923l2.014-0.982h0.202v6.988c0,0.464,0.019,0.753,0.058,0.867
			c0.039,0.114,0.119,0.201,0.241,0.262s0.37,0.096,0.745,0.104v0.226h-3.113v-0.226c0.391-0.008,0.643-0.042,0.757-0.101
			c0.114-0.059,0.193-0.138,0.238-0.238s0.067-0.398,0.067-0.895V4.461c0-0.602-0.021-0.988-0.062-1.159
			c-0.028-0.13-0.08-0.226-0.155-0.287c-0.076-0.061-0.166-0.092-0.271-0.092c-0.151,0-0.36,0.063-0.629,0.189L147.658,2.923z"/>
	</g>
	<g>
		<path style="fill:#0066FF;" d="M2.612,10.728V14h1.819c0.472,0,0.788-0.071,0.946-0.213c0.212-0.188,0.33-0.517,0.354-0.989h0.226
			v2.881H5.731c-0.057-0.402-0.114-0.661-0.171-0.775c-0.073-0.143-0.193-0.254-0.36-0.335c-0.167-0.082-0.423-0.122-0.769-0.122
			H2.612v2.729c0,0.365,0.016,0.589,0.049,0.668s0.089,0.143,0.171,0.189s0.236,0.07,0.464,0.07H4.7
			c0.468,0,0.808-0.033,1.019-0.098c0.212-0.065,0.415-0.193,0.61-0.385c0.252-0.253,0.511-0.633,0.775-1.142h0.244l-0.714,2.075
			H0.256v-0.226h0.293c0.195,0,0.38-0.047,0.555-0.141c0.13-0.065,0.219-0.163,0.266-0.293s0.07-0.396,0.07-0.8v-5.377
			c0-0.525-0.053-0.849-0.159-0.971c-0.146-0.163-0.391-0.244-0.732-0.244H0.256v-0.226h6.378l0.091,1.812H6.488
			c-0.086-0.435-0.18-0.734-0.284-0.897c-0.104-0.163-0.257-0.287-0.461-0.373c-0.163-0.061-0.449-0.091-0.86-0.091H2.612z"/>
		<path style="fill:#0066FF;" d="M9.644,13.981c0.655-0.79,1.279-1.185,1.874-1.185c0.305,0,0.568,0.077,0.788,0.229
			c0.22,0.153,0.395,0.404,0.524,0.754c0.09,0.244,0.135,0.619,0.135,1.123v2.386c0,0.354,0.028,0.595,0.085,0.721
			c0.045,0.102,0.117,0.181,0.217,0.238c0.1,0.057,0.284,0.085,0.553,0.085v0.22h-2.765v-0.22h0.116c0.261,0,0.443-0.04,0.546-0.119
			c0.104-0.079,0.176-0.196,0.217-0.351c0.016-0.062,0.024-0.253,0.024-0.574V15c0-0.509-0.066-0.878-0.198-1.108
			c-0.132-0.229-0.355-0.345-0.668-0.345c-0.484,0-0.966,0.265-1.446,0.793v2.948c0,0.379,0.022,0.612,0.067,0.702
			c0.057,0.118,0.135,0.204,0.235,0.26c0.1,0.055,0.302,0.082,0.607,0.082v0.22H7.788v-0.22H7.91c0.285,0,0.477-0.072,0.577-0.217
			c0.1-0.145,0.149-0.42,0.149-0.827v-2.075c0-0.671-0.015-1.08-0.046-1.227c-0.03-0.146-0.077-0.246-0.14-0.299
			c-0.063-0.053-0.147-0.08-0.253-0.08c-0.114,0-0.25,0.031-0.409,0.091l-0.092-0.22l1.685-0.684h0.263V13.981z"/>
		<path style="fill:#0066FF;" d="M19.049,13.987c0.407-0.407,0.647-0.641,0.72-0.702c0.183-0.154,0.38-0.274,0.592-0.36
			c0.211-0.085,0.421-0.128,0.628-0.128c0.35,0,0.651,0.102,0.903,0.306c0.252,0.203,0.421,0.498,0.506,0.885
			c0.419-0.488,0.773-0.809,1.062-0.961c0.289-0.152,0.586-0.229,0.891-0.229c0.297,0,0.561,0.077,0.791,0.229
			c0.23,0.153,0.412,0.402,0.546,0.748c0.089,0.236,0.134,0.606,0.134,1.111v2.404c0,0.351,0.026,0.59,0.08,0.721
			c0.041,0.089,0.116,0.166,0.226,0.229c0.11,0.063,0.289,0.095,0.537,0.095v0.22h-2.759v-0.22h0.116
			c0.24,0,0.427-0.047,0.562-0.141c0.093-0.064,0.161-0.169,0.201-0.312c0.016-0.068,0.024-0.266,0.024-0.592v-2.404
			c0-0.456-0.055-0.777-0.165-0.965c-0.158-0.26-0.413-0.391-0.763-0.391c-0.216,0-0.433,0.054-0.65,0.162
			c-0.218,0.108-0.481,0.308-0.791,0.601l-0.012,0.067l0.012,0.263v2.667c0,0.383,0.021,0.621,0.064,0.715
			c0.043,0.093,0.123,0.172,0.241,0.234c0.118,0.063,0.319,0.095,0.604,0.095v0.22h-2.826v-0.22c0.309,0,0.522-0.036,0.638-0.11
			c0.116-0.072,0.196-0.183,0.241-0.329c0.021-0.069,0.031-0.271,0.031-0.604v-2.404c0-0.456-0.067-0.784-0.202-0.983
			c-0.179-0.26-0.429-0.391-0.75-0.391c-0.22,0-0.438,0.059-0.653,0.177c-0.338,0.179-0.598,0.38-0.781,0.604v2.997
			c0,0.366,0.025,0.604,0.076,0.715c0.051,0.109,0.126,0.191,0.226,0.247c0.1,0.055,0.302,0.082,0.607,0.082v0.22h-2.765v-0.22
			c0.256,0,0.436-0.027,0.537-0.082c0.102-0.056,0.179-0.143,0.232-0.263s0.08-0.354,0.08-0.699v-2.136
			c0-0.615-0.019-1.011-0.055-1.19c-0.028-0.134-0.073-0.227-0.134-0.278c-0.061-0.051-0.145-0.076-0.25-0.076
			c-0.114,0-0.25,0.031-0.409,0.091l-0.092-0.22l1.685-0.684h0.263V13.987z"/>
		<path style="fill:#0066FF;" d="M28.89,12.797v4.492c0,0.351,0.025,0.583,0.076,0.699s0.126,0.202,0.226,0.26
			c0.1,0.057,0.282,0.085,0.546,0.085v0.22h-2.716v-0.22c0.272,0,0.456-0.026,0.549-0.079s0.168-0.141,0.223-0.263
			c0.055-0.122,0.083-0.356,0.083-0.702v-2.154c0-0.606-0.018-0.999-0.055-1.178c-0.028-0.13-0.073-0.221-0.134-0.272
			c-0.062-0.051-0.145-0.076-0.25-0.076c-0.114,0-0.252,0.031-0.415,0.091l-0.085-0.22l1.685-0.684H28.89z M28.383,9.874
			c0.171,0,0.316,0.06,0.437,0.18S29,10.319,29,10.49s-0.06,0.317-0.18,0.439s-0.266,0.183-0.437,0.183s-0.317-0.061-0.439-0.183
			s-0.183-0.269-0.183-0.439s0.06-0.316,0.18-0.437S28.208,9.874,28.383,9.874z"/>
		<path style="fill:#0066FF;" d="M32.395,9.874v7.416c0,0.351,0.025,0.582,0.076,0.696c0.051,0.113,0.129,0.2,0.235,0.259
			c0.106,0.06,0.303,0.089,0.592,0.089v0.22h-2.741v-0.22c0.256,0,0.431-0.026,0.525-0.079s0.167-0.141,0.22-0.263
			s0.079-0.356,0.079-0.702v-5.078c0-0.63-0.014-1.018-0.042-1.163c-0.028-0.144-0.074-0.243-0.137-0.296
			c-0.063-0.053-0.144-0.08-0.241-0.08c-0.106,0-0.24,0.033-0.403,0.098l-0.104-0.213l1.667-0.684H32.395z"/>
		<path style="fill:#0066FF;" d="M35.736,12.797v5.628c0,0.956-0.204,1.666-0.61,2.13s-0.936,0.695-1.587,0.695
			c-0.37,0-0.645-0.066-0.824-0.201c-0.179-0.134-0.269-0.272-0.269-0.415s0.05-0.265,0.149-0.366s0.217-0.152,0.351-0.152
			c0.106,0,0.214,0.026,0.324,0.079c0.069,0.028,0.202,0.132,0.4,0.309c0.197,0.177,0.363,0.266,0.497,0.266
			c0.098,0,0.193-0.038,0.287-0.113s0.163-0.201,0.208-0.378c0.045-0.178,0.067-0.561,0.067-1.15v-3.98
			c0-0.614-0.018-1.009-0.055-1.184c-0.028-0.134-0.073-0.227-0.134-0.278c-0.061-0.051-0.145-0.076-0.25-0.076
			c-0.114,0-0.252,0.031-0.415,0.091l-0.085-0.22l1.685-0.684H35.736z M35.211,9.867c0.175,0,0.323,0.062,0.445,0.184
			s0.184,0.271,0.184,0.445c0,0.171-0.062,0.317-0.184,0.439s-0.271,0.183-0.445,0.183c-0.171,0-0.317-0.061-0.439-0.183
			s-0.183-0.269-0.183-0.439c0-0.175,0.061-0.323,0.183-0.445S35.04,9.867,35.211,9.867z"/>
		<path style="fill:#0066FF;" d="M40.04,12.797c0.846,0,1.526,0.322,2.039,0.965c0.436,0.549,0.653,1.18,0.653,1.892
			c0,0.501-0.12,1.007-0.36,1.521c-0.24,0.512-0.571,0.898-0.992,1.159c-0.421,0.261-0.89,0.391-1.407,0.391
			c-0.842,0-1.511-0.336-2.008-1.007c-0.419-0.565-0.629-1.201-0.629-1.904c0-0.513,0.127-1.022,0.382-1.529
			c0.254-0.506,0.589-0.881,1.004-1.123C39.136,12.918,39.576,12.797,40.04,12.797z M39.85,13.194c-0.215,0-0.432,0.064-0.65,0.192
			c-0.218,0.128-0.394,0.353-0.528,0.674s-0.201,0.734-0.201,1.239c0,0.813,0.162,1.516,0.485,2.105
			c0.324,0.59,0.75,0.885,1.279,0.885c0.395,0,0.72-0.162,0.977-0.488c0.256-0.325,0.385-0.885,0.385-1.678
			c0-0.993-0.214-1.774-0.641-2.344C40.666,13.389,40.298,13.194,39.85,13.194z"/>
		<path style="fill:#0066FF;" d="M45.185,13.981c0.655-0.79,1.279-1.185,1.874-1.185c0.305,0,0.568,0.077,0.788,0.229
			c0.22,0.153,0.395,0.404,0.524,0.754c0.09,0.244,0.135,0.619,0.135,1.123v2.386c0,0.354,0.028,0.595,0.085,0.721
			c0.045,0.102,0.117,0.181,0.217,0.238c0.1,0.057,0.284,0.085,0.553,0.085v0.22h-2.765v-0.22h0.116c0.261,0,0.443-0.04,0.546-0.119
			c0.104-0.079,0.176-0.196,0.217-0.351c0.016-0.062,0.024-0.253,0.024-0.574V15c0-0.509-0.066-0.878-0.198-1.108
			c-0.132-0.229-0.355-0.345-0.668-0.345c-0.484,0-0.966,0.265-1.446,0.793v2.948c0,0.379,0.022,0.612,0.067,0.702
			c0.057,0.118,0.135,0.204,0.235,0.26c0.1,0.055,0.302,0.082,0.607,0.082v0.22H43.33v-0.22h0.122c0.285,0,0.477-0.072,0.577-0.217
			c0.1-0.145,0.149-0.42,0.149-0.827v-2.075c0-0.671-0.015-1.08-0.046-1.227c-0.03-0.146-0.077-0.246-0.14-0.299
			c-0.063-0.053-0.147-0.08-0.253-0.08c-0.114,0-0.25,0.031-0.409,0.091l-0.092-0.22l1.685-0.684h0.263V13.981z"/>
		<path style="fill:#0066FF;" d="M53.754,17.924c-0.273,0.285-0.54,0.489-0.8,0.613s-0.541,0.187-0.842,0.187
			c-0.61,0-1.144-0.255-1.599-0.766s-0.684-1.167-0.684-1.969s0.252-1.535,0.757-2.2c0.504-0.666,1.153-0.998,1.947-0.998
			c0.492,0,0.899,0.157,1.221,0.47v-1.031c0-0.639-0.016-1.031-0.046-1.178c-0.031-0.146-0.079-0.247-0.144-0.299
			s-0.146-0.08-0.244-0.08c-0.106,0-0.246,0.033-0.421,0.098l-0.08-0.213l1.667-0.684h0.274v6.463c0,0.655,0.015,1.056,0.046,1.199
			c0.03,0.145,0.079,0.245,0.146,0.303c0.067,0.057,0.146,0.085,0.235,0.085c0.11,0,0.256-0.034,0.439-0.104l0.067,0.214
			l-1.66,0.689h-0.28V17.924z M53.754,17.497v-2.881c-0.024-0.277-0.098-0.529-0.22-0.757c-0.122-0.228-0.284-0.4-0.485-0.516
			c-0.202-0.116-0.398-0.174-0.589-0.174c-0.358,0-0.678,0.161-0.958,0.482c-0.37,0.423-0.555,1.042-0.555,1.855
			c0,0.822,0.179,1.452,0.537,1.89c0.358,0.438,0.757,0.656,1.196,0.656C53.05,18.053,53.408,17.867,53.754,17.497z"/>
		<path style="fill:#0066FF;" d="M56.995,15.067c-0.004,0.83,0.197,1.481,0.604,1.953c0.407,0.473,0.885,0.708,1.435,0.708
			c0.366,0,0.685-0.101,0.955-0.302s0.498-0.546,0.681-1.034l0.189,0.121c-0.086,0.558-0.334,1.065-0.745,1.523
			c-0.411,0.458-0.925,0.687-1.544,0.687c-0.671,0-1.246-0.262-1.724-0.784c-0.479-0.522-0.717-1.226-0.717-2.109
			c0-0.956,0.245-1.702,0.735-2.237s1.106-0.803,1.847-0.803c0.626,0,1.141,0.207,1.544,0.62s0.604,0.965,0.604,1.657H56.995z
			 M56.995,14.714h2.588c-0.021-0.358-0.063-0.61-0.128-0.757C59.353,13.729,59.202,13.55,59,13.42
			c-0.201-0.13-0.412-0.195-0.631-0.195c-0.338,0-0.64,0.131-0.907,0.394C57.195,13.88,57.04,14.246,56.995,14.714z"/>
		<path style="fill:#0066FF;" d="M63.451,9.874v7.416c0,0.351,0.025,0.582,0.076,0.696c0.051,0.113,0.129,0.2,0.235,0.259
			c0.106,0.06,0.303,0.089,0.592,0.089v0.22h-2.741v-0.22c0.256,0,0.431-0.026,0.525-0.079s0.167-0.141,0.22-0.263
			s0.079-0.356,0.079-0.702v-5.078c0-0.63-0.014-1.018-0.042-1.163c-0.028-0.144-0.074-0.243-0.137-0.296
			c-0.063-0.053-0.144-0.08-0.241-0.08c-0.106,0-0.24,0.033-0.403,0.098l-0.104-0.213l1.667-0.684H63.451z"/>
		<path style="fill:#0066FF;" d="M172.25,11.088l2.014-0.982h0.202v6.988c0,0.464,0.019,0.753,0.058,0.867
			c0.039,0.113,0.119,0.201,0.241,0.262c0.122,0.062,0.37,0.096,0.745,0.104v0.226h-3.113v-0.226
			c0.391-0.009,0.643-0.042,0.757-0.101c0.114-0.06,0.193-0.139,0.238-0.238s0.067-0.397,0.067-0.895v-4.468
			c0-0.602-0.021-0.988-0.062-1.159c-0.028-0.13-0.08-0.226-0.155-0.287c-0.076-0.061-0.166-0.092-0.271-0.092
			c-0.151,0-0.36,0.063-0.629,0.189L172.25,11.088z"/>
		<path style="fill:#0066FF;" d="M177.486,14.463c0-0.944,0.143-1.757,0.428-2.438c0.285-0.681,0.663-1.189,1.135-1.523
			c0.367-0.264,0.745-0.396,1.136-0.396c0.635,0,1.204,0.323,1.709,0.971c0.631,0.801,0.946,1.888,0.946,3.259
			c0,0.96-0.139,1.776-0.415,2.448c-0.277,0.671-0.63,1.158-1.06,1.461c-0.429,0.304-0.843,0.455-1.242,0.455
			c-0.789,0-1.446-0.466-1.971-1.397C177.709,16.516,177.486,15.57,177.486,14.463z M178.684,14.616c0,1.139,0.14,2.069,0.421,2.789
			c0.231,0.606,0.577,0.909,1.037,0.909c0.22,0,0.448-0.099,0.684-0.296c0.236-0.197,0.415-0.528,0.537-0.991
			c0.188-0.7,0.281-1.687,0.281-2.961c0-0.944-0.098-1.731-0.293-2.362c-0.146-0.468-0.336-0.799-0.567-0.995
			c-0.167-0.135-0.369-0.202-0.604-0.202c-0.277,0-0.523,0.124-0.739,0.373c-0.293,0.337-0.492,0.869-0.598,1.593
			S178.684,13.912,178.684,14.616z"/>
	</g>
	<g>
		<path style="fill:#0066FF;" d="M79.072,20.717l2.014-0.982h0.202v6.988c0,0.464,0.019,0.753,0.058,0.867
			c0.039,0.113,0.119,0.201,0.241,0.262c0.122,0.062,0.37,0.096,0.745,0.104v0.226h-3.113v-0.226
			c0.391-0.009,0.643-0.042,0.757-0.101c0.114-0.06,0.193-0.139,0.238-0.238c0.044-0.1,0.067-0.397,0.067-0.895v-4.468
			c0-0.602-0.021-0.988-0.061-1.159c-0.028-0.131-0.081-0.227-0.156-0.287s-0.166-0.092-0.271-0.092c-0.15,0-0.36,0.063-0.628,0.189
			L79.072,20.717z"/>
		<path style="fill:#0066FF;" d="M86.097,24.092c0-0.943,0.143-1.756,0.427-2.438s0.663-1.189,1.135-1.523
			c0.366-0.265,0.745-0.396,1.135-0.396c0.635,0,1.205,0.323,1.709,0.971c0.631,0.802,0.946,1.888,0.946,3.259
			c0,0.961-0.139,1.776-0.415,2.448c-0.277,0.671-0.63,1.158-1.059,1.461c-0.43,0.304-0.843,0.455-1.242,0.455
			c-0.79,0-1.447-0.466-1.971-1.397C86.318,26.146,86.097,25.199,86.097,24.092z M87.293,24.245c0,1.139,0.14,2.069,0.421,2.789
			c0.231,0.606,0.578,0.909,1.037,0.909c0.22,0,0.448-0.099,0.684-0.296c0.236-0.197,0.415-0.528,0.537-0.991
			c0.188-0.7,0.281-1.688,0.281-2.961c0-0.943-0.098-1.731-0.293-2.361c-0.146-0.469-0.336-0.8-0.568-0.995
			c-0.167-0.135-0.368-0.202-0.604-0.202c-0.277,0-0.523,0.125-0.739,0.373c-0.293,0.338-0.492,0.868-0.598,1.593
			S87.293,23.541,87.293,24.245z"/>
		<path style="fill:#0066FF;" d="M92.347,24.092c0-0.943,0.143-1.756,0.427-2.438s0.663-1.189,1.135-1.523
			c0.366-0.265,0.745-0.396,1.135-0.396c0.635,0,1.205,0.323,1.709,0.971c0.63,0.802,0.947,1.888,0.947,3.259
			c0,0.961-0.139,1.776-0.416,2.448c-0.276,0.671-0.629,1.158-1.059,1.461c-0.43,0.304-0.843,0.455-1.242,0.455
			c-0.79,0-1.447-0.466-1.971-1.397C92.568,26.146,92.347,25.199,92.347,24.092z M93.543,24.245c0,1.139,0.14,2.069,0.421,2.789
			c0.231,0.606,0.578,0.909,1.037,0.909c0.22,0,0.448-0.099,0.684-0.296c0.236-0.197,0.415-0.528,0.537-0.991
			c0.188-0.7,0.281-1.688,0.281-2.961c0-0.943-0.098-1.731-0.293-2.361c-0.146-0.469-0.336-0.8-0.568-0.995
			c-0.167-0.135-0.368-0.202-0.604-0.202c-0.277,0-0.523,0.125-0.739,0.373c-0.293,0.338-0.492,0.868-0.598,1.593
			S93.543,23.541,93.543,24.245z"/>
		<path style="fill:#0066FF;" d="M98.596,24.092c0-0.943,0.143-1.756,0.428-2.438s0.663-1.189,1.135-1.523
			c0.367-0.265,0.745-0.396,1.136-0.396c0.635,0,1.204,0.323,1.709,0.971c0.631,0.802,0.946,1.888,0.946,3.259
			c0,0.961-0.139,1.776-0.415,2.448c-0.277,0.671-0.63,1.158-1.06,1.461c-0.429,0.304-0.843,0.455-1.242,0.455
			c-0.789,0-1.446-0.466-1.971-1.397C98.818,26.146,98.596,25.199,98.596,24.092z M99.793,24.245c0,1.139,0.14,2.069,0.421,2.789
			c0.231,0.606,0.577,0.909,1.037,0.909c0.22,0,0.448-0.099,0.684-0.296c0.236-0.197,0.415-0.528,0.537-0.991
			c0.188-0.7,0.281-1.688,0.281-2.961c0-0.943-0.098-1.731-0.293-2.361c-0.146-0.469-0.336-0.8-0.567-0.995
			c-0.167-0.135-0.369-0.202-0.604-0.202c-0.277,0-0.523,0.125-0.739,0.373c-0.293,0.338-0.492,0.868-0.598,1.593
			S99.793,23.541,99.793,24.245z"/>
		<path style="fill:#0066FF;" d="M107.608,24.092c0-0.943,0.143-1.756,0.428-2.438s0.663-1.189,1.135-1.523
			c0.367-0.265,0.745-0.396,1.136-0.396c0.635,0,1.204,0.323,1.709,0.971c0.631,0.802,0.946,1.888,0.946,3.259
			c0,0.961-0.139,1.776-0.415,2.448c-0.277,0.671-0.63,1.158-1.06,1.461c-0.429,0.304-0.843,0.455-1.242,0.455
			c-0.789,0-1.446-0.466-1.971-1.397C107.831,26.146,107.608,25.199,107.608,24.092z M108.806,24.245
			c0,1.139,0.14,2.069,0.421,2.789c0.231,0.606,0.577,0.909,1.037,0.909c0.22,0,0.448-0.099,0.684-0.296
			c0.236-0.197,0.415-0.528,0.537-0.991c0.188-0.7,0.281-1.688,0.281-2.961c0-0.943-0.098-1.731-0.293-2.361
			c-0.146-0.469-0.336-0.8-0.567-0.995c-0.167-0.135-0.369-0.202-0.604-0.202c-0.277,0-0.523,0.125-0.739,0.373
			c-0.293,0.338-0.492,0.868-0.598,1.593S108.806,23.541,108.806,24.245z"/>
		<path style="fill:#0066FF;" d="M113.858,24.092c0-0.943,0.143-1.756,0.428-2.438s0.663-1.189,1.135-1.523
			c0.367-0.265,0.745-0.396,1.136-0.396c0.635,0,1.204,0.323,1.709,0.971c0.631,0.802,0.946,1.888,0.946,3.259
			c0,0.961-0.139,1.776-0.415,2.448c-0.277,0.671-0.63,1.158-1.06,1.461c-0.429,0.304-0.843,0.455-1.242,0.455
			c-0.789,0-1.446-0.466-1.971-1.397C114.081,26.146,113.858,25.199,113.858,24.092z M115.056,24.245
			c0,1.139,0.14,2.069,0.421,2.789c0.231,0.606,0.577,0.909,1.037,0.909c0.22,0,0.448-0.099,0.684-0.296
			c0.236-0.197,0.415-0.528,0.537-0.991c0.188-0.7,0.281-1.688,0.281-2.961c0-0.943-0.098-1.731-0.293-2.361
			c-0.146-0.469-0.336-0.8-0.567-0.995c-0.167-0.135-0.369-0.202-0.604-0.202c-0.277,0-0.523,0.125-0.739,0.373
			c-0.293,0.338-0.492,0.868-0.598,1.593S115.056,23.541,115.056,24.245z"/>
		<path style="fill:#0066FF;" d="M120.108,24.092c0-0.943,0.143-1.756,0.428-2.438s0.663-1.189,1.135-1.523
			c0.367-0.265,0.745-0.396,1.136-0.396c0.635,0,1.204,0.323,1.709,0.971c0.631,0.802,0.946,1.888,0.946,3.259
			c0,0.961-0.139,1.776-0.415,2.448c-0.277,0.671-0.63,1.158-1.06,1.461c-0.429,0.304-0.843,0.455-1.242,0.455
			c-0.789,0-1.446-0.466-1.971-1.397C120.331,26.146,120.108,25.199,120.108,24.092z M121.306,24.245
			c0,1.139,0.14,2.069,0.421,2.789c0.231,0.606,0.577,0.909,1.037,0.909c0.22,0,0.448-0.099,0.684-0.296
			c0.236-0.197,0.415-0.528,0.537-0.991c0.188-0.7,0.281-1.688,0.281-2.961c0-0.943-0.098-1.731-0.293-2.361
			c-0.146-0.469-0.336-0.8-0.567-0.995c-0.167-0.135-0.369-0.202-0.604-0.202c-0.277,0-0.523,0.125-0.739,0.373
			c-0.293,0.338-0.492,0.868-0.598,1.593S121.306,23.541,121.306,24.245z"/>
	</g>
	<g>
		<path style="fill:#0066FF;" d="M141.348,20.785l2.014-0.982h0.202v6.988c0,0.464,0.019,0.753,0.058,0.867
			c0.039,0.113,0.119,0.201,0.241,0.262c0.122,0.062,0.37,0.096,0.745,0.104v0.226h-3.113v-0.226
			c0.391-0.009,0.643-0.042,0.757-0.101c0.114-0.06,0.193-0.139,0.238-0.238s0.067-0.397,0.067-0.895v-4.468
			c0-0.602-0.021-0.988-0.062-1.159c-0.028-0.131-0.08-0.227-0.155-0.287c-0.076-0.061-0.166-0.092-0.271-0.092
			c-0.151,0-0.36,0.063-0.629,0.189L141.348,20.785z"/>
		<path style="fill:#0066FF;" d="M146.584,24.16c0-0.943,0.143-1.756,0.428-2.438s0.663-1.189,1.135-1.523
			c0.367-0.265,0.745-0.396,1.136-0.396c0.635,0,1.204,0.323,1.709,0.971c0.631,0.802,0.946,1.888,0.946,3.259
			c0,0.961-0.139,1.776-0.415,2.448c-0.277,0.671-0.63,1.158-1.06,1.461c-0.429,0.304-0.843,0.455-1.242,0.455
			c-0.789,0-1.446-0.466-1.971-1.397C146.807,26.214,146.584,25.268,146.584,24.16z M147.781,24.313c0,1.139,0.14,2.069,0.421,2.789
			c0.231,0.606,0.577,0.909,1.037,0.909c0.22,0,0.448-0.099,0.684-0.296c0.236-0.197,0.415-0.528,0.537-0.991
			c0.188-0.7,0.281-1.688,0.281-2.961c0-0.943-0.098-1.731-0.293-2.361c-0.146-0.469-0.336-0.8-0.567-0.995
			c-0.167-0.135-0.369-0.202-0.604-0.202c-0.277,0-0.523,0.125-0.739,0.373c-0.293,0.338-0.492,0.868-0.598,1.593
			S147.781,23.609,147.781,24.313z"/>
	</g>
	<g>
		<path style="fill:#0066FF;" d="M183.803,10.895h3.705v0.349h-3.705V10.895z"/>
	</g>
	<g>
		<path style="fill:#0066FF;" d="M67.843,13.92h6.409v0.592h-6.409V13.92z M67.843,16.197h6.409v0.604h-6.409V16.197z"/>
		<path style="fill:#0066FF;" d="M130.104,13.92h6.409v0.592h-6.409V13.92z M130.104,16.197h6.409v0.604h-6.409V16.197z"/>
		<path style="fill:#0066FF;" d="M161.976,13.92h6.409v0.592h-6.409V13.92z M161.976,16.197h6.409v0.604h-6.409V16.197z"/>
	</g>
</g>
<g id="theGroup">
</g>
</svg>
