<?xml version="1.0" encoding="iso-8859-1"?>
<!-- Generator: Adobe Illustrator 16.0.0, SVG Export Plug-In . SVG Version: 6.00 Build 0)  -->
<!DOCTYPE svg PUBLIC "-//W3C//DTD SVG 1.1//EN" "http://www.w3.org/Graphics/SVG/1.1/DTD/svg11.dtd">
<svg version="1.1" id="Lager_1" xmlns="http://www.w3.org/2000/svg" xmlns:xlink="http://www.w3.org/1999/xlink" x="0px" y="0px"
	 width="7.922px" height="32.044px" viewBox="0 0 7.922 32.044" style="enable-background:new 0 0 7.922 32.044;"
	 xml:space="preserve">
<g>
	
		<line style="fill:none;stroke:#000000;stroke-width:0.5;stroke-linecap:square;stroke-miterlimit:10;" x1="0.25" y1="15.242" x2="7.672" y2="15.242"/>
	<g>
		<path d="M6.547,1.941v0.226C6.01,2.22,5.57,2.327,5.231,2.487C4.891,2.648,4.556,2.894,4.224,3.223
			C3.892,3.553,3.618,3.92,3.4,4.324C3.182,4.729,3,5.211,2.854,5.769c0.586-0.403,1.174-0.604,1.764-0.604
			c0.566,0,1.056,0.228,1.471,0.684c0.415,0.455,0.622,1.041,0.622,1.758c0,0.691-0.209,1.322-0.629,1.892
			c-0.504,0.692-1.172,1.038-2.001,1.038c-0.565,0-1.046-0.188-1.44-0.562C1.867,9.245,1.48,8.301,1.48,7.142
			c0-0.741,0.148-1.444,0.445-2.112c0.297-0.667,0.721-1.259,1.273-1.775C3.75,2.736,4.278,2.389,4.782,2.21
			c0.505-0.18,0.975-0.269,1.41-0.269H6.547z M2.75,6.214c-0.073,0.549-0.11,0.992-0.11,1.33c0,0.391,0.072,0.815,0.217,1.272
			c0.144,0.458,0.359,0.821,0.644,1.09c0.207,0.191,0.459,0.287,0.757,0.287c0.354,0,0.67-0.167,0.949-0.501
			c0.278-0.333,0.418-0.81,0.418-1.428c0-0.696-0.139-1.298-0.415-1.807S4.541,5.695,4.032,5.695c-0.155,0-0.32,0.032-0.498,0.098
			C3.357,5.857,3.096,5.998,2.75,6.214z"/>
	</g>
	<g>
		<path d="M2.093,19.935H6.53v0.231l-2.759,8.216H3.088l2.473-7.452H3.283c-0.459,0-0.787,0.055-0.982,0.164
			c-0.342,0.188-0.616,0.477-0.824,0.867L1.3,21.894L2.093,19.935z"/>
	</g>
</g>
<g id="theGroup">
</g>
</svg>
