<?xml version="1.0" encoding="iso-8859-1"?>
<!-- Generator: Adobe Illustrator 16.0.0, SVG Export Plug-In . SVG Version: 6.00 Build 0)  -->
<!DOCTYPE svg PUBLIC "-//W3C//DTD SVG 1.1//EN" "http://www.w3.org/Graphics/SVG/1.1/DTD/svg11.dtd">
<svg version="1.1" id="Lager_1" xmlns="http://www.w3.org/2000/svg" xmlns:xlink="http://www.w3.org/1999/xlink" x="0px" y="0px"
	 width="7.531px" height="32.044px" viewBox="0 0 7.531 32.044" style="enable-background:new 0 0 7.531 32.044;"
	 xml:space="preserve">
<g>
	
		<line style="fill:none;stroke:#000000;stroke-width:0.5;stroke-linecap:square;stroke-miterlimit:10;" x1="0.25" y1="15.242" x2="7.281" y2="15.242"/>
	<g>
		<path d="M2.096,2.924L4.11,1.941h0.202V8.93c0,0.464,0.019,0.753,0.058,0.867C4.408,9.91,4.488,9.998,4.61,10.059
			c0.122,0.062,0.37,0.096,0.745,0.104v0.226H2.242v-0.226c0.391-0.009,0.643-0.042,0.757-0.102
			c0.114-0.059,0.193-0.138,0.238-0.237c0.044-0.1,0.067-0.398,0.067-0.895V4.462c0-0.603-0.021-0.988-0.061-1.159
			C3.215,3.172,3.163,3.076,3.087,3.016C3.012,2.954,2.922,2.924,2.816,2.924c-0.15,0-0.36,0.063-0.628,0.189L2.096,2.924z"/>
	</g>
	<g>
		<path d="M1.29,28.382v-0.226c0.529-0.009,1.021-0.132,1.477-0.369c0.456-0.238,0.896-0.654,1.321-1.248
			c0.425-0.595,0.721-1.248,0.888-1.96c-0.639,0.411-1.217,0.616-1.733,0.616c-0.582,0-1.08-0.225-1.495-0.674
			s-0.623-1.047-0.623-1.791c0-0.725,0.208-1.37,0.623-1.936c0.5-0.688,1.153-1.031,1.959-1.031c0.68,0,1.262,0.281,1.746,0.842
			c0.594,0.696,0.891,1.555,0.891,2.576c0,0.92-0.226,1.777-0.678,2.572c-0.451,0.796-1.08,1.456-1.886,1.98
			c-0.655,0.432-1.369,0.647-2.143,0.647H1.29z M5.074,24.128c0.073-0.529,0.109-0.952,0.109-1.27c0-0.395-0.066-0.821-0.201-1.279
			c-0.134-0.457-0.324-0.809-0.57-1.053c-0.247-0.244-0.526-0.366-0.839-0.366c-0.362,0-0.68,0.163-0.952,0.488
			c-0.272,0.326-0.409,0.81-0.409,1.453c0,0.858,0.181,1.529,0.543,2.014c0.265,0.351,0.59,0.525,0.977,0.525
			c0.187,0,0.409-0.045,0.665-0.135C4.653,24.417,4.879,24.29,5.074,24.128z"/>
	</g>
</g>
<g id="theGroup">
</g>
</svg>
