<?xml version="1.0" encoding="iso-8859-1"?>
<!-- Generator: Adobe Illustrator 16.0.0, SVG Export Plug-In . SVG Version: 6.00 Build 0)  -->
<!DOCTYPE svg PUBLIC "-//W3C//DTD SVG 1.1//EN" "http://www.w3.org/Graphics/SVG/1.1/DTD/svg11.dtd">
<svg version="1.1" id="Lager_1" xmlns="http://www.w3.org/2000/svg" xmlns:xlink="http://www.w3.org/1999/xlink" x="0px" y="0px"
	 width="110.29px" height="32.655px" viewBox="0 0 110.29 32.655" style="enable-background:new 0 0 110.29 32.655;"
	 xml:space="preserve">
<g>
	
		<line style="fill:none;stroke:#0066FF;stroke-width:0.5;stroke-linecap:square;stroke-miterlimit:10;" x1="18.711" y1="15.854" x2="31.016" y2="15.854"/>
	
		<line style="fill:none;stroke:#0066FF;stroke-width:0.5;stroke-linecap:square;stroke-miterlimit:10;" x1="45.157" y1="15.854" x2="75.978" y2="15.854"/>
	
		<line style="fill:none;stroke:#0066FF;stroke-width:0.5;stroke-linecap:square;stroke-miterlimit:10;" x1="90.118" y1="15.854" x2="110.04" y2="15.854"/>
	<g>
		<path style="fill:#0066FF;" d="M19.59,3.535l2.014-0.982h0.202v6.988c0,0.464,0.019,0.753,0.058,0.867
			c0.039,0.114,0.119,0.201,0.241,0.262s0.37,0.096,0.745,0.104V11h-3.113v-0.226c0.391-0.008,0.643-0.042,0.757-0.101
			c0.114-0.059,0.193-0.138,0.238-0.238c0.044-0.1,0.067-0.398,0.067-0.895V5.073c0-0.602-0.021-0.988-0.061-1.159
			c-0.028-0.13-0.081-0.226-0.156-0.287s-0.166-0.092-0.271-0.092c-0.15,0-0.36,0.063-0.628,0.189L19.59,3.535z"/>
		<path style="fill:#0066FF;" d="M24.827,6.911c0-0.944,0.143-1.757,0.427-2.438c0.285-0.681,0.663-1.189,1.135-1.523
			c0.366-0.264,0.745-0.396,1.135-0.396c0.635,0,1.205,0.323,1.709,0.971c0.631,0.801,0.946,1.888,0.946,3.259
			c0,0.96-0.139,1.776-0.415,2.448c-0.277,0.671-0.63,1.159-1.059,1.462c-0.43,0.303-0.843,0.455-1.242,0.455
			c-0.79,0-1.447-0.466-1.971-1.397C25.048,8.963,24.827,8.018,24.827,6.911z M26.023,7.063c0,1.139,0.14,2.069,0.421,2.789
			c0.231,0.606,0.578,0.909,1.037,0.909c0.22,0,0.448-0.098,0.684-0.296c0.236-0.197,0.415-0.528,0.537-0.992
			c0.188-0.7,0.281-1.687,0.281-2.96c0-0.944-0.098-1.731-0.293-2.362c-0.146-0.468-0.336-0.799-0.568-0.995
			c-0.167-0.135-0.368-0.202-0.604-0.202c-0.277,0-0.523,0.124-0.739,0.373c-0.293,0.337-0.492,0.869-0.598,1.593
			S26.023,6.359,26.023,7.063z"/>
		<path style="fill:#0066FF;" d="M51.669,9.407L51.089,11h-4.883v-0.226c1.437-1.311,2.447-2.381,3.033-3.211
			s0.879-1.589,0.879-2.276c0-0.525-0.161-0.956-0.482-1.294s-0.706-0.507-1.154-0.507c-0.407,0-0.772,0.119-1.095,0.357
			c-0.324,0.238-0.562,0.587-0.717,1.047h-0.226c0.102-0.753,0.363-1.331,0.784-1.733c0.421-0.403,0.947-0.604,1.578-0.604
			c0.671,0,1.232,0.216,1.682,0.647c0.449,0.431,0.674,0.94,0.674,1.526c0,0.419-0.098,0.838-0.293,1.257
			c-0.301,0.659-0.79,1.357-1.465,2.093c-1.013,1.107-1.646,1.774-1.898,2.002h2.161c0.439,0,0.748-0.016,0.924-0.049
			c0.177-0.032,0.337-0.098,0.479-0.198c0.143-0.1,0.267-0.241,0.373-0.424H51.669z"/>
		<path style="fill:#0066FF;" d="M52.639,6.911c0-0.944,0.143-1.757,0.427-2.438c0.285-0.681,0.663-1.189,1.135-1.523
			c0.366-0.264,0.745-0.396,1.135-0.396c0.635,0,1.204,0.323,1.709,0.971c0.631,0.801,0.946,1.888,0.946,3.259
			c0,0.96-0.139,1.776-0.415,2.448c-0.277,0.671-0.63,1.159-1.06,1.462c-0.429,0.303-0.843,0.455-1.242,0.455
			c-0.79,0-1.447-0.466-1.971-1.397C52.861,8.963,52.639,8.018,52.639,6.911z M53.835,7.063c0,1.139,0.14,2.069,0.421,2.789
			c0.231,0.606,0.578,0.909,1.037,0.909c0.22,0,0.448-0.098,0.684-0.296c0.236-0.197,0.415-0.528,0.537-0.992
			c0.188-0.7,0.281-1.687,0.281-2.96c0-0.944-0.098-1.731-0.293-2.362c-0.146-0.468-0.336-0.799-0.568-0.995
			c-0.167-0.135-0.368-0.202-0.604-0.202c-0.277,0-0.523,0.124-0.739,0.373c-0.293,0.337-0.492,0.869-0.598,1.593
			S53.835,6.359,53.835,7.063z"/>
		<path style="fill:#0066FF;" d="M64.54,3.535l2.014-0.982h0.202v6.988c0,0.464,0.019,0.753,0.058,0.867
			c0.039,0.114,0.119,0.201,0.241,0.262s0.37,0.096,0.745,0.104V11h-3.113v-0.226c0.391-0.008,0.643-0.042,0.757-0.101
			c0.114-0.059,0.193-0.138,0.238-0.238s0.067-0.398,0.067-0.895V5.073c0-0.602-0.021-0.988-0.062-1.159
			c-0.028-0.13-0.08-0.226-0.155-0.287c-0.076-0.061-0.166-0.092-0.271-0.092c-0.151,0-0.36,0.063-0.629,0.189L64.54,3.535z"/>
		<path style="fill:#0066FF;" d="M69.776,6.911c0-0.944,0.143-1.757,0.428-2.438c0.285-0.681,0.663-1.189,1.135-1.523
			c0.367-0.264,0.745-0.396,1.136-0.396c0.635,0,1.204,0.323,1.709,0.971c0.631,0.801,0.946,1.888,0.946,3.259
			c0,0.96-0.139,1.776-0.415,2.448c-0.277,0.671-0.63,1.159-1.06,1.462c-0.429,0.303-0.843,0.455-1.242,0.455
			c-0.789,0-1.446-0.466-1.971-1.397C69.999,8.963,69.776,8.018,69.776,6.911z M70.974,7.063c0,1.139,0.14,2.069,0.421,2.789
			c0.231,0.606,0.577,0.909,1.037,0.909c0.22,0,0.448-0.098,0.684-0.296c0.236-0.197,0.415-0.528,0.537-0.992
			c0.188-0.7,0.281-1.687,0.281-2.96c0-0.944-0.098-1.731-0.293-2.362c-0.146-0.468-0.336-0.799-0.567-0.995
			c-0.167-0.135-0.369-0.202-0.604-0.202c-0.277,0-0.523,0.124-0.739,0.373c-0.293,0.337-0.492,0.869-0.598,1.593
			S70.974,6.359,70.974,7.063z"/>
		<path style="fill:#0066FF;" d="M96.619,9.407L96.039,11h-4.883v-0.226c1.437-1.311,2.447-2.381,3.033-3.211
			s0.879-1.589,0.879-2.276c0-0.525-0.16-0.956-0.481-1.294c-0.322-0.338-0.706-0.507-1.154-0.507c-0.406,0-0.771,0.119-1.096,0.357
			c-0.323,0.238-0.562,0.587-0.717,1.047h-0.226c0.102-0.753,0.363-1.331,0.784-1.733c0.421-0.403,0.947-0.604,1.578-0.604
			c0.671,0,1.231,0.216,1.681,0.647c0.45,0.431,0.675,0.94,0.675,1.526c0,0.419-0.098,0.838-0.293,1.257
			c-0.301,0.659-0.789,1.357-1.465,2.093c-1.014,1.107-1.646,1.774-1.898,2.002h2.161c0.439,0,0.747-0.016,0.925-0.049
			c0.177-0.032,0.336-0.098,0.479-0.198c0.143-0.1,0.267-0.241,0.373-0.424H96.619z"/>
		<path style="fill:#0066FF;" d="M97.589,6.911c0-0.944,0.143-1.757,0.428-2.438c0.285-0.681,0.663-1.189,1.135-1.523
			c0.367-0.264,0.745-0.396,1.136-0.396c0.635,0,1.204,0.323,1.709,0.971c0.631,0.801,0.946,1.888,0.946,3.259
			c0,0.96-0.139,1.776-0.415,2.448c-0.277,0.671-0.63,1.159-1.06,1.462c-0.429,0.303-0.843,0.455-1.242,0.455
			c-0.789,0-1.446-0.466-1.971-1.397C97.812,8.963,97.589,8.018,97.589,6.911z M98.786,7.063c0,1.139,0.14,2.069,0.421,2.789
			c0.231,0.606,0.577,0.909,1.037,0.909c0.22,0,0.448-0.098,0.684-0.296c0.236-0.197,0.415-0.528,0.537-0.992
			c0.188-0.7,0.281-1.687,0.281-2.96c0-0.944-0.098-1.731-0.293-2.362c-0.146-0.468-0.336-0.799-0.567-0.995
			c-0.167-0.135-0.369-0.202-0.604-0.202c-0.277,0-0.523,0.124-0.739,0.373c-0.293,0.337-0.492,0.869-0.598,1.593
			S98.786,6.359,98.786,7.063z"/>
		<path style="fill:#0066FF;" d="M103.839,6.911c0-0.944,0.143-1.757,0.428-2.438c0.285-0.681,0.663-1.189,1.135-1.523
			c0.367-0.264,0.745-0.396,1.136-0.396c0.635,0,1.204,0.323,1.709,0.971c0.631,0.801,0.946,1.888,0.946,3.259
			c0,0.96-0.139,1.776-0.415,2.448c-0.277,0.671-0.63,1.159-1.06,1.462c-0.429,0.303-0.843,0.455-1.242,0.455
			c-0.789,0-1.446-0.466-1.971-1.397C104.062,8.963,103.839,8.018,103.839,6.911z M105.036,7.063c0,1.139,0.14,2.069,0.421,2.789
			c0.231,0.606,0.577,0.909,1.037,0.909c0.22,0,0.448-0.098,0.684-0.296c0.236-0.197,0.415-0.528,0.537-0.992
			c0.188-0.7,0.281-1.687,0.281-2.96c0-0.944-0.098-1.731-0.293-2.362c-0.146-0.468-0.336-0.799-0.567-0.995
			c-0.167-0.135-0.369-0.202-0.604-0.202c-0.277,0-0.523,0.124-0.739,0.373c-0.293,0.337-0.492,0.869-0.598,1.593
			S105.036,6.359,105.036,7.063z"/>
	</g>
	<g>
		<path style="fill:#0066FF;" d="M5.731,17.591l-0.58,1.593H0.269v-0.226c1.437-1.311,2.447-2.381,3.033-3.211
			s0.879-1.589,0.879-2.276c0-0.525-0.161-0.956-0.482-1.294S2.993,11.67,2.545,11.67c-0.407,0-0.772,0.119-1.095,0.357
			c-0.324,0.238-0.562,0.587-0.717,1.047H0.507c0.102-0.753,0.363-1.331,0.784-1.733c0.421-0.403,0.947-0.604,1.578-0.604
			c0.671,0,1.232,0.216,1.682,0.647c0.449,0.431,0.674,0.94,0.674,1.526c0,0.419-0.098,0.838-0.293,1.257
			c-0.301,0.659-0.79,1.357-1.465,2.093c-1.013,1.107-1.646,1.774-1.898,2.002h2.161c0.439,0,0.748-0.016,0.924-0.049
			c0.177-0.032,0.337-0.099,0.479-0.198c0.143-0.1,0.267-0.241,0.373-0.424H5.731z"/>
		<path style="fill:#0066FF;" d="M6.702,15.094c0-0.944,0.143-1.757,0.427-2.438c0.285-0.681,0.663-1.189,1.135-1.523
			c0.366-0.264,0.745-0.396,1.135-0.396c0.635,0,1.205,0.323,1.709,0.971c0.631,0.801,0.946,1.888,0.946,3.259
			c0,0.96-0.139,1.776-0.415,2.448c-0.277,0.671-0.63,1.158-1.059,1.461c-0.43,0.304-0.843,0.455-1.242,0.455
			c-0.79,0-1.447-0.466-1.971-1.397C6.923,17.147,6.702,16.201,6.702,15.094z M7.898,15.247c0,1.139,0.14,2.069,0.421,2.789
			c0.231,0.606,0.578,0.909,1.037,0.909c0.22,0,0.448-0.099,0.684-0.296c0.236-0.197,0.415-0.528,0.537-0.991
			c0.188-0.7,0.281-1.687,0.281-2.961c0-0.944-0.098-1.731-0.293-2.362c-0.146-0.468-0.336-0.799-0.568-0.995
			c-0.167-0.135-0.368-0.202-0.604-0.202c-0.277,0-0.523,0.124-0.739,0.373c-0.293,0.337-0.492,0.869-0.598,1.593
			S7.898,14.543,7.898,15.247z"/>
	</g>
	<g>
		<path style="fill:#0066FF;" d="M22.549,22.121c0.236-0.558,0.534-0.988,0.894-1.291c0.36-0.304,0.809-0.455,1.346-0.455
			c0.663,0,1.172,0.216,1.525,0.646c0.269,0.322,0.403,0.666,0.403,1.032c0,0.602-0.379,1.225-1.136,1.867
			c0.509,0.199,0.894,0.484,1.154,0.854s0.391,0.806,0.391,1.307c0,0.716-0.228,1.336-0.684,1.861
			c-0.594,0.684-1.455,1.025-2.582,1.025c-0.558,0-0.937-0.069-1.139-0.207c-0.201-0.139-0.302-0.287-0.302-0.446
			c0-0.118,0.047-0.222,0.143-0.312c0.096-0.089,0.21-0.134,0.345-0.134c0.102,0,0.205,0.017,0.311,0.049
			c0.069,0.021,0.226,0.095,0.47,0.223s0.413,0.204,0.506,0.229c0.15,0.044,0.311,0.066,0.482,0.066c0.415,0,0.776-0.16,1.083-0.482
			c0.307-0.321,0.461-0.701,0.461-1.141c0-0.321-0.071-0.635-0.213-0.94c-0.106-0.228-0.222-0.4-0.348-0.519
			c-0.175-0.163-0.415-0.311-0.72-0.442s-0.616-0.198-0.934-0.198h-0.195v-0.184c0.321-0.04,0.644-0.156,0.967-0.348
			c0.323-0.191,0.558-0.421,0.705-0.689s0.22-0.563,0.22-0.885c0-0.42-0.131-0.758-0.394-1.017
			c-0.262-0.259-0.589-0.388-0.979-0.388c-0.631,0-1.158,0.338-1.581,1.014L22.549,22.121z"/>
		<path style="fill:#0066FF;" d="M58.249,22.121c0.236-0.558,0.534-0.988,0.895-1.291c0.359-0.304,0.809-0.455,1.346-0.455
			c0.663,0,1.172,0.216,1.525,0.646c0.269,0.322,0.403,0.666,0.403,1.032c0,0.602-0.379,1.225-1.136,1.867
			c0.509,0.199,0.894,0.484,1.154,0.854c0.26,0.37,0.391,0.806,0.391,1.307c0,0.716-0.229,1.336-0.684,1.861
			c-0.595,0.684-1.455,1.025-2.582,1.025c-0.558,0-0.938-0.069-1.139-0.207c-0.201-0.139-0.302-0.287-0.302-0.446
			c0-0.118,0.048-0.222,0.144-0.312c0.095-0.089,0.21-0.134,0.345-0.134c0.102,0,0.205,0.017,0.312,0.049
			c0.068,0.021,0.226,0.095,0.47,0.223s0.413,0.204,0.507,0.229c0.15,0.044,0.311,0.066,0.481,0.066c0.415,0,0.776-0.16,1.084-0.482
			c0.307-0.321,0.46-0.701,0.46-1.141c0-0.321-0.07-0.635-0.213-0.94c-0.106-0.228-0.222-0.4-0.348-0.519
			c-0.176-0.163-0.416-0.311-0.721-0.442s-0.616-0.198-0.934-0.198h-0.195v-0.184c0.321-0.04,0.644-0.156,0.967-0.348
			c0.324-0.191,0.559-0.421,0.705-0.689s0.22-0.563,0.22-0.885c0-0.42-0.131-0.758-0.394-1.017s-0.589-0.388-0.979-0.388
			c-0.631,0-1.157,0.338-1.581,1.014L58.249,22.121z"/>
		<path style="fill:#0066FF;" d="M97.773,22.121c0.236-0.558,0.534-0.988,0.895-1.291c0.359-0.304,0.809-0.455,1.346-0.455
			c0.663,0,1.172,0.216,1.525,0.646c0.269,0.322,0.403,0.666,0.403,1.032c0,0.602-0.379,1.225-1.136,1.867
			c0.509,0.199,0.894,0.484,1.154,0.854c0.26,0.37,0.391,0.806,0.391,1.307c0,0.716-0.229,1.336-0.684,1.861
			c-0.595,0.684-1.455,1.025-2.582,1.025c-0.558,0-0.938-0.069-1.139-0.207c-0.201-0.139-0.302-0.287-0.302-0.446
			c0-0.118,0.048-0.222,0.144-0.312c0.095-0.089,0.21-0.134,0.345-0.134c0.102,0,0.205,0.017,0.312,0.049
			c0.068,0.021,0.226,0.095,0.47,0.223s0.413,0.204,0.507,0.229c0.15,0.044,0.311,0.066,0.481,0.066c0.415,0,0.776-0.16,1.084-0.482
			c0.307-0.321,0.46-0.701,0.46-1.141c0-0.321-0.07-0.635-0.213-0.94c-0.106-0.228-0.222-0.4-0.348-0.519
			c-0.176-0.163-0.416-0.311-0.721-0.442s-0.616-0.198-0.934-0.198h-0.195v-0.184c0.321-0.04,0.644-0.156,0.967-0.348
			c0.324-0.191,0.559-0.421,0.705-0.689s0.22-0.563,0.22-0.885c0-0.42-0.131-0.758-0.394-1.017s-0.589-0.388-0.979-0.388
			c-0.631,0-1.157,0.338-1.581,1.014L97.773,22.121z"/>
	</g>
	<g>
		<path style="fill:#0066FF;" d="M61.912,7.802c0,0.187-0.066,0.347-0.199,0.479c-0.132,0.132-0.289,0.199-0.473,0.199
			c-0.188,0-0.347-0.066-0.479-0.199c-0.132-0.132-0.198-0.292-0.198-0.479s0.066-0.347,0.198-0.479
			c0.133-0.132,0.292-0.199,0.479-0.199c0.184,0,0.341,0.066,0.473,0.199C61.846,7.455,61.912,7.615,61.912,7.802z"/>
	</g>
	<g>
		<path style="fill:#0066FF;" d="M15.984,15.985c0,0.187-0.066,0.348-0.198,0.479c-0.132,0.133-0.29,0.199-0.473,0.199
			c-0.187,0-0.347-0.066-0.479-0.199c-0.132-0.131-0.199-0.292-0.199-0.479s0.066-0.347,0.199-0.479
			c0.132-0.132,0.292-0.199,0.479-0.199c0.183,0,0.341,0.066,0.473,0.199C15.917,15.639,15.984,15.798,15.984,15.985z"/>
		<path style="fill:#0066FF;" d="M34.788,14.551h6.409v0.592h-6.409V14.551z M34.788,16.827h6.409v0.604h-6.409V16.827z"/>
		<path style="fill:#0066FF;" d="M79.748,14.551h6.409v0.592h-6.409V14.551z M79.748,16.827h6.409v0.604h-6.409V16.827z"/>
	</g>
</g>
<g id="theGroup">
</g>
</svg>
