<?xml version="1.0" encoding="iso-8859-1"?>
<!-- Generator: Adobe Illustrator 16.0.0, SVG Export Plug-In . SVG Version: 6.00 Build 0)  -->
<!DOCTYPE svg PUBLIC "-//W3C//DTD SVG 1.1//EN" "http://www.w3.org/Graphics/SVG/1.1/DTD/svg11.dtd">
<svg version="1.1" id="Lager_1" xmlns="http://www.w3.org/2000/svg" xmlns:xlink="http://www.w3.org/1999/xlink" x="0px" y="0px"
	 width="137.068px" height="36.12px" viewBox="0 0 137.068 36.12" style="enable-background:new 0 0 137.068 36.12;"
	 xml:space="preserve">
<g>
	<g>
		<path style="fill:#0066FF;" d="M38.107,1.575l-0.275,0.6h-1.44l-0.314,0.643c0.624,0.091,1.117,0.323,1.482,0.695
			c0.313,0.32,0.469,0.696,0.469,1.129c0,0.251-0.051,0.484-0.153,0.699c-0.102,0.214-0.231,0.396-0.386,0.547
			c-0.155,0.15-0.328,0.271-0.519,0.363c-0.271,0.129-0.548,0.194-0.833,0.194c-0.287,0-0.496-0.049-0.626-0.146
			c-0.13-0.098-0.196-0.206-0.196-0.323c0-0.066,0.027-0.124,0.081-0.174c0.054-0.051,0.123-0.076,0.205-0.076
			c0.061,0,0.114,0.01,0.16,0.028c0.046,0.019,0.124,0.067,0.235,0.145c0.176,0.123,0.355,0.184,0.536,0.184
			c0.275,0,0.517-0.104,0.725-0.312c0.208-0.208,0.312-0.462,0.312-0.761c0-0.289-0.093-0.559-0.279-0.81s-0.442-0.444-0.769-0.581
			c-0.256-0.106-0.606-0.167-1.048-0.184l0.917-1.859H38.107z"/>
		<path style="fill:#0066FF;" d="M64.885,5.438L64.55,6.359h-2.823v-0.13c0.831-0.758,1.415-1.376,1.754-1.856
			c0.338-0.479,0.508-0.918,0.508-1.316c0-0.304-0.093-0.553-0.279-0.748c-0.186-0.195-0.408-0.293-0.667-0.293
			c-0.235,0-0.446,0.069-0.633,0.207s-0.325,0.339-0.415,0.605h-0.13c0.059-0.435,0.21-0.769,0.453-1.002
			c0.244-0.233,0.548-0.35,0.912-0.35c0.388,0,0.712,0.125,0.972,0.374c0.26,0.25,0.39,0.543,0.39,0.882
			c0,0.242-0.057,0.485-0.169,0.727c-0.174,0.381-0.457,0.785-0.847,1.21c-0.586,0.64-0.952,1.026-1.098,1.158h1.249
			c0.254,0,0.433-0.009,0.535-0.028c0.103-0.019,0.195-0.057,0.277-0.115c0.082-0.058,0.154-0.139,0.215-0.245H64.885z"/>
		<path style="fill:#0066FF;" d="M106.579,1.575l-0.275,0.6h-1.439l-0.313,0.643c0.623,0.091,1.117,0.323,1.481,0.695
			c0.312,0.32,0.47,0.696,0.47,1.129c0,0.251-0.052,0.484-0.153,0.699c-0.103,0.214-0.231,0.396-0.387,0.547
			c-0.155,0.15-0.328,0.271-0.519,0.363c-0.271,0.129-0.549,0.194-0.833,0.194c-0.287,0-0.496-0.049-0.626-0.146
			c-0.131-0.098-0.196-0.206-0.196-0.323c0-0.066,0.027-0.124,0.081-0.174c0.055-0.051,0.122-0.076,0.205-0.076
			c0.061,0,0.114,0.01,0.16,0.028c0.046,0.019,0.124,0.067,0.234,0.145c0.177,0.123,0.355,0.184,0.537,0.184
			c0.275,0,0.517-0.104,0.725-0.312c0.208-0.208,0.312-0.462,0.312-0.761c0-0.289-0.093-0.559-0.278-0.81
			c-0.187-0.25-0.442-0.444-0.77-0.581c-0.257-0.106-0.605-0.167-1.048-0.184l0.917-1.859H106.579z"/>
		<path style="fill:#0066FF;" d="M114.358,7.774v0.13c-0.355-0.179-0.651-0.388-0.889-0.628c-0.339-0.341-0.601-0.744-0.784-1.207
			s-0.274-0.944-0.274-1.443c0-0.729,0.18-1.395,0.539-1.996c0.36-0.601,0.829-1.031,1.408-1.29V1.49
			c-0.289,0.16-0.527,0.379-0.713,0.656c-0.186,0.278-0.324,0.629-0.416,1.055s-0.138,0.871-0.138,1.334
			c0,0.503,0.039,0.961,0.116,1.373c0.062,0.325,0.136,0.585,0.223,0.782c0.087,0.196,0.204,0.385,0.351,0.566
			C113.929,7.437,114.121,7.61,114.358,7.774z"/>
		<path style="fill:#0066FF;" d="M122.452,5.438l-0.335,0.921h-2.823v-0.13c0.83-0.758,1.415-1.376,1.754-1.856
			c0.339-0.479,0.508-0.918,0.508-1.316c0-0.304-0.093-0.553-0.278-0.748c-0.187-0.195-0.408-0.293-0.667-0.293
			c-0.235,0-0.446,0.069-0.634,0.207c-0.187,0.138-0.325,0.339-0.414,0.605h-0.131c0.059-0.435,0.21-0.769,0.453-1.002
			c0.244-0.233,0.548-0.35,0.912-0.35c0.389,0,0.713,0.125,0.973,0.374c0.26,0.25,0.39,0.543,0.39,0.882
			c0,0.242-0.057,0.485-0.169,0.727c-0.175,0.381-0.457,0.785-0.848,1.21c-0.585,0.64-0.951,1.026-1.097,1.158h1.249
			c0.254,0,0.432-0.009,0.534-0.028s0.194-0.057,0.277-0.115c0.082-0.058,0.154-0.139,0.215-0.245H122.452z"/>
		<path style="fill:#0066FF;" d="M123.318,1.49V1.342c0.357,0.176,0.655,0.385,0.893,0.625c0.337,0.343,0.597,0.746,0.78,1.208
			s0.275,0.944,0.275,1.445c0,0.729-0.18,1.395-0.538,1.996c-0.359,0.601-0.829,1.031-1.41,1.29v-0.13
			c0.289-0.163,0.527-0.382,0.715-0.658c0.187-0.276,0.326-0.628,0.416-1.055c0.091-0.427,0.136-0.872,0.136-1.335
			c0-0.501-0.038-0.958-0.116-1.373c-0.059-0.325-0.132-0.584-0.221-0.78c-0.088-0.195-0.205-0.383-0.351-0.564
			C123.751,1.828,123.559,1.655,123.318,1.49z"/>
	</g>
	<g>
		<path style="fill:#0066FF;" d="M36.818,21.867l-0.275,0.601h-1.44l-0.314,0.642c0.624,0.092,1.117,0.324,1.482,0.695
			c0.313,0.32,0.469,0.696,0.469,1.129c0,0.252-0.051,0.485-0.153,0.699c-0.102,0.214-0.231,0.396-0.386,0.547
			s-0.328,0.271-0.519,0.363c-0.271,0.129-0.548,0.194-0.833,0.194c-0.287,0-0.496-0.049-0.626-0.146
			c-0.13-0.098-0.196-0.205-0.196-0.323c0-0.065,0.027-0.124,0.081-0.175c0.054-0.05,0.123-0.075,0.205-0.075
			c0.061,0,0.114,0.009,0.16,0.028c0.046,0.019,0.124,0.066,0.235,0.145c0.176,0.122,0.355,0.184,0.536,0.184
			c0.275,0,0.517-0.104,0.725-0.312c0.208-0.208,0.312-0.462,0.312-0.761c0-0.289-0.093-0.56-0.279-0.81
			c-0.186-0.251-0.442-0.444-0.769-0.581c-0.256-0.105-0.606-0.167-1.048-0.183l0.917-1.86H36.818z"/>
		<path style="fill:#0066FF;" d="M45.739,25.731l-0.335,0.921h-2.823v-0.131c0.831-0.757,1.415-1.376,1.754-1.855
			c0.338-0.48,0.508-0.919,0.508-1.316c0-0.304-0.093-0.553-0.279-0.748c-0.186-0.195-0.408-0.293-0.667-0.293
			c-0.235,0-0.446,0.069-0.633,0.206c-0.187,0.138-0.325,0.34-0.415,0.605h-0.13c0.059-0.436,0.21-0.77,0.453-1.002
			c0.244-0.233,0.548-0.35,0.912-0.35c0.388,0,0.712,0.125,0.972,0.374c0.26,0.25,0.39,0.544,0.39,0.883
			c0,0.242-0.057,0.484-0.169,0.727c-0.174,0.381-0.457,0.784-0.847,1.21c-0.586,0.64-0.952,1.026-1.098,1.157h1.249
			c0.254,0,0.433-0.009,0.535-0.028c0.103-0.019,0.195-0.057,0.277-0.114c0.082-0.058,0.154-0.14,0.215-0.245H45.739z"/>
		<path style="fill:#0066FF;" d="M84.664,22.778c0.136-0.322,0.309-0.571,0.517-0.747c0.208-0.175,0.468-0.263,0.778-0.263
			c0.383,0,0.678,0.125,0.882,0.374c0.155,0.187,0.233,0.385,0.233,0.597c0,0.348-0.219,0.708-0.656,1.08
			c0.294,0.115,0.516,0.279,0.666,0.493c0.151,0.215,0.227,0.466,0.227,0.756c0,0.414-0.132,0.772-0.396,1.076
			c-0.344,0.395-0.841,0.593-1.492,0.593c-0.322,0-0.542-0.04-0.658-0.12s-0.175-0.166-0.175-0.258c0-0.068,0.027-0.128,0.083-0.18
			c0.055-0.052,0.121-0.078,0.199-0.078c0.059,0,0.119,0.01,0.18,0.028c0.04,0.012,0.131,0.055,0.271,0.129
			c0.142,0.074,0.239,0.118,0.293,0.133c0.087,0.025,0.181,0.038,0.279,0.038c0.24,0,0.448-0.093,0.626-0.278
			s0.267-0.406,0.267-0.66c0-0.186-0.041-0.367-0.123-0.543c-0.062-0.132-0.129-0.231-0.201-0.3c-0.102-0.095-0.24-0.18-0.417-0.256
			c-0.176-0.077-0.356-0.115-0.54-0.115h-0.112v-0.105c0.186-0.023,0.372-0.091,0.559-0.201c0.188-0.11,0.323-0.243,0.408-0.398
			c0.084-0.155,0.127-0.326,0.127-0.512c0-0.242-0.076-0.438-0.228-0.588c-0.152-0.149-0.341-0.224-0.566-0.224
			c-0.365,0-0.669,0.195-0.914,0.585L84.664,22.778z"/>
	</g>
	<g>
		<path style="fill:#0066FF;" d="M5.731,10.382l-0.58,1.593H0.269v-0.226c1.437-1.311,2.447-2.381,3.033-3.211
			s0.879-1.589,0.879-2.276c0-0.525-0.161-0.956-0.482-1.294S2.993,4.461,2.545,4.461c-0.407,0-0.772,0.119-1.095,0.357
			C1.126,5.056,0.887,5.405,0.732,5.865H0.507C0.608,5.112,0.87,4.534,1.291,4.132c0.421-0.403,0.947-0.604,1.578-0.604
			c0.671,0,1.232,0.216,1.682,0.647C5,4.605,5.225,5.114,5.225,5.7c0,0.419-0.098,0.838-0.293,1.257
			C4.63,7.617,4.142,8.314,3.467,9.051c-1.013,1.107-1.646,1.774-1.898,2.002h2.161c0.439,0,0.748-0.016,0.924-0.049
			c0.177-0.032,0.337-0.098,0.479-0.198c0.143-0.1,0.267-0.241,0.373-0.424H5.731z"/>
		<path style="fill:#0066FF;" d="M12.51,5.273c0.236-0.558,0.534-0.988,0.894-1.291c0.36-0.303,0.809-0.455,1.346-0.455
			c0.663,0,1.172,0.216,1.525,0.647c0.269,0.321,0.403,0.666,0.403,1.032c0,0.602-0.379,1.225-1.136,1.867
			c0.509,0.2,0.894,0.484,1.154,0.854c0.26,0.371,0.391,0.806,0.391,1.307c0,0.716-0.228,1.336-0.684,1.861
			c-0.594,0.684-1.455,1.025-2.582,1.025c-0.558,0-0.937-0.069-1.139-0.208c-0.201-0.138-0.302-0.287-0.302-0.446
			c0-0.118,0.047-0.222,0.143-0.311s0.21-0.134,0.345-0.134c0.102,0,0.205,0.016,0.311,0.049c0.069,0.021,0.226,0.095,0.47,0.223
			c0.244,0.128,0.413,0.205,0.506,0.229c0.15,0.045,0.311,0.067,0.482,0.067c0.415,0,0.776-0.161,1.083-0.482
			s0.461-0.702,0.461-1.141c0-0.322-0.071-0.635-0.213-0.94c-0.106-0.228-0.222-0.4-0.348-0.519c-0.175-0.163-0.415-0.31-0.72-0.442
			s-0.616-0.198-0.934-0.198h-0.195V7.684c0.321-0.041,0.644-0.156,0.967-0.348c0.323-0.191,0.558-0.421,0.705-0.689
			s0.22-0.564,0.22-0.885c0-0.419-0.131-0.758-0.394-1.016c-0.262-0.258-0.589-0.388-0.979-0.388c-0.631,0-1.158,0.338-1.581,1.013
			L12.51,5.273z"/>
		<path style="fill:#0066FF;" d="M23.84,4.51l2.014-0.982h0.202v6.988c0,0.464,0.019,0.753,0.058,0.867
			c0.039,0.114,0.119,0.201,0.241,0.262s0.37,0.096,0.745,0.104v0.226h-3.113v-0.226c0.391-0.008,0.643-0.042,0.757-0.101
			c0.114-0.059,0.193-0.138,0.238-0.238c0.044-0.1,0.067-0.398,0.067-0.895V6.048c0-0.602-0.021-0.988-0.061-1.159
			c-0.028-0.13-0.081-0.226-0.156-0.287S24.666,4.51,24.56,4.51c-0.15,0-0.36,0.063-0.628,0.189L23.84,4.51z"/>
		<path style="fill:#0066FF;" d="M29.077,7.885c0-0.944,0.143-1.757,0.427-2.438c0.285-0.681,0.663-1.189,1.135-1.523
			c0.366-0.264,0.745-0.396,1.135-0.396c0.635,0,1.205,0.323,1.709,0.971c0.631,0.801,0.946,1.888,0.946,3.259
			c0,0.96-0.139,1.776-0.415,2.448c-0.277,0.671-0.63,1.159-1.059,1.462c-0.43,0.303-0.843,0.455-1.242,0.455
			c-0.79,0-1.447-0.466-1.971-1.397C29.298,9.938,29.077,8.992,29.077,7.885z M30.273,8.038c0,1.139,0.14,2.069,0.421,2.789
			c0.231,0.606,0.578,0.909,1.037,0.909c0.22,0,0.448-0.098,0.684-0.296c0.236-0.197,0.415-0.528,0.537-0.992
			c0.188-0.7,0.281-1.687,0.281-2.96c0-0.944-0.098-1.731-0.293-2.362c-0.146-0.468-0.336-0.799-0.568-0.995
			c-0.167-0.135-0.368-0.202-0.604-0.202c-0.277,0-0.523,0.124-0.739,0.373c-0.293,0.337-0.492,0.869-0.598,1.593
			S30.273,7.334,30.273,8.038z"/>
		<path style="fill:#0066FF;" d="M46.177,4.51l2.014-0.982h0.202v6.988c0,0.464,0.019,0.753,0.058,0.867
			c0.039,0.114,0.119,0.201,0.241,0.262s0.37,0.096,0.745,0.104v0.226h-3.113v-0.226c0.391-0.008,0.643-0.042,0.757-0.101
			c0.114-0.059,0.193-0.138,0.238-0.238c0.044-0.1,0.067-0.398,0.067-0.895V6.048c0-0.602-0.021-0.988-0.061-1.159
			c-0.028-0.13-0.081-0.226-0.156-0.287S47.003,4.51,46.897,4.51c-0.15,0-0.36,0.063-0.628,0.189L46.177,4.51z"/>
		<path style="fill:#0066FF;" d="M51.414,7.885c0-0.944,0.143-1.757,0.427-2.438c0.285-0.681,0.663-1.189,1.135-1.523
			c0.366-0.264,0.745-0.396,1.135-0.396c0.635,0,1.205,0.323,1.709,0.971c0.631,0.801,0.946,1.888,0.946,3.259
			c0,0.96-0.139,1.776-0.415,2.448c-0.277,0.671-0.63,1.159-1.059,1.462c-0.43,0.303-0.843,0.455-1.242,0.455
			c-0.79,0-1.447-0.466-1.971-1.397C51.636,9.938,51.414,8.992,51.414,7.885z M52.61,8.038c0,1.139,0.14,2.069,0.421,2.789
			c0.231,0.606,0.578,0.909,1.037,0.909c0.22,0,0.448-0.098,0.684-0.296c0.236-0.197,0.415-0.528,0.537-0.992
			c0.188-0.7,0.281-1.687,0.281-2.96c0-0.944-0.098-1.731-0.293-2.362c-0.146-0.468-0.336-0.799-0.568-0.995
			c-0.167-0.135-0.368-0.202-0.604-0.202c-0.277,0-0.523,0.124-0.739,0.373c-0.293,0.337-0.492,0.869-0.598,1.593
			S52.61,7.334,52.61,8.038z"/>
		<path style="fill:#0066FF;" d="M85.541,3.527v0.226c-0.537,0.053-0.977,0.16-1.315,0.321c-0.34,0.161-0.676,0.406-1.008,0.735
			c-0.331,0.33-0.606,0.697-0.823,1.102c-0.218,0.405-0.4,0.886-0.547,1.444c0.586-0.403,1.174-0.604,1.764-0.604
			c0.566,0,1.057,0.228,1.472,0.684s0.622,1.042,0.622,1.758c0,0.692-0.209,1.322-0.629,1.892c-0.504,0.692-1.172,1.038-2.002,1.038
			c-0.565,0-1.045-0.187-1.439-0.562c-0.773-0.729-1.16-1.672-1.16-2.832c0-0.741,0.148-1.444,0.445-2.112s0.722-1.259,1.272-1.776
			c0.552-0.517,1.08-0.865,1.584-1.044c0.505-0.179,0.975-0.269,1.41-0.269H85.541z M81.744,7.8
			c-0.073,0.549-0.109,0.993-0.109,1.331c0,0.391,0.071,0.815,0.216,1.272c0.145,0.458,0.359,0.821,0.645,1.089
			c0.207,0.191,0.46,0.287,0.757,0.287c0.354,0,0.67-0.167,0.949-0.5c0.278-0.333,0.418-0.81,0.418-1.428
			c0-0.696-0.139-1.298-0.415-1.807c-0.277-0.509-0.67-0.763-1.179-0.763c-0.154,0-0.32,0.032-0.497,0.098
			C82.352,7.444,82.09,7.584,81.744,7.8z"/>
		<path style="fill:#0066FF;" d="M92.29,4.51l2.014-0.982h0.202v6.988c0,0.464,0.019,0.753,0.058,0.867
			c0.039,0.114,0.119,0.201,0.241,0.262s0.37,0.096,0.745,0.104v0.226h-3.113v-0.226c0.391-0.008,0.643-0.042,0.757-0.101
			c0.114-0.059,0.193-0.138,0.238-0.238s0.067-0.398,0.067-0.895V6.048c0-0.602-0.021-0.988-0.062-1.159
			c-0.028-0.13-0.08-0.226-0.155-0.287c-0.076-0.061-0.166-0.092-0.271-0.092c-0.151,0-0.36,0.063-0.629,0.189L92.29,4.51z"/>
		<path style="fill:#0066FF;" d="M97.526,7.885c0-0.944,0.143-1.757,0.428-2.438c0.285-0.681,0.663-1.189,1.135-1.523
			c0.367-0.264,0.745-0.396,1.136-0.396c0.635,0,1.204,0.323,1.709,0.971c0.631,0.801,0.946,1.888,0.946,3.259
			c0,0.96-0.139,1.776-0.415,2.448c-0.277,0.671-0.63,1.159-1.06,1.462c-0.429,0.303-0.843,0.455-1.242,0.455
			c-0.789,0-1.446-0.466-1.971-1.397C97.749,9.938,97.526,8.992,97.526,7.885z M98.724,8.038c0,1.139,0.14,2.069,0.421,2.789
			c0.231,0.606,0.577,0.909,1.037,0.909c0.22,0,0.448-0.098,0.684-0.296c0.236-0.197,0.415-0.528,0.537-0.992
			c0.188-0.7,0.281-1.687,0.281-2.96c0-0.944-0.098-1.731-0.293-2.362c-0.146-0.468-0.336-0.799-0.567-0.995
			c-0.167-0.135-0.369-0.202-0.604-0.202c-0.277,0-0.523,0.124-0.739,0.373c-0.293,0.337-0.492,0.869-0.598,1.593
			S98.724,7.334,98.724,8.038z"/>
	</g>
	<g>
		<path style="fill:#0066FF;" d="M15.808,23.84v0.226c-0.537,0.053-0.976,0.16-1.315,0.32c-0.34,0.161-0.675,0.406-1.007,0.735
			c-0.332,0.33-0.606,0.697-0.824,1.103c-0.218,0.404-0.4,0.886-0.546,1.443c0.586-0.403,1.174-0.604,1.764-0.604
			c0.565,0,1.056,0.228,1.471,0.684s0.622,1.042,0.622,1.758c0,0.691-0.209,1.322-0.628,1.893c-0.504,0.691-1.172,1.037-2.002,1.037
			c-0.565,0-1.046-0.188-1.44-0.562c-0.773-0.729-1.16-1.673-1.16-2.832c0-0.74,0.148-1.444,0.445-2.112
			c0.297-0.667,0.721-1.259,1.273-1.775c0.551-0.517,1.079-0.865,1.583-1.044c0.505-0.179,0.975-0.269,1.41-0.269H15.808z
			 M12.012,28.112c-0.073,0.55-0.11,0.993-0.11,1.331c0,0.391,0.072,0.814,0.217,1.272c0.144,0.457,0.359,0.82,0.644,1.089
			c0.207,0.191,0.459,0.287,0.757,0.287c0.354,0,0.67-0.167,0.949-0.5c0.279-0.334,0.418-0.811,0.418-1.429
			c0-0.696-0.139-1.298-0.415-1.807c-0.277-0.509-0.669-0.763-1.178-0.763c-0.155,0-0.32,0.032-0.498,0.098
			C12.619,27.756,12.357,27.896,12.012,28.112z"/>
		<path style="fill:#0066FF;" d="M22.558,24.822l2.014-0.982h0.202v6.988c0,0.464,0.019,0.753,0.058,0.867
			c0.039,0.113,0.119,0.201,0.241,0.262c0.122,0.062,0.37,0.096,0.745,0.104v0.226h-3.113v-0.226
			c0.391-0.009,0.643-0.042,0.757-0.101c0.114-0.06,0.193-0.139,0.238-0.238c0.044-0.1,0.067-0.397,0.067-0.895V26.36
			c0-0.602-0.021-0.988-0.061-1.159c-0.028-0.131-0.081-0.227-0.156-0.287s-0.166-0.092-0.271-0.092c-0.15,0-0.36,0.063-0.628,0.189
			L22.558,24.822z"/>
		<path style="fill:#0066FF;" d="M27.794,28.197c0-0.943,0.143-1.756,0.427-2.438s0.663-1.189,1.135-1.523
			c0.366-0.265,0.745-0.396,1.135-0.396c0.635,0,1.205,0.323,1.709,0.971c0.631,0.802,0.946,1.888,0.946,3.259
			c0,0.961-0.139,1.776-0.415,2.448c-0.277,0.671-0.63,1.158-1.059,1.461c-0.43,0.304-0.843,0.455-1.242,0.455
			c-0.79,0-1.447-0.466-1.971-1.397C28.016,30.251,27.794,29.305,27.794,28.197z M28.991,28.351c0,1.139,0.14,2.069,0.421,2.789
			c0.231,0.606,0.578,0.909,1.037,0.909c0.22,0,0.448-0.099,0.684-0.296c0.236-0.197,0.415-0.528,0.537-0.991
			c0.188-0.7,0.281-1.688,0.281-2.961c0-0.943-0.098-1.731-0.293-2.361c-0.146-0.469-0.336-0.8-0.568-0.995
			c-0.167-0.135-0.368-0.202-0.604-0.202c-0.277,0-0.523,0.125-0.739,0.373c-0.293,0.338-0.492,0.868-0.598,1.593
			S28.991,27.646,28.991,28.351z"/>
		<path style="fill:#0066FF;" d="M66.42,23.84v0.226c-0.537,0.053-0.976,0.16-1.315,0.32c-0.34,0.161-0.675,0.406-1.007,0.735
			c-0.332,0.33-0.606,0.697-0.824,1.103c-0.218,0.404-0.4,0.886-0.546,1.443c0.586-0.403,1.174-0.604,1.764-0.604
			c0.565,0,1.056,0.228,1.471,0.684s0.622,1.042,0.622,1.758c0,0.691-0.209,1.322-0.628,1.893c-0.504,0.691-1.172,1.037-2.002,1.037
			c-0.565,0-1.046-0.188-1.44-0.562c-0.773-0.729-1.16-1.673-1.16-2.832c0-0.74,0.148-1.444,0.445-2.112
			c0.297-0.667,0.721-1.259,1.273-1.775c0.551-0.517,1.079-0.865,1.583-1.044c0.505-0.179,0.975-0.269,1.41-0.269H66.42z
			 M62.624,28.112c-0.073,0.55-0.11,0.993-0.11,1.331c0,0.391,0.072,0.814,0.217,1.272c0.144,0.457,0.359,0.82,0.644,1.089
			c0.207,0.191,0.459,0.287,0.757,0.287c0.354,0,0.67-0.167,0.949-0.5c0.279-0.334,0.418-0.811,0.418-1.429
			c0-0.696-0.139-1.298-0.415-1.807c-0.277-0.509-0.669-0.763-1.178-0.763c-0.155,0-0.32,0.032-0.498,0.098
			C63.231,27.756,62.97,27.896,62.624,28.112z"/>
		<path style="fill:#0066FF;" d="M73.17,24.822l2.014-0.982h0.202v6.988c0,0.464,0.019,0.753,0.058,0.867
			c0.039,0.113,0.119,0.201,0.241,0.262c0.122,0.062,0.37,0.096,0.745,0.104v0.226h-3.113v-0.226
			c0.391-0.009,0.643-0.042,0.757-0.101c0.114-0.06,0.193-0.139,0.238-0.238s0.067-0.397,0.067-0.895V26.36
			c0-0.602-0.021-0.988-0.062-1.159c-0.028-0.131-0.08-0.227-0.155-0.287c-0.076-0.061-0.166-0.092-0.271-0.092
			c-0.151,0-0.36,0.063-0.629,0.189L73.17,24.822z"/>
		<path style="fill:#0066FF;" d="M78.406,28.197c0-0.943,0.143-1.756,0.428-2.438s0.663-1.189,1.135-1.523
			c0.367-0.265,0.745-0.396,1.136-0.396c0.635,0,1.204,0.323,1.709,0.971c0.631,0.802,0.946,1.888,0.946,3.259
			c0,0.961-0.139,1.776-0.415,2.448c-0.277,0.671-0.63,1.158-1.06,1.461c-0.429,0.304-0.843,0.455-1.242,0.455
			c-0.789,0-1.446-0.466-1.971-1.397C78.629,30.251,78.406,29.305,78.406,28.197z M79.604,28.351c0,1.139,0.14,2.069,0.421,2.789
			c0.231,0.606,0.577,0.909,1.037,0.909c0.22,0,0.448-0.099,0.684-0.296c0.236-0.197,0.415-0.528,0.537-0.991
			c0.188-0.7,0.281-1.688,0.281-2.961c0-0.943-0.098-1.731-0.293-2.361c-0.146-0.469-0.336-0.8-0.567-0.995
			c-0.167-0.135-0.369-0.202-0.604-0.202c-0.277,0-0.523,0.125-0.739,0.373c-0.293,0.338-0.492,0.868-0.598,1.593
			S79.604,27.646,79.604,28.351z"/>
		<path style="fill:#0066FF;" d="M108.084,23.84v0.226c-0.537,0.053-0.977,0.16-1.315,0.32c-0.34,0.161-0.676,0.406-1.008,0.735
			c-0.331,0.33-0.606,0.697-0.823,1.103c-0.218,0.404-0.4,0.886-0.547,1.443c0.586-0.403,1.174-0.604,1.764-0.604
			c0.566,0,1.057,0.228,1.472,0.684s0.622,1.042,0.622,1.758c0,0.691-0.209,1.322-0.629,1.893c-0.504,0.691-1.172,1.037-2.002,1.037
			c-0.565,0-1.045-0.188-1.439-0.562c-0.773-0.729-1.16-1.673-1.16-2.832c0-0.74,0.148-1.444,0.445-2.112
			c0.297-0.667,0.722-1.259,1.272-1.775c0.552-0.517,1.08-0.865,1.584-1.044c0.505-0.179,0.975-0.269,1.41-0.269H108.084z
			 M104.287,28.112c-0.073,0.55-0.109,0.993-0.109,1.331c0,0.391,0.071,0.814,0.216,1.272c0.145,0.457,0.359,0.82,0.645,1.089
			c0.207,0.191,0.46,0.287,0.757,0.287c0.354,0,0.67-0.167,0.949-0.5c0.278-0.334,0.418-0.811,0.418-1.429
			c0-0.696-0.139-1.298-0.415-1.807c-0.277-0.509-0.67-0.763-1.179-0.763c-0.154,0-0.32,0.032-0.497,0.098
			C104.895,27.756,104.633,27.896,104.287,28.112z"/>
		<path style="fill:#0066FF;" d="M111.943,28.197c0-0.943,0.143-1.756,0.428-2.438s0.663-1.189,1.135-1.523
			c0.367-0.265,0.745-0.396,1.136-0.396c0.635,0,1.204,0.323,1.709,0.971c0.631,0.802,0.946,1.888,0.946,3.259
			c0,0.961-0.139,1.776-0.415,2.448c-0.277,0.671-0.63,1.158-1.06,1.461c-0.429,0.304-0.843,0.455-1.242,0.455
			c-0.789,0-1.446-0.466-1.971-1.397C112.166,30.251,111.943,29.305,111.943,28.197z M113.141,28.351
			c0,1.139,0.14,2.069,0.421,2.789c0.231,0.606,0.577,0.909,1.037,0.909c0.22,0,0.448-0.099,0.684-0.296
			c0.236-0.197,0.415-0.528,0.537-0.991c0.188-0.7,0.281-1.688,0.281-2.961c0-0.943-0.098-1.731-0.293-2.361
			c-0.146-0.469-0.336-0.8-0.567-0.995c-0.167-0.135-0.369-0.202-0.604-0.202c-0.277,0-0.523,0.125-0.739,0.373
			c-0.293,0.338-0.492,0.868-0.598,1.593S113.141,27.646,113.141,28.351z"/>
		<path style="fill:#0066FF;" d="M118.193,28.197c0-0.943,0.143-1.756,0.428-2.438s0.663-1.189,1.135-1.523
			c0.367-0.265,0.745-0.396,1.136-0.396c0.635,0,1.204,0.323,1.709,0.971c0.631,0.802,0.946,1.888,0.946,3.259
			c0,0.961-0.139,1.776-0.415,2.448c-0.277,0.671-0.63,1.158-1.06,1.461c-0.429,0.304-0.843,0.455-1.242,0.455
			c-0.789,0-1.446-0.466-1.971-1.397C118.416,30.251,118.193,29.305,118.193,28.197z M119.391,28.351
			c0,1.139,0.14,2.069,0.421,2.789c0.231,0.606,0.577,0.909,1.037,0.909c0.22,0,0.448-0.099,0.684-0.296
			c0.236-0.197,0.415-0.528,0.537-0.991c0.188-0.7,0.281-1.688,0.281-2.961c0-0.943-0.098-1.731-0.293-2.361
			c-0.146-0.469-0.336-0.8-0.567-0.995c-0.167-0.135-0.369-0.202-0.604-0.202c-0.277,0-0.523,0.125-0.739,0.373
			c-0.293,0.338-0.492,0.868-0.598,1.593S119.391,27.646,119.391,28.351z"/>
		<path style="fill:#0066FF;" d="M124.443,28.197c0-0.943,0.143-1.756,0.428-2.438s0.663-1.189,1.135-1.523
			c0.367-0.265,0.745-0.396,1.136-0.396c0.635,0,1.204,0.323,1.709,0.971c0.631,0.802,0.946,1.888,0.946,3.259
			c0,0.961-0.139,1.776-0.415,2.448c-0.277,0.671-0.63,1.158-1.06,1.461c-0.429,0.304-0.843,0.455-1.242,0.455
			c-0.789,0-1.446-0.466-1.971-1.397C124.666,30.251,124.443,29.305,124.443,28.197z M125.641,28.351
			c0,1.139,0.14,2.069,0.421,2.789c0.231,0.606,0.577,0.909,1.037,0.909c0.22,0,0.448-0.099,0.684-0.296
			c0.236-0.197,0.415-0.528,0.537-0.991c0.188-0.7,0.281-1.688,0.281-2.961c0-0.943-0.098-1.731-0.293-2.361
			c-0.146-0.469-0.336-0.8-0.567-0.995c-0.167-0.135-0.369-0.202-0.604-0.202c-0.277,0-0.523,0.125-0.739,0.373
			c-0.293,0.338-0.492,0.868-0.598,1.593S125.641,27.646,125.641,28.351z"/>
	</g>
	<g>
		<path style="fill:#0066FF;" d="M57.757,4.327h3.705v0.349h-3.705V4.327z"/>
		<path style="fill:#0066FF;" d="M109.245,2.654h0.346v1.687h1.677v0.342h-1.677v1.676h-0.346V4.683h-1.683V4.341h1.683V2.654z"/>
		<path style="fill:#0066FF;" d="M115.329,4.327h3.705v0.349h-3.705V4.327z"/>
	</g>
	<g>
		<path style="fill:#0066FF;" d="M37.875,24.62h3.705v0.349h-3.705V24.62z"/>
	</g>
	<g>
		<path style="fill:#0066FF;" d="M9.744,8.776c0,0.187-0.066,0.347-0.198,0.479c-0.132,0.132-0.29,0.199-0.473,0.199
			c-0.187,0-0.347-0.066-0.479-0.199C8.461,9.124,8.395,8.963,8.395,8.776S8.461,8.43,8.593,8.297
			c0.132-0.132,0.292-0.199,0.479-0.199c0.183,0,0.341,0.066,0.473,0.199C9.677,8.43,9.744,8.589,9.744,8.776z"/>
		<path style="fill:#0066FF;" d="M21.219,8.776c0,0.187-0.066,0.347-0.198,0.479c-0.132,0.132-0.29,0.199-0.473,0.199
			c-0.187,0-0.347-0.066-0.479-0.199c-0.132-0.132-0.199-0.292-0.199-0.479s0.066-0.347,0.199-0.479
			c0.132-0.132,0.292-0.199,0.479-0.199c0.183,0,0.341,0.066,0.473,0.199C21.152,8.43,21.219,8.589,21.219,8.776z"/>
		<path style="fill:#0066FF;" d="M43.556,8.776c0,0.187-0.066,0.347-0.198,0.479c-0.132,0.132-0.29,0.199-0.473,0.199
			c-0.187,0-0.347-0.066-0.479-0.199c-0.132-0.132-0.199-0.292-0.199-0.479s0.066-0.347,0.199-0.479
			c0.132-0.132,0.292-0.199,0.479-0.199c0.183,0,0.341,0.066,0.473,0.199C43.49,8.43,43.556,8.589,43.556,8.776z"/>
		<path style="fill:#0066FF;" d="M69.985,7.342h6.409v0.592h-6.409V7.342z M69.985,9.619h6.409v0.604h-6.409V9.619z"/>
		<path style="fill:#0066FF;" d="M89.68,8.776c0,0.187-0.066,0.347-0.199,0.479c-0.132,0.132-0.289,0.199-0.473,0.199
			c-0.188,0-0.347-0.066-0.479-0.199c-0.132-0.132-0.198-0.292-0.198-0.479s0.066-0.347,0.198-0.479
			c0.133-0.132,0.292-0.199,0.479-0.199c0.184,0,0.341,0.066,0.473,0.199C89.613,8.43,89.68,8.589,89.68,8.776z"/>
		<path style="fill:#0066FF;" d="M130.434,7.342h6.409v0.592h-6.409V7.342z M130.434,9.619h6.409v0.604h-6.409V9.619z"/>
	</g>
	<g>
		<path style="fill:#0066FF;" d="M0.226,27.654h6.409v0.592H0.226V27.654z M0.226,29.932h6.409v0.604H0.226V29.932z"/>
		<path style="fill:#0066FF;" d="M19.919,29.089c0,0.188-0.066,0.347-0.198,0.479c-0.132,0.132-0.29,0.198-0.473,0.198
			c-0.187,0-0.347-0.066-0.479-0.198c-0.132-0.133-0.199-0.292-0.199-0.479s0.066-0.347,0.199-0.479
			c0.132-0.132,0.292-0.198,0.479-0.198c0.183,0,0.341,0.066,0.473,0.198C19.853,28.742,19.919,28.901,19.919,29.089z"/>
		<path style="fill:#0066FF;" d="M50.836,27.654h6.409v0.592h-6.409V27.654z M50.836,29.932h6.409v0.604h-6.409V29.932z"/>
		<path style="fill:#0066FF;" d="M70.53,29.089c0,0.188-0.066,0.347-0.199,0.479c-0.132,0.132-0.289,0.198-0.473,0.198
			c-0.187,0-0.347-0.066-0.479-0.198c-0.132-0.133-0.199-0.292-0.199-0.479s0.066-0.347,0.199-0.479
			c0.132-0.132,0.292-0.198,0.479-0.198c0.184,0,0.341,0.066,0.473,0.198C70.464,28.742,70.53,28.901,70.53,29.089z"/>
		<path style="fill:#0066FF;" d="M92.496,27.654h6.409v0.592h-6.409V27.654z M92.496,29.932h6.409v0.604h-6.409V29.932z"/>
	</g>
</g>
<g id="theGroup">
</g>
</svg>
