<?xml version="1.0" encoding="iso-8859-1"?>
<!-- Generator: Adobe Illustrator 16.0.0, SVG Export Plug-In . SVG Version: 6.00 Build 0)  -->
<!DOCTYPE svg PUBLIC "-//W3C//DTD SVG 1.1//EN" "http://www.w3.org/Graphics/SVG/1.1/DTD/svg11.dtd">
<svg version="1.1" id="Lager_1" xmlns="http://www.w3.org/2000/svg" xmlns:xlink="http://www.w3.org/1999/xlink" x="0px" y="0px"
	 width="74.652px" height="14.833px" viewBox="0 0 74.652 14.833" style="enable-background:new 0 0 74.652 14.833;"
	 xml:space="preserve">
<g>
	<g>
		<path d="M0.452,6.911c0-0.944,0.143-1.757,0.427-2.438c0.285-0.681,0.663-1.189,1.135-1.523C2.38,2.685,2.759,2.553,3.149,2.553
			c0.635,0,1.205,0.323,1.709,0.971c0.631,0.801,0.946,1.888,0.946,3.259c0,0.96-0.139,1.776-0.415,2.448
			c-0.277,0.671-0.63,1.158-1.059,1.461c-0.43,0.304-0.843,0.455-1.242,0.455c-0.79,0-1.447-0.466-1.971-1.397
			C0.673,8.963,0.452,8.018,0.452,6.911z M1.648,7.063c0,1.139,0.14,2.069,0.421,2.789c0.231,0.606,0.578,0.909,1.037,0.909
			c0.22,0,0.448-0.099,0.684-0.296c0.236-0.197,0.415-0.528,0.537-0.991c0.188-0.7,0.281-1.687,0.281-2.961
			c0-0.944-0.098-1.731-0.293-2.362C4.169,3.684,3.979,3.353,3.748,3.157C3.581,3.022,3.379,2.956,3.144,2.956
			c-0.277,0-0.523,0.124-0.739,0.373C2.112,3.666,1.913,4.197,1.807,4.921S1.648,6.359,1.648,7.063z"/>
		<path d="M6.734,13.081v-0.269c0.419-0.138,0.744-0.353,0.974-0.644c0.229-0.291,0.345-0.6,0.345-0.925
			c0-0.077-0.018-0.143-0.055-0.195c-0.028-0.037-0.057-0.055-0.085-0.055c-0.045,0-0.143,0.04-0.293,0.122
			c-0.073,0.036-0.151,0.055-0.232,0.055c-0.199,0-0.358-0.059-0.476-0.177c-0.118-0.118-0.177-0.281-0.177-0.488
			c0-0.199,0.076-0.37,0.229-0.513c0.152-0.143,0.339-0.214,0.559-0.214c0.269,0,0.507,0.117,0.717,0.351
			c0.209,0.234,0.314,0.545,0.314,0.931c0,0.42-0.146,0.81-0.437,1.169C7.825,12.59,7.365,12.874,6.734,13.081z"/>
		<path d="M11.001,6.911c0-0.944,0.143-1.757,0.427-2.438c0.285-0.681,0.663-1.189,1.135-1.523c0.366-0.264,0.745-0.396,1.135-0.396
			c0.635,0,1.205,0.323,1.709,0.971c0.631,0.801,0.946,1.888,0.946,3.259c0,0.96-0.139,1.776-0.415,2.448
			c-0.277,0.671-0.63,1.158-1.059,1.461c-0.43,0.304-0.843,0.455-1.242,0.455c-0.79,0-1.447-0.466-1.971-1.397
			C11.223,8.963,11.001,8.018,11.001,6.911z M12.198,7.063c0,1.139,0.14,2.069,0.421,2.789c0.231,0.606,0.578,0.909,1.037,0.909
			c0.22,0,0.448-0.099,0.684-0.296c0.236-0.197,0.415-0.528,0.537-0.991c0.188-0.7,0.281-1.687,0.281-2.961
			c0-0.944-0.098-1.731-0.293-2.362c-0.146-0.468-0.336-0.799-0.568-0.995c-0.167-0.135-0.368-0.202-0.604-0.202
			c-0.277,0-0.523,0.124-0.739,0.373c-0.293,0.337-0.492,0.869-0.598,1.593S12.198,6.359,12.198,7.063z"/>
		<path d="M17.251,6.911c0-0.944,0.143-1.757,0.427-2.438c0.285-0.681,0.663-1.189,1.135-1.523c0.366-0.264,0.745-0.396,1.135-0.396
			c0.635,0,1.205,0.323,1.709,0.971c0.631,0.801,0.946,1.888,0.946,3.259c0,0.96-0.139,1.776-0.415,2.448
			c-0.277,0.671-0.63,1.158-1.059,1.461c-0.43,0.304-0.843,0.455-1.242,0.455c-0.79,0-1.447-0.466-1.971-1.397
			C17.473,8.963,17.251,8.018,17.251,6.911z M18.448,7.063c0,1.139,0.14,2.069,0.421,2.789c0.231,0.606,0.578,0.909,1.037,0.909
			c0.22,0,0.448-0.099,0.684-0.296c0.236-0.197,0.415-0.528,0.537-0.991c0.188-0.7,0.281-1.687,0.281-2.961
			c0-0.944-0.098-1.731-0.293-2.362c-0.146-0.468-0.336-0.799-0.568-0.995c-0.167-0.135-0.368-0.202-0.604-0.202
			c-0.277,0-0.523,0.124-0.739,0.373c-0.293,0.337-0.492,0.869-0.598,1.593S18.448,6.359,18.448,7.063z"/>
		<path d="M28.476,2.724L28,3.761h-2.49l-0.543,1.111c1.078,0.159,1.933,0.56,2.563,1.202c0.541,0.554,0.812,1.205,0.812,1.953
			c0,0.436-0.089,0.838-0.266,1.209c-0.177,0.37-0.4,0.686-0.668,0.945c-0.269,0.261-0.568,0.471-0.897,0.629
			c-0.468,0.224-0.948,0.336-1.44,0.336c-0.497,0-0.858-0.085-1.083-0.253c-0.226-0.169-0.339-0.355-0.339-0.559
			c0-0.114,0.047-0.215,0.14-0.303C23.882,9.945,24,9.901,24.143,9.901c0.105,0,0.198,0.017,0.277,0.049
			c0.08,0.032,0.215,0.116,0.406,0.25c0.305,0.212,0.614,0.317,0.928,0.317c0.476,0,0.894-0.18,1.254-0.54
			c0.36-0.36,0.54-0.799,0.54-1.315c0-0.5-0.161-0.967-0.482-1.4c-0.321-0.434-0.765-0.768-1.331-1.004
			c-0.443-0.184-1.048-0.289-1.812-0.317l1.587-3.217H28.476z"/>
		<path d="M36.616,5.244v1.904h-0.201c-0.155-0.598-0.354-1.005-0.595-1.221c-0.242-0.215-0.55-0.323-0.925-0.323
			c-0.285,0-0.515,0.075-0.69,0.226c-0.175,0.151-0.262,0.317-0.262,0.501c0,0.228,0.065,0.423,0.195,0.586
			c0.126,0.167,0.382,0.344,0.769,0.531l0.891,0.433c0.826,0.403,1.239,0.934,1.239,1.594c0,0.508-0.192,0.918-0.577,1.229
			c-0.384,0.312-0.815,0.467-1.291,0.467c-0.342,0-0.732-0.062-1.172-0.183c-0.135-0.041-0.244-0.062-0.33-0.062
			c-0.093,0-0.167,0.053-0.22,0.159h-0.201V9.09h0.201c0.114,0.569,0.332,0.999,0.653,1.287c0.321,0.289,0.682,0.434,1.08,0.434
			c0.281,0,0.51-0.082,0.687-0.247c0.177-0.165,0.265-0.363,0.265-0.595c0-0.281-0.099-0.517-0.296-0.708s-0.591-0.434-1.181-0.727
			c-0.59-0.293-0.977-0.558-1.16-0.793c-0.183-0.232-0.274-0.525-0.274-0.879c0-0.46,0.158-0.844,0.473-1.154
			c0.315-0.309,0.723-0.464,1.224-0.464c0.22,0,0.486,0.047,0.799,0.141c0.208,0.061,0.346,0.092,0.415,0.092
			c0.065,0,0.116-0.015,0.153-0.043s0.08-0.092,0.128-0.189H36.616z"/>
		<path d="M56.078,2.724l-0.476,1.038h-2.49l-0.544,1.111c1.079,0.159,1.934,0.56,2.564,1.202c0.541,0.554,0.812,1.205,0.812,1.953
			c0,0.436-0.089,0.838-0.266,1.209c-0.177,0.37-0.399,0.686-0.669,0.945c-0.268,0.261-0.567,0.471-0.896,0.629
			c-0.468,0.224-0.948,0.336-1.44,0.336c-0.497,0-0.857-0.085-1.084-0.253c-0.226-0.169-0.339-0.355-0.339-0.559
			c0-0.114,0.047-0.215,0.141-0.303c0.094-0.087,0.212-0.131,0.354-0.131c0.105,0,0.198,0.017,0.277,0.049s0.215,0.116,0.406,0.25
			c0.305,0.212,0.614,0.317,0.928,0.317c0.476,0,0.894-0.18,1.254-0.54s0.54-0.799,0.54-1.315c0-0.5-0.16-0.967-0.482-1.4
			c-0.321-0.434-0.765-0.768-1.33-1.004c-0.443-0.184-1.048-0.289-1.812-0.317l1.587-3.217H56.078z"/>
		<path d="M62.266,6.435c0.407-0.407,0.646-0.641,0.721-0.702c0.183-0.154,0.38-0.274,0.592-0.36
			c0.211-0.085,0.421-0.128,0.629-0.128c0.35,0,0.65,0.102,0.902,0.306c0.253,0.203,0.422,0.498,0.507,0.885
			c0.419-0.488,0.773-0.809,1.062-0.961c0.289-0.152,0.586-0.229,0.891-0.229c0.297,0,0.561,0.077,0.791,0.229
			c0.229,0.153,0.411,0.402,0.546,0.748c0.09,0.236,0.135,0.606,0.135,1.111v2.404c0,0.351,0.026,0.59,0.079,0.721
			c0.04,0.089,0.116,0.166,0.226,0.229c0.109,0.063,0.289,0.095,0.537,0.095V11h-2.759v-0.22h0.116c0.24,0,0.427-0.047,0.562-0.141
			c0.094-0.064,0.16-0.169,0.201-0.312c0.017-0.068,0.024-0.266,0.024-0.592V7.332c0-0.456-0.055-0.777-0.165-0.965
			c-0.158-0.26-0.413-0.391-0.763-0.391c-0.216,0-0.433,0.054-0.65,0.162s-0.48,0.308-0.79,0.601l-0.013,0.067l0.013,0.263v2.667
			c0,0.383,0.021,0.621,0.064,0.715c0.042,0.093,0.123,0.172,0.241,0.234c0.117,0.063,0.319,0.095,0.604,0.095V11h-2.826v-0.22
			c0.31,0,0.522-0.036,0.639-0.11c0.115-0.072,0.196-0.183,0.24-0.329c0.021-0.069,0.031-0.271,0.031-0.604V7.332
			c0-0.456-0.067-0.784-0.201-0.983c-0.18-0.26-0.43-0.391-0.751-0.391c-0.22,0-0.438,0.059-0.653,0.177
			c-0.338,0.179-0.598,0.38-0.781,0.604v2.997c0,0.366,0.025,0.604,0.076,0.715c0.051,0.109,0.126,0.191,0.226,0.247
			c0.1,0.055,0.303,0.082,0.607,0.082V11H60.41v-0.22c0.256,0,0.436-0.027,0.537-0.082c0.102-0.056,0.179-0.143,0.232-0.263
			c0.053-0.12,0.079-0.354,0.079-0.699V7.601c0-0.615-0.019-1.011-0.056-1.19c-0.028-0.134-0.072-0.227-0.134-0.278
			c-0.062-0.051-0.145-0.076-0.25-0.076c-0.114,0-0.251,0.031-0.409,0.091l-0.092-0.22l1.685-0.684h0.263V6.435z"/>
		<path d="M73.791,5.244v1.904H73.59c-0.155-0.598-0.354-1.005-0.596-1.221c-0.242-0.215-0.55-0.323-0.924-0.323
			c-0.285,0-0.516,0.075-0.69,0.226c-0.175,0.151-0.263,0.317-0.263,0.501c0,0.228,0.065,0.423,0.195,0.586
			c0.127,0.167,0.383,0.344,0.77,0.531l0.891,0.433c0.826,0.403,1.239,0.934,1.239,1.594c0,0.508-0.192,0.918-0.576,1.229
			c-0.385,0.312-0.815,0.467-1.291,0.467c-0.342,0-0.732-0.062-1.172-0.183c-0.135-0.041-0.244-0.062-0.33-0.062
			c-0.094,0-0.167,0.053-0.22,0.159h-0.201V9.09h0.201c0.114,0.569,0.332,0.999,0.653,1.287c0.321,0.289,0.682,0.434,1.08,0.434
			c0.281,0,0.51-0.082,0.687-0.247c0.178-0.165,0.266-0.363,0.266-0.595c0-0.281-0.099-0.517-0.296-0.708s-0.591-0.434-1.181-0.727
			s-0.977-0.558-1.16-0.793c-0.183-0.232-0.274-0.525-0.274-0.879c0-0.46,0.157-0.844,0.473-1.154
			c0.315-0.309,0.724-0.464,1.224-0.464c0.221,0,0.486,0.047,0.8,0.141c0.208,0.061,0.346,0.092,0.415,0.092
			c0.065,0,0.116-0.015,0.152-0.043c0.037-0.028,0.08-0.092,0.129-0.189H73.791z"/>
	</g>
	<g>
		<path d="M40.89,6.367h6.409v0.592H40.89V6.367z M40.89,8.645h6.409v0.604H40.89V8.645z"/>
	</g>
</g>
<g id="theGroup">
</g>
</svg>
