<?xml version="1.0" encoding="iso-8859-1"?>
<!-- Generator: Adobe Illustrator 16.0.0, SVG Export Plug-In . SVG Version: 6.00 Build 0)  -->
<!DOCTYPE svg PUBLIC "-//W3C//DTD SVG 1.1//EN" "http://www.w3.org/Graphics/SVG/1.1/DTD/svg11.dtd">
<svg version="1.1" id="Lager_1" xmlns="http://www.w3.org/2000/svg" xmlns:xlink="http://www.w3.org/1999/xlink" x="0px" y="0px"
	 width="45.289px" height="32.014px" viewBox="0 0 45.289 32.014" style="enable-background:new 0 0 45.289 32.014;"
	 xml:space="preserve">
<g>
	
		<line style="fill:none;stroke:#0066FF;stroke-width:0.5;stroke-linecap:square;stroke-miterlimit:10;" x1="0.25" y1="15.232" x2="18.062" y2="15.232"/>
	<g>
		<path style="fill:#0066FF;" d="M3.531,3.687c0.236-0.558,0.534-0.988,0.894-1.291c0.36-0.303,0.809-0.455,1.346-0.455
			c0.663,0,1.172,0.216,1.525,0.647C7.565,2.909,7.7,3.253,7.7,3.62c0,0.602-0.379,1.225-1.136,1.867
			c0.509,0.2,0.894,0.484,1.154,0.854c0.26,0.371,0.391,0.806,0.391,1.307c0,0.716-0.228,1.336-0.684,1.861
			c-0.594,0.684-1.455,1.025-2.582,1.025c-0.558,0-0.937-0.069-1.139-0.208c-0.201-0.138-0.302-0.287-0.302-0.446
			c0-0.118,0.047-0.222,0.143-0.311s0.21-0.134,0.345-0.134c0.102,0,0.205,0.016,0.311,0.049c0.069,0.021,0.226,0.095,0.47,0.223
			c0.244,0.128,0.413,0.205,0.506,0.229c0.15,0.045,0.311,0.067,0.482,0.067c0.415,0,0.776-0.161,1.083-0.482S7.205,8.82,7.205,8.38
			c0-0.322-0.071-0.635-0.213-0.94C6.886,7.212,6.77,7.04,6.644,6.921c-0.175-0.163-0.415-0.31-0.72-0.442S5.307,6.281,4.99,6.281
			H4.794V6.097C5.116,6.057,5.438,5.941,5.762,5.75C6.085,5.558,6.32,5.329,6.466,5.06s0.22-0.564,0.22-0.885
			c0-0.419-0.131-0.758-0.394-1.016C6.03,2.9,5.704,2.771,5.313,2.771c-0.631,0-1.158,0.338-1.581,1.013L3.531,3.687z"/>
		<path style="fill:#0066FF;" d="M14.877,8.795l-0.58,1.593H9.415v-0.226c1.437-1.311,2.447-2.381,3.033-3.211
			s0.879-1.589,0.879-2.276c0-0.525-0.161-0.956-0.482-1.294s-0.706-0.507-1.154-0.507c-0.407,0-0.772,0.119-1.095,0.357
			c-0.324,0.238-0.562,0.587-0.717,1.047H9.653c0.102-0.753,0.363-1.331,0.784-1.733c0.421-0.403,0.947-0.604,1.578-0.604
			c0.671,0,1.232,0.216,1.682,0.647c0.449,0.431,0.674,0.94,0.674,1.526c0,0.419-0.098,0.838-0.293,1.257
			c-0.301,0.659-0.79,1.357-1.465,2.093c-1.013,1.107-1.646,1.774-1.898,2.002h2.161c0.439,0,0.748-0.016,0.924-0.049
			c0.177-0.032,0.337-0.098,0.479-0.198c0.143-0.1,0.267-0.241,0.373-0.424H14.877z"/>
	</g>
	<g>
		<path style="fill:#0066FF;" d="M41.438,14.383c-0.655-0.537-1.077-0.968-1.267-1.294c-0.188-0.325-0.283-0.663-0.283-1.013
			c0-0.537,0.207-1,0.622-1.389s0.967-0.583,1.654-0.583c0.667,0,1.204,0.181,1.611,0.543c0.407,0.362,0.61,0.775,0.61,1.239
			c0,0.309-0.11,0.625-0.329,0.946c-0.221,0.321-0.678,0.7-1.374,1.135c0.717,0.554,1.19,0.989,1.423,1.307
			c0.309,0.415,0.463,0.852,0.463,1.312c0,0.581-0.222,1.079-0.665,1.492s-1.025,0.619-1.745,0.619
			c-0.785,0-1.398-0.246-1.838-0.738c-0.35-0.395-0.524-0.826-0.524-1.294c0-0.366,0.123-0.729,0.369-1.09
			C40.411,15.217,40.836,14.819,41.438,14.383z M41.725,14.616c-0.338,0.285-0.588,0.595-0.751,0.931
			c-0.162,0.335-0.244,0.698-0.244,1.09c0,0.524,0.144,0.944,0.431,1.26s0.652,0.473,1.096,0.473c0.439,0,0.791-0.124,1.056-0.372
			s0.396-0.549,0.396-0.903c0-0.293-0.077-0.556-0.231-0.787C43.188,15.875,42.604,15.311,41.725,14.616z M42.396,13.73
			c0.488-0.439,0.797-0.786,0.928-1.041c0.13-0.254,0.195-0.542,0.195-0.864c0-0.427-0.12-0.762-0.36-1.004
			s-0.567-0.363-0.983-0.363c-0.414,0-0.752,0.12-1.013,0.36c-0.261,0.24-0.391,0.521-0.391,0.843c0,0.211,0.054,0.423,0.162,0.635
			c0.107,0.211,0.261,0.413,0.46,0.604L42.396,13.73z"/>
	</g>
	<g>
		<path style="fill:#0066FF;" d="M17.238,25.129v0.866h-1.11v2.186H15.12v-2.186h-3.503v-0.781l3.839-5.48h0.672v5.396H17.238z
			 M15.12,25.129v-4.107l-2.905,4.107H15.12z"/>
	</g>
	<g>
		<path style="fill:#0066FF;" d="M21.842,13.919h6.41v0.592h-6.41V13.919z M21.842,16.196h6.41V16.8h-6.41V16.196z"/>
		<path style="fill:#0066FF;" d="M32.428,15.037h6.409v0.604h-6.409V15.037z"/>
	</g>
	<g>
		<path style="fill:#0066FF;" d="M1.452,24.666h6.409v0.604H1.452V24.666z"/>
	</g>
</g>
<g id="theGroup">
</g>
</svg>
