<?xml version="1.0" encoding="iso-8859-1"?>
<!-- Generator: Adobe Illustrator 16.0.0, SVG Export Plug-In . SVG Version: 6.00 Build 0)  -->
<!DOCTYPE svg PUBLIC "-//W3C//DTD SVG 1.1//EN" "http://www.w3.org/Graphics/SVG/1.1/DTD/svg11.dtd">
<svg version="1.1" id="Lager_1" xmlns="http://www.w3.org/2000/svg" xmlns:xlink="http://www.w3.org/1999/xlink" x="0px" y="0px"
	 width="65.859px" height="65.955px" viewBox="0 0 65.859 65.955" style="enable-background:new 0 0 65.859 65.955;"
	 xml:space="preserve">
<polygon style="fill-rule:evenodd;clip-rule:evenodd;fill:#E5E99B;" points="32.966,32.99 0.35,0.35 0.35,32.99 "/>
<polygon style="fill-rule:evenodd;clip-rule:evenodd;fill:#E5E99B;" points="32.966,32.99 0.35,65.605 0.35,32.99 "/>
<polygon style="fill-rule:evenodd;clip-rule:evenodd;fill:#E5E99B;" points="65.51,65.605 32.966,32.99 32.966,65.605 "/>
<polygon style="fill-rule:evenodd;clip-rule:evenodd;fill:#E5E99B;" points="32.966,32.99 65.51,65.605 65.51,32.99 "/>
<polygon style="fill-rule:evenodd;clip-rule:evenodd;fill:#E5E99B;" points="65.51,0.35 32.966,32.99 32.966,0.35 "/>
<line style="fill-rule:evenodd;clip-rule:evenodd;fill:none;stroke:#000000;stroke-width:0.7;stroke-linecap:round;stroke-linejoin:round;" x1="0.35" y1="0.35" x2="32.966" y2="32.99"/>
<rect x="0.35" y="0.35" style="fill-rule:evenodd;clip-rule:evenodd;fill:none;stroke:#000000;stroke-width:0.7;stroke-linecap:round;stroke-linejoin:round;" width="65.16" height="65.255"/>
<line style="fill-rule:evenodd;clip-rule:evenodd;fill:none;stroke:#000000;stroke-width:0.7;stroke-linecap:round;stroke-linejoin:round;" x1="32.966" y1="0.35" x2="32.966" y2="65.605"/>
<line style="fill-rule:evenodd;clip-rule:evenodd;fill:none;stroke:#000000;stroke-width:0.7;stroke-linecap:round;stroke-linejoin:round;" x1="0.35" y1="65.605" x2="65.51" y2="0.35"/>
<line style="fill-rule:evenodd;clip-rule:evenodd;fill:none;stroke:#000000;stroke-width:0.7;stroke-linecap:round;stroke-linejoin:round;" x1="32.427" y1="32.99" x2="65.51" y2="32.99"/>
<g>
	<g>
		<line style="fill:none;stroke:#C51A1B;stroke-width:0.75;" x1="32.966" y1="32.99" x2="33.672" y2="33.698"/>
		
			<line style="fill:none;stroke:#C51A1B;stroke-width:0.75;stroke-dasharray:1.9163,1.9163;" x1="35.025" y1="35.054" x2="64.127" y2="64.219"/>
		<line style="fill:none;stroke:#C51A1B;stroke-width:0.75;" x1="64.804" y1="64.897" x2="65.51" y2="65.605"/>
	</g>
</g>
<g>
	<g>
		<line style="fill:none;stroke:#C51A1B;stroke-width:0.75;" x1="0.35" y1="32.978" x2="1.35" y2="32.978"/>
		
			<line style="fill:none;stroke:#C51A1B;stroke-width:0.75;stroke-dasharray:2.0499,2.0499;" x1="3.399" y1="32.978" x2="31.073" y2="32.978"/>
		<line style="fill:none;stroke:#C51A1B;stroke-width:0.75;" x1="32.099" y1="32.978" x2="33.099" y2="32.978"/>
	</g>
</g>
<g id="theGroup">
</g>
<g>
</g>
<g>
</g>
<g>
</g>
<g>
</g>
<g>
</g>
<g>
</g>
<g>
</g>
<g>
</g>
<g>
</g>
<g>
</g>
<g>
</g>
<g>
</g>
</svg>
