<?xml version="1.0" encoding="iso-8859-1"?>
<!-- Generator: Adobe Illustrator 16.0.0, SVG Export Plug-In . SVG Version: 6.00 Build 0)  -->
<!DOCTYPE svg PUBLIC "-//W3C//DTD SVG 1.1//EN" "http://www.w3.org/Graphics/SVG/1.1/DTD/svg11.dtd">
<svg version="1.1" id="Lager_1" xmlns="http://www.w3.org/2000/svg" xmlns:xlink="http://www.w3.org/1999/xlink" x="0px" y="0px"
	 width="81.208px" height="53.896px" viewBox="0 0 81.208 53.896" style="enable-background:new 0 0 81.208 53.896;"
	 xml:space="preserve">
<g>
	<g>
		<path style="fill:#CC0000;" d="M43.288,20.813v0.131c-0.311,0.03-0.564,0.092-0.76,0.185c-0.197,0.093-0.391,0.235-0.583,0.425
			c-0.191,0.19-0.351,0.403-0.476,0.637c-0.126,0.234-0.231,0.513-0.316,0.834c0.339-0.232,0.679-0.349,1.02-0.349
			c0.327,0,0.611,0.132,0.851,0.395c0.24,0.264,0.36,0.603,0.36,1.017c0,0.4-0.122,0.764-0.363,1.094
			c-0.293,0.4-0.678,0.6-1.158,0.6c-0.327,0-0.604-0.108-0.833-0.324c-0.447-0.421-0.67-0.967-0.67-1.638
			c0-0.428,0.086-0.835,0.257-1.221c0.172-0.386,0.417-0.728,0.736-1.027s0.624-0.5,0.916-0.604
			c0.291-0.104,0.562-0.155,0.814-0.155H43.288z M41.093,23.284c-0.042,0.317-0.063,0.574-0.063,0.769
			c0,0.226,0.042,0.471,0.125,0.736c0.083,0.265,0.208,0.475,0.372,0.63c0.12,0.111,0.266,0.166,0.438,0.166
			c0.204,0,0.388-0.097,0.549-0.29s0.241-0.468,0.241-0.826c0-0.402-0.08-0.75-0.24-1.044c-0.159-0.294-0.387-0.441-0.68-0.441
			c-0.09,0-0.186,0.019-0.288,0.056C41.444,23.078,41.293,23.159,41.093,23.284z"/>
	</g>
	<g>
		<path style="fill:#0066FF;" d="M0.635,4.298c0.236-0.558,0.534-0.988,0.894-1.291c0.36-0.303,0.809-0.455,1.346-0.455
			c0.663,0,1.172,0.216,1.525,0.647c0.269,0.321,0.403,0.666,0.403,1.032c0,0.602-0.379,1.225-1.136,1.867
			c0.509,0.2,0.894,0.484,1.154,0.854c0.26,0.371,0.391,0.806,0.391,1.307c0,0.716-0.228,1.336-0.684,1.861
			c-0.594,0.684-1.455,1.025-2.582,1.025c-0.558,0-0.937-0.069-1.139-0.208c-0.201-0.138-0.302-0.287-0.302-0.446
			c0-0.118,0.047-0.222,0.143-0.311s0.21-0.134,0.345-0.134c0.102,0,0.205,0.016,0.311,0.049c0.069,0.021,0.226,0.095,0.47,0.223
			c0.244,0.128,0.413,0.205,0.506,0.229c0.15,0.045,0.311,0.067,0.482,0.067c0.415,0,0.776-0.161,1.083-0.482
			s0.461-0.702,0.461-1.141c0-0.322-0.071-0.635-0.213-0.94c-0.106-0.228-0.222-0.4-0.348-0.519c-0.175-0.163-0.415-0.31-0.72-0.442
			S2.411,6.893,2.094,6.893H1.898V6.709C2.22,6.668,2.542,6.553,2.866,6.361C3.189,6.17,3.424,5.94,3.57,5.672
			s0.22-0.564,0.22-0.885c0-0.419-0.131-0.758-0.394-1.016C3.134,3.512,2.808,3.383,2.417,3.383c-0.631,0-1.158,0.338-1.581,1.013
			L0.635,4.298z"/>
		<path style="fill:#0066FF;" d="M11.676,2.724L11.2,3.761H8.71L8.167,4.872c1.078,0.159,1.933,0.56,2.563,1.202
			c0.541,0.554,0.812,1.205,0.812,1.953c0,0.436-0.089,0.838-0.266,1.209c-0.177,0.37-0.4,0.686-0.668,0.946
			s-0.568,0.47-0.897,0.628c-0.468,0.224-0.948,0.336-1.44,0.336c-0.497,0-0.858-0.084-1.083-0.253
			c-0.226-0.168-0.339-0.355-0.339-0.558c0-0.114,0.047-0.215,0.14-0.302C7.082,9.945,7.2,9.901,7.343,9.901
			c0.105,0,0.198,0.016,0.277,0.049c0.08,0.033,0.215,0.116,0.406,0.25c0.305,0.212,0.614,0.317,0.928,0.317
			c0.476,0,0.894-0.18,1.254-0.54c0.36-0.36,0.54-0.798,0.54-1.315c0-0.5-0.161-0.967-0.482-1.4
			C9.945,6.828,9.501,6.494,8.936,6.258C8.492,6.074,7.888,5.969,7.123,5.94L8.71,2.724H11.676z"/>
		<path style="fill:#0066FF;" d="M38.65,2.724v0.226c-0.215,0-0.391,0.039-0.524,0.116c-0.135,0.077-0.263,0.222-0.385,0.434
			c-0.082,0.142-0.209,0.482-0.385,1.019l-2.307,6.671h-0.244l-1.886-5.292l-1.874,5.292h-0.22l-2.46-6.873
			c-0.183-0.513-0.299-0.815-0.348-0.909c-0.082-0.155-0.192-0.27-0.333-0.345c-0.14-0.075-0.331-0.113-0.57-0.113V2.724h3.063
			v0.226h-0.146c-0.215,0-0.38,0.049-0.494,0.146s-0.171,0.216-0.171,0.354c0,0.142,0.089,0.47,0.269,0.982l1.63,4.645l1.373-3.949
			l-0.244-0.696l-0.195-0.556c-0.085-0.203-0.181-0.382-0.287-0.537c-0.053-0.077-0.118-0.142-0.195-0.195
			c-0.102-0.073-0.203-0.126-0.305-0.158c-0.078-0.024-0.2-0.037-0.366-0.037V2.724h3.223v0.226h-0.22
			c-0.228,0-0.395,0.049-0.501,0.146c-0.105,0.098-0.158,0.23-0.158,0.397c0,0.208,0.091,0.57,0.274,1.086l1.587,4.498l1.575-4.559
			c0.179-0.504,0.269-0.854,0.269-1.05c0-0.094-0.03-0.181-0.088-0.262c-0.059-0.082-0.133-0.139-0.223-0.171
			c-0.155-0.057-0.356-0.086-0.604-0.086V2.724H38.65z"/>
	</g>
	<g>
		<path style="fill:#0066FF;" d="M11.035,24.611c0.236-0.558,0.534-0.988,0.894-1.291c0.36-0.303,0.809-0.455,1.346-0.455
			c0.663,0,1.172,0.216,1.525,0.647c0.269,0.321,0.403,0.666,0.403,1.032c0,0.602-0.379,1.225-1.136,1.867
			c0.509,0.2,0.894,0.484,1.154,0.854c0.26,0.371,0.391,0.806,0.391,1.307c0,0.716-0.228,1.336-0.684,1.861
			c-0.594,0.684-1.455,1.025-2.582,1.025c-0.558,0-0.937-0.069-1.139-0.207c-0.201-0.139-0.302-0.287-0.302-0.446
			c0-0.118,0.047-0.222,0.143-0.312c0.096-0.089,0.21-0.134,0.345-0.134c0.102,0,0.205,0.017,0.311,0.049
			c0.069,0.021,0.226,0.095,0.47,0.223s0.413,0.204,0.506,0.229c0.15,0.044,0.311,0.066,0.482,0.066c0.415,0,0.776-0.16,1.083-0.482
			c0.307-0.321,0.461-0.701,0.461-1.141c0-0.322-0.071-0.635-0.213-0.94c-0.106-0.228-0.222-0.4-0.348-0.519
			c-0.175-0.163-0.415-0.31-0.72-0.442s-0.616-0.198-0.934-0.198h-0.195v-0.184c0.321-0.041,0.644-0.156,0.967-0.348
			c0.323-0.191,0.558-0.421,0.705-0.689s0.22-0.564,0.22-0.885c0-0.419-0.131-0.758-0.394-1.016
			c-0.262-0.258-0.589-0.388-0.979-0.388c-0.631,0-1.158,0.338-1.581,1.013L11.035,24.611z"/>
		<path style="fill:#0066FF;" d="M22.076,23.036l-0.476,1.038h-2.49l-0.543,1.111c1.078,0.159,1.933,0.56,2.563,1.202
			c0.541,0.554,0.812,1.205,0.812,1.953c0,0.436-0.089,0.838-0.266,1.209c-0.177,0.37-0.4,0.686-0.668,0.945
			c-0.269,0.261-0.568,0.471-0.897,0.629c-0.468,0.224-0.948,0.336-1.44,0.336c-0.497,0-0.858-0.085-1.083-0.253
			c-0.226-0.169-0.339-0.355-0.339-0.559c0-0.114,0.047-0.215,0.14-0.303c0.094-0.087,0.212-0.131,0.354-0.131
			c0.105,0,0.198,0.017,0.277,0.049c0.08,0.032,0.215,0.116,0.406,0.25c0.305,0.212,0.614,0.317,0.928,0.317
			c0.476,0,0.894-0.18,1.254-0.54c0.36-0.36,0.54-0.799,0.54-1.315c0-0.5-0.161-0.967-0.482-1.4
			c-0.321-0.434-0.765-0.768-1.331-1.004c-0.443-0.184-1.048-0.289-1.812-0.317l1.587-3.217H22.076z"/>
		<path style="fill:#0066FF;" d="M60.488,23.036v0.226c-0.216,0-0.391,0.039-0.524,0.116c-0.135,0.077-0.263,0.222-0.385,0.434
			c-0.081,0.142-0.21,0.482-0.385,1.019l-2.307,6.671h-0.244l-1.887-5.292l-1.873,5.292h-0.22l-2.46-6.873
			c-0.184-0.513-0.299-0.815-0.348-0.909c-0.082-0.155-0.192-0.27-0.333-0.345s-0.33-0.113-0.57-0.113v-0.226h3.063v0.226H51.87
			c-0.216,0-0.38,0.049-0.494,0.146s-0.171,0.216-0.171,0.354c0,0.142,0.09,0.47,0.269,0.982l1.63,4.645l1.373-3.949l-0.244-0.696
			l-0.195-0.556c-0.085-0.203-0.181-0.382-0.287-0.537c-0.053-0.077-0.118-0.142-0.195-0.195c-0.102-0.073-0.203-0.126-0.305-0.158
			c-0.077-0.024-0.199-0.037-0.366-0.037v-0.226h3.223v0.226h-0.22c-0.229,0-0.395,0.049-0.501,0.146
			c-0.105,0.098-0.158,0.23-0.158,0.397c0,0.208,0.092,0.57,0.274,1.086l1.587,4.498l1.574-4.559c0.18-0.504,0.27-0.854,0.27-1.05
			c0-0.094-0.03-0.181-0.089-0.262c-0.06-0.082-0.134-0.139-0.223-0.171c-0.155-0.057-0.356-0.086-0.604-0.086v-0.226H60.488z"/>
		<path style="fill:#0066FF;" d="M63.861,25.923h6.586v0.501h-6.586V25.923z M63.861,27.913h6.586v0.5h-6.586V27.913z"/>
	</g>
	<g>
		<path style="fill:#0066FF;" d="M0.616,44.673h6.586v0.501H0.616V44.673z M0.616,46.663h6.586v0.5H0.616V46.663z"/>
		<path style="fill:#0066FF;" d="M11.188,43.361c0.236-0.558,0.534-0.988,0.894-1.291c0.36-0.304,0.809-0.455,1.346-0.455
			c0.663,0,1.172,0.216,1.525,0.646c0.269,0.322,0.403,0.666,0.403,1.032c0,0.602-0.379,1.225-1.136,1.867
			c0.509,0.199,0.894,0.484,1.154,0.854s0.391,0.806,0.391,1.307c0,0.716-0.228,1.336-0.684,1.861
			c-0.594,0.684-1.455,1.025-2.582,1.025c-0.558,0-0.937-0.069-1.139-0.207c-0.201-0.139-0.302-0.287-0.302-0.446
			c0-0.118,0.047-0.222,0.143-0.312c0.096-0.089,0.21-0.134,0.345-0.134c0.102,0,0.205,0.017,0.311,0.049
			c0.069,0.021,0.226,0.095,0.47,0.223s0.413,0.204,0.506,0.229c0.15,0.044,0.311,0.066,0.482,0.066c0.415,0,0.776-0.16,1.083-0.482
			c0.307-0.321,0.461-0.701,0.461-1.141c0-0.321-0.071-0.635-0.213-0.94c-0.106-0.228-0.222-0.4-0.348-0.519
			c-0.175-0.163-0.415-0.311-0.72-0.442s-0.616-0.198-0.934-0.198h-0.195v-0.184c0.321-0.04,0.644-0.156,0.967-0.348
			c0.323-0.191,0.558-0.421,0.705-0.689s0.22-0.563,0.22-0.885c0-0.42-0.131-0.758-0.394-1.017
			c-0.262-0.259-0.589-0.388-0.979-0.388c-0.631,0-1.158,0.338-1.581,1.014L11.188,43.361z"/>
		<path style="fill:#0066FF;" d="M22.229,41.786l-0.476,1.038h-2.49l-0.543,1.11c1.078,0.159,1.933,0.56,2.563,1.202
			c0.541,0.554,0.812,1.205,0.812,1.953c0,0.436-0.089,0.839-0.266,1.209c-0.177,0.37-0.4,0.686-0.668,0.945
			c-0.269,0.261-0.568,0.471-0.897,0.629c-0.468,0.224-0.948,0.336-1.44,0.336c-0.497,0-0.858-0.085-1.083-0.253
			c-0.226-0.169-0.339-0.355-0.339-0.559c0-0.114,0.047-0.215,0.14-0.303c0.094-0.087,0.212-0.131,0.354-0.131
			c0.105,0,0.198,0.017,0.277,0.049c0.08,0.032,0.215,0.116,0.406,0.25c0.305,0.212,0.614,0.317,0.928,0.317
			c0.476,0,0.894-0.18,1.254-0.54c0.36-0.36,0.54-0.799,0.54-1.315c0-0.5-0.161-0.967-0.482-1.4s-0.765-0.769-1.331-1.004
			c-0.443-0.184-1.048-0.289-1.812-0.317l1.587-3.217H22.229z"/>
		<path style="fill:#0066FF;" d="M26.08,45.973c0-0.943,0.143-1.756,0.427-2.438s0.663-1.189,1.135-1.523
			c0.366-0.265,0.745-0.396,1.135-0.396c0.635,0,1.205,0.323,1.709,0.971c0.631,0.802,0.946,1.888,0.946,3.259
			c0,0.961-0.139,1.776-0.415,2.448c-0.277,0.671-0.63,1.158-1.059,1.461c-0.43,0.304-0.843,0.455-1.242,0.455
			c-0.79,0-1.447-0.466-1.971-1.397C26.301,48.026,26.08,47.08,26.08,45.973z M27.276,46.126c0,1.139,0.14,2.069,0.421,2.789
			c0.231,0.606,0.578,0.909,1.037,0.909c0.22,0,0.448-0.099,0.684-0.296c0.236-0.197,0.415-0.528,0.537-0.991
			c0.188-0.7,0.281-1.688,0.281-2.961c0-0.943-0.098-1.731-0.293-2.361c-0.146-0.469-0.336-0.8-0.568-0.995
			c-0.167-0.135-0.368-0.202-0.604-0.202c-0.277,0-0.523,0.125-0.739,0.373c-0.293,0.338-0.492,0.868-0.598,1.593
			S27.276,45.422,27.276,46.126z"/>
		<path style="fill:#0066FF;" d="M32.33,45.973c0-0.943,0.143-1.756,0.427-2.438s0.663-1.189,1.135-1.523
			c0.366-0.265,0.745-0.396,1.135-0.396c0.635,0,1.205,0.323,1.709,0.971c0.631,0.802,0.946,1.888,0.946,3.259
			c0,0.961-0.139,1.776-0.415,2.448c-0.277,0.671-0.63,1.158-1.059,1.461c-0.43,0.304-0.843,0.455-1.242,0.455
			c-0.79,0-1.447-0.466-1.971-1.397C32.551,48.026,32.33,47.08,32.33,45.973z M33.526,46.126c0,1.139,0.14,2.069,0.421,2.789
			c0.231,0.606,0.578,0.909,1.037,0.909c0.22,0,0.448-0.099,0.684-0.296c0.236-0.197,0.415-0.528,0.537-0.991
			c0.188-0.7,0.281-1.688,0.281-2.961c0-0.943-0.098-1.731-0.293-2.361c-0.146-0.469-0.336-0.8-0.568-0.995
			c-0.167-0.135-0.368-0.202-0.604-0.202c-0.277,0-0.523,0.125-0.739,0.373c-0.293,0.338-0.492,0.868-0.598,1.593
			S33.526,45.422,33.526,46.126z"/>
	</g>
	<g>
		<path style="fill:#CC0000;" d="M20.945,11l-3.198-6.964v5.529c0,0.509,0.055,0.826,0.165,0.952
			c0.151,0.171,0.389,0.257,0.714,0.257h0.293V11h-2.881v-0.226h0.293c0.35,0,0.598-0.106,0.745-0.317
			c0.089-0.13,0.134-0.428,0.134-0.892V4.158c0-0.366-0.041-0.631-0.122-0.794c-0.057-0.118-0.162-0.216-0.314-0.296
			c-0.152-0.079-0.397-0.119-0.735-0.119V2.724h2.344l3.003,6.476l2.954-6.476h2.344v0.226h-0.287c-0.354,0-0.604,0.106-0.751,0.317
			c-0.089,0.13-0.134,0.428-0.134,0.892v5.407c0,0.509,0.057,0.826,0.171,0.952c0.15,0.171,0.389,0.257,0.714,0.257h0.287V11h-3.516
			v-0.226h0.293c0.354,0,0.602-0.106,0.745-0.317c0.089-0.13,0.134-0.428,0.134-0.892V4.036L21.146,11H20.945z"/>
	</g>
	<g>
		<path style="fill:#CC0000;" d="M28.809,23.848l2.014-0.982h0.202v6.988c0,0.464,0.019,0.753,0.058,0.867
			c0.039,0.113,0.119,0.201,0.241,0.262c0.122,0.062,0.37,0.096,0.745,0.104v0.226h-3.113v-0.226
			c0.391-0.009,0.643-0.042,0.757-0.101c0.114-0.06,0.193-0.139,0.238-0.238c0.044-0.1,0.067-0.397,0.067-0.895v-4.468
			c0-0.602-0.021-0.988-0.061-1.159c-0.028-0.13-0.081-0.226-0.156-0.287s-0.166-0.092-0.271-0.092c-0.15,0-0.36,0.063-0.628,0.189
			L28.809,23.848z"/>
		<path style="fill:#CC0000;" d="M34.045,27.223c0-0.944,0.143-1.757,0.427-2.438c0.285-0.681,0.663-1.189,1.135-1.523
			c0.366-0.264,0.745-0.396,1.135-0.396c0.635,0,1.205,0.323,1.709,0.971c0.631,0.801,0.946,1.888,0.946,3.259
			c0,0.96-0.139,1.776-0.415,2.448c-0.277,0.671-0.63,1.158-1.059,1.461c-0.43,0.304-0.843,0.455-1.242,0.455
			c-0.79,0-1.447-0.466-1.971-1.397C34.267,29.275,34.045,28.33,34.045,27.223z M35.242,27.376c0,1.14,0.14,2.069,0.421,2.789
			c0.231,0.606,0.578,0.909,1.037,0.909c0.22,0,0.448-0.099,0.684-0.296c0.236-0.197,0.415-0.528,0.537-0.991
			c0.188-0.7,0.281-1.687,0.281-2.961c0-0.944-0.098-1.731-0.293-2.362c-0.146-0.468-0.336-0.799-0.568-0.995
			c-0.167-0.135-0.368-0.202-0.604-0.202c-0.277,0-0.523,0.124-0.739,0.373c-0.293,0.337-0.492,0.869-0.598,1.593
			S35.242,26.672,35.242,27.376z"/>
	</g>
	<g>
		<path style="fill:#0066FF;" d="M38.586,45.973c0-0.943,0.143-1.756,0.427-2.438s0.663-1.189,1.135-1.523
			c0.366-0.265,0.745-0.396,1.135-0.396c0.635,0,1.204,0.323,1.709,0.971c0.631,0.802,0.946,1.888,0.946,3.259
			c0,0.961-0.139,1.776-0.415,2.448c-0.277,0.671-0.63,1.158-1.06,1.461c-0.429,0.304-0.843,0.455-1.242,0.455
			c-0.79,0-1.447-0.466-1.971-1.397C38.808,48.026,38.586,47.08,38.586,45.973z M39.783,46.126c0,1.139,0.14,2.069,0.421,2.789
			c0.231,0.606,0.578,0.909,1.037,0.909c0.22,0,0.448-0.099,0.684-0.296c0.236-0.197,0.415-0.528,0.537-0.991
			c0.188-0.7,0.281-1.688,0.281-2.961c0-0.943-0.098-1.731-0.293-2.361c-0.146-0.469-0.336-0.8-0.568-0.995
			c-0.167-0.135-0.368-0.202-0.604-0.202c-0.277,0-0.523,0.125-0.739,0.373c-0.293,0.338-0.492,0.868-0.598,1.593
			S39.783,45.422,39.783,46.126z"/>
		<path style="fill:#0066FF;" d="M47.599,45.973c0-0.943,0.143-1.756,0.428-2.438s0.663-1.189,1.135-1.523
			c0.367-0.265,0.745-0.396,1.136-0.396c0.635,0,1.204,0.323,1.709,0.971c0.631,0.802,0.946,1.888,0.946,3.259
			c0,0.961-0.139,1.776-0.415,2.448c-0.277,0.671-0.63,1.158-1.06,1.461c-0.429,0.304-0.843,0.455-1.242,0.455
			c-0.789,0-1.446-0.466-1.971-1.397C47.821,48.026,47.599,47.08,47.599,45.973z M48.796,46.126c0,1.139,0.14,2.069,0.421,2.789
			c0.231,0.606,0.577,0.909,1.037,0.909c0.22,0,0.448-0.099,0.684-0.296c0.236-0.197,0.415-0.528,0.537-0.991
			c0.188-0.7,0.281-1.688,0.281-2.961c0-0.943-0.098-1.731-0.293-2.361c-0.146-0.469-0.336-0.8-0.567-0.995
			c-0.167-0.135-0.369-0.202-0.604-0.202c-0.277,0-0.523,0.125-0.739,0.373c-0.293,0.338-0.492,0.868-0.598,1.593
			S48.796,45.422,48.796,46.126z"/>
		<path style="fill:#0066FF;" d="M53.849,45.973c0-0.943,0.143-1.756,0.428-2.438s0.663-1.189,1.135-1.523
			c0.367-0.265,0.745-0.396,1.136-0.396c0.635,0,1.204,0.323,1.709,0.971c0.631,0.802,0.946,1.888,0.946,3.259
			c0,0.961-0.139,1.776-0.415,2.448c-0.277,0.671-0.63,1.158-1.06,1.461c-0.429,0.304-0.843,0.455-1.242,0.455
			c-0.789,0-1.446-0.466-1.971-1.397C54.071,48.026,53.849,47.08,53.849,45.973z M55.046,46.126c0,1.139,0.14,2.069,0.421,2.789
			c0.231,0.606,0.577,0.909,1.037,0.909c0.22,0,0.448-0.099,0.684-0.296c0.236-0.197,0.415-0.528,0.537-0.991
			c0.188-0.7,0.281-1.688,0.281-2.961c0-0.943-0.098-1.731-0.293-2.361c-0.146-0.469-0.336-0.8-0.567-0.995
			c-0.167-0.135-0.369-0.202-0.604-0.202c-0.277,0-0.523,0.125-0.739,0.373c-0.293,0.338-0.492,0.868-0.598,1.593
			S55.046,45.422,55.046,46.126z"/>
		<path style="fill:#0066FF;" d="M60.099,45.973c0-0.943,0.143-1.756,0.428-2.438s0.663-1.189,1.135-1.523
			c0.367-0.265,0.745-0.396,1.136-0.396c0.635,0,1.204,0.323,1.709,0.971c0.631,0.802,0.946,1.888,0.946,3.259
			c0,0.961-0.139,1.776-0.415,2.448c-0.277,0.671-0.63,1.158-1.06,1.461c-0.429,0.304-0.843,0.455-1.242,0.455
			c-0.789,0-1.446-0.466-1.971-1.397C60.321,48.026,60.099,47.08,60.099,45.973z M61.296,46.126c0,1.139,0.14,2.069,0.421,2.789
			c0.231,0.606,0.577,0.909,1.037,0.909c0.22,0,0.448-0.099,0.684-0.296c0.236-0.197,0.415-0.528,0.537-0.991
			c0.188-0.7,0.281-1.688,0.281-2.961c0-0.943-0.098-1.731-0.293-2.361c-0.146-0.469-0.336-0.8-0.567-0.995
			c-0.167-0.135-0.369-0.202-0.604-0.202c-0.277,0-0.523,0.125-0.739,0.373c-0.293,0.338-0.492,0.868-0.598,1.593
			S61.296,45.422,61.296,46.126z"/>
		<path style="fill:#0066FF;" d="M81.11,41.786v0.226c-0.216,0-0.391,0.039-0.524,0.116c-0.135,0.077-0.263,0.222-0.385,0.434
			c-0.081,0.143-0.21,0.481-0.385,1.019l-2.307,6.672h-0.244l-1.887-5.292l-1.873,5.292h-0.22l-2.46-6.873
			c-0.184-0.513-0.299-0.815-0.348-0.909c-0.082-0.154-0.192-0.27-0.333-0.345s-0.33-0.113-0.57-0.113v-0.226h3.063v0.226h-0.146
			c-0.216,0-0.38,0.049-0.494,0.146s-0.171,0.216-0.171,0.354c0,0.143,0.09,0.47,0.269,0.982l1.63,4.645l1.373-3.948l-0.244-0.696
			l-0.195-0.556c-0.085-0.203-0.181-0.382-0.287-0.537c-0.053-0.077-0.118-0.143-0.195-0.195c-0.102-0.073-0.203-0.126-0.305-0.158
			c-0.077-0.024-0.199-0.037-0.366-0.037v-0.226h3.223v0.226h-0.22c-0.229,0-0.395,0.049-0.501,0.146
			c-0.105,0.098-0.158,0.23-0.158,0.396c0,0.208,0.092,0.57,0.274,1.087l1.587,4.498l1.574-4.56c0.18-0.504,0.27-0.854,0.27-1.049
			c0-0.094-0.03-0.182-0.089-0.263c-0.06-0.082-0.134-0.139-0.223-0.171c-0.155-0.058-0.356-0.086-0.604-0.086v-0.226H81.11z"/>
	</g>
	<g>
		<path style="fill:#0066FF;" d="M42.462,6.367h6.409v0.592h-6.409V6.367z M42.462,8.644h6.409v0.604h-6.409V8.644z"/>
	</g>
	<g>
		<path style="fill:#0066FF;" d="M0.616,26.68h6.409v0.592H0.616V26.68z M0.616,28.957h6.409v0.604H0.616V28.957z"/>
		<path style="fill:#0066FF;" d="M26.172,28.114c0,0.187-0.066,0.347-0.198,0.479c-0.132,0.132-0.29,0.198-0.473,0.198
			c-0.187,0-0.347-0.066-0.479-0.198c-0.132-0.133-0.199-0.292-0.199-0.479s0.066-0.347,0.199-0.479
			c0.132-0.132,0.292-0.199,0.479-0.199c0.183,0,0.341,0.066,0.473,0.199C26.106,27.768,26.172,27.927,26.172,28.114z"/>
	</g>
</g>
<g id="theGroup">
</g>
</svg>
