<?xml version="1.0" encoding="iso-8859-1"?>
<!-- Generator: Adobe Illustrator 16.0.0, SVG Export Plug-In . SVG Version: 6.00 Build 0)  -->
<!DOCTYPE svg PUBLIC "-//W3C//DTD SVG 1.1//EN" "http://www.w3.org/Graphics/SVG/1.1/DTD/svg11.dtd">
<svg version="1.1" id="Lager_1" xmlns="http://www.w3.org/2000/svg" xmlns:xlink="http://www.w3.org/1999/xlink" x="0px" y="0px"
	 width="146.553px" height="49.983px" viewBox="0 0 146.553 49.983" style="enable-background:new 0 0 146.553 49.983;"
	 xml:space="preserve">
<g>
	
		<line style="fill:none;stroke:#0066FF;stroke-width:0.5;stroke-linecap:square;stroke-miterlimit:10;" x1="0.25" y1="15.232" x2="56.266" y2="15.232"/>
	<g>
		<path style="fill:#0066FF;" d="M14.41,2.923l2.014-0.982h0.202v6.988c0,0.464,0.019,0.753,0.058,0.867
			c0.038,0.114,0.119,0.201,0.241,0.262s0.37,0.096,0.744,0.104v0.226h-3.112v-0.226c0.391-0.008,0.643-0.042,0.757-0.101
			c0.113-0.059,0.193-0.138,0.238-0.238c0.044-0.1,0.066-0.398,0.066-0.895V4.461c0-0.602-0.021-0.988-0.061-1.159
			c-0.028-0.13-0.081-0.226-0.156-0.287s-0.165-0.092-0.271-0.092c-0.15,0-0.359,0.063-0.628,0.189L14.41,2.923z"/>
		<path style="fill:#0066FF;" d="M19.854,10.559v-0.226c0.528-0.008,1.021-0.131,1.477-0.37c0.456-0.238,0.896-0.654,1.321-1.248
			c0.426-0.594,0.722-1.247,0.889-1.959c-0.639,0.411-1.217,0.617-1.733,0.617c-0.582,0-1.08-0.225-1.495-0.674
			s-0.623-1.047-0.623-1.792c0-0.724,0.208-1.369,0.623-1.935c0.5-0.688,1.153-1.031,1.959-1.031c0.68,0,1.261,0.281,1.745,0.842
			c0.595,0.696,0.892,1.554,0.892,2.576c0,0.919-0.226,1.777-0.678,2.573c-0.451,0.795-1.08,1.456-1.886,1.98
			c-0.655,0.431-1.369,0.647-2.143,0.647H19.854z M23.638,6.305c0.073-0.529,0.109-0.952,0.109-1.27
			c0-0.395-0.066-0.821-0.201-1.279c-0.134-0.458-0.324-0.809-0.57-1.053c-0.247-0.244-0.526-0.366-0.84-0.366
			c-0.362,0-0.68,0.163-0.952,0.488c-0.272,0.326-0.408,0.81-0.408,1.453c0,0.858,0.181,1.53,0.543,2.014
			c0.265,0.35,0.59,0.525,0.977,0.525c0.187,0,0.409-0.045,0.665-0.135C23.217,6.594,23.443,6.468,23.638,6.305z"/>
		<path style="fill:#0066FF;" d="M25.928,12.469v-0.269c0.419-0.138,0.744-0.353,0.974-0.644c0.229-0.291,0.345-0.599,0.345-0.925
			c0-0.077-0.018-0.143-0.055-0.195c-0.028-0.037-0.057-0.055-0.085-0.055c-0.045,0-0.143,0.041-0.293,0.122
			c-0.073,0.036-0.151,0.055-0.232,0.055c-0.199,0-0.358-0.059-0.476-0.177c-0.118-0.118-0.178-0.281-0.178-0.488
			c0-0.2,0.076-0.371,0.229-0.513c0.152-0.143,0.339-0.214,0.559-0.214c0.269,0,0.507,0.117,0.717,0.351
			c0.209,0.234,0.314,0.544,0.314,0.931c0,0.419-0.146,0.809-0.437,1.169C27.02,11.978,26.559,12.262,25.928,12.469z"/>
		<path style="fill:#0066FF;" d="M35.761,7.336v0.867h-1.11v2.185h-1.008V8.203H30.14V7.422l3.839-5.481h0.672v5.396H35.761z
			 M33.643,7.336V3.229l-2.905,4.107H33.643z"/>
		<path style="fill:#0066FF;" d="M37.452,2.112h4.438v0.232l-2.759,8.215h-0.684l2.472-7.452h-2.276
			c-0.46,0-0.787,0.055-0.982,0.165c-0.342,0.187-0.616,0.476-0.824,0.867l-0.177-0.067L37.452,2.112z"/>
	</g>
	<g>
		<path style="fill:#0066FF;" d="M6.847,25.129v0.866h-1.11v2.186H4.729v-2.186H1.226v-0.781l3.839-5.48h0.672v5.396H6.847z
			 M4.729,25.129v-4.107l-2.905,4.107H4.729z"/>
		<path style="fill:#0066FF;" d="M12.883,19.734v0.226c-0.537,0.053-0.976,0.16-1.315,0.321s-0.675,0.406-1.007,0.735
			s-0.606,0.697-0.824,1.102c-0.218,0.405-0.399,0.886-0.546,1.444c0.586-0.403,1.174-0.604,1.764-0.604
			c0.565,0,1.057,0.228,1.472,0.684s0.622,1.042,0.622,1.758c0,0.691-0.21,1.322-0.629,1.893c-0.504,0.691-1.172,1.037-2.002,1.037
			c-0.565,0-1.046-0.188-1.44-0.562c-0.772-0.729-1.159-1.673-1.159-2.832c0-0.741,0.148-1.444,0.445-2.112s0.721-1.259,1.272-1.776
			c0.552-0.517,1.079-0.865,1.584-1.044s0.975-0.269,1.41-0.269H12.883z M9.087,24.006c-0.073,0.549-0.11,0.992-0.11,1.331
			c0,0.391,0.072,0.814,0.217,1.272c0.145,0.457,0.359,0.82,0.645,1.089c0.207,0.191,0.459,0.287,0.757,0.287
			c0.354,0,0.67-0.167,0.948-0.5c0.279-0.334,0.419-0.811,0.419-1.429c0-0.696-0.139-1.298-0.415-1.807
			c-0.277-0.509-0.67-0.763-1.179-0.763c-0.154,0-0.32,0.032-0.497,0.098C9.695,23.65,9.433,23.791,9.087,24.006z"/>
		<path style="fill:#0066FF;" d="M14.014,30.262v-0.269c0.419-0.138,0.744-0.353,0.974-0.644s0.345-0.6,0.345-0.925
			c0-0.077-0.018-0.143-0.055-0.195c-0.028-0.037-0.057-0.055-0.085-0.055c-0.045,0-0.143,0.04-0.293,0.122
			c-0.073,0.036-0.151,0.055-0.232,0.055c-0.199,0-0.358-0.059-0.476-0.177c-0.118-0.118-0.178-0.281-0.178-0.488
			c0-0.199,0.076-0.37,0.229-0.513c0.152-0.143,0.339-0.214,0.559-0.214c0.269,0,0.507,0.117,0.717,0.351
			c0.209,0.234,0.314,0.545,0.314,0.931c0,0.42-0.146,0.81-0.437,1.169C15.106,29.771,14.645,30.055,14.014,30.262z"/>
		<path style="fill:#0066FF;" d="M19.841,24.012c-0.654-0.537-1.077-0.968-1.266-1.294c-0.189-0.325-0.284-0.663-0.284-1.013
			c0-0.537,0.207-1,0.622-1.389s0.967-0.583,1.654-0.583c0.668,0,1.205,0.181,1.611,0.543c0.407,0.362,0.61,0.775,0.61,1.239
			c0,0.309-0.109,0.625-0.329,0.946c-0.22,0.321-0.678,0.7-1.374,1.135c0.717,0.554,1.19,0.989,1.423,1.307
			c0.309,0.415,0.464,0.853,0.464,1.312c0,0.581-0.222,1.079-0.666,1.492c-0.443,0.413-1.025,0.619-1.745,0.619
			c-0.785,0-1.397-0.246-1.837-0.738c-0.351-0.395-0.525-0.826-0.525-1.294c0-0.366,0.123-0.729,0.369-1.09
			C18.815,24.846,19.24,24.448,19.841,24.012z M20.128,24.245c-0.338,0.285-0.588,0.595-0.751,0.931
			c-0.162,0.336-0.244,0.699-0.244,1.09c0,0.524,0.144,0.944,0.431,1.26s0.652,0.473,1.096,0.473c0.439,0,0.791-0.124,1.056-0.372
			s0.396-0.549,0.396-0.903c0-0.293-0.077-0.555-0.231-0.787C21.591,25.503,21.007,24.94,20.128,24.245z M20.8,23.359
			c0.488-0.439,0.797-0.786,0.928-1.041c0.13-0.254,0.195-0.542,0.195-0.864c0-0.427-0.12-0.762-0.36-1.004
			s-0.567-0.363-0.982-0.363s-0.753,0.12-1.014,0.36c-0.26,0.24-0.391,0.521-0.391,0.843c0,0.211,0.054,0.423,0.162,0.635
			c0.107,0.211,0.262,0.413,0.461,0.604L20.8,23.359z"/>
		<path style="fill:#0066FF;" d="M35.071,20.716l2.014-0.982h0.202v6.988c0,0.464,0.019,0.753,0.058,0.867
			c0.038,0.113,0.119,0.201,0.241,0.262c0.122,0.062,0.37,0.096,0.744,0.104v0.226h-3.112v-0.226
			c0.391-0.009,0.643-0.042,0.757-0.101c0.113-0.06,0.193-0.139,0.238-0.238c0.044-0.1,0.066-0.397,0.066-0.895v-4.468
			c0-0.602-0.021-0.988-0.061-1.159c-0.028-0.13-0.081-0.226-0.156-0.287s-0.165-0.092-0.271-0.092c-0.15,0-0.359,0.063-0.628,0.189
			L35.071,20.716z"/>
		<path style="fill:#0066FF;" d="M41.321,20.716l2.014-0.982h0.202v6.988c0,0.464,0.019,0.753,0.058,0.867
			c0.038,0.113,0.119,0.201,0.241,0.262c0.122,0.062,0.37,0.096,0.744,0.104v0.226h-3.112v-0.226
			c0.391-0.009,0.643-0.042,0.757-0.101c0.113-0.06,0.193-0.139,0.238-0.238c0.044-0.1,0.066-0.397,0.066-0.895v-4.468
			c0-0.602-0.021-0.988-0.061-1.159c-0.028-0.13-0.081-0.226-0.156-0.287s-0.165-0.092-0.271-0.092c-0.15,0-0.359,0.063-0.628,0.189
			L41.321,20.716z"/>
		<path style="fill:#0066FF;" d="M45.615,30.262v-0.269c0.419-0.138,0.743-0.353,0.974-0.644c0.229-0.291,0.345-0.6,0.345-0.925
			c0-0.077-0.019-0.143-0.056-0.195c-0.028-0.037-0.057-0.055-0.085-0.055c-0.045,0-0.143,0.04-0.293,0.122
			c-0.073,0.036-0.15,0.055-0.232,0.055c-0.199,0-0.357-0.059-0.476-0.177s-0.177-0.281-0.177-0.488c0-0.199,0.076-0.37,0.229-0.513
			s0.339-0.214,0.559-0.214c0.269,0,0.508,0.117,0.717,0.351c0.21,0.234,0.314,0.545,0.314,0.931c0,0.42-0.146,0.81-0.437,1.169
			C46.706,29.771,46.246,30.055,45.615,30.262z"/>
		<path style="fill:#0066FF;" d="M55.447,25.129v0.866h-1.11v2.186H53.33v-2.186h-3.504v-0.781l3.839-5.48h0.672v5.396H55.447z
			 M53.33,25.129v-4.107l-2.905,4.107H53.33z"/>
	</g>
	<g>
		<path style="fill:#0066FF;" d="M10.533,38.685l2.014-0.982h0.202v6.988c0,0.464,0.019,0.753,0.058,0.867
			c0.038,0.113,0.119,0.201,0.241,0.262c0.122,0.062,0.37,0.096,0.744,0.104v0.226h-3.112v-0.226
			c0.391-0.009,0.643-0.042,0.757-0.101c0.113-0.06,0.193-0.139,0.238-0.238c0.044-0.1,0.066-0.397,0.066-0.895v-4.468
			c0-0.602-0.021-0.988-0.061-1.159c-0.028-0.131-0.081-0.227-0.156-0.287s-0.165-0.092-0.271-0.092
			c-0.15,0-0.359,0.063-0.628,0.189L10.533,38.685z"/>
		<path style="fill:#0066FF;" d="M15.977,46.321v-0.226c0.528-0.009,1.021-0.132,1.477-0.369c0.456-0.238,0.896-0.654,1.321-1.248
			c0.426-0.595,0.722-1.248,0.889-1.96c-0.639,0.411-1.217,0.616-1.733,0.616c-0.582,0-1.08-0.225-1.495-0.674
			s-0.623-1.047-0.623-1.791c0-0.725,0.208-1.37,0.623-1.936c0.5-0.688,1.153-1.031,1.959-1.031c0.68,0,1.261,0.281,1.745,0.842
			c0.595,0.696,0.892,1.555,0.892,2.576c0,0.92-0.226,1.777-0.678,2.572c-0.451,0.796-1.08,1.456-1.886,1.98
			c-0.655,0.432-1.369,0.647-2.143,0.647H15.977z M19.761,42.067c0.073-0.529,0.109-0.952,0.109-1.27
			c0-0.395-0.066-0.821-0.201-1.279c-0.134-0.457-0.324-0.809-0.57-1.053c-0.247-0.244-0.526-0.366-0.84-0.366
			c-0.362,0-0.68,0.163-0.952,0.488c-0.272,0.326-0.408,0.81-0.408,1.453c0,0.858,0.181,1.529,0.543,2.014
			c0.265,0.351,0.59,0.525,0.977,0.525c0.187,0,0.409-0.045,0.665-0.135C19.34,42.356,19.566,42.229,19.761,42.067z"/>
		<path style="fill:#0066FF;" d="M22.051,48.231v-0.269c0.419-0.138,0.744-0.353,0.974-0.644s0.345-0.6,0.345-0.925
			c0-0.077-0.018-0.143-0.055-0.195c-0.028-0.037-0.057-0.055-0.085-0.055c-0.045,0-0.143,0.04-0.293,0.122
			c-0.073,0.036-0.151,0.055-0.232,0.055c-0.199,0-0.358-0.059-0.476-0.177c-0.118-0.118-0.178-0.281-0.178-0.488
			c0-0.199,0.076-0.37,0.229-0.513c0.152-0.143,0.339-0.214,0.559-0.214c0.269,0,0.507,0.117,0.717,0.351
			c0.209,0.234,0.314,0.545,0.314,0.931c0,0.42-0.146,0.81-0.437,1.169C23.143,47.74,22.682,48.024,22.051,48.231z"/>
		<path style="fill:#0066FF;" d="M31.884,43.098v0.866h-1.11v2.186h-1.008v-2.186h-3.503v-0.781l3.839-5.48h0.672v5.396H31.884z
			 M29.766,43.098v-4.107l-2.905,4.107H29.766z"/>
		<path style="fill:#0066FF;" d="M33.575,37.874h4.438v0.231l-2.759,8.216H34.57l2.472-7.452h-2.276
			c-0.46,0-0.787,0.055-0.982,0.164c-0.342,0.188-0.616,0.477-0.824,0.867l-0.177-0.067L33.575,37.874z"/>
		<path style="fill:#0066FF;" d="M44.484,37.47l-2.997,8.851h-0.488l2.997-8.851H44.484z"/>
		<path style="fill:#0066FF;" d="M50.797,48.597v0.227c-0.614-0.31-1.127-0.672-1.538-1.087c-0.586-0.59-1.037-1.286-1.354-2.087
			c-0.317-0.802-0.477-1.634-0.477-2.497c0-1.261,0.312-2.411,0.934-3.451c0.623-1.04,1.435-1.783,2.436-2.231v0.257
			c-0.5,0.276-0.911,0.655-1.232,1.136c-0.321,0.479-0.562,1.088-0.721,1.824c-0.158,0.736-0.238,1.506-0.238,2.308
			c0,0.87,0.067,1.662,0.202,2.374c0.105,0.562,0.233,1.012,0.384,1.352c0.151,0.34,0.354,0.667,0.607,0.98
			C50.054,48.013,50.386,48.313,50.797,48.597z"/>
		<path style="fill:#0066FF;" d="M57.219,43.098v0.866h-1.11v2.186h-1.007v-2.186h-3.504v-0.781l3.839-5.48h0.672v5.396H57.219z
			 M55.102,43.098v-4.107l-2.905,4.107H55.102z"/>
		<path style="fill:#0066FF;" d="M63.256,37.703v0.226c-0.537,0.053-0.976,0.16-1.315,0.32c-0.34,0.161-0.676,0.406-1.007,0.735
			c-0.332,0.33-0.606,0.697-0.824,1.103c-0.218,0.404-0.4,0.886-0.547,1.443c0.586-0.403,1.175-0.604,1.765-0.604
			c0.565,0,1.056,0.228,1.471,0.684s0.622,1.042,0.622,1.758c0,0.691-0.209,1.322-0.628,1.893c-0.505,0.691-1.172,1.037-2.002,1.037
			c-0.565,0-1.046-0.188-1.44-0.562c-0.773-0.729-1.16-1.673-1.16-2.832c0-0.74,0.148-1.444,0.445-2.112
			c0.298-0.667,0.722-1.259,1.273-1.775c0.551-0.517,1.079-0.865,1.583-1.044c0.505-0.179,0.975-0.269,1.41-0.269H63.256z
			 M59.459,41.975c-0.073,0.55-0.109,0.993-0.109,1.331c0,0.391,0.072,0.814,0.217,1.272c0.144,0.457,0.358,0.82,0.644,1.089
			c0.207,0.191,0.46,0.287,0.757,0.287c0.354,0,0.67-0.167,0.949-0.5c0.278-0.334,0.418-0.811,0.418-1.429
			c0-0.696-0.139-1.298-0.415-1.807s-0.669-0.763-1.178-0.763c-0.155,0-0.32,0.032-0.498,0.098
			C60.067,41.619,59.805,41.759,59.459,41.975z"/>
		<path style="fill:#0066FF;" d="M64.387,48.231v-0.269c0.419-0.138,0.743-0.353,0.974-0.644c0.229-0.291,0.345-0.6,0.345-0.925
			c0-0.077-0.019-0.143-0.056-0.195c-0.028-0.037-0.057-0.055-0.085-0.055c-0.045,0-0.143,0.04-0.293,0.122
			c-0.073,0.036-0.15,0.055-0.232,0.055c-0.199,0-0.357-0.059-0.476-0.177s-0.177-0.281-0.177-0.488c0-0.199,0.076-0.37,0.229-0.513
			s0.339-0.214,0.559-0.214c0.269,0,0.508,0.117,0.717,0.351c0.21,0.234,0.314,0.545,0.314,0.931c0,0.42-0.146,0.81-0.437,1.169
			C65.478,47.74,65.018,48.024,64.387,48.231z"/>
		<path style="fill:#0066FF;" d="M70.214,41.981c-0.655-0.537-1.077-0.968-1.267-1.294c-0.189-0.325-0.283-0.663-0.283-1.013
			c0-0.537,0.207-1,0.622-1.389s0.967-0.583,1.654-0.583c0.667,0,1.204,0.181,1.611,0.543c0.406,0.362,0.61,0.775,0.61,1.239
			c0,0.31-0.11,0.625-0.33,0.946s-0.677,0.699-1.373,1.135c0.716,0.554,1.19,0.989,1.422,1.307c0.31,0.415,0.464,0.853,0.464,1.312
			c0,0.581-0.222,1.079-0.665,1.492s-1.025,0.619-1.745,0.619c-0.786,0-1.398-0.246-1.838-0.738
			c-0.35-0.395-0.524-0.826-0.524-1.294c0-0.366,0.123-0.729,0.369-1.09S69.612,42.417,70.214,41.981z M70.501,42.213
			c-0.338,0.284-0.588,0.595-0.751,0.931s-0.244,0.699-0.244,1.09c0,0.524,0.144,0.944,0.431,1.26
			c0.286,0.315,0.651,0.473,1.096,0.473c0.439,0,0.791-0.124,1.056-0.372s0.396-0.549,0.396-0.903c0-0.293-0.077-0.555-0.231-0.787
			C71.964,43.472,71.38,42.909,70.501,42.213z M71.172,41.328c0.488-0.439,0.798-0.786,0.928-1.04
			c0.131-0.254,0.195-0.542,0.195-0.864c0-0.427-0.12-0.762-0.359-1.004c-0.24-0.241-0.568-0.363-0.983-0.363
			s-0.753,0.12-1.013,0.36c-0.261,0.24-0.391,0.521-0.391,0.843c0,0.211,0.054,0.423,0.161,0.635
			c0.108,0.211,0.262,0.413,0.461,0.604L71.172,41.328z"/>
		<path style="fill:#0066FF;" d="M85.443,38.685l2.014-0.982h0.202v6.988c0,0.464,0.019,0.753,0.058,0.867
			c0.039,0.113,0.119,0.201,0.241,0.262c0.122,0.062,0.37,0.096,0.745,0.104v0.226h-3.113v-0.226
			c0.391-0.009,0.643-0.042,0.757-0.101c0.114-0.06,0.193-0.139,0.238-0.238s0.067-0.397,0.067-0.895v-4.468
			c0-0.602-0.021-0.988-0.062-1.159c-0.028-0.131-0.08-0.227-0.155-0.287c-0.076-0.061-0.166-0.092-0.271-0.092
			c-0.151,0-0.36,0.063-0.629,0.189L85.443,38.685z"/>
		<path style="fill:#0066FF;" d="M91.693,38.685l2.014-0.982h0.202v6.988c0,0.464,0.019,0.753,0.058,0.867
			c0.039,0.113,0.119,0.201,0.241,0.262c0.122,0.062,0.37,0.096,0.745,0.104v0.226h-3.113v-0.226
			c0.391-0.009,0.643-0.042,0.757-0.101c0.114-0.06,0.193-0.139,0.238-0.238s0.067-0.397,0.067-0.895v-4.468
			c0-0.602-0.021-0.988-0.062-1.159c-0.028-0.131-0.08-0.227-0.155-0.287c-0.076-0.061-0.166-0.092-0.271-0.092
			c-0.151,0-0.36,0.063-0.629,0.189L91.693,38.685z"/>
		<path style="fill:#0066FF;" d="M95.987,48.231v-0.269c0.419-0.138,0.743-0.353,0.973-0.644c0.23-0.291,0.346-0.6,0.346-0.925
			c0-0.077-0.019-0.143-0.056-0.195c-0.028-0.037-0.057-0.055-0.085-0.055c-0.045,0-0.143,0.04-0.293,0.122
			c-0.073,0.036-0.15,0.055-0.232,0.055c-0.199,0-0.357-0.059-0.476-0.177s-0.177-0.281-0.177-0.488c0-0.199,0.076-0.37,0.229-0.513
			s0.339-0.214,0.559-0.214c0.269,0,0.507,0.117,0.717,0.351c0.21,0.234,0.314,0.545,0.314,0.931c0,0.42-0.146,0.81-0.437,1.169
			C97.078,47.74,96.617,48.024,95.987,48.231z"/>
		<path style="fill:#0066FF;" d="M105.819,43.098v0.866h-1.11v2.186h-1.007v-2.186h-3.504v-0.781l3.839-5.48h0.672v5.396H105.819z
			 M103.702,43.098v-4.107l-2.906,4.107H103.702z"/>
		<path style="fill:#0066FF;" d="M106.534,37.727V37.47c0.618,0.306,1.133,0.666,1.544,1.081c0.582,0.594,1.031,1.291,1.349,2.09
			c0.317,0.8,0.477,1.633,0.477,2.5c0,1.261-0.311,2.412-0.932,3.451c-0.62,1.04-1.433,1.783-2.438,2.231v-0.227
			c0.5-0.28,0.912-0.66,1.235-1.138c0.323-0.479,0.563-1.087,0.721-1.825c0.156-0.738,0.234-1.509,0.234-2.311
			c0-0.866-0.067-1.658-0.201-2.374c-0.102-0.562-0.229-1.011-0.382-1.349c-0.152-0.338-0.354-0.663-0.607-0.977
			C107.282,38.311,106.948,38.012,106.534,37.727z"/>
		<path style="fill:#0066FF;" d="M124.154,42.06c0-0.943,0.143-1.756,0.428-2.438s0.663-1.189,1.135-1.523
			c0.367-0.265,0.745-0.396,1.136-0.396c0.635,0,1.204,0.323,1.709,0.971c0.631,0.802,0.946,1.888,0.946,3.259
			c0,0.961-0.139,1.776-0.415,2.448c-0.277,0.671-0.63,1.158-1.06,1.461c-0.429,0.304-0.843,0.455-1.242,0.455
			c-0.789,0-1.446-0.466-1.971-1.397C124.376,44.114,124.154,43.167,124.154,42.06z M125.351,42.213c0,1.139,0.14,2.069,0.421,2.789
			c0.231,0.606,0.577,0.909,1.037,0.909c0.22,0,0.448-0.099,0.684-0.296c0.236-0.197,0.415-0.528,0.537-0.991
			c0.188-0.7,0.281-1.688,0.281-2.961c0-0.943-0.098-1.731-0.293-2.361c-0.146-0.469-0.336-0.8-0.567-0.995
			c-0.167-0.135-0.369-0.202-0.604-0.202c-0.277,0-0.523,0.125-0.739,0.373c-0.293,0.338-0.492,0.868-0.598,1.593
			S125.351,41.509,125.351,42.213z"/>
		<path style="fill:#0066FF;" d="M130.437,48.231v-0.269c0.419-0.138,0.743-0.353,0.973-0.644c0.23-0.291,0.346-0.6,0.346-0.925
			c0-0.077-0.019-0.143-0.056-0.195c-0.028-0.037-0.057-0.055-0.085-0.055c-0.045,0-0.143,0.04-0.293,0.122
			c-0.073,0.036-0.15,0.055-0.232,0.055c-0.199,0-0.357-0.059-0.476-0.177s-0.177-0.281-0.177-0.488c0-0.199,0.076-0.37,0.229-0.513
			s0.339-0.214,0.559-0.214c0.269,0,0.507,0.117,0.717,0.351c0.21,0.234,0.314,0.545,0.314,0.931c0,0.42-0.146,0.81-0.437,1.169
			C131.528,47.74,131.067,48.024,130.437,48.231z"/>
		<path style="fill:#0066FF;" d="M139.479,37.874l-0.476,1.038h-2.49l-0.544,1.11c1.079,0.159,1.934,0.56,2.564,1.202
			c0.541,0.554,0.812,1.205,0.812,1.953c0,0.436-0.089,0.839-0.266,1.209s-0.399,0.686-0.669,0.945
			c-0.268,0.261-0.567,0.471-0.896,0.629c-0.468,0.224-0.948,0.336-1.44,0.336c-0.497,0-0.857-0.085-1.084-0.253
			c-0.226-0.169-0.339-0.355-0.339-0.559c0-0.114,0.047-0.215,0.141-0.303c0.094-0.087,0.212-0.131,0.354-0.131
			c0.105,0,0.198,0.017,0.277,0.049s0.215,0.116,0.406,0.25c0.305,0.212,0.614,0.317,0.928,0.317c0.476,0,0.894-0.18,1.254-0.54
			s0.54-0.799,0.54-1.315c0-0.5-0.16-0.967-0.482-1.4c-0.321-0.434-0.765-0.769-1.33-1.004c-0.443-0.184-1.048-0.289-1.812-0.317
			l1.587-3.217H139.479z"/>
		<path style="fill:#0066FF;" d="M145.729,37.874l-0.476,1.038h-2.49l-0.544,1.11c1.079,0.159,1.934,0.56,2.564,1.202
			c0.541,0.554,0.812,1.205,0.812,1.953c0,0.436-0.089,0.839-0.266,1.209s-0.399,0.686-0.669,0.945
			c-0.268,0.261-0.567,0.471-0.896,0.629c-0.468,0.224-0.948,0.336-1.44,0.336c-0.497,0-0.857-0.085-1.084-0.253
			c-0.226-0.169-0.339-0.355-0.339-0.559c0-0.114,0.047-0.215,0.141-0.303c0.094-0.087,0.212-0.131,0.354-0.131
			c0.105,0,0.198,0.017,0.277,0.049s0.215,0.116,0.406,0.25c0.305,0.212,0.614,0.317,0.928,0.317c0.476,0,0.894-0.18,1.254-0.54
			s0.54-0.799,0.54-1.315c0-0.5-0.16-0.967-0.482-1.4c-0.321-0.434-0.765-0.769-1.33-1.004c-0.443-0.184-1.048-0.289-1.812-0.317
			l1.587-3.217H145.729z"/>
	</g>
	<g>
		<path style="fill:#0066FF;" d="M60.045,13.919h6.409v0.592h-6.409V13.919z M60.045,16.196h6.409V16.8h-6.409V16.196z"/>
	</g>
	<g>
		<path style="fill:#0066FF;" d="M25.944,24.666h6.409v0.604h-6.409V24.666z"/>
	</g>
	<g>
		<path style="fill:#0066FF;" d="M0.28,41.517h6.409v0.592H0.28V41.517z M0.28,43.794h6.409v0.604H0.28V43.794z"/>
		<path style="fill:#0066FF;" d="M76.327,42.634h6.409v0.604h-6.409V42.634z"/>
		<path style="fill:#0066FF;" d="M113.738,41.517h6.409v0.592h-6.409V41.517z M113.738,43.794h6.409v0.604h-6.409V43.794z"/>
	</g>
</g>
<g id="theGroup">
</g>
</svg>
