<?xml version="1.0" encoding="iso-8859-1"?>
<!-- Generator: Adobe Illustrator 16.0.0, SVG Export Plug-In . SVG Version: 6.00 Build 0)  -->
<!DOCTYPE svg PUBLIC "-//W3C//DTD SVG 1.1//EN" "http://www.w3.org/Graphics/SVG/1.1/DTD/svg11.dtd">
<svg version="1.1" id="Lager_1" xmlns="http://www.w3.org/2000/svg" xmlns:xlink="http://www.w3.org/1999/xlink" x="0px" y="0px"
	 width="89.87px" height="89.88px" viewBox="0 0 89.87 89.88" style="enable-background:new 0 0 89.87 89.88;" xml:space="preserve"
	>
<g id="XMLID_1_">
	<g>
		<polygon style="fill:#E5E99B;" points="89.52,0.35 89.52,89.53 45.06,89.53 22.62,67.101 		"/>
		<polygon style="fill:#E5E99B;" points="89.52,0.35 22.62,67.101 0.35,44.94 0.35,0.35 		"/>
		<polygon style="fill:#B1B57A;" points="45.06,89.53 0.35,89.53 22.62,67.101 		"/>
		<polygon style="fill:#E5E99B;" points="22.62,67.101 0.35,89.53 0.35,44.94 		"/>
	</g>
	<g>
		<polygon style="fill:none;stroke:#000000;stroke-width:0.7;" points="89.52,0.35 89.52,89.53 45.06,89.53 0.35,89.53 0.35,44.94 
			0.35,0.35 		"/>
		<line style="fill:none;stroke:#000000;stroke-width:0.7;" x1="45.06" y1="89.53" x2="22.62" y2="67.101"/>
		<line style="fill:none;stroke:#000000;stroke-width:0.7;" x1="22.62" y1="67.101" x2="0.35" y2="89.53"/>
		<line style="fill:none;stroke:#000000;stroke-width:0.5;stroke-dasharray:2;" x1="22.62" y1="67.101" x2="89.52" y2="0.35"/>
		<line style="fill:none;stroke:#000000;stroke-width:0.5;stroke-dasharray:2;" x1="0.35" y1="44.94" x2="22.62" y2="67.101"/>
	</g>
</g>
<g>
	<path d="M23.886,77.479v0.545h-2.823v1.935h2.007v0.544h-2.007v2.206h2.982v0.544h-3.622v-5.773H23.886z"/>
</g>
<line style="fill:none;stroke:#000000;stroke-width:0.5;stroke-dasharray:2;" x1="45.06" y1="89.534" x2="45.06" y2="0.355"/>
<line style="fill:none;stroke:#000000;stroke-width:0.5;stroke-dasharray:2;" x1="89.413" y1="44.803" x2="0.355" y2="44.944"/>
<line style="fill:none;stroke:#000000;stroke-width:0.5;stroke-dasharray:2;" x1="0.355" y1="0.355" x2="89.524" y2="89.534"/>
<line style="fill:none;stroke:#000000;stroke-width:0.5;stroke-dasharray:2;" x1="45.06" y1="0.355" x2="89.413" y2="44.803"/>
<line style="fill:none;stroke:#000000;stroke-width:0.5;stroke-dasharray:2;" x1="89.413" y1="44.803" x2="45.06" y2="89.534"/>
<line style="fill:none;stroke:#000000;stroke-width:0.5;stroke-dasharray:2;" x1="45.06" y1="0.355" x2="0.355" y2="44.944"/>
<g id="theGroup">
</g>
<g>
</g>
<g>
</g>
<g>
</g>
<g>
</g>
<g>
</g>
<g>
</g>
</svg>
