<?xml version="1.0" encoding="iso-8859-1"?>
<!-- Generator: Adobe Illustrator 16.0.0, SVG Export Plug-In . SVG Version: 6.00 Build 0)  -->
<!DOCTYPE svg PUBLIC "-//W3C//DTD SVG 1.1//EN" "http://www.w3.org/Graphics/SVG/1.1/DTD/svg11.dtd">
<svg version="1.1" id="Lager_1" xmlns="http://www.w3.org/2000/svg" xmlns:xlink="http://www.w3.org/1999/xlink" x="0px" y="0px"
	 width="101.425px" height="15.454px" viewBox="0 0 101.425 15.454" style="enable-background:new 0 0 101.425 15.454;"
	 xml:space="preserve">
<g>
	<g>
		<path d="M36.989,1.122v0.131c-0.311,0.03-0.564,0.092-0.76,0.185c-0.197,0.093-0.391,0.235-0.583,0.425
			c-0.191,0.19-0.351,0.403-0.476,0.637c-0.126,0.234-0.231,0.513-0.316,0.834c0.339-0.232,0.679-0.349,1.02-0.349
			c0.327,0,0.611,0.132,0.851,0.395c0.24,0.264,0.36,0.603,0.36,1.017c0,0.4-0.121,0.764-0.363,1.094
			c-0.292,0.4-0.678,0.6-1.158,0.6c-0.327,0-0.604-0.108-0.833-0.324c-0.447-0.421-0.67-0.967-0.67-1.638
			c0-0.428,0.086-0.835,0.257-1.221c0.172-0.386,0.417-0.728,0.736-1.027s0.624-0.5,0.916-0.604
			c0.292-0.104,0.563-0.155,0.815-0.155H36.989z M34.794,3.592c-0.042,0.317-0.063,0.574-0.063,0.769
			c0,0.226,0.042,0.471,0.125,0.736c0.083,0.265,0.208,0.475,0.372,0.63c0.12,0.111,0.266,0.166,0.438,0.166
			c0.205,0,0.388-0.097,0.549-0.29s0.242-0.468,0.242-0.826c0-0.402-0.08-0.75-0.24-1.044c-0.16-0.294-0.387-0.441-0.681-0.441
			c-0.09,0-0.186,0.019-0.288,0.056C35.146,3.387,34.994,3.468,34.794,3.592z"/>
	</g>
	<g>
		<path d="M5.816,8.569v0.866h-1.11v2.186H3.699V9.436H0.195V8.654l3.839-5.48h0.672v5.396H5.816z M3.699,8.569V4.462L0.793,8.569
			H3.699z"/>
		<path d="M6.734,13.702v-0.269c0.419-0.138,0.744-0.353,0.974-0.644c0.229-0.291,0.345-0.6,0.345-0.925
			c0-0.077-0.018-0.143-0.055-0.195c-0.028-0.037-0.057-0.055-0.085-0.055c-0.045,0-0.143,0.04-0.293,0.122
			c-0.073,0.036-0.151,0.055-0.232,0.055c-0.199,0-0.358-0.059-0.476-0.177c-0.118-0.118-0.177-0.281-0.177-0.488
			c0-0.199,0.076-0.37,0.229-0.513C7.115,10.472,7.302,10.4,7.521,10.4c0.269,0,0.507,0.117,0.717,0.351
			c0.209,0.234,0.314,0.545,0.314,0.931c0,0.42-0.146,0.81-0.437,1.169C7.825,13.211,7.365,13.495,6.734,13.702z"/>
		<path d="M15.776,3.345L15.3,4.382h-2.49l-0.543,1.111c1.078,0.159,1.933,0.56,2.563,1.202c0.541,0.554,0.812,1.205,0.812,1.953
			c0,0.436-0.089,0.839-0.266,1.209c-0.177,0.37-0.4,0.686-0.668,0.945c-0.269,0.261-0.568,0.471-0.897,0.629
			c-0.468,0.224-0.948,0.336-1.44,0.336c-0.497,0-0.858-0.085-1.083-0.253c-0.226-0.169-0.339-0.355-0.339-0.559
			c0-0.114,0.047-0.215,0.14-0.303c0.094-0.087,0.212-0.131,0.354-0.131c0.105,0,0.198,0.017,0.277,0.049
			c0.08,0.032,0.215,0.116,0.406,0.25c0.305,0.212,0.614,0.317,0.928,0.317c0.476,0,0.894-0.18,1.254-0.54
			c0.36-0.36,0.54-0.799,0.54-1.315c0-0.5-0.161-0.967-0.482-1.4c-0.321-0.434-0.765-0.768-1.331-1.004
			c-0.443-0.184-1.048-0.289-1.812-0.317l1.587-3.217H15.776z"/>
		<path d="M22.515,4.156l2.014-0.982h0.202v6.988c0,0.464,0.019,0.753,0.058,0.867c0.039,0.113,0.119,0.201,0.241,0.262
			c0.122,0.062,0.37,0.096,0.745,0.104v0.226h-3.113v-0.226c0.391-0.009,0.643-0.042,0.757-0.101
			c0.114-0.06,0.193-0.139,0.238-0.238c0.044-0.1,0.067-0.397,0.067-0.895V5.694c0-0.602-0.021-0.988-0.061-1.159
			c-0.028-0.13-0.081-0.226-0.156-0.287s-0.166-0.092-0.271-0.092c-0.15,0-0.36,0.063-0.628,0.189L22.515,4.156z"/>
		<path d="M27.751,7.532c0-0.944,0.143-1.757,0.427-2.438c0.285-0.681,0.663-1.189,1.135-1.523c0.366-0.264,0.745-0.396,1.135-0.396
			c0.635,0,1.205,0.323,1.709,0.971c0.631,0.801,0.946,1.888,0.946,3.259c0,0.96-0.139,1.776-0.415,2.448
			c-0.277,0.671-0.63,1.158-1.059,1.461c-0.43,0.304-0.843,0.455-1.242,0.455c-0.79,0-1.447-0.466-1.971-1.397
			C27.973,9.585,27.751,8.639,27.751,7.532z M28.948,7.685c0,1.139,0.14,2.069,0.421,2.789c0.231,0.606,0.578,0.909,1.037,0.909
			c0.22,0,0.448-0.099,0.684-0.296c0.236-0.197,0.415-0.528,0.537-0.991c0.188-0.7,0.281-1.687,0.281-2.961
			c0-0.944-0.098-1.731-0.293-2.362c-0.146-0.468-0.336-0.799-0.568-0.995c-0.167-0.135-0.368-0.202-0.604-0.202
			c-0.277,0-0.523,0.124-0.739,0.373c-0.293,0.337-0.492,0.869-0.598,1.593S28.948,6.98,28.948,7.685z"/>
		<path d="M58.154,8.569v0.866h-1.11v2.186h-1.007V9.436h-3.504V8.654l3.839-5.48h0.672v5.396H58.154z M56.037,8.569V4.462
			l-2.906,4.107H56.037z"/>
		<path d="M66.588,3.345l-0.476,1.038h-2.49l-0.544,1.111c1.079,0.159,1.934,0.56,2.564,1.202c0.541,0.554,0.812,1.205,0.812,1.953
			c0,0.436-0.089,0.839-0.266,1.209s-0.399,0.686-0.669,0.945c-0.268,0.261-0.567,0.471-0.896,0.629
			c-0.468,0.224-0.948,0.336-1.44,0.336c-0.497,0-0.857-0.085-1.084-0.253c-0.226-0.169-0.339-0.355-0.339-0.559
			c0-0.114,0.047-0.215,0.141-0.303c0.094-0.087,0.212-0.131,0.354-0.131c0.105,0,0.198,0.017,0.277,0.049s0.215,0.116,0.406,0.25
			c0.305,0.212,0.614,0.317,0.928,0.317c0.476,0,0.894-0.18,1.254-0.54s0.54-0.799,0.54-1.315c0-0.5-0.16-0.967-0.482-1.4
			c-0.321-0.434-0.765-0.768-1.33-1.004C63.404,6.695,62.8,6.59,62.035,6.562l1.587-3.217H66.588z"/>
		<path d="M67.863,7.532c0-0.944,0.143-1.757,0.428-2.438c0.285-0.681,0.663-1.189,1.135-1.523c0.367-0.264,0.745-0.396,1.136-0.396
			c0.635,0,1.204,0.323,1.709,0.971c0.631,0.801,0.946,1.888,0.946,3.259c0,0.96-0.139,1.776-0.415,2.448
			c-0.277,0.671-0.63,1.158-1.06,1.461c-0.429,0.304-0.843,0.455-1.242,0.455c-0.789,0-1.446-0.466-1.971-1.397
			C68.086,9.585,67.863,8.639,67.863,7.532z M69.061,7.685c0,1.139,0.14,2.069,0.421,2.789c0.231,0.606,0.577,0.909,1.037,0.909
			c0.22,0,0.448-0.099,0.684-0.296c0.236-0.197,0.415-0.528,0.537-0.991c0.188-0.7,0.281-1.687,0.281-2.961
			c0-0.944-0.098-1.731-0.293-2.362c-0.146-0.468-0.336-0.799-0.567-0.995c-0.167-0.135-0.369-0.202-0.604-0.202
			c-0.277,0-0.523,0.124-0.739,0.373c-0.293,0.337-0.492,0.869-0.598,1.593S69.061,6.98,69.061,7.685z"/>
		<path d="M74.113,7.532c0-0.944,0.143-1.757,0.428-2.438c0.285-0.681,0.663-1.189,1.135-1.523c0.367-0.264,0.745-0.396,1.136-0.396
			c0.635,0,1.204,0.323,1.709,0.971c0.631,0.801,0.946,1.888,0.946,3.259c0,0.96-0.139,1.776-0.415,2.448
			c-0.277,0.671-0.63,1.158-1.06,1.461c-0.429,0.304-0.843,0.455-1.242,0.455c-0.789,0-1.446-0.466-1.971-1.397
			C74.336,9.585,74.113,8.639,74.113,7.532z M75.311,7.685c0,1.139,0.14,2.069,0.421,2.789c0.231,0.606,0.577,0.909,1.037,0.909
			c0.22,0,0.448-0.099,0.684-0.296c0.236-0.197,0.415-0.528,0.537-0.991c0.188-0.7,0.281-1.687,0.281-2.961
			c0-0.944-0.098-1.731-0.293-2.362c-0.146-0.468-0.336-0.799-0.567-0.995c-0.167-0.135-0.369-0.202-0.604-0.202
			c-0.277,0-0.523,0.124-0.739,0.373c-0.293,0.337-0.492,0.869-0.598,1.593S75.311,6.98,75.311,7.685z"/>
		<path d="M83.126,7.532c0-0.944,0.143-1.757,0.428-2.438c0.285-0.681,0.663-1.189,1.135-1.523c0.367-0.264,0.745-0.396,1.136-0.396
			c0.635,0,1.204,0.323,1.709,0.971c0.631,0.801,0.946,1.888,0.946,3.259c0,0.96-0.139,1.776-0.415,2.448
			c-0.277,0.671-0.63,1.158-1.06,1.461c-0.429,0.304-0.843,0.455-1.242,0.455c-0.789,0-1.446-0.466-1.971-1.397
			C83.349,9.585,83.126,8.639,83.126,7.532z M84.323,7.685c0,1.139,0.14,2.069,0.421,2.789c0.231,0.606,0.577,0.909,1.037,0.909
			c0.22,0,0.448-0.099,0.684-0.296c0.236-0.197,0.415-0.528,0.537-0.991c0.188-0.7,0.281-1.687,0.281-2.961
			c0-0.944-0.098-1.731-0.293-2.362c-0.146-0.468-0.336-0.799-0.567-0.995c-0.167-0.135-0.369-0.202-0.604-0.202
			c-0.277,0-0.523,0.124-0.739,0.373c-0.293,0.337-0.492,0.869-0.598,1.593S84.323,6.98,84.323,7.685z"/>
		<path d="M89.376,7.532c0-0.944,0.143-1.757,0.428-2.438c0.285-0.681,0.663-1.189,1.135-1.523c0.367-0.264,0.745-0.396,1.136-0.396
			c0.635,0,1.204,0.323,1.709,0.971c0.631,0.801,0.946,1.888,0.946,3.259c0,0.96-0.139,1.776-0.415,2.448
			c-0.277,0.671-0.63,1.158-1.06,1.461c-0.429,0.304-0.843,0.455-1.242,0.455c-0.789,0-1.446-0.466-1.971-1.397
			C89.599,9.585,89.376,8.639,89.376,7.532z M90.573,7.685c0,1.139,0.14,2.069,0.421,2.789c0.231,0.606,0.577,0.909,1.037,0.909
			c0.22,0,0.448-0.099,0.684-0.296c0.236-0.197,0.415-0.528,0.537-0.991c0.188-0.7,0.281-1.687,0.281-2.961
			c0-0.944-0.098-1.731-0.293-2.362c-0.146-0.468-0.336-0.799-0.567-0.995c-0.167-0.135-0.369-0.202-0.604-0.202
			c-0.277,0-0.523,0.124-0.739,0.373c-0.293,0.337-0.492,0.869-0.598,1.593S90.573,6.98,90.573,7.685z"/>
		<path d="M95.626,7.532c0-0.944,0.143-1.757,0.428-2.438c0.285-0.681,0.663-1.189,1.135-1.523c0.367-0.264,0.745-0.396,1.136-0.396
			c0.635,0,1.204,0.323,1.709,0.971c0.631,0.801,0.946,1.888,0.946,3.259c0,0.96-0.139,1.776-0.415,2.448
			c-0.277,0.671-0.63,1.158-1.06,1.461c-0.429,0.304-0.843,0.455-1.242,0.455c-0.789,0-1.446-0.466-1.971-1.397
			C95.849,9.585,95.626,8.639,95.626,7.532z M96.823,7.685c0,1.139,0.14,2.069,0.421,2.789c0.231,0.606,0.577,0.909,1.037,0.909
			c0.22,0,0.448-0.099,0.684-0.296c0.236-0.197,0.415-0.528,0.537-0.991c0.188-0.7,0.281-1.687,0.281-2.961
			c0-0.944-0.098-1.731-0.293-2.362c-0.146-0.468-0.336-0.799-0.567-0.995c-0.167-0.135-0.369-0.202-0.604-0.202
			c-0.277,0-0.523,0.124-0.739,0.373c-0.293,0.337-0.492,0.869-0.598,1.593S96.823,6.98,96.823,7.685z"/>
	</g>
	<g>
		<path d="M19.89,8.423c0,0.188-0.066,0.347-0.198,0.479c-0.132,0.132-0.29,0.198-0.473,0.198c-0.187,0-0.347-0.066-0.479-0.198
			c-0.132-0.133-0.199-0.292-0.199-0.479c0-0.187,0.066-0.347,0.199-0.479c0.132-0.132,0.292-0.199,0.479-0.199
			c0.183,0,0.341,0.066,0.473,0.199C19.824,8.076,19.89,8.236,19.89,8.423z"/>
		<path d="M42.169,6.988h6.409v0.592h-6.409V6.988z M42.169,9.266h6.409v0.604h-6.409V9.266z"/>
	</g>
</g>
<g id="theGroup">
</g>
</svg>
