<?xml version="1.0" encoding="iso-8859-1"?>
<!-- Generator: Adobe Illustrator 16.0.0, SVG Export Plug-In . SVG Version: 6.00 Build 0)  -->
<!DOCTYPE svg PUBLIC "-//W3C//DTD SVG 1.1//EN" "http://www.w3.org/Graphics/SVG/1.1/DTD/svg11.dtd">
<svg version="1.1" id="Lager_1" xmlns="http://www.w3.org/2000/svg" xmlns:xlink="http://www.w3.org/1999/xlink" x="0px" y="0px"
	 width="134.088px" height="15.827px" viewBox="0 0 134.088 15.827" style="enable-background:new 0 0 134.088 15.827;"
	 xml:space="preserve">
<g>
	<g>
		<path style="fill:#0066FF;" d="M41.204,5.438l-0.335,0.921h-2.823v-0.13c0.831-0.758,1.415-1.376,1.754-1.856
			c0.338-0.479,0.508-0.918,0.508-1.316c0-0.304-0.093-0.553-0.279-0.748c-0.186-0.195-0.408-0.293-0.667-0.293
			c-0.235,0-0.446,0.069-0.633,0.207s-0.325,0.339-0.415,0.605h-0.13c0.059-0.435,0.21-0.769,0.453-1.002
			c0.244-0.233,0.548-0.35,0.912-0.35c0.388,0,0.712,0.125,0.972,0.374c0.26,0.25,0.39,0.543,0.39,0.882
			c0,0.242-0.057,0.485-0.169,0.727c-0.174,0.381-0.457,0.785-0.847,1.21c-0.586,0.64-0.952,1.026-1.098,1.158h1.249
			c0.254,0,0.433-0.009,0.535-0.028c0.103-0.019,0.195-0.057,0.277-0.115c0.082-0.058,0.154-0.139,0.215-0.245H41.204z"/>
	</g>
	<g>
		<path style="fill:#0066FF;" d="M5.731,10.401l-0.58,1.593H0.269v-0.226c1.437-1.311,2.447-2.381,3.033-3.211
			s0.879-1.589,0.879-2.276c0-0.525-0.161-0.956-0.482-1.294S2.993,4.48,2.545,4.48C2.138,4.48,1.773,4.6,1.45,4.838
			C1.126,5.076,0.887,5.425,0.732,5.885H0.507C0.608,5.132,0.87,4.554,1.291,4.151c0.421-0.403,0.947-0.604,1.578-0.604
			c0.671,0,1.232,0.216,1.682,0.647C5,4.625,5.225,5.134,5.225,5.72c0,0.419-0.098,0.838-0.293,1.257
			C4.63,7.636,4.142,8.334,3.467,9.07c-1.013,1.107-1.646,1.774-1.898,2.002h2.161c0.439,0,0.748-0.016,0.924-0.049
			c0.177-0.032,0.337-0.099,0.479-0.198c0.143-0.1,0.267-0.241,0.373-0.424H5.731z"/>
		<path style="fill:#0066FF;" d="M6.734,14.075v-0.269c0.419-0.138,0.744-0.353,0.974-0.644c0.229-0.291,0.345-0.6,0.345-0.925
			c0-0.077-0.018-0.143-0.055-0.195c-0.028-0.037-0.057-0.055-0.085-0.055c-0.045,0-0.143,0.04-0.293,0.122
			c-0.073,0.036-0.151,0.055-0.232,0.055c-0.199,0-0.358-0.059-0.476-0.177C6.793,11.87,6.734,11.707,6.734,11.5
			c0-0.199,0.076-0.37,0.229-0.513c0.152-0.143,0.339-0.214,0.559-0.214c0.269,0,0.507,0.117,0.717,0.351
			c0.209,0.234,0.314,0.545,0.314,0.931c0,0.42-0.146,0.81-0.437,1.169C7.825,13.584,7.365,13.868,6.734,14.075z"/>
		<path style="fill:#0066FF;" d="M15.776,3.718L15.3,4.755h-2.49l-0.543,1.111c1.078,0.159,1.933,0.56,2.563,1.202
			c0.541,0.554,0.812,1.205,0.812,1.953c0,0.436-0.089,0.839-0.266,1.209c-0.177,0.37-0.4,0.686-0.668,0.945
			c-0.269,0.261-0.568,0.471-0.897,0.629c-0.468,0.224-0.948,0.336-1.44,0.336c-0.497,0-0.858-0.085-1.083-0.253
			c-0.226-0.169-0.339-0.355-0.339-0.559c0-0.114,0.047-0.215,0.14-0.303c0.094-0.087,0.212-0.131,0.354-0.131
			c0.105,0,0.198,0.017,0.277,0.049c0.08,0.032,0.215,0.116,0.406,0.25c0.305,0.212,0.614,0.317,0.928,0.317
			c0.476,0,0.894-0.18,1.254-0.54c0.36-0.36,0.54-0.799,0.54-1.315c0-0.5-0.161-0.968-0.482-1.4
			c-0.321-0.434-0.765-0.768-1.331-1.004c-0.443-0.184-1.048-0.289-1.812-0.317l1.587-3.217H15.776z"/>
		<path style="fill:#0066FF;" d="M22.515,4.529l2.014-0.982h0.202v6.988c0,0.464,0.019,0.753,0.058,0.867
			c0.039,0.113,0.119,0.201,0.241,0.262c0.122,0.062,0.37,0.096,0.745,0.104v0.226h-3.113v-0.226
			c0.391-0.009,0.643-0.042,0.757-0.101c0.114-0.06,0.193-0.139,0.238-0.238c0.044-0.1,0.067-0.397,0.067-0.895V6.067
			c0-0.602-0.021-0.988-0.061-1.159c-0.028-0.13-0.081-0.226-0.156-0.287s-0.166-0.092-0.271-0.092c-0.15,0-0.36,0.063-0.628,0.189
			L22.515,4.529z"/>
		<path style="fill:#0066FF;" d="M27.751,7.905c0-0.944,0.143-1.757,0.427-2.438c0.285-0.681,0.663-1.189,1.135-1.523
			c0.366-0.264,0.745-0.396,1.135-0.396c0.635,0,1.205,0.323,1.709,0.971c0.631,0.801,0.946,1.888,0.946,3.259
			c0,0.961-0.139,1.776-0.415,2.448c-0.277,0.671-0.63,1.158-1.059,1.461c-0.43,0.304-0.843,0.455-1.242,0.455
			c-0.79,0-1.447-0.466-1.971-1.397C27.973,9.958,27.751,9.012,27.751,7.905z M28.948,8.058c0,1.139,0.14,2.069,0.421,2.789
			c0.231,0.606,0.578,0.909,1.037,0.909c0.22,0,0.448-0.099,0.684-0.296c0.236-0.197,0.415-0.528,0.537-0.991
			c0.188-0.7,0.281-1.687,0.281-2.961c0-0.944-0.098-1.731-0.293-2.362c-0.146-0.468-0.336-0.799-0.568-0.995
			C30.88,4.017,30.679,3.95,30.443,3.95c-0.277,0-0.523,0.124-0.739,0.373c-0.293,0.337-0.492,0.869-0.598,1.593
			S28.948,7.354,28.948,8.058z"/>
		<path style="fill:#0066FF;" d="M56.727,7.905c0-0.944,0.143-1.757,0.427-2.438c0.285-0.681,0.663-1.189,1.135-1.523
			c0.366-0.264,0.745-0.396,1.135-0.396c0.635,0,1.205,0.323,1.709,0.971c0.631,0.801,0.946,1.888,0.946,3.259
			c0,0.961-0.139,1.776-0.415,2.448c-0.277,0.671-0.63,1.158-1.059,1.461c-0.43,0.304-0.843,0.455-1.242,0.455
			c-0.79,0-1.447-0.466-1.971-1.397C56.948,9.958,56.727,9.012,56.727,7.905z M57.923,8.058c0,1.139,0.14,2.069,0.421,2.789
			c0.231,0.606,0.578,0.909,1.037,0.909c0.22,0,0.448-0.099,0.684-0.296c0.236-0.197,0.415-0.528,0.537-0.991
			c0.188-0.7,0.281-1.687,0.281-2.961c0-0.944-0.098-1.731-0.293-2.362c-0.146-0.468-0.336-0.799-0.568-0.995
			c-0.167-0.135-0.368-0.202-0.604-0.202c-0.277,0-0.523,0.124-0.739,0.373c-0.293,0.337-0.492,0.869-0.598,1.593
			S57.923,7.354,57.923,8.058z"/>
		<path style="fill:#0066FF;" d="M63.009,14.075v-0.269c0.419-0.138,0.744-0.353,0.974-0.644c0.229-0.291,0.345-0.6,0.345-0.925
			c0-0.077-0.018-0.143-0.055-0.195c-0.028-0.037-0.057-0.055-0.085-0.055c-0.045,0-0.143,0.04-0.293,0.122
			c-0.073,0.036-0.151,0.055-0.232,0.055c-0.199,0-0.358-0.059-0.476-0.177c-0.118-0.118-0.177-0.281-0.177-0.488
			c0-0.199,0.076-0.37,0.229-0.513c0.152-0.143,0.339-0.214,0.559-0.214c0.269,0,0.507,0.117,0.717,0.351
			c0.209,0.234,0.314,0.545,0.314,0.931c0,0.42-0.146,0.81-0.437,1.169C64.1,13.584,63.64,13.868,63.009,14.075z"/>
		<path style="fill:#0066FF;" d="M67.277,7.905c0-0.944,0.143-1.757,0.427-2.438c0.285-0.681,0.663-1.189,1.135-1.523
			c0.367-0.264,0.745-0.396,1.136-0.396c0.635,0,1.204,0.323,1.709,0.971c0.631,0.801,0.946,1.888,0.946,3.259
			c0,0.961-0.139,1.776-0.415,2.448c-0.277,0.671-0.63,1.158-1.06,1.461c-0.429,0.304-0.843,0.455-1.242,0.455
			c-0.789,0-1.446-0.466-1.971-1.397C67.499,9.958,67.277,9.012,67.277,7.905z M68.474,8.058c0,1.139,0.14,2.069,0.421,2.789
			c0.231,0.606,0.577,0.909,1.037,0.909c0.22,0,0.448-0.099,0.684-0.296c0.236-0.197,0.415-0.528,0.537-0.991
			c0.188-0.7,0.281-1.687,0.281-2.961c0-0.944-0.098-1.731-0.293-2.362c-0.146-0.468-0.336-0.799-0.567-0.995
			c-0.167-0.135-0.369-0.202-0.604-0.202c-0.277,0-0.523,0.124-0.739,0.373c-0.293,0.337-0.492,0.869-0.598,1.593
			S68.474,7.354,68.474,8.058z"/>
		<path style="fill:#0066FF;" d="M78.807,10.401l-0.58,1.593h-4.883v-0.226c1.437-1.311,2.447-2.381,3.033-3.211
			s0.879-1.589,0.879-2.276c0-0.525-0.16-0.956-0.481-1.294C76.452,4.649,76.068,4.48,75.62,4.48c-0.406,0-0.771,0.119-1.096,0.357
			c-0.323,0.238-0.562,0.587-0.717,1.047h-0.226c0.102-0.753,0.363-1.331,0.784-1.733c0.421-0.403,0.947-0.604,1.578-0.604
			c0.671,0,1.231,0.216,1.681,0.647c0.45,0.431,0.675,0.94,0.675,1.526c0,0.419-0.098,0.838-0.293,1.257
			c-0.301,0.659-0.789,1.357-1.465,2.093c-1.014,1.107-1.646,1.774-1.898,2.002h2.161c0.439,0,0.747-0.016,0.925-0.049
			c0.177-0.032,0.336-0.099,0.479-0.198s0.267-0.241,0.373-0.424H78.807z"/>
		<path style="fill:#0066FF;" d="M84.751,3.718l-0.476,1.038h-2.49l-0.544,1.111c1.079,0.159,1.934,0.56,2.564,1.202
			c0.541,0.554,0.812,1.205,0.812,1.953c0,0.436-0.089,0.839-0.266,1.209s-0.399,0.686-0.669,0.945
			c-0.268,0.261-0.567,0.471-0.896,0.629c-0.468,0.224-0.948,0.336-1.44,0.336c-0.497,0-0.857-0.085-1.084-0.253
			c-0.226-0.169-0.339-0.355-0.339-0.559c0-0.114,0.047-0.215,0.141-0.303c0.094-0.087,0.212-0.131,0.354-0.131
			c0.105,0,0.198,0.017,0.277,0.049s0.215,0.116,0.406,0.25c0.305,0.212,0.614,0.317,0.928,0.317c0.476,0,0.894-0.18,1.254-0.54
			s0.54-0.799,0.54-1.315c0-0.5-0.16-0.968-0.482-1.4c-0.321-0.434-0.765-0.768-1.33-1.004c-0.443-0.184-1.048-0.289-1.812-0.317
			l1.587-3.217H84.751z"/>
		<path style="fill:#0066FF;" d="M98.988,7.905c0-0.944,0.143-1.757,0.428-2.438c0.285-0.681,0.663-1.189,1.135-1.523
			c0.367-0.264,0.745-0.396,1.136-0.396c0.635,0,1.204,0.323,1.709,0.971c0.631,0.801,0.946,1.888,0.946,3.259
			c0,0.961-0.139,1.776-0.415,2.448c-0.277,0.671-0.63,1.158-1.06,1.461c-0.429,0.304-0.843,0.455-1.242,0.455
			c-0.789,0-1.446-0.466-1.971-1.397C99.211,9.958,98.988,9.012,98.988,7.905z M100.186,8.058c0,1.139,0.14,2.069,0.421,2.789
			c0.231,0.606,0.577,0.909,1.037,0.909c0.22,0,0.448-0.099,0.684-0.296c0.236-0.197,0.415-0.528,0.537-0.991
			c0.188-0.7,0.281-1.687,0.281-2.961c0-0.944-0.098-1.731-0.293-2.362c-0.146-0.468-0.336-0.799-0.567-0.995
			c-0.167-0.135-0.369-0.202-0.604-0.202c-0.277,0-0.523,0.124-0.739,0.373c-0.293,0.337-0.492,0.869-0.598,1.593
			S100.186,7.354,100.186,8.058z"/>
		<path style="fill:#0066FF;" d="M105.271,14.075v-0.269c0.419-0.138,0.743-0.353,0.973-0.644c0.23-0.291,0.346-0.6,0.346-0.925
			c0-0.077-0.019-0.143-0.056-0.195c-0.028-0.037-0.057-0.055-0.085-0.055c-0.045,0-0.143,0.04-0.293,0.122
			c-0.073,0.036-0.15,0.055-0.232,0.055c-0.199,0-0.357-0.059-0.476-0.177s-0.177-0.281-0.177-0.488c0-0.199,0.076-0.37,0.229-0.513
			s0.339-0.214,0.559-0.214c0.269,0,0.507,0.117,0.717,0.351c0.21,0.234,0.314,0.545,0.314,0.931c0,0.42-0.146,0.81-0.437,1.169
			C106.362,13.584,105.901,13.868,105.271,14.075z"/>
		<path style="fill:#0066FF;" d="M109.539,7.905c0-0.944,0.143-1.757,0.428-2.438c0.285-0.681,0.663-1.189,1.135-1.523
			c0.367-0.264,0.745-0.396,1.136-0.396c0.635,0,1.204,0.323,1.709,0.971c0.631,0.801,0.946,1.888,0.946,3.259
			c0,0.961-0.139,1.776-0.415,2.448c-0.277,0.671-0.63,1.158-1.06,1.461c-0.429,0.304-0.843,0.455-1.242,0.455
			c-0.789,0-1.446-0.466-1.971-1.397C109.762,9.958,109.539,9.012,109.539,7.905z M110.736,8.058c0,1.139,0.14,2.069,0.421,2.789
			c0.231,0.606,0.577,0.909,1.037,0.909c0.22,0,0.448-0.099,0.684-0.296c0.236-0.197,0.415-0.528,0.537-0.991
			c0.188-0.7,0.281-1.687,0.281-2.961c0-0.944-0.098-1.731-0.293-2.362c-0.146-0.468-0.336-0.799-0.567-0.995
			c-0.167-0.135-0.369-0.202-0.604-0.202c-0.277,0-0.523,0.124-0.739,0.373c-0.293,0.337-0.492,0.869-0.598,1.593
			S110.736,7.354,110.736,8.058z"/>
		<path style="fill:#0066FF;" d="M121.069,10.401l-0.58,1.593h-4.883v-0.226c1.437-1.311,2.447-2.381,3.033-3.211
			s0.879-1.589,0.879-2.276c0-0.525-0.16-0.956-0.481-1.294c-0.322-0.338-0.706-0.507-1.154-0.507c-0.406,0-0.771,0.119-1.096,0.357
			c-0.323,0.238-0.562,0.587-0.717,1.047h-0.226c0.102-0.753,0.363-1.331,0.784-1.733c0.421-0.403,0.947-0.604,1.578-0.604
			c0.671,0,1.231,0.216,1.681,0.647c0.45,0.431,0.675,0.94,0.675,1.526c0,0.419-0.098,0.838-0.293,1.257
			c-0.301,0.659-0.789,1.357-1.465,2.093c-1.014,1.107-1.646,1.774-1.898,2.002h2.161c0.439,0,0.747-0.016,0.925-0.049
			c0.177-0.032,0.336-0.099,0.479-0.198s0.267-0.241,0.373-0.424H121.069z"/>
		<path style="fill:#0066FF;" d="M127.014,3.718l-0.476,1.038h-2.49l-0.544,1.111c1.079,0.159,1.934,0.56,2.564,1.202
			c0.541,0.554,0.812,1.205,0.812,1.953c0,0.436-0.089,0.839-0.266,1.209s-0.399,0.686-0.669,0.945
			c-0.268,0.261-0.567,0.471-0.896,0.629c-0.468,0.224-0.948,0.336-1.44,0.336c-0.497,0-0.857-0.085-1.084-0.253
			c-0.226-0.169-0.339-0.355-0.339-0.559c0-0.114,0.047-0.215,0.141-0.303c0.094-0.087,0.212-0.131,0.354-0.131
			c0.105,0,0.198,0.017,0.277,0.049s0.215,0.116,0.406,0.25c0.305,0.212,0.614,0.317,0.928,0.317c0.476,0,0.894-0.18,1.254-0.54
			s0.54-0.799,0.54-1.315c0-0.5-0.16-0.968-0.482-1.4c-0.321-0.434-0.765-0.768-1.33-1.004c-0.443-0.184-1.048-0.289-1.812-0.317
			l1.587-3.217H127.014z"/>
		<path style="fill:#0066FF;" d="M128.289,7.905c0-0.944,0.143-1.757,0.428-2.438c0.285-0.681,0.663-1.189,1.135-1.523
			c0.367-0.264,0.745-0.396,1.136-0.396c0.635,0,1.204,0.323,1.709,0.971c0.631,0.801,0.946,1.888,0.946,3.259
			c0,0.961-0.139,1.776-0.415,2.448c-0.277,0.671-0.63,1.158-1.06,1.461c-0.429,0.304-0.843,0.455-1.242,0.455
			c-0.789,0-1.446-0.466-1.971-1.397C128.512,9.958,128.289,9.012,128.289,7.905z M129.486,8.058c0,1.139,0.14,2.069,0.421,2.789
			c0.231,0.606,0.577,0.909,1.037,0.909c0.22,0,0.448-0.099,0.684-0.296c0.236-0.197,0.415-0.528,0.537-0.991
			c0.188-0.7,0.281-1.687,0.281-2.961c0-0.944-0.098-1.731-0.293-2.362c-0.146-0.468-0.336-0.799-0.567-0.995
			c-0.167-0.135-0.369-0.202-0.604-0.202c-0.277,0-0.523,0.124-0.739,0.373c-0.293,0.337-0.492,0.869-0.598,1.593
			S129.486,7.354,129.486,8.058z"/>
	</g>
	<g>
		<path style="fill:#0066FF;" d="M34.076,4.327h3.705v0.349h-3.705V4.327z"/>
	</g>
	<g>
		<path style="fill:#0066FF;" d="M19.88,8.796c0,0.188-0.066,0.347-0.198,0.479c-0.132,0.132-0.29,0.198-0.473,0.198
			c-0.187,0-0.347-0.066-0.479-0.198c-0.132-0.133-0.199-0.292-0.199-0.479s0.066-0.347,0.199-0.479
			c0.132-0.132,0.292-0.199,0.479-0.199c0.183,0,0.341,0.066,0.473,0.199C19.814,8.449,19.88,8.608,19.88,8.796z"/>
		<path style="fill:#0066FF;" d="M46.31,7.361h6.409v0.592H46.31V7.361z M46.31,9.639h6.409v0.604H46.31V9.639z"/>
		<path style="fill:#0066FF;" d="M88.57,7.361h6.409v0.592H88.57V7.361z M88.57,9.639h6.409v0.604H88.57V9.639z"/>
	</g>
</g>
<g id="theGroup">
</g>
</svg>
