<?xml version="1.0" encoding="iso-8859-1"?>
<!-- Generator: Adobe Illustrator 16.0.0, SVG Export Plug-In . SVG Version: 6.00 Build 0)  -->
<!DOCTYPE svg PUBLIC "-//W3C//DTD SVG 1.1//EN" "http://www.w3.org/Graphics/SVG/1.1/DTD/svg11.dtd">
<svg version="1.1" id="Lager_1" xmlns="http://www.w3.org/2000/svg" xmlns:xlink="http://www.w3.org/1999/xlink" x="0px" y="0px"
	 width="82.618px" height="15.808px" viewBox="0 0 82.618 15.808" style="enable-background:new 0 0 82.618 15.808;"
	 xml:space="preserve">
<g>
	<g>
		<path style="fill:#0066FF;" d="M6.305,2.485c0.136-0.322,0.309-0.571,0.517-0.746C7.03,1.563,7.289,1.476,7.6,1.476
			c0.383,0,0.677,0.125,0.882,0.374c0.155,0.186,0.233,0.385,0.233,0.597c0,0.348-0.219,0.708-0.656,1.08
			c0.294,0.115,0.517,0.28,0.667,0.494c0.15,0.214,0.226,0.466,0.226,0.755c0,0.414-0.131,0.773-0.395,1.076
			C8.212,6.247,7.715,6.444,7.063,6.444c-0.322,0-0.542-0.04-0.658-0.12C6.289,6.244,6.23,6.158,6.23,6.066
			c0-0.068,0.027-0.128,0.083-0.18c0.055-0.052,0.122-0.078,0.199-0.078c0.059,0,0.119,0.009,0.18,0.028
			c0.04,0.012,0.131,0.055,0.272,0.129s0.239,0.118,0.293,0.132c0.087,0.026,0.18,0.039,0.279,0.039c0.24,0,0.449-0.093,0.626-0.279
			c0.178-0.186,0.267-0.406,0.267-0.66c0-0.186-0.041-0.367-0.124-0.543c-0.061-0.132-0.128-0.232-0.201-0.3
			c-0.101-0.094-0.24-0.179-0.417-0.256c-0.176-0.076-0.356-0.114-0.54-0.114H7.035V3.879c0.186-0.023,0.373-0.091,0.56-0.201
			c0.187-0.111,0.323-0.244,0.408-0.399c0.084-0.155,0.127-0.326,0.127-0.512c0-0.242-0.076-0.438-0.228-0.587
			C7.75,2.03,7.561,1.956,7.335,1.956c-0.365,0-0.669,0.195-0.914,0.586L6.305,2.485z"/>
		<path style="fill:#0066FF;" d="M22.904,2.485c0.136-0.322,0.309-0.571,0.517-0.746c0.208-0.175,0.468-0.263,0.778-0.263
			c0.383,0,0.677,0.125,0.882,0.374c0.155,0.186,0.233,0.385,0.233,0.597c0,0.348-0.219,0.708-0.656,1.08
			c0.294,0.115,0.517,0.28,0.667,0.494c0.15,0.214,0.226,0.466,0.226,0.755c0,0.414-0.131,0.773-0.395,1.076
			c-0.343,0.396-0.841,0.593-1.493,0.593c-0.322,0-0.542-0.04-0.658-0.12c-0.117-0.08-0.175-0.166-0.175-0.258
			c0-0.068,0.027-0.128,0.083-0.18c0.055-0.052,0.122-0.078,0.199-0.078c0.059,0,0.119,0.009,0.18,0.028
			c0.04,0.012,0.131,0.055,0.272,0.129s0.239,0.118,0.293,0.132c0.087,0.026,0.18,0.039,0.279,0.039c0.24,0,0.449-0.093,0.626-0.279
			c0.178-0.186,0.267-0.406,0.267-0.66c0-0.186-0.041-0.367-0.124-0.543c-0.061-0.132-0.128-0.232-0.201-0.3
			c-0.101-0.094-0.24-0.179-0.417-0.256c-0.176-0.076-0.356-0.114-0.54-0.114h-0.113V3.879c0.186-0.023,0.373-0.091,0.56-0.201
			c0.187-0.111,0.323-0.244,0.408-0.399c0.084-0.155,0.127-0.326,0.127-0.512c0-0.242-0.076-0.438-0.228-0.587
			c-0.152-0.149-0.341-0.224-0.566-0.224c-0.365,0-0.669,0.195-0.914,0.586L22.904,2.485z"/>
		<path style="fill:#0066FF;" d="M46.846,2.485c0.136-0.322,0.309-0.571,0.517-0.746s0.468-0.263,0.778-0.263
			c0.383,0,0.678,0.125,0.882,0.374c0.155,0.186,0.233,0.385,0.233,0.597c0,0.348-0.219,0.708-0.656,1.08
			c0.294,0.115,0.516,0.28,0.666,0.494c0.151,0.214,0.227,0.466,0.227,0.755c0,0.414-0.132,0.773-0.396,1.076
			c-0.344,0.396-0.841,0.593-1.492,0.593c-0.322,0-0.542-0.04-0.658-0.12c-0.116-0.08-0.175-0.166-0.175-0.258
			c0-0.068,0.027-0.128,0.083-0.18c0.055-0.052,0.121-0.078,0.199-0.078c0.059,0,0.119,0.009,0.18,0.028
			c0.04,0.012,0.131,0.055,0.271,0.129c0.142,0.074,0.239,0.118,0.293,0.132c0.087,0.026,0.181,0.039,0.279,0.039
			c0.24,0,0.448-0.093,0.626-0.279c0.178-0.186,0.267-0.406,0.267-0.66c0-0.186-0.041-0.367-0.123-0.543
			c-0.062-0.132-0.129-0.232-0.201-0.3c-0.102-0.094-0.24-0.179-0.417-0.256c-0.176-0.076-0.356-0.114-0.54-0.114h-0.112V3.879
			c0.186-0.023,0.372-0.091,0.559-0.201c0.188-0.111,0.323-0.244,0.408-0.399c0.084-0.155,0.127-0.326,0.127-0.512
			c0-0.242-0.076-0.438-0.228-0.587c-0.152-0.149-0.341-0.224-0.566-0.224c-0.365,0-0.669,0.195-0.914,0.586L46.846,2.485z"/>
		<path style="fill:#0066FF;" d="M55.315,2.485c0.136-0.322,0.309-0.571,0.517-0.746S56.3,1.476,56.61,1.476
			c0.383,0,0.678,0.125,0.882,0.374c0.155,0.186,0.233,0.385,0.233,0.597c0,0.348-0.219,0.708-0.656,1.08
			c0.294,0.115,0.516,0.28,0.666,0.494c0.151,0.214,0.227,0.466,0.227,0.755c0,0.414-0.132,0.773-0.396,1.076
			c-0.344,0.396-0.841,0.593-1.492,0.593c-0.322,0-0.542-0.04-0.658-0.12c-0.116-0.08-0.175-0.166-0.175-0.258
			c0-0.068,0.027-0.128,0.083-0.18c0.055-0.052,0.121-0.078,0.199-0.078c0.059,0,0.119,0.009,0.18,0.028
			c0.04,0.012,0.131,0.055,0.271,0.129c0.142,0.074,0.239,0.118,0.293,0.132c0.087,0.026,0.181,0.039,0.279,0.039
			c0.24,0,0.448-0.093,0.626-0.279c0.178-0.186,0.267-0.406,0.267-0.66c0-0.186-0.041-0.367-0.123-0.543
			c-0.062-0.132-0.129-0.232-0.201-0.3c-0.102-0.094-0.24-0.179-0.417-0.256c-0.176-0.076-0.356-0.114-0.54-0.114h-0.112V3.879
			c0.186-0.023,0.372-0.091,0.559-0.201c0.188-0.111,0.323-0.244,0.408-0.399c0.084-0.155,0.127-0.326,0.127-0.512
			c0-0.242-0.076-0.438-0.228-0.587c-0.152-0.149-0.341-0.224-0.566-0.224c-0.365,0-0.669,0.195-0.914,0.586L55.315,2.485z"/>
		<path style="fill:#0066FF;" d="M82.244,1.476v0.131c-0.311,0.03-0.564,0.092-0.761,0.185c-0.196,0.093-0.391,0.235-0.582,0.425
			s-0.351,0.403-0.477,0.637c-0.126,0.234-0.23,0.513-0.315,0.834c0.339-0.232,0.679-0.349,1.02-0.349
			c0.327,0,0.61,0.132,0.851,0.395c0.24,0.264,0.36,0.603,0.36,1.017c0,0.4-0.122,0.764-0.364,1.094c-0.291,0.4-0.677,0.6-1.157,0.6
			c-0.327,0-0.604-0.108-0.833-0.324c-0.446-0.421-0.67-0.967-0.67-1.638c0-0.428,0.086-0.835,0.258-1.221s0.417-0.728,0.735-1.027
			s0.624-0.5,0.916-0.604c0.291-0.104,0.563-0.155,0.814-0.155H82.244z M80.05,3.946c-0.043,0.317-0.064,0.574-0.064,0.769
			c0,0.226,0.042,0.471,0.126,0.736c0.083,0.265,0.207,0.475,0.372,0.63c0.12,0.111,0.266,0.166,0.438,0.166
			c0.205,0,0.388-0.097,0.549-0.29s0.241-0.468,0.241-0.826c0-0.402-0.08-0.75-0.239-1.044c-0.16-0.294-0.388-0.441-0.682-0.441
			c-0.089,0-0.185,0.019-0.287,0.056C80.4,3.74,80.249,3.821,80.05,3.946z"/>
	</g>
	<g>
		<path style="fill:#0066FF;" d="M0.635,5.273c0.236-0.558,0.534-0.988,0.894-1.291c0.36-0.303,0.809-0.455,1.346-0.455
			c0.663,0,1.172,0.216,1.525,0.647C4.669,4.496,4.804,4.84,4.804,5.206c0,0.602-0.379,1.225-1.136,1.867
			c0.509,0.2,0.894,0.484,1.154,0.854c0.26,0.371,0.391,0.806,0.391,1.307c0,0.716-0.228,1.336-0.684,1.861
			c-0.594,0.684-1.455,1.025-2.582,1.025c-0.558,0-0.937-0.069-1.139-0.207c-0.201-0.139-0.302-0.287-0.302-0.446
			c0-0.118,0.047-0.222,0.143-0.312c0.096-0.089,0.21-0.134,0.345-0.134c0.102,0,0.205,0.017,0.311,0.049
			c0.069,0.021,0.226,0.095,0.47,0.223s0.413,0.204,0.506,0.229c0.15,0.044,0.311,0.066,0.482,0.066c0.415,0,0.776-0.16,1.083-0.482
			c0.307-0.321,0.461-0.701,0.461-1.141c0-0.321-0.071-0.635-0.213-0.94c-0.106-0.228-0.222-0.4-0.348-0.519
			c-0.175-0.163-0.415-0.31-0.72-0.442S2.411,7.867,2.094,7.867H1.898V7.684C2.22,7.643,2.542,7.527,2.866,7.336
			C3.189,7.145,3.424,6.915,3.57,6.646s0.22-0.564,0.22-0.885c0-0.419-0.131-0.758-0.394-1.016C3.134,4.487,2.808,4.357,2.417,4.357
			c-0.631,0-1.158,0.338-1.581,1.013L0.635,5.273z"/>
		<path style="fill:#0066FF;" d="M17.235,5.273c0.236-0.558,0.534-0.988,0.894-1.291c0.36-0.303,0.809-0.455,1.346-0.455
			c0.663,0,1.172,0.216,1.525,0.647c0.269,0.321,0.403,0.666,0.403,1.032c0,0.602-0.379,1.225-1.136,1.867
			c0.509,0.2,0.894,0.484,1.154,0.854c0.26,0.371,0.391,0.806,0.391,1.307c0,0.716-0.228,1.336-0.684,1.861
			c-0.594,0.684-1.455,1.025-2.582,1.025c-0.558,0-0.937-0.069-1.139-0.207c-0.201-0.139-0.302-0.287-0.302-0.446
			c0-0.118,0.047-0.222,0.143-0.312c0.096-0.089,0.21-0.134,0.345-0.134c0.102,0,0.205,0.017,0.311,0.049
			c0.069,0.021,0.226,0.095,0.47,0.223s0.413,0.204,0.506,0.229c0.15,0.044,0.311,0.066,0.482,0.066c0.415,0,0.776-0.16,1.083-0.482
			c0.307-0.321,0.461-0.701,0.461-1.141c0-0.321-0.071-0.635-0.213-0.94c-0.106-0.228-0.222-0.4-0.348-0.519
			c-0.175-0.163-0.415-0.31-0.72-0.442s-0.616-0.198-0.934-0.198h-0.195V7.684c0.321-0.041,0.644-0.156,0.967-0.348
			c0.323-0.191,0.558-0.421,0.705-0.689s0.22-0.564,0.22-0.885c0-0.419-0.131-0.758-0.394-1.016
			c-0.262-0.258-0.589-0.388-0.979-0.388c-0.631,0-1.158,0.338-1.581,1.013L17.235,5.273z"/>
		<path style="fill:#0066FF;" d="M41.172,5.273c0.236-0.558,0.534-0.988,0.894-1.291c0.36-0.303,0.81-0.455,1.347-0.455
			c0.662,0,1.172,0.216,1.525,0.647c0.268,0.321,0.402,0.666,0.402,1.032c0,0.602-0.379,1.225-1.135,1.867
			c0.508,0.2,0.893,0.484,1.154,0.854c0.26,0.371,0.391,0.806,0.391,1.307c0,0.716-0.229,1.336-0.684,1.861
			c-0.596,0.684-1.455,1.025-2.582,1.025c-0.558,0-0.938-0.069-1.139-0.207c-0.201-0.139-0.302-0.287-0.302-0.446
			c0-0.118,0.047-0.222,0.143-0.312c0.096-0.089,0.21-0.134,0.345-0.134c0.102,0,0.205,0.017,0.311,0.049
			c0.069,0.021,0.226,0.095,0.47,0.223c0.244,0.128,0.414,0.204,0.508,0.229c0.15,0.044,0.311,0.066,0.48,0.066
			c0.416,0,0.777-0.16,1.084-0.482c0.307-0.321,0.461-0.701,0.461-1.141c0-0.321-0.07-0.635-0.213-0.94
			c-0.107-0.228-0.223-0.4-0.348-0.519c-0.176-0.163-0.416-0.31-0.721-0.442s-0.617-0.198-0.934-0.198h-0.195V7.684
			c0.32-0.041,0.643-0.156,0.967-0.348s0.559-0.421,0.705-0.689s0.219-0.564,0.219-0.885c0-0.419-0.131-0.758-0.393-1.016
			c-0.264-0.258-0.59-0.388-0.98-0.388c-0.631,0-1.157,0.338-1.581,1.013L41.172,5.273z"/>
		<path style="fill:#0066FF;" d="M73.585,5.273c0.236-0.558,0.534-0.988,0.895-1.291c0.359-0.303,0.809-0.455,1.346-0.455
			c0.663,0,1.172,0.216,1.525,0.647c0.269,0.321,0.403,0.666,0.403,1.032c0,0.602-0.379,1.225-1.136,1.867
			c0.509,0.2,0.894,0.484,1.154,0.854c0.26,0.371,0.391,0.806,0.391,1.307c0,0.716-0.229,1.336-0.684,1.861
			c-0.595,0.684-1.455,1.025-2.582,1.025c-0.558,0-0.938-0.069-1.139-0.207c-0.201-0.139-0.302-0.287-0.302-0.446
			c0-0.118,0.048-0.222,0.144-0.312c0.095-0.089,0.21-0.134,0.345-0.134c0.102,0,0.205,0.017,0.312,0.049
			c0.068,0.021,0.226,0.095,0.47,0.223s0.413,0.204,0.507,0.229c0.15,0.044,0.311,0.066,0.481,0.066c0.415,0,0.776-0.16,1.084-0.482
			c0.307-0.321,0.46-0.701,0.46-1.141c0-0.321-0.07-0.635-0.213-0.94c-0.106-0.228-0.222-0.4-0.348-0.519
			c-0.176-0.163-0.416-0.31-0.721-0.442s-0.616-0.198-0.934-0.198h-0.195V7.684c0.321-0.041,0.644-0.156,0.967-0.348
			c0.324-0.191,0.559-0.421,0.705-0.689s0.22-0.564,0.22-0.885c0-0.419-0.131-0.758-0.394-1.016s-0.589-0.388-0.979-0.388
			c-0.631,0-1.157,0.338-1.581,1.013L73.585,5.273z"/>
	</g>
	<g>
		<path style="fill:#0066FF;" d="M52.204,2.654h0.346v1.687h1.677v0.342H52.55v1.676h-0.346V4.683h-1.683V4.341h1.683V2.654z"/>
	</g>
	<g>
		<path style="fill:#0066FF;" d="M14.451,8.776c0,0.188-0.066,0.347-0.198,0.479c-0.132,0.132-0.29,0.198-0.473,0.198
			c-0.187,0-0.347-0.066-0.479-0.198c-0.132-0.133-0.199-0.292-0.199-0.479S13.168,8.43,13.3,8.297
			c0.132-0.132,0.292-0.199,0.479-0.199c0.183,0,0.341,0.066,0.473,0.199C14.384,8.43,14.451,8.589,14.451,8.776z"/>
		<path style="fill:#0066FF;" d="M30.755,7.342h6.409v0.592h-6.409V7.342z M30.755,9.619h6.409v0.604h-6.409V9.619z"/>
		<path style="fill:#0066FF;" d="M63.165,7.342h6.409v0.592h-6.409V7.342z M63.165,9.619h6.409v0.604h-6.409V9.619z"/>
	</g>
</g>
<g id="theGroup">
</g>
</svg>
