<?xml version="1.0" encoding="iso-8859-1"?>
<!-- Generator: Adobe Illustrator 16.0.0, SVG Export Plug-In . SVG Version: 6.00 Build 0)  -->
<!DOCTYPE svg PUBLIC "-//W3C//DTD SVG 1.1//EN" "http://www.w3.org/Graphics/SVG/1.1/DTD/svg11.dtd">
<svg version="1.1" id="Lager_1" xmlns="http://www.w3.org/2000/svg" xmlns:xlink="http://www.w3.org/1999/xlink" x="0px" y="0px"
	 width="56.001px" height="56.288px" viewBox="0 0 56.001 56.288" style="enable-background:new 0 0 56.001 56.288;"
	 xml:space="preserve">
<g>
	<g>
		<path style="fill:#0066FF;" d="M49.636,1.89l1.165-0.568h0.116v4.041c0,0.268,0.011,0.435,0.033,0.501s0.069,0.117,0.14,0.152
			s0.214,0.055,0.431,0.06v0.13h-1.8v-0.13c0.226-0.005,0.371-0.024,0.438-0.059c0.065-0.034,0.111-0.08,0.138-0.137
			c0.025-0.058,0.039-0.23,0.039-0.517V2.779c0-0.348-0.012-0.572-0.036-0.67c-0.016-0.075-0.046-0.13-0.09-0.166
			c-0.043-0.035-0.096-0.053-0.156-0.053c-0.088,0-0.209,0.037-0.364,0.109L49.636,1.89z"/>
		<path style="fill:#0066FF;" d="M55.524,1.42l-0.275,0.6H53.81l-0.313,0.643c0.623,0.091,1.117,0.323,1.481,0.695
			c0.312,0.32,0.47,0.696,0.47,1.129c0,0.251-0.052,0.484-0.153,0.699c-0.103,0.214-0.231,0.396-0.387,0.547
			c-0.155,0.15-0.328,0.271-0.519,0.363C54.118,6.225,53.84,6.29,53.556,6.29c-0.287,0-0.496-0.049-0.626-0.146
			c-0.131-0.098-0.196-0.206-0.196-0.323c0-0.066,0.027-0.124,0.081-0.174c0.055-0.051,0.122-0.076,0.205-0.076
			c0.061,0,0.114,0.01,0.16,0.028c0.046,0.019,0.124,0.067,0.234,0.145c0.177,0.123,0.355,0.184,0.537,0.184
			c0.275,0,0.517-0.104,0.725-0.312c0.208-0.208,0.312-0.462,0.312-0.761c0-0.289-0.093-0.559-0.278-0.81
			c-0.187-0.25-0.442-0.444-0.77-0.581c-0.257-0.106-0.605-0.167-1.048-0.184L53.81,1.42H55.524z"/>
	</g>
	<g>
		<path style="fill:#0066FF;" d="M27.767,25.597l-0.335,0.921h-2.823v-0.13c0.831-0.758,1.415-1.376,1.754-1.856
			c0.338-0.479,0.508-0.918,0.508-1.316c0-0.304-0.093-0.553-0.279-0.748c-0.186-0.195-0.408-0.293-0.667-0.293
			c-0.235,0-0.446,0.069-0.633,0.207s-0.325,0.339-0.415,0.605h-0.13c0.059-0.435,0.21-0.769,0.453-1.002
			c0.244-0.233,0.548-0.35,0.912-0.35c0.388,0,0.712,0.125,0.972,0.374c0.26,0.25,0.39,0.543,0.39,0.882
			c0,0.242-0.057,0.485-0.169,0.727c-0.174,0.381-0.457,0.785-0.847,1.21c-0.586,0.64-0.952,1.026-1.098,1.158h1.249
			c0.254,0,0.433-0.009,0.535-0.028c0.103-0.019,0.195-0.057,0.277-0.115c0.082-0.058,0.154-0.139,0.215-0.245H27.767z"/>
		<path style="fill:#0066FF;" d="M49.632,22.202l1.165-0.568h0.116v4.041c0,0.268,0.011,0.435,0.033,0.501s0.069,0.117,0.14,0.152
			s0.214,0.055,0.431,0.06v0.13h-1.8v-0.13c0.226-0.005,0.371-0.024,0.438-0.059c0.065-0.034,0.111-0.08,0.138-0.137
			c0.025-0.058,0.039-0.23,0.039-0.517v-2.583c0-0.348-0.012-0.572-0.036-0.67c-0.016-0.075-0.046-0.13-0.09-0.166
			c-0.043-0.035-0.096-0.053-0.156-0.053c-0.088,0-0.209,0.037-0.364,0.109L49.632,22.202z"/>
		<path style="fill:#0066FF;" d="M55.521,21.733l-0.275,0.6h-1.439l-0.313,0.643c0.623,0.091,1.117,0.323,1.481,0.695
			c0.312,0.32,0.47,0.696,0.47,1.129c0,0.251-0.052,0.484-0.153,0.699c-0.103,0.214-0.231,0.396-0.387,0.547
			c-0.155,0.15-0.328,0.271-0.519,0.363c-0.271,0.129-0.549,0.194-0.833,0.194c-0.287,0-0.496-0.049-0.626-0.146
			c-0.131-0.098-0.196-0.206-0.196-0.323c0-0.066,0.027-0.124,0.081-0.174c0.055-0.051,0.122-0.076,0.205-0.076
			c0.061,0,0.114,0.01,0.16,0.028c0.046,0.019,0.124,0.067,0.234,0.145c0.177,0.123,0.355,0.184,0.537,0.184
			c0.275,0,0.517-0.104,0.725-0.312c0.208-0.208,0.312-0.462,0.312-0.761c0-0.289-0.093-0.559-0.278-0.81
			c-0.187-0.25-0.442-0.444-0.77-0.581c-0.257-0.106-0.605-0.167-1.048-0.184l0.917-1.859H55.521z"/>
	</g>
	<g>
		<path style="fill:#0066FF;" d="M27.767,45.909l-0.335,0.921h-2.823v-0.131c0.831-0.757,1.415-1.376,1.754-1.855
			c0.338-0.48,0.508-0.919,0.508-1.316c0-0.304-0.093-0.553-0.279-0.748c-0.186-0.195-0.408-0.293-0.667-0.293
			c-0.235,0-0.446,0.069-0.633,0.206c-0.187,0.138-0.325,0.34-0.415,0.605h-0.13c0.059-0.436,0.21-0.77,0.453-1.002
			c0.244-0.233,0.548-0.35,0.912-0.35c0.388,0,0.712,0.125,0.972,0.374c0.26,0.25,0.39,0.544,0.39,0.883
			c0,0.242-0.057,0.484-0.169,0.727c-0.174,0.381-0.457,0.784-0.847,1.21c-0.586,0.64-0.952,1.026-1.098,1.157h1.249
			c0.254,0,0.433-0.009,0.535-0.028c0.103-0.019,0.195-0.057,0.277-0.114c0.082-0.058,0.154-0.14,0.215-0.245H27.767z"/>
		<path style="fill:#0066FF;" d="M49.632,42.515l1.165-0.568h0.116v4.04c0,0.269,0.011,0.436,0.033,0.502
			c0.022,0.065,0.069,0.116,0.14,0.151s0.214,0.056,0.431,0.06v0.131h-1.8v-0.131c0.226-0.004,0.371-0.023,0.438-0.058
			c0.065-0.034,0.111-0.08,0.138-0.138c0.025-0.058,0.039-0.23,0.039-0.518v-2.582c0-0.349-0.012-0.572-0.036-0.671
			c-0.016-0.075-0.046-0.131-0.09-0.166c-0.043-0.035-0.096-0.053-0.156-0.053c-0.088,0-0.209,0.036-0.364,0.109L49.632,42.515z"/>
		<path style="fill:#0066FF;" d="M55.521,42.045l-0.275,0.601h-1.439l-0.313,0.642c0.623,0.092,1.117,0.324,1.481,0.695
			c0.312,0.32,0.47,0.696,0.47,1.129c0,0.252-0.052,0.485-0.153,0.699c-0.103,0.214-0.231,0.396-0.387,0.547
			s-0.328,0.271-0.519,0.363c-0.271,0.129-0.549,0.194-0.833,0.194c-0.287,0-0.496-0.049-0.626-0.146
			c-0.131-0.098-0.196-0.205-0.196-0.323c0-0.065,0.027-0.124,0.081-0.175c0.055-0.05,0.122-0.075,0.205-0.075
			c0.061,0,0.114,0.009,0.16,0.028c0.046,0.019,0.124,0.066,0.234,0.145c0.177,0.122,0.355,0.184,0.537,0.184
			c0.275,0,0.517-0.104,0.725-0.312s0.312-0.462,0.312-0.761c0-0.289-0.093-0.56-0.278-0.81c-0.187-0.251-0.442-0.444-0.77-0.581
			c-0.257-0.105-0.605-0.167-1.048-0.183l0.917-1.86H55.521z"/>
	</g>
	<g>
		<path style="fill:#0066FF;" d="M11.278,10.237l-0.58,1.593H5.815v-0.226c1.437-1.311,2.447-2.381,3.033-3.211
			s0.879-1.589,0.879-2.276c0-0.525-0.161-0.956-0.482-1.294S8.54,4.316,8.092,4.316c-0.407,0-0.772,0.119-1.095,0.357
			C6.673,4.912,6.434,5.261,6.279,5.721H6.054C6.155,4.968,6.417,4.39,6.838,3.987c0.421-0.403,0.947-0.604,1.578-0.604
			c0.671,0,1.232,0.216,1.682,0.647c0.449,0.431,0.674,0.94,0.674,1.526c0,0.419-0.098,0.838-0.293,1.257
			c-0.301,0.659-0.79,1.357-1.465,2.093C8,10.013,7.368,10.681,7.115,10.908h2.161c0.439,0,0.748-0.016,0.924-0.049
			c0.177-0.032,0.337-0.098,0.479-0.198c0.143-0.1,0.267-0.241,0.373-0.424H11.278z"/>
		<path style="fill:#0066FF;" d="M29.251,8.778v0.867h-1.11v2.185h-1.007V9.645H23.63V8.864l3.839-5.481h0.672v5.396H29.251z
			 M27.133,8.778V4.671l-2.905,4.107H27.133z"/>
		<path style="fill:#0066FF;" d="M48.766,10.237l-0.58,1.593h-4.883v-0.226c1.437-1.311,2.447-2.381,3.033-3.211
			s0.879-1.589,0.879-2.276c0-0.525-0.16-0.956-0.481-1.294c-0.322-0.338-0.706-0.507-1.154-0.507c-0.406,0-0.771,0.119-1.096,0.357
			c-0.323,0.238-0.562,0.587-0.717,1.047h-0.226c0.102-0.753,0.363-1.331,0.784-1.733c0.421-0.403,0.947-0.604,1.578-0.604
			c0.671,0,1.231,0.216,1.681,0.647c0.45,0.431,0.675,0.94,0.675,1.526c0,0.419-0.098,0.838-0.293,1.257
			c-0.301,0.659-0.789,1.357-1.465,2.093c-1.014,1.107-1.646,1.774-1.898,2.002h2.161c0.439,0,0.747-0.016,0.925-0.049
			c0.177-0.032,0.336-0.098,0.479-0.198c0.143-0.1,0.267-0.241,0.373-0.424H48.766z"/>
	</g>
	<g>
		<path style="fill:#0066FF;" d="M5.731,30.55l-0.58,1.593H0.269v-0.226c1.437-1.311,2.447-2.381,3.033-3.211
			s0.879-1.589,0.879-2.276c0-0.525-0.161-0.956-0.482-1.294s-0.706-0.507-1.154-0.507c-0.407,0-0.772,0.119-1.095,0.357
			c-0.324,0.238-0.562,0.587-0.717,1.047H0.507C0.608,25.28,0.87,24.702,1.291,24.3c0.421-0.403,0.947-0.604,1.578-0.604
			c0.671,0,1.232,0.216,1.682,0.647c0.449,0.431,0.674,0.94,0.674,1.526c0,0.419-0.098,0.838-0.293,1.257
			c-0.301,0.659-0.79,1.357-1.465,2.093c-1.013,1.107-1.646,1.774-1.898,2.002h2.161c0.439,0,0.748-0.016,0.924-0.049
			c0.177-0.032,0.337-0.099,0.479-0.198c0.143-0.1,0.267-0.241,0.373-0.424H5.731z"/>
		<path style="fill:#0066FF;" d="M23.619,30.55l-0.58,1.593h-4.883v-0.226c1.437-1.311,2.447-2.381,3.033-3.211
			s0.879-1.589,0.879-2.276c0-0.525-0.161-0.956-0.482-1.294s-0.706-0.507-1.154-0.507c-0.407,0-0.772,0.119-1.095,0.357
			c-0.324,0.238-0.562,0.587-0.717,1.047h-0.226c0.102-0.753,0.363-1.331,0.784-1.733c0.421-0.403,0.947-0.604,1.578-0.604
			c0.671,0,1.232,0.216,1.682,0.647c0.449,0.431,0.674,0.94,0.674,1.526c0,0.419-0.098,0.838-0.293,1.257
			c-0.301,0.659-0.79,1.357-1.465,2.093c-1.013,1.107-1.646,1.774-1.898,2.002h2.161c0.439,0,0.748-0.016,0.924-0.049
			c0.177-0.032,0.337-0.099,0.479-0.198c0.143-0.1,0.267-0.241,0.373-0.424H23.619z"/>
		<path style="fill:#0066FF;" d="M48.769,30.55l-0.58,1.593h-4.883v-0.226c1.437-1.311,2.447-2.381,3.033-3.211
			s0.879-1.589,0.879-2.276c0-0.525-0.16-0.956-0.481-1.294c-0.322-0.338-0.706-0.507-1.154-0.507c-0.406,0-0.771,0.119-1.096,0.357
			c-0.323,0.238-0.562,0.587-0.717,1.047h-0.226c0.102-0.753,0.363-1.331,0.784-1.733c0.421-0.403,0.947-0.604,1.578-0.604
			c0.671,0,1.231,0.216,1.681,0.647c0.45,0.431,0.675,0.94,0.675,1.526c0,0.419-0.098,0.838-0.293,1.257
			c-0.301,0.659-0.789,1.357-1.465,2.093c-1.014,1.107-1.646,1.774-1.898,2.002h2.161c0.439,0,0.747-0.016,0.925-0.049
			c0.177-0.032,0.336-0.099,0.479-0.198s0.267-0.241,0.373-0.424H48.769z"/>
	</g>
	<g>
		<path style="fill:#0066FF;" d="M14.638,50.862l-0.58,1.593H9.175v-0.226c1.437-1.311,2.447-2.381,3.033-3.211
			s0.879-1.589,0.879-2.276c0-0.525-0.161-0.956-0.482-1.294s-0.706-0.507-1.154-0.507c-0.407,0-0.772,0.119-1.095,0.357
			c-0.324,0.238-0.562,0.587-0.717,1.047H9.413c0.102-0.753,0.363-1.331,0.784-1.733c0.421-0.403,0.947-0.604,1.578-0.604
			c0.671,0,1.232,0.216,1.682,0.646c0.449,0.432,0.674,0.94,0.674,1.526c0,0.419-0.098,0.838-0.293,1.257
			c-0.301,0.66-0.79,1.357-1.465,2.094c-1.013,1.107-1.646,1.774-1.898,2.002h2.161c0.439,0,0.748-0.016,0.924-0.049
			c0.177-0.032,0.337-0.099,0.479-0.198c0.143-0.1,0.267-0.241,0.373-0.424H14.638z"/>
		<path style="fill:#0066FF;" d="M48.775,50.862l-0.58,1.593h-4.883v-0.226c1.437-1.311,2.447-2.381,3.033-3.211
			s0.879-1.589,0.879-2.276c0-0.525-0.16-0.956-0.481-1.294c-0.322-0.338-0.706-0.507-1.154-0.507c-0.406,0-0.771,0.119-1.096,0.357
			c-0.323,0.238-0.562,0.587-0.717,1.047h-0.226c0.102-0.753,0.363-1.331,0.784-1.733c0.421-0.403,0.947-0.604,1.578-0.604
			c0.671,0,1.231,0.216,1.681,0.646c0.45,0.432,0.675,0.94,0.675,1.526c0,0.419-0.098,0.838-0.293,1.257
			c-0.301,0.66-0.789,1.357-1.465,2.094c-1.014,1.107-1.646,1.774-1.898,2.002h2.161c0.439,0,0.747-0.016,0.925-0.049
			c0.177-0.032,0.336-0.099,0.479-0.198s0.267-0.241,0.373-0.424H48.775z"/>
	</g>
	<g>
		<path style="fill:#0066FF;" d="M12.489,2.426h0.822l0.868,1.331l0.879-1.331l0.772,0.018l-1.273,1.825l1.33,1.937h-0.812
			l-0.938-1.418l-0.911,1.418h-0.805l1.331-1.937L12.489,2.426z"/>
	</g>
	<g>
		<path style="fill:#0066FF;" d="M6.942,22.738h0.822l0.868,1.331l0.879-1.331l0.772,0.018L9.01,24.581l1.33,1.937H9.528
			L8.59,25.099l-0.911,1.418H6.875l1.331-1.937L6.942,22.738z"/>
	</g>
	<g>
		<path style="fill:#0066FF;" d="M15.848,43.051h0.822l0.868,1.33l0.879-1.33l0.772,0.018l-1.273,1.824l1.33,1.938h-0.812
			l-0.938-1.419l-0.911,1.419h-0.805l1.331-1.938L15.848,43.051z"/>
	</g>
	<g>
		<path style="fill:#0066FF;" d="M21.462,43.125h0.346v1.687h1.676v0.343h-1.676v1.676h-0.346v-1.676h-1.683v-0.343h1.683V43.125z"
			/>
	</g>
	<g>
		<path style="fill:#0066FF;" d="M20.906,8.632c0,0.187-0.066,0.347-0.198,0.479c-0.132,0.132-0.29,0.199-0.473,0.199
			c-0.187,0-0.347-0.066-0.479-0.199c-0.132-0.132-0.199-0.292-0.199-0.479s0.066-0.347,0.199-0.479
			c0.132-0.132,0.292-0.199,0.479-0.199c0.183,0,0.341,0.066,0.473,0.199C20.839,8.285,20.906,8.445,20.906,8.632z"/>
		<path style="fill:#0066FF;" d="M32.872,7.197h6.409V7.79h-6.409V7.197z M32.872,9.474h6.409v0.604h-6.409V9.474z"/>
	</g>
	<g>
		<path style="fill:#0066FF;" d="M15.349,28.944c0,0.188-0.066,0.347-0.198,0.479c-0.132,0.132-0.29,0.198-0.473,0.198
			c-0.187,0-0.347-0.066-0.479-0.198C14.066,29.291,14,29.132,14,28.944s0.066-0.347,0.199-0.479
			c0.132-0.132,0.292-0.199,0.479-0.199c0.183,0,0.341,0.066,0.473,0.199C15.283,28.598,15.349,28.757,15.349,28.944z"/>
		<path style="fill:#0066FF;" d="M32.866,27.51h6.409v0.592h-6.409V27.51z M32.866,29.787h6.409v0.604h-6.409V29.787z"/>
	</g>
	<g>
		<path style="fill:#0066FF;" d="M32.872,47.822h6.409v0.592h-6.409V47.822z M32.872,50.1h6.409v0.604h-6.409V50.1z"/>
	</g>
</g>
<g id="theGroup">
</g>
</svg>
