<?xml version="1.0" encoding="iso-8859-1"?>
<!-- Generator: Adobe Illustrator 16.0.0, SVG Export Plug-In . SVG Version: 6.00 Build 0)  -->
<!DOCTYPE svg PUBLIC "-//W3C//DTD SVG 1.1//EN" "http://www.w3.org/Graphics/SVG/1.1/DTD/svg11.dtd">
<svg version="1.1" id="Lager_1" xmlns="http://www.w3.org/2000/svg" xmlns:xlink="http://www.w3.org/1999/xlink" x="0px" y="0px"
	 width="75.524px" height="32.655px" viewBox="0 0 75.524 32.655" style="enable-background:new 0 0 75.524 32.655;"
	 xml:space="preserve">
<g>
	
		<line style="fill:none;stroke:#0066FF;stroke-width:0.5;stroke-linecap:square;stroke-miterlimit:10;" x1="12.461" y1="15.854" x2="19.883" y2="15.854"/>
	
		<line style="fill:none;stroke:#0066FF;stroke-width:0.5;stroke-linecap:square;stroke-miterlimit:10;" x1="34.024" y1="15.854" x2="53.712" y2="15.854"/>
	
		<line style="fill:none;stroke:#0066FF;stroke-width:0.5;stroke-linecap:square;stroke-miterlimit:10;" x1="67.853" y1="15.854" x2="75.274" y2="15.854"/>
	<g>
		<path style="fill:#0066FF;" d="M18.974,9.407L18.394,11h-4.883v-0.226c1.437-1.311,2.447-2.381,3.033-3.211
			s0.879-1.589,0.879-2.276c0-0.525-0.161-0.956-0.482-1.294s-0.706-0.507-1.154-0.507c-0.407,0-0.772,0.119-1.095,0.357
			c-0.324,0.238-0.562,0.587-0.717,1.047h-0.226c0.102-0.753,0.363-1.331,0.784-1.733c0.421-0.403,0.947-0.604,1.578-0.604
			c0.671,0,1.232,0.216,1.682,0.647c0.449,0.431,0.674,0.94,0.674,1.526c0,0.419-0.098,0.838-0.293,1.257
			c-0.301,0.659-0.79,1.357-1.465,2.093c-1.013,1.107-1.646,1.774-1.898,2.002h2.161c0.439,0,0.748-0.016,0.924-0.049
			c0.177-0.032,0.337-0.098,0.479-0.198c0.143-0.1,0.267-0.241,0.373-0.424H18.974z"/>
		<path style="fill:#0066FF;" d="M40.536,9.407L39.956,11h-4.883v-0.226c1.437-1.311,2.447-2.381,3.033-3.211
			s0.879-1.589,0.879-2.276c0-0.525-0.161-0.956-0.482-1.294s-0.706-0.507-1.154-0.507c-0.407,0-0.772,0.119-1.095,0.357
			c-0.324,0.238-0.562,0.587-0.717,1.047h-0.226c0.102-0.753,0.363-1.331,0.784-1.733c0.421-0.403,0.947-0.604,1.578-0.604
			c0.671,0,1.232,0.216,1.682,0.647c0.449,0.431,0.674,0.94,0.674,1.526c0,0.419-0.098,0.838-0.293,1.257
			c-0.301,0.659-0.79,1.357-1.465,2.093c-1.013,1.107-1.646,1.774-1.898,2.002h2.161c0.439,0,0.748-0.016,0.924-0.049
			c0.177-0.032,0.337-0.098,0.479-0.198c0.143-0.1,0.267-0.241,0.373-0.424H40.536z"/>
		<path style="fill:#0066FF;" d="M52.799,9.407L52.219,11h-4.883v-0.226c1.437-1.311,2.447-2.381,3.033-3.211
			s0.879-1.589,0.879-2.276c0-0.525-0.16-0.956-0.481-1.294c-0.322-0.338-0.706-0.507-1.154-0.507c-0.406,0-0.771,0.119-1.096,0.357
			c-0.323,0.238-0.562,0.587-0.717,1.047h-0.226c0.102-0.753,0.363-1.331,0.784-1.733c0.421-0.403,0.947-0.604,1.578-0.604
			c0.671,0,1.231,0.216,1.681,0.647c0.45,0.431,0.675,0.94,0.675,1.526c0,0.419-0.098,0.838-0.293,1.257
			c-0.301,0.659-0.789,1.357-1.465,2.093c-1.014,1.107-1.646,1.774-1.898,2.002h2.161c0.439,0,0.747-0.016,0.925-0.049
			c0.177-0.032,0.336-0.098,0.479-0.198c0.143-0.1,0.267-0.241,0.373-0.424H52.799z"/>
		<path style="fill:#0066FF;" d="M74.446,7.948v0.867h-1.11V11h-1.007V8.815h-3.504V8.034l3.839-5.481h0.672v5.396H74.446z
			 M72.329,7.948V3.841l-2.906,4.107H72.329z"/>
	</g>
	<g>
		<path style="fill:#0066FF;" d="M5.731,17.591l-0.58,1.593H0.269v-0.226c1.437-1.311,2.447-2.381,3.033-3.211
			s0.879-1.589,0.879-2.276c0-0.525-0.161-0.956-0.482-1.294S2.993,11.67,2.545,11.67c-0.407,0-0.772,0.119-1.095,0.357
			c-0.324,0.238-0.562,0.587-0.717,1.047H0.507c0.102-0.753,0.363-1.331,0.784-1.733c0.421-0.403,0.947-0.604,1.578-0.604
			c0.671,0,1.232,0.216,1.682,0.647c0.449,0.431,0.674,0.94,0.674,1.526c0,0.419-0.098,0.838-0.293,1.257
			c-0.301,0.659-0.79,1.357-1.465,2.093c-1.013,1.107-1.646,1.774-1.898,2.002h2.161c0.439,0,0.748-0.016,0.924-0.049
			c0.177-0.032,0.337-0.099,0.479-0.198c0.143-0.1,0.267-0.241,0.373-0.424H5.731z"/>
	</g>
	<g>
		<path style="fill:#0066FF;" d="M13.706,28.993v-0.226c0.529-0.009,1.021-0.132,1.477-0.369c0.456-0.238,0.896-0.654,1.321-1.248
			c0.425-0.595,0.721-1.248,0.888-1.96c-0.639,0.411-1.217,0.616-1.733,0.616c-0.582,0-1.08-0.225-1.495-0.674
			s-0.623-1.047-0.623-1.791c0-0.725,0.208-1.37,0.623-1.936c0.5-0.688,1.153-1.031,1.959-1.031c0.68,0,1.261,0.281,1.746,0.842
			c0.594,0.696,0.891,1.555,0.891,2.576c0,0.92-0.226,1.777-0.678,2.572c-0.451,0.796-1.08,1.456-1.886,1.98
			c-0.655,0.432-1.369,0.647-2.143,0.647H13.706z M17.49,24.739c0.073-0.529,0.11-0.952,0.11-1.27c0-0.395-0.067-0.821-0.202-1.279
			c-0.134-0.457-0.324-0.809-0.57-1.053c-0.247-0.244-0.526-0.366-0.839-0.366c-0.362,0-0.68,0.163-0.952,0.488
			c-0.272,0.326-0.409,0.81-0.409,1.453c0,0.858,0.181,1.529,0.543,2.014c0.265,0.351,0.59,0.525,0.977,0.525
			c0.187,0,0.409-0.045,0.665-0.135C17.069,25.028,17.295,24.901,17.49,24.739z"/>
		<path style="fill:#0066FF;" d="M41.394,28.993v-0.226c0.529-0.009,1.021-0.132,1.478-0.369c0.455-0.238,0.896-0.654,1.321-1.248
			c0.425-0.595,0.721-1.248,0.888-1.96c-0.639,0.411-1.217,0.616-1.733,0.616c-0.582,0-1.08-0.225-1.495-0.674
			s-0.623-1.047-0.623-1.791c0-0.725,0.208-1.37,0.623-1.936c0.5-0.688,1.153-1.031,1.959-1.031c0.68,0,1.262,0.281,1.746,0.842
			c0.594,0.696,0.891,1.555,0.891,2.576c0,0.92-0.226,1.777-0.678,2.572c-0.451,0.796-1.08,1.456-1.886,1.98
			c-0.655,0.432-1.369,0.647-2.143,0.647H41.394z M45.178,24.739c0.073-0.529,0.109-0.952,0.109-1.27
			c0-0.395-0.066-0.821-0.201-1.279c-0.134-0.457-0.324-0.809-0.57-1.053s-0.526-0.366-0.84-0.366c-0.361,0-0.679,0.163-0.951,0.488
			c-0.273,0.326-0.409,0.81-0.409,1.453c0,0.858,0.181,1.529,0.543,2.014c0.265,0.351,0.59,0.525,0.977,0.525
			c0.188,0,0.409-0.045,0.665-0.135C44.757,25.028,44.982,24.901,45.178,24.739z"/>
		<path style="fill:#0066FF;" d="M69.081,28.993v-0.226c0.529-0.009,1.021-0.132,1.478-0.369c0.455-0.238,0.896-0.654,1.321-1.248
			c0.425-0.595,0.721-1.248,0.888-1.96c-0.639,0.411-1.217,0.616-1.733,0.616c-0.582,0-1.08-0.225-1.495-0.674
			s-0.623-1.047-0.623-1.791c0-0.725,0.208-1.37,0.623-1.936c0.5-0.688,1.153-1.031,1.959-1.031c0.68,0,1.262,0.281,1.746,0.842
			c0.594,0.696,0.891,1.555,0.891,2.576c0,0.92-0.226,1.777-0.678,2.572c-0.451,0.796-1.08,1.456-1.886,1.98
			c-0.655,0.432-1.369,0.647-2.143,0.647H69.081z M72.865,24.739c0.073-0.529,0.109-0.952,0.109-1.27
			c0-0.395-0.066-0.821-0.201-1.279c-0.134-0.457-0.324-0.809-0.57-1.053s-0.526-0.366-0.84-0.366c-0.361,0-0.679,0.163-0.951,0.488
			c-0.273,0.326-0.409,0.81-0.409,1.453c0,0.858,0.181,1.529,0.543,2.014c0.265,0.351,0.59,0.525,0.977,0.525
			c0.188,0,0.409-0.045,0.665-0.135C72.444,25.028,72.67,24.901,72.865,24.739z"/>
	</g>
	<g>
		<path style="fill:#0066FF;" d="M44.529,7.802c0,0.187-0.066,0.347-0.199,0.479c-0.132,0.132-0.289,0.199-0.473,0.199
			c-0.188,0-0.347-0.066-0.479-0.199c-0.132-0.132-0.198-0.292-0.198-0.479s0.066-0.347,0.198-0.479
			c0.133-0.132,0.292-0.199,0.479-0.199c0.184,0,0.341,0.066,0.473,0.199C44.463,7.455,44.529,7.615,44.529,7.802z"/>
	</g>
	<g>
		<path style="fill:#0066FF;" d="M9.734,15.985c0,0.187-0.066,0.348-0.198,0.479c-0.132,0.133-0.29,0.199-0.473,0.199
			c-0.187,0-0.347-0.066-0.479-0.199c-0.132-0.131-0.199-0.292-0.199-0.479s0.066-0.347,0.199-0.479
			c0.132-0.132,0.292-0.199,0.479-0.199c0.183,0,0.341,0.066,0.473,0.199C9.667,15.639,9.734,15.798,9.734,15.985z"/>
		<path style="fill:#0066FF;" d="M23.663,14.551h6.409v0.592h-6.409V14.551z M23.663,16.827h6.409v0.604h-6.409V16.827z"/>
		<path style="fill:#0066FF;" d="M57.486,14.551h6.409v0.592h-6.409V14.551z M57.486,16.827h6.409v0.604h-6.409V16.827z"/>
	</g>
</g>
<g id="theGroup">
</g>
</svg>
