<?xml version="1.0" encoding="iso-8859-1"?>
<!-- Generator: Adobe Illustrator 16.0.0, SVG Export Plug-In . SVG Version: 6.00 Build 0)  -->
<!DOCTYPE svg PUBLIC "-//W3C//DTD SVG 1.1//EN" "http://www.w3.org/Graphics/SVG/1.1/DTD/svg11.dtd">
<svg version="1.1" id="Lager_1" xmlns="http://www.w3.org/2000/svg" xmlns:xlink="http://www.w3.org/1999/xlink" x="0px" y="0px"
	 width="96.938px" height="51.386px" viewBox="0 0 96.938 51.386" style="enable-background:new 0 0 96.938 51.386;"
	 xml:space="preserve">
<g>
	
		<line style="fill:none;stroke:#0066FF;stroke-width:0.5;stroke-linecap:square;stroke-miterlimit:10;" x1="10.586" y1="34.595" x2="34.023" y2="34.595"/>
	<g>
		<path style="fill:#0066FF;" d="M2.612,3.175v3.271h1.819c0.472,0,0.788-0.071,0.946-0.213c0.212-0.188,0.33-0.517,0.354-0.989
			h0.226v2.881H5.731C5.674,7.723,5.617,7.464,5.561,7.35C5.487,7.208,5.367,7.096,5.2,7.015C5.033,6.933,4.777,6.893,4.431,6.893
			H2.612v2.728c0,0.366,0.016,0.589,0.049,0.668c0.033,0.079,0.089,0.143,0.171,0.189c0.082,0.047,0.236,0.07,0.464,0.07H4.7
			c0.468,0,0.808-0.033,1.019-0.098c0.212-0.065,0.415-0.193,0.61-0.384C6.582,9.814,6.84,9.434,7.104,8.925h0.244L6.635,11H0.256
			v-0.226h0.293c0.195,0,0.38-0.047,0.555-0.141c0.13-0.065,0.219-0.163,0.266-0.293s0.07-0.396,0.07-0.8V4.164
			c0-0.525-0.053-0.849-0.159-0.971C1.135,3.031,0.891,2.949,0.549,2.949H0.256V2.724h6.378l0.091,1.812H6.488
			c-0.086-0.435-0.18-0.734-0.284-0.897C6.101,3.477,5.947,3.353,5.743,3.267c-0.163-0.061-0.449-0.091-0.86-0.091H2.612z"/>
		<path style="fill:#0066FF;" d="M9.644,6.429c0.655-0.79,1.279-1.185,1.874-1.185c0.305,0,0.568,0.077,0.788,0.229
			c0.22,0.153,0.395,0.404,0.524,0.754c0.09,0.244,0.135,0.619,0.135,1.123v2.386c0,0.354,0.028,0.594,0.085,0.721
			c0.045,0.102,0.117,0.181,0.217,0.238s0.284,0.085,0.553,0.085V11h-2.765v-0.22h0.116c0.261,0,0.443-0.04,0.546-0.119
			c0.104-0.079,0.176-0.196,0.217-0.351c0.016-0.062,0.024-0.252,0.024-0.574V7.448c0-0.509-0.066-0.878-0.198-1.108
			c-0.132-0.229-0.355-0.345-0.668-0.345c-0.484,0-0.966,0.265-1.446,0.793v2.948c0,0.379,0.022,0.613,0.067,0.702
			c0.057,0.118,0.135,0.205,0.235,0.259c0.1,0.055,0.302,0.083,0.607,0.083V11H7.788v-0.22H7.91c0.285,0,0.477-0.072,0.577-0.217
			c0.1-0.144,0.149-0.42,0.149-0.827V7.661c0-0.671-0.015-1.08-0.046-1.227C8.56,6.288,8.513,6.188,8.45,6.136
			c-0.063-0.053-0.147-0.08-0.253-0.08c-0.114,0-0.25,0.031-0.409,0.091l-0.092-0.22l1.685-0.684h0.263V6.429z"/>
		<path style="fill:#0066FF;" d="M18.884,8.961c-0.342-0.167-0.604-0.4-0.787-0.699c-0.183-0.299-0.274-0.63-0.274-0.992
			c0-0.553,0.208-1.029,0.625-1.428c0.417-0.399,0.951-0.599,1.602-0.599c0.533,0,0.995,0.13,1.386,0.391h1.184
			c0.175,0,0.277,0.005,0.306,0.016c0.028,0.01,0.049,0.027,0.061,0.052c0.024,0.037,0.037,0.102,0.037,0.195
			c0,0.106-0.01,0.179-0.031,0.22c-0.012,0.021-0.034,0.037-0.064,0.049c-0.031,0.012-0.133,0.019-0.309,0.019h-0.726
			c0.228,0.293,0.342,0.667,0.342,1.123c0,0.521-0.199,0.966-0.598,1.336s-0.934,0.555-1.605,0.555
			c-0.276,0-0.559-0.041-0.848-0.122c-0.179,0.155-0.3,0.29-0.363,0.406c-0.063,0.116-0.094,0.214-0.094,0.296
			c0,0.069,0.033,0.136,0.101,0.201c0.067,0.065,0.198,0.112,0.394,0.141c0.114,0.016,0.399,0.03,0.854,0.043
			c0.838,0.02,1.381,0.049,1.63,0.085c0.378,0.053,0.68,0.193,0.906,0.421c0.226,0.228,0.339,0.509,0.339,0.842
			c0,0.46-0.216,0.891-0.647,1.294c-0.635,0.594-1.462,0.891-2.484,0.891c-0.785,0-1.449-0.177-1.99-0.531
			c-0.305-0.204-0.458-0.415-0.458-0.635c0-0.098,0.022-0.195,0.067-0.293c0.069-0.151,0.211-0.36,0.427-0.629
			c0.028-0.037,0.236-0.256,0.623-0.659c-0.211-0.126-0.361-0.239-0.449-0.339c-0.087-0.1-0.131-0.212-0.131-0.339
			c0-0.142,0.058-0.309,0.174-0.5C18.197,9.582,18.465,9.312,18.884,8.961z M18.823,11c-0.191,0.208-0.336,0.401-0.434,0.58
			c-0.098,0.179-0.146,0.344-0.146,0.494c0,0.195,0.118,0.366,0.354,0.513c0.407,0.252,0.995,0.378,1.764,0.378
			c0.732,0,1.272-0.129,1.62-0.388c0.348-0.258,0.522-0.534,0.522-0.827c0-0.212-0.104-0.362-0.311-0.452
			c-0.212-0.089-0.631-0.142-1.258-0.158C20.02,11.116,19.315,11.069,18.823,11z M19.946,5.537c-0.301,0-0.554,0.12-0.757,0.36
			c-0.204,0.24-0.306,0.608-0.306,1.104c0,0.643,0.139,1.142,0.415,1.496c0.212,0.269,0.48,0.403,0.806,0.403
			c0.31,0,0.564-0.116,0.763-0.348c0.199-0.232,0.299-0.596,0.299-1.093c0-0.647-0.141-1.153-0.421-1.52
			C20.538,5.672,20.271,5.537,19.946,5.537z"/>
		<path style="fill:#0066FF;" d="M26.373,5.244c0.846,0,1.526,0.322,2.039,0.965c0.436,0.549,0.653,1.18,0.653,1.892
			c0,0.501-0.12,1.007-0.36,1.52s-0.571,0.899-0.992,1.16c-0.421,0.26-0.89,0.391-1.407,0.391c-0.842,0-1.511-0.336-2.008-1.007
			c-0.419-0.566-0.629-1.201-0.629-1.904c0-0.513,0.127-1.022,0.382-1.529c0.254-0.506,0.589-0.881,1.004-1.123
			C25.47,5.366,25.909,5.244,26.373,5.244z M26.184,5.641c-0.215,0-0.432,0.064-0.65,0.192c-0.218,0.128-0.394,0.353-0.528,0.674
			s-0.201,0.734-0.201,1.239c0,0.813,0.162,1.516,0.485,2.105c0.324,0.59,0.75,0.885,1.279,0.885c0.395,0,0.72-0.163,0.977-0.488
			c0.256-0.325,0.385-0.885,0.385-1.678c0-0.993-0.214-1.774-0.641-2.344C27,5.836,26.631,5.641,26.184,5.641z"/>
		<path style="fill:#0066FF;" d="M31.812,2.321v7.416c0,0.35,0.025,0.582,0.076,0.696c0.051,0.114,0.129,0.2,0.235,0.259
			s0.303,0.088,0.592,0.088V11h-2.741v-0.22c0.256,0,0.431-0.026,0.525-0.079c0.094-0.053,0.167-0.141,0.22-0.263
			s0.079-0.356,0.079-0.702V4.658c0-0.63-0.014-1.018-0.042-1.163c-0.028-0.144-0.074-0.243-0.137-0.296
			c-0.063-0.053-0.144-0.08-0.241-0.08c-0.106,0-0.24,0.033-0.403,0.098L29.87,3.004l1.667-0.684H31.812z"/>
		<path style="fill:#0066FF;" d="M35.396,5.849v3.674c0,0.521,0.057,0.851,0.171,0.989c0.15,0.179,0.352,0.269,0.604,0.269h0.507V11
			h-3.339v-0.22h0.25c0.163,0,0.311-0.041,0.446-0.122c0.134-0.082,0.227-0.191,0.277-0.33s0.076-0.407,0.076-0.806V5.849h-1.086
			V5.409h1.086V5.043c0-0.558,0.09-1.029,0.269-1.416c0.179-0.387,0.453-0.699,0.821-0.937c0.368-0.238,0.782-0.357,1.242-0.357
			c0.427,0,0.82,0.138,1.178,0.415c0.236,0.183,0.354,0.389,0.354,0.616c0,0.122-0.053,0.237-0.159,0.345s-0.22,0.162-0.342,0.162
			c-0.094,0-0.192-0.034-0.296-0.101c-0.104-0.067-0.231-0.211-0.382-0.434c-0.15-0.222-0.289-0.371-0.415-0.448
			c-0.126-0.078-0.266-0.116-0.421-0.116c-0.187,0-0.346,0.05-0.476,0.149c-0.13,0.1-0.224,0.254-0.281,0.464
			c-0.057,0.21-0.085,0.75-0.085,1.621v0.403h1.44v0.439H35.396z"/>
		<path style="fill:#0066FF;" d="M38.856,6.374c0.541-0.753,1.125-1.129,1.751-1.129c0.574,0,1.074,0.246,1.501,0.736
			s0.641,1.161,0.641,2.011c0,0.993-0.329,1.792-0.988,2.398c-0.566,0.521-1.196,0.781-1.893,0.781
			c-0.325,0-0.656-0.059-0.992-0.177c-0.335-0.118-0.678-0.295-1.028-0.531V4.671c0-0.635-0.015-1.025-0.046-1.172
			c-0.03-0.146-0.078-0.247-0.143-0.299c-0.065-0.053-0.146-0.08-0.244-0.08c-0.114,0-0.257,0.033-0.428,0.098l-0.085-0.213
			l1.678-0.684h0.275V6.374z M38.856,6.764v3.345c0.207,0.204,0.422,0.357,0.644,0.461c0.222,0.104,0.449,0.156,0.681,0.156
			c0.37,0,0.715-0.204,1.035-0.61c0.319-0.407,0.479-0.999,0.479-1.776c0-0.716-0.16-1.267-0.479-1.651
			c-0.32-0.385-0.683-0.577-1.089-0.577c-0.216,0-0.432,0.055-0.647,0.165C39.316,6.357,39.108,6.52,38.856,6.764z"/>
		<path style="fill:#0066FF;" d="M46.309,5.244c0.846,0,1.526,0.322,2.039,0.965C48.783,6.758,49,7.389,49,8.101
			c0,0.501-0.12,1.007-0.36,1.52s-0.571,0.899-0.992,1.16c-0.421,0.26-0.89,0.391-1.407,0.391c-0.842,0-1.511-0.336-2.008-1.007
			c-0.419-0.566-0.629-1.201-0.629-1.904c0-0.513,0.127-1.022,0.382-1.529c0.254-0.506,0.589-0.881,1.004-1.123
			C45.405,5.366,45.845,5.244,46.309,5.244z M46.119,5.641c-0.215,0-0.432,0.064-0.65,0.192c-0.218,0.128-0.394,0.353-0.528,0.674
			S44.74,7.242,44.74,7.747c0,0.813,0.162,1.516,0.485,2.105c0.324,0.59,0.75,0.885,1.279,0.885c0.395,0,0.72-0.163,0.977-0.488
			c0.256-0.325,0.385-0.885,0.385-1.678c0-0.993-0.214-1.774-0.641-2.344C46.935,5.836,46.567,5.641,46.119,5.641z"/>
		<path style="fill:#0066FF;" d="M51.747,2.321v7.416c0,0.35,0.025,0.582,0.076,0.696c0.051,0.114,0.129,0.2,0.235,0.259
			c0.105,0.059,0.303,0.088,0.592,0.088V11h-2.741v-0.22c0.257,0,0.432-0.026,0.525-0.079c0.094-0.053,0.167-0.141,0.22-0.263
			s0.079-0.356,0.079-0.702V4.658c0-0.63-0.014-1.018-0.042-1.163c-0.029-0.144-0.075-0.243-0.138-0.296
			c-0.063-0.053-0.144-0.08-0.241-0.08c-0.106,0-0.24,0.033-0.403,0.098l-0.104-0.213l1.667-0.684H51.747z"/>
		<path style="fill:#0066FF;" d="M55.07,2.321v7.416c0,0.35,0.025,0.582,0.076,0.696c0.051,0.114,0.129,0.2,0.235,0.259
			c0.105,0.059,0.303,0.088,0.592,0.088V11h-2.74v-0.22c0.256,0,0.431-0.026,0.524-0.079c0.094-0.053,0.167-0.141,0.22-0.263
			s0.079-0.356,0.079-0.702V4.658c0-0.63-0.014-1.018-0.042-1.163c-0.029-0.144-0.075-0.243-0.138-0.296
			c-0.063-0.053-0.144-0.08-0.241-0.08c-0.105,0-0.24,0.033-0.402,0.098l-0.104-0.213l1.667-0.684H55.07z"/>
		<path style="fill:#0066FF;" d="M59.308,5.409h2.631v0.226h-0.171c-0.159,0-0.28,0.039-0.363,0.116s-0.125,0.181-0.125,0.312
			c0,0.142,0.043,0.311,0.128,0.506l1.301,3.088l1.306-3.204c0.094-0.228,0.141-0.401,0.141-0.519c0-0.057-0.017-0.104-0.049-0.14
			c-0.045-0.062-0.102-0.103-0.171-0.125c-0.069-0.022-0.21-0.034-0.422-0.034V5.409h1.825v0.226
			c-0.211,0.017-0.357,0.059-0.439,0.128c-0.143,0.122-0.271,0.326-0.384,0.61l-1.984,4.797h-0.25l-1.996-4.718
			c-0.089-0.22-0.175-0.377-0.256-0.473c-0.082-0.096-0.186-0.176-0.312-0.241c-0.069-0.037-0.205-0.071-0.409-0.104V5.409z"/>
		<path style="fill:#0066FF;" d="M68.825,10.194c-0.574,0.443-0.934,0.7-1.08,0.769c-0.221,0.102-0.454,0.153-0.702,0.153
			c-0.387,0-0.705-0.132-0.955-0.397c-0.251-0.265-0.376-0.612-0.376-1.043c0-0.273,0.062-0.509,0.184-0.708
			c0.167-0.277,0.456-0.537,0.869-0.781s1.1-0.542,2.061-0.892v-0.22c0-0.557-0.089-0.939-0.266-1.147
			c-0.177-0.207-0.435-0.311-0.772-0.311c-0.256,0-0.46,0.069-0.61,0.208c-0.154,0.138-0.231,0.297-0.231,0.476l0.012,0.354
			c0,0.187-0.048,0.332-0.144,0.434c-0.096,0.102-0.221,0.152-0.375,0.152c-0.15,0-0.273-0.053-0.369-0.159s-0.144-0.25-0.144-0.433
			c0-0.35,0.179-0.672,0.537-0.965s0.86-0.439,1.508-0.439c0.496,0,0.903,0.083,1.221,0.25c0.24,0.126,0.417,0.324,0.53,0.592
			c0.074,0.175,0.11,0.533,0.11,1.074v1.898c0,0.533,0.01,0.86,0.03,0.979c0.021,0.12,0.054,0.201,0.101,0.241
			s0.101,0.061,0.162,0.061c0.065,0,0.122-0.014,0.171-0.043c0.086-0.053,0.25-0.201,0.494-0.445v0.342
			c-0.455,0.61-0.891,0.916-1.306,0.916c-0.199,0-0.358-0.069-0.477-0.208S68.829,10.528,68.825,10.194z M66.981,2.84
			c0.188,0,0.345,0.065,0.474,0.195c0.128,0.13,0.192,0.287,0.192,0.47s-0.065,0.339-0.195,0.467
			c-0.131,0.128-0.285,0.192-0.465,0.192c-0.183,0-0.339-0.064-0.47-0.192c-0.13-0.128-0.195-0.284-0.195-0.467
			s0.064-0.34,0.192-0.47C66.643,2.905,66.799,2.84,66.981,2.84z M68.825,9.798v-2.13c-0.614,0.244-1.012,0.417-1.19,0.519
			c-0.321,0.179-0.552,0.366-0.689,0.562c-0.139,0.195-0.208,0.409-0.208,0.641c0,0.293,0.088,0.536,0.263,0.729
			s0.376,0.29,0.604,0.29C67.913,10.408,68.32,10.205,68.825,9.798z M69.136,2.84c0.184,0,0.339,0.065,0.468,0.195
			c0.128,0.13,0.192,0.287,0.192,0.47s-0.064,0.339-0.192,0.467c-0.129,0.128-0.284,0.192-0.468,0.192
			c-0.183,0-0.339-0.064-0.47-0.192c-0.13-0.128-0.195-0.284-0.195-0.467s0.065-0.34,0.195-0.47
			C68.797,2.905,68.953,2.84,69.136,2.84z"/>
		<path style="fill:#0066FF;" d="M72.626,8.961c-0.342-0.167-0.604-0.4-0.787-0.699c-0.183-0.299-0.274-0.63-0.274-0.992
			c0-0.553,0.208-1.029,0.625-1.428c0.417-0.399,0.951-0.599,1.603-0.599c0.533,0,0.995,0.13,1.386,0.391h1.184
			c0.175,0,0.277,0.005,0.306,0.016s0.049,0.027,0.061,0.052c0.024,0.037,0.037,0.102,0.037,0.195c0,0.106-0.011,0.179-0.03,0.22
			C76.722,6.138,76.7,6.154,76.67,6.166s-0.134,0.019-0.309,0.019h-0.727c0.229,0.293,0.342,0.667,0.342,1.123
			c0,0.521-0.199,0.966-0.598,1.336s-0.934,0.555-1.605,0.555c-0.276,0-0.56-0.041-0.848-0.122c-0.18,0.155-0.301,0.29-0.363,0.406
			c-0.063,0.116-0.095,0.214-0.095,0.296c0,0.069,0.033,0.136,0.101,0.201c0.067,0.065,0.198,0.112,0.394,0.141
			c0.114,0.016,0.398,0.03,0.854,0.043c0.838,0.02,1.382,0.049,1.63,0.085c0.378,0.053,0.681,0.193,0.906,0.421
			s0.339,0.509,0.339,0.842c0,0.46-0.216,0.891-0.647,1.294c-0.635,0.594-1.463,0.891-2.483,0.891c-0.786,0-1.449-0.177-1.99-0.531
			c-0.305-0.204-0.458-0.415-0.458-0.635c0-0.098,0.022-0.195,0.067-0.293c0.069-0.151,0.212-0.36,0.428-0.629
			c0.028-0.037,0.235-0.256,0.622-0.659c-0.212-0.126-0.361-0.239-0.448-0.339c-0.088-0.1-0.132-0.212-0.132-0.339
			c0-0.142,0.059-0.309,0.174-0.5C71.939,9.582,72.207,9.312,72.626,8.961z M72.565,11c-0.191,0.208-0.336,0.401-0.434,0.58
			c-0.098,0.179-0.146,0.344-0.146,0.494c0,0.195,0.118,0.366,0.354,0.513c0.406,0.252,0.994,0.378,1.764,0.378
			c0.732,0,1.272-0.129,1.62-0.388s0.522-0.534,0.522-0.827c0-0.212-0.104-0.362-0.312-0.452c-0.212-0.089-0.631-0.142-1.258-0.158
			C73.762,11.116,73.058,11.069,72.565,11z M73.688,5.537c-0.302,0-0.554,0.12-0.757,0.36c-0.204,0.24-0.306,0.608-0.306,1.104
			c0,0.643,0.139,1.142,0.415,1.496c0.212,0.269,0.48,0.403,0.806,0.403c0.31,0,0.563-0.116,0.763-0.348
			c0.2-0.232,0.3-0.596,0.3-1.093c0-0.647-0.141-1.153-0.421-1.52C74.28,5.672,74.014,5.537,73.688,5.537z"/>
		<path style="fill:#0066FF;" d="M78.32,7.515c-0.004,0.83,0.198,1.481,0.604,1.953c0.407,0.472,0.886,0.708,1.435,0.708
			c0.366,0,0.685-0.101,0.955-0.302c0.271-0.202,0.498-0.546,0.681-1.035l0.189,0.122c-0.086,0.558-0.334,1.065-0.745,1.523
			c-0.411,0.458-0.926,0.687-1.544,0.687c-0.671,0-1.246-0.261-1.725-0.784c-0.478-0.523-0.717-1.226-0.717-2.109
			c0-0.956,0.245-1.702,0.735-2.237s1.105-0.803,1.847-0.803c0.626,0,1.142,0.207,1.544,0.62s0.604,0.965,0.604,1.657H78.32z
			 M78.32,7.161h2.588c-0.02-0.358-0.062-0.61-0.128-0.757c-0.102-0.228-0.253-0.407-0.454-0.537
			c-0.202-0.13-0.412-0.195-0.632-0.195c-0.338,0-0.641,0.131-0.906,0.394C78.521,6.328,78.365,6.693,78.32,7.161z"/>
		<path style="fill:#0066FF;" d="M84.489,5.244v1.258c0.468-0.838,0.948-1.258,1.44-1.258c0.224,0,0.409,0.068,0.556,0.205
			c0.146,0.137,0.22,0.294,0.22,0.473c0,0.159-0.053,0.293-0.159,0.403c-0.105,0.11-0.231,0.165-0.378,0.165
			c-0.143,0-0.303-0.07-0.479-0.21c-0.177-0.14-0.308-0.21-0.394-0.21c-0.073,0-0.152,0.041-0.238,0.122
			c-0.183,0.167-0.372,0.441-0.567,0.824v2.679c0,0.309,0.039,0.543,0.116,0.702c0.053,0.11,0.146,0.202,0.28,0.275
			c0.135,0.073,0.328,0.11,0.58,0.11V11h-2.862v-0.22c0.284,0,0.496-0.045,0.635-0.134c0.102-0.065,0.173-0.169,0.213-0.311
			c0.021-0.069,0.031-0.267,0.031-0.592V7.576c0-0.651-0.014-1.039-0.04-1.163c-0.026-0.124-0.075-0.214-0.146-0.271
			s-0.159-0.085-0.266-0.085c-0.126,0-0.269,0.031-0.427,0.091l-0.062-0.22l1.69-0.684H84.489z"/>
	</g>
	<g>
		<path style="fill:#0066FF;" d="M11.636,29.921v-0.226c0.529-0.009,1.021-0.132,1.477-0.369c0.456-0.238,0.896-0.654,1.321-1.248
			c0.425-0.595,0.721-1.248,0.888-1.96c-0.639,0.411-1.217,0.617-1.733,0.617c-0.582,0-1.08-0.225-1.495-0.675
			c-0.415-0.45-0.623-1.047-0.623-1.792c0-0.724,0.208-1.369,0.623-1.935c0.5-0.688,1.153-1.031,1.959-1.031
			c0.68,0,1.261,0.281,1.746,0.842c0.594,0.696,0.891,1.554,0.891,2.576c0,0.919-0.226,1.777-0.678,2.572
			c-0.451,0.796-1.08,1.456-1.886,1.98c-0.655,0.432-1.369,0.647-2.143,0.647H11.636z M15.42,25.667
			c0.073-0.529,0.11-0.952,0.11-1.27c0-0.395-0.067-0.821-0.202-1.279c-0.134-0.458-0.324-0.809-0.57-1.053
			c-0.247-0.244-0.526-0.366-0.839-0.366c-0.362,0-0.68,0.163-0.952,0.488c-0.272,0.326-0.409,0.81-0.409,1.453
			c0,0.858,0.181,1.53,0.543,2.014c0.265,0.35,0.59,0.525,0.977,0.525c0.187,0,0.409-0.045,0.665-0.135
			C14.999,25.956,15.225,25.83,15.42,25.667z"/>
		<path style="fill:#0066FF;" d="M17.678,25.661c0-0.944,0.143-1.757,0.427-2.438c0.285-0.681,0.663-1.189,1.135-1.523
			c0.366-0.264,0.745-0.396,1.135-0.396c0.635,0,1.205,0.323,1.709,0.971c0.631,0.801,0.946,1.888,0.946,3.259
			c0,0.961-0.139,1.776-0.415,2.448c-0.277,0.671-0.63,1.158-1.059,1.461c-0.43,0.304-0.843,0.455-1.242,0.455
			c-0.79,0-1.447-0.466-1.971-1.397C17.9,27.714,17.678,26.768,17.678,25.661z M18.875,25.813c0,1.139,0.14,2.069,0.421,2.789
			c0.231,0.606,0.578,0.909,1.037,0.909c0.22,0,0.448-0.099,0.684-0.296c0.236-0.197,0.415-0.528,0.537-0.991
			c0.188-0.7,0.281-1.687,0.281-2.961c0-0.944-0.098-1.731-0.293-2.362c-0.146-0.468-0.336-0.799-0.568-0.995
			c-0.167-0.135-0.368-0.202-0.604-0.202c-0.277,0-0.523,0.124-0.739,0.373c-0.293,0.337-0.492,0.869-0.598,1.593
			S18.875,25.109,18.875,25.813z"/>
		<path style="fill:#0066FF;" d="M28.875,27.711c-0.342-0.166-0.604-0.399-0.787-0.698s-0.274-0.63-0.274-0.992
			c0-0.553,0.208-1.029,0.625-1.428c0.417-0.399,0.951-0.599,1.602-0.599c0.533,0,0.995,0.13,1.386,0.391h1.184
			c0.175,0,0.277,0.005,0.306,0.016c0.028,0.01,0.049,0.027,0.061,0.052c0.024,0.037,0.037,0.102,0.037,0.195
			c0,0.106-0.01,0.179-0.031,0.22c-0.012,0.021-0.034,0.037-0.064,0.049c-0.031,0.012-0.133,0.019-0.309,0.019h-0.726
			c0.228,0.293,0.342,0.667,0.342,1.123c0,0.521-0.199,0.966-0.598,1.337c-0.399,0.37-0.934,0.555-1.605,0.555
			c-0.276,0-0.559-0.04-0.848-0.122c-0.179,0.155-0.3,0.29-0.363,0.406s-0.094,0.215-0.094,0.296c0,0.069,0.033,0.137,0.101,0.201
			c0.067,0.065,0.198,0.112,0.394,0.141c0.114,0.017,0.399,0.03,0.854,0.043c0.838,0.021,1.381,0.049,1.63,0.085
			c0.378,0.053,0.68,0.193,0.906,0.421c0.226,0.229,0.339,0.509,0.339,0.843c0,0.46-0.216,0.892-0.647,1.294
			c-0.635,0.594-1.462,0.891-2.484,0.891c-0.785,0-1.449-0.177-1.99-0.53c-0.305-0.204-0.458-0.415-0.458-0.635
			c0-0.098,0.022-0.195,0.067-0.293c0.069-0.15,0.211-0.36,0.427-0.629c0.028-0.036,0.236-0.257,0.623-0.659
			c-0.211-0.126-0.361-0.239-0.449-0.339s-0.131-0.213-0.131-0.339c0-0.143,0.058-0.309,0.174-0.5
			C28.188,28.332,28.456,28.062,28.875,27.711z M28.814,29.75c-0.191,0.207-0.336,0.4-0.434,0.58
			c-0.098,0.179-0.146,0.344-0.146,0.494c0,0.195,0.118,0.366,0.354,0.513c0.407,0.252,0.995,0.378,1.764,0.378
			c0.732,0,1.272-0.129,1.62-0.387c0.348-0.259,0.522-0.534,0.522-0.827c0-0.212-0.104-0.362-0.311-0.452
			c-0.212-0.089-0.631-0.143-1.258-0.158C30.011,29.866,29.307,29.819,28.814,29.75z M29.938,24.287c-0.301,0-0.554,0.12-0.757,0.36
			c-0.204,0.24-0.306,0.608-0.306,1.104c0,0.644,0.139,1.142,0.415,1.496c0.212,0.268,0.48,0.402,0.806,0.402
			c0.31,0,0.564-0.116,0.763-0.348c0.199-0.232,0.299-0.597,0.299-1.093c0-0.647-0.141-1.153-0.421-1.52
			C30.529,24.422,30.263,24.287,29.938,24.287z"/>
	</g>
	<g>
		<path style="fill:#0066FF;" d="M53.775,34.862v0.866h-1.11v2.186h-1.007v-2.186h-3.504v-0.781l3.839-5.48h0.672v5.396H53.775z
			 M51.658,34.862v-4.107l-2.906,4.107H51.658z"/>
		<path style="fill:#0066FF;" d="M59.635,29.638l-0.476,1.038h-2.49l-0.544,1.11c1.079,0.159,1.934,0.56,2.564,1.202
			c0.541,0.554,0.812,1.205,0.812,1.953c0,0.436-0.089,0.839-0.266,1.209s-0.399,0.686-0.669,0.945
			c-0.268,0.261-0.567,0.471-0.896,0.629c-0.468,0.224-0.948,0.336-1.44,0.336c-0.497,0-0.857-0.085-1.084-0.253
			c-0.226-0.169-0.339-0.355-0.339-0.559c0-0.114,0.047-0.215,0.141-0.303c0.094-0.087,0.212-0.131,0.354-0.131
			c0.105,0,0.198,0.017,0.277,0.049s0.215,0.116,0.406,0.25c0.305,0.212,0.614,0.317,0.928,0.317c0.476,0,0.894-0.18,1.254-0.54
			s0.54-0.799,0.54-1.315c0-0.5-0.16-0.967-0.482-1.4c-0.321-0.434-0.765-0.769-1.33-1.004c-0.443-0.184-1.048-0.289-1.812-0.317
			l1.587-3.217H59.635z"/>
		<path style="fill:#0066FF;" d="M65.657,35.875c-0.342-0.166-0.604-0.399-0.787-0.698s-0.274-0.63-0.274-0.992
			c0-0.553,0.208-1.029,0.625-1.428c0.417-0.399,0.951-0.599,1.603-0.599c0.533,0,0.995,0.131,1.386,0.391h1.184
			c0.175,0,0.277,0.006,0.306,0.016s0.049,0.027,0.061,0.052c0.024,0.036,0.037,0.102,0.037,0.195c0,0.105-0.011,0.179-0.03,0.22
			c-0.013,0.021-0.034,0.037-0.064,0.049s-0.134,0.019-0.309,0.019h-0.727c0.229,0.293,0.342,0.667,0.342,1.123
			c0,0.521-0.199,0.966-0.598,1.337c-0.398,0.37-0.934,0.555-1.605,0.555c-0.276,0-0.56-0.04-0.848-0.122
			c-0.18,0.155-0.301,0.29-0.363,0.406c-0.063,0.116-0.095,0.215-0.095,0.296c0,0.069,0.033,0.137,0.101,0.201
			c0.067,0.065,0.198,0.112,0.394,0.141c0.114,0.017,0.398,0.03,0.854,0.043c0.838,0.021,1.382,0.049,1.63,0.085
			c0.378,0.053,0.681,0.193,0.906,0.421c0.226,0.229,0.339,0.509,0.339,0.843c0,0.46-0.216,0.892-0.647,1.294
			c-0.635,0.594-1.463,0.891-2.483,0.891c-0.786,0-1.449-0.177-1.99-0.53c-0.305-0.204-0.458-0.415-0.458-0.635
			c0-0.098,0.022-0.195,0.067-0.293c0.069-0.15,0.212-0.36,0.428-0.629c0.028-0.036,0.235-0.257,0.622-0.659
			c-0.212-0.126-0.361-0.239-0.448-0.339c-0.088-0.1-0.132-0.213-0.132-0.339c0-0.143,0.059-0.309,0.174-0.5
			C64.971,36.496,65.238,36.226,65.657,35.875z M65.597,37.914c-0.191,0.207-0.336,0.4-0.434,0.58
			c-0.098,0.179-0.146,0.344-0.146,0.494c0,0.195,0.118,0.366,0.354,0.513c0.406,0.252,0.994,0.378,1.764,0.378
			c0.732,0,1.272-0.129,1.62-0.387c0.348-0.259,0.522-0.534,0.522-0.827c0-0.212-0.104-0.362-0.312-0.452
			c-0.212-0.089-0.631-0.143-1.258-0.158C66.793,38.03,66.089,37.983,65.597,37.914z M66.72,32.451c-0.302,0-0.554,0.12-0.757,0.36
			c-0.204,0.24-0.306,0.608-0.306,1.104c0,0.644,0.139,1.142,0.415,1.496c0.212,0.268,0.48,0.402,0.806,0.402
			c0.31,0,0.563-0.116,0.763-0.348c0.2-0.232,0.3-0.597,0.3-1.093c0-0.647-0.141-1.153-0.421-1.52
			C67.312,32.586,67.045,32.451,66.72,32.451z"/>
	</g>
	<g>
		<path style="fill:#0066FF;" d="M25.106,45.96l-0.58,1.593h-4.883v-0.226c1.437-1.311,2.447-2.381,3.033-3.211
			s0.879-1.589,0.879-2.276c0-0.525-0.161-0.956-0.482-1.294s-0.706-0.507-1.154-0.507c-0.407,0-0.772,0.119-1.095,0.357
			c-0.324,0.238-0.562,0.587-0.717,1.047h-0.226c0.102-0.753,0.363-1.331,0.784-1.733c0.421-0.403,0.947-0.604,1.578-0.604
			c0.671,0,1.232,0.216,1.682,0.646c0.449,0.432,0.674,0.94,0.674,1.526c0,0.419-0.098,0.838-0.293,1.257
			c-0.301,0.66-0.79,1.357-1.465,2.094c-1.013,1.107-1.646,1.774-1.898,2.002h2.161c0.439,0,0.748-0.016,0.924-0.049
			c0.177-0.032,0.337-0.099,0.479-0.198c0.143-0.1,0.267-0.241,0.373-0.424H25.106z"/>
	</g>
	<g>
		<path style="fill:#0066FF;" d="M90.304,6.367h6.409v0.592h-6.409V6.367z M90.304,8.644h6.409v0.604h-6.409V8.644z"/>
	</g>
	<g>
		<path style="fill:#0066FF;" d="M0.226,33.281h6.409v0.592H0.226V33.281z M0.226,35.559h6.409v0.604H0.226V35.559z"/>
		<path style="fill:#0066FF;" d="M37.798,33.281h6.409v0.592h-6.409V33.281z M37.798,35.559h6.409v0.604h-6.409V35.559z"/>
	</g>
</g>
<g id="theGroup">
</g>
</svg>
