<?xml version="1.0" encoding="iso-8859-1"?>
<!-- Generator: Adobe Illustrator 16.0.0, SVG Export Plug-In . SVG Version: 6.00 Build 0)  -->
<!DOCTYPE svg PUBLIC "-//W3C//DTD SVG 1.1//EN" "http://www.w3.org/Graphics/SVG/1.1/DTD/svg11.dtd">
<svg version="1.1" id="Lager_1" xmlns="http://www.w3.org/2000/svg" xmlns:xlink="http://www.w3.org/1999/xlink" x="0px" y="0px"
	 width="70.865px" height="32.655px" viewBox="0 0 70.865 32.655" style="enable-background:new 0 0 70.865 32.655;"
	 xml:space="preserve">
<g>
	
		<line style="fill:none;stroke:#0066FF;stroke-width:0.5;stroke-linecap:square;stroke-miterlimit:10;" x1="0.25" y1="15.854" x2="24.625" y2="15.854"/>
	
		<line style="fill:none;stroke:#0066FF;stroke-width:0.5;stroke-linecap:square;stroke-miterlimit:10;" x1="38.766" y1="15.854" x2="51.07" y2="15.854"/>
	<g>
		<path style="fill:#0066FF;" d="M1.266,4.298C1.501,3.741,1.8,3.311,2.159,3.007c0.36-0.303,0.81-0.455,1.347-0.455
			c0.663,0,1.172,0.216,1.525,0.647C5.3,3.521,5.435,3.865,5.435,4.231c0,0.602-0.379,1.225-1.136,1.867
			c0.509,0.2,0.894,0.484,1.153,0.854C5.713,7.324,5.843,7.759,5.843,8.26c0,0.716-0.228,1.336-0.684,1.861
			c-0.594,0.684-1.454,1.025-2.581,1.025c-0.558,0-0.938-0.069-1.139-0.208s-0.302-0.287-0.302-0.446
			c0-0.118,0.047-0.222,0.143-0.311s0.211-0.134,0.346-0.134c0.102,0,0.205,0.016,0.311,0.049c0.069,0.021,0.227,0.095,0.471,0.223
			c0.244,0.128,0.412,0.205,0.506,0.229c0.15,0.045,0.312,0.067,0.482,0.067c0.415,0,0.776-0.161,1.083-0.482
			c0.308-0.321,0.461-0.702,0.461-1.141c0-0.322-0.071-0.635-0.213-0.94c-0.106-0.228-0.223-0.4-0.349-0.519
			c-0.175-0.163-0.415-0.31-0.72-0.442C3.353,6.958,3.042,6.893,2.725,6.893H2.529V6.709c0.321-0.041,0.644-0.156,0.967-0.348
			S4.055,5.94,4.201,5.672s0.22-0.564,0.22-0.885c0-0.419-0.131-0.758-0.394-1.016S3.438,3.383,3.048,3.383
			c-0.631,0-1.158,0.338-1.581,1.013L1.266,4.298z"/>
		<path style="fill:#0066FF;" d="M19.025,2.724h4.438v0.232l-2.759,8.215h-0.684l2.472-7.452h-2.276
			c-0.46,0-0.787,0.055-0.982,0.165c-0.342,0.187-0.616,0.476-0.824,0.867l-0.177-0.067L19.025,2.724z"/>
		<path style="fill:#0066FF;" d="M39.621,3.535l2.014-0.982h0.202v6.988c0,0.464,0.019,0.753,0.058,0.867
			c0.039,0.114,0.119,0.201,0.241,0.262s0.37,0.096,0.745,0.104V11h-3.113v-0.226c0.391-0.008,0.643-0.042,0.757-0.101
			c0.114-0.059,0.193-0.138,0.238-0.238s0.067-0.398,0.067-0.895V5.073c0-0.602-0.021-0.988-0.062-1.159
			c-0.028-0.13-0.08-0.226-0.155-0.287c-0.076-0.061-0.166-0.092-0.271-0.092c-0.151,0-0.36,0.063-0.629,0.189L39.621,3.535z"/>
		<path style="fill:#0066FF;" d="M44.857,6.911c0-0.944,0.143-1.757,0.428-2.438c0.285-0.681,0.663-1.189,1.135-1.523
			c0.367-0.264,0.745-0.396,1.136-0.396c0.635,0,1.204,0.323,1.709,0.971c0.631,0.801,0.946,1.888,0.946,3.259
			c0,0.96-0.139,1.776-0.415,2.448c-0.277,0.671-0.63,1.159-1.06,1.462c-0.429,0.303-0.843,0.455-1.242,0.455
			c-0.789,0-1.446-0.466-1.971-1.397C45.08,8.963,44.857,8.018,44.857,6.911z M46.055,7.063c0,1.139,0.14,2.069,0.421,2.789
			c0.231,0.606,0.577,0.909,1.037,0.909c0.22,0,0.448-0.098,0.684-0.296c0.236-0.197,0.415-0.528,0.537-0.992
			c0.188-0.7,0.281-1.687,0.281-2.96c0-0.944-0.098-1.731-0.293-2.362c-0.146-0.468-0.336-0.799-0.567-0.995
			c-0.167-0.135-0.369-0.202-0.604-0.202c-0.277,0-0.523,0.124-0.739,0.373c-0.293,0.337-0.492,0.869-0.598,1.593
			S46.055,6.359,46.055,7.063z"/>
	</g>
	<g>
		<path style="fill:#0066FF;" d="M70.041,10.907l-0.476,1.038h-2.49l-0.544,1.111c1.079,0.159,1.934,0.56,2.564,1.202
			c0.541,0.554,0.812,1.205,0.812,1.953c0,0.436-0.089,0.839-0.266,1.209s-0.399,0.686-0.669,0.945
			c-0.268,0.261-0.567,0.471-0.896,0.629c-0.468,0.224-0.948,0.336-1.44,0.336c-0.497,0-0.857-0.085-1.084-0.253
			c-0.226-0.169-0.339-0.355-0.339-0.559c0-0.114,0.047-0.215,0.141-0.303c0.094-0.087,0.212-0.131,0.354-0.131
			c0.105,0,0.198,0.017,0.277,0.049s0.215,0.116,0.406,0.25c0.305,0.212,0.614,0.317,0.928,0.317c0.476,0,0.894-0.18,1.254-0.54
			s0.54-0.799,0.54-1.315c0-0.5-0.16-0.967-0.482-1.4c-0.321-0.434-0.765-0.768-1.33-1.004c-0.443-0.184-1.048-0.289-1.812-0.317
			l1.587-3.217H70.041z"/>
	</g>
	<g>
		<path style="fill:#0066FF;" d="M15.239,27.229l-0.58,1.593H9.776v-0.226c1.437-1.311,2.447-2.381,3.033-3.211
			s0.879-1.589,0.879-2.276c0-0.525-0.161-0.956-0.482-1.294s-0.706-0.507-1.153-0.507c-0.407,0-0.772,0.119-1.096,0.357
			s-0.562,0.587-0.717,1.047h-0.226c0.102-0.753,0.362-1.331,0.784-1.733c0.421-0.403,0.946-0.604,1.577-0.604
			c0.672,0,1.232,0.216,1.682,0.646c0.449,0.432,0.675,0.94,0.675,1.526c0,0.419-0.098,0.838-0.293,1.257
			c-0.302,0.66-0.79,1.357-1.465,2.094c-1.014,1.107-1.646,1.774-1.898,2.002h2.161c0.439,0,0.747-0.016,0.924-0.049
			c0.178-0.032,0.337-0.099,0.479-0.198s0.267-0.241,0.372-0.424H15.239z"/>
		<path style="fill:#0066FF;" d="M47.689,27.229l-0.58,1.593h-4.883v-0.226c1.437-1.311,2.447-2.381,3.033-3.211
			s0.879-1.589,0.879-2.276c0-0.525-0.16-0.956-0.481-1.294c-0.322-0.338-0.706-0.507-1.154-0.507c-0.406,0-0.771,0.119-1.096,0.357
			c-0.323,0.238-0.562,0.587-0.717,1.047h-0.226c0.102-0.753,0.363-1.331,0.784-1.733c0.421-0.403,0.947-0.604,1.578-0.604
			c0.671,0,1.231,0.216,1.681,0.646c0.45,0.432,0.675,0.94,0.675,1.526c0,0.419-0.098,0.838-0.293,1.257
			c-0.301,0.66-0.789,1.357-1.465,2.094c-1.014,1.107-1.646,1.774-1.898,2.002h2.161c0.439,0,0.747-0.016,0.925-0.049
			c0.177-0.032,0.336-0.099,0.479-0.198s0.267-0.241,0.373-0.424H47.689z"/>
	</g>
	<g>
		<path style="fill:#0066FF;" d="M11.668,4.591h0.599v2.917h2.899v0.592h-2.899V11h-0.599V8.101H8.757V7.509h2.911V4.591z"/>
	</g>
	<g>
		<path style="fill:#0066FF;" d="M28.405,14.551h6.409v0.592h-6.409V14.551z M28.405,16.827h6.409v0.604h-6.409V16.827z"/>
		<path style="fill:#0066FF;" d="M54.841,14.551h6.409v0.592h-6.409V14.551z M54.841,16.827h6.409v0.604h-6.409V16.827z"/>
	</g>
</g>
<g id="theGroup">
</g>
</svg>
