<?xml version="1.0" encoding="iso-8859-1"?>
<!-- Generator: Adobe Illustrator 16.0.0, SVG Export Plug-In . SVG Version: 6.00 Build 0)  -->
<!DOCTYPE svg PUBLIC "-//W3C//DTD SVG 1.1//EN" "http://www.w3.org/Graphics/SVG/1.1/DTD/svg11.dtd">
<svg version="1.1" id="Lager_1" xmlns="http://www.w3.org/2000/svg" xmlns:xlink="http://www.w3.org/1999/xlink" x="0px" y="0px"
	 width="7.531px" height="32.044px" viewBox="0 0 7.531 32.044" style="enable-background:new 0 0 7.531 32.044;"
	 xml:space="preserve">
<g>
	
		<line style="fill:none;stroke:#3A1968;stroke-width:0.5;stroke-linecap:square;stroke-miterlimit:10;" x1="0.25" y1="15.242" x2="7.281" y2="15.242"/>
	<g>
		<path style="fill:#3A1968;" d="M1.29,10.56v-0.226c0.529-0.009,1.021-0.132,1.477-0.37c0.456-0.237,0.896-0.653,1.321-1.248
			C4.514,8.122,4.81,7.469,4.977,6.757C4.338,7.168,3.76,7.373,3.243,7.373c-0.582,0-1.08-0.225-1.495-0.674
			c-0.415-0.45-0.623-1.047-0.623-1.792c0-0.724,0.208-1.369,0.623-1.935c0.5-0.688,1.153-1.031,1.959-1.031
			c0.68,0,1.262,0.28,1.746,0.842c0.594,0.696,0.891,1.555,0.891,2.576c0,0.919-0.226,1.777-0.678,2.572
			c-0.451,0.796-1.08,1.456-1.886,1.98c-0.655,0.432-1.369,0.647-2.143,0.647H1.29z M5.074,6.306
			c0.073-0.529,0.109-0.952,0.109-1.27c0-0.396-0.066-0.821-0.201-1.279c-0.134-0.458-0.324-0.809-0.57-1.053
			C4.166,2.46,3.886,2.338,3.573,2.338c-0.362,0-0.68,0.163-0.952,0.488s-0.409,0.81-0.409,1.453c0,0.858,0.181,1.529,0.543,2.014
			c0.265,0.35,0.59,0.525,0.977,0.525c0.187,0,0.409-0.045,0.665-0.135C4.653,6.594,4.879,6.468,5.074,6.306z"/>
	</g>
	<g>
		<path style="fill:#3A1968;" d="M1.29,28.382v-0.226c0.529-0.009,1.021-0.132,1.477-0.369c0.456-0.238,0.896-0.654,1.321-1.248
			c0.425-0.595,0.721-1.248,0.888-1.96c-0.639,0.411-1.217,0.616-1.733,0.616c-0.582,0-1.08-0.225-1.495-0.674
			s-0.623-1.047-0.623-1.791c0-0.725,0.208-1.37,0.623-1.936c0.5-0.688,1.153-1.031,1.959-1.031c0.68,0,1.262,0.281,1.746,0.842
			c0.594,0.696,0.891,1.555,0.891,2.576c0,0.92-0.226,1.777-0.678,2.572c-0.451,0.796-1.08,1.456-1.886,1.98
			c-0.655,0.432-1.369,0.647-2.143,0.647H1.29z M5.074,24.128c0.073-0.529,0.109-0.952,0.109-1.27c0-0.395-0.066-0.821-0.201-1.279
			c-0.134-0.457-0.324-0.809-0.57-1.053c-0.247-0.244-0.526-0.366-0.839-0.366c-0.362,0-0.68,0.163-0.952,0.488
			c-0.272,0.326-0.409,0.81-0.409,1.453c0,0.858,0.181,1.529,0.543,2.014c0.265,0.351,0.59,0.525,0.977,0.525
			c0.187,0,0.409-0.045,0.665-0.135C4.653,24.417,4.879,24.29,5.074,24.128z"/>
	</g>
</g>
<g id="theGroup">
</g>
</svg>
