<?xml version="1.0" encoding="iso-8859-1"?>
<!-- Generator: Adobe Illustrator 16.0.0, SVG Export Plug-In . SVG Version: 6.00 Build 0)  -->
<!DOCTYPE svg PUBLIC "-//W3C//DTD SVG 1.1//EN" "http://www.w3.org/Graphics/SVG/1.1/DTD/svg11.dtd">
<svg version="1.1" id="Lager_1" xmlns="http://www.w3.org/2000/svg" xmlns:xlink="http://www.w3.org/1999/xlink" x="0px" y="0px"
	 width="44.055px" height="32.044px" viewBox="0 0 44.055 32.044" style="enable-background:new 0 0 44.055 32.044;"
	 xml:space="preserve">
<g>
	
		<line style="fill:none;stroke:#000000;stroke-width:0.5;stroke-linecap:square;stroke-miterlimit:10;" x1="0.25" y1="15.242" x2="7.672" y2="15.242"/>
	
		<line style="fill:none;stroke:#000000;stroke-width:0.5;stroke-linecap:square;stroke-miterlimit:10;" x1="36.578" y1="15.242" x2="43.805" y2="15.242"/>
	<g>
		<path d="M6.763,8.796l-0.58,1.593H1.3v-0.226c1.437-1.311,2.447-2.381,3.033-3.211s0.879-1.589,0.879-2.276
			c0-0.525-0.161-0.956-0.482-1.294S4.024,2.875,3.576,2.875c-0.407,0-0.772,0.119-1.095,0.357C2.157,3.47,1.918,3.819,1.764,4.279
			H1.538C1.64,3.526,1.901,2.948,2.322,2.546C2.743,2.143,3.269,1.941,3.9,1.941c0.671,0,1.232,0.216,1.682,0.646
			c0.449,0.432,0.674,0.94,0.674,1.526c0,0.419-0.098,0.838-0.293,1.257C5.662,6.03,5.173,6.729,4.498,7.465
			C3.485,8.571,2.852,9.239,2.6,9.467h2.161c0.439,0,0.748-0.017,0.924-0.049C5.862,9.386,6.022,9.319,6.164,9.22
			c0.143-0.1,0.267-0.241,0.373-0.424H6.763z"/>
		<path d="M37.866,3.687c0.236-0.558,0.534-0.987,0.895-1.291c0.359-0.303,0.809-0.454,1.346-0.454c0.663,0,1.172,0.216,1.525,0.646
			c0.269,0.321,0.403,0.666,0.403,1.032c0,0.602-0.379,1.225-1.136,1.867c0.509,0.199,0.894,0.484,1.154,0.854
			c0.26,0.37,0.391,0.806,0.391,1.307c0,0.716-0.229,1.336-0.684,1.861c-0.595,0.684-1.455,1.025-2.582,1.025
			c-0.558,0-0.938-0.069-1.139-0.208c-0.201-0.138-0.302-0.286-0.302-0.445c0-0.118,0.048-0.222,0.144-0.312
			c0.095-0.089,0.21-0.134,0.345-0.134c0.102,0,0.205,0.016,0.312,0.049c0.068,0.021,0.226,0.095,0.47,0.223
			s0.413,0.204,0.507,0.229c0.15,0.045,0.311,0.067,0.481,0.067c0.415,0,0.776-0.161,1.084-0.482c0.307-0.321,0.46-0.701,0.46-1.141
			c0-0.322-0.07-0.635-0.213-0.94c-0.106-0.228-0.222-0.4-0.348-0.519c-0.176-0.163-0.416-0.311-0.721-0.442
			c-0.305-0.133-0.616-0.198-0.934-0.198H39.13V6.098c0.321-0.041,0.644-0.156,0.967-0.348c0.324-0.191,0.559-0.421,0.705-0.689
			s0.22-0.564,0.22-0.886c0-0.419-0.131-0.758-0.394-1.016c-0.263-0.259-0.589-0.388-0.979-0.388c-0.631,0-1.157,0.338-1.581,1.013
			L37.866,3.687z"/>
	</g>
	<g>
		<path d="M16.266,12.816c0.846,0,1.526,0.322,2.039,0.965c0.436,0.549,0.653,1.18,0.653,1.892c0,0.501-0.12,1.007-0.36,1.521
			c-0.24,0.512-0.571,0.898-0.992,1.159c-0.421,0.261-0.89,0.391-1.407,0.391c-0.842,0-1.511-0.336-2.008-1.007
			c-0.419-0.565-0.629-1.201-0.629-1.904c0-0.513,0.127-1.022,0.382-1.529c0.254-0.506,0.589-0.881,1.004-1.123
			C15.362,12.938,15.802,12.816,16.266,12.816z M16.076,13.214c-0.215,0-0.432,0.063-0.65,0.192
			c-0.218,0.128-0.394,0.353-0.528,0.674s-0.201,0.734-0.201,1.239c0,0.813,0.162,1.516,0.485,2.105
			c0.324,0.59,0.75,0.885,1.279,0.885c0.395,0,0.72-0.162,0.977-0.488c0.256-0.325,0.385-0.885,0.385-1.678
			c0-0.993-0.214-1.774-0.641-2.344C16.892,13.409,16.524,13.214,16.076,13.214z"/>
		<path d="M24.529,16.448c-0.15,0.736-0.445,1.303-0.885,1.7c-0.439,0.396-0.925,0.595-1.458,0.595c-0.635,0-1.188-0.267-1.66-0.8
			s-0.708-1.253-0.708-2.16c0-0.879,0.261-1.593,0.784-2.143c0.523-0.549,1.151-0.824,1.883-0.824c0.549,0,1.001,0.146,1.354,0.437
			c0.354,0.291,0.531,0.594,0.531,0.906c0,0.155-0.05,0.28-0.149,0.376s-0.239,0.144-0.418,0.144c-0.24,0-0.421-0.077-0.543-0.232
			c-0.069-0.085-0.115-0.248-0.137-0.488c-0.022-0.24-0.105-0.423-0.247-0.549c-0.143-0.122-0.34-0.184-0.592-0.184
			c-0.407,0-0.734,0.15-0.983,0.452c-0.329,0.398-0.494,0.926-0.494,1.58c0,0.668,0.164,1.257,0.491,1.768s0.77,0.766,1.328,0.766
			c0.399,0,0.757-0.137,1.074-0.409c0.225-0.187,0.442-0.526,0.653-1.019L24.529,16.448z"/>
		<path d="M26.896,9.894v4.089c0.452-0.496,0.81-0.814,1.074-0.955s0.529-0.211,0.794-0.211c0.317,0,0.59,0.088,0.817,0.263
			c0.229,0.175,0.397,0.45,0.507,0.824c0.077,0.261,0.116,0.736,0.116,1.428v1.978c0,0.354,0.028,0.597,0.085,0.727
			c0.041,0.098,0.11,0.175,0.208,0.232c0.098,0.057,0.276,0.085,0.537,0.085v0.22h-2.747v-0.22h0.129c0.26,0,0.441-0.04,0.543-0.119
			s0.173-0.196,0.213-0.351c0.013-0.065,0.019-0.257,0.019-0.574v-1.978c0-0.61-0.031-1.011-0.095-1.202
			c-0.062-0.191-0.163-0.334-0.302-0.43s-0.306-0.144-0.501-0.144c-0.199,0-0.406,0.053-0.622,0.158
			c-0.216,0.106-0.474,0.319-0.775,0.641v2.954c0,0.383,0.021,0.621,0.064,0.715c0.043,0.093,0.122,0.172,0.238,0.234
			c0.115,0.063,0.316,0.095,0.601,0.095v0.22h-2.771v-0.22c0.248,0,0.443-0.039,0.586-0.116c0.081-0.04,0.146-0.118,0.195-0.231
			c0.049-0.114,0.073-0.346,0.073-0.696v-5.06c0-0.639-0.016-1.031-0.046-1.178s-0.077-0.246-0.141-0.299s-0.147-0.08-0.253-0.08
			c-0.086,0-0.224,0.033-0.415,0.098l-0.086-0.213l1.673-0.684H26.896z"/>
	</g>
	<g>
		<path d="M6.556,19.764v0.226c-0.537,0.053-0.976,0.16-1.315,0.32c-0.34,0.161-0.675,0.406-1.007,0.735
			c-0.332,0.33-0.606,0.697-0.824,1.103c-0.218,0.404-0.4,0.886-0.546,1.443c0.586-0.403,1.174-0.604,1.764-0.604
			c0.565,0,1.056,0.228,1.471,0.684s0.622,1.042,0.622,1.758c0,0.691-0.209,1.322-0.628,1.893c-0.504,0.691-1.172,1.037-2.002,1.037
			c-0.565,0-1.046-0.188-1.44-0.562c-0.773-0.729-1.16-1.673-1.16-2.832c0-0.74,0.148-1.444,0.445-2.112
			c0.297-0.667,0.721-1.259,1.273-1.775c0.551-0.517,1.079-0.865,1.583-1.044c0.505-0.179,0.975-0.269,1.41-0.269H6.556z
			 M2.76,24.036c-0.073,0.55-0.11,0.993-0.11,1.331c0,0.391,0.072,0.814,0.217,1.272c0.144,0.457,0.359,0.82,0.644,1.089
			c0.207,0.191,0.459,0.287,0.757,0.287c0.354,0,0.67-0.167,0.949-0.5c0.279-0.334,0.418-0.811,0.418-1.429
			c0-0.696-0.139-1.298-0.415-1.807c-0.277-0.509-0.669-0.763-1.178-0.763c-0.155,0-0.32,0.032-0.498,0.098
			C3.367,23.68,3.105,23.82,2.76,24.036z"/>
		<path d="M42.757,19.764v0.226c-0.537,0.053-0.977,0.16-1.315,0.32c-0.34,0.161-0.676,0.406-1.008,0.735
			c-0.331,0.33-0.606,0.697-0.823,1.103c-0.218,0.404-0.4,0.886-0.547,1.443c0.586-0.403,1.174-0.604,1.764-0.604
			c0.566,0,1.057,0.228,1.472,0.684s0.622,1.042,0.622,1.758c0,0.691-0.209,1.322-0.629,1.893c-0.504,0.691-1.172,1.037-2.002,1.037
			c-0.565,0-1.045-0.188-1.439-0.562c-0.773-0.729-1.16-1.673-1.16-2.832c0-0.74,0.148-1.444,0.445-2.112
			c0.297-0.667,0.722-1.259,1.272-1.775c0.552-0.517,1.08-0.865,1.584-1.044c0.505-0.179,0.975-0.269,1.41-0.269H42.757z
			 M38.96,24.036c-0.073,0.55-0.109,0.993-0.109,1.331c0,0.391,0.071,0.814,0.216,1.272c0.145,0.457,0.359,0.82,0.645,1.089
			c0.207,0.191,0.46,0.287,0.757,0.287c0.354,0,0.67-0.167,0.949-0.5c0.278-0.334,0.418-0.811,0.418-1.429
			c0-0.696-0.139-1.298-0.415-1.807c-0.277-0.509-0.67-0.763-1.179-0.763c-0.154,0-0.32,0.032-0.497,0.098
			C39.567,23.68,39.306,23.82,38.96,24.036z"/>
	</g>
</g>
<g id="theGroup">
</g>
</svg>
