<?xml version="1.0" encoding="iso-8859-1"?>
<!-- Generator: Adobe Illustrator 16.0.0, SVG Export Plug-In . SVG Version: 6.00 Build 0)  -->
<!DOCTYPE svg PUBLIC "-//W3C//DTD SVG 1.1//EN" "http://www.w3.org/Graphics/SVG/1.1/DTD/svg11.dtd">
<svg version="1.1" id="Lager_1" xmlns="http://www.w3.org/2000/svg" xmlns:xlink="http://www.w3.org/1999/xlink" x="0px" y="0px"
	 width="12.956px" height="32.044px" viewBox="0 0 12.956 32.044" style="enable-background:new 0 0 12.956 32.044;"
	 xml:space="preserve">
<g>
	
		<line style="fill:none;stroke:#000000;stroke-width:0.5;stroke-linecap:square;stroke-miterlimit:10;" x1="0.596" y1="15.242" x2="12.706" y2="15.242"/>
	<g>
		<path d="M9.068,2.112L8.593,3.149h-2.49L5.559,4.261c1.078,0.158,1.933,0.56,2.564,1.202c0.541,0.554,0.812,1.204,0.812,1.953
			c0,0.436-0.089,0.838-0.266,1.209C8.492,8.995,8.27,9.311,8,9.57c-0.268,0.261-0.567,0.471-0.896,0.629
			c-0.468,0.224-0.948,0.336-1.44,0.336c-0.497,0-0.858-0.085-1.083-0.254c-0.226-0.168-0.339-0.354-0.339-0.558
			c0-0.114,0.047-0.215,0.14-0.303C4.475,9.334,4.593,9.29,4.735,9.29c0.105,0,0.198,0.016,0.277,0.049
			c0.08,0.032,0.215,0.116,0.406,0.25c0.305,0.212,0.614,0.317,0.928,0.317c0.476,0,0.894-0.18,1.254-0.54
			c0.36-0.36,0.54-0.799,0.54-1.315c0-0.5-0.16-0.968-0.482-1.4c-0.32-0.434-0.765-0.769-1.33-1.004
			C5.885,5.463,5.28,5.357,4.516,5.329l1.587-3.217H9.068z"/>
	</g>
	<g>
		<path d="M1.465,20.746l2.014-0.982h0.202v6.988c0,0.464,0.019,0.753,0.058,0.867c0.039,0.113,0.119,0.201,0.241,0.262
			c0.122,0.062,0.37,0.096,0.745,0.104v0.226H1.611v-0.226c0.391-0.009,0.643-0.042,0.757-0.101c0.114-0.06,0.193-0.139,0.238-0.238
			c0.044-0.1,0.067-0.397,0.067-0.895v-4.468c0-0.602-0.021-0.988-0.061-1.159c-0.028-0.131-0.081-0.227-0.156-0.287
			s-0.166-0.092-0.271-0.092c-0.15,0-0.36,0.063-0.628,0.189L1.465,20.746z"/>
		<path d="M8.648,24.042c-0.654-0.537-1.077-0.968-1.266-1.294c-0.19-0.325-0.284-0.663-0.284-1.013c0-0.537,0.207-1,0.622-1.389
			s0.967-0.583,1.654-0.583c0.667,0,1.204,0.181,1.611,0.543s0.61,0.775,0.61,1.239c0,0.31-0.11,0.625-0.329,0.946
			c-0.221,0.321-0.678,0.699-1.374,1.135c0.717,0.554,1.19,0.989,1.423,1.307c0.309,0.415,0.463,0.853,0.463,1.312
			c0,0.581-0.222,1.079-0.665,1.492s-1.025,0.619-1.745,0.619c-0.785,0-1.398-0.246-1.838-0.738
			c-0.35-0.395-0.524-0.826-0.524-1.294c0-0.366,0.123-0.729,0.369-1.09S8.047,24.478,8.648,24.042z M8.936,24.274
			c-0.338,0.284-0.588,0.595-0.751,0.931s-0.244,0.699-0.244,1.09c0,0.524,0.144,0.944,0.431,1.26s0.652,0.473,1.096,0.473
			c0.439,0,0.791-0.124,1.056-0.372s0.396-0.549,0.396-0.903c0-0.293-0.077-0.555-0.231-0.787
			C10.398,25.533,9.814,24.97,8.936,24.274z M9.607,23.389c0.488-0.439,0.797-0.786,0.928-1.04c0.13-0.254,0.195-0.542,0.195-0.864
			c0-0.427-0.12-0.762-0.36-1.004c-0.24-0.241-0.567-0.363-0.983-0.363c-0.414,0-0.752,0.12-1.013,0.36s-0.391,0.521-0.391,0.843
			c0,0.211,0.054,0.423,0.161,0.635c0.108,0.211,0.262,0.413,0.461,0.604L9.607,23.389z"/>
	</g>
</g>
<g id="theGroup">
</g>
</svg>
