<?xml version="1.0" encoding="iso-8859-1"?>
<!-- Generator: Adobe Illustrator 16.0.0, SVG Export Plug-In . SVG Version: 6.00 Build 0)  -->
<!DOCTYPE svg PUBLIC "-//W3C//DTD SVG 1.1//EN" "http://www.w3.org/Graphics/SVG/1.1/DTD/svg11.dtd">
<svg version="1.1" id="Lager_1" xmlns="http://www.w3.org/2000/svg" xmlns:xlink="http://www.w3.org/1999/xlink" x="0px" y="0px"
	 width="97.411px" height="16.458px" viewBox="0 0 97.411 16.458" style="enable-background:new 0 0 97.411 16.458;"
	 xml:space="preserve">
<g>
	<g>
		<path style="fill:#0066FF;" d="M13.776,13.776c-0.332,0.257-0.54,0.404-0.625,0.444c-0.127,0.06-0.262,0.089-0.406,0.089
			c-0.224,0-0.408-0.077-0.552-0.229c-0.145-0.153-0.217-0.354-0.217-0.604c0-0.157,0.035-0.294,0.105-0.409
			c0.097-0.16,0.264-0.311,0.503-0.452c0.239-0.141,0.636-0.312,1.191-0.515v-0.127c0-0.322-0.051-0.544-0.153-0.664
			c-0.103-0.119-0.251-0.18-0.446-0.18c-0.148,0-0.266,0.04-0.353,0.12c-0.089,0.08-0.134,0.172-0.134,0.275l0.007,0.204
			c0,0.108-0.028,0.192-0.083,0.251s-0.127,0.088-0.217,0.088c-0.087,0-0.159-0.03-0.214-0.092c-0.055-0.061-0.083-0.145-0.083-0.25
			c0-0.202,0.104-0.389,0.311-0.558c0.207-0.17,0.498-0.254,0.872-0.254c0.287,0,0.522,0.048,0.706,0.145
			c0.139,0.073,0.241,0.187,0.307,0.342c0.042,0.102,0.063,0.309,0.063,0.621v1.098c0,0.309,0.006,0.497,0.018,0.566
			c0.012,0.069,0.031,0.116,0.058,0.14c0.027,0.023,0.058,0.035,0.093,0.035c0.038,0,0.071-0.009,0.099-0.025
			c0.049-0.03,0.145-0.116,0.286-0.257v0.197c-0.264,0.353-0.515,0.529-0.755,0.529c-0.116,0-0.207-0.04-0.275-0.12
			S13.778,13.97,13.776,13.776z M13.776,13.547v-1.231c-0.355,0.142-0.584,0.241-0.688,0.3c-0.186,0.104-0.319,0.212-0.399,0.325
			c-0.08,0.112-0.12,0.236-0.12,0.37c0,0.17,0.05,0.31,0.151,0.422c0.101,0.111,0.218,0.168,0.35,0.168
			C13.249,13.9,13.484,13.782,13.776,13.547z M13.335,9.211c0.188,0,0.348,0.065,0.48,0.197c0.131,0.132,0.197,0.29,0.197,0.477
			c0,0.188-0.066,0.348-0.197,0.479c-0.132,0.132-0.292,0.197-0.48,0.197c-0.186,0-0.345-0.065-0.477-0.197
			s-0.198-0.292-0.198-0.479c0-0.187,0.065-0.345,0.196-0.477C12.987,9.276,13.146,9.211,13.335,9.211z M13.335,9.454
			c-0.12,0-0.222,0.042-0.305,0.125c-0.083,0.084-0.125,0.186-0.125,0.306c0,0.117,0.042,0.219,0.125,0.303
			c0.083,0.085,0.185,0.127,0.305,0.127c0.12,0,0.222-0.042,0.305-0.127c0.083-0.084,0.125-0.186,0.125-0.303
			c0-0.12-0.042-0.222-0.125-0.306C13.557,9.496,13.455,9.454,13.335,9.454z"/>
		<path style="fill:#0066FF;" d="M16.011,9.948v1.062h0.755v0.247h-0.755v2.096c0,0.21,0.03,0.351,0.09,0.424
			s0.137,0.109,0.231,0.109c0.078,0,0.153-0.024,0.226-0.072c0.073-0.048,0.129-0.119,0.169-0.214h0.138
			c-0.083,0.23-0.199,0.404-0.35,0.521c-0.15,0.117-0.306,0.175-0.466,0.175c-0.108,0-0.214-0.03-0.317-0.09
			s-0.18-0.146-0.229-0.258c-0.049-0.111-0.074-0.284-0.074-0.517v-2.174h-0.511v-0.116c0.129-0.052,0.261-0.14,0.397-0.263
			c0.135-0.124,0.255-0.271,0.361-0.439c0.054-0.09,0.129-0.253,0.226-0.49H16.011z"/>
		<path style="fill:#0066FF;" d="M18.041,9.948v1.062h0.755v0.247h-0.755v2.096c0,0.21,0.03,0.351,0.09,0.424
			s0.137,0.109,0.231,0.109c0.078,0,0.153-0.024,0.226-0.072c0.073-0.048,0.129-0.119,0.169-0.214h0.138
			c-0.083,0.23-0.199,0.404-0.35,0.521c-0.15,0.117-0.306,0.175-0.466,0.175c-0.108,0-0.214-0.03-0.317-0.09
			s-0.18-0.146-0.229-0.258c-0.049-0.111-0.074-0.284-0.074-0.517v-2.174h-0.511v-0.116c0.129-0.052,0.261-0.14,0.397-0.263
			c0.135-0.124,0.255-0.271,0.361-0.439c0.054-0.09,0.129-0.253,0.226-0.49H18.041z"/>
		<path style="fill:#0066FF;" d="M20.963,13.776c-0.332,0.257-0.54,0.404-0.625,0.444c-0.127,0.06-0.262,0.089-0.406,0.089
			c-0.224,0-0.408-0.077-0.552-0.229c-0.145-0.153-0.217-0.354-0.217-0.604c0-0.157,0.035-0.294,0.105-0.409
			c0.097-0.16,0.264-0.311,0.503-0.452c0.239-0.141,0.636-0.312,1.191-0.515v-0.127c0-0.322-0.051-0.544-0.153-0.664
			c-0.103-0.119-0.251-0.18-0.446-0.18c-0.148,0-0.266,0.04-0.353,0.12c-0.089,0.08-0.134,0.172-0.134,0.275l0.007,0.204
			c0,0.108-0.028,0.192-0.083,0.251s-0.127,0.088-0.217,0.088c-0.087,0-0.159-0.03-0.214-0.092c-0.055-0.061-0.083-0.145-0.083-0.25
			c0-0.202,0.104-0.389,0.311-0.558c0.207-0.17,0.498-0.254,0.872-0.254c0.287,0,0.522,0.048,0.706,0.145
			c0.139,0.073,0.241,0.187,0.307,0.342c0.042,0.102,0.063,0.309,0.063,0.621v1.098c0,0.309,0.006,0.497,0.018,0.566
			c0.012,0.069,0.031,0.116,0.058,0.14c0.027,0.023,0.058,0.035,0.093,0.035c0.038,0,0.071-0.009,0.099-0.025
			c0.049-0.03,0.145-0.116,0.286-0.257v0.197c-0.264,0.353-0.515,0.529-0.755,0.529c-0.116,0-0.207-0.04-0.275-0.12
			S20.965,13.97,20.963,13.776z M20.963,13.547v-1.231c-0.355,0.142-0.584,0.241-0.688,0.3c-0.186,0.104-0.319,0.212-0.399,0.325
			c-0.08,0.112-0.12,0.236-0.12,0.37c0,0.17,0.05,0.31,0.151,0.422c0.101,0.111,0.218,0.168,0.35,0.168
			C20.436,13.9,20.671,13.782,20.963,13.547z"/>
	</g>
	<g>
		<path style="fill:#CC0000;" d="M7.715,3.535l2.014-0.982h0.202v6.988c0,0.464,0.019,0.753,0.058,0.867
			c0.039,0.113,0.119,0.201,0.241,0.262c0.122,0.062,0.37,0.096,0.745,0.104V11H7.861v-0.226c0.391-0.009,0.643-0.042,0.757-0.101
			c0.114-0.06,0.193-0.139,0.238-0.238c0.044-0.1,0.067-0.397,0.067-0.895V5.073c0-0.602-0.021-0.988-0.061-1.159
			c-0.028-0.13-0.081-0.226-0.156-0.287S8.541,3.535,8.435,3.535c-0.15,0-0.36,0.063-0.628,0.189L7.715,3.535z"/>
		<path style="fill:#CC0000;" d="M64.465,3.535l2.014-0.982h0.202v6.988c0,0.464,0.019,0.753,0.058,0.867
			c0.039,0.113,0.119,0.201,0.241,0.262c0.122,0.062,0.37,0.096,0.745,0.104V11h-3.113v-0.226c0.391-0.009,0.643-0.042,0.757-0.101
			c0.114-0.06,0.193-0.139,0.238-0.238s0.067-0.397,0.067-0.895V5.073c0-0.602-0.021-0.988-0.062-1.159
			c-0.028-0.13-0.08-0.226-0.155-0.287c-0.076-0.061-0.166-0.092-0.271-0.092c-0.151,0-0.36,0.063-0.629,0.189L64.465,3.535z"/>
	</g>
	<g>
		<path style="fill:#0066FF;" d="M74.385,3.535l2.014-0.982h0.202v6.988c0,0.464,0.019,0.753,0.058,0.867
			c0.039,0.113,0.119,0.201,0.241,0.262c0.122,0.062,0.37,0.096,0.745,0.104V11h-3.113v-0.226c0.391-0.009,0.643-0.042,0.757-0.101
			c0.114-0.06,0.193-0.139,0.238-0.238s0.067-0.397,0.067-0.895V5.073c0-0.602-0.021-0.988-0.062-1.159
			c-0.028-0.13-0.08-0.226-0.155-0.287c-0.076-0.061-0.166-0.092-0.271-0.092c-0.151,0-0.36,0.063-0.629,0.189L74.385,3.535z"/>
	</g>
	<g>
		<path style="fill:#CC0000;" d="M1.465,3.535l2.014-0.982h0.202v6.988c0,0.464,0.019,0.753,0.058,0.867
			c0.039,0.113,0.119,0.201,0.241,0.262c0.122,0.062,0.37,0.096,0.745,0.104V11H1.611v-0.226c0.391-0.009,0.643-0.042,0.757-0.101
			c0.114-0.06,0.193-0.139,0.238-0.238c0.044-0.1,0.067-0.397,0.067-0.895V5.073c0-0.602-0.021-0.988-0.061-1.159
			c-0.028-0.13-0.081-0.226-0.156-0.287S2.291,3.535,2.185,3.535c-0.15,0-0.36,0.063-0.628,0.189L1.465,3.535z"/>
		<path style="fill:#CC0000;" d="M37.59,3.535l2.014-0.982h0.202v6.988c0,0.464,0.019,0.753,0.058,0.867
			c0.039,0.113,0.119,0.201,0.241,0.262c0.122,0.062,0.37,0.096,0.745,0.104V11h-3.113v-0.226c0.391-0.009,0.643-0.042,0.757-0.101
			c0.114-0.06,0.193-0.139,0.238-0.238c0.044-0.1,0.067-0.397,0.067-0.895V5.073c0-0.602-0.021-0.988-0.061-1.159
			c-0.028-0.13-0.081-0.226-0.156-0.287s-0.166-0.092-0.271-0.092c-0.15,0-0.36,0.063-0.628,0.189L37.59,3.535z"/>
	</g>
	<g>
		<path style="fill:#0066FF;" d="M49.234,6.831c-0.655-0.537-1.077-0.968-1.266-1.294c-0.189-0.325-0.284-0.663-0.284-1.013
			c0-0.537,0.207-1,0.622-1.389s0.967-0.583,1.654-0.583c0.667,0,1.204,0.181,1.611,0.543c0.407,0.362,0.61,0.775,0.61,1.239
			c0,0.309-0.11,0.625-0.329,0.946c-0.221,0.321-0.678,0.7-1.374,1.135c0.717,0.554,1.19,0.989,1.423,1.307
			c0.309,0.415,0.463,0.852,0.463,1.312c0,0.581-0.222,1.079-0.665,1.492s-1.025,0.619-1.745,0.619
			c-0.786,0-1.398-0.246-1.837-0.738c-0.35-0.395-0.525-0.826-0.525-1.294c0-0.366,0.123-0.729,0.369-1.09
			C48.208,7.665,48.632,7.267,49.234,6.831z M49.521,7.063c-0.338,0.285-0.588,0.595-0.751,0.931
			c-0.163,0.335-0.244,0.699-0.244,1.09c0,0.524,0.144,0.944,0.431,1.26c0.287,0.315,0.652,0.473,1.096,0.473
			c0.439,0,0.791-0.124,1.056-0.372s0.396-0.549,0.396-0.903c0-0.293-0.077-0.555-0.231-0.787C50.984,8.323,50.4,7.759,49.521,7.063
			z M50.193,6.178c0.488-0.439,0.797-0.786,0.928-1.041c0.13-0.254,0.195-0.542,0.195-0.864c0-0.427-0.12-0.762-0.36-1.004
			s-0.567-0.363-0.983-0.363c-0.415,0-0.752,0.12-1.013,0.36c-0.26,0.24-0.391,0.521-0.391,0.843c0,0.211,0.054,0.423,0.162,0.635
			c0.108,0.211,0.262,0.413,0.461,0.604L50.193,6.178z"/>
		<path style="fill:#0066FF;" d="M91.82,11.171v-0.226c0.529-0.009,1.021-0.132,1.478-0.369c0.455-0.238,0.896-0.654,1.321-1.248
			c0.425-0.595,0.721-1.248,0.888-1.96c-0.639,0.411-1.217,0.617-1.733,0.617c-0.582,0-1.08-0.225-1.495-0.674
			s-0.623-1.047-0.623-1.792c0-0.724,0.208-1.369,0.623-1.935c0.5-0.688,1.153-1.031,1.959-1.031c0.68,0,1.262,0.281,1.746,0.842
			c0.594,0.696,0.891,1.554,0.891,2.576c0,0.919-0.226,1.777-0.678,2.573c-0.451,0.795-1.08,1.456-1.886,1.98
			c-0.655,0.432-1.369,0.647-2.143,0.647H91.82z M95.604,6.917c0.073-0.529,0.109-0.952,0.109-1.27c0-0.395-0.066-0.821-0.201-1.279
			c-0.134-0.458-0.324-0.809-0.57-1.053s-0.526-0.366-0.84-0.366c-0.361,0-0.679,0.163-0.951,0.488
			c-0.273,0.326-0.409,0.81-0.409,1.453c0,0.858,0.181,1.53,0.543,2.014c0.265,0.35,0.59,0.525,0.977,0.525
			c0.188,0,0.409-0.045,0.665-0.135C95.184,7.206,95.409,7.08,95.604,6.917z"/>
	</g>
	<g>
		<path style="fill:#0066FF;" d="M27.325,6.367h6.409v0.592h-6.409V6.367z M27.325,8.644h6.409v0.604h-6.409V8.644z"/>
		<path style="fill:#0066FF;" d="M44.869,7.802c0,0.187-0.066,0.347-0.198,0.479c-0.132,0.132-0.29,0.199-0.473,0.199
			c-0.187,0-0.347-0.066-0.479-0.199c-0.132-0.132-0.199-0.292-0.199-0.479s0.066-0.347,0.199-0.479
			c0.132-0.132,0.292-0.199,0.479-0.199c0.183,0,0.341,0.066,0.473,0.199C44.802,7.455,44.869,7.615,44.869,7.802z"/>
		<path style="fill:#0066FF;" d="M58.034,4.591h0.599v2.917h2.899v0.592h-2.899V11h-0.599V8.101h-2.911V7.509h2.911V4.591z"/>
		<path style="fill:#0066FF;" d="M71.729,7.802c0,0.187-0.066,0.347-0.199,0.479c-0.132,0.132-0.289,0.199-0.473,0.199
			c-0.188,0-0.347-0.066-0.479-0.199c-0.132-0.132-0.198-0.292-0.198-0.479s0.066-0.347,0.198-0.479
			c0.133-0.132,0.292-0.199,0.479-0.199c0.184,0,0.341,0.066,0.473,0.199C71.663,7.455,71.729,7.615,71.729,7.802z"/>
		<path style="fill:#0066FF;" d="M81.358,6.367h6.409v0.592h-6.409V6.367z M81.358,8.644h6.409v0.604h-6.409V8.644z"/>
	</g>
</g>
<g id="theGroup">
</g>
</svg>
