<?xml version="1.0" encoding="iso-8859-1"?>
<!-- Generator: Adobe Illustrator 16.0.0, SVG Export Plug-In . SVG Version: 6.00 Build 0)  -->
<!DOCTYPE svg PUBLIC "-//W3C//DTD SVG 1.1//EN" "http://www.w3.org/Graphics/SVG/1.1/DTD/svg11.dtd">
<svg version="1.1" id="Lager_1" xmlns="http://www.w3.org/2000/svg" xmlns:xlink="http://www.w3.org/1999/xlink" x="0px" y="0px"
	 width="37.57px" height="32.655px" viewBox="0 0 37.57 32.655" style="enable-background:new 0 0 37.57 32.655;"
	 xml:space="preserve">
<g>
	
		<line style="fill:none;stroke:#0066FF;stroke-width:0.5;stroke-linecap:square;stroke-miterlimit:10;" x1="0.25" y1="15.854" x2="37.32" y2="15.854"/>
	<g>
		<path style="fill:#0066FF;" d="M2.833,6.831C2.179,6.294,1.756,5.863,1.567,5.537C1.378,5.212,1.284,4.874,1.284,4.524
			c0-0.537,0.207-1,0.622-1.389S2.873,2.553,3.56,2.553c0.667,0,1.205,0.181,1.611,0.543c0.407,0.362,0.61,0.775,0.61,1.239
			c0,0.309-0.11,0.625-0.33,0.946c-0.22,0.321-0.677,0.7-1.374,1.135c0.716,0.554,1.19,0.989,1.422,1.307
			C5.81,8.138,5.965,8.575,5.965,9.035c0,0.582-0.222,1.08-0.666,1.492c-0.443,0.413-1.025,0.62-1.745,0.62
			c-0.786,0-1.398-0.246-1.837-0.738c-0.35-0.395-0.525-0.826-0.525-1.294c0-0.366,0.123-0.729,0.369-1.09
			C1.807,7.665,2.231,7.267,2.833,6.831z M3.121,7.063C2.783,7.348,2.533,7.658,2.37,7.994C2.207,8.33,2.125,8.693,2.125,9.083
			c0,0.525,0.144,0.945,0.431,1.26c0.287,0.315,0.652,0.473,1.096,0.473c0.439,0,0.791-0.124,1.056-0.373
			c0.265-0.248,0.396-0.549,0.396-0.903c0-0.293-0.077-0.555-0.231-0.787C4.583,8.323,4,7.759,3.121,7.063z M3.792,6.178
			C4.28,5.739,4.589,5.392,4.72,5.138s0.195-0.542,0.195-0.864c0-0.427-0.12-0.762-0.36-1.004c-0.24-0.242-0.568-0.363-0.983-0.363
			s-0.753,0.12-1.013,0.36c-0.26,0.24-0.391,0.521-0.391,0.843c0,0.211,0.054,0.423,0.162,0.635
			c0.108,0.211,0.262,0.413,0.461,0.604L3.792,6.178z"/>
		<path style="fill:#0066FF;" d="M7.942,2.724h4.437v0.232l-2.759,8.215H8.937l2.472-7.452H9.132c-0.459,0-0.787,0.055-0.982,0.165
			C7.808,4.07,7.534,4.359,7.326,4.75L7.149,4.683L7.942,2.724z"/>
		<path style="fill:#0066FF;" d="M30.014,2.553v0.226c-0.537,0.053-0.977,0.16-1.315,0.321c-0.34,0.161-0.676,0.406-1.008,0.735
			c-0.331,0.33-0.606,0.697-0.823,1.102c-0.218,0.405-0.4,0.886-0.547,1.444c0.586-0.403,1.174-0.604,1.764-0.604
			c0.566,0,1.057,0.228,1.472,0.684s0.622,1.042,0.622,1.758c0,0.692-0.209,1.322-0.629,1.892c-0.504,0.692-1.172,1.038-2.002,1.038
			c-0.565,0-1.045-0.187-1.439-0.562c-0.773-0.729-1.16-1.672-1.16-2.832c0-0.741,0.148-1.444,0.445-2.112s0.722-1.259,1.272-1.776
			c0.552-0.517,1.08-0.865,1.584-1.044c0.505-0.179,0.975-0.269,1.41-0.269H30.014z M26.217,6.825
			c-0.073,0.549-0.109,0.993-0.109,1.331c0,0.391,0.071,0.815,0.216,1.272c0.145,0.458,0.359,0.821,0.645,1.089
			c0.207,0.191,0.46,0.287,0.757,0.287c0.354,0,0.67-0.167,0.949-0.5c0.278-0.333,0.418-0.81,0.418-1.428
			c0-0.696-0.139-1.298-0.415-1.807c-0.277-0.509-0.67-0.763-1.179-0.763c-0.154,0-0.32,0.032-0.497,0.098
			C26.824,6.469,26.562,6.609,26.217,6.825z"/>
		<path style="fill:#0066FF;" d="M31.319,11.171v-0.226c0.529-0.008,1.021-0.131,1.478-0.37c0.455-0.238,0.896-0.654,1.321-1.248
			c0.425-0.594,0.721-1.247,0.888-1.959c-0.639,0.411-1.217,0.617-1.733,0.617c-0.582,0-1.08-0.225-1.495-0.674
			s-0.623-1.047-0.623-1.792c0-0.724,0.208-1.369,0.623-1.935c0.5-0.688,1.153-1.031,1.959-1.031c0.68,0,1.262,0.281,1.746,0.842
			c0.594,0.696,0.891,1.554,0.891,2.576c0,0.919-0.226,1.777-0.678,2.573c-0.451,0.795-1.08,1.456-1.886,1.98
			c-0.655,0.431-1.369,0.647-2.143,0.647H31.319z M35.104,6.917c0.073-0.529,0.109-0.952,0.109-1.27
			c0-0.395-0.066-0.821-0.201-1.279c-0.134-0.458-0.324-0.809-0.57-1.053s-0.526-0.366-0.84-0.366c-0.361,0-0.679,0.163-0.951,0.488
			c-0.273,0.326-0.409,0.81-0.409,1.453c0,0.858,0.181,1.53,0.543,2.014c0.265,0.35,0.59,0.525,0.977,0.525
			c0.188,0,0.409-0.045,0.665-0.135C34.683,7.206,34.908,7.08,35.104,6.917z"/>
	</g>
	<g>
		<path style="fill:#0066FF;" d="M13.707,21.357l2.014-0.982h0.202v6.988c0,0.464,0.019,0.753,0.058,0.867
			c0.039,0.113,0.119,0.201,0.241,0.262c0.122,0.062,0.37,0.096,0.745,0.104v0.226h-3.113v-0.226
			c0.391-0.009,0.643-0.042,0.757-0.101c0.114-0.06,0.193-0.139,0.238-0.238c0.044-0.1,0.067-0.397,0.067-0.895v-4.468
			c0-0.602-0.021-0.988-0.061-1.159c-0.028-0.131-0.081-0.227-0.156-0.287s-0.166-0.092-0.271-0.092c-0.15,0-0.36,0.063-0.628,0.189
			L13.707,21.357z"/>
		<path style="fill:#0066FF;" d="M19.126,22.121c0.236-0.558,0.534-0.988,0.894-1.291c0.36-0.304,0.81-0.455,1.347-0.455
			c0.662,0,1.172,0.216,1.525,0.646c0.268,0.322,0.402,0.666,0.402,1.032c0,0.602-0.379,1.225-1.135,1.867
			c0.508,0.199,0.893,0.484,1.154,0.854c0.26,0.37,0.391,0.806,0.391,1.307c0,0.716-0.229,1.336-0.684,1.861
			c-0.596,0.684-1.455,1.025-2.582,1.025c-0.559,0-0.938-0.069-1.139-0.207c-0.201-0.139-0.302-0.287-0.302-0.446
			c0-0.118,0.047-0.222,0.143-0.312c0.096-0.089,0.21-0.134,0.345-0.134c0.102,0,0.205,0.017,0.311,0.049
			c0.069,0.021,0.226,0.095,0.47,0.223s0.414,0.204,0.508,0.229c0.15,0.044,0.311,0.066,0.48,0.066c0.416,0,0.777-0.16,1.084-0.482
			c0.307-0.321,0.461-0.701,0.461-1.141c0-0.321-0.07-0.635-0.213-0.94c-0.107-0.228-0.223-0.4-0.348-0.519
			c-0.176-0.163-0.416-0.311-0.721-0.442s-0.617-0.198-0.934-0.198h-0.195v-0.184c0.32-0.04,0.643-0.156,0.967-0.348
			s0.559-0.421,0.705-0.689s0.219-0.563,0.219-0.885c0-0.42-0.131-0.758-0.393-1.017c-0.264-0.259-0.59-0.388-0.98-0.388
			c-0.631,0-1.157,0.338-1.581,1.014L19.126,22.121z"/>
	</g>
	<g>
		<path style="fill:#0066FF;" d="M18.299,4.591h0.598v2.917h2.9v0.592h-2.9V11h-0.598V8.101h-2.912V7.509h2.912V4.591z"/>
	</g>
</g>
<g id="theGroup">
</g>
</svg>
