<?xml version="1.0" encoding="iso-8859-1"?>
<!-- Generator: Adobe Illustrator 16.0.0, SVG Export Plug-In . SVG Version: 6.00 Build 0)  -->
<!DOCTYPE svg PUBLIC "-//W3C//DTD SVG 1.1//EN" "http://www.w3.org/Graphics/SVG/1.1/DTD/svg11.dtd">
<svg version="1.1" id="Lager_1" xmlns="http://www.w3.org/2000/svg" xmlns:xlink="http://www.w3.org/1999/xlink" x="0px" y="0px"
	 width="37.45px" height="15.454px" viewBox="0 0 37.45 15.454" style="enable-background:new 0 0 37.45 15.454;"
	 xml:space="preserve">
<g>
	<g>
		<path style="fill:#3A1968;" d="M9.681,5.085L9.345,6.006H6.522v-0.13c0.831-0.758,1.415-1.376,1.754-1.856
			C8.615,3.54,8.784,3.101,8.784,2.703c0-0.304-0.093-0.553-0.279-0.748C8.32,1.76,8.097,1.662,7.838,1.662
			c-0.235,0-0.446,0.069-0.633,0.207S6.88,2.208,6.791,2.474H6.66c0.059-0.435,0.21-0.769,0.453-1.002
			c0.244-0.233,0.548-0.35,0.912-0.35c0.388,0,0.712,0.125,0.972,0.374c0.26,0.25,0.39,0.543,0.39,0.882
			c0,0.242-0.057,0.485-0.169,0.727C9.044,3.486,8.762,3.89,8.372,4.315C7.786,4.956,7.42,5.341,7.274,5.473h1.249
			c0.254,0,0.433-0.009,0.535-0.028C9.16,5.426,9.252,5.388,9.335,5.33C9.417,5.272,9.489,5.191,9.55,5.085H9.681z"/>
	</g>
	<g>
		<path style="fill:#3A1968;" d="M5.426,3.345L4.95,4.382H2.46L1.917,5.493c1.078,0.159,1.933,0.56,2.563,1.202
			C5.021,7.249,5.292,7.9,5.292,8.648c0,0.436-0.089,0.839-0.266,1.209c-0.177,0.37-0.4,0.686-0.668,0.945
			c-0.269,0.261-0.568,0.471-0.897,0.629c-0.468,0.224-0.948,0.336-1.44,0.336c-0.497,0-0.858-0.085-1.083-0.253
			c-0.226-0.169-0.339-0.355-0.339-0.559c0-0.114,0.047-0.215,0.14-0.303c0.094-0.087,0.212-0.131,0.354-0.131
			c0.105,0,0.198,0.017,0.277,0.049c0.08,0.032,0.215,0.116,0.406,0.25c0.305,0.212,0.614,0.317,0.928,0.317
			c0.476,0,0.894-0.18,1.254-0.54c0.36-0.36,0.54-0.799,0.54-1.315c0-0.5-0.161-0.967-0.482-1.4
			C3.695,7.449,3.251,7.115,2.686,6.879C2.242,6.695,1.638,6.59,0.873,6.562L2.46,3.345H5.426z"/>
		<path style="fill:#3A1968;" d="M30.682,10.028l-0.58,1.593h-4.883v-0.226c1.437-1.311,2.447-2.381,3.033-3.211
			s0.879-1.589,0.879-2.276c0-0.525-0.16-0.956-0.481-1.294c-0.322-0.338-0.706-0.507-1.154-0.507c-0.406,0-0.771,0.119-1.096,0.357
			c-0.323,0.238-0.562,0.587-0.717,1.047h-0.226c0.102-0.753,0.363-1.331,0.784-1.733c0.421-0.403,0.947-0.604,1.578-0.604
			c0.671,0,1.231,0.216,1.681,0.647c0.45,0.431,0.675,0.94,0.675,1.526c0,0.419-0.098,0.838-0.293,1.257
			c-0.301,0.659-0.789,1.357-1.465,2.093c-1.014,1.107-1.646,1.774-1.898,2.002h2.161c0.439,0,0.747-0.016,0.925-0.049
			c0.177-0.032,0.336-0.099,0.479-0.198s0.267-0.241,0.373-0.424H30.682z"/>
		<path style="fill:#3A1968;" d="M36.626,3.345L36.15,4.382h-2.49l-0.544,1.111c1.079,0.159,1.934,0.56,2.564,1.202
			c0.541,0.554,0.812,1.205,0.812,1.953c0,0.436-0.089,0.839-0.266,1.209s-0.399,0.686-0.669,0.945
			c-0.268,0.261-0.567,0.471-0.896,0.629c-0.468,0.224-0.948,0.336-1.44,0.336c-0.497,0-0.857-0.085-1.084-0.253
			c-0.226-0.169-0.339-0.355-0.339-0.559c0-0.114,0.047-0.215,0.141-0.303c0.094-0.087,0.212-0.131,0.354-0.131
			c0.105,0,0.198,0.017,0.277,0.049s0.215,0.116,0.406,0.25c0.305,0.212,0.614,0.317,0.928,0.317c0.476,0,0.894-0.18,1.254-0.54
			s0.54-0.799,0.54-1.315c0-0.5-0.16-0.967-0.482-1.4c-0.321-0.434-0.765-0.768-1.33-1.004c-0.443-0.184-1.048-0.289-1.812-0.317
			l1.587-3.217H36.626z"/>
	</g>
	<g>
		<path style="fill:#3A1968;" d="M14.786,6.988h6.409v0.592h-6.409V6.988z M14.786,9.266h6.409v0.604h-6.409V9.266z"/>
	</g>
</g>
<g id="theGroup">
</g>
</svg>
