<?xml version="1.0" encoding="iso-8859-1"?>
<!-- Generator: Adobe Illustrator 16.0.0, SVG Export Plug-In . SVG Version: 6.00 Build 0)  -->
<!DOCTYPE svg PUBLIC "-//W3C//DTD SVG 1.1//EN" "http://www.w3.org/Graphics/SVG/1.1/DTD/svg11.dtd">
<svg version="1.1" id="Lager_1" xmlns="http://www.w3.org/2000/svg" xmlns:xlink="http://www.w3.org/1999/xlink" x="0px" y="0px"
	 width="104.274px" height="32.044px" viewBox="0 0 104.274 32.044" style="enable-background:new 0 0 104.274 32.044;"
	 xml:space="preserve">
<g>
	
		<line style="fill:none;stroke:#0066FF;stroke-width:0.5;stroke-linecap:square;stroke-miterlimit:10;" x1="55.938" y1="15.242" x2="62.774" y2="15.242"/>
	
		<line style="fill:none;stroke:#0066FF;stroke-width:0.5;stroke-linecap:square;stroke-miterlimit:10;" x1="69.571" y1="15.242" x2="76.407" y2="15.242"/>
	
		<line style="fill:none;stroke:#0066FF;stroke-width:0.5;stroke-linecap:square;stroke-miterlimit:10;" x1="90.548" y1="15.242" x2="104.024" y2="15.242"/>
	<g>
		<path style="fill:#0066FF;" d="M57.031,3.687c0.236-0.558,0.534-0.987,0.895-1.291c0.359-0.303,0.809-0.454,1.346-0.454
			c0.663,0,1.172,0.216,1.525,0.646C61.065,2.909,61.2,3.254,61.2,3.62c0,0.602-0.379,1.225-1.136,1.867
			c0.509,0.199,0.894,0.484,1.154,0.854c0.26,0.37,0.391,0.806,0.391,1.307c0,0.716-0.229,1.336-0.684,1.861
			c-0.595,0.684-1.455,1.025-2.582,1.025c-0.558,0-0.938-0.069-1.139-0.208c-0.201-0.138-0.302-0.286-0.302-0.445
			c0-0.118,0.048-0.222,0.144-0.312c0.095-0.089,0.21-0.134,0.345-0.134c0.102,0,0.205,0.016,0.312,0.049
			c0.068,0.021,0.226,0.095,0.47,0.223s0.413,0.204,0.507,0.229c0.15,0.045,0.311,0.067,0.481,0.067
			c0.415,0,0.776-0.161,1.084-0.482c0.307-0.321,0.46-0.701,0.46-1.141c0-0.322-0.07-0.635-0.213-0.94
			c-0.106-0.228-0.222-0.4-0.348-0.519c-0.176-0.163-0.416-0.311-0.721-0.442c-0.305-0.133-0.616-0.198-0.934-0.198h-0.195V6.098
			c0.321-0.041,0.644-0.156,0.967-0.348c0.324-0.191,0.559-0.421,0.705-0.689s0.22-0.564,0.22-0.886
			c0-0.419-0.131-0.758-0.394-1.016C59.53,2.9,59.204,2.771,58.813,2.771c-0.631,0-1.157,0.338-1.581,1.013L57.031,3.687z"/>
		<path style="fill:#0066FF;" d="M71.299,2.924l2.014-0.982h0.202V8.93c0,0.464,0.019,0.753,0.058,0.867
			c0.039,0.113,0.119,0.201,0.241,0.262c0.122,0.062,0.37,0.096,0.745,0.104v0.226h-3.113v-0.226
			c0.391-0.009,0.643-0.042,0.757-0.102c0.114-0.059,0.193-0.138,0.238-0.237s0.067-0.398,0.067-0.895V4.462
			c0-0.603-0.021-0.988-0.062-1.159c-0.028-0.131-0.08-0.227-0.155-0.287c-0.076-0.062-0.166-0.092-0.271-0.092
			c-0.151,0-0.36,0.063-0.629,0.189L71.299,2.924z"/>
		<path style="fill:#0066FF;" d="M94.956,3.687c0.236-0.558,0.534-0.987,0.895-1.291c0.359-0.303,0.809-0.454,1.346-0.454
			c0.663,0,1.172,0.216,1.525,0.646c0.269,0.321,0.403,0.666,0.403,1.032c0,0.602-0.379,1.225-1.136,1.867
			c0.509,0.199,0.894,0.484,1.154,0.854c0.26,0.37,0.391,0.806,0.391,1.307c0,0.716-0.229,1.336-0.684,1.861
			c-0.595,0.684-1.455,1.025-2.582,1.025c-0.558,0-0.938-0.069-1.139-0.208c-0.201-0.138-0.302-0.286-0.302-0.445
			c0-0.118,0.048-0.222,0.144-0.312c0.095-0.089,0.21-0.134,0.345-0.134c0.102,0,0.205,0.016,0.312,0.049
			c0.068,0.021,0.226,0.095,0.47,0.223s0.413,0.204,0.507,0.229c0.15,0.045,0.311,0.067,0.481,0.067
			c0.415,0,0.776-0.161,1.084-0.482c0.307-0.321,0.46-0.701,0.46-1.141c0-0.322-0.07-0.635-0.213-0.94
			c-0.106-0.228-0.222-0.4-0.348-0.519c-0.176-0.163-0.416-0.311-0.721-0.442c-0.305-0.133-0.616-0.198-0.934-0.198H96.22V6.098
			c0.321-0.041,0.644-0.156,0.967-0.348c0.324-0.191,0.559-0.421,0.705-0.689s0.22-0.564,0.22-0.886
			c0-0.419-0.131-0.758-0.394-1.016c-0.263-0.259-0.589-0.388-0.979-0.388c-0.631,0-1.157,0.338-1.581,1.013L94.956,3.687z"/>
	</g>
	<g>
		<path style="fill:#0066FF;" d="M5.719,15.802H2.515l-0.562,1.306c-0.138,0.321-0.208,0.562-0.208,0.721
			c0,0.126,0.06,0.236,0.18,0.332c0.12,0.096,0.379,0.158,0.778,0.187v0.226H0.098v-0.226c0.346-0.062,0.57-0.141,0.671-0.238
			c0.208-0.195,0.438-0.592,0.69-1.19l2.911-6.812h0.214l2.881,6.885c0.231,0.554,0.442,0.913,0.631,1.077
			c0.189,0.165,0.453,0.258,0.791,0.278v0.226H5.621v-0.226c0.33-0.017,0.553-0.071,0.668-0.165
			c0.116-0.094,0.174-0.207,0.174-0.342c0-0.179-0.082-0.462-0.244-0.849L5.719,15.802z M5.548,15.35l-1.403-3.345l-1.44,3.345
			H5.548z"/>
		<path style="fill:#0066FF;" d="M10.81,14.001c0.655-0.789,1.279-1.185,1.874-1.185c0.305,0,0.568,0.077,0.788,0.229
			s0.395,0.403,0.524,0.754c0.09,0.244,0.135,0.618,0.135,1.123v2.386c0,0.354,0.028,0.595,0.085,0.721
			c0.045,0.102,0.117,0.181,0.217,0.238c0.1,0.057,0.284,0.085,0.553,0.085v0.22H12.22v-0.22h0.116c0.261,0,0.443-0.04,0.546-0.119
			c0.104-0.079,0.176-0.196,0.217-0.351c0.016-0.062,0.024-0.253,0.024-0.574v-2.288c0-0.509-0.066-0.878-0.198-1.108
			c-0.132-0.229-0.355-0.345-0.668-0.345c-0.484,0-0.966,0.265-1.446,0.794v2.947c0,0.379,0.022,0.612,0.067,0.702
			c0.057,0.118,0.135,0.204,0.235,0.26c0.1,0.055,0.302,0.082,0.607,0.082v0.22H8.955v-0.22h0.122c0.285,0,0.477-0.072,0.577-0.217
			c0.1-0.145,0.149-0.42,0.149-0.827v-2.075c0-0.671-0.015-1.08-0.046-1.227c-0.03-0.146-0.077-0.246-0.14-0.299
			c-0.063-0.053-0.147-0.079-0.253-0.079c-0.114,0-0.25,0.03-0.409,0.091L8.863,13.5l1.685-0.684h0.263V14.001z"/>
		<path style="fill:#0066FF;" d="M19.379,17.943c-0.273,0.285-0.54,0.489-0.8,0.613s-0.541,0.187-0.842,0.187
			c-0.61,0-1.144-0.255-1.599-0.766s-0.684-1.167-0.684-1.969s0.252-1.535,0.757-2.2s1.153-0.998,1.947-0.998
			c0.492,0,0.899,0.157,1.221,0.47v-1.031c0-0.639-0.016-1.031-0.046-1.178c-0.031-0.146-0.079-0.246-0.144-0.299
			s-0.146-0.08-0.244-0.08c-0.106,0-0.246,0.033-0.421,0.098l-0.08-0.213l1.667-0.684h0.274v6.463c0,0.655,0.015,1.056,0.046,1.199
			c0.03,0.145,0.079,0.245,0.146,0.303c0.067,0.057,0.146,0.085,0.235,0.085c0.11,0,0.256-0.034,0.439-0.104l0.067,0.214
			l-1.66,0.689h-0.28V17.943z M19.379,17.517v-2.881c-0.024-0.276-0.098-0.529-0.22-0.757s-0.284-0.399-0.485-0.516
			c-0.202-0.116-0.398-0.174-0.589-0.174c-0.358,0-0.678,0.16-0.958,0.481c-0.37,0.424-0.555,1.042-0.555,1.855
			c0,0.822,0.179,1.452,0.537,1.89c0.358,0.438,0.757,0.656,1.196,0.656C18.675,18.072,19.033,17.887,19.379,17.517z"/>
		<path style="fill:#0066FF;" d="M22.62,15.087c-0.004,0.83,0.197,1.481,0.604,1.953c0.407,0.473,0.885,0.708,1.435,0.708
			c0.366,0,0.685-0.101,0.955-0.302s0.498-0.546,0.681-1.034l0.189,0.121c-0.086,0.558-0.334,1.065-0.745,1.523
			c-0.411,0.458-0.925,0.687-1.544,0.687c-0.671,0-1.246-0.262-1.724-0.784c-0.479-0.522-0.717-1.226-0.717-2.108
			c0-0.956,0.245-1.702,0.735-2.237s1.106-0.803,1.847-0.803c0.626,0,1.141,0.207,1.544,0.62s0.604,0.965,0.604,1.656H22.62z
			 M22.62,14.733h2.588c-0.021-0.358-0.063-0.61-0.128-0.757c-0.102-0.228-0.253-0.407-0.455-0.537
			c-0.201-0.13-0.412-0.195-0.631-0.195c-0.338,0-0.64,0.131-0.907,0.394S22.665,14.266,22.62,14.733z"/>
		<path style="fill:#0066FF;" d="M29.076,9.894v7.415c0,0.351,0.025,0.582,0.076,0.696c0.051,0.113,0.129,0.2,0.235,0.259
			c0.106,0.06,0.303,0.089,0.592,0.089v0.22h-2.741v-0.22c0.256,0,0.431-0.026,0.525-0.079s0.167-0.141,0.22-0.263
			s0.079-0.356,0.079-0.702V12.23c0-0.63-0.014-1.018-0.042-1.162s-0.074-0.243-0.137-0.296c-0.063-0.053-0.144-0.08-0.241-0.08
			c-0.106,0-0.24,0.033-0.403,0.098l-0.104-0.213l1.667-0.684H29.076z"/>
		<path style="fill:#0066FF;" d="M31.416,15.087c-0.004,0.83,0.197,1.481,0.604,1.953c0.407,0.473,0.885,0.708,1.435,0.708
			c0.366,0,0.685-0.101,0.955-0.302s0.498-0.546,0.681-1.034l0.189,0.121c-0.086,0.558-0.334,1.065-0.745,1.523
			c-0.411,0.458-0.925,0.687-1.544,0.687c-0.671,0-1.246-0.262-1.724-0.784c-0.479-0.522-0.717-1.226-0.717-2.108
			c0-0.956,0.245-1.702,0.735-2.237s1.106-0.803,1.847-0.803c0.626,0,1.141,0.207,1.544,0.62s0.604,0.965,0.604,1.656H31.416z
			 M31.416,14.733h2.588c-0.021-0.358-0.063-0.61-0.128-0.757c-0.102-0.228-0.253-0.407-0.455-0.537
			c-0.201-0.13-0.412-0.195-0.631-0.195c-0.338,0-0.64,0.131-0.907,0.394S31.461,14.266,31.416,14.733z"/>
		<path style="fill:#0066FF;" d="M37.579,14.001c0.655-0.789,1.279-1.185,1.874-1.185c0.305,0,0.568,0.077,0.788,0.229
			s0.395,0.403,0.524,0.754c0.09,0.244,0.135,0.618,0.135,1.123v2.386c0,0.354,0.028,0.595,0.085,0.721
			c0.045,0.102,0.117,0.181,0.217,0.238c0.1,0.057,0.284,0.085,0.553,0.085v0.22h-2.765v-0.22h0.116c0.261,0,0.443-0.04,0.546-0.119
			c0.104-0.079,0.176-0.196,0.217-0.351c0.016-0.062,0.024-0.253,0.024-0.574v-2.288c0-0.509-0.066-0.878-0.198-1.108
			c-0.132-0.229-0.355-0.345-0.668-0.345c-0.484,0-0.966,0.265-1.446,0.794v2.947c0,0.379,0.022,0.612,0.067,0.702
			c0.057,0.118,0.135,0.204,0.235,0.26c0.1,0.055,0.302,0.082,0.607,0.082v0.22h-2.765v-0.22h0.122c0.285,0,0.477-0.072,0.577-0.217
			c0.1-0.145,0.149-0.42,0.149-0.827v-2.075c0-0.671-0.015-1.08-0.046-1.227c-0.03-0.146-0.077-0.246-0.14-0.299
			c-0.063-0.053-0.147-0.079-0.253-0.079c-0.114,0-0.25,0.03-0.409,0.091l-0.092-0.22l1.685-0.684h0.263V14.001z"/>
	</g>
	<g>
		<path style="fill:#0066FF;" d="M61.754,19.935l-0.476,1.038h-2.49l-0.544,1.11c1.079,0.159,1.934,0.56,2.564,1.202
			c0.541,0.554,0.812,1.205,0.812,1.953c0,0.436-0.089,0.839-0.266,1.209s-0.399,0.686-0.669,0.945
			c-0.268,0.261-0.567,0.471-0.896,0.629c-0.468,0.224-0.948,0.336-1.44,0.336c-0.497,0-0.857-0.085-1.084-0.253
			c-0.226-0.169-0.339-0.355-0.339-0.559c0-0.114,0.047-0.215,0.141-0.303c0.094-0.087,0.212-0.131,0.354-0.131
			c0.105,0,0.198,0.017,0.277,0.049s0.215,0.116,0.406,0.25c0.305,0.212,0.614,0.317,0.928,0.317c0.476,0,0.894-0.18,1.254-0.54
			s0.54-0.799,0.54-1.315c0-0.5-0.16-0.967-0.482-1.4c-0.321-0.434-0.765-0.769-1.33-1.004c-0.443-0.184-1.048-0.289-1.812-0.317
			l1.587-3.217H61.754z"/>
		<path style="fill:#0066FF;" d="M75.379,19.935l-0.476,1.038h-2.49l-0.544,1.11c1.079,0.159,1.934,0.56,2.564,1.202
			c0.541,0.554,0.812,1.205,0.812,1.953c0,0.436-0.089,0.839-0.266,1.209s-0.399,0.686-0.669,0.945
			c-0.268,0.261-0.567,0.471-0.896,0.629c-0.468,0.224-0.948,0.336-1.44,0.336c-0.497,0-0.857-0.085-1.084-0.253
			c-0.226-0.169-0.339-0.355-0.339-0.559c0-0.114,0.047-0.215,0.141-0.303c0.094-0.087,0.212-0.131,0.354-0.131
			c0.105,0,0.198,0.017,0.277,0.049s0.215,0.116,0.406,0.25c0.305,0.212,0.614,0.317,0.928,0.317c0.476,0,0.894-0.18,1.254-0.54
			s0.54-0.799,0.54-1.315c0-0.5-0.16-0.967-0.482-1.4c-0.321-0.434-0.765-0.769-1.33-1.004c-0.443-0.184-1.048-0.289-1.812-0.317
			l1.587-3.217H75.379z"/>
		<path style="fill:#0066FF;" d="M97.047,26.618l-0.58,1.593h-4.883v-0.226c1.437-1.311,2.447-2.381,3.033-3.211
			s0.879-1.589,0.879-2.276c0-0.525-0.16-0.956-0.481-1.294c-0.322-0.338-0.706-0.507-1.154-0.507c-0.406,0-0.771,0.119-1.096,0.357
			c-0.323,0.238-0.562,0.587-0.717,1.047h-0.226c0.102-0.753,0.363-1.331,0.784-1.733c0.421-0.403,0.947-0.604,1.578-0.604
			c0.671,0,1.231,0.216,1.681,0.646c0.45,0.432,0.675,0.94,0.675,1.526c0,0.419-0.098,0.838-0.293,1.257
			c-0.301,0.66-0.789,1.357-1.465,2.094c-1.014,1.107-1.646,1.774-1.898,2.002h2.161c0.439,0,0.747-0.016,0.925-0.049
			c0.177-0.032,0.336-0.099,0.479-0.198s0.267-0.241,0.373-0.424H97.047z"/>
		<path style="fill:#0066FF;" d="M102.991,19.935l-0.476,1.038h-2.49l-0.544,1.11c1.079,0.159,1.934,0.56,2.564,1.202
			c0.541,0.554,0.812,1.205,0.812,1.953c0,0.436-0.089,0.839-0.266,1.209s-0.399,0.686-0.669,0.945
			c-0.268,0.261-0.567,0.471-0.896,0.629c-0.468,0.224-0.948,0.336-1.44,0.336c-0.497,0-0.857-0.085-1.084-0.253
			c-0.226-0.169-0.339-0.355-0.339-0.559c0-0.114,0.047-0.215,0.141-0.303c0.094-0.087,0.212-0.131,0.354-0.131
			c0.105,0,0.198,0.017,0.277,0.049s0.215,0.116,0.406,0.25c0.305,0.212,0.614,0.317,0.928,0.317c0.476,0,0.894-0.18,1.254-0.54
			s0.54-0.799,0.54-1.315c0-0.5-0.16-0.967-0.482-1.4c-0.321-0.434-0.765-0.769-1.33-1.004c-0.443-0.184-1.048-0.289-1.812-0.317
			l1.587-3.217H102.991z"/>
	</g>
	<g>
		<path style="fill:#0066FF;" d="M45.567,13.939h6.409v0.593h-6.409V13.939z M45.567,16.217h6.409v0.604h-6.409V16.217z"/>
		<path style="fill:#0066FF;" d="M66.824,15.374c0,0.188-0.066,0.348-0.199,0.479c-0.132,0.132-0.289,0.198-0.473,0.198
			c-0.188,0-0.347-0.066-0.479-0.198c-0.132-0.132-0.198-0.292-0.198-0.479c0-0.187,0.066-0.347,0.198-0.479
			c0.133-0.133,0.292-0.199,0.479-0.199c0.184,0,0.341,0.066,0.473,0.199C66.758,15.027,66.824,15.188,66.824,15.374z"/>
		<path style="fill:#0066FF;" d="M80.165,13.939h6.409v0.593h-6.409V13.939z M80.165,16.217h6.409v0.604h-6.409V16.217z"/>
	</g>
</g>
<g id="theGroup">
</g>
</svg>
