<?xml version="1.0" encoding="iso-8859-1"?>
<!-- Generator: Adobe Illustrator 16.0.0, SVG Export Plug-In . SVG Version: 6.00 Build 0)  -->
<!DOCTYPE svg PUBLIC "-//W3C//DTD SVG 1.1//EN" "http://www.w3.org/Graphics/SVG/1.1/DTD/svg11.dtd">
<svg version="1.1" id="Lager_1" xmlns="http://www.w3.org/2000/svg" xmlns:xlink="http://www.w3.org/1999/xlink" x="0px" y="0px"
	 width="52.763px" height="15.808px" viewBox="0 0 52.763 15.808" style="enable-background:new 0 0 52.763 15.808;"
	 xml:space="preserve">
<g>
	<g>
		<path d="M41.027,1.575l-0.275,0.6h-1.439l-0.313,0.643c0.623,0.091,1.117,0.323,1.481,0.695c0.312,0.32,0.47,0.696,0.47,1.129
			c0,0.251-0.052,0.484-0.153,0.699c-0.103,0.214-0.231,0.396-0.387,0.547c-0.155,0.15-0.328,0.271-0.519,0.363
			c-0.271,0.129-0.549,0.194-0.833,0.194c-0.287,0-0.496-0.049-0.626-0.146c-0.131-0.098-0.196-0.206-0.196-0.323
			c0-0.066,0.027-0.124,0.081-0.174c0.055-0.051,0.122-0.076,0.205-0.076c0.061,0,0.114,0.01,0.16,0.028
			c0.046,0.019,0.124,0.067,0.234,0.145c0.177,0.123,0.355,0.184,0.537,0.184c0.275,0,0.517-0.104,0.725-0.312
			c0.208-0.208,0.312-0.462,0.312-0.761c0-0.289-0.093-0.559-0.278-0.81c-0.187-0.25-0.442-0.444-0.77-0.581
			c-0.257-0.106-0.605-0.167-1.048-0.184l0.917-1.859H41.027z"/>
	</g>
	<g>
		<path d="M5.816,8.923v0.866h-1.11v2.186H3.699V9.789H0.195V9.008l3.839-5.48h0.672v5.396H5.816z M3.699,8.923V4.815L0.793,8.923
			H3.699z"/>
		<path d="M6.734,14.056v-0.269c0.419-0.138,0.744-0.353,0.974-0.644c0.229-0.291,0.345-0.6,0.345-0.925
			c0-0.077-0.018-0.143-0.055-0.195c-0.028-0.037-0.057-0.055-0.085-0.055c-0.045,0-0.143,0.04-0.293,0.122
			c-0.073,0.036-0.151,0.055-0.232,0.055c-0.199,0-0.358-0.059-0.476-0.177c-0.118-0.118-0.177-0.281-0.177-0.488
			c0-0.199,0.076-0.37,0.229-0.513c0.152-0.143,0.339-0.214,0.559-0.214c0.269,0,0.507,0.117,0.717,0.351
			c0.209,0.234,0.314,0.545,0.314,0.931c0,0.42-0.146,0.81-0.437,1.169C7.825,13.564,7.365,13.849,6.734,14.056z"/>
		<path d="M15.776,3.698L15.3,4.736h-2.49l-0.543,1.111c1.078,0.159,1.933,0.56,2.563,1.202c0.541,0.554,0.812,1.205,0.812,1.953
			c0,0.436-0.089,0.839-0.266,1.209c-0.177,0.37-0.4,0.686-0.668,0.945c-0.269,0.261-0.568,0.471-0.897,0.629
			c-0.468,0.224-0.948,0.336-1.44,0.336c-0.497,0-0.858-0.085-1.083-0.253c-0.226-0.169-0.339-0.355-0.339-0.559
			c0-0.114,0.047-0.215,0.14-0.303c0.094-0.087,0.212-0.131,0.354-0.131c0.105,0,0.198,0.017,0.277,0.049
			c0.08,0.032,0.215,0.116,0.406,0.25c0.305,0.212,0.614,0.317,0.928,0.317c0.476,0,0.894-0.18,1.254-0.54
			c0.36-0.36,0.54-0.799,0.54-1.315c0-0.5-0.161-0.968-0.482-1.4c-0.321-0.434-0.765-0.768-1.331-1.004
			c-0.443-0.184-1.048-0.289-1.812-0.317l1.587-3.217H15.776z"/>
		<path d="M22.515,4.51l2.014-0.982h0.202v6.988c0,0.464,0.019,0.753,0.058,0.867c0.039,0.113,0.119,0.201,0.241,0.262
			c0.122,0.062,0.37,0.096,0.745,0.104v0.226h-3.113v-0.226c0.391-0.009,0.643-0.042,0.757-0.101
			c0.114-0.06,0.193-0.139,0.238-0.238c0.044-0.1,0.067-0.397,0.067-0.895V6.048c0-0.602-0.021-0.988-0.061-1.159
			c-0.028-0.13-0.081-0.226-0.156-0.287S23.341,4.51,23.235,4.51c-0.15,0-0.36,0.063-0.628,0.189L22.515,4.51z"/>
		<path d="M27.751,7.885c0-0.944,0.143-1.757,0.428-2.438c0.285-0.681,0.663-1.189,1.135-1.523c0.367-0.264,0.745-0.396,1.136-0.396
			c0.635,0,1.204,0.323,1.709,0.971c0.631,0.801,0.946,1.888,0.946,3.259c0,0.961-0.139,1.776-0.415,2.448
			c-0.277,0.671-0.63,1.158-1.06,1.461c-0.429,0.304-0.843,0.455-1.242,0.455c-0.789,0-1.446-0.466-1.971-1.397
			C27.974,9.938,27.751,8.992,27.751,7.885z M28.948,8.038c0,1.139,0.14,2.069,0.421,2.789c0.231,0.606,0.577,0.909,1.037,0.909
			c0.22,0,0.448-0.099,0.684-0.296c0.236-0.197,0.415-0.528,0.537-0.991c0.188-0.7,0.281-1.687,0.281-2.961
			c0-0.944-0.098-1.731-0.293-2.362c-0.146-0.468-0.336-0.799-0.567-0.995c-0.167-0.135-0.369-0.202-0.604-0.202
			c-0.277,0-0.523,0.124-0.739,0.373c-0.293,0.337-0.492,0.869-0.598,1.593S28.948,7.334,28.948,8.038z"/>
		<path d="M48.398,9.936c-0.342-0.166-0.604-0.399-0.787-0.698s-0.274-0.63-0.274-0.992c0-0.553,0.208-1.029,0.625-1.428
			c0.417-0.399,0.951-0.599,1.603-0.599c0.533,0,0.995,0.13,1.386,0.391h1.184c0.175,0,0.277,0.005,0.306,0.016
			s0.049,0.027,0.061,0.052c0.024,0.037,0.037,0.102,0.037,0.195c0,0.106-0.011,0.179-0.03,0.22
			c-0.013,0.021-0.034,0.037-0.064,0.049s-0.134,0.019-0.309,0.019h-0.727c0.229,0.293,0.342,0.667,0.342,1.123
			c0,0.521-0.199,0.966-0.598,1.337c-0.398,0.37-0.934,0.555-1.605,0.555c-0.276,0-0.56-0.04-0.848-0.122
			c-0.18,0.155-0.301,0.29-0.363,0.406c-0.063,0.116-0.095,0.215-0.095,0.296c0,0.069,0.033,0.137,0.101,0.201
			c0.067,0.065,0.198,0.112,0.394,0.141c0.114,0.017,0.398,0.03,0.854,0.043c0.838,0.021,1.382,0.049,1.63,0.085
			c0.378,0.053,0.681,0.193,0.906,0.421c0.226,0.229,0.339,0.509,0.339,0.843c0,0.46-0.216,0.892-0.647,1.294
			c-0.635,0.594-1.463,0.891-2.483,0.891c-0.786,0-1.449-0.177-1.99-0.53c-0.305-0.204-0.458-0.415-0.458-0.635
			c0-0.098,0.022-0.195,0.067-0.293c0.069-0.15,0.212-0.36,0.428-0.629c0.028-0.036,0.235-0.257,0.622-0.659
			c-0.212-0.126-0.361-0.239-0.448-0.339c-0.088-0.1-0.132-0.213-0.132-0.339c0-0.143,0.059-0.309,0.174-0.5
			C47.712,10.557,47.979,10.286,48.398,9.936z M48.338,11.975c-0.191,0.207-0.336,0.4-0.434,0.58
			c-0.098,0.179-0.146,0.344-0.146,0.494c0,0.195,0.118,0.366,0.354,0.513c0.406,0.252,0.994,0.378,1.764,0.378
			c0.732,0,1.272-0.129,1.62-0.387c0.348-0.259,0.522-0.534,0.522-0.827c0-0.212-0.104-0.362-0.312-0.452
			c-0.212-0.089-0.631-0.143-1.258-0.158C49.534,12.091,48.83,12.044,48.338,11.975z M49.461,6.512c-0.302,0-0.554,0.12-0.757,0.36
			c-0.204,0.24-0.306,0.608-0.306,1.104c0,0.644,0.139,1.142,0.415,1.496c0.212,0.268,0.48,0.402,0.806,0.402
			c0.31,0,0.563-0.116,0.763-0.348c0.2-0.232,0.3-0.597,0.3-1.093c0-0.647-0.141-1.153-0.421-1.52
			C50.053,6.646,49.786,6.512,49.461,6.512z"/>
	</g>
	<g>
		<path d="M34.076,4.327h3.705v0.349h-3.705V4.327z"/>
	</g>
	<g>
		<path d="M19.88,8.776c0,0.188-0.066,0.347-0.198,0.479c-0.132,0.132-0.29,0.198-0.473,0.198c-0.187,0-0.347-0.066-0.479-0.198
			c-0.132-0.133-0.199-0.292-0.199-0.479s0.066-0.347,0.199-0.479c0.132-0.132,0.292-0.199,0.479-0.199
			c0.183,0,0.341,0.066,0.473,0.199C19.814,8.43,19.88,8.589,19.88,8.776z"/>
	</g>
</g>
<g id="theGroup">
</g>
</svg>
