<?xml version="1.0" encoding="iso-8859-1"?>
<!-- Generator: Adobe Illustrator 16.0.0, SVG Export Plug-In . SVG Version: 6.00 Build 0)  -->
<!DOCTYPE svg PUBLIC "-//W3C//DTD SVG 1.1//EN" "http://www.w3.org/Graphics/SVG/1.1/DTD/svg11.dtd">
<svg version="1.1" id="Lager_1" xmlns="http://www.w3.org/2000/svg" xmlns:xlink="http://www.w3.org/1999/xlink" x="0px" y="0px"
	 width="54.082px" height="15.464px" viewBox="0 0 54.082 15.464" style="enable-background:new 0 0 54.082 15.464;"
	 xml:space="preserve">
<g>
	<g>
		<path style="fill:#0066FF;" d="M50.836,2.131c0.136-0.322,0.309-0.571,0.517-0.746s0.468-0.263,0.778-0.263
			c0.383,0,0.678,0.125,0.882,0.374c0.155,0.186,0.233,0.385,0.233,0.597c0,0.348-0.219,0.708-0.656,1.08
			c0.294,0.115,0.516,0.28,0.666,0.494c0.151,0.214,0.227,0.466,0.227,0.755c0,0.414-0.132,0.773-0.396,1.076
			c-0.344,0.396-0.841,0.593-1.492,0.593c-0.322,0-0.542-0.04-0.658-0.12c-0.116-0.08-0.175-0.166-0.175-0.258
			c0-0.068,0.027-0.128,0.083-0.18c0.055-0.052,0.121-0.078,0.199-0.078c0.059,0,0.119,0.009,0.18,0.028
			c0.04,0.012,0.131,0.055,0.271,0.129c0.142,0.074,0.239,0.118,0.293,0.132c0.087,0.026,0.181,0.039,0.279,0.039
			c0.24,0,0.448-0.093,0.626-0.279c0.178-0.186,0.267-0.406,0.267-0.66c0-0.186-0.041-0.367-0.123-0.543
			c-0.062-0.132-0.129-0.232-0.201-0.3c-0.102-0.094-0.24-0.179-0.417-0.256c-0.176-0.076-0.356-0.114-0.54-0.114h-0.112V3.525
			c0.186-0.023,0.372-0.091,0.559-0.201c0.188-0.111,0.323-0.244,0.408-0.399C52.617,2.77,52.66,2.6,52.66,2.414
			c0-0.242-0.076-0.438-0.228-0.587c-0.152-0.149-0.341-0.224-0.566-0.224c-0.365,0-0.669,0.195-0.914,0.586L50.836,2.131z"/>
	</g>
	<g>
		<path style="fill:#0066FF;" d="M5.816,8.579v0.866h-1.11v2.186H3.699V9.445H0.195V8.664l3.839-5.48h0.672v5.396H5.816z
			 M3.699,8.579V4.472L0.793,8.579H3.699z"/>
		<path style="fill:#0066FF;" d="M18.079,8.579v0.866h-1.11v2.186h-1.007V9.445h-3.503V8.664l3.839-5.48h0.672v5.396H18.079z
			 M15.961,8.579V4.472l-2.905,4.107H15.961z"/>
		<path style="fill:#0066FF;" d="M30.341,8.579v0.866h-1.109v2.186h-1.008V9.445H24.72V8.664l3.839-5.48h0.672v5.396H30.341z
			 M28.224,8.579V4.472l-2.905,4.107H28.224z"/>
		<path style="fill:#0066FF;" d="M49.941,8.579v0.866h-1.11v2.186h-1.007V9.445H44.32V8.664l3.839-5.48h0.672v5.396H49.941z
			 M47.824,8.579V4.472l-2.906,4.107H47.824z"/>
	</g>
	<g>
		<path style="fill:#0066FF;" d="M9.734,8.433c0,0.188-0.066,0.347-0.198,0.479C9.403,9.044,9.246,9.11,9.062,9.11
			c-0.187,0-0.347-0.066-0.479-0.198C8.451,8.779,8.385,8.62,8.385,8.433s0.066-0.347,0.199-0.479
			c0.132-0.132,0.292-0.198,0.479-0.198c0.183,0,0.341,0.066,0.473,0.198C9.667,8.086,9.734,8.245,9.734,8.433z"/>
		<path style="fill:#0066FF;" d="M21.997,8.433c0,0.188-0.066,0.347-0.198,0.479c-0.132,0.132-0.29,0.198-0.473,0.198
			c-0.187,0-0.347-0.066-0.479-0.198c-0.132-0.133-0.199-0.292-0.199-0.479s0.066-0.347,0.199-0.479
			c0.132-0.132,0.292-0.198,0.479-0.198c0.183,0,0.341,0.066,0.473,0.198C21.93,8.086,21.997,8.245,21.997,8.433z"/>
		<path style="fill:#0066FF;" d="M33.963,6.998h6.409v0.593h-6.409V6.998z M33.963,9.275h6.409v0.604h-6.409V9.275z"/>
	</g>
</g>
<g id="theGroup">
</g>
</svg>
