<?xml version="1.0" encoding="iso-8859-1"?>
<!-- Generator: Adobe Illustrator 16.0.0, SVG Export Plug-In . SVG Version: 6.00 Build 0)  -->
<!DOCTYPE svg PUBLIC "-//W3C//DTD SVG 1.1//EN" "http://www.w3.org/Graphics/SVG/1.1/DTD/svg11.dtd">
<svg version="1.1" id="Lager_1" xmlns="http://www.w3.org/2000/svg" xmlns:xlink="http://www.w3.org/1999/xlink" x="0px" y="0px"
	 width="105.888px" height="15.808px" viewBox="0 0 105.888 15.808" style="enable-background:new 0 0 105.888 15.808;"
	 xml:space="preserve">
<g>
	<g>
		<path d="M44.898,2.485c0.136-0.322,0.309-0.571,0.517-0.746c0.208-0.175,0.468-0.263,0.778-0.263c0.383,0,0.677,0.125,0.882,0.374
			c0.155,0.186,0.233,0.385,0.233,0.597c0,0.348-0.219,0.708-0.656,1.08c0.294,0.115,0.517,0.28,0.667,0.494
			c0.15,0.214,0.226,0.466,0.226,0.755c0,0.414-0.131,0.773-0.395,1.076c-0.343,0.396-0.841,0.593-1.493,0.593
			c-0.322,0-0.542-0.04-0.658-0.12c-0.117-0.08-0.175-0.166-0.175-0.258c0-0.068,0.027-0.128,0.083-0.18
			c0.055-0.052,0.122-0.078,0.199-0.078c0.059,0,0.119,0.009,0.18,0.028c0.04,0.012,0.131,0.055,0.272,0.129
			s0.239,0.118,0.293,0.132c0.087,0.026,0.18,0.039,0.279,0.039c0.24,0,0.449-0.093,0.626-0.279c0.178-0.186,0.267-0.406,0.267-0.66
			c0-0.186-0.041-0.367-0.124-0.543c-0.061-0.132-0.128-0.232-0.201-0.3c-0.101-0.094-0.24-0.179-0.417-0.256
			c-0.176-0.076-0.356-0.114-0.54-0.114h-0.113V3.879c0.186-0.023,0.373-0.091,0.56-0.201c0.187-0.111,0.323-0.244,0.408-0.399
			c0.084-0.155,0.127-0.326,0.127-0.512c0-0.242-0.076-0.438-0.228-0.587c-0.152-0.149-0.341-0.224-0.566-0.224
			c-0.365,0-0.669,0.195-0.914,0.586L44.898,2.485z"/>
	</g>
	<g>
		<path d="M0.659,12.146V11.92c0.529-0.009,1.021-0.132,1.477-0.369c0.456-0.238,0.896-0.654,1.321-1.248
			c0.425-0.595,0.721-1.248,0.888-1.96C3.707,8.754,3.129,8.96,2.612,8.96c-0.582,0-1.08-0.225-1.495-0.675
			c-0.415-0.45-0.623-1.047-0.623-1.792c0-0.724,0.208-1.369,0.623-1.935c0.5-0.688,1.153-1.031,1.959-1.031
			c0.68,0,1.261,0.281,1.746,0.842c0.594,0.696,0.891,1.554,0.891,2.576c0,0.919-0.226,1.777-0.678,2.572
			c-0.451,0.796-1.08,1.456-1.886,1.98c-0.655,0.432-1.369,0.647-2.143,0.647H0.659z M4.443,7.892c0.073-0.529,0.11-0.952,0.11-1.27
			c0-0.395-0.067-0.821-0.202-1.279C4.218,4.885,4.027,4.534,3.781,4.29C3.535,4.046,3.255,3.924,2.942,3.924
			c-0.362,0-0.68,0.163-0.952,0.488c-0.272,0.326-0.409,0.81-0.409,1.453c0,0.858,0.181,1.53,0.543,2.014
			c0.265,0.35,0.59,0.525,0.977,0.525c0.187,0,0.409-0.045,0.665-0.135C4.022,8.18,4.248,8.054,4.443,7.892z"/>
		<path d="M6.734,14.056v-0.269c0.419-0.138,0.744-0.353,0.974-0.644c0.229-0.291,0.345-0.6,0.345-0.925
			c0-0.077-0.018-0.143-0.055-0.195c-0.028-0.037-0.057-0.055-0.085-0.055c-0.045,0-0.143,0.04-0.293,0.122
			c-0.073,0.036-0.151,0.055-0.232,0.055c-0.199,0-0.358-0.059-0.476-0.177c-0.118-0.118-0.177-0.281-0.177-0.488
			c0-0.199,0.076-0.37,0.229-0.513c0.152-0.143,0.339-0.214,0.559-0.214c0.269,0,0.507,0.117,0.717,0.351
			c0.209,0.234,0.314,0.545,0.314,0.931c0,0.42-0.146,0.81-0.437,1.169C7.825,13.564,7.365,13.849,6.734,14.056z"/>
		<path d="M11.001,7.885c0-0.944,0.143-1.757,0.427-2.438c0.285-0.681,0.663-1.189,1.135-1.523c0.366-0.264,0.745-0.396,1.135-0.396
			c0.635,0,1.205,0.323,1.709,0.971c0.631,0.801,0.946,1.888,0.946,3.259c0,0.961-0.139,1.776-0.415,2.448
			c-0.277,0.671-0.63,1.158-1.059,1.461c-0.43,0.304-0.843,0.455-1.242,0.455c-0.79,0-1.447-0.466-1.971-1.397
			C11.223,9.938,11.001,8.992,11.001,7.885z M12.198,8.038c0,1.139,0.14,2.069,0.421,2.789c0.231,0.606,0.578,0.909,1.037,0.909
			c0.22,0,0.448-0.099,0.684-0.296c0.236-0.197,0.415-0.528,0.537-0.991c0.188-0.7,0.281-1.687,0.281-2.961
			c0-0.944-0.098-1.731-0.293-2.362c-0.146-0.468-0.336-0.799-0.568-0.995C14.13,3.997,13.929,3.93,13.693,3.93
			c-0.277,0-0.523,0.124-0.739,0.373c-0.293,0.337-0.492,0.869-0.598,1.593S12.198,7.334,12.198,8.038z"/>
		<path d="M22.531,10.382l-0.58,1.593h-4.883v-0.226c1.437-1.311,2.447-2.381,3.033-3.211s0.879-1.589,0.879-2.276
			c0-0.525-0.161-0.956-0.482-1.294s-0.706-0.507-1.154-0.507c-0.407,0-0.772,0.119-1.095,0.357
			c-0.324,0.238-0.562,0.587-0.717,1.047h-0.226c0.102-0.753,0.363-1.331,0.784-1.733c0.421-0.403,0.947-0.604,1.578-0.604
			c0.671,0,1.232,0.216,1.682,0.647c0.449,0.431,0.674,0.94,0.674,1.526c0,0.419-0.098,0.838-0.293,1.257
			c-0.301,0.659-0.79,1.357-1.465,2.093c-1.013,1.107-1.646,1.774-1.898,2.002h2.161c0.439,0,0.748-0.016,0.924-0.049
			c0.177-0.032,0.337-0.099,0.479-0.198c0.143-0.1,0.267-0.241,0.373-0.424H22.531z"/>
		<path d="M29.152,4.51l2.014-0.982h0.202v6.988c0,0.464,0.019,0.753,0.058,0.867c0.039,0.113,0.119,0.201,0.241,0.262
			c0.122,0.062,0.37,0.096,0.745,0.104v0.226h-3.113v-0.226c0.391-0.009,0.643-0.042,0.757-0.101
			c0.114-0.06,0.193-0.139,0.238-0.238c0.044-0.1,0.067-0.397,0.067-0.895V6.048c0-0.602-0.021-0.988-0.061-1.159
			c-0.028-0.13-0.081-0.226-0.156-0.287S29.979,4.51,29.873,4.51c-0.15,0-0.36,0.063-0.628,0.189L29.152,4.51z"/>
		<path d="M34.389,7.885c0-0.944,0.143-1.757,0.427-2.438c0.285-0.681,0.663-1.189,1.135-1.523c0.366-0.264,0.745-0.396,1.135-0.396
			c0.635,0,1.205,0.323,1.709,0.971c0.631,0.801,0.946,1.888,0.946,3.259c0,0.961-0.139,1.776-0.415,2.448
			c-0.277,0.671-0.63,1.158-1.059,1.461c-0.43,0.304-0.843,0.455-1.242,0.455c-0.79,0-1.447-0.466-1.971-1.397
			C34.611,9.938,34.389,8.992,34.389,7.885z M35.585,8.038c0,1.139,0.14,2.069,0.421,2.789c0.231,0.606,0.578,0.909,1.037,0.909
			c0.22,0,0.448-0.099,0.684-0.296c0.236-0.197,0.415-0.528,0.537-0.991c0.188-0.7,0.281-1.687,0.281-2.961
			c0-0.944-0.098-1.731-0.293-2.362c-0.146-0.468-0.336-0.799-0.568-0.995c-0.167-0.135-0.368-0.202-0.604-0.202
			c-0.277,0-0.523,0.124-0.739,0.373c-0.293,0.337-0.492,0.869-0.598,1.593S35.585,7.334,35.585,8.038z"/>
		<path d="M63.176,7.885c0-0.944,0.143-1.757,0.428-2.438c0.285-0.681,0.663-1.189,1.135-1.523c0.367-0.264,0.745-0.396,1.136-0.396
			c0.635,0,1.204,0.323,1.709,0.971c0.631,0.801,0.946,1.888,0.946,3.259c0,0.961-0.139,1.776-0.415,2.448
			c-0.277,0.671-0.63,1.158-1.06,1.461c-0.429,0.304-0.843,0.455-1.242,0.455c-0.789,0-1.446-0.466-1.971-1.397
			C63.398,9.938,63.176,8.992,63.176,7.885z M64.373,8.038c0,1.139,0.14,2.069,0.421,2.789c0.231,0.606,0.577,0.909,1.037,0.909
			c0.22,0,0.448-0.099,0.684-0.296c0.236-0.197,0.415-0.528,0.537-0.991c0.188-0.7,0.281-1.687,0.281-2.961
			c0-0.944-0.098-1.731-0.293-2.362c-0.146-0.468-0.336-0.799-0.567-0.995c-0.167-0.135-0.369-0.202-0.604-0.202
			c-0.277,0-0.523,0.124-0.739,0.373c-0.293,0.337-0.492,0.869-0.598,1.593S64.373,7.334,64.373,8.038z"/>
		<path d="M69.459,14.056v-0.269c0.419-0.138,0.743-0.353,0.973-0.644c0.23-0.291,0.346-0.6,0.346-0.925
			c0-0.077-0.019-0.143-0.056-0.195c-0.028-0.037-0.057-0.055-0.085-0.055c-0.045,0-0.143,0.04-0.293,0.122
			c-0.073,0.036-0.15,0.055-0.232,0.055c-0.199,0-0.357-0.059-0.476-0.177s-0.177-0.281-0.177-0.488c0-0.199,0.076-0.37,0.229-0.513
			s0.339-0.214,0.559-0.214c0.269,0,0.507,0.117,0.717,0.351c0.21,0.234,0.314,0.545,0.314,0.931c0,0.42-0.146,0.81-0.437,1.169
			C70.55,13.564,70.089,13.849,69.459,14.056z"/>
		<path d="M73.727,7.885c0-0.944,0.143-1.757,0.428-2.438c0.285-0.681,0.663-1.189,1.135-1.523c0.367-0.264,0.745-0.396,1.136-0.396
			c0.635,0,1.204,0.323,1.709,0.971c0.631,0.801,0.946,1.888,0.946,3.259c0,0.961-0.139,1.776-0.415,2.448
			c-0.277,0.671-0.63,1.158-1.06,1.461c-0.429,0.304-0.843,0.455-1.242,0.455c-0.789,0-1.446-0.466-1.971-1.397
			C73.949,9.938,73.727,8.992,73.727,7.885z M74.924,8.038c0,1.139,0.14,2.069,0.421,2.789c0.231,0.606,0.577,0.909,1.037,0.909
			c0.22,0,0.448-0.099,0.684-0.296c0.236-0.197,0.415-0.528,0.537-0.991c0.188-0.7,0.281-1.687,0.281-2.961
			c0-0.944-0.098-1.731-0.293-2.362c-0.146-0.468-0.336-0.799-0.567-0.995c-0.167-0.135-0.369-0.202-0.604-0.202
			c-0.277,0-0.523,0.124-0.739,0.373c-0.293,0.337-0.492,0.869-0.598,1.593S74.924,7.334,74.924,8.038z"/>
		<path d="M79.977,7.885c0-0.944,0.143-1.757,0.428-2.438c0.285-0.681,0.663-1.189,1.135-1.523c0.367-0.264,0.745-0.396,1.136-0.396
			c0.635,0,1.204,0.323,1.709,0.971c0.631,0.801,0.946,1.888,0.946,3.259c0,0.961-0.139,1.776-0.415,2.448
			c-0.277,0.671-0.63,1.158-1.06,1.461c-0.429,0.304-0.843,0.455-1.242,0.455c-0.789,0-1.446-0.466-1.971-1.397
			C80.199,9.938,79.977,8.992,79.977,7.885z M81.174,8.038c0,1.139,0.14,2.069,0.421,2.789c0.231,0.606,0.577,0.909,1.037,0.909
			c0.22,0,0.448-0.099,0.684-0.296c0.236-0.197,0.415-0.528,0.537-0.991c0.188-0.7,0.281-1.687,0.281-2.961
			c0-0.944-0.098-1.731-0.293-2.362c-0.146-0.468-0.336-0.799-0.567-0.995c-0.167-0.135-0.369-0.202-0.604-0.202
			c-0.277,0-0.523,0.124-0.739,0.373c-0.293,0.337-0.492,0.869-0.598,1.593S81.174,7.334,81.174,8.038z"/>
		<path d="M86.435,12.146V11.92c0.529-0.009,1.021-0.132,1.478-0.369c0.455-0.238,0.896-0.654,1.321-1.248
			c0.425-0.595,0.721-1.248,0.888-1.96c-0.639,0.411-1.217,0.617-1.733,0.617c-0.582,0-1.08-0.225-1.495-0.675
			c-0.415-0.45-0.623-1.047-0.623-1.792c0-0.724,0.208-1.369,0.623-1.935c0.5-0.688,1.153-1.031,1.959-1.031
			c0.68,0,1.262,0.281,1.746,0.842c0.594,0.696,0.891,1.554,0.891,2.576c0,0.919-0.226,1.777-0.678,2.572
			c-0.451,0.796-1.08,1.456-1.886,1.98c-0.655,0.432-1.369,0.647-2.143,0.647H86.435z M90.219,7.892
			c0.073-0.529,0.109-0.952,0.109-1.27c0-0.395-0.066-0.821-0.201-1.279c-0.134-0.458-0.324-0.809-0.57-1.053
			s-0.526-0.366-0.84-0.366c-0.361,0-0.679,0.163-0.951,0.488c-0.273,0.326-0.409,0.81-0.409,1.453c0,0.858,0.181,1.53,0.543,2.014
			c0.265,0.35,0.59,0.525,0.977,0.525c0.188,0,0.409-0.045,0.665-0.135C89.798,8.18,90.023,8.054,90.219,7.892z"/>
		<path d="M93.839,7.885c0-0.944,0.143-1.757,0.428-2.438c0.285-0.681,0.663-1.189,1.135-1.523c0.367-0.264,0.745-0.396,1.136-0.396
			c0.635,0,1.204,0.323,1.709,0.971c0.631,0.801,0.946,1.888,0.946,3.259c0,0.961-0.139,1.776-0.415,2.448
			c-0.277,0.671-0.63,1.158-1.06,1.461c-0.429,0.304-0.843,0.455-1.242,0.455c-0.789,0-1.446-0.466-1.971-1.397
			C94.062,9.938,93.839,8.992,93.839,7.885z M95.036,8.038c0,1.139,0.14,2.069,0.421,2.789c0.231,0.606,0.577,0.909,1.037,0.909
			c0.22,0,0.448-0.099,0.684-0.296c0.236-0.197,0.415-0.528,0.537-0.991c0.188-0.7,0.281-1.687,0.281-2.961
			c0-0.944-0.098-1.731-0.293-2.362c-0.146-0.468-0.336-0.799-0.567-0.995c-0.167-0.135-0.369-0.202-0.604-0.202
			c-0.277,0-0.523,0.124-0.739,0.373C95.499,4.64,95.3,5.171,95.194,5.896S95.036,7.334,95.036,8.038z"/>
		<path d="M105.369,10.382l-0.58,1.593h-4.883v-0.226c1.437-1.311,2.447-2.381,3.033-3.211s0.879-1.589,0.879-2.276
			c0-0.525-0.16-0.956-0.481-1.294c-0.322-0.338-0.706-0.507-1.154-0.507c-0.406,0-0.771,0.119-1.096,0.357
			c-0.323,0.238-0.562,0.587-0.717,1.047h-0.226c0.102-0.753,0.363-1.331,0.784-1.733c0.421-0.403,0.947-0.604,1.578-0.604
			c0.671,0,1.231,0.216,1.681,0.647c0.45,0.431,0.675,0.94,0.675,1.526c0,0.419-0.098,0.838-0.293,1.257
			c-0.301,0.659-0.789,1.357-1.465,2.093c-1.014,1.107-1.646,1.774-1.898,2.002h2.161c0.439,0,0.747-0.016,0.925-0.049
			c0.177-0.032,0.336-0.099,0.479-0.198s0.267-0.241,0.373-0.424H105.369z"/>
	</g>
	<g>
		<path d="M40.716,4.327h3.705v0.349h-3.705V4.327z"/>
	</g>
	<g>
		<path d="M26.531,8.776c0,0.188-0.066,0.347-0.198,0.479c-0.132,0.132-0.29,0.198-0.473,0.198c-0.187,0-0.347-0.066-0.479-0.198
			c-0.132-0.133-0.199-0.292-0.199-0.479s0.066-0.347,0.199-0.479c0.132-0.132,0.292-0.199,0.479-0.199
			c0.183,0,0.341,0.066,0.473,0.199C26.464,8.43,26.531,8.589,26.531,8.776z"/>
		<path d="M52.76,7.342h6.409v0.592H52.76V7.342z M52.76,9.619h6.409v0.604H52.76V9.619z"/>
	</g>
</g>
<g id="theGroup">
</g>
</svg>
