<?xml version="1.0" encoding="iso-8859-1"?>
<!-- Generator: Adobe Illustrator 16.0.0, SVG Export Plug-In . SVG Version: 6.00 Build 0)  -->
<!DOCTYPE svg PUBLIC "-//W3C//DTD SVG 1.1//EN" "http://www.w3.org/Graphics/SVG/1.1/DTD/svg11.dtd">
<svg version="1.1" id="Lager_1" xmlns="http://www.w3.org/2000/svg" xmlns:xlink="http://www.w3.org/1999/xlink" x="0px" y="0px"
	 width="152.086px" height="32.655px" viewBox="0 0 152.086 32.655" style="enable-background:new 0 0 152.086 32.655;"
	 xml:space="preserve">
<g>
	
		<line style="fill:none;stroke:#0066FF;stroke-width:0.5;stroke-linecap:square;stroke-miterlimit:10;" x1="0.25" y1="15.854" x2="49.156" y2="15.854"/>
	
		<line style="fill:none;stroke:#0066FF;stroke-width:0.5;stroke-linecap:square;stroke-miterlimit:10;" x1="63.297" y1="15.854" x2="99.195" y2="15.854"/>
	
		<line style="fill:none;stroke:#0066FF;stroke-width:0.5;stroke-linecap:square;stroke-miterlimit:10;" x1="113.336" y1="15.854" x2="127.008" y2="15.854"/>
	<g>
		<path style="fill:#0066FF;" d="M6.057,2.724L5.581,3.761h-2.49L2.547,4.872c1.078,0.159,1.933,0.56,2.563,1.202
			c0.541,0.554,0.812,1.205,0.812,1.953c0,0.436-0.089,0.838-0.266,1.209c-0.177,0.37-0.4,0.686-0.668,0.946
			s-0.568,0.47-0.897,0.628c-0.468,0.224-0.948,0.336-1.44,0.336c-0.497,0-0.858-0.084-1.083-0.253
			c-0.226-0.168-0.339-0.355-0.339-0.558c0-0.114,0.047-0.215,0.14-0.302c0.094-0.087,0.212-0.131,0.354-0.131
			c0.105,0,0.198,0.016,0.277,0.049c0.08,0.033,0.215,0.116,0.406,0.25c0.305,0.212,0.614,0.317,0.928,0.317
			c0.476,0,0.894-0.18,1.254-0.54c0.36-0.36,0.54-0.798,0.54-1.315c0-0.5-0.161-0.967-0.482-1.4
			C4.326,6.828,3.882,6.494,3.316,6.258C2.873,6.074,2.269,5.969,1.504,5.94l1.587-3.217H6.057z"/>
		<path style="fill:#0066FF;" d="M18.109,2.553v0.226c-0.537,0.053-0.976,0.16-1.315,0.321s-0.675,0.406-1.007,0.735
			c-0.332,0.33-0.606,0.697-0.824,1.102c-0.218,0.405-0.4,0.886-0.546,1.444c0.586-0.403,1.174-0.604,1.764-0.604
			c0.565,0,1.056,0.228,1.471,0.684s0.622,1.042,0.622,1.758c0,0.692-0.209,1.322-0.628,1.892c-0.504,0.692-1.172,1.038-2.002,1.038
			c-0.565,0-1.046-0.187-1.44-0.562c-0.773-0.729-1.16-1.672-1.16-2.832c0-0.741,0.148-1.444,0.445-2.112
			c0.297-0.667,0.721-1.259,1.273-1.776C15.312,3.348,15.84,3,16.345,2.821c0.505-0.179,0.975-0.269,1.41-0.269H18.109z
			 M14.312,6.825c-0.073,0.549-0.11,0.993-0.11,1.331c0,0.391,0.072,0.815,0.217,1.272c0.144,0.458,0.359,0.821,0.644,1.089
			c0.207,0.191,0.459,0.287,0.757,0.287c0.354,0,0.67-0.167,0.949-0.5s0.418-0.81,0.418-1.428c0-0.696-0.139-1.298-0.415-1.807
			c-0.277-0.509-0.669-0.763-1.178-0.763c-0.155,0-0.32,0.032-0.498,0.098C14.92,6.469,14.658,6.609,14.312,6.825z"/>
		<path style="fill:#0066FF;" d="M35.962,9.407L35.382,11H30.5v-0.226c1.437-1.311,2.447-2.381,3.033-3.211s0.879-1.589,0.879-2.276
			c0-0.525-0.161-0.956-0.482-1.294s-0.706-0.507-1.154-0.507c-0.407,0-0.772,0.119-1.095,0.357
			c-0.324,0.238-0.562,0.587-0.717,1.047h-0.226c0.102-0.753,0.363-1.331,0.784-1.733c0.421-0.403,0.947-0.604,1.578-0.604
			c0.671,0,1.232,0.216,1.682,0.647c0.449,0.431,0.674,0.94,0.674,1.526c0,0.419-0.098,0.838-0.293,1.257
			c-0.301,0.659-0.79,1.357-1.465,2.093c-1.013,1.107-1.646,1.774-1.898,2.002h2.161c0.439,0,0.748-0.016,0.924-0.049
			c0.177-0.032,0.337-0.098,0.479-0.198c0.143-0.1,0.267-0.241,0.373-0.424H35.962z"/>
		<path style="fill:#0066FF;" d="M43.551,2.724h4.437v0.232l-2.759,8.215h-0.684l2.472-7.452h-2.277
			c-0.459,0-0.787,0.055-0.982,0.165c-0.342,0.187-0.616,0.476-0.824,0.867l-0.177-0.067L43.551,2.724z"/>
		<path style="fill:#0066FF;" d="M64.291,4.298c0.236-0.558,0.534-0.988,0.894-1.291c0.36-0.303,0.809-0.455,1.346-0.455
			c0.663,0,1.172,0.216,1.525,0.647c0.269,0.321,0.403,0.666,0.403,1.032c0,0.602-0.379,1.225-1.136,1.867
			c0.509,0.2,0.894,0.484,1.154,0.854c0.26,0.371,0.391,0.806,0.391,1.307c0,0.716-0.228,1.336-0.684,1.861
			c-0.594,0.684-1.455,1.025-2.582,1.025c-0.558,0-0.937-0.069-1.139-0.208c-0.201-0.138-0.302-0.287-0.302-0.446
			c0-0.118,0.047-0.222,0.143-0.311s0.21-0.134,0.345-0.134c0.102,0,0.205,0.016,0.311,0.049c0.069,0.021,0.226,0.095,0.47,0.223
			c0.244,0.128,0.413,0.205,0.506,0.229c0.15,0.045,0.311,0.067,0.482,0.067c0.415,0,0.776-0.161,1.083-0.482
			s0.461-0.702,0.461-1.141c0-0.322-0.071-0.635-0.213-0.94c-0.106-0.228-0.222-0.4-0.348-0.519c-0.175-0.163-0.415-0.31-0.72-0.442
			s-0.616-0.198-0.934-0.198h-0.195V6.709c0.321-0.041,0.644-0.156,0.967-0.348c0.323-0.191,0.558-0.421,0.705-0.689
			s0.22-0.564,0.22-0.885c0-0.419-0.131-0.758-0.394-1.016c-0.262-0.258-0.589-0.388-0.979-0.388c-0.631,0-1.158,0.338-1.581,1.013
			L64.291,4.298z"/>
		<path style="fill:#0066FF;" d="M70.357,6.911c0-0.944,0.143-1.757,0.427-2.438c0.285-0.681,0.663-1.189,1.135-1.523
			c0.366-0.264,0.745-0.396,1.135-0.396c0.635,0,1.205,0.323,1.709,0.971c0.631,0.801,0.946,1.888,0.946,3.259
			c0,0.96-0.139,1.776-0.415,2.448c-0.277,0.671-0.63,1.159-1.059,1.462c-0.43,0.303-0.843,0.455-1.242,0.455
			c-0.79,0-1.447-0.466-1.971-1.397C70.579,8.963,70.357,8.018,70.357,6.911z M71.554,7.063c0,1.139,0.14,2.069,0.421,2.789
			c0.231,0.606,0.578,0.909,1.037,0.909c0.22,0,0.448-0.098,0.684-0.296c0.236-0.197,0.415-0.528,0.537-0.992
			c0.188-0.7,0.281-1.687,0.281-2.96c0-0.944-0.098-1.731-0.293-2.362c-0.146-0.468-0.336-0.799-0.568-0.995
			c-0.167-0.135-0.368-0.202-0.604-0.202c-0.277,0-0.523,0.124-0.739,0.373c-0.293,0.337-0.492,0.869-0.598,1.593
			S71.554,6.359,71.554,7.063z"/>
		<path style="fill:#0066FF;" d="M87.733,3.535l2.014-0.982h0.202v6.988c0,0.464,0.019,0.753,0.058,0.867
			c0.039,0.114,0.119,0.201,0.241,0.262s0.37,0.096,0.745,0.104V11H87.88v-0.226c0.391-0.008,0.643-0.042,0.757-0.101
			c0.114-0.059,0.193-0.138,0.238-0.238s0.067-0.398,0.067-0.895V5.073c0-0.602-0.021-0.988-0.062-1.159
			c-0.028-0.13-0.08-0.226-0.155-0.287c-0.076-0.061-0.166-0.092-0.271-0.092c-0.151,0-0.36,0.063-0.629,0.189L87.733,3.535z"/>
		<path style="fill:#0066FF;" d="M98.335,7.948v0.867h-1.11V11h-1.007V8.815h-3.504V8.034l3.839-5.481h0.672v5.396H98.335z
			 M96.218,7.948V3.841l-2.906,4.107H96.218z"/>
		<path style="fill:#0066FF;" d="M119.897,7.948v0.867h-1.11V11h-1.007V8.815h-3.504V8.034l3.839-5.481h0.672v5.396H119.897z
			 M117.78,7.948V3.841l-2.906,4.107H117.78z"/>
		<path style="fill:#0066FF;" d="M126.147,7.948v0.867h-1.11V11h-1.007V8.815h-3.504V8.034l3.839-5.481h0.672v5.396H126.147z
			 M124.03,7.948V3.841l-2.906,4.107H124.03z"/>
	</g>
	<g>
		<path style="fill:#0066FF;" d="M141.051,11.719l2.014-0.982h0.202v6.988c0,0.464,0.019,0.753,0.058,0.867
			c0.039,0.113,0.119,0.201,0.241,0.262c0.122,0.062,0.37,0.096,0.745,0.104v0.226h-3.113v-0.226
			c0.391-0.009,0.643-0.042,0.757-0.101c0.114-0.06,0.193-0.139,0.238-0.238s0.067-0.397,0.067-0.895v-4.468
			c0-0.602-0.021-0.988-0.062-1.159c-0.028-0.13-0.08-0.226-0.155-0.287c-0.076-0.061-0.166-0.092-0.271-0.092
			c-0.151,0-0.36,0.063-0.629,0.189L141.051,11.719z"/>
		<path style="fill:#0066FF;" d="M147.301,11.719l2.014-0.982h0.202v6.988c0,0.464,0.019,0.753,0.058,0.867
			c0.039,0.113,0.119,0.201,0.241,0.262c0.122,0.062,0.37,0.096,0.745,0.104v0.226h-3.113v-0.226
			c0.391-0.009,0.643-0.042,0.757-0.101c0.114-0.06,0.193-0.139,0.238-0.238s0.067-0.397,0.067-0.895v-4.468
			c0-0.602-0.021-0.988-0.062-1.159c-0.028-0.13-0.08-0.226-0.155-0.287c-0.076-0.061-0.166-0.092-0.271-0.092
			c-0.151,0-0.36,0.063-0.629,0.189L147.301,11.719z"/>
	</g>
	<g>
		<path style="fill:#0066FF;" d="M14.713,22.121c0.236-0.558,0.534-0.988,0.894-1.291c0.36-0.304,0.809-0.455,1.346-0.455
			c0.663,0,1.172,0.216,1.525,0.646c0.269,0.322,0.403,0.666,0.403,1.032c0,0.602-0.379,1.225-1.136,1.867
			c0.509,0.199,0.894,0.484,1.154,0.854s0.391,0.806,0.391,1.307c0,0.716-0.228,1.336-0.684,1.861
			c-0.594,0.684-1.455,1.025-2.582,1.025c-0.558,0-0.937-0.069-1.139-0.207c-0.201-0.139-0.302-0.287-0.302-0.446
			c0-0.118,0.047-0.222,0.143-0.312c0.096-0.089,0.21-0.134,0.345-0.134c0.102,0,0.205,0.017,0.311,0.049
			c0.069,0.021,0.226,0.095,0.47,0.223s0.413,0.204,0.506,0.229c0.15,0.044,0.311,0.066,0.482,0.066c0.415,0,0.776-0.16,1.083-0.482
			c0.307-0.321,0.461-0.701,0.461-1.141c0-0.321-0.071-0.635-0.213-0.94c-0.106-0.228-0.222-0.4-0.348-0.519
			c-0.175-0.163-0.415-0.311-0.72-0.442s-0.616-0.198-0.934-0.198h-0.195v-0.184c0.321-0.04,0.644-0.156,0.967-0.348
			c0.323-0.191,0.558-0.421,0.705-0.689s0.22-0.563,0.22-0.885c0-0.42-0.131-0.758-0.394-1.017
			c-0.262-0.259-0.589-0.388-0.979-0.388c-0.631,0-1.158,0.338-1.581,1.014L14.713,22.121z"/>
		<path style="fill:#0066FF;" d="M31.518,21.357l2.014-0.982h0.202v6.988c0,0.464,0.019,0.753,0.058,0.867
			c0.039,0.113,0.119,0.201,0.241,0.262c0.122,0.062,0.37,0.096,0.745,0.104v0.226h-3.113v-0.226
			c0.391-0.009,0.643-0.042,0.757-0.101c0.114-0.06,0.193-0.139,0.238-0.238c0.044-0.1,0.067-0.397,0.067-0.895v-4.468
			c0-0.602-0.021-0.988-0.061-1.159c-0.028-0.131-0.081-0.227-0.156-0.287s-0.166-0.092-0.271-0.092c-0.15,0-0.36,0.063-0.628,0.189
			L31.518,21.357z"/>
		<path style="fill:#0066FF;" d="M84.107,25.771v0.866h-1.11v2.186H81.99v-2.186h-3.504v-0.781l3.839-5.48h0.672v5.396H84.107z
			 M81.99,25.771v-4.107l-2.906,4.107H81.99z"/>
		<path style="fill:#0066FF;" d="M123.045,25.771v0.866h-1.11v2.186h-1.007v-2.186h-3.504v-0.781l3.839-5.48h0.672v5.396H123.045z
			 M120.928,25.771v-4.107l-2.906,4.107H120.928z"/>
	</g>
	<g>
		<path style="fill:#0066FF;" d="M10.179,7.802c0,0.187-0.066,0.347-0.198,0.479c-0.132,0.132-0.29,0.199-0.473,0.199
			c-0.187,0-0.347-0.066-0.479-0.199C8.896,8.149,8.83,7.989,8.83,7.802s0.066-0.347,0.199-0.479
			C9.161,7.19,9.321,7.124,9.508,7.124c0.183,0,0.341,0.066,0.473,0.199C10.113,7.455,10.179,7.615,10.179,7.802z"/>
		<path style="fill:#0066FF;" d="M23.933,4.591h0.598v2.917h2.899v0.592h-2.899V11h-0.598V8.101h-2.912V7.509h2.912V4.591z"/>
		<path style="fill:#0066FF;" d="M39.977,7.802c0,0.187-0.066,0.347-0.198,0.479c-0.132,0.132-0.29,0.199-0.473,0.199
			c-0.187,0-0.347-0.066-0.479-0.199c-0.132-0.132-0.199-0.292-0.199-0.479s0.066-0.347,0.199-0.479
			c0.132-0.132,0.292-0.199,0.479-0.199c0.183,0,0.341,0.066,0.473,0.199C39.911,7.455,39.977,7.615,39.977,7.802z"/>
		<path style="fill:#0066FF;" d="M81.343,4.591h0.599v2.917h2.899v0.592h-2.899V11h-0.599V8.101h-2.911V7.509h2.911V4.591z"/>
	</g>
	<g>
		<path style="fill:#0066FF;" d="M52.937,14.551h6.409v0.592h-6.409V14.551z M52.937,16.827h6.409v0.604h-6.409V16.827z"/>
		<path style="fill:#0066FF;" d="M102.972,14.551h6.409v0.592h-6.409V14.551z M102.972,16.827h6.409v0.604h-6.409V16.827z"/>
		<path style="fill:#0066FF;" d="M130.782,14.551h6.409v0.592h-6.409V14.551z M130.782,16.827h6.409v0.604h-6.409V16.827z"/>
	</g>
	<g>
		<path style="fill:#0066FF;" d="M25.106,22.414h0.598v2.917h2.899v0.592h-2.899v2.899h-0.598v-2.899h-2.912v-0.592h2.912V22.414z"
			/>
	</g>
</g>
<g id="theGroup">
</g>
</svg>
