<?xml version="1.0" encoding="iso-8859-1"?>
<!-- Generator: Adobe Illustrator 16.0.0, SVG Export Plug-In . SVG Version: 6.00 Build 0)  -->
<!DOCTYPE svg PUBLIC "-//W3C//DTD SVG 1.1//EN" "http://www.w3.org/Graphics/SVG/1.1/DTD/svg11.dtd">
<svg version="1.1" id="Lager_1" xmlns="http://www.w3.org/2000/svg" xmlns:xlink="http://www.w3.org/1999/xlink" x="0px" y="0px"
	 width="124.965px" height="51.376px" viewBox="0 0 124.965 51.376" style="enable-background:new 0 0 124.965 51.376;"
	 xml:space="preserve">
<g>
	
		<line style="fill:none;stroke:#0066FF;stroke-width:0.5;stroke-linecap:square;stroke-miterlimit:10;" x1="10.596" y1="34.595" x2="56.924" y2="34.595"/>
	<g>
		<path style="fill:#0066FF;" d="M5.719,8.229H2.515L1.953,9.535c-0.138,0.321-0.208,0.562-0.208,0.72
			c0,0.126,0.06,0.237,0.18,0.333c0.12,0.096,0.379,0.158,0.778,0.187V11H0.098v-0.226c0.346-0.062,0.57-0.141,0.671-0.238
			c0.208-0.195,0.438-0.592,0.69-1.19L4.37,2.534h0.214l2.881,6.885c0.231,0.554,0.442,0.913,0.631,1.078
			c0.189,0.165,0.453,0.257,0.791,0.278V11H5.621v-0.226c0.33-0.017,0.553-0.071,0.668-0.165c0.116-0.094,0.174-0.208,0.174-0.342
			c0-0.179-0.082-0.462-0.244-0.849L5.719,8.229z M5.548,7.777L4.145,4.433l-1.44,3.345H5.548z"/>
		<path style="fill:#0066FF;" d="M10.81,6.429c0.655-0.79,1.279-1.185,1.874-1.185c0.305,0,0.568,0.077,0.788,0.229
			c0.22,0.153,0.395,0.404,0.524,0.754c0.09,0.244,0.135,0.619,0.135,1.123v2.386c0,0.354,0.028,0.594,0.085,0.721
			c0.045,0.102,0.117,0.181,0.217,0.238s0.284,0.085,0.553,0.085V11H12.22v-0.22h0.116c0.261,0,0.443-0.04,0.546-0.119
			c0.104-0.079,0.176-0.196,0.217-0.351c0.016-0.062,0.024-0.252,0.024-0.574V7.448c0-0.509-0.066-0.878-0.198-1.108
			c-0.132-0.229-0.355-0.345-0.668-0.345c-0.484,0-0.966,0.265-1.446,0.793v2.948c0,0.379,0.022,0.613,0.067,0.702
			c0.057,0.118,0.135,0.205,0.235,0.259c0.1,0.055,0.302,0.083,0.607,0.083V11H8.955v-0.22h0.122c0.285,0,0.477-0.072,0.577-0.217
			c0.1-0.144,0.149-0.42,0.149-0.827V7.661c0-0.671-0.015-1.08-0.046-1.227c-0.03-0.146-0.077-0.246-0.14-0.299
			c-0.063-0.053-0.147-0.08-0.253-0.08c-0.114,0-0.25,0.031-0.409,0.091l-0.092-0.22l1.685-0.684h0.263V6.429z"/>
		<path style="fill:#0066FF;" d="M17.054,3.572v1.837h1.306v0.427h-1.306v3.625c0,0.362,0.052,0.606,0.156,0.732
			c0.104,0.126,0.237,0.189,0.399,0.189c0.135,0,0.265-0.042,0.391-0.125c0.126-0.083,0.224-0.207,0.293-0.369h0.238
			c-0.143,0.399-0.344,0.699-0.604,0.9c-0.26,0.201-0.529,0.302-0.806,0.302c-0.187,0-0.37-0.052-0.549-0.156
			c-0.179-0.104-0.312-0.252-0.397-0.446c-0.085-0.193-0.128-0.491-0.128-0.894v-3.76h-0.885V5.635
			c0.224-0.089,0.453-0.241,0.687-0.455c0.234-0.213,0.442-0.467,0.626-0.76c0.093-0.155,0.224-0.438,0.391-0.848H17.054z"/>
		<path style="fill:#0066FF;" d="M22.108,10.194c-0.574,0.443-0.934,0.7-1.081,0.769c-0.22,0.102-0.454,0.153-0.702,0.153
			c-0.387,0-0.705-0.132-0.956-0.397c-0.25-0.265-0.375-0.612-0.375-1.043c0-0.273,0.062-0.509,0.184-0.708
			c0.167-0.277,0.457-0.537,0.87-0.781c0.413-0.244,1.1-0.542,2.06-0.892v-0.22c0-0.557-0.089-0.939-0.266-1.147
			c-0.177-0.207-0.435-0.311-0.772-0.311c-0.256,0-0.459,0.069-0.61,0.208c-0.154,0.138-0.231,0.297-0.231,0.476l0.012,0.354
			c0,0.187-0.048,0.332-0.143,0.434c-0.096,0.102-0.221,0.152-0.375,0.152c-0.15,0-0.274-0.053-0.369-0.159
			c-0.096-0.106-0.144-0.25-0.144-0.433c0-0.35,0.179-0.672,0.537-0.965s0.86-0.439,1.508-0.439c0.496,0,0.903,0.083,1.221,0.25
			c0.24,0.126,0.417,0.324,0.531,0.592c0.073,0.175,0.11,0.533,0.11,1.074v1.898c0,0.533,0.01,0.86,0.03,0.979
			c0.021,0.12,0.054,0.201,0.101,0.241c0.046,0.041,0.101,0.061,0.162,0.061c0.065,0,0.122-0.014,0.171-0.043
			c0.085-0.053,0.25-0.201,0.494-0.445v0.342c-0.456,0.61-0.891,0.916-1.306,0.916c-0.2,0-0.358-0.069-0.477-0.208
			C22.173,10.764,22.112,10.528,22.108,10.194z M22.108,9.798v-2.13c-0.615,0.244-1.011,0.417-1.19,0.519
			c-0.321,0.179-0.551,0.366-0.689,0.562c-0.139,0.195-0.208,0.409-0.208,0.641c0,0.293,0.088,0.536,0.263,0.729
			s0.376,0.29,0.604,0.29C21.197,10.408,21.604,10.205,22.108,9.798z"/>
		<path style="fill:#0066FF;" d="M26.336,2.321v7.416c0,0.35,0.025,0.582,0.076,0.696c0.051,0.114,0.129,0.2,0.235,0.259
			s0.303,0.088,0.592,0.088V11h-2.741v-0.22c0.256,0,0.431-0.026,0.525-0.079c0.094-0.053,0.167-0.141,0.22-0.263
			s0.079-0.356,0.079-0.702V4.658c0-0.63-0.014-1.018-0.042-1.163c-0.028-0.144-0.074-0.243-0.137-0.296
			C25.08,3.147,25,3.12,24.902,3.12c-0.106,0-0.24,0.033-0.403,0.098l-0.104-0.213l1.667-0.684H26.336z"/>
		<path style="fill:#0066FF;" d="M28.677,7.515c-0.004,0.83,0.197,1.481,0.604,1.953c0.407,0.472,0.885,0.708,1.435,0.708
			c0.366,0,0.685-0.101,0.955-0.302c0.271-0.202,0.498-0.546,0.681-1.035l0.189,0.122c-0.086,0.558-0.334,1.065-0.745,1.523
			c-0.411,0.458-0.925,0.687-1.544,0.687c-0.671,0-1.246-0.261-1.724-0.784c-0.479-0.523-0.717-1.226-0.717-2.109
			c0-0.956,0.245-1.702,0.735-2.237s1.106-0.803,1.847-0.803c0.626,0,1.141,0.207,1.544,0.62s0.604,0.965,0.604,1.657H28.677z
			 M28.677,7.161h2.588c-0.021-0.358-0.063-0.61-0.128-0.757c-0.102-0.228-0.253-0.407-0.455-0.537
			c-0.201-0.13-0.412-0.195-0.631-0.195c-0.338,0-0.64,0.131-0.907,0.394C28.877,6.328,28.722,6.693,28.677,7.161z"/>
		<path style="fill:#0066FF;" d="M34.833,3.572v1.837h1.306v0.427h-1.306v3.625c0,0.362,0.052,0.606,0.156,0.732
			c0.104,0.126,0.237,0.189,0.399,0.189c0.135,0,0.265-0.042,0.391-0.125c0.126-0.083,0.224-0.207,0.293-0.369h0.238
			c-0.143,0.399-0.344,0.699-0.604,0.9c-0.26,0.201-0.529,0.302-0.806,0.302c-0.187,0-0.37-0.052-0.549-0.156
			c-0.179-0.104-0.312-0.252-0.397-0.446c-0.085-0.193-0.128-0.491-0.128-0.894v-3.76h-0.885V5.635
			c0.224-0.089,0.453-0.241,0.687-0.455c0.234-0.213,0.442-0.467,0.626-0.76c0.093-0.155,0.224-0.438,0.391-0.848H34.833z"/>
		<path style="fill:#0066FF;" d="M41.505,6.435c0.407-0.407,0.647-0.641,0.72-0.702c0.183-0.154,0.38-0.274,0.592-0.36
			c0.211-0.085,0.421-0.128,0.628-0.128c0.35,0,0.651,0.102,0.903,0.306c0.252,0.203,0.421,0.498,0.506,0.885
			c0.419-0.488,0.773-0.809,1.062-0.961c0.289-0.152,0.586-0.229,0.891-0.229c0.297,0,0.561,0.077,0.791,0.229
			c0.23,0.153,0.412,0.402,0.546,0.748c0.089,0.236,0.134,0.606,0.134,1.111v2.404c0,0.35,0.026,0.59,0.08,0.721
			c0.041,0.089,0.116,0.166,0.226,0.229c0.11,0.063,0.289,0.095,0.537,0.095V11h-2.759v-0.22h0.116c0.24,0,0.427-0.047,0.562-0.141
			c0.093-0.065,0.161-0.168,0.201-0.311c0.016-0.069,0.024-0.267,0.024-0.592V7.332c0-0.456-0.055-0.777-0.165-0.965
			c-0.158-0.26-0.413-0.391-0.763-0.391c-0.216,0-0.433,0.054-0.65,0.162c-0.218,0.108-0.481,0.308-0.791,0.601l-0.012,0.067
			l0.012,0.263v2.667c0,0.383,0.021,0.621,0.064,0.714c0.043,0.094,0.123,0.172,0.241,0.235c0.118,0.063,0.319,0.095,0.604,0.095V11
			h-2.826v-0.22c0.309,0,0.522-0.037,0.638-0.11c0.116-0.073,0.196-0.183,0.241-0.33c0.021-0.069,0.031-0.271,0.031-0.604V7.332
			c0-0.456-0.067-0.784-0.202-0.983c-0.179-0.26-0.429-0.391-0.75-0.391c-0.22,0-0.438,0.059-0.653,0.177
			c-0.338,0.179-0.598,0.38-0.781,0.604v2.997c0,0.366,0.025,0.604,0.076,0.714s0.126,0.192,0.226,0.247
			c0.1,0.055,0.302,0.083,0.607,0.083V11H39.65v-0.22c0.256,0,0.436-0.027,0.537-0.083c0.102-0.055,0.179-0.142,0.232-0.262
			s0.08-0.353,0.08-0.699V7.601c0-0.615-0.019-1.011-0.055-1.19c-0.028-0.134-0.073-0.227-0.134-0.278
			c-0.061-0.051-0.145-0.076-0.25-0.076c-0.114,0-0.25,0.031-0.409,0.091l-0.092-0.22l1.685-0.684h0.263V6.435z"/>
		<path style="fill:#0066FF;" d="M50.913,8.961c-0.342-0.167-0.604-0.4-0.787-0.699c-0.183-0.299-0.274-0.63-0.274-0.992
			c0-0.553,0.208-1.029,0.625-1.428c0.417-0.399,0.951-0.599,1.602-0.599c0.533,0,0.995,0.13,1.386,0.391h1.184
			c0.175,0,0.277,0.005,0.306,0.016c0.028,0.01,0.049,0.027,0.061,0.052c0.024,0.037,0.037,0.102,0.037,0.195
			c0,0.106-0.01,0.179-0.031,0.22c-0.012,0.021-0.034,0.037-0.064,0.049c-0.031,0.012-0.133,0.019-0.309,0.019h-0.726
			c0.228,0.293,0.342,0.667,0.342,1.123c0,0.521-0.199,0.966-0.598,1.336s-0.934,0.555-1.605,0.555
			c-0.276,0-0.559-0.041-0.848-0.122c-0.179,0.155-0.3,0.29-0.363,0.406c-0.063,0.116-0.094,0.214-0.094,0.296
			c0,0.069,0.033,0.136,0.101,0.201c0.067,0.065,0.198,0.112,0.394,0.141c0.114,0.016,0.399,0.03,0.854,0.043
			c0.838,0.02,1.381,0.049,1.63,0.085c0.378,0.053,0.68,0.193,0.906,0.421c0.226,0.228,0.339,0.509,0.339,0.842
			c0,0.46-0.216,0.891-0.647,1.294c-0.635,0.594-1.462,0.891-2.484,0.891c-0.785,0-1.449-0.177-1.99-0.531
			c-0.305-0.204-0.458-0.415-0.458-0.635c0-0.098,0.022-0.195,0.067-0.293c0.069-0.151,0.211-0.36,0.427-0.629
			c0.028-0.037,0.236-0.256,0.623-0.659c-0.211-0.126-0.361-0.239-0.449-0.339c-0.087-0.1-0.131-0.212-0.131-0.339
			c0-0.142,0.058-0.309,0.174-0.5C50.227,9.582,50.494,9.312,50.913,8.961z M50.853,11c-0.191,0.208-0.336,0.401-0.434,0.58
			c-0.098,0.179-0.146,0.344-0.146,0.494c0,0.195,0.118,0.366,0.354,0.513c0.407,0.252,0.995,0.378,1.764,0.378
			c0.732,0,1.272-0.129,1.62-0.388c0.348-0.258,0.522-0.534,0.522-0.827c0-0.212-0.104-0.362-0.311-0.452
			c-0.212-0.089-0.631-0.142-1.258-0.158C52.049,11.116,51.345,11.069,50.853,11z M51.976,5.537c-0.301,0-0.554,0.12-0.757,0.36
			c-0.204,0.24-0.306,0.608-0.306,1.104c0,0.643,0.139,1.142,0.415,1.496C51.54,8.766,51.809,8.9,52.134,8.9
			c0.31,0,0.564-0.116,0.763-0.348c0.199-0.232,0.299-0.596,0.299-1.093c0-0.647-0.141-1.153-0.421-1.52
			C52.567,5.672,52.301,5.537,51.976,5.537z"/>
		<path style="fill:#0066FF;" d="M58.781,2.321l-2.997,8.85h-0.488l2.997-8.85H58.781z"/>
		<path style="fill:#0066FF;" d="M60.833,2.321v5.566l1.422-1.3c0.301-0.276,0.476-0.451,0.525-0.524
			c0.033-0.049,0.049-0.098,0.049-0.146c0-0.082-0.034-0.152-0.101-0.211c-0.067-0.059-0.178-0.092-0.333-0.101V5.409h2.428v0.195
			c-0.332,0.008-0.611,0.059-0.832,0.152c-0.223,0.094-0.465,0.261-0.73,0.501l-1.434,1.324l1.434,1.812
			c0.399,0.501,0.667,0.818,0.806,0.952c0.195,0.191,0.365,0.315,0.512,0.373c0.102,0.041,0.279,0.061,0.531,0.061V11h-2.715v-0.22
			c0.154-0.004,0.259-0.027,0.314-0.07c0.055-0.042,0.083-0.103,0.083-0.18c0-0.094-0.082-0.244-0.244-0.452l-1.715-2.191v1.855
			c0,0.362,0.025,0.6,0.076,0.714c0.051,0.114,0.123,0.195,0.217,0.244c0.093,0.049,0.297,0.075,0.61,0.079V11h-2.845v-0.22
			c0.285,0,0.499-0.035,0.641-0.104c0.085-0.045,0.15-0.114,0.195-0.208c0.061-0.134,0.091-0.366,0.091-0.695V4.683
			c0-0.646-0.014-1.042-0.042-1.187c-0.028-0.144-0.075-0.244-0.14-0.299c-0.065-0.055-0.151-0.083-0.257-0.083
			c-0.085,0-0.213,0.035-0.384,0.104l-0.104-0.213l1.66-0.684H60.833z"/>
		<path style="fill:#0066FF;" d="M66.924,8.961c-0.342-0.167-0.604-0.4-0.787-0.699c-0.183-0.299-0.274-0.63-0.274-0.992
			c0-0.553,0.208-1.029,0.625-1.428c0.417-0.399,0.951-0.599,1.603-0.599c0.533,0,0.995,0.13,1.386,0.391h1.184
			c0.175,0,0.277,0.005,0.306,0.016s0.049,0.027,0.061,0.052c0.024,0.037,0.037,0.102,0.037,0.195c0,0.106-0.011,0.179-0.03,0.22
			c-0.013,0.021-0.034,0.037-0.064,0.049s-0.134,0.019-0.309,0.019h-0.727c0.229,0.293,0.342,0.667,0.342,1.123
			c0,0.521-0.199,0.966-0.598,1.336s-0.934,0.555-1.605,0.555c-0.276,0-0.56-0.041-0.848-0.122c-0.18,0.155-0.301,0.29-0.363,0.406
			c-0.063,0.116-0.095,0.214-0.095,0.296c0,0.069,0.033,0.136,0.101,0.201c0.067,0.065,0.198,0.112,0.394,0.141
			c0.114,0.016,0.398,0.03,0.854,0.043c0.838,0.02,1.382,0.049,1.63,0.085c0.378,0.053,0.681,0.193,0.906,0.421
			s0.339,0.509,0.339,0.842c0,0.46-0.216,0.891-0.647,1.294c-0.635,0.594-1.463,0.891-2.483,0.891c-0.786,0-1.449-0.177-1.99-0.531
			c-0.305-0.204-0.458-0.415-0.458-0.635c0-0.098,0.022-0.195,0.067-0.293c0.069-0.151,0.212-0.36,0.428-0.629
			c0.028-0.037,0.235-0.256,0.622-0.659c-0.212-0.126-0.361-0.239-0.448-0.339c-0.088-0.1-0.132-0.212-0.132-0.339
			c0-0.142,0.059-0.309,0.174-0.5C66.237,9.582,66.505,9.312,66.924,8.961z M66.863,11c-0.191,0.208-0.336,0.401-0.434,0.58
			c-0.098,0.179-0.146,0.344-0.146,0.494c0,0.195,0.118,0.366,0.354,0.513c0.406,0.252,0.994,0.378,1.764,0.378
			c0.732,0,1.272-0.129,1.62-0.388s0.522-0.534,0.522-0.827c0-0.212-0.104-0.362-0.312-0.452c-0.212-0.089-0.631-0.142-1.258-0.158
			C68.06,11.116,67.355,11.069,66.863,11z M67.986,5.537c-0.302,0-0.554,0.12-0.757,0.36c-0.204,0.24-0.306,0.608-0.306,1.104
			c0,0.643,0.139,1.142,0.415,1.496c0.212,0.269,0.48,0.403,0.806,0.403c0.31,0,0.563-0.116,0.763-0.348
			c0.2-0.232,0.3-0.596,0.3-1.093c0-0.647-0.141-1.153-0.421-1.52C68.578,5.672,68.312,5.537,67.986,5.537z"/>
	</g>
	<g>
		<path style="fill:#0066FF;" d="M11.475,22.285l2.014-0.982h0.202v6.988c0,0.464,0.019,0.753,0.058,0.867
			c0.039,0.113,0.119,0.201,0.241,0.262c0.122,0.062,0.37,0.096,0.745,0.104v0.226h-3.113v-0.226
			c0.391-0.009,0.643-0.042,0.757-0.101c0.114-0.06,0.193-0.139,0.238-0.238c0.044-0.1,0.067-0.397,0.067-0.895v-4.468
			c0-0.602-0.021-0.988-0.061-1.159c-0.028-0.13-0.081-0.226-0.156-0.287s-0.166-0.092-0.271-0.092c-0.15,0-0.36,0.063-0.628,0.189
			L11.475,22.285z"/>
		<path style="fill:#0066FF;" d="M18.499,25.661c0-0.944,0.143-1.757,0.427-2.438c0.285-0.681,0.663-1.189,1.135-1.523
			c0.366-0.264,0.745-0.396,1.135-0.396c0.635,0,1.205,0.323,1.709,0.971c0.631,0.801,0.946,1.888,0.946,3.259
			c0,0.96-0.139,1.776-0.415,2.448c-0.277,0.671-0.63,1.158-1.059,1.461c-0.43,0.304-0.843,0.455-1.242,0.455
			c-0.79,0-1.447-0.466-1.971-1.397C18.721,27.714,18.499,26.768,18.499,25.661z M19.695,25.813c0,1.139,0.14,2.069,0.421,2.789
			c0.231,0.606,0.578,0.909,1.037,0.909c0.22,0,0.448-0.099,0.684-0.296c0.236-0.197,0.415-0.528,0.537-0.991
			c0.188-0.7,0.281-1.688,0.281-2.961c0-0.944-0.098-1.731-0.293-2.362c-0.146-0.468-0.336-0.799-0.568-0.995
			c-0.167-0.135-0.368-0.202-0.604-0.202c-0.277,0-0.523,0.124-0.739,0.373c-0.293,0.337-0.492,0.869-0.598,1.593
			S19.695,25.109,19.695,25.813z"/>
		<path style="fill:#0066FF;" d="M24.749,25.661c0-0.944,0.143-1.757,0.427-2.438c0.285-0.681,0.663-1.189,1.135-1.523
			c0.366-0.264,0.745-0.396,1.135-0.396c0.635,0,1.205,0.323,1.709,0.971c0.631,0.801,0.946,1.888,0.946,3.259
			c0,0.96-0.139,1.776-0.415,2.448c-0.277,0.671-0.63,1.158-1.059,1.461c-0.43,0.304-0.843,0.455-1.242,0.455
			c-0.79,0-1.447-0.466-1.971-1.397C24.971,27.714,24.749,26.768,24.749,25.661z M25.945,25.813c0,1.139,0.14,2.069,0.421,2.789
			c0.231,0.606,0.578,0.909,1.037,0.909c0.22,0,0.448-0.099,0.684-0.296c0.236-0.197,0.415-0.528,0.537-0.991
			c0.188-0.7,0.281-1.688,0.281-2.961c0-0.944-0.098-1.731-0.293-2.362c-0.146-0.468-0.336-0.799-0.568-0.995
			c-0.167-0.135-0.368-0.202-0.604-0.202c-0.277,0-0.523,0.124-0.739,0.373c-0.293,0.337-0.492,0.869-0.598,1.593
			S25.945,25.109,25.945,25.813z"/>
		<path style="fill:#0066FF;" d="M30.999,25.661c0-0.944,0.143-1.757,0.427-2.438c0.285-0.681,0.663-1.189,1.135-1.523
			c0.366-0.264,0.745-0.396,1.135-0.396c0.635,0,1.205,0.323,1.709,0.971c0.631,0.801,0.946,1.888,0.946,3.259
			c0,0.96-0.139,1.776-0.415,2.448c-0.277,0.671-0.63,1.158-1.059,1.461c-0.43,0.304-0.843,0.455-1.242,0.455
			c-0.79,0-1.447-0.466-1.971-1.397C31.221,27.714,30.999,26.768,30.999,25.661z M32.195,25.813c0,1.139,0.14,2.069,0.421,2.789
			c0.231,0.606,0.578,0.909,1.037,0.909c0.22,0,0.448-0.099,0.684-0.296c0.236-0.197,0.415-0.528,0.537-0.991
			c0.188-0.7,0.281-1.688,0.281-2.961c0-0.944-0.098-1.731-0.293-2.362c-0.146-0.468-0.336-0.799-0.568-0.995
			c-0.167-0.135-0.368-0.202-0.604-0.202c-0.277,0-0.523,0.124-0.739,0.373c-0.293,0.337-0.492,0.869-0.598,1.593
			S32.195,25.109,32.195,25.813z"/>
		<path style="fill:#0066FF;" d="M42.36,25.185c0.407-0.407,0.647-0.641,0.72-0.702c0.183-0.154,0.38-0.274,0.592-0.36
			c0.211-0.085,0.421-0.128,0.628-0.128c0.35,0,0.651,0.102,0.903,0.306c0.252,0.203,0.421,0.498,0.506,0.885
			c0.419-0.488,0.773-0.809,1.062-0.961c0.289-0.152,0.586-0.229,0.891-0.229c0.297,0,0.561,0.077,0.791,0.229
			c0.23,0.153,0.412,0.402,0.546,0.748c0.089,0.236,0.134,0.606,0.134,1.111v2.404c0,0.351,0.026,0.59,0.08,0.721
			c0.041,0.089,0.116,0.166,0.226,0.229c0.11,0.063,0.289,0.095,0.537,0.095v0.22h-2.759v-0.22h0.116
			c0.24,0,0.427-0.047,0.562-0.141c0.093-0.064,0.161-0.169,0.201-0.312c0.016-0.068,0.024-0.266,0.024-0.592v-2.404
			c0-0.456-0.055-0.777-0.165-0.965c-0.158-0.26-0.413-0.391-0.763-0.391c-0.216,0-0.433,0.054-0.65,0.162
			c-0.218,0.108-0.481,0.308-0.791,0.601l-0.012,0.067l0.012,0.263v2.667c0,0.383,0.021,0.621,0.064,0.715
			c0.043,0.093,0.123,0.172,0.241,0.234c0.118,0.063,0.319,0.095,0.604,0.095v0.22h-2.826v-0.22c0.309,0,0.522-0.036,0.638-0.11
			c0.116-0.072,0.196-0.183,0.241-0.329c0.021-0.069,0.031-0.271,0.031-0.604v-2.404c0-0.456-0.067-0.784-0.202-0.983
			c-0.179-0.26-0.429-0.391-0.75-0.391c-0.22,0-0.438,0.059-0.653,0.177c-0.338,0.179-0.598,0.38-0.781,0.604v2.997
			c0,0.366,0.025,0.604,0.076,0.715c0.051,0.109,0.126,0.191,0.226,0.247c0.1,0.055,0.302,0.082,0.607,0.082v0.22h-2.765v-0.22
			c0.256,0,0.436-0.027,0.537-0.082c0.102-0.056,0.179-0.143,0.232-0.263s0.08-0.354,0.08-0.699v-2.136
			c0-0.615-0.019-1.011-0.055-1.19c-0.028-0.134-0.073-0.227-0.134-0.278c-0.061-0.051-0.145-0.076-0.25-0.076
			c-0.114,0-0.25,0.031-0.409,0.091l-0.092-0.22l1.685-0.684h0.263V25.185z"/>
		<path style="fill:#0066FF;" d="M51.769,27.711c-0.342-0.166-0.604-0.399-0.787-0.698c-0.183-0.3-0.274-0.63-0.274-0.992
			c0-0.553,0.208-1.029,0.625-1.428c0.417-0.399,0.951-0.599,1.602-0.599c0.533,0,0.995,0.13,1.386,0.391h1.184
			c0.175,0,0.277,0.005,0.306,0.016c0.028,0.01,0.049,0.027,0.061,0.052c0.024,0.037,0.037,0.102,0.037,0.195
			c0,0.106-0.01,0.179-0.031,0.22c-0.012,0.021-0.034,0.037-0.064,0.049c-0.031,0.012-0.133,0.019-0.309,0.019h-0.726
			c0.228,0.293,0.342,0.667,0.342,1.123c0,0.521-0.199,0.966-0.598,1.337c-0.399,0.37-0.934,0.555-1.605,0.555
			c-0.276,0-0.559-0.04-0.848-0.122c-0.179,0.155-0.3,0.29-0.363,0.406s-0.094,0.215-0.094,0.296c0,0.069,0.033,0.137,0.101,0.201
			c0.067,0.065,0.198,0.112,0.394,0.141c0.114,0.017,0.399,0.03,0.854,0.043c0.838,0.021,1.381,0.049,1.63,0.085
			c0.378,0.053,0.68,0.193,0.906,0.421c0.226,0.229,0.339,0.509,0.339,0.843c0,0.46-0.216,0.892-0.647,1.294
			c-0.635,0.594-1.462,0.891-2.484,0.891c-0.785,0-1.449-0.177-1.99-0.53c-0.305-0.204-0.458-0.415-0.458-0.635
			c0-0.098,0.022-0.195,0.067-0.293c0.069-0.15,0.211-0.36,0.427-0.629c0.028-0.036,0.236-0.257,0.623-0.659
			c-0.211-0.126-0.361-0.239-0.449-0.339s-0.131-0.213-0.131-0.339c0-0.143,0.058-0.309,0.174-0.5
			C51.082,28.332,51.35,28.062,51.769,27.711z M51.708,29.75c-0.191,0.207-0.336,0.4-0.434,0.58
			c-0.098,0.179-0.146,0.344-0.146,0.494c0,0.195,0.118,0.366,0.354,0.513c0.407,0.252,0.995,0.378,1.764,0.378
			c0.732,0,1.272-0.129,1.62-0.387c0.348-0.259,0.522-0.534,0.522-0.827c0-0.212-0.104-0.362-0.311-0.452
			c-0.212-0.089-0.631-0.143-1.258-0.158C52.904,29.866,52.2,29.819,51.708,29.75z M52.831,24.287c-0.301,0-0.554,0.12-0.757,0.36
			c-0.204,0.24-0.306,0.608-0.306,1.104c0,0.643,0.139,1.142,0.415,1.496c0.212,0.268,0.48,0.402,0.806,0.402
			c0.31,0,0.564-0.116,0.763-0.348c0.199-0.232,0.299-0.596,0.299-1.093c0-0.647-0.141-1.153-0.421-1.52
			C53.423,24.422,53.156,24.287,52.831,24.287z"/>
	</g>
	<g>
		<path style="fill:#0066FF;" d="M76.601,36.321l-0.58,1.593h-4.883v-0.226c1.437-1.311,2.447-2.381,3.033-3.211
			s0.879-1.589,0.879-2.276c0-0.525-0.16-0.956-0.481-1.294c-0.322-0.338-0.706-0.507-1.154-0.507c-0.406,0-0.771,0.119-1.096,0.357
			c-0.323,0.238-0.562,0.587-0.717,1.047h-0.226c0.102-0.753,0.363-1.331,0.784-1.733c0.421-0.403,0.947-0.604,1.578-0.604
			c0.671,0,1.231,0.216,1.681,0.646c0.45,0.432,0.675,0.94,0.675,1.526c0,0.419-0.098,0.838-0.293,1.257
			c-0.301,0.66-0.789,1.357-1.465,2.094c-1.014,1.107-1.646,1.774-1.898,2.002h2.161c0.439,0,0.747-0.016,0.925-0.049
			c0.177-0.032,0.336-0.099,0.479-0.198s0.267-0.241,0.373-0.424H76.601z"/>
		<path style="fill:#0066FF;" d="M77.57,33.824c0-0.943,0.143-1.756,0.428-2.438s0.663-1.189,1.135-1.523
			c0.367-0.265,0.745-0.396,1.136-0.396c0.635,0,1.204,0.323,1.709,0.971c0.631,0.802,0.946,1.888,0.946,3.259
			c0,0.961-0.139,1.776-0.415,2.448c-0.277,0.671-0.63,1.158-1.06,1.461c-0.429,0.304-0.843,0.455-1.242,0.455
			c-0.789,0-1.446-0.466-1.971-1.397C77.793,35.878,77.57,34.932,77.57,33.824z M78.768,33.978c0,1.139,0.14,2.069,0.421,2.789
			c0.231,0.606,0.577,0.909,1.037,0.909c0.22,0,0.448-0.099,0.684-0.296c0.236-0.197,0.415-0.528,0.537-0.991
			c0.188-0.7,0.281-1.688,0.281-2.961c0-0.943-0.098-1.731-0.293-2.361c-0.146-0.469-0.336-0.8-0.567-0.995
			c-0.167-0.135-0.369-0.202-0.604-0.202c-0.277,0-0.523,0.125-0.739,0.373c-0.293,0.338-0.492,0.868-0.598,1.593
			S78.768,33.273,78.768,33.978z"/>
		<path style="fill:#0066FF;" d="M83.82,33.824c0-0.943,0.143-1.756,0.428-2.438s0.663-1.189,1.135-1.523
			c0.367-0.265,0.745-0.396,1.136-0.396c0.635,0,1.204,0.323,1.709,0.971c0.631,0.802,0.946,1.888,0.946,3.259
			c0,0.961-0.139,1.776-0.415,2.448c-0.277,0.671-0.63,1.158-1.06,1.461c-0.429,0.304-0.843,0.455-1.242,0.455
			c-0.789,0-1.446-0.466-1.971-1.397C84.043,35.878,83.82,34.932,83.82,33.824z M85.018,33.978c0,1.139,0.14,2.069,0.421,2.789
			c0.231,0.606,0.577,0.909,1.037,0.909c0.22,0,0.448-0.099,0.684-0.296c0.236-0.197,0.415-0.528,0.537-0.991
			c0.188-0.7,0.281-1.688,0.281-2.961c0-0.943-0.098-1.731-0.293-2.361c-0.146-0.469-0.336-0.8-0.567-0.995
			c-0.167-0.135-0.369-0.202-0.604-0.202c-0.277,0-0.523,0.125-0.739,0.373c-0.293,0.338-0.492,0.868-0.598,1.593
			S85.018,33.273,85.018,33.978z"/>
		<path style="fill:#0066FF;" d="M95.183,33.349c0.407-0.407,0.646-0.641,0.721-0.702c0.183-0.154,0.38-0.274,0.592-0.359
			c0.211-0.086,0.421-0.129,0.629-0.129c0.35,0,0.65,0.102,0.902,0.306c0.253,0.203,0.422,0.498,0.507,0.885
			c0.419-0.488,0.773-0.809,1.062-0.961c0.289-0.153,0.586-0.229,0.891-0.229c0.297,0,0.561,0.076,0.791,0.229
			c0.229,0.152,0.411,0.401,0.546,0.747c0.09,0.236,0.135,0.606,0.135,1.111v2.404c0,0.351,0.026,0.59,0.079,0.721
			c0.04,0.089,0.116,0.166,0.226,0.229c0.109,0.063,0.289,0.095,0.537,0.095v0.22h-2.759v-0.22h0.116
			c0.24,0,0.427-0.047,0.562-0.141c0.094-0.064,0.16-0.169,0.201-0.312c0.017-0.068,0.024-0.266,0.024-0.592v-2.404
			c0-0.456-0.055-0.777-0.165-0.965c-0.158-0.26-0.413-0.391-0.763-0.391c-0.216,0-0.433,0.055-0.65,0.162s-0.48,0.309-0.79,0.602
			l-0.013,0.066l0.013,0.263v2.667c0,0.383,0.021,0.621,0.064,0.715c0.042,0.093,0.123,0.172,0.241,0.234
			c0.117,0.063,0.319,0.095,0.604,0.095v0.22h-2.826v-0.22c0.31,0,0.522-0.036,0.639-0.11c0.115-0.072,0.196-0.183,0.24-0.329
			c0.021-0.069,0.031-0.271,0.031-0.604v-2.404c0-0.456-0.067-0.783-0.201-0.982c-0.18-0.261-0.43-0.391-0.751-0.391
			c-0.22,0-0.438,0.059-0.653,0.177c-0.338,0.179-0.598,0.38-0.781,0.604v2.996c0,0.366,0.025,0.604,0.076,0.715
			c0.051,0.109,0.126,0.191,0.226,0.247c0.1,0.055,0.303,0.082,0.607,0.082v0.22h-2.765v-0.22c0.256,0,0.436-0.027,0.537-0.082
			c0.102-0.056,0.179-0.143,0.232-0.263c0.053-0.12,0.079-0.354,0.079-0.699v-2.136c0-0.614-0.019-1.012-0.056-1.19
			c-0.028-0.135-0.072-0.227-0.134-0.277s-0.145-0.076-0.25-0.076c-0.114,0-0.251,0.03-0.409,0.091l-0.092-0.22l1.685-0.684h0.263
			V33.349z"/>
		<path style="fill:#0066FF;" d="M104.59,35.875c-0.342-0.166-0.604-0.399-0.787-0.698s-0.274-0.63-0.274-0.992
			c0-0.553,0.208-1.029,0.625-1.428c0.417-0.399,0.951-0.599,1.603-0.599c0.533,0,0.995,0.131,1.386,0.391h1.184
			c0.175,0,0.277,0.006,0.306,0.016s0.049,0.027,0.061,0.052c0.024,0.036,0.037,0.102,0.037,0.195c0,0.105-0.011,0.179-0.03,0.22
			c-0.013,0.021-0.034,0.037-0.064,0.049s-0.134,0.019-0.309,0.019h-0.727c0.229,0.293,0.342,0.667,0.342,1.123
			c0,0.521-0.199,0.966-0.598,1.337c-0.398,0.37-0.934,0.555-1.605,0.555c-0.276,0-0.56-0.04-0.848-0.122
			c-0.18,0.155-0.301,0.29-0.363,0.406c-0.063,0.116-0.095,0.215-0.095,0.296c0,0.069,0.033,0.137,0.101,0.201
			c0.067,0.065,0.198,0.112,0.394,0.141c0.114,0.017,0.398,0.03,0.854,0.043c0.838,0.021,1.382,0.049,1.63,0.085
			c0.378,0.053,0.681,0.193,0.906,0.421c0.226,0.229,0.339,0.509,0.339,0.843c0,0.46-0.216,0.892-0.647,1.294
			c-0.635,0.594-1.463,0.891-2.483,0.891c-0.786,0-1.449-0.177-1.99-0.53c-0.305-0.204-0.458-0.415-0.458-0.635
			c0-0.098,0.022-0.195,0.067-0.293c0.069-0.15,0.212-0.36,0.428-0.629c0.028-0.036,0.235-0.257,0.622-0.659
			c-0.212-0.126-0.361-0.239-0.448-0.339c-0.088-0.1-0.132-0.213-0.132-0.339c0-0.143,0.059-0.309,0.174-0.5
			C103.903,36.496,104.171,36.226,104.59,35.875z M104.529,37.914c-0.191,0.207-0.336,0.4-0.434,0.58
			c-0.098,0.179-0.146,0.344-0.146,0.494c0,0.195,0.118,0.366,0.354,0.513c0.406,0.252,0.994,0.378,1.764,0.378
			c0.732,0,1.272-0.129,1.62-0.387c0.348-0.259,0.522-0.534,0.522-0.827c0-0.212-0.104-0.362-0.312-0.452
			c-0.212-0.089-0.631-0.143-1.258-0.158C105.726,38.03,105.021,37.983,104.529,37.914z M105.652,32.451
			c-0.302,0-0.554,0.12-0.757,0.36c-0.204,0.24-0.306,0.608-0.306,1.104c0,0.644,0.139,1.142,0.415,1.496
			c0.212,0.268,0.48,0.402,0.806,0.402c0.31,0,0.563-0.116,0.763-0.348c0.2-0.232,0.3-0.597,0.3-1.093
			c0-0.647-0.141-1.153-0.421-1.52C106.244,32.586,105.978,32.451,105.652,32.451z"/>
		<path style="fill:#0066FF;" d="M112.458,29.234l-2.997,8.851h-0.488l2.997-8.851H112.458z"/>
		<path style="fill:#0066FF;" d="M114.51,29.234v5.566l1.422-1.3c0.301-0.276,0.477-0.451,0.525-0.524
			c0.032-0.049,0.049-0.098,0.049-0.146c0-0.082-0.034-0.151-0.102-0.211c-0.066-0.059-0.178-0.093-0.332-0.101v-0.195h2.429v0.195
			c-0.333,0.008-0.611,0.059-0.833,0.152s-0.465,0.261-0.729,0.501l-1.435,1.324l1.435,1.812c0.399,0.501,0.668,0.818,0.806,0.952
			c0.195,0.191,0.366,0.315,0.513,0.372c0.102,0.041,0.279,0.062,0.531,0.062v0.22h-2.716v-0.22c0.154-0.004,0.259-0.027,0.314-0.07
			c0.055-0.043,0.082-0.103,0.082-0.18c0-0.094-0.081-0.244-0.244-0.452l-1.715-2.191v1.855c0,0.362,0.025,0.601,0.076,0.715
			c0.051,0.113,0.123,0.195,0.217,0.244s0.297,0.075,0.61,0.079v0.22h-2.845v-0.22c0.285,0,0.499-0.034,0.641-0.104
			c0.086-0.045,0.151-0.114,0.195-0.208c0.062-0.134,0.092-0.366,0.092-0.695v-5.091c0-0.646-0.014-1.042-0.043-1.187
			c-0.028-0.145-0.075-0.244-0.14-0.3c-0.065-0.055-0.15-0.082-0.257-0.082c-0.085,0-0.213,0.034-0.385,0.104l-0.104-0.214
			l1.66-0.684H114.51z"/>
		<path style="fill:#0066FF;" d="M120.601,35.875c-0.342-0.166-0.604-0.399-0.787-0.698s-0.274-0.63-0.274-0.992
			c0-0.553,0.208-1.029,0.625-1.428c0.417-0.399,0.951-0.599,1.603-0.599c0.533,0,0.995,0.131,1.386,0.391h1.184
			c0.175,0,0.277,0.006,0.306,0.016s0.049,0.027,0.061,0.052c0.024,0.036,0.037,0.102,0.037,0.195c0,0.105-0.011,0.179-0.03,0.22
			c-0.013,0.021-0.034,0.037-0.064,0.049s-0.134,0.019-0.309,0.019h-0.727c0.229,0.293,0.342,0.667,0.342,1.123
			c0,0.521-0.199,0.966-0.598,1.337c-0.398,0.37-0.934,0.555-1.605,0.555c-0.276,0-0.56-0.04-0.848-0.122
			c-0.18,0.155-0.301,0.29-0.363,0.406c-0.063,0.116-0.095,0.215-0.095,0.296c0,0.069,0.033,0.137,0.101,0.201
			c0.067,0.065,0.198,0.112,0.394,0.141c0.114,0.017,0.398,0.03,0.854,0.043c0.838,0.021,1.382,0.049,1.63,0.085
			c0.378,0.053,0.681,0.193,0.906,0.421c0.226,0.229,0.339,0.509,0.339,0.843c0,0.46-0.216,0.892-0.647,1.294
			c-0.635,0.594-1.463,0.891-2.483,0.891c-0.786,0-1.449-0.177-1.99-0.53c-0.305-0.204-0.458-0.415-0.458-0.635
			c0-0.098,0.022-0.195,0.067-0.293c0.069-0.15,0.212-0.36,0.428-0.629c0.028-0.036,0.235-0.257,0.622-0.659
			c-0.212-0.126-0.361-0.239-0.448-0.339c-0.088-0.1-0.132-0.213-0.132-0.339c0-0.143,0.059-0.309,0.174-0.5
			C119.914,36.496,120.182,36.226,120.601,35.875z M120.54,37.914c-0.191,0.207-0.336,0.4-0.434,0.58
			c-0.098,0.179-0.146,0.344-0.146,0.494c0,0.195,0.118,0.366,0.354,0.513c0.406,0.252,0.994,0.378,1.764,0.378
			c0.732,0,1.272-0.129,1.62-0.387c0.348-0.259,0.522-0.534,0.522-0.827c0-0.212-0.104-0.362-0.312-0.452
			c-0.212-0.089-0.631-0.143-1.258-0.158C121.736,38.03,121.032,37.983,120.54,37.914z M121.663,32.451
			c-0.302,0-0.554,0.12-0.757,0.36c-0.204,0.24-0.306,0.608-0.306,1.104c0,0.644,0.139,1.142,0.415,1.496
			c0.212,0.268,0.48,0.402,0.806,0.402c0.31,0,0.563-0.116,0.763-0.348c0.2-0.232,0.3-0.597,0.3-1.093
			c0-0.647-0.141-1.153-0.421-1.52C122.255,32.586,121.988,32.451,121.663,32.451z"/>
	</g>
	<g>
		<path style="fill:#0066FF;" d="M28.043,39.267l-0.476,1.038h-2.49l-0.543,1.11c1.078,0.159,1.933,0.56,2.563,1.202
			c0.541,0.554,0.812,1.205,0.812,1.953c0,0.436-0.089,0.839-0.266,1.209c-0.177,0.37-0.4,0.686-0.668,0.945
			c-0.269,0.261-0.568,0.471-0.897,0.629c-0.468,0.224-0.948,0.336-1.44,0.336c-0.497,0-0.858-0.085-1.083-0.253
			c-0.226-0.169-0.339-0.355-0.339-0.559c0-0.114,0.047-0.215,0.14-0.303c0.094-0.087,0.212-0.131,0.354-0.131
			c0.105,0,0.198,0.017,0.277,0.049c0.08,0.032,0.215,0.116,0.406,0.25c0.305,0.212,0.614,0.317,0.928,0.317
			c0.476,0,0.894-0.18,1.254-0.54c0.36-0.36,0.54-0.799,0.54-1.315c0-0.5-0.161-0.967-0.482-1.4s-0.765-0.769-1.331-1.004
			c-0.443-0.184-1.048-0.289-1.812-0.317l1.587-3.217H28.043z"/>
		<path style="fill:#0066FF;" d="M34.037,38.863v5.566l1.422-1.3c0.301-0.276,0.476-0.451,0.525-0.524
			c0.033-0.049,0.049-0.098,0.049-0.146c0-0.082-0.034-0.151-0.101-0.211c-0.067-0.059-0.178-0.093-0.333-0.101v-0.195h2.429v0.195
			c-0.333,0.008-0.611,0.059-0.833,0.152s-0.465,0.261-0.729,0.501l-1.434,1.324l1.434,1.812c0.399,0.501,0.667,0.818,0.806,0.952
			c0.195,0.191,0.366,0.315,0.513,0.372c0.102,0.041,0.279,0.062,0.531,0.062v0.22H35.6v-0.22c0.154-0.004,0.259-0.027,0.314-0.07
			c0.055-0.043,0.083-0.103,0.083-0.18c0-0.094-0.082-0.244-0.244-0.452l-1.715-2.191v1.855c0,0.362,0.025,0.601,0.076,0.715
			c0.051,0.113,0.123,0.195,0.217,0.244c0.093,0.049,0.297,0.075,0.61,0.079v0.22h-2.845v-0.22c0.285,0,0.499-0.034,0.641-0.104
			c0.085-0.045,0.15-0.114,0.195-0.208c0.061-0.134,0.091-0.366,0.091-0.695v-5.091c0-0.646-0.014-1.042-0.042-1.187
			s-0.075-0.244-0.14-0.3c-0.065-0.055-0.151-0.082-0.257-0.082c-0.085,0-0.213,0.034-0.384,0.104l-0.104-0.214l1.66-0.684H34.037z"
			/>
		<path style="fill:#0066FF;" d="M40.128,45.504c-0.342-0.166-0.604-0.399-0.787-0.698s-0.274-0.63-0.274-0.992
			c0-0.553,0.208-1.029,0.625-1.428c0.417-0.399,0.951-0.599,1.602-0.599c0.533,0,0.995,0.131,1.386,0.391h1.184
			c0.175,0,0.277,0.006,0.306,0.016c0.028,0.01,0.049,0.027,0.061,0.052c0.024,0.036,0.037,0.102,0.037,0.195
			c0,0.105-0.01,0.179-0.031,0.22c-0.012,0.021-0.034,0.037-0.064,0.049c-0.031,0.012-0.133,0.019-0.309,0.019h-0.726
			c0.228,0.293,0.342,0.667,0.342,1.123c0,0.521-0.199,0.966-0.598,1.337c-0.399,0.37-0.934,0.555-1.605,0.555
			c-0.276,0-0.559-0.04-0.848-0.122c-0.179,0.155-0.3,0.29-0.363,0.406s-0.094,0.215-0.094,0.296c0,0.069,0.033,0.137,0.101,0.201
			c0.067,0.065,0.198,0.112,0.394,0.141c0.114,0.017,0.399,0.03,0.854,0.043c0.838,0.021,1.381,0.049,1.63,0.085
			c0.378,0.053,0.68,0.193,0.906,0.421c0.226,0.229,0.339,0.509,0.339,0.843c0,0.46-0.216,0.892-0.647,1.294
			c-0.635,0.594-1.462,0.891-2.484,0.891c-0.785,0-1.449-0.177-1.99-0.53c-0.305-0.204-0.458-0.415-0.458-0.635
			c0-0.098,0.022-0.195,0.067-0.293c0.069-0.15,0.211-0.36,0.427-0.629c0.028-0.036,0.236-0.257,0.623-0.659
			c-0.211-0.126-0.361-0.239-0.449-0.339s-0.131-0.213-0.131-0.339c0-0.143,0.058-0.309,0.174-0.5
			C39.441,46.125,39.709,45.854,40.128,45.504z M40.067,47.543c-0.191,0.207-0.336,0.4-0.434,0.58
			c-0.098,0.179-0.146,0.344-0.146,0.494c0,0.195,0.118,0.366,0.354,0.513c0.407,0.252,0.995,0.378,1.764,0.378
			c0.732,0,1.272-0.129,1.62-0.387c0.348-0.259,0.522-0.534,0.522-0.827c0-0.212-0.104-0.362-0.311-0.452
			c-0.212-0.089-0.631-0.143-1.258-0.158C41.264,47.659,40.56,47.612,40.067,47.543z M41.19,42.08c-0.301,0-0.554,0.12-0.757,0.36
			c-0.204,0.24-0.306,0.608-0.306,1.104c0,0.644,0.139,1.142,0.415,1.496c0.212,0.268,0.48,0.402,0.806,0.402
			c0.31,0,0.564-0.116,0.763-0.348c0.199-0.232,0.299-0.597,0.299-1.093c0-0.647-0.141-1.153-0.421-1.52
			C41.782,42.215,41.516,42.08,41.19,42.08z"/>
	</g>
	<g>
		<path style="fill:#0066FF;" d="M74.884,6.367h6.409v0.592h-6.409V6.367z M74.884,8.644h6.409v0.604h-6.409V8.644z"/>
	</g>
	<g>
		<path style="fill:#0066FF;" d="M0.226,33.281h6.409v0.592H0.226V33.281z M0.226,35.559h6.409v0.604H0.226V35.559z"/>
		<path style="fill:#0066FF;" d="M60.686,33.281h6.409v0.592h-6.409V33.281z M60.686,35.559h6.409v0.604h-6.409V35.559z"/>
	</g>
</g>
<g id="theGroup">
</g>
</svg>
