<?xml version="1.0" encoding="iso-8859-1"?>
<!-- Generator: Adobe Illustrator 16.0.0, SVG Export Plug-In . SVG Version: 6.00 Build 0)  -->
<!DOCTYPE svg PUBLIC "-//W3C//DTD SVG 1.1//EN" "http://www.w3.org/Graphics/SVG/1.1/DTD/svg11.dtd">
<svg version="1.1" id="Lager_1" xmlns="http://www.w3.org/2000/svg" xmlns:xlink="http://www.w3.org/1999/xlink" x="0px" y="0px"
	 width="70.837px" height="32.655px" viewBox="0 0 70.837 32.655" style="enable-background:new 0 0 70.837 32.655;"
	 xml:space="preserve">
<g>
	
		<line style="fill:none;stroke:#000000;stroke-width:0.5;stroke-linecap:square;stroke-miterlimit:10;" x1="12.071" y1="15.854" x2="18.907" y2="15.854"/>
	
		<line style="fill:none;stroke:#000000;stroke-width:0.5;stroke-linecap:square;stroke-miterlimit:10;" x1="33.047" y1="15.854" x2="49.61" y2="15.854"/>
	
		<line style="fill:none;stroke:#000000;stroke-width:0.5;stroke-linecap:square;stroke-miterlimit:10;" x1="63.751" y1="15.854" x2="70.587" y2="15.854"/>
	<g>
		<path d="M13.799,3.535l2.014-0.982h0.202v6.988c0,0.464,0.019,0.753,0.058,0.867c0.039,0.114,0.119,0.201,0.241,0.262
			s0.37,0.096,0.745,0.104V11h-3.113v-0.226c0.391-0.008,0.643-0.042,0.757-0.101c0.114-0.059,0.193-0.138,0.238-0.238
			c0.044-0.1,0.067-0.398,0.067-0.895V5.073c0-0.602-0.021-0.988-0.061-1.159c-0.028-0.13-0.081-0.226-0.156-0.287
			s-0.166-0.092-0.271-0.092c-0.15,0-0.36,0.063-0.628,0.189L13.799,3.535z"/>
		<path d="M34.056,4.298c0.236-0.558,0.534-0.988,0.894-1.291c0.36-0.303,0.809-0.455,1.346-0.455c0.664,0,1.172,0.216,1.525,0.647
			c0.27,0.321,0.404,0.666,0.404,1.032c0,0.602-0.379,1.225-1.137,1.867c0.51,0.2,0.895,0.484,1.154,0.854
			c0.26,0.371,0.391,0.806,0.391,1.307c0,0.716-0.229,1.336-0.684,1.861c-0.594,0.684-1.455,1.025-2.582,1.025
			c-0.558,0-0.937-0.069-1.139-0.208c-0.201-0.138-0.302-0.287-0.302-0.446c0-0.118,0.047-0.222,0.143-0.311s0.21-0.134,0.345-0.134
			c0.102,0,0.205,0.016,0.311,0.049c0.069,0.021,0.226,0.095,0.47,0.223c0.244,0.128,0.413,0.205,0.506,0.229
			c0.15,0.045,0.311,0.067,0.482,0.067c0.414,0,0.775-0.161,1.084-0.482c0.307-0.321,0.459-0.702,0.459-1.141
			c0-0.322-0.07-0.635-0.213-0.94c-0.105-0.228-0.221-0.4-0.348-0.519c-0.176-0.163-0.416-0.31-0.721-0.442
			s-0.616-0.198-0.933-0.198H35.32V6.709c0.321-0.041,0.644-0.156,0.967-0.348c0.323-0.191,0.558-0.421,0.704-0.689
			s0.221-0.564,0.221-0.885c0-0.419-0.131-0.758-0.395-1.016c-0.262-0.258-0.588-0.388-0.979-0.388
			c-0.631,0-1.158,0.338-1.581,1.013L34.056,4.298z"/>
		<path d="M45.387,3.535L47.4,2.553h0.202v6.988c0,0.464,0.019,0.753,0.058,0.867c0.039,0.114,0.119,0.201,0.241,0.262
			s0.37,0.096,0.745,0.104V11h-3.113v-0.226c0.391-0.008,0.643-0.042,0.757-0.101c0.114-0.059,0.193-0.138,0.238-0.238
			s0.067-0.398,0.067-0.895V5.073c0-0.602-0.021-0.988-0.062-1.159c-0.028-0.13-0.08-0.226-0.155-0.287
			c-0.076-0.061-0.166-0.092-0.271-0.092c-0.151,0-0.36,0.063-0.629,0.189L45.387,3.535z"/>
		<path d="M64.818,4.298c0.236-0.558,0.534-0.988,0.895-1.291c0.359-0.303,0.809-0.455,1.346-0.455c0.663,0,1.172,0.216,1.525,0.647
			c0.269,0.321,0.403,0.666,0.403,1.032c0,0.602-0.379,1.225-1.136,1.867c0.509,0.2,0.894,0.484,1.154,0.854
			c0.26,0.371,0.391,0.806,0.391,1.307c0,0.716-0.229,1.336-0.684,1.861c-0.595,0.684-1.455,1.025-2.582,1.025
			c-0.558,0-0.938-0.069-1.139-0.208s-0.302-0.287-0.302-0.446c0-0.118,0.048-0.222,0.144-0.311c0.095-0.089,0.21-0.134,0.345-0.134
			c0.102,0,0.205,0.016,0.312,0.049c0.068,0.021,0.226,0.095,0.47,0.223c0.244,0.128,0.413,0.205,0.507,0.229
			c0.15,0.045,0.311,0.067,0.481,0.067c0.415,0,0.776-0.161,1.084-0.482c0.307-0.321,0.46-0.702,0.46-1.141
			c0-0.322-0.07-0.635-0.213-0.94c-0.106-0.228-0.222-0.4-0.348-0.519c-0.176-0.163-0.416-0.31-0.721-0.442
			s-0.616-0.198-0.934-0.198h-0.195V6.709c0.321-0.041,0.644-0.156,0.967-0.348c0.324-0.191,0.559-0.421,0.705-0.689
			s0.22-0.564,0.22-0.885c0-0.419-0.131-0.758-0.394-1.016s-0.589-0.388-0.979-0.388c-0.631,0-1.157,0.338-1.581,1.013L64.818,4.298
			z"/>
	</g>
	<g>
		<path d="M0.635,12.482c0.236-0.558,0.534-0.988,0.894-1.291c0.36-0.303,0.809-0.455,1.346-0.455c0.663,0,1.172,0.216,1.525,0.647
			c0.269,0.321,0.403,0.666,0.403,1.032c0,0.602-0.379,1.225-1.136,1.867c0.509,0.2,0.894,0.484,1.154,0.854
			c0.26,0.371,0.391,0.806,0.391,1.307c0,0.716-0.228,1.336-0.684,1.861c-0.594,0.684-1.455,1.025-2.582,1.025
			c-0.558,0-0.937-0.069-1.139-0.207c-0.201-0.139-0.302-0.287-0.302-0.446c0-0.118,0.047-0.222,0.143-0.312
			c0.096-0.089,0.21-0.134,0.345-0.134c0.102,0,0.205,0.017,0.311,0.049c0.069,0.021,0.226,0.095,0.47,0.223
			s0.413,0.204,0.506,0.229c0.15,0.044,0.311,0.066,0.482,0.066c0.415,0,0.776-0.16,1.083-0.482
			c0.307-0.321,0.461-0.701,0.461-1.141c0-0.321-0.071-0.635-0.213-0.94c-0.106-0.228-0.222-0.4-0.348-0.519
			c-0.175-0.163-0.415-0.31-0.72-0.442s-0.616-0.198-0.934-0.198H1.898v-0.184c0.321-0.041,0.644-0.156,0.967-0.348
			c0.323-0.191,0.558-0.421,0.705-0.689s0.22-0.564,0.22-0.885c0-0.419-0.131-0.758-0.394-1.016
			c-0.262-0.258-0.589-0.388-0.979-0.388c-0.631,0-1.158,0.338-1.581,1.013L0.635,12.482z"/>
	</g>
	<g>
		<path d="M17.887,20.546l-0.476,1.038h-2.49l-0.543,1.11c1.078,0.159,1.933,0.56,2.563,1.202c0.541,0.554,0.812,1.205,0.812,1.953
			c0,0.436-0.089,0.839-0.266,1.209c-0.177,0.37-0.4,0.686-0.668,0.945c-0.269,0.261-0.568,0.471-0.897,0.629
			c-0.468,0.224-0.948,0.336-1.44,0.336c-0.497,0-0.858-0.085-1.083-0.253c-0.226-0.169-0.339-0.355-0.339-0.559
			c0-0.114,0.047-0.215,0.14-0.303c0.094-0.087,0.212-0.131,0.354-0.131c0.105,0,0.198,0.017,0.277,0.049
			c0.08,0.032,0.215,0.116,0.406,0.25c0.305,0.212,0.614,0.317,0.928,0.317c0.476,0,0.894-0.18,1.254-0.54
			c0.36-0.36,0.54-0.799,0.54-1.315c0-0.5-0.161-0.967-0.482-1.4s-0.765-0.769-1.331-1.004c-0.443-0.184-1.048-0.289-1.812-0.317
			l1.587-3.217H17.887z"/>
		<path d="M43.736,20.546l-0.476,1.038h-2.49l-0.544,1.11c1.079,0.159,1.934,0.56,2.564,1.202c0.541,0.554,0.812,1.205,0.812,1.953
			c0,0.436-0.089,0.839-0.266,1.209s-0.399,0.686-0.669,0.945c-0.268,0.261-0.567,0.471-0.896,0.629
			c-0.468,0.224-0.948,0.336-1.44,0.336c-0.497,0-0.857-0.085-1.084-0.253c-0.226-0.169-0.339-0.355-0.339-0.559
			c0-0.114,0.047-0.215,0.141-0.303c0.094-0.087,0.212-0.131,0.354-0.131c0.105,0,0.198,0.017,0.277,0.049s0.215,0.116,0.406,0.25
			c0.305,0.212,0.614,0.317,0.928,0.317c0.476,0,0.894-0.18,1.254-0.54s0.54-0.799,0.54-1.315c0-0.5-0.16-0.967-0.482-1.4
			c-0.321-0.434-0.765-0.769-1.33-1.004c-0.443-0.184-1.048-0.289-1.812-0.317l1.587-3.217H43.736z"/>
		<path d="M69.549,20.546l-0.476,1.038h-2.49l-0.544,1.11c1.079,0.159,1.934,0.56,2.564,1.202c0.541,0.554,0.812,1.205,0.812,1.953
			c0,0.436-0.089,0.839-0.266,1.209s-0.399,0.686-0.669,0.945c-0.268,0.261-0.567,0.471-0.896,0.629
			c-0.468,0.224-0.948,0.336-1.44,0.336c-0.497,0-0.857-0.085-1.084-0.253c-0.226-0.169-0.339-0.355-0.339-0.559
			c0-0.114,0.047-0.215,0.141-0.303c0.094-0.087,0.212-0.131,0.354-0.131c0.105,0,0.198,0.017,0.277,0.049s0.215,0.116,0.406,0.25
			c0.305,0.212,0.614,0.317,0.928,0.317c0.476,0,0.894-0.18,1.254-0.54s0.54-0.799,0.54-1.315c0-0.5-0.16-0.967-0.482-1.4
			c-0.321-0.434-0.765-0.769-1.33-1.004c-0.443-0.184-1.048-0.289-1.812-0.317l1.587-3.217H69.549z"/>
	</g>
	<g>
		<path d="M42.781,7.802c0,0.187-0.066,0.347-0.199,0.479c-0.132,0.132-0.289,0.199-0.473,0.199c-0.188,0-0.347-0.066-0.479-0.199
			c-0.132-0.132-0.198-0.292-0.198-0.479s0.066-0.347,0.198-0.479c0.133-0.132,0.292-0.199,0.479-0.199
			c0.184,0,0.341,0.066,0.473,0.199C42.715,7.455,42.781,7.615,42.781,7.802z"/>
	</g>
	<g>
		<path d="M9.343,15.985c0,0.187-0.066,0.348-0.198,0.479c-0.132,0.133-0.29,0.199-0.473,0.199c-0.187,0-0.347-0.066-0.479-0.199
			c-0.132-0.131-0.199-0.292-0.199-0.479s0.066-0.347,0.199-0.479c0.132-0.132,0.292-0.199,0.479-0.199
			c0.183,0,0.341,0.066,0.473,0.199C9.277,15.639,9.343,15.798,9.343,15.985z"/>
		<path d="M22.685,14.551h6.409v0.592h-6.409V14.551z M22.685,16.827h6.409v0.604h-6.409V16.827z"/>
		<path d="M53.383,14.551h6.409v0.592h-6.409V14.551z M53.383,16.827h6.409v0.604h-6.409V16.827z"/>
	</g>
</g>
<g id="theGroup">
</g>
</svg>
