<?xml version="1.0" encoding="iso-8859-1"?>
<!-- Generator: Adobe Illustrator 16.0.0, SVG Export Plug-In . SVG Version: 6.00 Build 0)  -->
<!DOCTYPE svg PUBLIC "-//W3C//DTD SVG 1.1//EN" "http://www.w3.org/Graphics/SVG/1.1/DTD/svg11.dtd">
<svg version="1.1" id="Lager_1" xmlns="http://www.w3.org/2000/svg" xmlns:xlink="http://www.w3.org/1999/xlink" x="0px" y="0px"
	 width="110.642px" height="51.376px" viewBox="0 0 110.642 51.376" style="enable-background:new 0 0 110.642 51.376;"
	 xml:space="preserve">
<g>
	
		<line style="fill:none;stroke:#0066FF;stroke-width:0.5;stroke-linecap:square;stroke-miterlimit:10;" x1="10.586" y1="34.595" x2="64.688" y2="34.595"/>
	<g>
		<path style="fill:#0066FF;" d="M5.115,11L1.917,4.036v5.529c0,0.509,0.055,0.826,0.165,0.952c0.151,0.171,0.389,0.257,0.714,0.257
			h0.293V11H0.208v-0.226H0.5c0.35,0,0.598-0.106,0.745-0.317c0.089-0.13,0.134-0.428,0.134-0.892V4.158
			c0-0.366-0.041-0.631-0.122-0.794C1.2,3.247,1.096,3.148,0.943,3.068C0.791,2.989,0.545,2.949,0.208,2.949V2.724h2.344
			l3.003,6.476l2.954-6.476h2.344v0.226h-0.287c-0.354,0-0.604,0.106-0.751,0.317C9.725,3.397,9.68,3.694,9.68,4.158v5.407
			c0,0.509,0.057,0.826,0.171,0.952c0.15,0.171,0.389,0.257,0.714,0.257h0.287V11H7.336v-0.226h0.293
			c0.354,0,0.602-0.106,0.745-0.317c0.089-0.13,0.134-0.428,0.134-0.892V4.036L5.316,11H5.115z"/>
		<path style="fill:#0066FF;" d="M14.686,10.194c-0.574,0.443-0.934,0.7-1.081,0.769c-0.22,0.102-0.454,0.153-0.702,0.153
			c-0.387,0-0.705-0.132-0.956-0.397c-0.25-0.265-0.375-0.612-0.375-1.043c0-0.273,0.062-0.509,0.184-0.708
			c0.167-0.277,0.457-0.537,0.87-0.781c0.413-0.244,1.1-0.542,2.06-0.892v-0.22c0-0.557-0.089-0.939-0.266-1.147
			c-0.177-0.207-0.435-0.311-0.772-0.311c-0.256,0-0.459,0.069-0.61,0.208c-0.154,0.138-0.231,0.297-0.231,0.476l0.012,0.354
			c0,0.187-0.048,0.332-0.143,0.434c-0.096,0.102-0.221,0.152-0.375,0.152c-0.15,0-0.274-0.053-0.369-0.159
			c-0.096-0.106-0.144-0.25-0.144-0.433c0-0.35,0.179-0.672,0.537-0.965s0.86-0.439,1.508-0.439c0.496,0,0.903,0.083,1.221,0.25
			c0.24,0.126,0.417,0.324,0.531,0.592c0.073,0.175,0.11,0.533,0.11,1.074v1.898c0,0.533,0.01,0.86,0.03,0.979
			c0.021,0.12,0.054,0.201,0.101,0.241c0.046,0.041,0.101,0.061,0.162,0.061c0.065,0,0.122-0.014,0.171-0.043
			c0.085-0.053,0.25-0.201,0.494-0.445v0.342c-0.456,0.61-0.891,0.916-1.306,0.916c-0.2,0-0.358-0.069-0.477-0.208
			C14.75,10.764,14.689,10.528,14.686,10.194z M12.842,2.84c0.188,0,0.345,0.065,0.473,0.195c0.128,0.13,0.192,0.287,0.192,0.47
			s-0.065,0.339-0.195,0.467c-0.13,0.128-0.285,0.192-0.464,0.192c-0.183,0-0.34-0.064-0.47-0.192
			c-0.13-0.128-0.195-0.284-0.195-0.467s0.064-0.34,0.192-0.47C12.503,2.905,12.659,2.84,12.842,2.84z M14.686,9.798v-2.13
			c-0.615,0.244-1.011,0.417-1.19,0.519c-0.321,0.179-0.551,0.366-0.689,0.562c-0.139,0.195-0.208,0.409-0.208,0.641
			c0,0.293,0.088,0.536,0.263,0.729s0.376,0.29,0.604,0.29C13.774,10.408,14.181,10.205,14.686,9.798z M14.997,2.84
			c0.183,0,0.339,0.065,0.467,0.195c0.128,0.13,0.192,0.287,0.192,0.47s-0.064,0.339-0.192,0.467
			C15.335,4.1,15.18,4.164,14.997,4.164s-0.34-0.064-0.47-0.192c-0.13-0.128-0.195-0.284-0.195-0.467s0.065-0.34,0.195-0.47
			C14.657,2.905,14.813,2.84,14.997,2.84z"/>
		<path style="fill:#0066FF;" d="M18.621,6.429c0.655-0.79,1.279-1.185,1.874-1.185c0.305,0,0.568,0.077,0.788,0.229
			c0.22,0.153,0.395,0.404,0.524,0.754c0.09,0.244,0.135,0.619,0.135,1.123v2.386c0,0.354,0.028,0.594,0.085,0.721
			c0.045,0.102,0.117,0.181,0.217,0.238s0.284,0.085,0.553,0.085V11H20.03v-0.22h0.116c0.261,0,0.443-0.04,0.546-0.119
			c0.104-0.079,0.176-0.196,0.217-0.351c0.016-0.062,0.024-0.252,0.024-0.574V7.448c0-0.509-0.066-0.878-0.198-1.108
			c-0.132-0.229-0.355-0.345-0.668-0.345c-0.484,0-0.966,0.265-1.446,0.793v2.948c0,0.379,0.022,0.613,0.067,0.702
			c0.057,0.118,0.135,0.205,0.235,0.259c0.1,0.055,0.302,0.083,0.607,0.083V11h-2.765v-0.22h0.122c0.285,0,0.477-0.072,0.577-0.217
			c0.1-0.144,0.149-0.42,0.149-0.827V7.661c0-0.671-0.015-1.08-0.046-1.227c-0.03-0.146-0.077-0.246-0.14-0.299
			c-0.063-0.053-0.147-0.08-0.253-0.08c-0.114,0-0.25,0.031-0.409,0.091l-0.092-0.22l1.685-0.684h0.263V6.429z"/>
		<path style="fill:#0066FF;" d="M24.736,8.961c-0.342-0.167-0.604-0.4-0.787-0.699c-0.183-0.299-0.274-0.63-0.274-0.992
			c0-0.553,0.208-1.029,0.625-1.428c0.417-0.399,0.951-0.599,1.602-0.599c0.533,0,0.995,0.13,1.386,0.391h1.184
			c0.175,0,0.277,0.005,0.306,0.016c0.028,0.01,0.049,0.027,0.061,0.052c0.024,0.037,0.037,0.102,0.037,0.195
			c0,0.106-0.01,0.179-0.031,0.22c-0.012,0.021-0.034,0.037-0.064,0.049c-0.031,0.012-0.133,0.019-0.309,0.019h-0.726
			c0.228,0.293,0.342,0.667,0.342,1.123c0,0.521-0.199,0.966-0.598,1.336s-0.934,0.555-1.605,0.555
			c-0.276,0-0.559-0.041-0.848-0.122c-0.179,0.155-0.3,0.29-0.363,0.406c-0.063,0.116-0.094,0.214-0.094,0.296
			c0,0.069,0.033,0.136,0.101,0.201c0.067,0.065,0.198,0.112,0.394,0.141c0.114,0.016,0.399,0.03,0.854,0.043
			c0.838,0.02,1.381,0.049,1.63,0.085c0.378,0.053,0.68,0.193,0.906,0.421c0.226,0.228,0.339,0.509,0.339,0.842
			c0,0.46-0.216,0.891-0.647,1.294c-0.635,0.594-1.462,0.891-2.484,0.891c-0.785,0-1.449-0.177-1.99-0.531
			c-0.305-0.204-0.458-0.415-0.458-0.635c0-0.098,0.022-0.195,0.067-0.293c0.069-0.151,0.211-0.36,0.427-0.629
			c0.028-0.037,0.236-0.256,0.623-0.659c-0.211-0.126-0.361-0.239-0.449-0.339c-0.087-0.1-0.131-0.212-0.131-0.339
			c0-0.142,0.058-0.309,0.174-0.5C24.049,9.582,24.317,9.312,24.736,8.961z M24.675,11c-0.191,0.208-0.336,0.401-0.434,0.58
			c-0.098,0.179-0.146,0.344-0.146,0.494c0,0.195,0.118,0.366,0.354,0.513c0.407,0.252,0.995,0.378,1.764,0.378
			c0.732,0,1.272-0.129,1.62-0.388c0.348-0.258,0.522-0.534,0.522-0.827c0-0.212-0.104-0.362-0.311-0.452
			c-0.212-0.089-0.631-0.142-1.258-0.158C25.872,11.116,25.167,11.069,24.675,11z M25.798,5.537c-0.301,0-0.554,0.12-0.757,0.36
			c-0.204,0.24-0.306,0.608-0.306,1.104c0,0.643,0.139,1.142,0.415,1.496c0.212,0.269,0.48,0.403,0.806,0.403
			c0.31,0,0.564-0.116,0.763-0.348c0.199-0.232,0.299-0.596,0.299-1.093c0-0.647-0.141-1.153-0.421-1.52
			C26.39,5.672,26.124,5.537,25.798,5.537z"/>
		<path style="fill:#0066FF;" d="M33.44,10.371c-0.273,0.285-0.54,0.49-0.8,0.614s-0.541,0.186-0.842,0.186
			c-0.61,0-1.144-0.255-1.599-0.766c-0.456-0.51-0.684-1.167-0.684-1.968s0.252-1.535,0.757-2.2
			c0.504-0.666,1.153-0.998,1.947-0.998c0.492,0,0.899,0.157,1.221,0.47V4.677c0-0.639-0.016-1.031-0.046-1.178
			C33.363,3.353,33.315,3.252,33.25,3.2s-0.146-0.08-0.244-0.08c-0.106,0-0.246,0.033-0.421,0.098l-0.08-0.213l1.667-0.684h0.274
			v6.463c0,0.655,0.015,1.055,0.046,1.2c0.03,0.145,0.079,0.245,0.146,0.302c0.067,0.057,0.146,0.085,0.235,0.085
			c0.11,0,0.256-0.034,0.439-0.104l0.067,0.214l-1.66,0.689h-0.28V10.371z M33.44,9.944V7.063c-0.024-0.277-0.098-0.529-0.22-0.757
			c-0.122-0.228-0.284-0.4-0.485-0.516c-0.202-0.116-0.398-0.174-0.589-0.174c-0.358,0-0.678,0.161-0.958,0.482
			c-0.37,0.423-0.555,1.042-0.555,1.855c0,0.822,0.179,1.452,0.537,1.889c0.358,0.438,0.757,0.656,1.196,0.656
			C32.736,10.5,33.094,10.314,33.44,9.944z"/>
		<path style="fill:#0066FF;" d="M36.681,7.515c-0.004,0.83,0.197,1.481,0.604,1.953c0.407,0.472,0.885,0.708,1.435,0.708
			c0.366,0,0.685-0.101,0.955-0.302c0.271-0.202,0.498-0.546,0.681-1.035l0.189,0.122c-0.086,0.558-0.334,1.065-0.745,1.523
			c-0.411,0.458-0.925,0.687-1.544,0.687c-0.671,0-1.246-0.261-1.724-0.784c-0.479-0.523-0.717-1.226-0.717-2.109
			c0-0.956,0.245-1.702,0.735-2.237s1.106-0.803,1.847-0.803c0.626,0,1.141,0.207,1.544,0.62s0.604,0.965,0.604,1.657H36.681z
			 M36.681,7.161h2.588c-0.021-0.358-0.063-0.61-0.128-0.757c-0.102-0.228-0.253-0.407-0.455-0.537
			c-0.201-0.13-0.412-0.195-0.631-0.195c-0.338,0-0.64,0.131-0.907,0.394C36.881,6.328,36.726,6.693,36.681,7.161z"/>
		<path style="fill:#0066FF;" d="M42.844,6.429c0.655-0.79,1.279-1.185,1.874-1.185c0.305,0,0.568,0.077,0.788,0.229
			c0.22,0.153,0.395,0.404,0.524,0.754c0.09,0.244,0.135,0.619,0.135,1.123v2.386c0,0.354,0.028,0.594,0.085,0.721
			c0.045,0.102,0.117,0.181,0.217,0.238s0.284,0.085,0.553,0.085V11h-2.765v-0.22h0.116c0.261,0,0.443-0.04,0.546-0.119
			c0.104-0.079,0.176-0.196,0.217-0.351c0.016-0.062,0.024-0.252,0.024-0.574V7.448c0-0.509-0.066-0.878-0.198-1.108
			c-0.132-0.229-0.355-0.345-0.668-0.345c-0.484,0-0.966,0.265-1.446,0.793v2.948c0,0.379,0.022,0.613,0.067,0.702
			c0.057,0.118,0.135,0.205,0.235,0.259c0.1,0.055,0.302,0.083,0.607,0.083V11h-2.765v-0.22h0.122c0.285,0,0.477-0.072,0.577-0.217
			c0.1-0.144,0.149-0.42,0.149-0.827V7.661c0-0.671-0.015-1.08-0.046-1.227c-0.03-0.146-0.077-0.246-0.14-0.299
			c-0.063-0.053-0.147-0.08-0.253-0.08c-0.114,0-0.25,0.031-0.409,0.091l-0.092-0.22l1.685-0.684h0.263V6.429z"/>
		<path style="fill:#0066FF;" d="M52.084,8.961c-0.342-0.167-0.604-0.4-0.787-0.699c-0.183-0.299-0.274-0.63-0.274-0.992
			c0-0.553,0.208-1.029,0.625-1.428c0.417-0.399,0.951-0.599,1.602-0.599c0.533,0,0.995,0.13,1.386,0.391h1.184
			c0.175,0,0.277,0.005,0.306,0.016c0.028,0.01,0.049,0.027,0.061,0.052c0.024,0.037,0.037,0.102,0.037,0.195
			c0,0.106-0.01,0.179-0.031,0.22c-0.012,0.021-0.034,0.037-0.064,0.049c-0.031,0.012-0.133,0.019-0.309,0.019h-0.726
			c0.228,0.293,0.342,0.667,0.342,1.123c0,0.521-0.199,0.966-0.598,1.336s-0.934,0.555-1.605,0.555
			c-0.276,0-0.559-0.041-0.848-0.122c-0.179,0.155-0.3,0.29-0.363,0.406c-0.063,0.116-0.094,0.214-0.094,0.296
			c0,0.069,0.033,0.136,0.101,0.201c0.067,0.065,0.198,0.112,0.394,0.141c0.114,0.016,0.399,0.03,0.854,0.043
			c0.838,0.02,1.381,0.049,1.63,0.085c0.378,0.053,0.68,0.193,0.906,0.421c0.226,0.228,0.339,0.509,0.339,0.842
			c0,0.46-0.216,0.891-0.647,1.294c-0.635,0.594-1.462,0.891-2.484,0.891c-0.785,0-1.449-0.177-1.99-0.531
			c-0.305-0.204-0.458-0.415-0.458-0.635c0-0.098,0.022-0.195,0.067-0.293c0.069-0.151,0.211-0.36,0.427-0.629
			c0.028-0.037,0.236-0.256,0.623-0.659c-0.211-0.126-0.361-0.239-0.449-0.339c-0.087-0.1-0.131-0.212-0.131-0.339
			c0-0.142,0.058-0.309,0.174-0.5C51.397,9.582,51.665,9.312,52.084,8.961z M52.023,11c-0.191,0.208-0.336,0.401-0.434,0.58
			c-0.098,0.179-0.146,0.344-0.146,0.494c0,0.195,0.118,0.366,0.354,0.513c0.407,0.252,0.995,0.378,1.764,0.378
			c0.732,0,1.272-0.129,1.62-0.388c0.348-0.258,0.522-0.534,0.522-0.827c0-0.212-0.104-0.362-0.311-0.452
			c-0.212-0.089-0.631-0.142-1.258-0.158C53.22,11.116,52.516,11.069,52.023,11z M53.146,5.537c-0.301,0-0.554,0.12-0.757,0.36
			c-0.204,0.24-0.306,0.608-0.306,1.104c0,0.643,0.139,1.142,0.415,1.496c0.212,0.269,0.48,0.403,0.806,0.403
			c0.31,0,0.564-0.116,0.763-0.348c0.199-0.232,0.299-0.596,0.299-1.093c0-0.647-0.141-1.153-0.421-1.52
			C53.738,5.672,53.472,5.537,53.146,5.537z"/>
		<path style="fill:#0066FF;" d="M59.573,5.244c0.847,0,1.525,0.322,2.039,0.965c0.435,0.549,0.652,1.18,0.652,1.892
			c0,0.501-0.12,1.007-0.359,1.52c-0.24,0.513-0.571,0.899-0.992,1.16s-0.891,0.391-1.407,0.391c-0.842,0-1.512-0.336-2.008-1.007
			c-0.419-0.566-0.629-1.201-0.629-1.904c0-0.513,0.127-1.022,0.382-1.529c0.254-0.506,0.589-0.881,1.004-1.123
			C58.67,5.366,59.109,5.244,59.573,5.244z M59.384,5.641c-0.216,0-0.433,0.064-0.649,0.192c-0.218,0.128-0.394,0.353-0.528,0.674
			s-0.201,0.734-0.201,1.239c0,0.813,0.161,1.516,0.485,2.105c0.323,0.59,0.749,0.885,1.278,0.885c0.395,0,0.721-0.163,0.977-0.488
			c0.256-0.325,0.385-0.885,0.385-1.678c0-0.993-0.214-1.774-0.641-2.344C60.2,5.836,59.832,5.641,59.384,5.641z"/>
		<path style="fill:#0066FF;" d="M67.038,10.371c-0.272,0.285-0.539,0.49-0.8,0.614s-0.541,0.186-0.843,0.186
			c-0.609,0-1.143-0.255-1.599-0.766c-0.456-0.51-0.684-1.167-0.684-1.968s0.252-1.535,0.757-2.2
			c0.505-0.666,1.153-0.998,1.947-0.998c0.492,0,0.899,0.157,1.221,0.47V4.677c0-0.639-0.016-1.031-0.046-1.178
			S66.914,3.252,66.849,3.2s-0.146-0.08-0.244-0.08c-0.105,0-0.246,0.033-0.421,0.098l-0.079-0.213l1.666-0.684h0.274v6.463
			c0,0.655,0.016,1.055,0.046,1.2s0.079,0.245,0.146,0.302c0.067,0.057,0.146,0.085,0.234,0.085c0.11,0,0.257-0.034,0.439-0.104
			l0.067,0.214l-1.66,0.689h-0.28V10.371z M67.038,9.944V7.063c-0.024-0.277-0.098-0.529-0.22-0.757
			c-0.122-0.228-0.284-0.4-0.485-0.516c-0.201-0.116-0.397-0.174-0.589-0.174c-0.358,0-0.678,0.161-0.958,0.482
			c-0.371,0.423-0.556,1.042-0.556,1.855c0,0.822,0.179,1.452,0.537,1.889c0.357,0.438,0.757,0.656,1.196,0.656
			C66.334,10.5,66.692,10.314,67.038,9.944z"/>
		<path style="fill:#0066FF;" d="M71.268,5.244v4.492c0,0.35,0.025,0.583,0.076,0.699c0.051,0.116,0.126,0.202,0.226,0.259
			s0.282,0.085,0.547,0.085V11h-2.717v-0.22c0.273,0,0.456-0.026,0.55-0.079c0.094-0.053,0.168-0.141,0.223-0.263
			s0.083-0.356,0.083-0.702V7.582c0-0.606-0.019-0.999-0.056-1.178c-0.028-0.13-0.073-0.221-0.134-0.272
			c-0.062-0.051-0.145-0.076-0.25-0.076c-0.114,0-0.253,0.031-0.416,0.091l-0.085-0.22l1.685-0.684H71.268z M70.761,2.321
			c0.171,0,0.316,0.06,0.437,0.18s0.181,0.266,0.181,0.437s-0.061,0.317-0.181,0.439S70.932,3.56,70.761,3.56
			s-0.317-0.061-0.439-0.183s-0.183-0.269-0.183-0.439s0.06-0.316,0.18-0.437S70.586,2.321,70.761,2.321z"/>
		<path style="fill:#0066FF;" d="M76.463,5.244v1.904h-0.201c-0.155-0.598-0.354-1.005-0.596-1.221
			c-0.242-0.215-0.55-0.323-0.924-0.323c-0.285,0-0.516,0.075-0.69,0.226c-0.175,0.151-0.263,0.317-0.263,0.501
			c0,0.228,0.065,0.423,0.195,0.586c0.127,0.167,0.383,0.344,0.77,0.531l0.891,0.433c0.826,0.403,1.239,0.934,1.239,1.593
			c0,0.509-0.192,0.918-0.576,1.23c-0.385,0.311-0.815,0.467-1.291,0.467c-0.342,0-0.732-0.061-1.172-0.183
			c-0.135-0.041-0.244-0.061-0.33-0.061c-0.094,0-0.167,0.053-0.22,0.159h-0.201V9.09h0.201c0.114,0.569,0.332,0.999,0.653,1.288
			s0.682,0.433,1.08,0.433c0.281,0,0.51-0.082,0.687-0.247c0.178-0.165,0.266-0.363,0.266-0.595c0-0.281-0.099-0.517-0.296-0.708
			c-0.197-0.191-0.591-0.434-1.181-0.727s-0.977-0.558-1.16-0.793c-0.183-0.232-0.274-0.525-0.274-0.879
			c0-0.46,0.157-0.844,0.473-1.154c0.315-0.309,0.724-0.464,1.224-0.464c0.221,0,0.486,0.047,0.8,0.141
			c0.208,0.061,0.346,0.092,0.415,0.092c0.065,0,0.116-0.015,0.152-0.043c0.037-0.028,0.08-0.092,0.129-0.189H76.463z"/>
	</g>
	<g>
		<path style="fill:#0066FF;" d="M29.851,21.303v0.226c-0.537,0.053-0.976,0.16-1.315,0.321s-0.675,0.406-1.007,0.735
			c-0.332,0.33-0.606,0.697-0.824,1.102c-0.218,0.405-0.4,0.886-0.546,1.444c0.586-0.403,1.174-0.604,1.764-0.604
			c0.565,0,1.056,0.228,1.471,0.684s0.622,1.041,0.622,1.758c0,0.691-0.209,1.322-0.628,1.893c-0.504,0.691-1.172,1.037-2.002,1.037
			c-0.565,0-1.046-0.188-1.44-0.562c-0.773-0.729-1.16-1.673-1.16-2.832c0-0.741,0.148-1.444,0.445-2.112
			c0.297-0.667,0.721-1.259,1.273-1.776c0.551-0.517,1.079-0.865,1.583-1.044c0.505-0.179,0.975-0.269,1.41-0.269H29.851z
			 M26.055,25.575c-0.073,0.549-0.11,0.993-0.11,1.331c0,0.391,0.072,0.814,0.217,1.272c0.144,0.457,0.359,0.82,0.644,1.089
			c0.207,0.191,0.459,0.287,0.757,0.287c0.354,0,0.67-0.167,0.949-0.5c0.279-0.334,0.418-0.811,0.418-1.429
			c0-0.696-0.139-1.298-0.415-1.807c-0.277-0.509-0.669-0.763-1.178-0.763c-0.155,0-0.32,0.032-0.498,0.098
			C26.662,25.219,26.4,25.359,26.055,25.575z"/>
		<path style="fill:#0066FF;" d="M30.95,25.661c0-0.944,0.143-1.757,0.427-2.438c0.285-0.681,0.663-1.189,1.135-1.523
			c0.366-0.264,0.745-0.396,1.135-0.396c0.635,0,1.205,0.323,1.709,0.971c0.631,0.801,0.946,1.888,0.946,3.259
			c0,0.96-0.139,1.776-0.415,2.448c-0.277,0.671-0.63,1.158-1.059,1.461c-0.43,0.304-0.843,0.455-1.242,0.455
			c-0.79,0-1.447-0.466-1.971-1.397C31.171,27.714,30.95,26.768,30.95,25.661z M32.146,25.813c0,1.139,0.14,2.069,0.421,2.789
			c0.231,0.606,0.578,0.909,1.037,0.909c0.22,0,0.448-0.099,0.684-0.296c0.236-0.197,0.415-0.528,0.537-0.991
			c0.188-0.7,0.281-1.688,0.281-2.961c0-0.944-0.098-1.731-0.293-2.362c-0.146-0.468-0.336-0.799-0.568-0.995
			c-0.167-0.135-0.368-0.202-0.604-0.202c-0.277,0-0.523,0.124-0.739,0.373c-0.293,0.337-0.492,0.869-0.598,1.593
			S32.146,25.109,32.146,25.813z"/>
		<path style="fill:#0066FF;" d="M42.306,21.071v5.566l1.422-1.3c0.301-0.276,0.476-0.451,0.525-0.524
			c0.033-0.049,0.049-0.098,0.049-0.146c0-0.082-0.034-0.152-0.101-0.211c-0.067-0.059-0.178-0.092-0.333-0.101v-0.195h2.429v0.195
			c-0.333,0.008-0.611,0.059-0.833,0.152c-0.222,0.094-0.465,0.261-0.729,0.501L43.3,26.332l1.434,1.812
			c0.399,0.501,0.667,0.818,0.806,0.952c0.195,0.191,0.366,0.315,0.513,0.372c0.102,0.041,0.279,0.062,0.531,0.062v0.22h-2.716
			v-0.22c0.154-0.004,0.259-0.027,0.314-0.07c0.055-0.043,0.083-0.103,0.083-0.18c0-0.094-0.082-0.244-0.244-0.452l-1.715-2.191
			v1.855c0,0.362,0.025,0.601,0.076,0.715c0.051,0.113,0.123,0.195,0.217,0.244c0.093,0.049,0.297,0.075,0.61,0.079v0.22h-2.845
			v-0.22c0.285,0,0.499-0.034,0.641-0.104c0.085-0.045,0.15-0.114,0.195-0.208c0.061-0.134,0.091-0.366,0.091-0.695v-5.091
			c0-0.646-0.014-1.042-0.042-1.187c-0.028-0.144-0.075-0.244-0.14-0.299c-0.065-0.055-0.151-0.083-0.257-0.083
			c-0.085,0-0.213,0.035-0.384,0.104l-0.104-0.213l1.66-0.684H42.306z"/>
		<path style="fill:#0066FF;" d="M48.537,23.994v1.258c0.468-0.838,0.948-1.258,1.44-1.258c0.224,0,0.409,0.068,0.556,0.205
			c0.146,0.137,0.22,0.294,0.22,0.473c0,0.159-0.053,0.293-0.159,0.403c-0.105,0.11-0.231,0.165-0.378,0.165
			c-0.143,0-0.302-0.07-0.479-0.21c-0.177-0.14-0.308-0.21-0.394-0.21c-0.073,0-0.152,0.041-0.238,0.122
			c-0.183,0.167-0.372,0.441-0.567,0.824v2.679c0,0.31,0.039,0.544,0.116,0.702c0.053,0.11,0.146,0.202,0.28,0.274
			c0.135,0.074,0.328,0.11,0.58,0.11v0.22h-2.862v-0.22c0.285,0,0.496-0.045,0.635-0.134c0.102-0.065,0.173-0.169,0.213-0.312
			c0.021-0.069,0.031-0.267,0.031-0.593v-2.166c0-0.651-0.014-1.039-0.04-1.163c-0.026-0.124-0.075-0.214-0.146-0.271
			s-0.16-0.085-0.266-0.085c-0.126,0-0.269,0.031-0.427,0.091l-0.062-0.22l1.691-0.684H48.537z"/>
	</g>
	<g>
		<path style="fill:#0066FF;" d="M80.24,33.745c-0.655-0.537-1.077-0.968-1.267-1.294c-0.188-0.325-0.283-0.663-0.283-1.013
			c0-0.537,0.207-1,0.622-1.389s0.967-0.583,1.654-0.583c0.667,0,1.204,0.181,1.611,0.543s0.61,0.775,0.61,1.239
			c0,0.31-0.11,0.625-0.329,0.946c-0.221,0.321-0.678,0.699-1.374,1.135c0.717,0.554,1.19,0.989,1.423,1.307
			c0.309,0.415,0.463,0.853,0.463,1.312c0,0.581-0.222,1.079-0.665,1.492s-1.025,0.619-1.745,0.619
			c-0.785,0-1.398-0.246-1.838-0.738c-0.35-0.395-0.524-0.826-0.524-1.294c0-0.366,0.123-0.729,0.369-1.09
			S79.639,34.181,80.24,33.745z M80.527,33.978c-0.338,0.284-0.588,0.595-0.751,0.931c-0.162,0.336-0.244,0.699-0.244,1.09
			c0,0.524,0.144,0.944,0.431,1.26s0.652,0.473,1.096,0.473c0.439,0,0.791-0.124,1.056-0.372s0.396-0.549,0.396-0.903
			c0-0.293-0.077-0.555-0.231-0.787C81.99,35.236,81.406,34.673,80.527,33.978z M81.199,33.092c0.488-0.439,0.797-0.786,0.928-1.04
			c0.13-0.254,0.195-0.542,0.195-0.864c0-0.427-0.12-0.762-0.36-1.004c-0.24-0.241-0.567-0.363-0.983-0.363
			c-0.414,0-0.752,0.12-1.013,0.36s-0.391,0.521-0.391,0.843c0,0.211,0.054,0.423,0.162,0.635c0.107,0.211,0.261,0.413,0.46,0.604
			L81.199,33.092z"/>
		<path style="fill:#0066FF;" d="M84.376,39.995v-0.269c0.419-0.138,0.743-0.353,0.973-0.644c0.23-0.291,0.346-0.6,0.346-0.925
			c0-0.077-0.019-0.143-0.056-0.195c-0.028-0.037-0.057-0.055-0.085-0.055c-0.045,0-0.143,0.04-0.293,0.122
			c-0.073,0.036-0.15,0.055-0.232,0.055c-0.199,0-0.357-0.059-0.476-0.177s-0.177-0.281-0.177-0.488c0-0.199,0.076-0.37,0.229-0.513
			s0.339-0.214,0.559-0.214c0.269,0,0.507,0.117,0.717,0.351c0.21,0.234,0.314,0.545,0.314,0.931c0,0.42-0.146,0.81-0.437,1.169
			C85.467,39.504,85.006,39.788,84.376,39.995z"/>
		<path style="fill:#0066FF;" d="M89.449,29.638h4.437v0.231l-2.759,8.216h-0.684l2.473-7.452h-2.277
			c-0.46,0-0.787,0.055-0.982,0.164c-0.342,0.188-0.616,0.477-0.824,0.867l-0.177-0.067L89.449,29.638z"/>
		<path style="fill:#0066FF;" d="M100.174,29.234v4.09c0.452-0.496,0.81-0.814,1.074-0.955s0.529-0.211,0.794-0.211
			c0.317,0,0.59,0.088,0.817,0.263c0.229,0.175,0.397,0.449,0.507,0.824c0.077,0.26,0.116,0.736,0.116,1.428v1.978
			c0,0.354,0.028,0.597,0.085,0.727c0.041,0.098,0.11,0.175,0.208,0.232c0.098,0.057,0.276,0.085,0.537,0.085v0.22h-2.747v-0.22
			h0.129c0.26,0,0.441-0.04,0.543-0.119s0.173-0.196,0.213-0.351c0.013-0.065,0.019-0.257,0.019-0.574v-1.978
			c0-0.61-0.031-1.011-0.095-1.202c-0.062-0.191-0.163-0.335-0.302-0.431c-0.139-0.095-0.306-0.144-0.501-0.144
			c-0.199,0-0.406,0.054-0.622,0.159s-0.474,0.319-0.775,0.641v2.954c0,0.383,0.021,0.621,0.064,0.715
			c0.043,0.093,0.122,0.172,0.238,0.234c0.115,0.063,0.316,0.095,0.601,0.095v0.22h-2.771v-0.22c0.248,0,0.443-0.039,0.586-0.116
			c0.081-0.04,0.146-0.118,0.195-0.231c0.049-0.114,0.073-0.346,0.073-0.696v-5.06c0-0.639-0.016-1.031-0.046-1.178
			s-0.077-0.246-0.141-0.3c-0.063-0.053-0.147-0.079-0.253-0.079c-0.086,0-0.224,0.033-0.415,0.098l-0.086-0.214l1.673-0.684
			H100.174z"/>
		<path style="fill:#0066FF;" d="M106.277,35.875c-0.342-0.166-0.604-0.399-0.787-0.698s-0.274-0.63-0.274-0.992
			c0-0.553,0.208-1.029,0.625-1.428c0.417-0.399,0.951-0.599,1.603-0.599c0.533,0,0.995,0.131,1.386,0.391h1.184
			c0.175,0,0.277,0.006,0.306,0.016s0.049,0.027,0.061,0.052c0.024,0.036,0.037,0.102,0.037,0.195c0,0.105-0.011,0.179-0.03,0.22
			c-0.013,0.021-0.034,0.037-0.064,0.049s-0.134,0.019-0.309,0.019h-0.727c0.229,0.293,0.342,0.667,0.342,1.123
			c0,0.521-0.199,0.966-0.598,1.337c-0.398,0.37-0.934,0.555-1.605,0.555c-0.276,0-0.56-0.04-0.848-0.122
			c-0.18,0.155-0.301,0.29-0.363,0.406c-0.063,0.116-0.095,0.215-0.095,0.296c0,0.069,0.033,0.137,0.101,0.201
			c0.067,0.065,0.198,0.112,0.394,0.141c0.114,0.017,0.398,0.03,0.854,0.043c0.838,0.021,1.382,0.049,1.63,0.085
			c0.378,0.053,0.681,0.193,0.906,0.421c0.226,0.229,0.339,0.509,0.339,0.843c0,0.46-0.216,0.892-0.647,1.294
			c-0.635,0.594-1.463,0.891-2.483,0.891c-0.786,0-1.449-0.177-1.99-0.53c-0.305-0.204-0.458-0.415-0.458-0.635
			c0-0.098,0.022-0.195,0.067-0.293c0.069-0.15,0.212-0.36,0.428-0.629c0.028-0.036,0.235-0.257,0.622-0.659
			c-0.212-0.126-0.361-0.239-0.448-0.339c-0.088-0.1-0.132-0.213-0.132-0.339c0-0.143,0.059-0.309,0.174-0.5
			C105.591,36.496,105.858,36.226,106.277,35.875z M106.217,37.914c-0.191,0.207-0.336,0.4-0.434,0.58
			c-0.098,0.179-0.146,0.344-0.146,0.494c0,0.195,0.118,0.366,0.354,0.513c0.406,0.252,0.994,0.378,1.764,0.378
			c0.732,0,1.272-0.129,1.62-0.387c0.348-0.259,0.522-0.534,0.522-0.827c0-0.212-0.104-0.362-0.312-0.452
			c-0.212-0.089-0.631-0.143-1.258-0.158C107.413,38.03,106.709,37.983,106.217,37.914z M107.34,32.451
			c-0.302,0-0.554,0.12-0.757,0.36c-0.204,0.24-0.306,0.608-0.306,1.104c0,0.644,0.139,1.142,0.415,1.496
			c0.212,0.268,0.48,0.402,0.806,0.402c0.31,0,0.563-0.116,0.763-0.348c0.2-0.232,0.3-0.597,0.3-1.093
			c0-0.647-0.141-1.153-0.421-1.52C107.932,32.586,107.665,32.451,107.34,32.451z"/>
	</g>
	<g>
		<path style="fill:#0066FF;" d="M16.775,39.096v0.226c-0.537,0.053-0.976,0.16-1.315,0.32c-0.34,0.161-0.675,0.406-1.007,0.735
			c-0.332,0.33-0.606,0.697-0.824,1.103c-0.218,0.404-0.4,0.886-0.546,1.443c0.586-0.403,1.174-0.604,1.764-0.604
			c0.565,0,1.056,0.228,1.471,0.684s0.622,1.042,0.622,1.758c0,0.691-0.209,1.322-0.628,1.893c-0.504,0.691-1.172,1.037-2.002,1.037
			c-0.565,0-1.046-0.188-1.44-0.562c-0.773-0.729-1.16-1.673-1.16-2.832c0-0.74,0.148-1.444,0.445-2.112
			c0.297-0.667,0.721-1.259,1.273-1.775c0.551-0.517,1.079-0.865,1.583-1.044c0.505-0.179,0.975-0.269,1.41-0.269H16.775z
			 M12.979,43.368c-0.073,0.55-0.11,0.993-0.11,1.331c0,0.391,0.072,0.814,0.217,1.272c0.144,0.457,0.359,0.82,0.644,1.089
			c0.207,0.191,0.459,0.287,0.757,0.287c0.354,0,0.67-0.167,0.949-0.5c0.279-0.334,0.418-0.811,0.418-1.429
			c0-0.696-0.139-1.298-0.415-1.807c-0.277-0.509-0.669-0.763-1.178-0.763c-0.155,0-0.32,0.032-0.498,0.098
			C13.586,43.012,13.324,43.152,12.979,43.368z"/>
		<path style="fill:#0066FF;" d="M17.906,49.624v-0.269c0.419-0.138,0.744-0.353,0.974-0.644c0.229-0.291,0.345-0.6,0.345-0.925
			c0-0.077-0.018-0.143-0.055-0.195c-0.028-0.037-0.057-0.055-0.085-0.055c-0.045,0-0.143,0.04-0.293,0.122
			c-0.073,0.036-0.151,0.055-0.232,0.055c-0.199,0-0.358-0.059-0.476-0.177c-0.118-0.118-0.177-0.281-0.177-0.488
			c0-0.199,0.076-0.37,0.229-0.513c0.152-0.143,0.339-0.214,0.559-0.214c0.269,0,0.507,0.117,0.717,0.351
			c0.209,0.234,0.314,0.545,0.314,0.931c0,0.42-0.146,0.81-0.437,1.169C18.997,49.133,18.537,49.417,17.906,49.624z"/>
		<path style="fill:#0066FF;" d="M22.181,47.714v-0.226c0.529-0.009,1.021-0.132,1.477-0.369c0.456-0.238,0.896-0.654,1.321-1.248
			c0.425-0.595,0.721-1.248,0.888-1.96c-0.639,0.411-1.217,0.616-1.733,0.616c-0.582,0-1.08-0.225-1.495-0.674
			s-0.623-1.047-0.623-1.791c0-0.725,0.208-1.37,0.623-1.936c0.5-0.688,1.153-1.031,1.959-1.031c0.68,0,1.261,0.281,1.746,0.842
			c0.594,0.696,0.891,1.555,0.891,2.576c0,0.92-0.226,1.777-0.678,2.572c-0.451,0.796-1.08,1.456-1.886,1.98
			c-0.655,0.432-1.369,0.647-2.143,0.647H22.181z M25.965,43.46c0.073-0.529,0.11-0.952,0.11-1.27c0-0.395-0.067-0.821-0.202-1.279
			c-0.134-0.457-0.324-0.809-0.57-1.053c-0.247-0.244-0.526-0.366-0.839-0.366c-0.362,0-0.68,0.163-0.952,0.488
			c-0.272,0.326-0.409,0.81-0.409,1.453c0,0.858,0.181,1.529,0.543,2.014c0.265,0.351,0.59,0.525,0.977,0.525
			c0.187,0,0.409-0.045,0.665-0.135C25.544,43.749,25.77,43.622,25.965,43.46z"/>
		<path style="fill:#0066FF;" d="M28.224,43.453c0-0.943,0.143-1.756,0.427-2.438s0.663-1.189,1.135-1.523
			c0.366-0.265,0.745-0.396,1.135-0.396c0.635,0,1.205,0.323,1.709,0.971c0.631,0.802,0.946,1.888,0.946,3.259
			c0,0.961-0.139,1.776-0.415,2.448c-0.277,0.671-0.63,1.158-1.059,1.461c-0.43,0.304-0.843,0.455-1.242,0.455
			c-0.79,0-1.447-0.466-1.971-1.397C28.445,45.507,28.224,44.561,28.224,43.453z M29.42,43.606c0,1.139,0.14,2.069,0.421,2.789
			c0.231,0.606,0.578,0.909,1.037,0.909c0.22,0,0.448-0.099,0.684-0.296c0.236-0.197,0.415-0.528,0.537-0.991
			c0.188-0.7,0.281-1.688,0.281-2.961c0-0.943-0.098-1.731-0.293-2.361c-0.146-0.469-0.336-0.8-0.568-0.995
			c-0.167-0.135-0.368-0.202-0.604-0.202c-0.277,0-0.523,0.125-0.739,0.373c-0.293,0.338-0.492,0.868-0.598,1.593
			S29.42,42.902,29.42,43.606z"/>
		<path style="fill:#0066FF;" d="M39.579,38.863v5.566l1.422-1.3c0.301-0.276,0.476-0.451,0.525-0.524
			c0.033-0.049,0.049-0.098,0.049-0.146c0-0.082-0.034-0.151-0.101-0.211c-0.067-0.059-0.178-0.093-0.333-0.101v-0.195h2.429v0.195
			c-0.333,0.008-0.611,0.059-0.833,0.152s-0.465,0.261-0.729,0.501l-1.434,1.324l1.434,1.812c0.399,0.501,0.667,0.818,0.806,0.952
			c0.195,0.191,0.366,0.315,0.513,0.372c0.102,0.041,0.279,0.062,0.531,0.062v0.22h-2.716v-0.22c0.154-0.004,0.259-0.027,0.314-0.07
			c0.055-0.043,0.083-0.103,0.083-0.18c0-0.094-0.082-0.244-0.244-0.452l-1.715-2.191v1.855c0,0.362,0.025,0.601,0.076,0.715
			c0.051,0.113,0.123,0.195,0.217,0.244c0.093,0.049,0.297,0.075,0.61,0.079v0.22h-2.845v-0.22c0.285,0,0.499-0.034,0.641-0.104
			c0.085-0.045,0.15-0.114,0.195-0.208c0.061-0.134,0.091-0.366,0.091-0.695v-5.091c0-0.646-0.014-1.042-0.042-1.187
			s-0.075-0.244-0.14-0.3c-0.065-0.055-0.151-0.082-0.257-0.082c-0.085,0-0.213,0.034-0.384,0.104l-0.104-0.214l1.66-0.684H39.579z"
			/>
		<path style="fill:#0066FF;" d="M45.811,41.787v1.258c0.468-0.839,0.948-1.258,1.44-1.258c0.224,0,0.409,0.068,0.556,0.205
			c0.146,0.136,0.22,0.294,0.22,0.473c0,0.158-0.053,0.293-0.159,0.402c-0.105,0.11-0.231,0.165-0.378,0.165
			c-0.143,0-0.302-0.07-0.479-0.21c-0.177-0.141-0.308-0.211-0.394-0.211c-0.073,0-0.152,0.041-0.238,0.122
			c-0.183,0.167-0.372,0.441-0.567,0.824v2.679c0,0.31,0.039,0.544,0.116,0.702c0.053,0.11,0.146,0.202,0.28,0.274
			c0.135,0.074,0.328,0.11,0.58,0.11v0.22h-2.862v-0.22c0.285,0,0.496-0.045,0.635-0.134c0.102-0.065,0.173-0.169,0.213-0.312
			c0.021-0.069,0.031-0.267,0.031-0.593v-2.166c0-0.651-0.014-1.039-0.04-1.163s-0.075-0.215-0.146-0.271s-0.16-0.085-0.266-0.085
			c-0.126,0-0.269,0.03-0.427,0.091l-0.062-0.22l1.691-0.684H45.811z"/>
		<path style="fill:#0066FF;" d="M51.4,38.863l-2.997,8.851h-0.488l2.997-8.851H51.4z"/>
		<path style="fill:#0066FF;" d="M53.439,38.863v4.09c0.452-0.496,0.81-0.814,1.074-0.955c0.265-0.141,0.529-0.211,0.794-0.211
			c0.317,0,0.59,0.088,0.817,0.263c0.228,0.175,0.397,0.449,0.507,0.824c0.077,0.26,0.116,0.736,0.116,1.428v1.978
			c0,0.354,0.028,0.597,0.085,0.727c0.041,0.098,0.11,0.175,0.208,0.232c0.098,0.057,0.276,0.085,0.537,0.085v0.22h-2.747v-0.22
			h0.128c0.26,0,0.441-0.04,0.543-0.119c0.102-0.079,0.173-0.196,0.213-0.351c0.012-0.065,0.018-0.257,0.018-0.574v-1.978
			c0-0.61-0.031-1.011-0.094-1.202c-0.063-0.191-0.164-0.335-0.302-0.431c-0.138-0.095-0.305-0.144-0.5-0.144
			c-0.199,0-0.407,0.054-0.623,0.159s-0.474,0.319-0.775,0.641v2.954c0,0.383,0.021,0.621,0.064,0.715
			c0.042,0.093,0.122,0.172,0.238,0.234c0.116,0.063,0.316,0.095,0.601,0.095v0.22h-2.771v-0.22c0.248,0,0.443-0.039,0.586-0.116
			c0.081-0.04,0.146-0.118,0.195-0.231c0.049-0.114,0.073-0.346,0.073-0.696v-5.06c0-0.639-0.016-1.031-0.046-1.178
			c-0.031-0.146-0.078-0.246-0.141-0.3c-0.063-0.053-0.147-0.079-0.253-0.079c-0.086,0-0.224,0.033-0.415,0.098l-0.086-0.214
			l1.673-0.684H53.439z"/>
		<path style="fill:#0066FF;" d="M59.543,45.504c-0.342-0.166-0.604-0.399-0.787-0.698s-0.274-0.63-0.274-0.992
			c0-0.553,0.208-1.029,0.625-1.428c0.417-0.399,0.951-0.599,1.603-0.599c0.533,0,0.995,0.131,1.386,0.391h1.184
			c0.175,0,0.277,0.006,0.306,0.016s0.049,0.027,0.061,0.052c0.024,0.036,0.037,0.102,0.037,0.195c0,0.105-0.011,0.179-0.03,0.22
			c-0.013,0.021-0.034,0.037-0.064,0.049s-0.134,0.019-0.309,0.019h-0.727c0.229,0.293,0.342,0.667,0.342,1.123
			c0,0.521-0.199,0.966-0.598,1.337c-0.398,0.37-0.934,0.555-1.605,0.555c-0.276,0-0.56-0.04-0.848-0.122
			c-0.18,0.155-0.301,0.29-0.363,0.406c-0.063,0.116-0.095,0.215-0.095,0.296c0,0.069,0.033,0.137,0.101,0.201
			c0.067,0.065,0.198,0.112,0.394,0.141c0.114,0.017,0.398,0.03,0.854,0.043c0.838,0.021,1.382,0.049,1.63,0.085
			c0.378,0.053,0.681,0.193,0.906,0.421c0.226,0.229,0.339,0.509,0.339,0.843c0,0.46-0.216,0.892-0.647,1.294
			c-0.635,0.594-1.463,0.891-2.483,0.891c-0.786,0-1.449-0.177-1.99-0.53c-0.305-0.204-0.458-0.415-0.458-0.635
			c0-0.098,0.022-0.195,0.067-0.293c0.069-0.15,0.212-0.36,0.428-0.629c0.028-0.036,0.235-0.257,0.622-0.659
			c-0.212-0.126-0.361-0.239-0.448-0.339c-0.088-0.1-0.132-0.213-0.132-0.339c0-0.143,0.059-0.309,0.174-0.5
			C58.856,46.125,59.124,45.854,59.543,45.504z M59.482,47.543c-0.191,0.207-0.336,0.4-0.434,0.58
			c-0.098,0.179-0.146,0.344-0.146,0.494c0,0.195,0.118,0.366,0.354,0.513c0.406,0.252,0.994,0.378,1.764,0.378
			c0.732,0,1.272-0.129,1.62-0.387c0.348-0.259,0.522-0.534,0.522-0.827c0-0.212-0.104-0.362-0.312-0.452
			c-0.212-0.089-0.631-0.143-1.258-0.158C60.679,47.659,59.975,47.612,59.482,47.543z M60.605,42.08c-0.302,0-0.554,0.12-0.757,0.36
			c-0.204,0.24-0.306,0.608-0.306,1.104c0,0.644,0.139,1.142,0.415,1.496c0.212,0.268,0.48,0.402,0.806,0.402
			c0.31,0,0.563-0.116,0.763-0.348c0.2-0.232,0.3-0.597,0.3-1.093c0-0.647-0.141-1.153-0.421-1.52
			C61.197,42.215,60.931,42.08,60.605,42.08z"/>
	</g>
	<g>
		<path style="fill:#0066FF;" d="M80.724,6.367h6.409v0.592h-6.409V6.367z M80.724,8.644h6.409v0.604h-6.409V8.644z"/>
	</g>
	<g>
		<path style="fill:#0066FF;" d="M0.226,33.281h6.409v0.592H0.226V33.281z M0.226,35.559h6.409v0.604H0.226V35.559z"/>
		<path style="fill:#0066FF;" d="M74.479,32.573h0.305c-0.081,0.663-0.281,1.156-0.601,1.478c-0.32,0.321-0.693,0.482-1.12,0.482
			c-0.199,0-0.429-0.044-0.687-0.132c-0.259-0.087-0.659-0.284-1.203-0.589c-0.543-0.305-0.961-0.458-1.254-0.458
			c-0.269,0-0.504,0.097-0.705,0.29s-0.328,0.476-0.382,0.846h-0.28c0.077-0.659,0.274-1.15,0.592-1.475
			c0.317-0.323,0.678-0.484,1.081-0.484c0.199,0,0.447,0.049,0.744,0.146c0.216,0.072,0.641,0.278,1.275,0.616
			c0.48,0.256,0.873,0.384,1.178,0.384c0.261,0,0.475-0.081,0.642-0.244C74.284,33.223,74.422,32.936,74.479,32.573z M74.479,34.936
			h0.305c-0.081,0.663-0.281,1.156-0.601,1.48c-0.32,0.323-0.693,0.484-1.12,0.484c-0.199,0-0.429-0.044-0.687-0.134
			c-0.259-0.09-0.659-0.287-1.203-0.592c-0.543-0.306-0.961-0.458-1.254-0.458c-0.269,0-0.504,0.097-0.705,0.29
			s-0.328,0.477-0.382,0.852h-0.28c0.077-0.659,0.274-1.15,0.592-1.475c0.317-0.323,0.678-0.485,1.081-0.485
			c0.199,0,0.447,0.049,0.744,0.146c0.216,0.074,0.641,0.279,1.275,0.617c0.48,0.256,0.873,0.385,1.178,0.385
			c0.261,0,0.475-0.084,0.642-0.251C74.284,35.585,74.422,35.298,74.479,34.936z"/>
	</g>
</g>
<g id="theGroup">
</g>
</svg>
