<?xml version="1.0" encoding="iso-8859-1"?>
<!-- Generator: Adobe Illustrator 16.0.0, SVG Export Plug-In . SVG Version: 6.00 Build 0)  -->
<!DOCTYPE svg PUBLIC "-//W3C//DTD SVG 1.1//EN" "http://www.w3.org/Graphics/SVG/1.1/DTD/svg11.dtd">
<svg version="1.1" id="Lager_1" xmlns="http://www.w3.org/2000/svg" xmlns:xlink="http://www.w3.org/1999/xlink" x="0px" y="0px"
	 width="133.474px" height="17.089px" viewBox="0 0 133.474 17.089" style="enable-background:new 0 0 133.474 17.089;"
	 xml:space="preserve">
<g>
	<g>
		<path style="fill:#0066FF;" d="M49.831,1.69l1.165-0.568h0.117v4.041c0,0.268,0.011,0.435,0.033,0.501s0.069,0.117,0.14,0.152
			c0.07,0.035,0.214,0.055,0.43,0.06v0.13h-1.799v-0.13c0.226-0.005,0.372-0.024,0.438-0.059c0.066-0.034,0.112-0.08,0.138-0.137
			s0.039-0.23,0.039-0.517V2.58c0-0.348-0.012-0.572-0.035-0.67c-0.017-0.075-0.046-0.13-0.09-0.166
			c-0.044-0.035-0.096-0.053-0.157-0.053c-0.087,0-0.208,0.037-0.363,0.109L49.831,1.69z"/>
		<path style="fill:#0066FF;" d="M81.779,3.642c0-0.545,0.083-1.016,0.247-1.41c0.165-0.394,0.384-0.688,0.656-0.88
			c0.212-0.153,0.431-0.229,0.656-0.229c0.367,0,0.696,0.187,0.988,0.561c0.365,0.464,0.547,1.092,0.547,1.884
			c0,0.555-0.08,1.027-0.239,1.415c-0.16,0.388-0.364,0.67-0.612,0.845c-0.249,0.175-0.488,0.263-0.719,0.263
			c-0.456,0-0.836-0.269-1.14-0.808C81.908,4.829,81.779,4.282,81.779,3.642z M82.472,3.73c0,0.659,0.081,1.196,0.243,1.612
			c0.134,0.351,0.334,0.526,0.6,0.526c0.127,0,0.259-0.057,0.396-0.171c0.137-0.114,0.24-0.305,0.311-0.574
			c0.108-0.404,0.162-0.975,0.162-1.711c0-0.545-0.057-1-0.169-1.365c-0.085-0.271-0.194-0.462-0.328-0.575
			c-0.097-0.078-0.213-0.117-0.35-0.117c-0.16,0-0.303,0.072-0.427,0.215c-0.17,0.195-0.285,0.502-0.346,0.921
			C82.502,2.91,82.472,3.323,82.472,3.73z"/>
	</g>
	<g>
		<path style="fill:#0066FF;" d="M7.415,10.579v1.062h0.755v0.247H7.415v2.096c0,0.21,0.03,0.351,0.09,0.424
			s0.137,0.109,0.231,0.109c0.078,0,0.153-0.024,0.226-0.072c0.073-0.048,0.129-0.119,0.169-0.214h0.138
			c-0.083,0.23-0.199,0.404-0.35,0.521c-0.15,0.117-0.306,0.175-0.466,0.175c-0.108,0-0.214-0.03-0.317-0.09
			s-0.18-0.146-0.229-0.258c-0.049-0.111-0.074-0.284-0.074-0.517v-2.174H6.321v-0.116c0.129-0.052,0.261-0.14,0.397-0.263
			c0.135-0.124,0.255-0.271,0.361-0.439c0.054-0.09,0.129-0.253,0.226-0.49H7.415z"/>
		<path style="fill:#0066FF;" d="M9.62,11.546v2.597c0,0.202,0.015,0.337,0.044,0.404c0.03,0.066,0.073,0.117,0.131,0.149
			c0.058,0.033,0.163,0.05,0.316,0.05v0.127h-1.57v-0.127c0.157,0,0.263-0.016,0.317-0.046s0.097-0.081,0.129-0.151
			c0.032-0.071,0.047-0.206,0.047-0.406v-1.245c0-0.351-0.01-0.578-0.032-0.682c-0.016-0.075-0.042-0.127-0.078-0.157
			c-0.035-0.029-0.083-0.044-0.145-0.044c-0.066,0-0.146,0.018-0.24,0.053L8.491,11.94l0.974-0.395H9.62z M9.327,9.855
			c0.099,0,0.183,0.034,0.252,0.104c0.069,0.069,0.104,0.153,0.104,0.252s-0.035,0.184-0.104,0.254s-0.153,0.105-0.252,0.105
			c-0.099,0-0.183-0.035-0.254-0.105s-0.106-0.155-0.106-0.254s0.035-0.183,0.104-0.252C9.141,9.89,9.226,9.855,9.327,9.855z"/>
		<path style="fill:#0066FF;" d="M12.116,11.546c0.489,0,0.882,0.186,1.179,0.558c0.251,0.317,0.377,0.682,0.377,1.094
			c0,0.289-0.069,0.582-0.208,0.878c-0.139,0.297-0.33,0.521-0.574,0.671c-0.243,0.15-0.515,0.226-0.813,0.226
			c-0.487,0-0.874-0.194-1.161-0.582c-0.242-0.327-0.363-0.694-0.363-1.101c0-0.297,0.073-0.592,0.22-0.884
			c0.147-0.293,0.341-0.51,0.581-0.649C11.593,11.615,11.848,11.546,12.116,11.546z M12.006,11.775c-0.125,0-0.25,0.036-0.376,0.11
			c-0.125,0.074-0.228,0.204-0.305,0.391c-0.078,0.186-0.116,0.424-0.116,0.716c0,0.471,0.093,0.876,0.28,1.218
			c0.187,0.341,0.434,0.512,0.739,0.512c0.228,0,0.417-0.095,0.565-0.282c0.148-0.188,0.222-0.512,0.222-0.971
			c0-0.574-0.124-1.025-0.371-1.355C12.478,11.888,12.265,11.775,12.006,11.775z"/>
		<path style="fill:#0066FF;" d="M92.605,10.579v1.062h0.756v0.247h-0.756v2.096c0,0.21,0.03,0.351,0.091,0.424
			c0.06,0.073,0.137,0.109,0.23,0.109c0.078,0,0.153-0.024,0.226-0.072c0.073-0.048,0.13-0.119,0.17-0.214h0.138
			c-0.083,0.23-0.199,0.404-0.35,0.521c-0.15,0.117-0.306,0.175-0.466,0.175c-0.108,0-0.214-0.03-0.317-0.09
			s-0.18-0.146-0.229-0.258c-0.05-0.111-0.074-0.284-0.074-0.517v-2.174h-0.512v-0.116c0.13-0.052,0.262-0.14,0.397-0.263
			c0.135-0.124,0.256-0.271,0.361-0.439c0.055-0.09,0.13-0.253,0.226-0.49H92.605z"/>
		<path style="fill:#0066FF;" d="M94.812,11.546v2.597c0,0.202,0.015,0.337,0.044,0.404c0.029,0.066,0.073,0.117,0.131,0.149
			c0.058,0.033,0.163,0.05,0.315,0.05v0.127h-1.57v-0.127c0.158,0,0.264-0.016,0.318-0.046c0.054-0.03,0.097-0.081,0.128-0.151
			c0.032-0.071,0.048-0.206,0.048-0.406v-1.245c0-0.351-0.011-0.578-0.031-0.682c-0.017-0.075-0.043-0.127-0.078-0.157
			c-0.035-0.029-0.083-0.044-0.145-0.044c-0.065,0-0.146,0.018-0.24,0.053l-0.049-0.127l0.974-0.395H94.812z M94.519,9.855
			c0.099,0,0.183,0.034,0.252,0.104c0.07,0.069,0.104,0.153,0.104,0.252s-0.034,0.184-0.104,0.254
			c-0.069,0.07-0.153,0.105-0.252,0.105s-0.184-0.035-0.254-0.105s-0.105-0.155-0.105-0.254s0.034-0.183,0.104-0.252
			C94.332,9.89,94.418,9.855,94.519,9.855z"/>
		<path style="fill:#0066FF;" d="M97.307,11.546c0.489,0,0.882,0.186,1.179,0.558c0.252,0.317,0.377,0.682,0.377,1.094
			c0,0.289-0.069,0.582-0.208,0.878c-0.139,0.297-0.33,0.521-0.573,0.671s-0.515,0.226-0.813,0.226
			c-0.486,0-0.874-0.194-1.161-0.582c-0.242-0.327-0.363-0.694-0.363-1.101c0-0.297,0.074-0.592,0.221-0.884
			c0.147-0.293,0.341-0.51,0.581-0.649C96.784,11.615,97.038,11.546,97.307,11.546z M97.197,11.775c-0.125,0-0.25,0.036-0.376,0.11
			s-0.228,0.204-0.305,0.391c-0.078,0.186-0.117,0.424-0.117,0.716c0,0.471,0.094,0.876,0.281,1.218
			c0.187,0.341,0.433,0.512,0.739,0.512c0.228,0,0.416-0.095,0.564-0.282c0.148-0.188,0.222-0.512,0.222-0.971
			c0-0.574-0.123-1.025-0.37-1.355C97.669,11.888,97.456,11.775,97.197,11.775z"/>
		<path style="fill:#0066FF;" d="M125.918,10.579v1.062h0.756v0.247h-0.756v2.096c0,0.21,0.03,0.351,0.091,0.424
			c0.06,0.073,0.137,0.109,0.23,0.109c0.078,0,0.153-0.024,0.226-0.072c0.073-0.048,0.13-0.119,0.17-0.214h0.138
			c-0.083,0.23-0.199,0.404-0.35,0.521c-0.15,0.117-0.306,0.175-0.466,0.175c-0.108,0-0.214-0.03-0.317-0.09
			s-0.18-0.146-0.229-0.258c-0.05-0.111-0.074-0.284-0.074-0.517v-2.174h-0.512v-0.116c0.13-0.052,0.262-0.14,0.397-0.263
			c0.135-0.124,0.256-0.271,0.361-0.439c0.055-0.09,0.13-0.253,0.226-0.49H125.918z"/>
		<path style="fill:#0066FF;" d="M126.843,11.641h1.521v0.131h-0.099c-0.092,0-0.162,0.022-0.21,0.067
			c-0.049,0.044-0.072,0.104-0.072,0.18c0,0.082,0.024,0.18,0.073,0.293l0.752,1.785l0.755-1.853c0.055-0.132,0.081-0.231,0.081-0.3
			c0-0.033-0.009-0.06-0.028-0.081c-0.025-0.035-0.059-0.06-0.099-0.072s-0.121-0.02-0.243-0.02v-0.131h1.055v0.131
			c-0.122,0.01-0.207,0.034-0.254,0.074c-0.082,0.07-0.156,0.188-0.222,0.353l-1.147,2.773h-0.145l-1.153-2.728
			c-0.052-0.127-0.102-0.218-0.148-0.273c-0.047-0.055-0.107-0.102-0.18-0.14c-0.04-0.021-0.119-0.041-0.237-0.06V11.641z"/>
		<path style="fill:#0066FF;" d="M132.324,14.407c-0.332,0.257-0.54,0.404-0.625,0.444c-0.127,0.06-0.263,0.089-0.406,0.089
			c-0.223,0-0.407-0.077-0.552-0.229c-0.145-0.153-0.217-0.354-0.217-0.604c0-0.157,0.035-0.294,0.105-0.409
			c0.097-0.16,0.265-0.311,0.503-0.452c0.239-0.141,0.636-0.312,1.191-0.515v-0.127c0-0.322-0.052-0.544-0.154-0.664
			c-0.102-0.119-0.251-0.18-0.446-0.18c-0.147,0-0.266,0.04-0.353,0.12c-0.09,0.08-0.134,0.172-0.134,0.275l0.007,0.204
			c0,0.108-0.027,0.192-0.083,0.251s-0.128,0.088-0.217,0.088c-0.087,0-0.158-0.03-0.214-0.092c-0.055-0.061-0.083-0.145-0.083-0.25
			c0-0.202,0.104-0.389,0.311-0.558c0.207-0.17,0.498-0.254,0.872-0.254c0.287,0,0.521,0.048,0.705,0.145
			c0.139,0.073,0.241,0.187,0.308,0.342c0.042,0.102,0.063,0.309,0.063,0.621v1.098c0,0.309,0.006,0.497,0.018,0.566
			s0.031,0.116,0.058,0.14c0.027,0.023,0.059,0.035,0.094,0.035c0.038,0,0.07-0.009,0.099-0.025c0.05-0.03,0.145-0.116,0.286-0.257
			v0.197c-0.264,0.353-0.516,0.529-0.755,0.529c-0.115,0-0.207-0.04-0.275-0.12S132.326,14.601,132.324,14.407z M132.324,14.178
			v-1.231c-0.355,0.142-0.585,0.241-0.688,0.3c-0.186,0.104-0.318,0.212-0.398,0.325c-0.08,0.112-0.12,0.236-0.12,0.37
			c0,0.17,0.051,0.31,0.151,0.422c0.102,0.111,0.218,0.168,0.35,0.168C131.797,14.531,132.032,14.413,132.324,14.178z
			 M131.883,9.841c0.188,0,0.348,0.066,0.479,0.198s0.198,0.29,0.198,0.477c0,0.188-0.066,0.348-0.198,0.479
			s-0.291,0.197-0.479,0.197c-0.186,0-0.345-0.065-0.477-0.197s-0.197-0.292-0.197-0.479c0-0.187,0.065-0.345,0.195-0.477
			C131.535,9.907,131.694,9.841,131.883,9.841z M131.883,10.085c-0.12,0-0.222,0.042-0.306,0.125
			c-0.083,0.084-0.125,0.186-0.125,0.306c0,0.117,0.042,0.219,0.125,0.303c0.084,0.085,0.186,0.127,0.306,0.127
			s0.222-0.042,0.305-0.127c0.084-0.084,0.126-0.186,0.126-0.303c0-0.12-0.042-0.222-0.126-0.306
			C132.104,10.127,132.003,10.085,131.883,10.085z"/>
	</g>
	<g>
		<path style="fill:#0066FF;" d="M0.635,4.919c0.236-0.558,0.534-0.988,0.894-1.291c0.36-0.303,0.809-0.455,1.346-0.455
			c0.663,0,1.172,0.216,1.525,0.647c0.269,0.321,0.403,0.666,0.403,1.032c0,0.602-0.379,1.225-1.136,1.867
			c0.509,0.2,0.894,0.484,1.154,0.854c0.26,0.371,0.391,0.806,0.391,1.307c0,0.716-0.228,1.337-0.684,1.861
			c-0.594,0.684-1.455,1.025-2.582,1.025c-0.558,0-0.937-0.069-1.139-0.207c-0.201-0.139-0.302-0.287-0.302-0.446
			c0-0.118,0.047-0.222,0.143-0.312c0.096-0.089,0.21-0.134,0.345-0.134c0.102,0,0.205,0.017,0.311,0.049
			c0.069,0.021,0.226,0.095,0.47,0.223s0.413,0.204,0.506,0.229c0.15,0.044,0.311,0.066,0.482,0.066c0.415,0,0.776-0.16,1.083-0.482
			c0.307-0.321,0.461-0.701,0.461-1.141c0-0.322-0.071-0.635-0.213-0.94c-0.106-0.228-0.222-0.4-0.348-0.519
			c-0.175-0.163-0.415-0.31-0.72-0.442S2.411,7.514,2.094,7.514H1.898V7.33C2.22,7.29,2.542,7.174,2.866,6.982
			C3.189,6.791,3.424,6.562,3.57,6.293s0.22-0.564,0.22-0.885c0-0.419-0.131-0.758-0.394-1.016C3.134,4.133,2.808,4.004,2.417,4.004
			c-0.631,0-1.158,0.338-1.581,1.013L0.635,4.919z"/>
		<path style="fill:#0066FF;" d="M32.707,14.068v0.227c-0.614-0.31-1.127-0.672-1.538-1.087c-0.586-0.59-1.038-1.286-1.355-2.087
			c-0.317-0.802-0.476-1.634-0.476-2.497c0-1.261,0.312-2.412,0.934-3.451c0.623-1.04,1.435-1.783,2.436-2.231v0.256
			c-0.5,0.277-0.912,0.655-1.233,1.135s-0.562,1.088-0.72,1.825c-0.159,0.737-0.238,1.506-0.238,2.308
			c0,0.871,0.067,1.662,0.202,2.374c0.106,0.562,0.234,1.012,0.384,1.352c0.151,0.34,0.353,0.667,0.607,0.98
			C31.963,13.484,32.296,13.784,32.707,14.068z"/>
		<path style="fill:#0066FF;" d="M33.415,4.156l2.014-0.982h0.202v6.988c0,0.464,0.019,0.753,0.058,0.867
			c0.039,0.113,0.119,0.201,0.241,0.262c0.122,0.062,0.37,0.096,0.745,0.104v0.226h-3.113v-0.226
			c0.391-0.009,0.643-0.042,0.757-0.101c0.114-0.06,0.193-0.139,0.238-0.238c0.044-0.1,0.067-0.397,0.067-0.895V5.694
			c0-0.602-0.021-0.988-0.061-1.159c-0.028-0.13-0.081-0.226-0.156-0.287s-0.166-0.092-0.271-0.092c-0.15,0-0.36,0.063-0.628,0.189
			L33.415,4.156z"/>
		<path style="fill:#0066FF;" d="M48.969,10.028l-0.58,1.593h-4.883v-0.226c1.437-1.311,2.447-2.381,3.033-3.211
			s0.879-1.589,0.879-2.276c0-0.525-0.161-0.956-0.482-1.294s-0.706-0.507-1.154-0.507c-0.407,0-0.772,0.119-1.095,0.357
			c-0.324,0.238-0.562,0.587-0.717,1.047h-0.226c0.102-0.753,0.363-1.331,0.784-1.733c0.421-0.403,0.947-0.604,1.578-0.604
			c0.671,0,1.232,0.216,1.682,0.647c0.449,0.431,0.674,0.94,0.674,1.526c0,0.419-0.098,0.838-0.293,1.257
			c-0.301,0.659-0.79,1.357-1.465,2.093c-1.013,1.106-1.646,1.774-1.898,2.002h2.161c0.439,0,0.748-0.016,0.924-0.049
			c0.177-0.032,0.337-0.099,0.479-0.198c0.143-0.1,0.267-0.241,0.373-0.424H48.969z"/>
		<path style="fill:#0066FF;" d="M65.24,4.156l2.014-0.982h0.202v6.988c0,0.464,0.019,0.753,0.057,0.867
			c0.039,0.113,0.119,0.201,0.242,0.262c0.121,0.062,0.369,0.096,0.744,0.104v0.226h-3.113v-0.226
			c0.391-0.009,0.643-0.042,0.757-0.101c0.114-0.06,0.193-0.139,0.238-0.238c0.044-0.1,0.067-0.397,0.067-0.895V5.694
			c0-0.602-0.021-0.988-0.061-1.159c-0.028-0.13-0.081-0.226-0.156-0.287s-0.166-0.092-0.271-0.092c-0.15,0-0.36,0.063-0.628,0.189
			L65.24,4.156z"/>
		<path style="fill:#0066FF;" d="M80.794,10.028l-0.58,1.593h-4.883v-0.226c1.437-1.311,2.447-2.381,3.033-3.211
			s0.879-1.589,0.879-2.276c0-0.525-0.16-0.956-0.481-1.294c-0.322-0.338-0.706-0.507-1.154-0.507c-0.406,0-0.771,0.119-1.096,0.357
			c-0.323,0.238-0.562,0.587-0.717,1.047h-0.226c0.102-0.753,0.363-1.331,0.784-1.733c0.421-0.403,0.947-0.604,1.578-0.604
			c0.671,0,1.231,0.216,1.681,0.647c0.45,0.431,0.675,0.94,0.675,1.526c0,0.419-0.098,0.838-0.293,1.257
			c-0.301,0.659-0.789,1.357-1.465,2.093c-1.014,1.106-1.646,1.774-1.898,2.002h2.161c0.439,0,0.747-0.016,0.925-0.049
			c0.177-0.032,0.336-0.099,0.479-0.198s0.267-0.241,0.373-0.424H80.794z"/>
		<path style="fill:#0066FF;" d="M87.019,3.198V2.942c0.618,0.305,1.133,0.666,1.544,1.081c0.582,0.594,1.031,1.291,1.349,2.09
			c0.317,0.799,0.477,1.632,0.477,2.5c0,1.262-0.311,2.412-0.932,3.451c-0.62,1.04-1.433,1.783-2.438,2.231v-0.227
			c0.5-0.28,0.912-0.66,1.235-1.138c0.323-0.479,0.563-1.087,0.721-1.825c0.156-0.739,0.234-1.509,0.234-2.311
			c0-0.866-0.067-1.658-0.201-2.374c-0.102-0.562-0.229-1.011-0.382-1.349c-0.152-0.338-0.354-0.664-0.607-0.977
			C87.767,3.782,87.433,3.483,87.019,3.198z"/>
		<path style="fill:#0066FF;" d="M114.29,4.156l2.014-0.982h0.202v6.988c0,0.464,0.019,0.753,0.058,0.867
			c0.039,0.113,0.119,0.201,0.241,0.262c0.122,0.062,0.37,0.096,0.745,0.104v0.226h-3.113v-0.226
			c0.391-0.009,0.643-0.042,0.757-0.101c0.114-0.06,0.193-0.139,0.238-0.238s0.067-0.397,0.067-0.895V5.694
			c0-0.602-0.021-0.988-0.062-1.159c-0.028-0.13-0.08-0.226-0.155-0.287c-0.076-0.061-0.166-0.092-0.271-0.092
			c-0.151,0-0.36,0.063-0.629,0.189L114.29,4.156z"/>
		<path style="fill:#0066FF;" d="M120.54,4.156l2.014-0.982h0.202v6.988c0,0.464,0.019,0.753,0.058,0.867
			c0.039,0.113,0.119,0.201,0.241,0.262c0.122,0.062,0.37,0.096,0.745,0.104v0.226h-3.113v-0.226
			c0.391-0.009,0.643-0.042,0.757-0.101c0.114-0.06,0.193-0.139,0.238-0.238s0.067-0.397,0.067-0.895V5.694
			c0-0.602-0.021-0.988-0.062-1.159c-0.028-0.13-0.08-0.226-0.155-0.287c-0.076-0.061-0.166-0.092-0.271-0.092
			c-0.151,0-0.36,0.063-0.629,0.189L120.54,4.156z"/>
	</g>
	<g>
		<path style="fill:#0066FF;" d="M18.858,6.988h6.409v0.592h-6.409V6.988z M18.858,9.265h6.409v0.604h-6.409V9.265z"/>
		<path style="fill:#0066FF;" d="M40.702,8.423c0,0.187-0.066,0.347-0.198,0.479c-0.132,0.132-0.29,0.199-0.473,0.199
			c-0.187,0-0.347-0.066-0.479-0.199c-0.132-0.132-0.199-0.292-0.199-0.479s0.066-0.347,0.199-0.479
			c0.132-0.132,0.292-0.199,0.479-0.199c0.183,0,0.341,0.066,0.473,0.199C40.636,8.076,40.702,8.236,40.702,8.423z"/>
		<path style="fill:#0066FF;" d="M58.831,5.212h0.598V8.13h2.899v0.592h-2.899v2.899h-0.598V8.722h-2.912V8.13h2.912V5.212z"/>
		<path style="fill:#0066FF;" d="M72.525,8.423c0,0.187-0.066,0.347-0.199,0.479c-0.132,0.132-0.289,0.199-0.473,0.199
			c-0.188,0-0.347-0.066-0.479-0.199c-0.132-0.132-0.198-0.292-0.198-0.479s0.066-0.347,0.198-0.479
			c0.133-0.132,0.292-0.199,0.479-0.199c0.184,0,0.341,0.066,0.473,0.199C72.459,8.076,72.525,8.236,72.525,8.423z"/>
		<path style="fill:#0066FF;" d="M104.029,6.988h6.409v0.592h-6.409V6.988z M104.029,9.265h6.409v0.604h-6.409V9.265z"/>
	</g>
</g>
<g id="theGroup">
</g>
</svg>
