<?xml version="1.0" encoding="iso-8859-1"?>
<!-- Generator: Adobe Illustrator 16.0.0, SVG Export Plug-In . SVG Version: 6.00 Build 0)  -->
<!DOCTYPE svg PUBLIC "-//W3C//DTD SVG 1.1//EN" "http://www.w3.org/Graphics/SVG/1.1/DTD/svg11.dtd">
<svg version="1.1" id="Lager_1" xmlns="http://www.w3.org/2000/svg" xmlns:xlink="http://www.w3.org/1999/xlink" x="0px" y="0px"
	 width="109.936px" height="87.43px" viewBox="0 0 109.936 87.43" style="enable-background:new 0 0 109.936 87.43;"
	 xml:space="preserve">
<rect x="66.295" y="0.504" style="fill-rule:evenodd;clip-rule:evenodd;fill:#FFFFFF;" width="21.417" height="21.398"/>
<rect x="44.171" y="0.711" style="fill-rule:evenodd;clip-rule:evenodd;fill:#FFFFFF;" width="43.488" height="14.259"/>
<rect x="0.596" y="22.433" style="fill-rule:evenodd;clip-rule:evenodd;fill:#FFFFFF;" width="72.657" height="21.398"/>
<rect x="0.35" y="0.384" style="fill-rule:evenodd;clip-rule:evenodd;fill:#B6C6E3;stroke:#000000;stroke-width:0.7;stroke-linecap:round;stroke-linejoin:round;" width="109.232" height="86.697"/>
<line style="fill-rule:evenodd;clip-rule:evenodd;fill:#FFFFFF;stroke:#000000;stroke-width:0.7;stroke-linecap:round;stroke-linejoin:round;" x1="66.094" y1="65.332" x2="66.094" y2="86.891"/>
<line style="fill-rule:evenodd;clip-rule:evenodd;fill:#FFFFFF;stroke:#000000;stroke-width:0.7;stroke-linecap:round;stroke-linejoin:round;" x1="0.596" y1="43.236" x2="22.846" y2="43.236"/>
<g id="XMLID_1_">
	<g>
		<polygon style="fill:#E5E99B;" points="66.096,43.033 66.096,21.983 87.836,21.983 87.836,22.113 87.836,65.103 87.836,65.183 
			44.586,65.183 44.586,65.103 44.586,43.033 65.856,43.033 		"/>
		<polygon style="fill:#E5E99B;" points="44.586,43.033 44.586,65.103 44.586,65.183 23.246,65.183 23.086,65.183 23.086,21.983 
			23.346,21.983 66.096,21.983 66.096,43.033 65.856,43.033 		"/>
	</g>
	<g>
		<polyline style="fill:none;stroke:#000000;stroke-width:0.7;stroke-linecap:round;stroke-linejoin:round;" points="66.096,0.713 
			66.096,21.983 66.096,43.033 66.096,43.103 		"/>
		
			<line style="fill:none;stroke:#000000;stroke-width:0.7;stroke-linecap:round;stroke-linejoin:round;" x1="87.836" y1="22.113" x2="87.836" y2="65.103"/>
		<polyline style="fill:none;stroke:#000000;stroke-width:0.7;stroke-linecap:round;stroke-linejoin:round;" points="23.346,21.983 
			66.096,21.983 87.836,21.983 109.586,21.983 		"/>
		<polyline style="fill:none;stroke:#000000;stroke-width:0.7;stroke-linecap:round;stroke-linejoin:round;" points="23.086,0.383 
			23.086,21.983 23.086,65.183 23.086,86.343 		"/>
		<polyline style="fill:none;stroke:#000000;stroke-width:0.7;stroke-linecap:round;stroke-linejoin:round;" points="44.586,42.853 
			44.586,43.033 44.586,65.103 		"/>
		<polyline style="fill:none;stroke:#000000;stroke-width:0.7;stroke-linecap:round;stroke-linejoin:round;" points="23.246,65.183 
			44.586,65.183 87.836,65.183 108.976,65.183 		"/>
		<polyline style="fill:none;stroke:#000000;stroke-width:0.7;stroke-linecap:round;stroke-linejoin:round;" points="44.566,43.033 
			44.586,43.033 65.856,43.033 		"/>
	</g>
</g>
<line style="fill:none;stroke:#C51A1B;stroke-width:0.5;stroke-dasharray:2;" x1="0.643" y1="21.902" x2="109.886" y2="21.902"/>
<line style="fill:none;stroke:#C51A1B;stroke-width:0.5;stroke-dasharray:2;" x1="0.643" y1="43.164" x2="109.886" y2="43.164"/>
<line style="fill:none;stroke:#C51A1B;stroke-width:0.5;stroke-dasharray:2;" x1="0.643" y1="65.136" x2="109.886" y2="65.136"/>
<line style="fill:none;stroke:#C51A1B;stroke-width:0.5;stroke-dasharray:2;" x1="23.129" y1="0" x2="23.129" y2="86.994"/>
<line style="fill:none;stroke:#C51A1B;stroke-width:0.5;stroke-dasharray:2;" x1="44.528" y1="0" x2="44.528" y2="86.994"/>
<line style="fill:none;stroke:#C51A1B;stroke-width:0.5;stroke-dasharray:2;" x1="66.066" y1="0" x2="66.066" y2="86.994"/>
<line style="fill:none;stroke:#C51A1B;stroke-width:0.5;stroke-dasharray:2;" x1="87.888" y1="0" x2="87.888" y2="86.994"/>
<g id="theGroup">
</g>
<g>
</g>
<g>
</g>
<g>
</g>
<g>
</g>
<g>
</g>
<g>
</g>
<g>
</g>
<g>
</g>
<g>
</g>
<g>
</g>
<g>
</g>
<g>
</g>
</svg>
