<?xml version="1.0" encoding="iso-8859-1"?>
<!-- Generator: Adobe Illustrator 16.0.0, SVG Export Plug-In . SVG Version: 6.00 Build 0)  -->
<!DOCTYPE svg PUBLIC "-//W3C//DTD SVG 1.1//EN" "http://www.w3.org/Graphics/SVG/1.1/DTD/svg11.dtd">
<svg version="1.1" id="Lager_1" xmlns="http://www.w3.org/2000/svg" xmlns:xlink="http://www.w3.org/1999/xlink" x="0px" y="0px"
	 width="76.115px" height="53.284px" viewBox="0 0 76.115 53.284" style="enable-background:new 0 0 76.115 53.284;"
	 xml:space="preserve">
<g>
	<g>
		<path style="fill:#CC0000;" d="M48.718,20.202v0.131c-0.311,0.03-0.564,0.092-0.761,0.185c-0.196,0.093-0.391,0.235-0.582,0.425
			s-0.351,0.403-0.477,0.637c-0.126,0.234-0.23,0.513-0.315,0.834c0.339-0.232,0.679-0.349,1.02-0.349
			c0.327,0,0.61,0.132,0.851,0.395c0.24,0.264,0.36,0.603,0.36,1.017c0,0.4-0.122,0.764-0.364,1.094c-0.291,0.4-0.677,0.6-1.157,0.6
			c-0.327,0-0.604-0.108-0.833-0.324c-0.446-0.421-0.67-0.967-0.67-1.638c0-0.428,0.086-0.835,0.258-1.221s0.417-0.728,0.735-1.027
			s0.624-0.5,0.916-0.604c0.291-0.104,0.563-0.155,0.814-0.155H48.718z M46.523,22.672c-0.043,0.317-0.064,0.574-0.064,0.769
			c0,0.226,0.042,0.471,0.126,0.736c0.083,0.265,0.207,0.475,0.372,0.63c0.12,0.111,0.266,0.166,0.438,0.166
			c0.205,0,0.388-0.097,0.549-0.29s0.241-0.468,0.241-0.826c0-0.402-0.08-0.75-0.239-1.044c-0.16-0.294-0.388-0.441-0.682-0.441
			c-0.089,0-0.185,0.019-0.287,0.056C46.874,22.466,46.723,22.547,46.523,22.672z"/>
	</g>
	<g>
		<path style="fill:#0066FF;" d="M1.257,2.112h4.437v0.232l-2.759,8.215H2.252l2.472-7.452H2.447c-0.459,0-0.787,0.055-0.982,0.165
			C1.123,3.458,0.849,3.748,0.641,4.138L0.464,4.071L1.257,2.112z"/>
		<path style="fill:#0066FF;" d="M6.921,12.469v-0.269c0.419-0.138,0.744-0.353,0.974-0.644c0.229-0.291,0.345-0.599,0.345-0.925
			c0-0.077-0.018-0.143-0.055-0.195C8.156,10.4,8.128,10.382,8.1,10.382c-0.045,0-0.143,0.041-0.293,0.122
			c-0.073,0.036-0.151,0.055-0.232,0.055c-0.199,0-0.358-0.059-0.476-0.177c-0.118-0.118-0.177-0.281-0.177-0.488
			c0-0.2,0.076-0.371,0.229-0.513c0.152-0.143,0.339-0.214,0.559-0.214c0.269,0,0.507,0.117,0.717,0.351s0.314,0.544,0.314,0.931
			c0,0.419-0.146,0.809-0.437,1.169C8.013,11.978,7.552,12.262,6.921,12.469z"/>
		<path style="fill:#0066FF;" d="M16.669,8.795l-0.58,1.593h-4.883v-0.226c1.437-1.311,2.447-2.381,3.033-3.211
			s0.879-1.589,0.879-2.276c0-0.525-0.161-0.956-0.482-1.294s-0.706-0.507-1.154-0.507c-0.407,0-0.772,0.119-1.095,0.357
			c-0.324,0.238-0.562,0.587-0.717,1.047h-0.226c0.102-0.753,0.363-1.331,0.784-1.733c0.421-0.403,0.947-0.604,1.578-0.604
			c0.671,0,1.232,0.216,1.682,0.647c0.449,0.431,0.674,0.94,0.674,1.526c0,0.419-0.098,0.838-0.293,1.257
			c-0.301,0.659-0.79,1.357-1.465,2.093c-1.013,1.107-1.646,1.774-1.898,2.002h2.161c0.439,0,0.748-0.016,0.924-0.049
			c0.177-0.032,0.337-0.098,0.479-0.198c0.143-0.1,0.267-0.241,0.373-0.424H16.669z"/>
		<path style="fill:#0066FF;" d="M43.525,2.112v0.226c-0.216,0-0.391,0.039-0.524,0.116c-0.135,0.077-0.263,0.222-0.385,0.434
			c-0.081,0.142-0.21,0.482-0.385,1.019l-2.307,6.671h-0.244l-1.886-5.292l-1.874,5.292h-0.22l-2.46-6.873
			c-0.183-0.513-0.299-0.815-0.348-0.909c-0.082-0.155-0.192-0.27-0.333-0.345c-0.14-0.075-0.331-0.113-0.57-0.113V2.112h3.063
			v0.226h-0.146c-0.215,0-0.38,0.049-0.494,0.146S34.242,2.7,34.242,2.838c0,0.142,0.089,0.47,0.269,0.982l1.63,4.645l1.373-3.949
			L37.27,3.821l-0.195-0.556c-0.085-0.203-0.181-0.382-0.287-0.537c-0.053-0.077-0.118-0.142-0.195-0.195
			c-0.102-0.073-0.203-0.126-0.305-0.158c-0.078-0.024-0.2-0.037-0.366-0.037V2.112h3.223v0.226h-0.22
			c-0.228,0-0.395,0.049-0.501,0.146c-0.105,0.098-0.158,0.23-0.158,0.397c0,0.208,0.091,0.57,0.274,1.086l1.587,4.498L41.7,3.906
			c0.18-0.504,0.27-0.854,0.27-1.05c0-0.094-0.03-0.181-0.089-0.262c-0.06-0.082-0.134-0.139-0.223-0.171
			c-0.155-0.057-0.356-0.086-0.604-0.086V2.112H43.525z"/>
		<path style="fill:#0066FF;" d="M46.898,4.999h6.586V5.5h-6.586V4.999z M46.898,6.989h6.586v0.5h-6.586V6.989z"/>
	</g>
	<g>
		<path style="fill:#0066FF;" d="M0.431,25.311h6.586v0.501H0.431V25.311z M0.431,27.301h6.586v0.5H0.431V27.301z"/>
		<path style="fill:#0066FF;" d="M12.2,22.424h4.437v0.232l-2.759,8.215h-0.684l2.472-7.452H13.39c-0.459,0-0.787,0.055-0.982,0.165
			c-0.342,0.187-0.616,0.476-0.824,0.867l-0.177-0.067L12.2,22.424z"/>
		<path style="fill:#0066FF;" d="M17.864,32.782v-0.269c0.419-0.138,0.744-0.353,0.974-0.644c0.229-0.291,0.345-0.6,0.345-0.925
			c0-0.077-0.018-0.143-0.055-0.195c-0.028-0.037-0.057-0.055-0.085-0.055c-0.045,0-0.143,0.04-0.293,0.122
			c-0.073,0.036-0.151,0.055-0.232,0.055c-0.199,0-0.358-0.059-0.476-0.177c-0.118-0.118-0.177-0.281-0.177-0.488
			c0-0.199,0.076-0.37,0.229-0.513c0.152-0.143,0.339-0.214,0.559-0.214c0.269,0,0.507,0.117,0.717,0.351
			c0.209,0.234,0.314,0.545,0.314,0.931c0,0.42-0.146,0.81-0.437,1.169C18.955,32.291,18.495,32.575,17.864,32.782z"/>
		<path style="fill:#0066FF;" d="M27.611,29.108l-0.58,1.593h-4.883v-0.226c1.437-1.311,2.447-2.381,3.033-3.211
			s0.879-1.589,0.879-2.276c0-0.525-0.161-0.956-0.482-1.294s-0.706-0.507-1.154-0.507c-0.407,0-0.772,0.119-1.095,0.357
			c-0.324,0.238-0.562,0.587-0.717,1.047h-0.226c0.102-0.753,0.363-1.331,0.784-1.733c0.421-0.403,0.947-0.604,1.578-0.604
			c0.671,0,1.232,0.216,1.682,0.647c0.449,0.431,0.674,0.94,0.674,1.526c0,0.419-0.098,0.838-0.293,1.257
			c-0.301,0.659-0.79,1.357-1.465,2.093c-1.013,1.107-1.646,1.774-1.898,2.002h2.161c0.439,0,0.748-0.016,0.924-0.049
			c0.177-0.032,0.337-0.099,0.479-0.198c0.143-0.1,0.267-0.241,0.373-0.424H27.611z"/>
		<path style="fill:#0066FF;" d="M65.917,22.424v0.226c-0.216,0-0.391,0.039-0.524,0.116c-0.135,0.077-0.263,0.222-0.385,0.434
			c-0.081,0.142-0.21,0.482-0.385,1.019l-2.307,6.671h-0.244l-1.887-5.292l-1.873,5.292h-0.22l-2.46-6.873
			c-0.184-0.513-0.299-0.815-0.348-0.909c-0.082-0.155-0.192-0.27-0.333-0.345s-0.33-0.113-0.57-0.113v-0.226h3.063v0.226h-0.146
			c-0.216,0-0.38,0.049-0.494,0.146s-0.171,0.216-0.171,0.354c0,0.142,0.09,0.47,0.269,0.982l1.63,4.645l1.373-3.949l-0.244-0.696
			l-0.195-0.556c-0.085-0.203-0.181-0.382-0.287-0.537c-0.053-0.077-0.118-0.142-0.195-0.195c-0.102-0.073-0.203-0.126-0.305-0.158
			c-0.077-0.024-0.199-0.037-0.366-0.037v-0.226h3.223v0.226h-0.22c-0.229,0-0.395,0.049-0.501,0.146
			c-0.105,0.098-0.158,0.23-0.158,0.397c0,0.208,0.092,0.57,0.274,1.086l1.587,4.498l1.574-4.559c0.18-0.504,0.27-0.854,0.27-1.05
			c0-0.094-0.03-0.181-0.089-0.262c-0.06-0.082-0.134-0.139-0.223-0.171c-0.155-0.057-0.356-0.086-0.604-0.086v-0.226H65.917z"/>
		<path style="fill:#0066FF;" d="M69.291,25.311h6.586v0.501h-6.586V25.311z M69.291,27.301h6.586v0.5h-6.586V27.301z"/>
	</g>
	<g>
		<path style="fill:#0066FF;" d="M0.431,44.061h6.586v0.501H0.431V44.061z M0.431,46.051h6.586v0.5H0.431V46.051z"/>
		<path style="fill:#0066FF;" d="M11.625,41.174h4.437v0.231l-2.759,8.216h-0.684l2.472-7.452h-2.277
			c-0.459,0-0.787,0.055-0.982,0.164c-0.342,0.188-0.616,0.477-0.824,0.867l-0.177-0.067L11.625,41.174z"/>
		<path style="fill:#0066FF;" d="M25.511,47.858l-0.58,1.593h-4.883v-0.226c1.437-1.311,2.447-2.381,3.033-3.211
			s0.879-1.589,0.879-2.276c0-0.525-0.161-0.956-0.482-1.294s-0.706-0.507-1.154-0.507c-0.407,0-0.772,0.119-1.095,0.357
			c-0.324,0.238-0.562,0.587-0.717,1.047h-0.226c0.102-0.753,0.363-1.331,0.784-1.733c0.421-0.403,0.947-0.604,1.578-0.604
			c0.671,0,1.232,0.216,1.682,0.646c0.449,0.432,0.674,0.94,0.674,1.526c0,0.419-0.098,0.838-0.293,1.257
			c-0.301,0.66-0.79,1.357-1.465,2.094c-1.013,1.107-1.646,1.774-1.898,2.002h2.161c0.439,0,0.748-0.016,0.924-0.049
			c0.177-0.032,0.337-0.099,0.479-0.198c0.143-0.1,0.267-0.241,0.373-0.424H25.511z"/>
		<path style="fill:#0066FF;" d="M26.481,45.361c0-0.943,0.143-1.756,0.427-2.438s0.663-1.189,1.135-1.523
			c0.366-0.265,0.745-0.396,1.135-0.396c0.635,0,1.205,0.323,1.709,0.971c0.631,0.802,0.946,1.888,0.946,3.259
			c0,0.961-0.139,1.776-0.415,2.448c-0.277,0.671-0.63,1.158-1.059,1.461c-0.43,0.304-0.843,0.455-1.242,0.455
			c-0.79,0-1.447-0.466-1.971-1.397C26.703,47.415,26.481,46.468,26.481,45.361z M27.678,45.514c0,1.139,0.14,2.069,0.421,2.789
			c0.231,0.606,0.578,0.909,1.037,0.909c0.22,0,0.448-0.099,0.684-0.296c0.236-0.197,0.415-0.528,0.537-0.991
			c0.188-0.7,0.281-1.688,0.281-2.961c0-0.943-0.098-1.731-0.293-2.361c-0.146-0.469-0.336-0.8-0.568-0.995
			c-0.167-0.135-0.368-0.202-0.604-0.202c-0.277,0-0.523,0.125-0.739,0.373c-0.293,0.338-0.492,0.868-0.598,1.593
			S27.678,44.81,27.678,45.514z"/>
		<path style="fill:#0066FF;" d="M32.731,45.361c0-0.943,0.143-1.756,0.427-2.438s0.663-1.189,1.135-1.523
			c0.366-0.265,0.745-0.396,1.135-0.396c0.635,0,1.205,0.323,1.709,0.971c0.631,0.802,0.946,1.888,0.946,3.259
			c0,0.961-0.139,1.776-0.415,2.448c-0.277,0.671-0.63,1.158-1.059,1.461c-0.43,0.304-0.843,0.455-1.242,0.455
			c-0.79,0-1.447-0.466-1.971-1.397C32.953,47.415,32.731,46.468,32.731,45.361z M33.928,45.514c0,1.139,0.14,2.069,0.421,2.789
			c0.231,0.606,0.578,0.909,1.037,0.909c0.22,0,0.448-0.099,0.684-0.296c0.236-0.197,0.415-0.528,0.537-0.991
			c0.188-0.7,0.281-1.688,0.281-2.961c0-0.943-0.098-1.731-0.293-2.361c-0.146-0.469-0.336-0.8-0.568-0.995
			c-0.167-0.135-0.368-0.202-0.604-0.202c-0.277,0-0.523,0.125-0.739,0.373c-0.293,0.338-0.492,0.868-0.598,1.593
			S33.928,44.81,33.928,45.514z"/>
		<path style="fill:#0066FF;" d="M41.743,45.361c0-0.943,0.143-1.756,0.428-2.438s0.663-1.189,1.135-1.523
			c0.367-0.265,0.745-0.396,1.136-0.396c0.635,0,1.204,0.323,1.709,0.971c0.631,0.802,0.946,1.888,0.946,3.259
			c0,0.961-0.139,1.776-0.415,2.448c-0.277,0.671-0.63,1.158-1.06,1.461c-0.429,0.304-0.843,0.455-1.242,0.455
			c-0.789,0-1.446-0.466-1.971-1.397C41.966,47.415,41.743,46.468,41.743,45.361z M42.94,45.514c0,1.139,0.14,2.069,0.421,2.789
			c0.231,0.606,0.577,0.909,1.037,0.909c0.22,0,0.448-0.099,0.684-0.296c0.236-0.197,0.415-0.528,0.537-0.991
			c0.188-0.7,0.281-1.688,0.281-2.961c0-0.943-0.098-1.731-0.293-2.361c-0.146-0.469-0.336-0.8-0.567-0.995
			c-0.167-0.135-0.369-0.202-0.604-0.202c-0.277,0-0.523,0.125-0.739,0.373c-0.293,0.338-0.492,0.868-0.598,1.593
			S42.94,44.81,42.94,45.514z"/>
	</g>
	<g>
		<path style="fill:#CC0000;" d="M39.485,26.611c0-0.944,0.143-1.757,0.427-2.438c0.285-0.681,0.663-1.189,1.135-1.523
			c0.367-0.264,0.745-0.396,1.136-0.396c0.635,0,1.204,0.323,1.709,0.971c0.631,0.801,0.946,1.888,0.946,3.259
			c0,0.961-0.139,1.776-0.415,2.448c-0.277,0.671-0.63,1.158-1.06,1.461c-0.429,0.304-0.843,0.455-1.242,0.455
			c-0.789,0-1.446-0.466-1.971-1.397C39.706,28.665,39.485,27.718,39.485,26.611z M40.682,26.764c0,1.139,0.14,2.069,0.421,2.789
			c0.231,0.606,0.577,0.909,1.037,0.909c0.22,0,0.448-0.099,0.684-0.296c0.236-0.197,0.415-0.528,0.537-0.991
			c0.188-0.7,0.281-1.687,0.281-2.961c0-0.944-0.098-1.731-0.293-2.362c-0.146-0.468-0.336-0.799-0.567-0.995
			c-0.167-0.135-0.369-0.202-0.604-0.202c-0.277,0-0.523,0.124-0.739,0.373c-0.293,0.337-0.492,0.869-0.598,1.593
			S40.682,26.06,40.682,26.764z"/>
	</g>
	<g>
		<path style="fill:#0066FF;" d="M74.874,41.174V41.4c-0.216,0-0.391,0.039-0.524,0.116c-0.135,0.077-0.263,0.222-0.385,0.434
			c-0.081,0.143-0.21,0.481-0.385,1.019l-2.307,6.672h-0.244l-1.887-5.292L67.27,49.64h-0.22l-2.46-6.873
			c-0.184-0.513-0.299-0.815-0.348-0.909c-0.082-0.154-0.192-0.27-0.333-0.345s-0.33-0.113-0.57-0.113v-0.226h3.063V41.4h-0.146
			c-0.216,0-0.38,0.049-0.494,0.146s-0.171,0.216-0.171,0.354c0,0.143,0.09,0.47,0.269,0.982l1.63,4.645l1.373-3.948l-0.244-0.696
			l-0.195-0.556c-0.085-0.203-0.181-0.382-0.287-0.537c-0.053-0.077-0.118-0.143-0.195-0.195c-0.102-0.073-0.203-0.126-0.305-0.158
			c-0.077-0.024-0.199-0.037-0.366-0.037v-0.226h3.223V41.4h-0.22c-0.229,0-0.395,0.049-0.501,0.146
			c-0.105,0.098-0.158,0.23-0.158,0.396c0,0.208,0.092,0.57,0.274,1.087l1.587,4.498l1.574-4.56c0.18-0.504,0.27-0.854,0.27-1.049
			c0-0.094-0.03-0.182-0.089-0.263c-0.06-0.082-0.134-0.139-0.223-0.171c-0.155-0.058-0.356-0.086-0.604-0.086v-0.226H74.874z"/>
	</g>
	<g>
		<path style="fill:#CC0000;" d="M25.818,10.388L22.62,3.424v5.529c0,0.509,0.055,0.826,0.165,0.952
			c0.151,0.171,0.389,0.257,0.714,0.257h0.293v0.226h-2.881v-0.226h0.293c0.35,0,0.598-0.106,0.745-0.317
			c0.089-0.13,0.134-0.428,0.134-0.892V3.546c0-0.366-0.041-0.631-0.122-0.794c-0.057-0.118-0.162-0.216-0.314-0.296
			c-0.152-0.079-0.397-0.119-0.735-0.119V2.112h2.344l3.003,6.476l2.954-6.476h2.344v0.226h-0.287c-0.354,0-0.604,0.106-0.751,0.317
			c-0.089,0.13-0.134,0.428-0.134,0.892v5.407c0,0.509,0.057,0.826,0.171,0.952c0.15,0.171,0.389,0.257,0.714,0.257h0.287v0.226
			H28.04v-0.226h0.293c0.354,0,0.602-0.106,0.745-0.317c0.089-0.13,0.134-0.428,0.134-0.892V3.424l-3.192,6.964H25.818z"/>
	</g>
	<g>
		<path style="fill:#CC0000;" d="M34.248,23.236l2.014-0.982h0.202v6.988c0,0.464,0.019,0.753,0.058,0.867
			c0.039,0.113,0.119,0.201,0.241,0.262c0.122,0.062,0.37,0.096,0.745,0.104v0.226h-3.113v-0.226
			c0.391-0.009,0.643-0.042,0.757-0.101c0.114-0.06,0.193-0.139,0.238-0.238c0.044-0.1,0.067-0.397,0.067-0.895v-4.468
			c0-0.602-0.021-0.988-0.061-1.159c-0.028-0.13-0.081-0.226-0.156-0.287s-0.166-0.092-0.271-0.092c-0.15,0-0.36,0.063-0.628,0.189
			L34.248,23.236z"/>
	</g>
	<g>
		<path style="fill:#0066FF;" d="M48,45.361c0-0.943,0.143-1.756,0.428-2.438s0.663-1.189,1.135-1.523
			c0.367-0.265,0.745-0.396,1.136-0.396c0.635,0,1.204,0.323,1.709,0.971c0.631,0.802,0.946,1.888,0.946,3.259
			c0,0.961-0.139,1.776-0.415,2.448c-0.277,0.671-0.63,1.158-1.06,1.461c-0.429,0.304-0.843,0.455-1.242,0.455
			c-0.789,0-1.446-0.466-1.971-1.397C48.223,47.415,48,46.468,48,45.361z M49.197,45.514c0,1.139,0.14,2.069,0.421,2.789
			c0.231,0.606,0.577,0.909,1.037,0.909c0.22,0,0.448-0.099,0.684-0.296c0.236-0.197,0.415-0.528,0.537-0.991
			c0.188-0.7,0.281-1.688,0.281-2.961c0-0.943-0.098-1.731-0.293-2.361c-0.146-0.469-0.336-0.8-0.567-0.995
			c-0.167-0.135-0.369-0.202-0.604-0.202c-0.277,0-0.523,0.125-0.739,0.373c-0.293,0.338-0.492,0.868-0.598,1.593
			S49.197,44.81,49.197,45.514z"/>
		<path style="fill:#0066FF;" d="M54.25,45.361c0-0.943,0.143-1.756,0.428-2.438s0.663-1.189,1.135-1.523
			c0.367-0.265,0.745-0.396,1.136-0.396c0.635,0,1.204,0.323,1.709,0.971c0.631,0.802,0.946,1.888,0.946,3.259
			c0,0.961-0.139,1.776-0.415,2.448c-0.277,0.671-0.63,1.158-1.06,1.461c-0.429,0.304-0.843,0.455-1.242,0.455
			c-0.789,0-1.446-0.466-1.971-1.397C54.473,47.415,54.25,46.468,54.25,45.361z M55.447,45.514c0,1.139,0.14,2.069,0.421,2.789
			c0.231,0.606,0.577,0.909,1.037,0.909c0.22,0,0.448-0.099,0.684-0.296c0.236-0.197,0.415-0.528,0.537-0.991
			c0.188-0.7,0.281-1.688,0.281-2.961c0-0.943-0.098-1.731-0.293-2.361c-0.146-0.469-0.336-0.8-0.567-0.995
			c-0.167-0.135-0.369-0.202-0.604-0.202c-0.277,0-0.523,0.125-0.739,0.373c-0.293,0.338-0.492,0.868-0.598,1.593
			S55.447,44.81,55.447,45.514z"/>
	</g>
	<g>
		<path style="fill:#0066FF;" d="M31.619,27.502c0,0.188-0.066,0.347-0.198,0.479c-0.132,0.132-0.29,0.198-0.473,0.198
			c-0.187,0-0.347-0.066-0.479-0.198c-0.132-0.133-0.199-0.292-0.199-0.479c0-0.187,0.066-0.347,0.199-0.479
			c0.132-0.132,0.292-0.199,0.479-0.199c0.183,0,0.341,0.066,0.473,0.199C31.552,27.156,31.619,27.315,31.619,27.502z"/>
	</g>
</g>
<g id="theGroup">
</g>
</svg>
