<?xml version="1.0" encoding="iso-8859-1"?>
<!-- Generator: Adobe Illustrator 16.0.0, SVG Export Plug-In . SVG Version: 6.00 Build 0)  -->
<!DOCTYPE svg PUBLIC "-//W3C//DTD SVG 1.1//EN" "http://www.w3.org/Graphics/SVG/1.1/DTD/svg11.dtd">
<svg version="1.1" id="Lager_1" xmlns="http://www.w3.org/2000/svg" xmlns:xlink="http://www.w3.org/1999/xlink" x="0px" y="0px"
	 width="132.146px" height="32.719px" viewBox="0 0 132.146 32.719" style="enable-background:new 0 0 132.146 32.719;"
	 xml:space="preserve">
<line style="fill:none;stroke:#1F5DA5;stroke-width:0.75;" x1="0.388" y1="18.392" x2="0.388" y2="6.338"/>
<line style="fill:none;stroke:#1F5DA5;stroke-width:0.75;" x1="6.053" y1="6.338" x2="6.053" y2="18.392"/>
<path style="fill:none;stroke:#1F5DA5;stroke-width:0.5;stroke-dasharray:2;" d="M0.388,18.377c0-0.501,1.269-0.906,2.833-0.906
	c1.564,0,2.832,0.405,2.832,0.906"/>
<ellipse style="fill:none;stroke:#1F5DA5;stroke-width:0.75;" cx="3.183" cy="0.688" rx="0.977" ry="0.312"/>
<path style="fill:none;stroke:#1F5DA5;stroke-width:0.75;" d="M4,1.334c0,0.173-0.365,0.312-0.815,0.312
	c-0.449,0-0.813-0.14-0.813-0.312"/>
<path style="fill:none;stroke:#1F5DA5;stroke-width:0.75;" d="M0.388,6.362c0,0-0.229-1.279,1.208-1.717"/>
<path style="fill:none;stroke:#1F5DA5;stroke-width:0.75;" d="M1.541,4.637c0,0,0.883-0.218,0.852-1.467"/>
<line style="fill:none;stroke:#1F5DA5;stroke-width:0.75;" x1="2.393" y1="3.17" x2="2.393" y2="1.045"/>
<path style="fill:none;stroke:#1F5DA5;stroke-width:0.75;" d="M6.026,6.362c0,0,0.229-1.279-1.207-1.717"/>
<path style="fill:none;stroke:#1F5DA5;stroke-width:0.75;" d="M4.874,4.637c0,0-0.883-0.218-0.852-1.467"/>
<line style="fill:none;stroke:#1F5DA5;stroke-width:0.75;" x1="4.022" y1="3.303" x2="4.022" y2="1.045"/>
<path style="fill:none;stroke:#1F5DA5;stroke-width:0.75;" d="M4.023,1.066c0,0,0.008-0.305,0.195-0.305"/>
<path style="fill:none;stroke:#1F5DA5;stroke-width:0.75;" d="M2.389,1.066c0,0-0.009-0.305-0.196-0.305"/>
<path style="fill:none;stroke:#1F5DA5;stroke-width:0.75;" d="M6.053,18.271c0,0.5-1.268,0.906-2.832,0.906
	c-1.564,0-2.833-0.406-2.833-0.906"/>
<g>
	<path style="fill:none;stroke:#1F5DA5;stroke-width:0.75;" d="M5.43,10.944c0,0.678-0.638,1.233-1.417,1.233H2.403
		c-0.78,0-1.417-0.556-1.417-1.233c0-0.679,0.638-1.234,1.417-1.234h1.609C4.792,9.71,5.43,10.266,5.43,10.944z"/>
</g>
<path style="fill:none;stroke:#1F5DA5;stroke-width:0.75;stroke-linecap:round;" d="M1.408,11.365
	c0.192-0.188,0.252-0.588,0.352-0.84c0.201,0.165,0.18,0.565,0.022,0.761c0.041-0.231,0.271-0.438,0.406-0.605
	C2.36,10.839,2.3,11.14,2.13,11.271c0.06-0.048,0.091-0.051,0.21-0.072c0.007-0.043,0.034-0.102,0.038-0.135
	c-0.035,0.132,0.004,0.257,0.116,0.329c0.028-0.173,0.126-0.317,0.137-0.49c0.014,0.001,0.07,0.003,0.083,0
	c0.081,0.077,0.154,0.204,0.135,0.334c0.322-0.048,0.451-0.581,0.618-0.83c-0.007,0.188-0.109,0.372-0.119,0.555
	c-0.005,0.103,0.139,0.142,0.037,0.328c0.105-0.151,0.37-0.183,0.426-0.271c-0.009,0.092,0,0.192,0.007,0.283
	c0.263-0.271,0.44-0.322,0.743-0.247"/>
<line style="fill:none;stroke:#1F5DA5;stroke-width:0.75;" x1="10.311" y1="18.392" x2="10.311" y2="6.338"/>
<line style="fill:none;stroke:#1F5DA5;stroke-width:0.75;" x1="15.975" y1="6.338" x2="15.975" y2="18.392"/>
<path style="fill:none;stroke:#1F5DA5;stroke-width:0.5;stroke-dasharray:2;" d="M10.311,18.377c0-0.501,1.269-0.906,2.833-0.906
	c1.564,0,2.832,0.405,2.832,0.906"/>
<ellipse style="fill:none;stroke:#1F5DA5;stroke-width:0.75;" cx="13.106" cy="0.688" rx="0.977" ry="0.312"/>
<path style="fill:none;stroke:#1F5DA5;stroke-width:0.75;" d="M13.922,1.334c0,0.173-0.365,0.312-0.815,0.312
	c-0.449,0-0.813-0.14-0.813-0.312"/>
<path style="fill:none;stroke:#1F5DA5;stroke-width:0.75;" d="M10.311,6.362c0,0-0.229-1.279,1.208-1.717"/>
<path style="fill:none;stroke:#1F5DA5;stroke-width:0.75;" d="M11.463,4.637c0,0,0.883-0.218,0.852-1.467"/>
<line style="fill:none;stroke:#1F5DA5;stroke-width:0.75;" x1="12.315" y1="3.17" x2="12.315" y2="1.045"/>
<path style="fill:none;stroke:#1F5DA5;stroke-width:0.75;" d="M15.948,6.362c0,0,0.229-1.279-1.207-1.717"/>
<path style="fill:none;stroke:#1F5DA5;stroke-width:0.75;" d="M14.796,4.637c0,0-0.883-0.218-0.852-1.467"/>
<line style="fill:none;stroke:#1F5DA5;stroke-width:0.75;" x1="13.944" y1="3.303" x2="13.944" y2="1.045"/>
<path style="fill:none;stroke:#1F5DA5;stroke-width:0.75;" d="M13.945,1.066c0,0,0.008-0.305,0.195-0.305"/>
<path style="fill:none;stroke:#1F5DA5;stroke-width:0.75;" d="M12.311,1.066c0,0-0.009-0.305-0.196-0.305"/>
<path style="fill:none;stroke:#1F5DA5;stroke-width:0.75;" d="M15.976,18.271c0,0.5-1.268,0.906-2.832,0.906
	c-1.564,0-2.833-0.406-2.833-0.906"/>
<g>
	<path style="fill:none;stroke:#1F5DA5;stroke-width:0.75;" d="M15.352,10.944c0,0.678-0.638,1.233-1.417,1.233h-1.609
		c-0.78,0-1.417-0.556-1.417-1.233c0-0.679,0.638-1.234,1.417-1.234h1.609C14.714,9.71,15.352,10.266,15.352,10.944z"/>
</g>
<path style="fill:none;stroke:#1F5DA5;stroke-width:0.75;stroke-linecap:round;" d="M11.33,11.365
	c0.192-0.188,0.252-0.588,0.352-0.84c0.201,0.165,0.18,0.565,0.022,0.761c0.041-0.231,0.271-0.438,0.406-0.605
	c0.172,0.158,0.113,0.459-0.057,0.59c0.06-0.048,0.091-0.051,0.21-0.072c0.007-0.043,0.034-0.102,0.038-0.135
	c-0.035,0.132,0.004,0.257,0.116,0.329c0.028-0.173,0.126-0.317,0.137-0.49c0.014,0.001,0.07,0.003,0.083,0
	c0.081,0.077,0.154,0.204,0.135,0.334c0.322-0.048,0.451-0.581,0.618-0.83c-0.007,0.188-0.109,0.372-0.119,0.555
	c-0.005,0.103,0.139,0.142,0.037,0.328c0.105-0.151,0.37-0.183,0.426-0.271c-0.009,0.092,0,0.192,0.007,0.283
	c0.263-0.271,0.44-0.322,0.743-0.247"/>
<line style="fill:none;stroke:#1F5DA5;stroke-width:0.75;" x1="20.233" y1="18.392" x2="20.233" y2="6.338"/>
<line style="fill:none;stroke:#1F5DA5;stroke-width:0.75;" x1="25.897" y1="6.338" x2="25.897" y2="18.392"/>
<path style="fill:none;stroke:#1F5DA5;stroke-width:0.5;stroke-dasharray:2;" d="M20.233,18.377c0-0.501,1.269-0.906,2.833-0.906
	c1.564,0,2.832,0.405,2.832,0.906"/>
<ellipse style="fill:none;stroke:#1F5DA5;stroke-width:0.75;" cx="23.028" cy="0.688" rx="0.977" ry="0.312"/>
<path style="fill:none;stroke:#1F5DA5;stroke-width:0.75;" d="M23.845,1.334c0,0.173-0.365,0.312-0.815,0.312
	c-0.449,0-0.813-0.14-0.813-0.312"/>
<path style="fill:none;stroke:#1F5DA5;stroke-width:0.75;" d="M20.233,6.362c0,0-0.229-1.279,1.208-1.717"/>
<path style="fill:none;stroke:#1F5DA5;stroke-width:0.75;" d="M21.386,4.637c0,0,0.883-0.218,0.852-1.467"/>
<line style="fill:none;stroke:#1F5DA5;stroke-width:0.75;" x1="22.238" y1="3.17" x2="22.238" y2="1.045"/>
<path style="fill:none;stroke:#1F5DA5;stroke-width:0.75;" d="M25.871,6.362c0,0,0.229-1.279-1.207-1.717"/>
<path style="fill:none;stroke:#1F5DA5;stroke-width:0.75;" d="M24.719,4.637c0,0-0.883-0.218-0.852-1.467"/>
<line style="fill:none;stroke:#1F5DA5;stroke-width:0.75;" x1="23.867" y1="3.303" x2="23.867" y2="1.045"/>
<path style="fill:none;stroke:#1F5DA5;stroke-width:0.75;" d="M23.868,1.066c0,0,0.008-0.305,0.195-0.305"/>
<path style="fill:none;stroke:#1F5DA5;stroke-width:0.75;" d="M22.233,1.066c0,0-0.009-0.305-0.196-0.305"/>
<path style="fill:none;stroke:#1F5DA5;stroke-width:0.75;" d="M25.898,18.271c0,0.5-1.268,0.906-2.832,0.906
	c-1.564,0-2.833-0.406-2.833-0.906"/>
<g>
	<path style="fill:none;stroke:#1F5DA5;stroke-width:0.75;" d="M25.274,10.944c0,0.678-0.638,1.233-1.417,1.233h-1.609
		c-0.78,0-1.417-0.556-1.417-1.233c0-0.679,0.638-1.234,1.417-1.234h1.609C24.637,9.71,25.274,10.266,25.274,10.944z"/>
</g>
<path style="fill:none;stroke:#1F5DA5;stroke-width:0.75;stroke-linecap:round;" d="M21.252,11.365
	c0.192-0.188,0.252-0.588,0.352-0.84c0.201,0.165,0.18,0.565,0.022,0.761c0.041-0.231,0.271-0.438,0.406-0.605
	c0.172,0.158,0.113,0.459-0.057,0.59c0.06-0.048,0.091-0.051,0.21-0.072c0.007-0.043,0.034-0.102,0.038-0.135
	c-0.035,0.132,0.004,0.257,0.116,0.329c0.028-0.173,0.126-0.317,0.137-0.49c0.014,0.001,0.07,0.003,0.083,0
	c0.081,0.077,0.154,0.204,0.135,0.334c0.322-0.048,0.451-0.581,0.618-0.83c-0.007,0.188-0.109,0.372-0.119,0.555
	c-0.005,0.103,0.139,0.142,0.037,0.328c0.105-0.151,0.37-0.183,0.426-0.271c-0.009,0.092,0,0.192,0.007,0.283
	c0.263-0.271,0.44-0.322,0.743-0.247"/>
<g>
	<path style="fill:#1F5DA5;" d="M3.824,31.15v-0.435h0.875v-4.111l-0.974,0.099v-0.329c0.351-0.105,0.75-0.21,0.974-0.351h0.504
		v4.692h0.861v0.435H3.824z"/>
	<path style="fill:#1F5DA5;" d="M10.375,26.094v5.057H9.871v-5.057H10.375z"/>
	<path style="fill:#1F5DA5;" d="M12.321,26.023v0.603h-0.504v-0.603H12.321z M11.817,27.509h0.504v3.642h-0.504V27.509z"/>
	<path style="fill:#1F5DA5;" d="M13.763,27.509v-1.198h0.504v1.198h0.84v0.434h-0.84v2.592c0,0.168,0.119,0.252,0.413,0.252
		c0.168,0,0.315-0.014,0.448-0.035v0.413c-0.091,0.028-0.294,0.057-0.588,0.057c-0.546,0-0.778-0.141-0.778-0.603v-2.676h-0.595
		v-0.434H13.763z"/>
	<path style="fill:#1F5DA5;" d="M18.636,30.373c-0.238,0.413-0.574,0.848-1.401,0.848c-0.812,0-1.583-0.561-1.583-1.892
		c0-1.177,0.588-1.891,1.485-1.891c0.756,0,1.387,0.49,1.387,1.652v0.337h-2.367c0,0.798,0.476,1.358,1.078,1.358
		c0.448,0,0.799-0.238,1.009-0.616L18.636,30.373z M18.02,28.993c0-0.672-0.322-1.12-0.869-1.12c-0.609,0-0.938,0.448-0.98,1.12
		H18.02z"/>
	<path style="fill:#1F5DA5;" d="M19.363,27.509h0.504v0.721h0.014c0.28-0.497,0.582-0.777,1.184-0.777v0.505
		c-0.63,0.014-0.959,0.427-1.198,1.177v2.017h-0.504V27.509z"/>
</g>
<g>
	<path style="fill:#1F5DA5;" d="M1.277,20.265H1.55c0.07,0.545,0.25,0.927,0.538,1.146c0.289,0.22,0.791,0.33,1.506,0.33h6.631
		v0.593H3.492c-0.773,0-1.327-0.159-1.661-0.477S1.312,21.009,1.277,20.265z"/>
	<path style="fill:#1F5DA5;" d="M14.821,23.863h-0.422c-0.064-0.554-0.241-0.947-0.529-1.18c-0.289-0.233-0.751-0.35-1.387-0.35
		h-2.466v-0.593h2.431c0.753,0,1.288,0.148,1.604,0.447s0.492,0.812,0.527,1.539h0.074c0.035-0.732,0.21-1.247,0.525-1.543
		c0.314-0.296,0.848-0.443,1.598-0.443h2.447v0.593H16.75c-0.638,0-1.104,0.117-1.395,0.352
		C15.063,22.92,14.886,23.312,14.821,23.863z"/>
	<path style="fill:#1F5DA5;" d="M25.632,21.741h0.343c0.519,0,0.922-0.125,1.211-0.374c0.288-0.249,0.455-0.616,0.498-1.103h0.269
		c0,0.018-0.002,0.043-0.005,0.078s-0.004,0.063-0.004,0.084c0,0.281-0.057,0.559-0.169,0.833c-0.113,0.274-0.264,0.494-0.45,0.661
		c-0.171,0.146-0.368,0.252-0.594,0.316s-0.559,0.097-0.998,0.097h-6.74v-0.593H25.632z"/>
</g>
<line style="fill:none;stroke:#1F5DA5;stroke-width:0.75;" x1="35.825" y1="18.392" x2="35.825" y2="6.338"/>
<line style="fill:none;stroke:#1F5DA5;stroke-width:0.75;" x1="41.49" y1="6.338" x2="41.49" y2="18.392"/>
<path style="fill:none;stroke:#1F5DA5;stroke-width:0.5;stroke-dasharray:2;" d="M35.825,18.377c0-0.501,1.269-0.906,2.833-0.906
	c1.564,0,2.832,0.405,2.832,0.906"/>
<ellipse style="fill:none;stroke:#1F5DA5;stroke-width:0.75;" cx="38.62" cy="0.688" rx="0.977" ry="0.312"/>
<path style="fill:none;stroke:#1F5DA5;stroke-width:0.75;" d="M39.437,1.334c0,0.173-0.365,0.312-0.815,0.312
	c-0.449,0-0.813-0.14-0.813-0.312"/>
<path style="fill:none;stroke:#1F5DA5;stroke-width:0.75;" d="M35.825,6.362c0,0-0.229-1.279,1.208-1.717"/>
<path style="fill:none;stroke:#1F5DA5;stroke-width:0.75;" d="M36.978,4.637c0,0,0.883-0.218,0.852-1.467"/>
<line style="fill:none;stroke:#1F5DA5;stroke-width:0.75;" x1="37.83" y1="3.17" x2="37.83" y2="1.045"/>
<path style="fill:none;stroke:#1F5DA5;stroke-width:0.75;" d="M41.463,6.362c0,0,0.229-1.279-1.207-1.717"/>
<path style="fill:none;stroke:#1F5DA5;stroke-width:0.75;" d="M40.311,4.637c0,0-0.883-0.218-0.852-1.467"/>
<line style="fill:none;stroke:#1F5DA5;stroke-width:0.75;" x1="39.459" y1="3.303" x2="39.459" y2="1.045"/>
<path style="fill:none;stroke:#1F5DA5;stroke-width:0.75;" d="M39.46,1.066c0,0,0.008-0.305,0.195-0.305"/>
<path style="fill:none;stroke:#1F5DA5;stroke-width:0.75;" d="M37.826,1.066c0,0-0.009-0.305-0.196-0.305"/>
<path style="fill:none;stroke:#1F5DA5;stroke-width:0.75;" d="M41.49,18.271c0,0.5-1.268,0.906-2.832,0.906
	c-1.564,0-2.833-0.406-2.833-0.906"/>
<g>
	<path style="fill:none;stroke:#1F5DA5;stroke-width:0.75;" d="M40.867,10.944c0,0.678-0.638,1.233-1.417,1.233H37.84
		c-0.78,0-1.417-0.556-1.417-1.233c0-0.679,0.638-1.234,1.417-1.234h1.609C40.229,9.71,40.867,10.266,40.867,10.944z"/>
</g>
<path style="fill:none;stroke:#1F5DA5;stroke-width:0.75;stroke-linecap:round;" d="M36.845,11.365
	c0.192-0.188,0.252-0.588,0.352-0.84c0.201,0.165,0.18,0.565,0.022,0.761c0.041-0.231,0.271-0.438,0.406-0.605
	c0.172,0.158,0.113,0.459-0.057,0.59c0.06-0.048,0.091-0.051,0.21-0.072c0.007-0.043,0.034-0.102,0.038-0.135
	c-0.035,0.132,0.004,0.257,0.116,0.329c0.028-0.173,0.126-0.317,0.137-0.49c0.014,0.001,0.07,0.003,0.083,0
	c0.081,0.077,0.154,0.204,0.135,0.334c0.322-0.048,0.451-0.581,0.618-0.83c-0.007,0.188-0.109,0.372-0.119,0.555
	c-0.005,0.103,0.139,0.142,0.037,0.328c0.105-0.151,0.37-0.183,0.426-0.271c-0.009,0.092,0,0.192,0.007,0.283
	c0.263-0.271,0.44-0.322,0.743-0.247"/>
<line style="fill:none;stroke:#1F5DA5;stroke-width:0.75;" x1="45.748" y1="18.392" x2="45.748" y2="6.338"/>
<line style="fill:none;stroke:#1F5DA5;stroke-width:0.75;" x1="51.412" y1="6.338" x2="51.412" y2="18.392"/>
<path style="fill:none;stroke:#1F5DA5;stroke-width:0.5;stroke-dasharray:2;" d="M45.748,18.377c0-0.501,1.269-0.906,2.833-0.906
	c1.564,0,2.832,0.405,2.832,0.906"/>
<ellipse style="fill:none;stroke:#1F5DA5;stroke-width:0.75;" cx="48.543" cy="0.688" rx="0.977" ry="0.312"/>
<path style="fill:none;stroke:#1F5DA5;stroke-width:0.75;" d="M49.359,1.334c0,0.173-0.365,0.312-0.815,0.312
	c-0.449,0-0.813-0.14-0.813-0.312"/>
<path style="fill:none;stroke:#1F5DA5;stroke-width:0.75;" d="M45.748,6.362c0,0-0.229-1.279,1.208-1.717"/>
<path style="fill:none;stroke:#1F5DA5;stroke-width:0.75;" d="M46.9,4.637c0,0,0.883-0.218,0.852-1.467"/>
<line style="fill:none;stroke:#1F5DA5;stroke-width:0.75;" x1="47.752" y1="3.17" x2="47.752" y2="1.045"/>
<path style="fill:none;stroke:#1F5DA5;stroke-width:0.75;" d="M51.385,6.362c0,0,0.229-1.279-1.207-1.717"/>
<path style="fill:none;stroke:#1F5DA5;stroke-width:0.75;" d="M50.233,4.637c0,0-0.883-0.218-0.852-1.467"/>
<line style="fill:none;stroke:#1F5DA5;stroke-width:0.75;" x1="49.381" y1="3.303" x2="49.381" y2="1.045"/>
<path style="fill:none;stroke:#1F5DA5;stroke-width:0.75;" d="M49.382,1.066c0,0,0.008-0.305,0.195-0.305"/>
<path style="fill:none;stroke:#1F5DA5;stroke-width:0.75;" d="M47.748,1.066c0,0-0.009-0.305-0.196-0.305"/>
<path style="fill:none;stroke:#1F5DA5;stroke-width:0.75;" d="M51.413,18.271c0,0.5-1.268,0.906-2.832,0.906
	c-1.564,0-2.833-0.406-2.833-0.906"/>
<g>
	<path style="fill:none;stroke:#1F5DA5;stroke-width:0.75;" d="M50.789,10.944c0,0.678-0.638,1.233-1.417,1.233h-1.609
		c-0.78,0-1.417-0.556-1.417-1.233c0-0.679,0.638-1.234,1.417-1.234h1.609C50.151,9.71,50.789,10.266,50.789,10.944z"/>
</g>
<path style="fill:none;stroke:#1F5DA5;stroke-width:0.75;stroke-linecap:round;" d="M46.767,11.365
	c0.192-0.188,0.252-0.588,0.352-0.84c0.201,0.165,0.18,0.565,0.022,0.761c0.041-0.231,0.271-0.438,0.406-0.605
	c0.172,0.158,0.113,0.459-0.057,0.59c0.06-0.048,0.091-0.051,0.21-0.072c0.007-0.043,0.034-0.102,0.038-0.135
	c-0.035,0.132,0.004,0.257,0.116,0.329c0.028-0.173,0.126-0.317,0.137-0.49c0.014,0.001,0.07,0.003,0.083,0
	c0.081,0.077,0.154,0.204,0.135,0.334c0.322-0.048,0.451-0.581,0.618-0.83c-0.007,0.188-0.109,0.372-0.119,0.555
	c-0.005,0.103,0.139,0.142,0.037,0.328c0.105-0.151,0.37-0.183,0.426-0.271c-0.009,0.092,0,0.192,0.007,0.283
	c0.263-0.271,0.44-0.322,0.743-0.247"/>
<line style="fill:none;stroke:#1F5DA5;stroke-width:0.75;" x1="55.67" y1="18.392" x2="55.67" y2="6.338"/>
<line style="fill:none;stroke:#1F5DA5;stroke-width:0.75;" x1="61.334" y1="6.338" x2="61.334" y2="18.392"/>
<path style="fill:none;stroke:#1F5DA5;stroke-width:0.5;stroke-dasharray:2;" d="M55.67,18.377c0-0.501,1.269-0.906,2.833-0.906
	c1.564,0,2.832,0.405,2.832,0.906"/>
<ellipse style="fill:none;stroke:#1F5DA5;stroke-width:0.75;" cx="58.465" cy="0.688" rx="0.977" ry="0.312"/>
<path style="fill:none;stroke:#1F5DA5;stroke-width:0.75;" d="M59.282,1.334c0,0.173-0.365,0.312-0.815,0.312
	c-0.449,0-0.813-0.14-0.813-0.312"/>
<path style="fill:none;stroke:#1F5DA5;stroke-width:0.75;" d="M55.67,6.362c0,0-0.229-1.279,1.208-1.717"/>
<path style="fill:none;stroke:#1F5DA5;stroke-width:0.75;" d="M56.823,4.637c0,0,0.883-0.218,0.852-1.467"/>
<line style="fill:none;stroke:#1F5DA5;stroke-width:0.75;" x1="57.675" y1="3.17" x2="57.675" y2="1.045"/>
<path style="fill:none;stroke:#1F5DA5;stroke-width:0.75;" d="M61.308,6.362c0,0,0.229-1.279-1.207-1.717"/>
<path style="fill:none;stroke:#1F5DA5;stroke-width:0.75;" d="M60.156,4.637c0,0-0.883-0.218-0.852-1.467"/>
<line style="fill:none;stroke:#1F5DA5;stroke-width:0.75;" x1="59.304" y1="3.303" x2="59.304" y2="1.045"/>
<path style="fill:none;stroke:#1F5DA5;stroke-width:0.75;" d="M59.305,1.066c0,0,0.008-0.305,0.195-0.305"/>
<path style="fill:none;stroke:#1F5DA5;stroke-width:0.75;" d="M57.67,1.066c0,0-0.009-0.305-0.196-0.305"/>
<path style="fill:none;stroke:#1F5DA5;stroke-width:0.75;" d="M61.335,18.271c0,0.5-1.268,0.906-2.832,0.906
	c-1.564,0-2.833-0.406-2.833-0.906"/>
<g>
	<path style="fill:none;stroke:#1F5DA5;stroke-width:0.75;" d="M60.711,10.944c0,0.678-0.638,1.233-1.417,1.233h-1.609
		c-0.78,0-1.417-0.556-1.417-1.233c0-0.679,0.638-1.234,1.417-1.234h1.609C60.074,9.71,60.711,10.266,60.711,10.944z"/>
</g>
<path style="fill:none;stroke:#1F5DA5;stroke-width:0.75;stroke-linecap:round;" d="M56.689,11.365
	c0.192-0.188,0.252-0.588,0.352-0.84c0.201,0.165,0.18,0.565,0.022,0.761c0.041-0.231,0.271-0.438,0.406-0.605
	c0.172,0.158,0.113,0.459-0.057,0.59c0.06-0.048,0.091-0.051,0.21-0.072c0.007-0.043,0.034-0.102,0.038-0.135
	c-0.035,0.132,0.004,0.257,0.116,0.329c0.028-0.173,0.126-0.317,0.137-0.49c0.014,0.001,0.07,0.003,0.083,0
	c0.081,0.077,0.154,0.204,0.135,0.334c0.322-0.048,0.451-0.581,0.618-0.83c-0.007,0.188-0.109,0.372-0.119,0.555
	c-0.005,0.103,0.139,0.142,0.037,0.328c0.105-0.151,0.37-0.183,0.426-0.271c-0.009,0.092,0,0.192,0.007,0.283
	c0.263-0.271,0.44-0.322,0.743-0.247"/>
<g>
	<path style="fill:#1F5DA5;" d="M39.257,31.15v-0.435h0.875v-4.111l-0.974,0.099v-0.329c0.351-0.105,0.75-0.21,0.974-0.351h0.504
		v4.692h0.861v0.435H39.257z"/>
	<path style="fill:#1F5DA5;" d="M45.809,26.094v5.057h-0.504v-5.057H45.809z"/>
	<path style="fill:#1F5DA5;" d="M47.754,26.023v0.603H47.25v-0.603H47.754z M47.25,27.509h0.504v3.642H47.25V27.509z"/>
	<path style="fill:#1F5DA5;" d="M49.196,27.509v-1.198H49.7v1.198h0.84v0.434H49.7v2.592c0,0.168,0.119,0.252,0.413,0.252
		c0.168,0,0.315-0.014,0.448-0.035v0.413c-0.091,0.028-0.294,0.057-0.588,0.057c-0.546,0-0.778-0.141-0.778-0.603v-2.676h-0.595
		v-0.434H49.196z"/>
	<path style="fill:#1F5DA5;" d="M54.069,30.373c-0.238,0.413-0.574,0.848-1.401,0.848c-0.812,0-1.583-0.561-1.583-1.892
		c0-1.177,0.588-1.891,1.485-1.891c0.756,0,1.387,0.49,1.387,1.652v0.337H51.59c0,0.798,0.476,1.358,1.078,1.358
		c0.448,0,0.799-0.238,1.009-0.616L54.069,30.373z M53.453,28.993c0-0.672-0.322-1.12-0.869-1.12c-0.609,0-0.938,0.448-0.98,1.12
		H53.453z"/>
	<path style="fill:#1F5DA5;" d="M54.796,27.509H55.3v0.721h0.014c0.28-0.497,0.582-0.777,1.184-0.777v0.505
		c-0.63,0.014-0.959,0.427-1.198,1.177v2.017h-0.504V27.509z"/>
</g>
<g>
	<path style="fill:#1F5DA5;" d="M36.71,20.265h0.272c0.07,0.545,0.25,0.927,0.538,1.146c0.289,0.22,0.791,0.33,1.506,0.33h6.631
		v0.593h-6.732c-0.773,0-1.327-0.159-1.661-0.477S36.745,21.009,36.71,20.265z"/>
	<path style="fill:#1F5DA5;" d="M50.254,23.863h-0.422c-0.064-0.554-0.241-0.947-0.529-1.18c-0.289-0.233-0.751-0.35-1.387-0.35
		H45.45v-0.593h2.431c0.753,0,1.288,0.148,1.604,0.447s0.492,0.812,0.527,1.539h0.074c0.035-0.732,0.21-1.247,0.525-1.543
		c0.314-0.296,0.848-0.443,1.598-0.443h2.447v0.593h-2.475c-0.638,0-1.104,0.117-1.395,0.352
		C50.496,22.92,50.318,23.312,50.254,23.863z"/>
	<path style="fill:#1F5DA5;" d="M61.064,21.741h0.343c0.519,0,0.922-0.125,1.211-0.374c0.288-0.249,0.455-0.616,0.498-1.103h0.269
		c0,0.018-0.002,0.043-0.005,0.078s-0.004,0.063-0.004,0.084c0,0.281-0.057,0.559-0.169,0.833c-0.113,0.274-0.264,0.494-0.45,0.661
		c-0.171,0.146-0.368,0.252-0.594,0.316s-0.559,0.097-0.998,0.097h-6.74v-0.593H61.064z"/>
</g>
<line style="fill:none;stroke:#1F5DA5;stroke-width:0.75;" x1="69.845" y1="18.392" x2="69.845" y2="6.338"/>
<line style="fill:none;stroke:#1F5DA5;stroke-width:0.75;" x1="75.509" y1="6.338" x2="75.509" y2="18.392"/>
<path style="fill:none;stroke:#1F5DA5;stroke-width:0.5;stroke-dasharray:2;" d="M69.845,18.377c0-0.501,1.269-0.906,2.833-0.906
	c1.564,0,2.832,0.405,2.832,0.906"/>
<ellipse style="fill:none;stroke:#1F5DA5;stroke-width:0.75;" cx="72.64" cy="0.688" rx="0.977" ry="0.312"/>
<path style="fill:none;stroke:#1F5DA5;stroke-width:0.75;" d="M73.457,1.334c0,0.173-0.365,0.312-0.815,0.312
	c-0.449,0-0.813-0.14-0.813-0.312"/>
<path style="fill:none;stroke:#1F5DA5;stroke-width:0.75;" d="M69.845,6.362c0,0-0.229-1.279,1.208-1.717"/>
<path style="fill:none;stroke:#1F5DA5;stroke-width:0.75;" d="M70.998,4.637c0,0,0.883-0.218,0.852-1.467"/>
<line style="fill:none;stroke:#1F5DA5;stroke-width:0.75;" x1="71.85" y1="3.17" x2="71.85" y2="1.045"/>
<path style="fill:none;stroke:#1F5DA5;stroke-width:0.75;" d="M75.482,6.362c0,0,0.229-1.279-1.207-1.717"/>
<path style="fill:none;stroke:#1F5DA5;stroke-width:0.75;" d="M74.331,4.637c0,0-0.883-0.218-0.852-1.467"/>
<line style="fill:none;stroke:#1F5DA5;stroke-width:0.75;" x1="73.479" y1="3.303" x2="73.479" y2="1.045"/>
<path style="fill:none;stroke:#1F5DA5;stroke-width:0.75;" d="M73.479,1.066c0,0,0.008-0.305,0.195-0.305"/>
<path style="fill:none;stroke:#1F5DA5;stroke-width:0.75;" d="M71.845,1.066c0,0-0.009-0.305-0.196-0.305"/>
<path style="fill:none;stroke:#1F5DA5;stroke-width:0.75;" d="M75.51,18.271c0,0.5-1.268,0.906-2.832,0.906
	c-1.564,0-2.833-0.406-2.833-0.906"/>
<g>
	<path style="fill:none;stroke:#1F5DA5;stroke-width:0.75;" d="M74.886,10.944c0,0.678-0.638,1.233-1.417,1.233h-1.609
		c-0.78,0-1.417-0.556-1.417-1.233c0-0.679,0.638-1.234,1.417-1.234h1.609C74.249,9.71,74.886,10.266,74.886,10.944z"/>
</g>
<path style="fill:none;stroke:#1F5DA5;stroke-width:0.75;stroke-linecap:round;" d="M70.864,11.365
	c0.192-0.188,0.252-0.588,0.352-0.84c0.201,0.165,0.18,0.565,0.022,0.761c0.041-0.231,0.271-0.438,0.406-0.605
	c0.172,0.158,0.113,0.459-0.057,0.59c0.06-0.048,0.091-0.051,0.21-0.072c0.007-0.043,0.034-0.102,0.038-0.135
	c-0.035,0.132,0.004,0.257,0.116,0.329c0.028-0.173,0.126-0.317,0.137-0.49c0.014,0.001,0.07,0.003,0.083,0
	c0.081,0.077,0.154,0.204,0.135,0.334c0.322-0.048,0.451-0.581,0.618-0.83c-0.007,0.188-0.109,0.372-0.119,0.555
	c-0.005,0.103,0.139,0.142,0.037,0.328c0.105-0.151,0.37-0.183,0.426-0.271c-0.009,0.092,0,0.192,0.007,0.283
	c0.263-0.271,0.44-0.322,0.743-0.247"/>
<line style="fill:none;stroke:#1F5DA5;stroke-width:0.75;" x1="79.767" y1="18.392" x2="79.767" y2="6.338"/>
<line style="fill:none;stroke:#1F5DA5;stroke-width:0.75;" x1="85.432" y1="6.338" x2="85.432" y2="18.392"/>
<path style="fill:none;stroke:#1F5DA5;stroke-width:0.5;stroke-dasharray:2;" d="M79.767,18.377c0-0.501,1.269-0.906,2.833-0.906
	c1.564,0,2.832,0.405,2.832,0.906"/>
<ellipse style="fill:none;stroke:#1F5DA5;stroke-width:0.75;" cx="82.562" cy="0.688" rx="0.977" ry="0.312"/>
<path style="fill:none;stroke:#1F5DA5;stroke-width:0.75;" d="M83.379,1.334c0,0.173-0.365,0.312-0.815,0.312
	c-0.449,0-0.813-0.14-0.813-0.312"/>
<path style="fill:none;stroke:#1F5DA5;stroke-width:0.75;" d="M79.767,6.362c0,0-0.229-1.279,1.208-1.717"/>
<path style="fill:none;stroke:#1F5DA5;stroke-width:0.75;" d="M80.92,4.637c0,0,0.883-0.218,0.852-1.467"/>
<line style="fill:none;stroke:#1F5DA5;stroke-width:0.75;" x1="81.772" y1="3.17" x2="81.772" y2="1.045"/>
<path style="fill:none;stroke:#1F5DA5;stroke-width:0.75;" d="M85.404,6.362c0,0,0.229-1.279-1.206-1.717"/>
<path style="fill:none;stroke:#1F5DA5;stroke-width:0.75;" d="M84.253,4.637c0,0-0.883-0.218-0.852-1.467"/>
<line style="fill:none;stroke:#1F5DA5;stroke-width:0.75;" x1="83.401" y1="3.303" x2="83.401" y2="1.045"/>
<path style="fill:none;stroke:#1F5DA5;stroke-width:0.75;" d="M83.402,1.066c0,0,0.008-0.305,0.195-0.305"/>
<path style="fill:none;stroke:#1F5DA5;stroke-width:0.75;" d="M81.768,1.066c0,0-0.009-0.305-0.196-0.305"/>
<path style="fill:none;stroke:#1F5DA5;stroke-width:0.75;" d="M85.432,18.271c0,0.5-1.268,0.906-2.832,0.906
	c-1.564,0-2.833-0.406-2.833-0.906"/>
<g>
	<path style="fill:none;stroke:#1F5DA5;stroke-width:0.75;" d="M84.809,10.944c0,0.678-0.638,1.233-1.417,1.233h-1.609
		c-0.78,0-1.417-0.556-1.417-1.233c0-0.679,0.638-1.234,1.417-1.234h1.609C84.171,9.71,84.809,10.266,84.809,10.944z"/>
</g>
<path style="fill:none;stroke:#1F5DA5;stroke-width:0.75;stroke-linecap:round;" d="M80.787,11.365
	c0.192-0.188,0.252-0.588,0.352-0.84c0.201,0.165,0.18,0.565,0.022,0.761c0.041-0.231,0.271-0.438,0.406-0.605
	c0.172,0.158,0.113,0.459-0.057,0.59c0.06-0.048,0.091-0.051,0.21-0.072c0.007-0.043,0.034-0.102,0.038-0.135
	c-0.035,0.132,0.004,0.257,0.116,0.329c0.028-0.173,0.126-0.317,0.137-0.49c0.014,0.001,0.07,0.003,0.083,0
	c0.081,0.077,0.154,0.204,0.135,0.334c0.322-0.048,0.451-0.581,0.618-0.83c-0.007,0.188-0.109,0.372-0.119,0.555
	c-0.005,0.103,0.139,0.142,0.037,0.328c0.105-0.151,0.37-0.183,0.426-0.271c-0.009,0.092,0,0.192,0.007,0.283
	c0.263-0.271,0.44-0.322,0.743-0.247"/>
<line style="fill:none;stroke:#1F5DA5;stroke-width:0.75;" x1="89.688" y1="18.392" x2="89.688" y2="6.338"/>
<line style="fill:none;stroke:#1F5DA5;stroke-width:0.75;" x1="95.351" y1="6.338" x2="95.351" y2="18.392"/>
<path style="fill:none;stroke:#1F5DA5;stroke-width:0.5;stroke-dasharray:2;" d="M89.688,18.377c0-0.501,1.269-0.906,2.832-0.906
	s2.831,0.405,2.831,0.906"/>
<ellipse style="fill:none;stroke:#1F5DA5;stroke-width:0.75;" cx="92.482" cy="0.688" rx="0.976" ry="0.312"/>
<path style="fill:none;stroke:#1F5DA5;stroke-width:0.75;" d="M93.298,1.334c0,0.173-0.364,0.312-0.814,0.312
	c-0.449,0-0.812-0.14-0.812-0.312"/>
<path style="fill:none;stroke:#1F5DA5;stroke-width:0.75;" d="M89.688,6.362c0,0-0.229-1.279,1.207-1.717"/>
<path style="fill:none;stroke:#1F5DA5;stroke-width:0.75;" d="M90.84,4.637c0,0,0.884-0.218,0.853-1.467"/>
<line style="fill:none;stroke:#1F5DA5;stroke-width:0.75;" x1="91.692" y1="3.17" x2="91.692" y2="1.045"/>
<path style="fill:none;stroke:#1F5DA5;stroke-width:0.75;" d="M95.323,6.362c0,0,0.229-1.279-1.206-1.717"/>
<path style="fill:none;stroke:#1F5DA5;stroke-width:0.75;" d="M94.172,4.637c0,0-0.883-0.218-0.852-1.467"/>
<line style="fill:none;stroke:#1F5DA5;stroke-width:0.75;" x1="93.32" y1="3.303" x2="93.32" y2="1.045"/>
<path style="fill:none;stroke:#1F5DA5;stroke-width:0.75;" d="M93.321,1.066c0,0,0.008-0.305,0.195-0.305"/>
<path style="fill:none;stroke:#1F5DA5;stroke-width:0.75;" d="M91.688,1.066c0,0-0.009-0.305-0.195-0.305"/>
<path style="fill:none;stroke:#1F5DA5;stroke-width:0.75;" d="M95.351,18.271c0,0.5-1.268,0.906-2.831,0.906
	s-2.832-0.406-2.832-0.906"/>
<g>
	<path style="fill:none;stroke:#1F5DA5;stroke-width:0.75;" d="M94.728,10.944c0,0.678-0.638,1.233-1.417,1.233h-1.608
		c-0.779,0-1.417-0.556-1.417-1.233c0-0.679,0.638-1.234,1.417-1.234h1.608C94.09,9.71,94.728,10.266,94.728,10.944z"/>
</g>
<path style="fill:none;stroke:#1F5DA5;stroke-width:0.75;stroke-linecap:round;" d="M90.707,11.365
	c0.192-0.188,0.252-0.588,0.352-0.84c0.2,0.165,0.18,0.565,0.022,0.761c0.04-0.231,0.271-0.438,0.405-0.605
	c0.173,0.158,0.113,0.459-0.057,0.59c0.06-0.048,0.091-0.051,0.21-0.072c0.007-0.043,0.033-0.102,0.037-0.135
	c-0.034,0.132,0.005,0.257,0.116,0.329c0.028-0.173,0.126-0.317,0.137-0.49c0.014,0.001,0.07,0.003,0.083,0
	c0.081,0.077,0.154,0.204,0.136,0.334c0.321-0.048,0.451-0.581,0.617-0.83c-0.007,0.188-0.109,0.372-0.118,0.555
	c-0.006,0.103,0.139,0.142,0.037,0.328c0.104-0.151,0.369-0.183,0.426-0.271c-0.009,0.092,0,0.192,0.008,0.283
	c0.263-0.271,0.439-0.322,0.742-0.247"/>
<g>
	<path style="fill:#1F5DA5;" d="M73.272,31.15v-0.435h0.875v-4.111l-0.974,0.099v-0.329c0.351-0.105,0.75-0.21,0.974-0.351h0.504
		v4.692h0.861v0.435H73.272z"/>
	<path style="fill:#1F5DA5;" d="M79.824,26.094v5.057H79.32v-5.057H79.824z"/>
	<path style="fill:#1F5DA5;" d="M81.77,26.023v0.603h-0.504v-0.603H81.77z M81.266,27.509h0.504v3.642h-0.504V27.509z"/>
	<path style="fill:#1F5DA5;" d="M83.211,27.509v-1.198h0.504v1.198h0.84v0.434h-0.84v2.592c0,0.168,0.119,0.252,0.413,0.252
		c0.168,0,0.315-0.014,0.448-0.035v0.413c-0.091,0.028-0.294,0.057-0.588,0.057c-0.546,0-0.778-0.141-0.778-0.603v-2.676h-0.595
		v-0.434H83.211z"/>
	<path style="fill:#1F5DA5;" d="M88.085,30.373c-0.237,0.413-0.574,0.848-1.401,0.848c-0.812,0-1.582-0.561-1.582-1.892
		c0-1.177,0.588-1.891,1.484-1.891c0.757,0,1.387,0.49,1.387,1.652v0.337h-2.367c0,0.798,0.477,1.358,1.078,1.358
		c0.449,0,0.799-0.238,1.01-0.616L88.085,30.373z M87.469,28.993c0-0.672-0.322-1.12-0.869-1.12c-0.609,0-0.938,0.448-0.98,1.12
		H87.469z"/>
	<path style="fill:#1F5DA5;" d="M88.812,27.509h0.505v0.721h0.014c0.279-0.497,0.581-0.777,1.184-0.777v0.505
		c-0.631,0.014-0.959,0.427-1.197,1.177v2.017h-0.505V27.509z"/>
</g>
<g>
	<path style="fill:#1F5DA5;" d="M70.727,20.265h0.272c0.07,0.545,0.25,0.927,0.538,1.146c0.289,0.22,0.791,0.33,1.506,0.33h6.631
		v0.593h-6.732c-0.773,0-1.327-0.159-1.661-0.477S70.762,21.009,70.727,20.265z"/>
	<path style="fill:#1F5DA5;" d="M84.271,23.863h-0.422c-0.064-0.554-0.241-0.947-0.529-1.18c-0.289-0.233-0.751-0.35-1.387-0.35
		h-2.466v-0.593h2.431c0.753,0,1.288,0.148,1.604,0.447s0.492,0.812,0.527,1.539h0.074c0.035-0.732,0.21-1.247,0.525-1.543
		c0.314-0.296,0.848-0.443,1.598-0.443h2.447v0.593h-2.475c-0.638,0-1.104,0.117-1.395,0.352
		C84.513,22.92,84.335,23.312,84.271,23.863z"/>
	<path style="fill:#1F5DA5;" d="M95.081,21.741h0.343c0.519,0,0.922-0.125,1.211-0.374c0.288-0.249,0.455-0.616,0.498-1.103h0.269
		c0,0.018-0.002,0.043-0.005,0.078s-0.004,0.063-0.004,0.084c0,0.281-0.057,0.559-0.169,0.833c-0.113,0.274-0.264,0.494-0.45,0.661
		c-0.171,0.146-0.368,0.252-0.594,0.316s-0.559,0.097-0.998,0.097h-6.74v-0.593H95.081z"/>
</g>
<line style="fill:none;stroke:#1F5DA5;stroke-width:0.75;" x1="103.857" y1="18.392" x2="103.857" y2="6.338"/>
<line style="fill:none;stroke:#1F5DA5;stroke-width:0.75;" x1="109.521" y1="6.338" x2="109.521" y2="18.392"/>
<path style="fill:none;stroke:#1F5DA5;stroke-width:0.5;stroke-dasharray:2;" d="M103.857,18.377c0-0.501,1.269-0.906,2.832-0.906
	s2.831,0.405,2.831,0.906"/>
<ellipse style="fill:none;stroke:#1F5DA5;stroke-width:0.75;" cx="106.652" cy="0.688" rx="0.976" ry="0.312"/>
<path style="fill:none;stroke:#1F5DA5;stroke-width:0.75;" d="M107.468,1.334c0,0.173-0.364,0.312-0.814,0.312
	c-0.449,0-0.812-0.14-0.812-0.312"/>
<path style="fill:none;stroke:#1F5DA5;stroke-width:0.75;" d="M103.857,6.362c0,0-0.229-1.279,1.207-1.717"/>
<path style="fill:none;stroke:#1F5DA5;stroke-width:0.75;" d="M105.01,4.637c0,0,0.884-0.218,0.853-1.467"/>
<line style="fill:none;stroke:#1F5DA5;stroke-width:0.75;" x1="105.862" y1="3.17" x2="105.862" y2="1.045"/>
<path style="fill:none;stroke:#1F5DA5;stroke-width:0.75;" d="M109.493,6.362c0,0,0.229-1.279-1.206-1.717"/>
<path style="fill:none;stroke:#1F5DA5;stroke-width:0.75;" d="M108.342,4.637c0,0-0.883-0.218-0.852-1.467"/>
<line style="fill:none;stroke:#1F5DA5;stroke-width:0.75;" x1="107.49" y1="3.303" x2="107.49" y2="1.045"/>
<path style="fill:none;stroke:#1F5DA5;stroke-width:0.75;" d="M107.491,1.066c0,0,0.008-0.305,0.195-0.305"/>
<path style="fill:none;stroke:#1F5DA5;stroke-width:0.75;" d="M105.857,1.066c0,0-0.009-0.305-0.195-0.305"/>
<path style="fill:none;stroke:#1F5DA5;stroke-width:0.75;" d="M109.521,18.271c0,0.5-1.268,0.906-2.831,0.906
	s-2.832-0.406-2.832-0.906"/>
<g>
	<path style="fill:none;stroke:#1F5DA5;stroke-width:0.75;" d="M108.897,10.944c0,0.678-0.638,1.233-1.417,1.233h-1.608
		c-0.779,0-1.417-0.556-1.417-1.233c0-0.679,0.638-1.234,1.417-1.234h1.608C108.26,9.71,108.897,10.266,108.897,10.944z"/>
</g>
<path style="fill:none;stroke:#1F5DA5;stroke-width:0.75;stroke-linecap:round;" d="M104.877,11.365
	c0.192-0.188,0.252-0.588,0.352-0.84c0.2,0.165,0.18,0.565,0.022,0.761c0.04-0.231,0.271-0.438,0.405-0.605
	c0.173,0.158,0.113,0.459-0.057,0.59c0.06-0.048,0.091-0.051,0.21-0.072c0.007-0.043,0.033-0.102,0.037-0.135
	c-0.034,0.132,0.005,0.257,0.116,0.329c0.028-0.173,0.126-0.317,0.137-0.49c0.014,0.001,0.07,0.003,0.083,0
	c0.081,0.077,0.154,0.204,0.136,0.334c0.321-0.048,0.451-0.581,0.617-0.83c-0.007,0.188-0.109,0.372-0.118,0.555
	c-0.006,0.103,0.139,0.142,0.037,0.328c0.104-0.151,0.369-0.183,0.426-0.271c-0.009,0.092,0,0.192,0.008,0.283
	c0.263-0.271,0.439-0.322,0.742-0.247"/>
<line style="fill:none;stroke:#1F5DA5;stroke-width:0.75;" x1="113.776" y1="18.392" x2="113.776" y2="6.338"/>
<line style="fill:none;stroke:#1F5DA5;stroke-width:0.75;" x1="119.439" y1="6.338" x2="119.439" y2="18.392"/>
<path style="fill:none;stroke:#1F5DA5;stroke-width:0.5;stroke-dasharray:2;" d="M113.776,18.377c0-0.501,1.269-0.906,2.832-0.906
	s2.831,0.405,2.831,0.906"/>
<ellipse style="fill:none;stroke:#1F5DA5;stroke-width:0.75;" cx="116.571" cy="0.688" rx="0.976" ry="0.312"/>
<path style="fill:none;stroke:#1F5DA5;stroke-width:0.75;" d="M117.387,1.334c0,0.173-0.364,0.312-0.814,0.312
	c-0.449,0-0.812-0.14-0.812-0.312"/>
<path style="fill:none;stroke:#1F5DA5;stroke-width:0.75;" d="M113.776,6.362c0,0-0.229-1.279,1.207-1.717"/>
<path style="fill:none;stroke:#1F5DA5;stroke-width:0.75;" d="M114.929,4.637c0,0,0.884-0.218,0.853-1.467"/>
<line style="fill:none;stroke:#1F5DA5;stroke-width:0.75;" x1="115.781" y1="3.17" x2="115.781" y2="1.045"/>
<path style="fill:none;stroke:#1F5DA5;stroke-width:0.75;" d="M119.412,6.362c0,0,0.229-1.279-1.206-1.717"/>
<path style="fill:none;stroke:#1F5DA5;stroke-width:0.75;" d="M118.261,4.637c0,0-0.883-0.218-0.852-1.467"/>
<line style="fill:none;stroke:#1F5DA5;stroke-width:0.75;" x1="117.409" y1="3.303" x2="117.409" y2="1.045"/>
<path style="fill:none;stroke:#1F5DA5;stroke-width:0.75;" d="M117.41,1.066c0,0,0.008-0.305,0.195-0.305"/>
<path style="fill:none;stroke:#1F5DA5;stroke-width:0.75;" d="M115.776,1.066c0,0-0.009-0.305-0.195-0.305"/>
<path style="fill:none;stroke:#1F5DA5;stroke-width:0.75;" d="M119.439,18.271c0,0.5-1.268,0.906-2.831,0.906
	s-2.832-0.406-2.832-0.906"/>
<g>
	<path style="fill:none;stroke:#1F5DA5;stroke-width:0.75;" d="M118.816,10.944c0,0.678-0.638,1.233-1.417,1.233h-1.608
		c-0.779,0-1.417-0.556-1.417-1.233c0-0.679,0.638-1.234,1.417-1.234h1.608C118.179,9.71,118.816,10.266,118.816,10.944z"/>
</g>
<path style="fill:none;stroke:#1F5DA5;stroke-width:0.75;stroke-linecap:round;" d="M114.796,11.365
	c0.192-0.188,0.252-0.588,0.352-0.84c0.2,0.165,0.18,0.565,0.022,0.761c0.04-0.231,0.271-0.438,0.405-0.605
	c0.173,0.158,0.113,0.459-0.057,0.59c0.06-0.048,0.091-0.051,0.21-0.072c0.007-0.043,0.033-0.102,0.037-0.135
	c-0.034,0.132,0.005,0.257,0.116,0.329c0.028-0.173,0.126-0.317,0.137-0.49c0.014,0.001,0.07,0.003,0.083,0
	c0.081,0.077,0.154,0.204,0.136,0.334c0.321-0.048,0.451-0.581,0.617-0.83c-0.007,0.188-0.109,0.372-0.118,0.555
	c-0.006,0.103,0.139,0.142,0.037,0.328c0.104-0.151,0.369-0.183,0.426-0.271c-0.009,0.092,0,0.192,0.008,0.283
	c0.263-0.271,0.439-0.322,0.742-0.247"/>
<line style="fill:none;stroke:#1F5DA5;stroke-width:0.75;" x1="123.695" y1="18.392" x2="123.695" y2="6.338"/>
<line style="fill:none;stroke:#1F5DA5;stroke-width:0.75;" x1="129.358" y1="6.338" x2="129.358" y2="18.392"/>
<path style="fill:none;stroke:#1F5DA5;stroke-width:0.5;stroke-dasharray:2;" d="M123.695,18.377c0-0.501,1.269-0.906,2.832-0.906
	s2.831,0.405,2.831,0.906"/>
<ellipse style="fill:none;stroke:#1F5DA5;stroke-width:0.75;" cx="126.49" cy="0.688" rx="0.976" ry="0.312"/>
<path style="fill:none;stroke:#1F5DA5;stroke-width:0.75;" d="M127.306,1.334c0,0.173-0.364,0.312-0.814,0.312
	c-0.449,0-0.812-0.14-0.812-0.312"/>
<path style="fill:none;stroke:#1F5DA5;stroke-width:0.75;" d="M123.695,6.362c0,0-0.229-1.279,1.207-1.717"/>
<path style="fill:none;stroke:#1F5DA5;stroke-width:0.75;" d="M124.848,4.637c0,0,0.884-0.218,0.853-1.467"/>
<line style="fill:none;stroke:#1F5DA5;stroke-width:0.75;" x1="125.7" y1="3.17" x2="125.7" y2="1.045"/>
<path style="fill:none;stroke:#1F5DA5;stroke-width:0.75;" d="M129.331,6.362c0,0,0.229-1.279-1.206-1.717"/>
<path style="fill:none;stroke:#1F5DA5;stroke-width:0.75;" d="M128.18,4.637c0,0-0.883-0.218-0.852-1.467"/>
<line style="fill:none;stroke:#1F5DA5;stroke-width:0.75;" x1="127.328" y1="3.303" x2="127.328" y2="1.045"/>
<path style="fill:none;stroke:#1F5DA5;stroke-width:0.75;" d="M127.329,1.066c0,0,0.008-0.305,0.195-0.305"/>
<path style="fill:none;stroke:#1F5DA5;stroke-width:0.75;" d="M125.695,1.066c0,0-0.009-0.305-0.195-0.305"/>
<path style="fill:none;stroke:#1F5DA5;stroke-width:0.75;" d="M129.358,18.271c0,0.5-1.268,0.906-2.831,0.906
	s-2.832-0.406-2.832-0.906"/>
<g>
	<path style="fill:none;stroke:#1F5DA5;stroke-width:0.75;" d="M128.735,10.944c0,0.678-0.638,1.233-1.417,1.233h-1.608
		c-0.779,0-1.417-0.556-1.417-1.233c0-0.679,0.638-1.234,1.417-1.234h1.608C128.098,9.71,128.735,10.266,128.735,10.944z"/>
</g>
<path style="fill:none;stroke:#1F5DA5;stroke-width:0.75;stroke-linecap:round;" d="M124.715,11.365
	c0.192-0.188,0.252-0.588,0.352-0.84c0.2,0.165,0.18,0.565,0.022,0.761c0.04-0.231,0.271-0.438,0.405-0.605
	c0.173,0.158,0.113,0.459-0.057,0.59c0.06-0.048,0.091-0.051,0.21-0.072c0.007-0.043,0.033-0.102,0.037-0.135
	c-0.034,0.132,0.005,0.257,0.116,0.329c0.028-0.173,0.126-0.317,0.137-0.49c0.014,0.001,0.07,0.003,0.083,0
	c0.081,0.077,0.154,0.204,0.136,0.334c0.321-0.048,0.451-0.581,0.617-0.83c-0.007,0.188-0.109,0.372-0.118,0.555
	c-0.006,0.103,0.139,0.142,0.037,0.328c0.104-0.151,0.369-0.183,0.426-0.271c-0.009,0.092,0,0.192,0.008,0.283
	c0.263-0.271,0.439-0.322,0.742-0.247"/>
<g>
	<path style="fill:#1F5DA5;" d="M107.289,31.15v-0.435h0.875v-4.111l-0.974,0.099v-0.329c0.351-0.105,0.749-0.21,0.974-0.351h0.504
		v4.692h0.861v0.435H107.289z"/>
	<path style="fill:#1F5DA5;" d="M113.84,26.094v5.057h-0.504v-5.057H113.84z"/>
	<path style="fill:#1F5DA5;" d="M115.786,26.023v0.603h-0.505v-0.603H115.786z M115.281,27.509h0.505v3.642h-0.505V27.509z"/>
	<path style="fill:#1F5DA5;" d="M117.228,27.509v-1.198h0.505v1.198h0.84v0.434h-0.84v2.592c0,0.168,0.119,0.252,0.412,0.252
		c0.169,0,0.316-0.014,0.449-0.035v0.413c-0.092,0.028-0.295,0.057-0.588,0.057c-0.547,0-0.778-0.141-0.778-0.603v-2.676h-0.595
		v-0.434H117.228z"/>
	<path style="fill:#1F5DA5;" d="M122.102,30.373c-0.238,0.413-0.574,0.848-1.401,0.848c-0.812,0-1.583-0.561-1.583-1.892
		c0-1.177,0.589-1.891,1.485-1.891c0.757,0,1.387,0.49,1.387,1.652v0.337h-2.367c0,0.798,0.476,1.358,1.078,1.358
		c0.448,0,0.799-0.238,1.009-0.616L122.102,30.373z M121.484,28.993c0-0.672-0.322-1.12-0.868-1.12c-0.609,0-0.938,0.448-0.98,1.12
		H121.484z"/>
	<path style="fill:#1F5DA5;" d="M122.828,27.509h0.504v0.721h0.014c0.28-0.497,0.582-0.777,1.184-0.777v0.505
		c-0.63,0.014-0.959,0.427-1.197,1.177v2.017h-0.504V27.509z"/>
</g>
<g>
	<path style="fill:#1F5DA5;" d="M104.742,20.265h0.272c0.07,0.545,0.25,0.927,0.538,1.146c0.289,0.22,0.791,0.33,1.506,0.33h6.631
		v0.593h-6.732c-0.773,0-1.327-0.159-1.661-0.477S104.777,21.009,104.742,20.265z"/>
	<path style="fill:#1F5DA5;" d="M118.286,23.863h-0.422c-0.064-0.554-0.241-0.947-0.529-1.18c-0.289-0.233-0.751-0.35-1.387-0.35
		h-2.466v-0.593h2.431c0.753,0,1.288,0.148,1.604,0.447s0.492,0.812,0.527,1.539h0.074c0.035-0.732,0.21-1.247,0.525-1.543
		c0.314-0.296,0.848-0.443,1.598-0.443h2.447v0.593h-2.475c-0.638,0-1.104,0.117-1.395,0.352
		C118.528,22.92,118.351,23.312,118.286,23.863z"/>
	<path style="fill:#1F5DA5;" d="M129.097,21.741h0.343c0.519,0,0.922-0.125,1.211-0.374c0.288-0.249,0.455-0.616,0.498-1.103h0.269
		c0,0.018-0.002,0.043-0.005,0.078s-0.004,0.063-0.004,0.084c0,0.281-0.057,0.559-0.169,0.833c-0.113,0.274-0.264,0.494-0.45,0.661
		c-0.171,0.146-0.368,0.252-0.594,0.316s-0.559,0.097-0.998,0.097h-6.74v-0.593H129.097z"/>
</g>
<g id="theGroup">
</g>
<g>
</g>
<g>
</g>
<g>
</g>
<g>
</g>
<g>
</g>
<g>
</g>
<g>
</g>
<g>
</g>
<g>
</g>
<g>
</g>
<g>
</g>
<g>
</g>
</svg>
