<?xml version="1.0" encoding="iso-8859-1"?>
<!-- Generator: Adobe Illustrator 16.0.0, SVG Export Plug-In . SVG Version: 6.00 Build 0)  -->
<!DOCTYPE svg PUBLIC "-//W3C//DTD SVG 1.1//EN" "http://www.w3.org/Graphics/SVG/1.1/DTD/svg11.dtd">
<svg version="1.1" id="Lager_1" xmlns="http://www.w3.org/2000/svg" xmlns:xlink="http://www.w3.org/1999/xlink" x="0px" y="0px"
	 width="43.521px" height="65.677px" viewBox="0 0 43.521 65.677" style="enable-background:new 0 0 43.521 65.677;"
	 xml:space="preserve">
<g>
	
		<line style="fill:none;stroke:#0066FF;stroke-width:0.5;stroke-linecap:square;stroke-miterlimit:10;" x1="0.25" y1="15.232" x2="7.672" y2="15.232"/>
	
		<line style="fill:none;stroke:#0066FF;stroke-width:0.5;stroke-linecap:square;stroke-miterlimit:10;" x1="14.781" y1="6.248" x2="14.781" y2="21.287"/>
	
		<line style="fill:none;stroke:#0066FF;stroke-width:0.5;stroke-linecap:square;stroke-miterlimit:10;" x1="24.391" y1="6.248" x2="24.391" y2="21.287"/>
	
		<line style="fill:none;stroke:#0066FF;stroke-width:0.5;stroke-linecap:square;stroke-miterlimit:10;" x1="14.469" y1="6.561" x2="24.703" y2="6.561"/>
	
		<line style="fill:none;stroke:#0066FF;stroke-width:0.5;stroke-linecap:square;stroke-miterlimit:10;" x1="14.469" y1="20.975" x2="24.703" y2="20.975"/>
	
		<line style="fill:none;stroke:#0066FF;stroke-width:0.5;stroke-linecap:square;stroke-miterlimit:10;" x1="3.062" y1="48.865" x2="10.484" y2="48.865"/>
	
		<line style="fill:none;stroke:#0066FF;stroke-width:0.5;stroke-linecap:square;stroke-miterlimit:10;" x1="17.281" y1="48.865" x2="24.703" y2="48.865"/>
	<g>
		<path style="fill:#0066FF;" d="M2.301,2.924l2.014-0.982h0.202V8.93c0,0.464,0.019,0.753,0.058,0.867
			c0.039,0.113,0.119,0.201,0.241,0.262c0.122,0.062,0.37,0.096,0.745,0.104v0.226H2.447v-0.226
			c0.391-0.009,0.643-0.042,0.757-0.102c0.114-0.059,0.193-0.138,0.238-0.237c0.044-0.1,0.067-0.398,0.067-0.895V4.462
			c0-0.603-0.021-0.988-0.061-1.159C3.42,3.172,3.368,3.076,3.292,3.016C3.217,2.954,3.127,2.924,3.021,2.924
			c-0.15,0-0.36,0.063-0.628,0.189L2.301,2.924z"/>
	</g>
	<g>
		<path style="fill:#0066FF;" d="M38.736,11.088l2.014-0.982h0.202v6.988c0,0.464,0.019,0.753,0.058,0.867
			c0.039,0.113,0.119,0.201,0.241,0.262c0.122,0.062,0.37,0.096,0.745,0.104v0.226h-3.113v-0.226
			c0.391-0.009,0.643-0.042,0.757-0.102c0.114-0.059,0.193-0.138,0.238-0.237s0.067-0.398,0.067-0.895v-4.468
			c0-0.603-0.021-0.988-0.062-1.159c-0.028-0.131-0.08-0.227-0.155-0.287c-0.076-0.062-0.166-0.092-0.271-0.092
			c-0.151,0-0.36,0.063-0.629,0.189L38.736,11.088z"/>
	</g>
	<g>
		<path style="fill:#0066FF;" d="M6.848,25.13v0.866h-1.11v2.186H4.73v-2.186H1.227v-0.781l3.839-5.48h0.672v5.396H6.848z
			 M4.73,25.13v-4.107L1.825,25.13H4.73z"/>
	</g>
	<g>
		<path style="fill:#0066FF;" d="M5.113,36.547l2.014-0.982h0.202v6.988c0,0.464,0.019,0.753,0.058,0.867
			c0.039,0.113,0.119,0.201,0.241,0.262c0.122,0.062,0.37,0.096,0.745,0.104v0.226H5.26v-0.226c0.391-0.009,0.643-0.042,0.757-0.101
			c0.114-0.06,0.193-0.139,0.238-0.238c0.044-0.1,0.067-0.397,0.067-0.895v-4.468c0-0.602-0.021-0.988-0.061-1.159
			c-0.028-0.131-0.081-0.227-0.156-0.287s-0.166-0.092-0.271-0.092c-0.15,0-0.36,0.063-0.628,0.189L5.113,36.547z"/>
		<path style="fill:#0066FF;" d="M23.878,40.96v0.866h-1.111v2.186H21.76v-2.186h-3.503v-0.781l3.839-5.48h0.671v5.396H23.878z
			 M21.76,40.96v-4.107l-2.905,4.107H21.76z"/>
	</g>
	<g>
		<path style="fill:#0066FF;" d="M38.736,44.721l2.014-0.982h0.202v6.988c0,0.464,0.019,0.753,0.058,0.867
			c0.039,0.113,0.119,0.201,0.241,0.262c0.122,0.062,0.37,0.096,0.745,0.104v0.226h-3.113V51.96
			c0.391-0.009,0.643-0.042,0.757-0.101c0.114-0.06,0.193-0.139,0.238-0.238s0.067-0.397,0.067-0.895v-4.468
			c0-0.602-0.021-0.988-0.062-1.159c-0.028-0.131-0.08-0.227-0.155-0.287c-0.076-0.061-0.166-0.092-0.271-0.092
			c-0.151,0-0.36,0.063-0.629,0.189L38.736,44.721z"/>
	</g>
	<g>
		<path style="fill:#0066FF;" d="M9.66,58.792v0.866H8.55v2.186H7.542v-2.186H4.039v-0.781l3.839-5.48H8.55v5.396H9.66z
			 M7.542,58.792v-4.107l-2.905,4.107H7.542z"/>
		<path style="fill:#0066FF;" d="M19.321,54.379l2.014-0.982h0.202v6.988c0,0.464,0.019,0.753,0.058,0.867
			c0.039,0.113,0.119,0.201,0.241,0.262c0.122,0.062,0.37,0.096,0.745,0.104v0.226h-3.113v-0.226
			c0.391-0.009,0.643-0.042,0.757-0.101c0.114-0.06,0.193-0.139,0.238-0.238c0.044-0.1,0.067-0.397,0.067-0.895v-4.468
			c0-0.602-0.021-0.988-0.061-1.159c-0.028-0.131-0.081-0.227-0.156-0.287s-0.166-0.092-0.271-0.092c-0.15,0-0.36,0.063-0.628,0.189
			L19.321,54.379z"/>
	</g>
	<g>
		<path style="fill:#0066FF;" d="M11.742,15.354c0,0.187-0.066,0.347-0.198,0.479c-0.132,0.133-0.29,0.199-0.473,0.199
			c-0.187,0-0.347-0.066-0.479-0.199c-0.132-0.132-0.199-0.292-0.199-0.479c0-0.188,0.066-0.347,0.199-0.479
			c0.132-0.132,0.292-0.198,0.479-0.198c0.183,0,0.341,0.066,0.473,0.198C11.675,15.008,11.742,15.167,11.742,15.354z"/>
		<path style="fill:#0066FF;" d="M28.483,13.92h6.409v0.592h-6.409V13.92z M28.483,16.196h6.409v0.604h-6.409V16.196z"/>
	</g>
	<g>
		<path style="fill:#0066FF;" d="M14.544,48.987c0,0.188-0.066,0.347-0.198,0.479c-0.132,0.132-0.29,0.198-0.473,0.198
			c-0.187,0-0.347-0.066-0.479-0.198c-0.132-0.133-0.199-0.292-0.199-0.479s0.066-0.347,0.199-0.479
			c0.132-0.132,0.292-0.198,0.479-0.198c0.183,0,0.341,0.066,0.473,0.198C14.478,48.641,14.544,48.8,14.544,48.987z"/>
		<path style="fill:#0066FF;" d="M28.474,47.553h6.409v0.592h-6.409V47.553z M28.474,49.83h6.409v0.604h-6.409V49.83z"/>
	</g>
</g>
<g id="theGroup">
</g>
</svg>
