<?xml version="1.0" encoding="iso-8859-1"?>
<!-- Generator: Adobe Illustrator 16.0.0, SVG Export Plug-In . SVG Version: 6.00 Build 0)  -->
<!DOCTYPE svg PUBLIC "-//W3C//DTD SVG 1.1//EN" "http://www.w3.org/Graphics/SVG/1.1/DTD/svg11.dtd">
<svg version="1.1" id="Lager_1" xmlns="http://www.w3.org/2000/svg" xmlns:xlink="http://www.w3.org/1999/xlink" x="0px" y="0px"
	 width="77.209px" height="34.946px" viewBox="0 0 77.209 34.946" style="enable-background:new 0 0 77.209 34.946;"
	 xml:space="preserve">
<path style="fill:#E5E99B;" d="M17.56,34.265c9.394,0,17.008-7.614,17.008-17.008S26.954,0.25,17.56,0.25V34.265z"/>
<path style="fill:#E5E99B;" d="M17.205,0.1C7.811,0.1,0.198,7.714,0.198,17.108s7.613,17.008,17.007,17.008V0.1z"/>
<circle style="fill:none;stroke:#000000;stroke-width:0.7;" cx="17.358" cy="17.358" r="17.008"/>
<line style="fill:#F08050;stroke:#000000;stroke-width:0.7;" x1="17.233" y1="0.361" x2="17.233" y2="34.376"/>
<line style="fill:none;stroke:#000000;stroke-width:0.75;" x1="0.198" y1="17.108" x2="34.568" y2="17.108"/>
<g id="XMLID_1_">
	<g>
		<path style="fill:#E5E99B;" d="M76.834,17.336c-0.12-9.21-7.561-16.65-16.771-16.76v-0.1c9.38,0,16.98,7.62,16.98,17.01
			c0,6.54-3.681,12.22-9.08,15.06c5.29-2.88,8.88-8.5,8.88-14.96C76.844,17.506,76.844,17.416,76.834,17.336z"/>
		<path style="fill:#E5E99B;" d="M67.403,32.826c-2.229,1.07-4.71,1.671-7.34,1.671V17.336h16.771c0.01,0.08,0.01,0.17,0.01,0.25
			c0,6.46-3.59,12.081-8.88,14.96C67.773,32.646,67.584,32.747,67.403,32.826z"/>
		<path style="fill:#E5E99B;" d="M59.714,17.336v17.01c-5.87,0-11.05-2.97-14.11-7.5c-0.12-0.19-0.25-0.37-0.36-0.57
			c-1.52-2.54-2.39-5.51-2.39-8.69c0-0.08,0-0.17,0.01-0.25H59.714z"/>
		<path style="fill:#E5E99B;" d="M59.714,0.576v16.76h-16.85C42.983,8.116,50.474,0.656,59.714,0.576z"/>
		<path style="fill:#E5E99B;" d="M59.714,0.326v0.25c-9.24,0.08-16.73,7.54-16.85,16.76h-0.16
			C42.704,7.946,50.313,0.326,59.714,0.326z"/>
		<path style="fill:#E5E99B;" d="M42.854,17.586c0,3.18,0.87,6.15,2.39,8.69c-1.61-2.59-2.54-5.66-2.54-8.94h0.16
			C42.854,17.416,42.854,17.506,42.854,17.586z"/>
	</g>
	<g>
		<path style="fill:none;stroke:#000000;stroke-width:0.7;" d="M76.834,17.336c0.01,0.08,0.01,0.17,0.01,0.25
			c0,6.46-3.59,12.081-8.88,14.96c-0.19,0.1-0.38,0.2-0.561,0.279c-2.279,1.141-4.83,1.771-7.54,1.771c-0.04,0-0.08,0-0.12,0
			c-5.93-0.04-11.129-3.11-14.14-7.75c-0.13-0.18-0.25-0.37-0.36-0.57c-1.52-2.54-2.39-5.51-2.39-8.69c0-0.08,0-0.17,0.01-0.25
			c0.12-9.22,7.61-16.68,16.85-16.76c0.05,0,0.1,0,0.149,0c0.07,0,0.13,0,0.2,0C69.273,0.686,76.714,8.126,76.834,17.336z"/>
		<polyline style="fill:none;stroke:#000000;stroke-width:0.7;" points="59.743,0.596 59.743,17.336 59.743,34.596 59.743,34.606 		
			"/>
		<polyline style="fill:none;stroke:#000000;stroke-width:0.75;" points="42.704,17.336 42.864,17.336 59.714,17.336 59.743,17.336 
			60.063,17.336 76.834,17.336 76.844,17.336 		"/>
	</g>
</g>
<g id="theGroup">
</g>
<g>
</g>
<g>
</g>
<g>
</g>
<g>
</g>
<g>
</g>
<g>
</g>
<g>
</g>
<g>
</g>
<g>
</g>
<g>
</g>
<g>
</g>
<g>
</g>
</svg>
