<?xml version="1.0" encoding="iso-8859-1"?>
<!-- Generator: Adobe Illustrator 16.0.0, SVG Export Plug-In . SVG Version: 6.00 Build 0)  -->
<!DOCTYPE svg PUBLIC "-//W3C//DTD SVG 1.1//EN" "http://www.w3.org/Graphics/SVG/1.1/DTD/svg11.dtd">
<svg version="1.1" id="Lager_1" xmlns="http://www.w3.org/2000/svg" xmlns:xlink="http://www.w3.org/1999/xlink" x="0px" y="0px"
	 width="40.142px" height="16.668px" viewBox="0 0 40.142 16.668" style="enable-background:new 0 0 40.142 16.668;"
	 xml:space="preserve">
<g>
	
		<line style="fill:none;stroke:#3A1968;stroke-width:0.2812;stroke-linecap:square;stroke-miterlimit:10;" x1="34.298" y1="0.141" x2="34.298" y2="8.774"/>
	
		<line style="fill:none;stroke:#3A1968;stroke-width:0.2812;stroke-linecap:square;stroke-miterlimit:10;" x1="39.806" y1="0.141" x2="39.806" y2="8.774"/>
	
		<line style="fill:none;stroke:#3A1968;stroke-width:0.2812;stroke-linecap:square;stroke-miterlimit:10;" x1="34.142" y1="0.297" x2="40.001" y2="0.297"/>
	
		<line style="fill:none;stroke:#3A1968;stroke-width:0.2812;stroke-linecap:square;stroke-miterlimit:10;" x1="34.142" y1="8.578" x2="40.001" y2="8.578"/>
	<g>
		<path style="fill:#3A1968;" d="M5.603,4.388v0.226c-0.537,0.053-0.976,0.16-1.315,0.321S3.612,5.34,3.281,5.67
			C2.949,6,2.674,6.367,2.457,6.771c-0.218,0.405-0.4,0.886-0.546,1.444c0.586-0.403,1.174-0.604,1.764-0.604
			c0.565,0,1.056,0.228,1.471,0.684c0.415,0.456,0.622,1.042,0.622,1.758c0,0.691-0.209,1.322-0.628,1.893
			c-0.504,0.691-1.172,1.037-2.002,1.037c-0.565,0-1.046-0.188-1.44-0.562c-0.773-0.729-1.16-1.673-1.16-2.832
			c0-0.74,0.148-1.444,0.445-2.112C1.28,6.809,1.704,6.217,2.255,5.701c0.551-0.517,1.079-0.865,1.583-1.044
			c0.505-0.179,0.975-0.269,1.41-0.269H5.603z M1.807,8.661c-0.073,0.55-0.11,0.993-0.11,1.331c0,0.391,0.072,0.814,0.217,1.272
			c0.144,0.457,0.359,0.82,0.644,1.089c0.207,0.191,0.459,0.287,0.757,0.287c0.354,0,0.67-0.167,0.949-0.5
			c0.279-0.334,0.418-0.811,0.418-1.429c0-0.696-0.139-1.298-0.415-1.807C3.99,8.396,3.597,8.142,3.088,8.142
			c-0.155,0-0.32,0.032-0.498,0.098C2.414,8.305,2.152,8.445,1.807,8.661z"/>
		<path style="fill:#3A1968;" d="M6.734,14.917v-0.269c0.419-0.138,0.744-0.353,0.974-0.644c0.229-0.291,0.345-0.6,0.345-0.925
			c0-0.077-0.018-0.143-0.055-0.195C7.969,12.847,7.94,12.83,7.912,12.83c-0.045,0-0.143,0.04-0.293,0.122
			c-0.073,0.036-0.151,0.055-0.232,0.055c-0.199,0-0.358-0.059-0.476-0.177c-0.118-0.118-0.177-0.281-0.177-0.488
			c0-0.199,0.076-0.37,0.229-0.513c0.152-0.143,0.339-0.214,0.559-0.214c0.269,0,0.507,0.117,0.717,0.351
			c0.209,0.234,0.314,0.545,0.314,0.931c0,0.42-0.146,0.81-0.437,1.169C7.825,14.425,7.365,14.709,6.734,14.917z"/>
		<path style="fill:#3A1968;" d="M11.009,13.006v-0.226c0.529-0.009,1.021-0.132,1.477-0.369c0.456-0.238,0.896-0.654,1.321-1.248
			c0.425-0.595,0.721-1.248,0.888-1.96c-0.639,0.411-1.217,0.616-1.733,0.616c-0.582,0-1.08-0.225-1.495-0.674
			c-0.415-0.45-0.623-1.047-0.623-1.792c0-0.724,0.208-1.369,0.623-1.935c0.5-0.688,1.153-1.031,1.959-1.031
			c0.68,0,1.261,0.281,1.746,0.842c0.594,0.696,0.891,1.554,0.891,2.576c0,0.919-0.226,1.777-0.678,2.572
			c-0.451,0.796-1.08,1.456-1.886,1.98c-0.655,0.432-1.369,0.647-2.143,0.647H11.009z M14.793,8.752
			c0.073-0.529,0.11-0.952,0.11-1.27c0-0.395-0.067-0.821-0.202-1.279c-0.134-0.458-0.324-0.809-0.57-1.053
			c-0.247-0.244-0.526-0.366-0.839-0.366c-0.362,0-0.68,0.163-0.952,0.488c-0.272,0.326-0.409,0.81-0.409,1.453
			c0,0.858,0.181,1.53,0.543,2.014c0.265,0.351,0.59,0.525,0.977,0.525c0.187,0,0.409-0.045,0.665-0.135
			C14.373,9.042,14.598,8.915,14.793,8.752z"/>
		<path style="fill:#3A1968;" d="M22.702,5.371l2.014-0.982h0.202v6.988c0,0.464,0.019,0.753,0.058,0.867
			c0.039,0.113,0.119,0.201,0.241,0.262c0.122,0.062,0.37,0.096,0.745,0.104v0.226h-3.113V12.61
			c0.391-0.009,0.643-0.042,0.757-0.101c0.114-0.06,0.193-0.139,0.238-0.238s0.067-0.397,0.067-0.895V6.909
			c0-0.602-0.021-0.988-0.062-1.159c-0.028-0.13-0.08-0.226-0.155-0.287c-0.076-0.061-0.166-0.092-0.271-0.092
			c-0.151,0-0.36,0.063-0.629,0.189L22.702,5.371z"/>
		<path style="fill:#3A1968;" d="M27.938,8.747c0-0.944,0.143-1.757,0.428-2.439c0.285-0.681,0.663-1.189,1.135-1.523
			c0.367-0.264,0.745-0.396,1.136-0.396c0.635,0,1.204,0.323,1.709,0.971c0.631,0.801,0.946,1.888,0.946,3.259
			c0,0.961-0.139,1.776-0.415,2.448c-0.277,0.671-0.63,1.158-1.06,1.461c-0.429,0.304-0.843,0.455-1.242,0.455
			c-0.789,0-1.446-0.466-1.971-1.397C28.161,10.799,27.938,9.853,27.938,8.747z M29.136,8.899c0,1.139,0.14,2.069,0.421,2.789
			c0.231,0.606,0.577,0.909,1.037,0.909c0.22,0,0.448-0.099,0.684-0.296c0.236-0.197,0.415-0.528,0.537-0.991
			c0.188-0.7,0.281-1.688,0.281-2.961c0-0.944-0.098-1.731-0.293-2.362c-0.146-0.468-0.336-0.799-0.567-0.995
			c-0.167-0.135-0.369-0.202-0.604-0.202c-0.277,0-0.523,0.124-0.739,0.373c-0.293,0.337-0.492,0.869-0.598,1.593
			S29.136,8.195,29.136,8.899z"/>
	</g>
	<g>
		<path style="fill:#3A1968;" d="M20.076,9.637c0,0.188-0.066,0.347-0.198,0.479c-0.132,0.132-0.29,0.198-0.473,0.198
			c-0.187,0-0.347-0.066-0.479-0.198c-0.132-0.133-0.199-0.292-0.199-0.479s0.066-0.347,0.199-0.479
			c0.132-0.132,0.292-0.198,0.479-0.198c0.183,0,0.341,0.066,0.473,0.198C20.009,9.291,20.076,9.45,20.076,9.637z"/>
	</g>
</g>
<g id="theGroup">
</g>
</svg>
