<?xml version="1.0" encoding="iso-8859-1"?>
<!-- Generator: Adobe Illustrator 16.0.0, SVG Export Plug-In . SVG Version: 6.00 Build 0)  -->
<!DOCTYPE svg PUBLIC "-//W3C//DTD SVG 1.1//EN" "http://www.w3.org/Graphics/SVG/1.1/DTD/svg11.dtd">
<svg version="1.1" id="Lager_1" xmlns="http://www.w3.org/2000/svg" xmlns:xlink="http://www.w3.org/1999/xlink" x="0px" y="0px"
	 width="125.904px" height="71.704px" viewBox="0 0 125.904 71.704" style="enable-background:new 0 0 125.904 71.704;"
	 xml:space="preserve">
<g>
	<g>
		<path style="fill:#0066FF;" d="M25.755,4.242v0.501h-0.642v1.263h-0.583V4.743h-2.025V4.291l2.22-3.169h0.388v3.12H25.755z
			 M24.531,4.242V1.867l-1.68,2.375H24.531z"/>
	</g>
	<g>
		<path style="fill:#0066FF;" d="M3.882,14.068v0.226c-0.614-0.309-1.127-0.671-1.538-1.086c-0.586-0.59-1.038-1.286-1.355-2.087
			S0.513,9.487,0.513,8.624c0-1.261,0.312-2.412,0.934-3.451c0.623-1.04,1.435-1.783,2.436-2.231v0.256
			c-0.5,0.277-0.912,0.655-1.233,1.135s-0.562,1.088-0.72,1.825C1.77,6.895,1.69,7.664,1.69,8.466c0,0.871,0.067,1.662,0.202,2.374
			c0.106,0.562,0.234,1.012,0.384,1.352c0.151,0.339,0.353,0.666,0.607,0.979S3.471,13.784,3.882,14.068z"/>
		<path style="fill:#0066FF;" d="M17.244,10.028l-0.58,1.593h-4.883v-0.226c1.437-1.311,2.447-2.381,3.033-3.211
			s0.879-1.589,0.879-2.276c0-0.525-0.161-0.956-0.482-1.294s-0.706-0.507-1.154-0.507c-0.407,0-0.772,0.119-1.095,0.357
			c-0.324,0.238-0.562,0.587-0.717,1.047H12.02c0.102-0.753,0.363-1.331,0.784-1.733c0.421-0.403,0.947-0.604,1.578-0.604
			c0.671,0,1.232,0.216,1.682,0.647c0.449,0.431,0.674,0.94,0.674,1.526c0,0.419-0.098,0.838-0.293,1.257
			c-0.301,0.659-0.79,1.357-1.465,2.093c-1.013,1.107-1.646,1.774-1.898,2.002h2.161c0.439,0,0.748-0.016,0.924-0.049
			c0.177-0.032,0.337-0.098,0.479-0.198c0.143-0.1,0.267-0.241,0.373-0.424H17.244z"/>
		<path style="fill:#0066FF;" d="M18.043,3.198V2.942c0.619,0.305,1.133,0.666,1.544,1.081c0.582,0.594,1.031,1.291,1.349,2.09
			c0.317,0.799,0.476,1.632,0.476,2.5c0,1.261-0.311,2.412-0.931,3.451c-0.621,1.04-1.434,1.783-2.438,2.231v-0.226
			c0.5-0.28,0.913-0.66,1.236-1.138c0.324-0.478,0.563-1.086,0.72-1.825c0.157-0.739,0.235-1.509,0.235-2.311
			c0-0.866-0.067-1.658-0.201-2.374c-0.102-0.562-0.229-1.011-0.381-1.349c-0.153-0.338-0.355-0.664-0.607-0.977
			C18.792,3.782,18.458,3.483,18.043,3.198z"/>
	</g>
	<g>
		<path style="fill:#0066FF;" d="M14.282,32.818v0.226c-0.614-0.309-1.127-0.671-1.538-1.086c-0.586-0.59-1.038-1.286-1.355-2.087
			s-0.476-1.634-0.476-2.497c0-1.261,0.312-2.412,0.934-3.451c0.623-1.04,1.435-1.783,2.436-2.231v0.256
			c-0.5,0.277-0.912,0.655-1.233,1.135s-0.562,1.088-0.72,1.825c-0.159,0.737-0.238,1.506-0.238,2.308
			c0,0.871,0.067,1.662,0.202,2.374c0.106,0.562,0.234,1.012,0.384,1.352c0.151,0.339,0.353,0.666,0.607,0.979
			S13.871,32.534,14.282,32.818z"/>
		<path style="fill:#0066FF;" d="M27.645,28.778l-0.58,1.593h-4.883v-0.226c1.437-1.311,2.447-2.381,3.033-3.211
			s0.879-1.589,0.879-2.276c0-0.525-0.161-0.956-0.482-1.294s-0.706-0.507-1.154-0.507c-0.407,0-0.772,0.119-1.095,0.357
			c-0.324,0.238-0.562,0.587-0.717,1.047H22.42c0.102-0.753,0.363-1.331,0.784-1.733c0.421-0.403,0.947-0.604,1.578-0.604
			c0.671,0,1.232,0.216,1.682,0.647c0.449,0.431,0.674,0.94,0.674,1.526c0,0.419-0.098,0.838-0.293,1.257
			c-0.301,0.659-0.79,1.357-1.465,2.093c-1.013,1.107-1.646,1.774-1.898,2.002h2.161c0.439,0,0.748-0.016,0.924-0.049
			c0.177-0.032,0.337-0.098,0.479-0.198c0.143-0.1,0.267-0.241,0.373-0.424H27.645z"/>
		<path style="fill:#0066FF;" d="M28.444,21.948v-0.256c0.619,0.305,1.133,0.666,1.544,1.081c0.582,0.594,1.031,1.291,1.349,2.09
			c0.317,0.799,0.476,1.632,0.476,2.5c0,1.261-0.311,2.412-0.931,3.451c-0.621,1.04-1.434,1.783-2.438,2.231v-0.226
			c0.5-0.28,0.913-0.66,1.236-1.138c0.324-0.478,0.563-1.086,0.72-1.825c0.157-0.739,0.235-1.509,0.235-2.311
			c0-0.866-0.067-1.658-0.201-2.374c-0.102-0.562-0.229-1.011-0.381-1.349c-0.153-0.338-0.355-0.664-0.607-0.977
			C29.192,22.532,28.859,22.233,28.444,21.948z"/>
		<path style="fill:#0066FF;" d="M42.157,32.818v0.226c-0.614-0.309-1.127-0.671-1.538-1.086c-0.586-0.59-1.038-1.286-1.355-2.087
			s-0.476-1.634-0.476-2.497c0-1.261,0.312-2.412,0.934-3.451c0.623-1.04,1.435-1.783,2.436-2.231v0.256
			c-0.5,0.277-0.912,0.655-1.233,1.135s-0.562,1.088-0.72,1.825c-0.159,0.737-0.238,1.506-0.238,2.308
			c0,0.871,0.067,1.662,0.202,2.374c0.106,0.562,0.234,1.012,0.384,1.352c0.151,0.339,0.353,0.666,0.607,0.979
			S41.746,32.534,42.157,32.818z"/>
		<path style="fill:#0066FF;" d="M55.52,28.778l-0.58,1.593h-4.883v-0.226c1.437-1.311,2.447-2.381,3.033-3.211
			s0.879-1.589,0.879-2.276c0-0.525-0.161-0.956-0.482-1.294s-0.706-0.507-1.154-0.507c-0.407,0-0.772,0.119-1.095,0.357
			c-0.324,0.238-0.562,0.587-0.717,1.047h-0.226c0.102-0.753,0.363-1.331,0.784-1.733c0.421-0.403,0.947-0.604,1.578-0.604
			c0.671,0,1.232,0.216,1.682,0.647c0.449,0.431,0.674,0.94,0.674,1.526c0,0.419-0.098,0.838-0.293,1.257
			c-0.301,0.659-0.79,1.357-1.465,2.093c-1.013,1.107-1.646,1.774-1.898,2.002h2.161c0.439,0,0.748-0.016,0.924-0.049
			c0.177-0.032,0.337-0.098,0.479-0.198c0.143-0.1,0.267-0.241,0.373-0.424H55.52z"/>
		<path style="fill:#0066FF;" d="M56.319,21.948v-0.256c0.619,0.305,1.133,0.666,1.544,1.081c0.582,0.594,1.031,1.291,1.349,2.09
			c0.317,0.799,0.476,1.632,0.476,2.5c0,1.261-0.311,2.412-0.931,3.451c-0.621,1.04-1.434,1.783-2.438,2.231v-0.226
			c0.5-0.28,0.913-0.66,1.236-1.138c0.324-0.478,0.563-1.086,0.72-1.825c0.157-0.739,0.235-1.509,0.235-2.311
			c0-0.866-0.067-1.658-0.201-2.374c-0.102-0.562-0.229-1.011-0.381-1.349c-0.153-0.338-0.355-0.664-0.607-0.977
			C57.067,22.532,56.734,22.233,56.319,21.948z"/>
		<path style="fill:#0066FF;" d="M70.032,32.818v0.226c-0.614-0.309-1.127-0.671-1.538-1.086c-0.586-0.59-1.037-1.286-1.355-2.087
			c-0.316-0.802-0.476-1.634-0.476-2.497c0-1.261,0.312-2.412,0.934-3.451c0.623-1.04,1.435-1.783,2.436-2.231v0.256
			c-0.501,0.277-0.911,0.655-1.233,1.135c-0.321,0.48-0.561,1.088-0.72,1.825c-0.159,0.737-0.238,1.506-0.238,2.308
			c0,0.871,0.067,1.662,0.202,2.374c0.105,0.562,0.233,1.012,0.384,1.352c0.15,0.339,0.354,0.666,0.607,0.979
			S69.621,32.534,70.032,32.818z"/>
		<path style="fill:#0066FF;" d="M83.395,28.778l-0.58,1.593h-4.883v-0.226c1.437-1.311,2.447-2.381,3.033-3.211
			s0.879-1.589,0.879-2.276c0-0.525-0.16-0.956-0.481-1.294c-0.322-0.338-0.706-0.507-1.154-0.507c-0.406,0-0.771,0.119-1.096,0.357
			c-0.323,0.238-0.562,0.587-0.717,1.047H78.17c0.102-0.753,0.363-1.331,0.784-1.733c0.421-0.403,0.947-0.604,1.578-0.604
			c0.671,0,1.231,0.216,1.681,0.647c0.45,0.431,0.675,0.94,0.675,1.526c0,0.419-0.098,0.838-0.293,1.257
			c-0.301,0.659-0.789,1.357-1.465,2.093c-1.014,1.107-1.646,1.774-1.898,2.002h2.161c0.439,0,0.747-0.016,0.925-0.049
			c0.177-0.032,0.336-0.098,0.479-0.198c0.143-0.1,0.267-0.241,0.373-0.424H83.395z"/>
		<path style="fill:#0066FF;" d="M84.194,21.948v-0.256c0.618,0.305,1.133,0.666,1.544,1.081c0.582,0.594,1.031,1.291,1.349,2.09
			c0.317,0.799,0.477,1.632,0.477,2.5c0,1.261-0.311,2.412-0.932,3.451c-0.62,1.04-1.433,1.783-2.438,2.231v-0.226
			c0.5-0.28,0.912-0.66,1.235-1.138s0.563-1.086,0.721-1.825c0.156-0.739,0.234-1.509,0.234-2.311c0-0.866-0.067-1.658-0.201-2.374
			c-0.102-0.562-0.229-1.011-0.382-1.349c-0.152-0.338-0.354-0.664-0.607-0.977C84.942,22.532,84.608,22.233,84.194,21.948z"/>
		<path style="fill:#0066FF;" d="M97.908,32.818v0.226c-0.614-0.309-1.127-0.671-1.538-1.086c-0.586-0.59-1.037-1.286-1.355-2.087
			c-0.316-0.802-0.476-1.634-0.476-2.497c0-1.261,0.312-2.412,0.934-3.451c0.623-1.04,1.435-1.783,2.436-2.231v0.256
			c-0.501,0.277-0.911,0.655-1.233,1.135c-0.321,0.48-0.561,1.088-0.72,1.825c-0.159,0.737-0.238,1.506-0.238,2.308
			c0,0.871,0.067,1.662,0.202,2.374c0.105,0.562,0.233,1.012,0.384,1.352c0.15,0.339,0.354,0.666,0.607,0.979
			S97.497,32.534,97.908,32.818z"/>
		<path style="fill:#0066FF;" d="M111.271,28.778l-0.58,1.593h-4.883v-0.226c1.437-1.311,2.447-2.381,3.033-3.211
			s0.879-1.589,0.879-2.276c0-0.525-0.16-0.956-0.481-1.294c-0.322-0.338-0.706-0.507-1.154-0.507c-0.406,0-0.771,0.119-1.096,0.357
			c-0.323,0.238-0.562,0.587-0.717,1.047h-0.226c0.102-0.753,0.363-1.331,0.784-1.733c0.421-0.403,0.947-0.604,1.578-0.604
			c0.671,0,1.231,0.216,1.681,0.647c0.45,0.431,0.675,0.94,0.675,1.526c0,0.419-0.098,0.838-0.293,1.257
			c-0.301,0.659-0.789,1.357-1.465,2.093c-1.014,1.107-1.646,1.774-1.898,2.002h2.161c0.439,0,0.747-0.016,0.925-0.049
			c0.177-0.032,0.336-0.098,0.479-0.198c0.143-0.1,0.267-0.241,0.373-0.424H111.271z"/>
		<path style="fill:#0066FF;" d="M112.07,21.948v-0.256c0.618,0.305,1.133,0.666,1.544,1.081c0.582,0.594,1.031,1.291,1.349,2.09
			c0.317,0.799,0.477,1.632,0.477,2.5c0,1.261-0.311,2.412-0.932,3.451c-0.62,1.04-1.433,1.783-2.438,2.231v-0.226
			c0.5-0.28,0.912-0.66,1.235-1.138s0.563-1.086,0.721-1.825c0.156-0.739,0.234-1.509,0.234-2.311c0-0.866-0.067-1.658-0.201-2.374
			c-0.102-0.562-0.229-1.011-0.382-1.349c-0.152-0.338-0.354-0.664-0.607-0.977C112.818,22.532,112.484,22.233,112.07,21.948z"/>
	</g>
	<g>
		<path style="fill:#0066FF;" d="M16.402,46.069v0.866h-1.11v2.186h-1.007v-2.186h-3.503v-0.781l3.839-5.48h0.672v5.396H16.402z
			 M14.285,46.069v-4.107l-2.905,4.107H14.285z"/>
		<path style="fill:#0066FF;" d="M28.665,46.069v0.866h-1.11v2.186h-1.007v-2.186h-3.503v-0.781l3.839-5.48h0.672v5.396H28.665z
			 M26.547,46.069v-4.107l-2.905,4.107H26.547z"/>
	</g>
	<g>
		<path style="fill:#0066FF;" d="M10.693,60.406l2.014-0.982h0.202v6.988c0,0.464,0.019,0.753,0.058,0.867
			c0.039,0.113,0.119,0.201,0.241,0.262c0.122,0.062,0.37,0.096,0.745,0.104v0.226H10.84v-0.226
			c0.391-0.009,0.643-0.042,0.757-0.101c0.114-0.06,0.193-0.139,0.238-0.238c0.044-0.1,0.067-0.397,0.067-0.895v-4.468
			c0-0.602-0.021-0.988-0.061-1.159c-0.028-0.131-0.081-0.227-0.156-0.287s-0.166-0.092-0.271-0.092c-0.15,0-0.36,0.063-0.628,0.189
			L10.693,60.406z"/>
		<path style="fill:#0066FF;" d="M21.082,59.424v0.226c-0.537,0.053-0.976,0.16-1.315,0.32c-0.34,0.161-0.675,0.406-1.007,0.735
			c-0.332,0.33-0.606,0.697-0.824,1.103c-0.218,0.404-0.4,0.886-0.546,1.443c0.586-0.403,1.174-0.604,1.764-0.604
			c0.565,0,1.056,0.228,1.471,0.684s0.622,1.042,0.622,1.758c0,0.691-0.209,1.322-0.628,1.893c-0.504,0.691-1.172,1.037-2.002,1.037
			c-0.565,0-1.046-0.188-1.44-0.562c-0.773-0.729-1.16-1.673-1.16-2.832c0-0.74,0.148-1.444,0.445-2.112
			c0.297-0.667,0.721-1.259,1.273-1.775c0.551-0.517,1.079-0.865,1.583-1.044c0.505-0.179,0.975-0.269,1.41-0.269H21.082z
			 M17.285,63.696c-0.073,0.55-0.11,0.993-0.11,1.331c0,0.391,0.072,0.814,0.217,1.272c0.144,0.457,0.359,0.82,0.644,1.089
			c0.207,0.191,0.459,0.287,0.757,0.287c0.354,0,0.67-0.167,0.949-0.5c0.279-0.334,0.418-0.811,0.418-1.429
			c0-0.696-0.139-1.298-0.415-1.807c-0.277-0.509-0.669-0.763-1.178-0.763c-0.155,0-0.32,0.032-0.498,0.098
			C17.893,63.34,17.631,63.48,17.285,63.696z"/>
	</g>
	<g>
		<path style="fill:#0066FF;" d="M4.913,8.105h6.409V8.71H4.913V8.105z"/>
		<path style="fill:#0066FF;" d="M30.811,6.988h6.409v0.592h-6.409V6.988z M30.811,9.265h6.409v0.604h-6.409V9.265z"/>
	</g>
	<g>
		<path style="fill:#0066FF;" d="M0.431,25.738H6.84v0.592H0.431V25.738z M0.431,28.015H6.84v0.604H0.431V28.015z"/>
		<path style="fill:#0066FF;" d="M15.304,26.855h6.409v0.604h-6.409V26.855z"/>
		<path style="fill:#0066FF;" d="M35.935,27.173c0,0.187-0.066,0.347-0.198,0.479c-0.132,0.132-0.29,0.199-0.473,0.199
			c-0.187,0-0.347-0.066-0.479-0.199c-0.132-0.132-0.199-0.292-0.199-0.479s0.066-0.347,0.199-0.479
			c0.132-0.132,0.292-0.199,0.479-0.199c0.183,0,0.341,0.066,0.473,0.199C35.868,26.826,35.935,26.986,35.935,27.173z"/>
		<path style="fill:#0066FF;" d="M43.176,26.855h6.409v0.604h-6.409V26.855z"/>
		<path style="fill:#0066FF;" d="M63.808,27.173c0,0.187-0.066,0.347-0.198,0.479c-0.132,0.132-0.29,0.199-0.473,0.199
			c-0.187,0-0.347-0.066-0.479-0.199c-0.132-0.132-0.199-0.292-0.199-0.479s0.066-0.347,0.199-0.479
			c0.132-0.132,0.292-0.199,0.479-0.199c0.183,0,0.341,0.066,0.473,0.199C63.741,26.826,63.808,26.986,63.808,27.173z"/>
		<path style="fill:#0066FF;" d="M71.049,26.855h6.409v0.604h-6.409V26.855z"/>
		<path style="fill:#0066FF;" d="M91.681,27.173c0,0.187-0.066,0.347-0.199,0.479c-0.132,0.132-0.289,0.199-0.473,0.199
			c-0.188,0-0.347-0.066-0.479-0.199c-0.132-0.132-0.198-0.292-0.198-0.479s0.066-0.347,0.198-0.479
			c0.133-0.132,0.292-0.199,0.479-0.199c0.184,0,0.341,0.066,0.473,0.199C91.614,26.826,91.681,26.986,91.681,27.173z"/>
		<path style="fill:#0066FF;" d="M98.922,26.855h6.409v0.604h-6.409V26.855z"/>
		<path style="fill:#0066FF;" d="M119.27,25.738h6.409v0.592h-6.409V25.738z M119.27,28.015h6.409v0.604h-6.409V28.015z"/>
	</g>
	<g>
		<path style="fill:#0066FF;" d="M0.431,44.488H6.84v0.592H0.431V44.488z M0.431,46.766H6.84v0.604H0.431V46.766z"/>
		<path style="fill:#0066FF;" d="M20.324,45.923c0,0.188-0.066,0.347-0.198,0.479c-0.132,0.132-0.29,0.198-0.473,0.198
			c-0.187,0-0.347-0.066-0.479-0.198c-0.132-0.133-0.199-0.292-0.199-0.479s0.066-0.347,0.199-0.479
			c0.132-0.132,0.292-0.198,0.479-0.198c0.183,0,0.341,0.066,0.473,0.198C20.258,45.576,20.324,45.735,20.324,45.923z"/>
		<path style="fill:#0066FF;" d="M32.291,44.488H38.7v0.592h-6.409V44.488z M32.291,46.766H38.7v0.604h-6.409V46.766z"/>
	</g>
	<g>
		<path style="fill:#0066FF;" d="M0.431,63.238H6.84v0.592H0.431V63.238z M0.431,65.516H6.84v0.604H0.431V65.516z"/>
	</g>
</g>
<g id="theGroup">
</g>
</svg>
