<?xml version="1.0" encoding="iso-8859-1"?>
<!-- Generator: Adobe Illustrator 16.0.0, SVG Export Plug-In . SVG Version: 6.00 Build 0)  -->
<!DOCTYPE svg PUBLIC "-//W3C//DTD SVG 1.1//EN" "http://www.w3.org/Graphics/SVG/1.1/DTD/svg11.dtd">
<svg version="1.1" id="Lager_1" xmlns="http://www.w3.org/2000/svg" xmlns:xlink="http://www.w3.org/1999/xlink" x="0px" y="0px"
	 width="124.683px" height="85.233px" viewBox="0 0 124.683 85.233" style="enable-background:new 0 0 124.683 85.233;"
	 xml:space="preserve">
<g>
	
		<line style="fill:none;stroke:#0066FF;stroke-width:0.5;stroke-linecap:square;stroke-miterlimit:10;" x1="10.597" y1="34.595" x2="100.831" y2="34.595"/>
	
		<line style="fill:none;stroke:#0066FF;stroke-width:0.5;stroke-linecap:square;stroke-miterlimit:10;" x1="10.597" y1="68.423" x2="34.972" y2="68.423"/>
	
		<line style="fill:none;stroke:#0066FF;stroke-width:0.5;stroke-linecap:square;stroke-miterlimit:10;" x1="49.112" y1="68.423" x2="61.417" y2="68.423"/>
	
		<line style="fill:none;stroke:#0066FF;stroke-width:0.5;stroke-linecap:square;stroke-miterlimit:10;" x1="75.558" y1="68.423" x2="82.394" y2="68.423"/>
	<g>
		<path style="fill:#0066FF;" d="M5.719,8.229H2.515L1.953,9.535c-0.138,0.321-0.208,0.562-0.208,0.72
			c0,0.126,0.06,0.237,0.18,0.333c0.12,0.096,0.379,0.158,0.778,0.187V11H0.098v-0.226c0.346-0.062,0.57-0.141,0.671-0.238
			c0.208-0.195,0.438-0.592,0.69-1.19L4.37,2.534h0.214l2.881,6.885c0.231,0.554,0.442,0.913,0.631,1.078
			c0.189,0.165,0.453,0.257,0.791,0.278V11H5.621v-0.226c0.33-0.017,0.553-0.071,0.668-0.165c0.116-0.094,0.174-0.208,0.174-0.342
			c0-0.179-0.082-0.462-0.244-0.849L5.719,8.229z M5.548,7.777L4.145,4.433l-1.44,3.345H5.548z"/>
		<path style="fill:#0066FF;" d="M10.81,6.429c0.655-0.79,1.279-1.185,1.874-1.185c0.305,0,0.568,0.077,0.788,0.229
			c0.22,0.153,0.395,0.404,0.524,0.754c0.09,0.244,0.135,0.619,0.135,1.123v2.386c0,0.354,0.028,0.594,0.085,0.721
			c0.045,0.102,0.117,0.181,0.217,0.238s0.284,0.085,0.553,0.085V11H12.22v-0.22h0.116c0.261,0,0.443-0.04,0.546-0.119
			c0.104-0.079,0.176-0.196,0.217-0.351c0.016-0.062,0.024-0.252,0.024-0.574V7.448c0-0.509-0.066-0.878-0.198-1.108
			c-0.132-0.229-0.355-0.345-0.668-0.345c-0.484,0-0.966,0.265-1.446,0.793v2.948c0,0.379,0.022,0.613,0.067,0.702
			c0.057,0.118,0.135,0.205,0.235,0.259c0.1,0.055,0.302,0.083,0.607,0.083V11H8.955v-0.22h0.122c0.285,0,0.477-0.072,0.577-0.217
			c0.1-0.144,0.149-0.42,0.149-0.827V7.661c0-0.671-0.015-1.08-0.046-1.227c-0.03-0.146-0.077-0.246-0.14-0.299
			c-0.063-0.053-0.147-0.08-0.253-0.08c-0.114,0-0.25,0.031-0.409,0.091l-0.092-0.22l1.685-0.684h0.263V6.429z"/>
		<path style="fill:#0066FF;" d="M19.379,10.371c-0.273,0.285-0.54,0.49-0.8,0.614s-0.541,0.186-0.842,0.186
			c-0.61,0-1.144-0.255-1.599-0.766c-0.456-0.51-0.684-1.167-0.684-1.968s0.252-1.535,0.757-2.2
			c0.504-0.666,1.153-0.998,1.947-0.998c0.492,0,0.899,0.157,1.221,0.47V4.677c0-0.639-0.016-1.031-0.046-1.178
			C19.303,3.353,19.255,3.252,19.19,3.2s-0.146-0.08-0.244-0.08c-0.106,0-0.246,0.033-0.421,0.098l-0.08-0.213l1.667-0.684h0.274
			v6.463c0,0.655,0.015,1.055,0.046,1.2c0.03,0.145,0.079,0.245,0.146,0.302c0.067,0.057,0.146,0.085,0.235,0.085
			c0.11,0,0.256-0.034,0.439-0.104l0.067,0.214l-1.66,0.689h-0.28V10.371z M19.379,9.944V7.063c-0.024-0.277-0.098-0.529-0.22-0.757
			c-0.122-0.228-0.284-0.4-0.485-0.516c-0.202-0.116-0.398-0.174-0.589-0.174c-0.358,0-0.678,0.161-0.958,0.482
			c-0.37,0.423-0.555,1.042-0.555,1.855c0,0.822,0.179,1.452,0.537,1.889c0.358,0.438,0.757,0.656,1.196,0.656
			C18.675,10.5,19.033,10.314,19.379,9.944z"/>
		<path style="fill:#0066FF;" d="M22.62,7.515c-0.004,0.83,0.197,1.481,0.604,1.953c0.407,0.472,0.885,0.708,1.435,0.708
			c0.366,0,0.685-0.101,0.955-0.302c0.271-0.202,0.498-0.546,0.681-1.035l0.189,0.122c-0.086,0.558-0.334,1.065-0.745,1.523
			c-0.411,0.458-0.925,0.687-1.544,0.687c-0.671,0-1.246-0.261-1.724-0.784c-0.479-0.523-0.717-1.226-0.717-2.109
			c0-0.956,0.245-1.702,0.735-2.237s1.106-0.803,1.847-0.803c0.626,0,1.141,0.207,1.544,0.62s0.604,0.965,0.604,1.657H22.62z
			 M22.62,7.161h2.588c-0.021-0.358-0.063-0.61-0.128-0.757c-0.102-0.228-0.253-0.407-0.455-0.537
			c-0.201-0.13-0.412-0.195-0.631-0.195c-0.338,0-0.64,0.131-0.907,0.394C22.82,6.328,22.665,6.693,22.62,7.161z"/>
		<path style="fill:#0066FF;" d="M29.076,2.321v7.416c0,0.35,0.025,0.582,0.076,0.696c0.051,0.114,0.129,0.2,0.235,0.259
			s0.303,0.088,0.592,0.088V11h-2.741v-0.22c0.256,0,0.431-0.026,0.525-0.079c0.094-0.053,0.167-0.141,0.22-0.263
			s0.079-0.356,0.079-0.702V4.658c0-0.63-0.014-1.018-0.042-1.163c-0.028-0.144-0.074-0.243-0.137-0.296
			c-0.063-0.053-0.144-0.08-0.241-0.08c-0.106,0-0.24,0.033-0.403,0.098l-0.104-0.213l1.667-0.684H29.076z"/>
		<path style="fill:#0066FF;" d="M31.416,7.515c-0.004,0.83,0.197,1.481,0.604,1.953c0.407,0.472,0.885,0.708,1.435,0.708
			c0.366,0,0.685-0.101,0.955-0.302c0.271-0.202,0.498-0.546,0.681-1.035l0.189,0.122c-0.086,0.558-0.334,1.065-0.745,1.523
			c-0.411,0.458-0.925,0.687-1.544,0.687c-0.671,0-1.246-0.261-1.724-0.784c-0.479-0.523-0.717-1.226-0.717-2.109
			c0-0.956,0.245-1.702,0.735-2.237s1.106-0.803,1.847-0.803c0.626,0,1.141,0.207,1.544,0.62s0.604,0.965,0.604,1.657H31.416z
			 M31.416,7.161h2.588c-0.021-0.358-0.063-0.61-0.128-0.757c-0.102-0.228-0.253-0.407-0.455-0.537
			c-0.201-0.13-0.412-0.195-0.631-0.195c-0.338,0-0.64,0.131-0.907,0.394C31.616,6.328,31.461,6.693,31.416,7.161z"/>
		<path style="fill:#0066FF;" d="M37.579,6.429c0.655-0.79,1.279-1.185,1.874-1.185c0.305,0,0.568,0.077,0.788,0.229
			c0.22,0.153,0.395,0.404,0.524,0.754c0.09,0.244,0.135,0.619,0.135,1.123v2.386c0,0.354,0.028,0.594,0.085,0.721
			c0.045,0.102,0.117,0.181,0.217,0.238s0.284,0.085,0.553,0.085V11h-2.765v-0.22h0.116c0.261,0,0.443-0.04,0.546-0.119
			c0.104-0.079,0.176-0.196,0.217-0.351c0.016-0.062,0.024-0.252,0.024-0.574V7.448c0-0.509-0.066-0.878-0.198-1.108
			c-0.132-0.229-0.355-0.345-0.668-0.345c-0.484,0-0.966,0.265-1.446,0.793v2.948c0,0.379,0.022,0.613,0.067,0.702
			c0.057,0.118,0.135,0.205,0.235,0.259c0.1,0.055,0.302,0.083,0.607,0.083V11h-2.765v-0.22h0.122c0.285,0,0.477-0.072,0.577-0.217
			c0.1-0.144,0.149-0.42,0.149-0.827V7.661c0-0.671-0.015-1.08-0.046-1.227c-0.03-0.146-0.077-0.246-0.14-0.299
			c-0.063-0.053-0.147-0.08-0.253-0.08c-0.114,0-0.25,0.031-0.409,0.091l-0.092-0.22l1.685-0.684h0.263V6.429z"/>
		<path style="fill:#0066FF;" d="M46.856,6.374c0.541-0.753,1.125-1.129,1.751-1.129c0.574,0,1.074,0.246,1.501,0.736
			s0.641,1.161,0.641,2.011c0,0.993-0.329,1.792-0.988,2.398c-0.566,0.521-1.196,0.781-1.893,0.781
			c-0.325,0-0.656-0.059-0.992-0.177c-0.335-0.118-0.678-0.295-1.028-0.531V4.671c0-0.635-0.015-1.025-0.046-1.172
			c-0.03-0.146-0.078-0.247-0.143-0.299c-0.065-0.053-0.146-0.08-0.244-0.08c-0.114,0-0.257,0.033-0.428,0.098l-0.085-0.213
			l1.678-0.684h0.275V6.374z M46.856,6.764v3.345c0.207,0.204,0.422,0.357,0.644,0.461c0.222,0.104,0.449,0.156,0.681,0.156
			c0.37,0,0.715-0.204,1.035-0.61c0.319-0.407,0.479-0.999,0.479-1.776c0-0.716-0.16-1.267-0.479-1.651
			c-0.32-0.385-0.683-0.577-1.089-0.577c-0.216,0-0.432,0.055-0.647,0.165C47.316,6.357,47.108,6.52,46.856,6.764z"/>
		<path style="fill:#0066FF;" d="M54.742,10.194c-0.574,0.443-0.934,0.7-1.081,0.769c-0.22,0.102-0.454,0.153-0.702,0.153
			c-0.387,0-0.705-0.132-0.956-0.397c-0.25-0.265-0.375-0.612-0.375-1.043c0-0.273,0.062-0.509,0.184-0.708
			c0.167-0.277,0.457-0.537,0.87-0.781c0.413-0.244,1.1-0.542,2.06-0.892v-0.22c0-0.557-0.089-0.939-0.266-1.147
			c-0.177-0.207-0.435-0.311-0.772-0.311c-0.256,0-0.459,0.069-0.61,0.208c-0.154,0.138-0.231,0.297-0.231,0.476l0.012,0.354
			c0,0.187-0.048,0.332-0.143,0.434C52.635,7.189,52.51,7.24,52.355,7.24c-0.15,0-0.274-0.053-0.369-0.159
			c-0.096-0.106-0.144-0.25-0.144-0.433c0-0.35,0.179-0.672,0.537-0.965s0.86-0.439,1.508-0.439c0.496,0,0.903,0.083,1.221,0.25
			c0.24,0.126,0.417,0.324,0.531,0.592c0.073,0.175,0.11,0.533,0.11,1.074v1.898c0,0.533,0.01,0.86,0.03,0.979
			c0.021,0.12,0.054,0.201,0.101,0.241c0.046,0.041,0.101,0.061,0.162,0.061c0.065,0,0.122-0.014,0.171-0.043
			c0.085-0.053,0.25-0.201,0.494-0.445v0.342c-0.456,0.61-0.891,0.916-1.306,0.916c-0.2,0-0.358-0.069-0.477-0.208
			C54.807,10.764,54.746,10.528,54.742,10.194z M54.742,9.798v-2.13c-0.615,0.244-1.011,0.417-1.19,0.519
			C53.23,8.365,53,8.553,52.862,8.748c-0.139,0.195-0.208,0.409-0.208,0.641c0,0.293,0.088,0.536,0.263,0.729s0.376,0.29,0.604,0.29
			C53.831,10.408,54.237,10.205,54.742,9.798z"/>
		<path style="fill:#0066FF;" d="M58.683,5.244v1.258c0.468-0.838,0.948-1.258,1.44-1.258c0.224,0,0.409,0.068,0.556,0.205
			c0.146,0.137,0.22,0.294,0.22,0.473c0,0.159-0.053,0.293-0.159,0.403c-0.105,0.11-0.231,0.165-0.378,0.165
			c-0.143,0-0.302-0.07-0.479-0.21c-0.177-0.14-0.308-0.21-0.394-0.21c-0.073,0-0.152,0.041-0.238,0.122
			c-0.183,0.167-0.372,0.441-0.567,0.824v2.679c0,0.309,0.039,0.543,0.116,0.702c0.053,0.11,0.146,0.202,0.28,0.275
			c0.135,0.073,0.328,0.11,0.58,0.11V11h-2.862v-0.22c0.285,0,0.496-0.045,0.635-0.134c0.102-0.065,0.173-0.169,0.213-0.311
			c0.021-0.069,0.031-0.267,0.031-0.592V7.576c0-0.651-0.014-1.039-0.04-1.163c-0.026-0.124-0.075-0.214-0.146-0.271
			s-0.16-0.085-0.266-0.085c-0.126,0-0.269,0.031-0.427,0.091l-0.062-0.22l1.691-0.684H58.683z"/>
		<path style="fill:#0066FF;" d="M62.79,6.429c0.655-0.79,1.279-1.185,1.874-1.185c0.305,0,0.567,0.077,0.787,0.229
			c0.22,0.153,0.395,0.404,0.524,0.754c0.09,0.244,0.135,0.619,0.135,1.123v2.386c0,0.354,0.028,0.594,0.085,0.721
			c0.045,0.102,0.117,0.181,0.217,0.238s0.284,0.085,0.553,0.085V11h-2.766v-0.22h0.116c0.261,0,0.442-0.04,0.547-0.119
			c0.104-0.079,0.176-0.196,0.216-0.351c0.017-0.062,0.025-0.252,0.025-0.574V7.448c0-0.509-0.066-0.878-0.199-1.108
			c-0.132-0.229-0.354-0.345-0.668-0.345c-0.484,0-0.966,0.265-1.446,0.793v2.948c0,0.379,0.022,0.613,0.067,0.702
			c0.057,0.118,0.135,0.205,0.235,0.259c0.1,0.055,0.302,0.083,0.607,0.083V11h-2.765v-0.22h0.122c0.285,0,0.477-0.072,0.577-0.217
			c0.1-0.144,0.149-0.42,0.149-0.827V7.661c0-0.671-0.015-1.08-0.046-1.227c-0.03-0.146-0.077-0.246-0.14-0.299
			c-0.063-0.053-0.147-0.08-0.253-0.08c-0.114,0-0.25,0.031-0.409,0.091l-0.092-0.22l1.685-0.684h0.263V6.429z"/>
		<path style="fill:#0066FF;" d="M72.464,5.244v4.492c0,0.35,0.025,0.583,0.076,0.699c0.051,0.116,0.126,0.202,0.226,0.259
			s0.282,0.085,0.547,0.085V11h-2.717v-0.22c0.273,0,0.456-0.026,0.55-0.079c0.094-0.053,0.168-0.141,0.223-0.263
			s0.083-0.356,0.083-0.702V7.582c0-0.606-0.019-0.999-0.056-1.178c-0.028-0.13-0.073-0.221-0.134-0.272
			c-0.062-0.051-0.145-0.076-0.25-0.076c-0.114,0-0.253,0.031-0.416,0.091l-0.085-0.22l1.685-0.684H72.464z M71.957,2.321
			c0.171,0,0.316,0.06,0.437,0.18s0.181,0.266,0.181,0.437s-0.061,0.317-0.181,0.439S72.128,3.56,71.957,3.56
			s-0.317-0.061-0.439-0.183s-0.183-0.269-0.183-0.439s0.06-0.316,0.18-0.437S71.782,2.321,71.957,2.321z"/>
		<path style="fill:#0066FF;" d="M82.512,2.534v2.863h-0.226c-0.074-0.549-0.205-0.987-0.395-1.312
			c-0.188-0.326-0.458-0.584-0.809-0.775c-0.35-0.191-0.712-0.287-1.086-0.287c-0.424,0-0.773,0.129-1.05,0.388
			c-0.277,0.259-0.415,0.553-0.415,0.882c0,0.252,0.087,0.482,0.262,0.69c0.253,0.305,0.853,0.712,1.801,1.221
			c0.773,0.415,1.301,0.733,1.584,0.955c0.283,0.222,0.501,0.483,0.653,0.785c0.152,0.301,0.229,0.616,0.229,0.946
			c0,0.626-0.243,1.167-0.729,1.621s-1.111,0.681-1.877,0.681c-0.239,0-0.466-0.019-0.677-0.055
			c-0.126-0.021-0.388-0.095-0.784-0.223c-0.397-0.128-0.648-0.192-0.754-0.192c-0.102,0-0.183,0.031-0.241,0.091
			c-0.06,0.062-0.103,0.188-0.132,0.379h-0.226V8.351h0.226c0.106,0.594,0.249,1.039,0.428,1.333
			c0.179,0.295,0.452,0.54,0.821,0.735c0.368,0.195,0.771,0.293,1.211,0.293c0.509,0,0.91-0.134,1.206-0.402
			c0.295-0.269,0.442-0.586,0.442-0.952c0-0.204-0.057-0.409-0.168-0.617c-0.112-0.208-0.286-0.401-0.522-0.58
			c-0.158-0.122-0.592-0.382-1.3-0.778c-0.708-0.397-1.211-0.713-1.511-0.949c-0.299-0.236-0.525-0.497-0.68-0.781
			c-0.155-0.285-0.232-0.598-0.232-0.94c0-0.594,0.228-1.105,0.684-1.535c0.456-0.429,1.035-0.644,1.739-0.644
			c0.439,0,0.905,0.108,1.397,0.324c0.229,0.102,0.389,0.153,0.482,0.153c0.106,0,0.192-0.032,0.26-0.095s0.121-0.19,0.162-0.382
			H82.512z"/>
		<path style="fill:#0066FF;" d="M83.91,5.409h2.631v0.226H86.37c-0.159,0-0.28,0.039-0.363,0.116s-0.125,0.181-0.125,0.312
			c0,0.142,0.043,0.311,0.128,0.506l1.301,3.088l1.306-3.204c0.094-0.228,0.141-0.401,0.141-0.519c0-0.057-0.017-0.104-0.049-0.14
			c-0.045-0.062-0.102-0.103-0.171-0.125c-0.069-0.022-0.21-0.034-0.422-0.034V5.409h1.825v0.226
			c-0.211,0.017-0.357,0.059-0.439,0.128c-0.143,0.122-0.271,0.326-0.384,0.61l-1.984,4.797h-0.25l-1.996-4.718
			c-0.089-0.22-0.175-0.377-0.256-0.473c-0.082-0.096-0.186-0.176-0.312-0.241c-0.069-0.037-0.205-0.071-0.409-0.104V5.409z"/>
		<path style="fill:#0066FF;" d="M91.199,7.515c-0.004,0.83,0.198,1.481,0.604,1.953c0.407,0.472,0.886,0.708,1.435,0.708
			c0.366,0,0.685-0.101,0.955-0.302c0.271-0.202,0.498-0.546,0.681-1.035l0.189,0.122c-0.086,0.558-0.334,1.065-0.745,1.523
			c-0.411,0.458-0.926,0.687-1.544,0.687c-0.671,0-1.246-0.261-1.725-0.784c-0.478-0.523-0.717-1.226-0.717-2.109
			c0-0.956,0.245-1.702,0.735-2.237s1.105-0.803,1.847-0.803c0.626,0,1.142,0.207,1.544,0.62s0.604,0.965,0.604,1.657H91.199z
			 M91.199,7.161h2.588c-0.02-0.358-0.062-0.61-0.128-0.757c-0.102-0.228-0.253-0.407-0.454-0.537
			c-0.202-0.13-0.412-0.195-0.632-0.195c-0.338,0-0.641,0.131-0.906,0.394C91.4,6.328,91.244,6.693,91.199,7.161z"/>
		<path style="fill:#0066FF;" d="M97.369,5.244v1.258c0.468-0.838,0.948-1.258,1.44-1.258c0.224,0,0.409,0.068,0.556,0.205
			c0.146,0.137,0.22,0.294,0.22,0.473c0,0.159-0.053,0.293-0.159,0.403c-0.105,0.11-0.231,0.165-0.378,0.165
			c-0.143,0-0.303-0.07-0.479-0.21c-0.177-0.14-0.308-0.21-0.394-0.21c-0.073,0-0.152,0.041-0.238,0.122
			c-0.183,0.167-0.372,0.441-0.567,0.824v2.679c0,0.309,0.039,0.543,0.116,0.702c0.053,0.11,0.146,0.202,0.28,0.275
			c0.135,0.073,0.328,0.11,0.58,0.11V11h-2.862v-0.22c0.284,0,0.496-0.045,0.635-0.134c0.102-0.065,0.173-0.169,0.213-0.311
			c0.021-0.069,0.031-0.267,0.031-0.592V7.576c0-0.651-0.014-1.039-0.04-1.163c-0.026-0.124-0.075-0.214-0.146-0.271
			s-0.159-0.085-0.266-0.085c-0.126,0-0.269,0.031-0.427,0.091l-0.062-0.22l1.69-0.684H97.369z"/>
		<path style="fill:#0066FF;" d="M101.774,5.244v4.492c0,0.35,0.025,0.583,0.076,0.699c0.051,0.116,0.126,0.202,0.226,0.259
			s0.282,0.085,0.547,0.085V11h-2.717v-0.22c0.273,0,0.456-0.026,0.55-0.079c0.094-0.053,0.168-0.141,0.223-0.263
			s0.083-0.356,0.083-0.702V7.582c0-0.606-0.019-0.999-0.056-1.178c-0.028-0.13-0.073-0.221-0.134-0.272
			c-0.062-0.051-0.145-0.076-0.25-0.076c-0.114,0-0.253,0.031-0.416,0.091l-0.085-0.22l1.685-0.684H101.774z M101.268,2.321
			c0.171,0,0.316,0.06,0.437,0.18s0.181,0.266,0.181,0.437s-0.061,0.317-0.181,0.439s-0.266,0.183-0.437,0.183
			s-0.317-0.061-0.439-0.183s-0.183-0.269-0.183-0.439s0.06-0.316,0.18-0.437S101.093,2.321,101.268,2.321z"/>
		<path style="fill:#0066FF;" d="M104.851,8.961c-0.342-0.167-0.604-0.4-0.787-0.699c-0.183-0.299-0.274-0.63-0.274-0.992
			c0-0.553,0.208-1.029,0.625-1.428c0.417-0.399,0.951-0.599,1.603-0.599c0.533,0,0.995,0.13,1.386,0.391h1.184
			c0.175,0,0.277,0.005,0.306,0.016s0.049,0.027,0.061,0.052c0.024,0.037,0.037,0.102,0.037,0.195c0,0.106-0.011,0.179-0.03,0.22
			c-0.013,0.021-0.034,0.037-0.064,0.049s-0.134,0.019-0.309,0.019h-0.727c0.229,0.293,0.342,0.667,0.342,1.123
			c0,0.521-0.199,0.966-0.598,1.336s-0.934,0.555-1.605,0.555c-0.276,0-0.56-0.041-0.848-0.122c-0.18,0.155-0.301,0.29-0.363,0.406
			c-0.063,0.116-0.095,0.214-0.095,0.296c0,0.069,0.033,0.136,0.101,0.201c0.067,0.065,0.198,0.112,0.394,0.141
			c0.114,0.016,0.398,0.03,0.854,0.043c0.838,0.02,1.382,0.049,1.63,0.085c0.378,0.053,0.681,0.193,0.906,0.421
			s0.339,0.509,0.339,0.842c0,0.46-0.216,0.891-0.647,1.294c-0.635,0.594-1.463,0.891-2.483,0.891c-0.786,0-1.449-0.177-1.99-0.531
			c-0.305-0.204-0.458-0.415-0.458-0.635c0-0.098,0.022-0.195,0.067-0.293c0.069-0.151,0.212-0.36,0.428-0.629
			c0.028-0.037,0.235-0.256,0.622-0.659c-0.212-0.126-0.361-0.239-0.448-0.339c-0.088-0.1-0.132-0.212-0.132-0.339
			c0-0.142,0.059-0.309,0.174-0.5C104.164,9.582,104.432,9.312,104.851,8.961z M104.79,11c-0.191,0.208-0.336,0.401-0.434,0.58
			c-0.098,0.179-0.146,0.344-0.146,0.494c0,0.195,0.118,0.366,0.354,0.513c0.406,0.252,0.994,0.378,1.764,0.378
			c0.732,0,1.272-0.129,1.62-0.388s0.522-0.534,0.522-0.827c0-0.212-0.104-0.362-0.312-0.452c-0.212-0.089-0.631-0.142-1.258-0.158
			C105.986,11.116,105.282,11.069,104.79,11z M105.913,5.537c-0.302,0-0.554,0.12-0.757,0.36c-0.204,0.24-0.306,0.608-0.306,1.104
			c0,0.643,0.139,1.142,0.415,1.496c0.212,0.269,0.48,0.403,0.806,0.403c0.31,0,0.563-0.116,0.763-0.348
			c0.2-0.232,0.3-0.596,0.3-1.093c0-0.647-0.141-1.153-0.421-1.52C106.505,5.672,106.238,5.537,105.913,5.537z"/>
		<path style="fill:#0066FF;" d="M110.545,7.515c-0.004,0.83,0.198,1.481,0.604,1.953c0.407,0.472,0.886,0.708,1.435,0.708
			c0.366,0,0.685-0.101,0.955-0.302c0.271-0.202,0.498-0.546,0.681-1.035l0.189,0.122c-0.086,0.558-0.334,1.065-0.745,1.523
			c-0.411,0.458-0.926,0.687-1.544,0.687c-0.671,0-1.246-0.261-1.725-0.784c-0.478-0.523-0.717-1.226-0.717-2.109
			c0-0.956,0.245-1.702,0.735-2.237s1.105-0.803,1.847-0.803c0.626,0,1.142,0.207,1.544,0.62s0.604,0.965,0.604,1.657H110.545z
			 M110.545,7.161h2.588c-0.02-0.358-0.062-0.61-0.128-0.757c-0.102-0.228-0.253-0.407-0.454-0.537
			c-0.202-0.13-0.412-0.195-0.632-0.195c-0.338,0-0.641,0.131-0.906,0.394C110.746,6.328,110.59,6.693,110.545,7.161z"/>
	</g>
	<g>
		<path style="fill:#0066FF;" d="M29.975,28.944c-0.574,0.443-0.934,0.7-1.081,0.769c-0.22,0.102-0.454,0.153-0.702,0.153
			c-0.387,0-0.705-0.132-0.956-0.397c-0.25-0.265-0.375-0.612-0.375-1.043c0-0.273,0.062-0.509,0.184-0.708
			c0.167-0.277,0.457-0.537,0.87-0.781c0.413-0.244,1.1-0.542,2.06-0.892v-0.22c0-0.557-0.089-0.939-0.266-1.147
			c-0.177-0.207-0.435-0.311-0.772-0.311c-0.256,0-0.459,0.069-0.61,0.208c-0.154,0.138-0.231,0.297-0.231,0.476l0.012,0.354
			c0,0.187-0.048,0.332-0.143,0.434c-0.096,0.102-0.221,0.152-0.375,0.152c-0.15,0-0.274-0.053-0.369-0.159
			c-0.096-0.106-0.144-0.25-0.144-0.433c0-0.35,0.179-0.672,0.537-0.965s0.86-0.439,1.508-0.439c0.496,0,0.903,0.083,1.221,0.25
			c0.24,0.126,0.417,0.324,0.531,0.592c0.073,0.175,0.11,0.533,0.11,1.074v1.898c0,0.533,0.01,0.86,0.03,0.979
			c0.021,0.12,0.054,0.201,0.101,0.241c0.046,0.041,0.101,0.061,0.162,0.061c0.065,0,0.122-0.014,0.171-0.043
			c0.085-0.053,0.25-0.201,0.494-0.445v0.342c-0.456,0.61-0.891,0.916-1.306,0.916c-0.2,0-0.358-0.069-0.477-0.208
			C30.04,29.514,29.979,29.278,29.975,28.944z M29.975,28.548v-2.13c-0.615,0.244-1.011,0.417-1.19,0.519
			c-0.321,0.179-0.551,0.366-0.689,0.562c-0.139,0.195-0.208,0.409-0.208,0.641c0,0.293,0.088,0.536,0.263,0.729
			s0.376,0.29,0.604,0.29C29.063,29.158,29.47,28.955,29.975,28.548z"/>
		<path style="fill:#0066FF;" d="M33.91,25.179c0.655-0.79,1.279-1.185,1.874-1.185c0.305,0,0.568,0.077,0.788,0.229
			c0.22,0.153,0.395,0.404,0.524,0.754c0.09,0.244,0.135,0.619,0.135,1.123v2.386c0,0.354,0.028,0.594,0.085,0.721
			c0.045,0.102,0.117,0.181,0.217,0.238s0.284,0.085,0.553,0.085v0.22h-2.765v-0.22h0.116c0.261,0,0.443-0.04,0.546-0.119
			c0.104-0.079,0.176-0.196,0.217-0.351c0.016-0.062,0.024-0.252,0.024-0.574v-2.289c0-0.509-0.066-0.878-0.198-1.108
			c-0.132-0.229-0.355-0.345-0.668-0.345c-0.484,0-0.966,0.265-1.446,0.793v2.948c0,0.379,0.022,0.613,0.067,0.702
			c0.057,0.118,0.135,0.205,0.235,0.259c0.1,0.055,0.302,0.083,0.607,0.083v0.22h-2.765v-0.22h0.122
			c0.285,0,0.477-0.072,0.577-0.217c0.1-0.144,0.149-0.42,0.149-0.827v-2.075c0-0.671-0.015-1.08-0.046-1.227
			c-0.03-0.146-0.077-0.246-0.14-0.299c-0.063-0.053-0.147-0.08-0.253-0.08c-0.114,0-0.25,0.031-0.409,0.091l-0.092-0.22
			l1.685-0.684h0.263V25.179z"/>
		<path style="fill:#0066FF;" d="M40.153,22.322v1.837h1.306v0.427h-1.306v3.625c0,0.362,0.052,0.606,0.156,0.732
			c0.104,0.126,0.237,0.189,0.399,0.189c0.135,0,0.265-0.042,0.391-0.125c0.126-0.083,0.224-0.207,0.293-0.369h0.238
			c-0.143,0.399-0.344,0.699-0.604,0.9c-0.26,0.201-0.529,0.302-0.806,0.302c-0.187,0-0.37-0.052-0.549-0.156
			c-0.179-0.104-0.312-0.252-0.397-0.446c-0.085-0.193-0.128-0.491-0.128-0.894v-3.76h-0.885v-0.202
			c0.224-0.089,0.453-0.241,0.687-0.455c0.234-0.213,0.442-0.467,0.626-0.76c0.093-0.155,0.224-0.438,0.391-0.848H40.153z"/>
		<path style="fill:#0066FF;" d="M45.208,28.944c-0.574,0.443-0.934,0.7-1.081,0.769c-0.22,0.102-0.454,0.153-0.702,0.153
			c-0.387,0-0.705-0.132-0.956-0.397c-0.25-0.265-0.375-0.612-0.375-1.043c0-0.273,0.062-0.509,0.184-0.708
			c0.167-0.277,0.457-0.537,0.87-0.781c0.413-0.244,1.1-0.542,2.06-0.892v-0.22c0-0.557-0.089-0.939-0.266-1.147
			c-0.177-0.207-0.435-0.311-0.772-0.311c-0.256,0-0.459,0.069-0.61,0.208c-0.154,0.138-0.231,0.297-0.231,0.476l0.012,0.354
			c0,0.187-0.048,0.332-0.143,0.434c-0.096,0.102-0.221,0.152-0.375,0.152c-0.15,0-0.274-0.053-0.369-0.159
			c-0.096-0.106-0.144-0.25-0.144-0.433c0-0.35,0.179-0.672,0.537-0.965s0.86-0.439,1.508-0.439c0.496,0,0.903,0.083,1.221,0.25
			c0.24,0.126,0.417,0.324,0.531,0.592c0.073,0.175,0.11,0.533,0.11,1.074v1.898c0,0.533,0.01,0.86,0.03,0.979
			c0.021,0.12,0.054,0.201,0.101,0.241c0.046,0.041,0.101,0.061,0.162,0.061c0.065,0,0.122-0.014,0.171-0.043
			c0.085-0.053,0.25-0.201,0.494-0.445v0.342c-0.456,0.61-0.891,0.916-1.306,0.916c-0.2,0-0.358-0.069-0.477-0.208
			C45.273,29.514,45.212,29.278,45.208,28.944z M45.208,28.548v-2.13c-0.615,0.244-1.011,0.417-1.19,0.519
			c-0.321,0.179-0.551,0.366-0.689,0.562c-0.139,0.195-0.208,0.409-0.208,0.641c0,0.293,0.088,0.536,0.263,0.729
			s0.376,0.29,0.604,0.29C44.296,29.158,44.703,28.955,45.208,28.548z"/>
		<path style="fill:#0066FF;" d="M49.436,21.071v7.416c0,0.35,0.025,0.582,0.076,0.696c0.051,0.114,0.129,0.2,0.235,0.259
			s0.303,0.088,0.592,0.088v0.22h-2.741v-0.22c0.256,0,0.431-0.026,0.525-0.079c0.094-0.053,0.167-0.141,0.22-0.263
			s0.079-0.356,0.079-0.702v-5.078c0-0.63-0.014-1.018-0.042-1.163c-0.028-0.144-0.074-0.243-0.137-0.296
			c-0.063-0.053-0.144-0.08-0.241-0.08c-0.106,0-0.24,0.033-0.403,0.098l-0.104-0.213l1.667-0.684H49.436z"/>
		<path style="fill:#0066FF;" d="M51.776,26.265c-0.004,0.83,0.197,1.481,0.604,1.953c0.407,0.472,0.885,0.708,1.435,0.708
			c0.366,0,0.685-0.101,0.955-0.302c0.271-0.202,0.498-0.546,0.681-1.035l0.189,0.122c-0.086,0.558-0.334,1.065-0.745,1.523
			c-0.411,0.458-0.925,0.687-1.544,0.687c-0.671,0-1.246-0.261-1.724-0.784c-0.479-0.523-0.717-1.226-0.717-2.109
			c0-0.956,0.245-1.702,0.735-2.237s1.106-0.803,1.847-0.803c0.626,0,1.141,0.207,1.544,0.62s0.604,0.965,0.604,1.657H51.776z
			 M51.776,25.911h2.588c-0.021-0.358-0.063-0.61-0.128-0.757c-0.102-0.228-0.253-0.407-0.455-0.537
			c-0.201-0.13-0.412-0.195-0.631-0.195c-0.338,0-0.64,0.131-0.907,0.394C51.976,25.078,51.821,25.443,51.776,25.911z"/>
		<path style="fill:#0066FF;" d="M57.933,22.322v1.837h1.306v0.427h-1.306v3.625c0,0.362,0.052,0.606,0.156,0.732
			c0.104,0.126,0.237,0.189,0.399,0.189c0.135,0,0.265-0.042,0.391-0.125c0.126-0.083,0.224-0.207,0.293-0.369h0.238
			c-0.143,0.399-0.344,0.699-0.604,0.9c-0.26,0.201-0.529,0.302-0.806,0.302c-0.187,0-0.37-0.052-0.549-0.156
			c-0.179-0.104-0.312-0.252-0.397-0.446c-0.085-0.193-0.128-0.491-0.128-0.894v-3.76h-0.885v-0.202
			c0.224-0.089,0.453-0.241,0.687-0.455c0.234-0.213,0.442-0.467,0.626-0.76c0.093-0.155,0.224-0.438,0.391-0.848H57.933z"/>
		<path style="fill:#0066FF;" d="M64.478,25.124c0.541-0.753,1.125-1.129,1.75-1.129c0.574,0,1.074,0.246,1.502,0.736
			s0.641,1.161,0.641,2.011c0,0.993-0.328,1.792-0.988,2.398c-0.564,0.521-1.195,0.781-1.893,0.781c-0.324,0-0.656-0.059-0.99-0.177
			c-0.336-0.118-0.68-0.295-1.029-0.531v-5.792c0-0.635-0.015-1.025-0.046-1.172c-0.03-0.146-0.078-0.247-0.143-0.299
			c-0.065-0.053-0.146-0.08-0.244-0.08c-0.114,0-0.257,0.033-0.428,0.098l-0.085-0.213l1.678-0.684h0.275V25.124z M64.478,25.514
			v3.345c0.207,0.204,0.422,0.357,0.643,0.461c0.223,0.104,0.449,0.156,0.682,0.156c0.369,0,0.715-0.204,1.033-0.61
			c0.32-0.407,0.48-0.999,0.48-1.776c0-0.716-0.16-1.267-0.48-1.651c-0.318-0.385-0.682-0.577-1.088-0.577
			c-0.217,0-0.432,0.055-0.648,0.165C64.937,25.107,64.729,25.27,64.478,25.514z"/>
		<path style="fill:#0066FF;" d="M72.362,28.944c-0.574,0.443-0.934,0.7-1.08,0.769c-0.221,0.102-0.454,0.153-0.702,0.153
			c-0.387,0-0.705-0.132-0.955-0.397c-0.251-0.265-0.376-0.612-0.376-1.043c0-0.273,0.062-0.509,0.184-0.708
			c0.167-0.277,0.456-0.537,0.869-0.781s1.1-0.542,2.061-0.892v-0.22c0-0.557-0.089-0.939-0.266-1.147
			c-0.177-0.207-0.435-0.311-0.772-0.311c-0.256,0-0.46,0.069-0.61,0.208c-0.154,0.138-0.231,0.297-0.231,0.476l0.012,0.354
			c0,0.187-0.048,0.332-0.144,0.434c-0.096,0.102-0.221,0.152-0.375,0.152c-0.15,0-0.273-0.053-0.369-0.159s-0.144-0.25-0.144-0.433
			c0-0.35,0.179-0.672,0.537-0.965s0.86-0.439,1.508-0.439c0.496,0,0.903,0.083,1.221,0.25c0.24,0.126,0.417,0.324,0.53,0.592
			c0.074,0.175,0.11,0.533,0.11,1.074v1.898c0,0.533,0.01,0.86,0.03,0.979c0.021,0.12,0.054,0.201,0.101,0.241
			s0.101,0.061,0.162,0.061c0.065,0,0.122-0.014,0.171-0.043c0.086-0.053,0.25-0.201,0.494-0.445v0.342
			c-0.455,0.61-0.891,0.916-1.306,0.916c-0.199,0-0.358-0.069-0.477-0.208S72.366,29.278,72.362,28.944z M72.362,28.548v-2.13
			c-0.614,0.244-1.012,0.417-1.19,0.519c-0.321,0.179-0.552,0.366-0.689,0.562c-0.139,0.195-0.208,0.409-0.208,0.641
			c0,0.293,0.088,0.536,0.263,0.729s0.376,0.29,0.604,0.29C71.45,29.158,71.857,28.955,72.362,28.548z"/>
		<path style="fill:#0066FF;" d="M76.304,23.994v1.258c0.468-0.838,0.948-1.258,1.44-1.258c0.224,0,0.409,0.068,0.556,0.205
			c0.146,0.137,0.22,0.294,0.22,0.473c0,0.159-0.053,0.293-0.159,0.403c-0.105,0.11-0.231,0.165-0.378,0.165
			c-0.143,0-0.303-0.07-0.479-0.21c-0.177-0.14-0.308-0.21-0.394-0.21c-0.073,0-0.152,0.041-0.238,0.122
			c-0.183,0.167-0.372,0.441-0.567,0.824v2.679c0,0.309,0.039,0.543,0.116,0.702c0.053,0.11,0.146,0.202,0.28,0.275
			c0.135,0.073,0.328,0.11,0.58,0.11v0.22h-2.862v-0.22c0.284,0,0.496-0.045,0.635-0.134c0.102-0.065,0.173-0.169,0.213-0.311
			c0.021-0.069,0.031-0.267,0.031-0.592v-2.167c0-0.651-0.014-1.039-0.04-1.163c-0.026-0.124-0.075-0.214-0.146-0.271
			s-0.159-0.085-0.266-0.085c-0.126,0-0.269,0.031-0.427,0.091l-0.062-0.22l1.69-0.684H76.304z"/>
		<path style="fill:#0066FF;" d="M80.41,25.179c0.655-0.79,1.279-1.185,1.874-1.185c0.305,0,0.567,0.077,0.787,0.229
			c0.22,0.153,0.395,0.404,0.524,0.754c0.09,0.244,0.135,0.619,0.135,1.123v2.386c0,0.354,0.028,0.594,0.085,0.721
			c0.045,0.102,0.117,0.181,0.217,0.238s0.284,0.085,0.553,0.085v0.22h-2.766v-0.22h0.116c0.261,0,0.442-0.04,0.547-0.119
			c0.104-0.079,0.176-0.196,0.216-0.351c0.017-0.062,0.025-0.252,0.025-0.574v-2.289c0-0.509-0.066-0.878-0.199-1.108
			c-0.132-0.229-0.354-0.345-0.668-0.345c-0.484,0-0.967,0.265-1.446,0.793v2.948c0,0.379,0.022,0.613,0.067,0.702
			c0.057,0.118,0.135,0.205,0.234,0.259c0.1,0.055,0.303,0.083,0.607,0.083v0.22h-2.765v-0.22h0.122
			c0.284,0,0.477-0.072,0.576-0.217c0.1-0.144,0.15-0.42,0.15-0.827v-2.075c0-0.671-0.016-1.08-0.046-1.227
			c-0.031-0.146-0.078-0.246-0.141-0.299c-0.063-0.053-0.147-0.08-0.253-0.08c-0.114,0-0.251,0.031-0.409,0.091l-0.092-0.22
			l1.685-0.684h0.263V25.179z"/>
	</g>
	<g>
		<path style="fill:#0066FF;" d="M14.74,46.737c-0.574,0.443-0.934,0.7-1.081,0.769c-0.22,0.103-0.454,0.153-0.702,0.153
			c-0.387,0-0.705-0.133-0.956-0.397c-0.25-0.264-0.375-0.612-0.375-1.043c0-0.272,0.062-0.509,0.184-0.708
			c0.167-0.277,0.457-0.537,0.87-0.781c0.413-0.244,1.1-0.541,2.06-0.892v-0.22c0-0.557-0.089-0.939-0.266-1.147
			c-0.177-0.207-0.435-0.311-0.772-0.311c-0.256,0-0.459,0.069-0.61,0.208c-0.154,0.138-0.231,0.297-0.231,0.476l0.012,0.354
			c0,0.187-0.048,0.331-0.143,0.434c-0.096,0.102-0.221,0.152-0.375,0.152c-0.15,0-0.274-0.053-0.369-0.158
			c-0.096-0.106-0.144-0.251-0.144-0.434c0-0.35,0.179-0.672,0.537-0.965s0.86-0.439,1.508-0.439c0.496,0,0.903,0.083,1.221,0.25
			c0.24,0.126,0.417,0.324,0.531,0.592c0.073,0.175,0.11,0.533,0.11,1.074v1.897c0,0.533,0.01,0.86,0.03,0.98
			c0.021,0.12,0.054,0.2,0.101,0.24c0.046,0.041,0.101,0.062,0.162,0.062c0.065,0,0.122-0.015,0.171-0.043
			c0.085-0.053,0.25-0.201,0.494-0.445v0.342c-0.456,0.61-0.891,0.915-1.306,0.915c-0.2,0-0.358-0.068-0.477-0.207
			C14.805,47.307,14.744,47.071,14.74,46.737z M14.74,46.341v-2.13c-0.615,0.244-1.011,0.417-1.19,0.519
			c-0.321,0.179-0.551,0.366-0.689,0.562c-0.139,0.195-0.208,0.408-0.208,0.641c0,0.293,0.088,0.536,0.263,0.729
			s0.376,0.29,0.604,0.29C13.829,46.951,14.235,46.747,14.74,46.341z"/>
		<path style="fill:#0066FF;" d="M18.675,42.972c0.655-0.79,1.279-1.185,1.874-1.185c0.305,0,0.568,0.077,0.788,0.229
			c0.22,0.153,0.395,0.404,0.524,0.754c0.09,0.244,0.135,0.619,0.135,1.123v2.387c0,0.354,0.028,0.595,0.085,0.721
			c0.045,0.102,0.117,0.181,0.217,0.238c0.1,0.057,0.284,0.085,0.553,0.085v0.22h-2.765v-0.22h0.116c0.261,0,0.443-0.04,0.546-0.119
			c0.104-0.079,0.176-0.196,0.217-0.351c0.016-0.062,0.024-0.253,0.024-0.574V43.99c0-0.508-0.066-0.877-0.198-1.107
			c-0.132-0.229-0.355-0.345-0.668-0.345c-0.484,0-0.966,0.265-1.446,0.793v2.948c0,0.379,0.022,0.612,0.067,0.702
			c0.057,0.118,0.135,0.204,0.235,0.26c0.1,0.055,0.302,0.082,0.607,0.082v0.22H16.82v-0.22h0.122c0.285,0,0.477-0.072,0.577-0.217
			c0.1-0.145,0.149-0.42,0.149-0.827v-2.075c0-0.671-0.015-1.08-0.046-1.227c-0.03-0.146-0.077-0.246-0.14-0.299
			c-0.063-0.053-0.147-0.08-0.253-0.08c-0.114,0-0.25,0.031-0.409,0.091l-0.092-0.22l1.685-0.684h0.263V42.972z"/>
		<path style="fill:#0066FF;" d="M24.919,40.115v1.837h1.306v0.427h-1.306v3.625c0,0.362,0.052,0.606,0.156,0.732
			c0.104,0.126,0.237,0.189,0.399,0.189c0.135,0,0.265-0.042,0.391-0.125c0.126-0.084,0.224-0.207,0.293-0.37h0.238
			c-0.143,0.399-0.344,0.699-0.604,0.9c-0.26,0.202-0.529,0.303-0.806,0.303c-0.187,0-0.37-0.052-0.549-0.156
			c-0.179-0.104-0.312-0.252-0.397-0.445s-0.128-0.491-0.128-0.895v-3.759h-0.885v-0.202c0.224-0.089,0.453-0.241,0.687-0.455
			c0.234-0.213,0.442-0.467,0.626-0.76c0.093-0.155,0.224-0.438,0.391-0.848H24.919z"/>
		<path style="fill:#0066FF;" d="M29.974,46.737c-0.574,0.443-0.934,0.7-1.081,0.769c-0.22,0.103-0.454,0.153-0.702,0.153
			c-0.387,0-0.705-0.133-0.956-0.397c-0.25-0.264-0.375-0.612-0.375-1.043c0-0.272,0.062-0.509,0.184-0.708
			c0.167-0.277,0.457-0.537,0.87-0.781c0.413-0.244,1.1-0.541,2.06-0.892v-0.22c0-0.557-0.089-0.939-0.266-1.147
			c-0.177-0.207-0.435-0.311-0.772-0.311c-0.256,0-0.459,0.069-0.61,0.208c-0.154,0.138-0.231,0.297-0.231,0.476l0.012,0.354
			c0,0.187-0.048,0.331-0.143,0.434c-0.096,0.102-0.221,0.152-0.375,0.152c-0.15,0-0.274-0.053-0.369-0.158
			c-0.096-0.106-0.144-0.251-0.144-0.434c0-0.35,0.179-0.672,0.537-0.965s0.86-0.439,1.508-0.439c0.496,0,0.903,0.083,1.221,0.25
			c0.24,0.126,0.417,0.324,0.531,0.592c0.073,0.175,0.11,0.533,0.11,1.074v1.897c0,0.533,0.01,0.86,0.03,0.98
			c0.021,0.12,0.054,0.2,0.101,0.24c0.046,0.041,0.101,0.062,0.162,0.062c0.065,0,0.122-0.015,0.171-0.043
			c0.085-0.053,0.25-0.201,0.494-0.445v0.342c-0.456,0.61-0.891,0.915-1.306,0.915c-0.2,0-0.358-0.068-0.477-0.207
			C30.039,47.307,29.978,47.071,29.974,46.737z M29.974,46.341v-2.13c-0.615,0.244-1.011,0.417-1.19,0.519
			c-0.321,0.179-0.551,0.366-0.689,0.562c-0.139,0.195-0.208,0.408-0.208,0.641c0,0.293,0.088,0.536,0.263,0.729
			s0.376,0.29,0.604,0.29C29.062,46.951,29.469,46.747,29.974,46.341z"/>
		<path style="fill:#0066FF;" d="M34.202,38.864v7.416c0,0.351,0.025,0.582,0.076,0.696c0.051,0.113,0.129,0.2,0.235,0.259
			c0.106,0.06,0.303,0.089,0.592,0.089v0.22h-2.741v-0.22c0.256,0,0.431-0.026,0.525-0.079s0.167-0.141,0.22-0.263
			s0.079-0.356,0.079-0.702v-5.078c0-0.63-0.014-1.018-0.042-1.163c-0.028-0.144-0.074-0.243-0.137-0.296
			c-0.063-0.053-0.144-0.08-0.241-0.08c-0.106,0-0.24,0.033-0.403,0.098l-0.104-0.213l1.667-0.684H34.202z"/>
		<path style="fill:#0066FF;" d="M36.542,44.058c-0.004,0.83,0.197,1.481,0.604,1.953c0.407,0.473,0.885,0.708,1.435,0.708
			c0.366,0,0.685-0.101,0.955-0.302s0.498-0.546,0.681-1.034l0.189,0.121c-0.086,0.558-0.334,1.065-0.745,1.523
			c-0.411,0.458-0.925,0.687-1.544,0.687c-0.671,0-1.246-0.262-1.724-0.784c-0.479-0.522-0.717-1.226-0.717-2.109
			c0-0.956,0.245-1.701,0.735-2.236s1.106-0.803,1.847-0.803c0.626,0,1.141,0.207,1.544,0.62s0.604,0.965,0.604,1.657H36.542z
			 M36.542,43.704h2.588c-0.021-0.358-0.063-0.61-0.128-0.757c-0.102-0.228-0.253-0.407-0.455-0.537
			c-0.201-0.13-0.412-0.195-0.631-0.195c-0.338,0-0.64,0.131-0.907,0.394C36.742,42.871,36.586,43.236,36.542,43.704z"/>
		<path style="fill:#0066FF;" d="M42.698,40.115v1.837h1.306v0.427h-1.306v3.625c0,0.362,0.052,0.606,0.156,0.732
			c0.104,0.126,0.237,0.189,0.399,0.189c0.135,0,0.265-0.042,0.391-0.125c0.126-0.084,0.224-0.207,0.293-0.37h0.238
			c-0.143,0.399-0.344,0.699-0.604,0.9c-0.26,0.202-0.529,0.303-0.806,0.303c-0.187,0-0.37-0.052-0.549-0.156
			c-0.179-0.104-0.312-0.252-0.397-0.445s-0.128-0.491-0.128-0.895v-3.759h-0.885v-0.202c0.224-0.089,0.453-0.241,0.687-0.455
			c0.234-0.213,0.442-0.467,0.626-0.76c0.093-0.155,0.224-0.438,0.391-0.848H42.698z"/>
		<path style="fill:#0066FF;" d="M49.371,42.978c0.407-0.407,0.647-0.641,0.72-0.702c0.183-0.154,0.38-0.274,0.592-0.36
			c0.211-0.085,0.421-0.128,0.628-0.128c0.35,0,0.651,0.102,0.903,0.306c0.252,0.203,0.421,0.498,0.506,0.885
			c0.419-0.488,0.773-0.809,1.062-0.961c0.289-0.152,0.586-0.229,0.891-0.229c0.297,0,0.561,0.077,0.791,0.229
			c0.23,0.153,0.412,0.402,0.546,0.748c0.089,0.236,0.134,0.606,0.134,1.111v2.404c0,0.351,0.026,0.59,0.08,0.721
			c0.041,0.089,0.116,0.166,0.226,0.229c0.11,0.063,0.289,0.095,0.537,0.095v0.22h-2.759v-0.22h0.116
			c0.24,0,0.427-0.047,0.562-0.141c0.093-0.064,0.161-0.169,0.201-0.312c0.016-0.068,0.024-0.266,0.024-0.592v-2.404
			c0-0.456-0.055-0.777-0.165-0.965c-0.158-0.26-0.413-0.391-0.763-0.391c-0.216,0-0.433,0.054-0.65,0.162
			c-0.218,0.108-0.481,0.308-0.791,0.601l-0.012,0.067l0.012,0.263v2.667c0,0.383,0.021,0.621,0.064,0.715
			c0.043,0.093,0.123,0.172,0.241,0.234c0.118,0.063,0.319,0.095,0.604,0.095v0.22h-2.826v-0.22c0.309,0,0.522-0.036,0.638-0.11
			c0.116-0.072,0.196-0.183,0.241-0.329c0.021-0.069,0.031-0.271,0.031-0.604v-2.404c0-0.456-0.067-0.784-0.202-0.983
			c-0.179-0.26-0.429-0.391-0.75-0.391c-0.22,0-0.438,0.059-0.653,0.177c-0.338,0.179-0.598,0.38-0.781,0.604v2.997
			c0,0.366,0.025,0.604,0.076,0.715c0.051,0.109,0.126,0.191,0.226,0.247c0.1,0.055,0.302,0.082,0.607,0.082v0.22h-2.765v-0.22
			c0.256,0,0.436-0.027,0.537-0.082c0.102-0.056,0.179-0.143,0.232-0.263s0.08-0.354,0.08-0.699v-2.136
			c0-0.615-0.019-1.011-0.055-1.19c-0.028-0.134-0.073-0.227-0.134-0.278c-0.061-0.051-0.145-0.076-0.25-0.076
			c-0.114,0-0.25,0.031-0.409,0.091l-0.092-0.22l1.685-0.684h0.263V42.978z"/>
		<path style="fill:#0066FF;" d="M60.451,46.737c-0.574,0.443-0.934,0.7-1.081,0.769c-0.22,0.103-0.454,0.153-0.702,0.153
			c-0.387,0-0.705-0.133-0.956-0.397c-0.25-0.264-0.375-0.612-0.375-1.043c0-0.272,0.062-0.509,0.184-0.708
			c0.167-0.277,0.457-0.537,0.87-0.781c0.413-0.244,1.1-0.541,2.06-0.892v-0.22c0-0.557-0.089-0.939-0.266-1.147
			c-0.177-0.207-0.435-0.311-0.772-0.311c-0.256,0-0.459,0.069-0.61,0.208c-0.154,0.138-0.231,0.297-0.231,0.476l0.012,0.354
			c0,0.187-0.048,0.331-0.143,0.434c-0.096,0.102-0.221,0.152-0.375,0.152c-0.15,0-0.274-0.053-0.369-0.158
			c-0.096-0.106-0.144-0.251-0.144-0.434c0-0.35,0.179-0.672,0.537-0.965s0.86-0.439,1.508-0.439c0.496,0,0.903,0.083,1.221,0.25
			c0.24,0.126,0.417,0.324,0.531,0.592c0.073,0.175,0.11,0.533,0.11,1.074v1.897c0,0.533,0.01,0.86,0.03,0.98
			c0.021,0.12,0.054,0.2,0.101,0.24c0.046,0.041,0.101,0.062,0.162,0.062c0.065,0,0.122-0.015,0.171-0.043
			c0.085-0.053,0.25-0.201,0.494-0.445v0.342c-0.456,0.61-0.891,0.915-1.306,0.915c-0.2,0-0.358-0.068-0.477-0.207
			C60.516,47.307,60.455,47.071,60.451,46.737z M58.607,39.383c0.188,0,0.345,0.065,0.473,0.195c0.128,0.13,0.192,0.287,0.192,0.47
			s-0.065,0.339-0.195,0.467c-0.13,0.128-0.285,0.192-0.464,0.192c-0.183,0-0.34-0.064-0.47-0.192
			c-0.13-0.128-0.195-0.284-0.195-0.467s0.064-0.34,0.192-0.47C58.269,39.448,58.425,39.383,58.607,39.383z M60.451,46.341v-2.13
			c-0.615,0.244-1.011,0.417-1.19,0.519c-0.321,0.179-0.551,0.366-0.689,0.562c-0.139,0.195-0.208,0.408-0.208,0.641
			c0,0.293,0.088,0.536,0.263,0.729s0.376,0.29,0.604,0.29C59.54,46.951,59.946,46.747,60.451,46.341z M60.762,39.383
			c0.183,0,0.339,0.065,0.467,0.195c0.128,0.13,0.192,0.287,0.192,0.47s-0.064,0.339-0.192,0.467
			c-0.128,0.128-0.284,0.192-0.467,0.192s-0.34-0.064-0.47-0.192c-0.13-0.128-0.195-0.284-0.195-0.467s0.065-0.34,0.195-0.47
			C60.422,39.448,60.579,39.383,60.762,39.383z"/>
		<path style="fill:#0066FF;" d="M64.386,42.972c0.656-0.79,1.279-1.185,1.875-1.185c0.305,0,0.566,0.077,0.787,0.229
			c0.219,0.153,0.395,0.404,0.523,0.754c0.09,0.244,0.135,0.619,0.135,1.123v2.387c0,0.354,0.029,0.595,0.086,0.721
			c0.045,0.102,0.117,0.181,0.217,0.238c0.1,0.057,0.283,0.085,0.553,0.085v0.22h-2.766v-0.22h0.115c0.262,0,0.443-0.04,0.547-0.119
			s0.176-0.196,0.217-0.351c0.016-0.062,0.025-0.253,0.025-0.574V43.99c0-0.508-0.066-0.877-0.199-1.107
			c-0.133-0.229-0.355-0.345-0.668-0.345c-0.484,0-0.967,0.265-1.447,0.793v2.948c0,0.379,0.023,0.612,0.068,0.702
			c0.057,0.118,0.135,0.204,0.234,0.26c0.1,0.055,0.303,0.082,0.607,0.082v0.22h-2.765v-0.22h0.122c0.285,0,0.477-0.072,0.577-0.217
			c0.1-0.145,0.149-0.42,0.149-0.827v-2.075c0-0.671-0.015-1.08-0.046-1.227c-0.03-0.146-0.077-0.246-0.14-0.299
			c-0.063-0.053-0.147-0.08-0.253-0.08c-0.114,0-0.25,0.031-0.409,0.091l-0.092-0.22l1.685-0.684h0.262V42.972z"/>
		<path style="fill:#0066FF;" d="M70.636,42.972c0.655-0.79,1.279-1.185,1.874-1.185c0.305,0,0.567,0.077,0.787,0.229
			c0.22,0.153,0.395,0.404,0.524,0.754c0.09,0.244,0.135,0.619,0.135,1.123v2.387c0,0.354,0.028,0.595,0.085,0.721
			c0.045,0.102,0.117,0.181,0.217,0.238c0.1,0.057,0.284,0.085,0.553,0.085v0.22h-2.766v-0.22h0.116c0.261,0,0.442-0.04,0.547-0.119
			c0.104-0.079,0.176-0.196,0.216-0.351c0.017-0.062,0.025-0.253,0.025-0.574V43.99c0-0.508-0.066-0.877-0.199-1.107
			c-0.132-0.229-0.354-0.345-0.668-0.345c-0.484,0-0.967,0.265-1.446,0.793v2.948c0,0.379,0.022,0.612,0.067,0.702
			c0.057,0.118,0.135,0.204,0.234,0.26c0.1,0.055,0.303,0.082,0.607,0.082v0.22H68.78v-0.22h0.122c0.284,0,0.477-0.072,0.576-0.217
			s0.15-0.42,0.15-0.827v-2.075c0-0.671-0.016-1.08-0.046-1.227c-0.031-0.146-0.078-0.246-0.141-0.299
			c-0.063-0.053-0.147-0.08-0.253-0.08c-0.114,0-0.251,0.031-0.409,0.091l-0.092-0.22l1.685-0.684h0.263V42.972z"/>
		<path style="fill:#0066FF;" d="M77.185,41.787v4.492c0,0.351,0.025,0.583,0.076,0.699s0.126,0.202,0.226,0.26
			c0.1,0.057,0.282,0.085,0.547,0.085v0.22h-2.717v-0.22c0.273,0,0.456-0.026,0.55-0.079s0.168-0.141,0.223-0.263
			s0.083-0.356,0.083-0.702v-2.154c0-0.606-0.019-0.999-0.056-1.178c-0.028-0.13-0.073-0.221-0.134-0.272
			c-0.062-0.051-0.145-0.076-0.25-0.076c-0.114,0-0.253,0.031-0.416,0.091l-0.085-0.22l1.685-0.684H77.185z M76.678,38.864
			c0.171,0,0.316,0.06,0.437,0.18s0.181,0.266,0.181,0.437s-0.061,0.317-0.181,0.439s-0.266,0.183-0.437,0.183
			s-0.317-0.061-0.439-0.183s-0.183-0.269-0.183-0.439s0.06-0.316,0.18-0.437S76.503,38.864,76.678,38.864z"/>
		<path style="fill:#0066FF;" d="M82.38,41.787v1.904h-0.201c-0.155-0.598-0.354-1.005-0.596-1.221
			c-0.242-0.215-0.55-0.323-0.924-0.323c-0.285,0-0.516,0.075-0.69,0.226c-0.175,0.151-0.263,0.317-0.263,0.501
			c0,0.228,0.065,0.423,0.195,0.586c0.127,0.167,0.383,0.344,0.77,0.53l0.891,0.434c0.826,0.403,1.239,0.934,1.239,1.594
			c0,0.508-0.192,0.918-0.576,1.229c-0.385,0.312-0.815,0.467-1.291,0.467c-0.342,0-0.732-0.062-1.172-0.183
			c-0.135-0.041-0.244-0.062-0.33-0.062c-0.094,0-0.167,0.053-0.22,0.159h-0.201v-1.996h0.201c0.114,0.569,0.332,0.999,0.653,1.287
			c0.321,0.289,0.682,0.434,1.08,0.434c0.281,0,0.51-0.082,0.687-0.247c0.178-0.165,0.266-0.363,0.266-0.595
			c0-0.281-0.099-0.517-0.296-0.708s-0.591-0.434-1.181-0.727s-0.977-0.558-1.16-0.794c-0.183-0.231-0.274-0.524-0.274-0.878
			c0-0.46,0.157-0.844,0.473-1.154c0.315-0.309,0.724-0.464,1.224-0.464c0.221,0,0.486,0.047,0.8,0.141
			c0.208,0.061,0.346,0.092,0.415,0.092c0.065,0,0.116-0.015,0.152-0.043c0.037-0.028,0.08-0.092,0.129-0.189H82.38z"/>
		<path style="fill:#0066FF;" d="M85.298,38.864v5.566l1.422-1.3c0.301-0.276,0.477-0.451,0.525-0.524
			c0.032-0.049,0.049-0.098,0.049-0.146c0-0.082-0.034-0.152-0.102-0.211c-0.066-0.059-0.178-0.092-0.332-0.101v-0.195h2.429v0.195
			c-0.333,0.008-0.611,0.059-0.833,0.152c-0.222,0.094-0.465,0.261-0.729,0.501l-1.435,1.324l1.435,1.812
			c0.399,0.501,0.668,0.818,0.806,0.952c0.195,0.191,0.366,0.315,0.513,0.372c0.102,0.041,0.279,0.062,0.531,0.062v0.22H86.86v-0.22
			c0.154-0.004,0.259-0.027,0.314-0.07c0.055-0.043,0.082-0.103,0.082-0.18c0-0.094-0.081-0.244-0.244-0.452l-1.715-2.191v1.855
			c0,0.362,0.025,0.601,0.076,0.715c0.051,0.113,0.123,0.195,0.217,0.244s0.297,0.075,0.61,0.079v0.22h-2.845v-0.22
			c0.285,0,0.499-0.034,0.641-0.104c0.086-0.045,0.151-0.114,0.195-0.208c0.062-0.134,0.092-0.366,0.092-0.695v-5.091
			c0-0.646-0.014-1.042-0.043-1.187c-0.028-0.144-0.075-0.244-0.14-0.299c-0.065-0.055-0.15-0.083-0.257-0.083
			c-0.085,0-0.213,0.035-0.385,0.104l-0.104-0.213l1.66-0.684H85.298z"/>
		<path style="fill:#0066FF;" d="M92.628,41.787c0.847,0,1.525,0.322,2.039,0.965c0.435,0.549,0.652,1.18,0.652,1.892
			c0,0.501-0.12,1.007-0.359,1.521c-0.24,0.512-0.571,0.898-0.992,1.159s-0.891,0.391-1.407,0.391c-0.842,0-1.512-0.336-2.008-1.007
			c-0.419-0.565-0.629-1.2-0.629-1.904c0-0.513,0.127-1.022,0.382-1.529c0.254-0.506,0.589-0.881,1.004-1.123
			C91.725,41.909,92.164,41.787,92.628,41.787z M92.438,42.184c-0.216,0-0.433,0.064-0.649,0.192
			c-0.218,0.128-0.394,0.353-0.528,0.674s-0.201,0.734-0.201,1.239c0,0.813,0.161,1.516,0.485,2.105
			c0.323,0.59,0.749,0.885,1.278,0.885c0.395,0,0.721-0.162,0.977-0.488c0.256-0.325,0.385-0.885,0.385-1.679
			c0-0.992-0.214-1.773-0.641-2.343C93.255,42.379,92.887,42.184,92.438,42.184z"/>
		<path style="fill:#0066FF;" d="M97.779,41.787v1.258c0.468-0.838,0.948-1.258,1.44-1.258c0.224,0,0.409,0.068,0.556,0.205
			c0.146,0.137,0.22,0.294,0.22,0.473c0,0.159-0.053,0.293-0.159,0.403c-0.105,0.11-0.231,0.165-0.378,0.165
			c-0.143,0-0.303-0.07-0.479-0.21c-0.177-0.14-0.308-0.21-0.394-0.21c-0.073,0-0.152,0.041-0.238,0.122
			c-0.183,0.167-0.372,0.441-0.567,0.824v2.679c0,0.31,0.039,0.544,0.116,0.702c0.053,0.11,0.146,0.202,0.28,0.274
			c0.135,0.074,0.328,0.11,0.58,0.11v0.22h-2.862v-0.22c0.284,0,0.496-0.045,0.635-0.134c0.102-0.065,0.173-0.169,0.213-0.312
			c0.021-0.069,0.031-0.267,0.031-0.593v-2.166c0-0.651-0.014-1.039-0.04-1.163c-0.026-0.124-0.075-0.214-0.146-0.271
			s-0.159-0.085-0.266-0.085c-0.126,0-0.269,0.031-0.427,0.091l-0.062-0.22l1.69-0.684H97.779z"/>
	</g>
	<g>
		<path style="fill:#0066FF;" d="M25.585,61.966l-0.58,1.593h-4.883v-0.226c1.437-1.311,2.447-2.381,3.033-3.211
			s0.879-1.589,0.879-2.276c0-0.525-0.161-0.956-0.482-1.294s-0.706-0.507-1.154-0.507c-0.407,0-0.772,0.119-1.095,0.357
			c-0.324,0.238-0.562,0.587-0.717,1.047H20.36c0.102-0.753,0.363-1.331,0.784-1.733c0.421-0.403,0.947-0.604,1.578-0.604
			c0.671,0,1.232,0.216,1.682,0.646c0.449,0.432,0.674,0.94,0.674,1.526c0,0.419-0.098,0.838-0.293,1.257
			c-0.301,0.66-0.79,1.357-1.465,2.094c-1.013,1.107-1.646,1.774-1.898,2.002h2.161c0.439,0,0.748-0.016,0.924-0.049
			c0.177-0.032,0.337-0.099,0.479-0.198c0.143-0.1,0.267-0.241,0.373-0.424H25.585z"/>
		<path style="fill:#0066FF;" d="M58.035,61.966l-0.58,1.593h-4.883v-0.226c1.437-1.311,2.447-2.381,3.033-3.211
			s0.879-1.589,0.879-2.276c0-0.525-0.161-0.956-0.482-1.294s-0.706-0.507-1.154-0.507c-0.407,0-0.772,0.119-1.095,0.357
			c-0.324,0.238-0.562,0.587-0.717,1.047h-0.226c0.102-0.753,0.363-1.331,0.784-1.733c0.421-0.403,0.947-0.604,1.578-0.604
			c0.671,0,1.232,0.216,1.682,0.646c0.449,0.432,0.674,0.94,0.674,1.526c0,0.419-0.098,0.838-0.293,1.257
			c-0.301,0.66-0.79,1.357-1.465,2.094c-1.013,1.107-1.646,1.774-1.898,2.002h2.161c0.439,0,0.748-0.016,0.924-0.049
			c0.177-0.032,0.337-0.099,0.479-0.198c0.143-0.1,0.267-0.241,0.373-0.424H58.035z"/>
		<path style="fill:#0066FF;" d="M77.281,56.094l2.014-0.982h0.202V62.1c0,0.464,0.019,0.753,0.058,0.867
			c0.039,0.113,0.119,0.201,0.241,0.262c0.122,0.062,0.37,0.096,0.745,0.104v0.226h-3.113v-0.226
			c0.391-0.009,0.643-0.042,0.757-0.101c0.114-0.06,0.193-0.139,0.238-0.238s0.067-0.397,0.067-0.895v-4.468
			c0-0.602-0.021-0.988-0.062-1.159c-0.028-0.131-0.08-0.227-0.155-0.287c-0.076-0.061-0.166-0.092-0.271-0.092
			c-0.151,0-0.36,0.063-0.629,0.189L77.281,56.094z"/>
	</g>
	<g>
		<path style="fill:#0066FF;" d="M17.108,79.808l-0.58,1.593h-4.883v-0.226c1.437-1.311,2.447-2.381,3.033-3.211
			s0.879-1.589,0.879-2.276c0-0.525-0.161-0.956-0.482-1.294s-0.706-0.507-1.154-0.507c-0.407,0-0.772,0.119-1.095,0.357
			c-0.324,0.238-0.562,0.587-0.717,1.047h-0.226c0.102-0.753,0.363-1.331,0.784-1.733c0.421-0.403,0.947-0.604,1.578-0.604
			c0.671,0,1.232,0.216,1.682,0.646c0.449,0.432,0.674,0.94,0.674,1.526c0,0.419-0.098,0.838-0.293,1.257
			c-0.301,0.66-0.79,1.357-1.465,2.094c-1.013,1.107-1.646,1.774-1.898,2.002h2.161c0.439,0,0.748-0.016,0.924-0.049
			c0.177-0.032,0.337-0.099,0.479-0.198c0.143-0.1,0.267-0.241,0.373-0.424H17.108z"/>
		<path style="fill:#0066FF;" d="M30.913,77.231c-0.655-0.537-1.077-0.968-1.266-1.294c-0.189-0.325-0.284-0.663-0.284-1.013
			c0-0.537,0.207-1,0.622-1.389s0.967-0.583,1.654-0.583c0.667,0,1.205,0.181,1.611,0.543s0.61,0.775,0.61,1.239
			c0,0.31-0.11,0.625-0.33,0.946s-0.677,0.699-1.374,1.135c0.716,0.554,1.19,0.989,1.422,1.307c0.309,0.415,0.464,0.853,0.464,1.312
			c0,0.581-0.222,1.079-0.666,1.492c-0.443,0.413-1.025,0.619-1.745,0.619c-0.786,0-1.398-0.246-1.837-0.738
			c-0.35-0.395-0.525-0.826-0.525-1.294c0-0.366,0.123-0.729,0.369-1.09S30.311,77.667,30.913,77.231z M31.2,77.464
			c-0.338,0.284-0.588,0.595-0.751,0.931c-0.163,0.336-0.244,0.699-0.244,1.09c0,0.524,0.144,0.944,0.431,1.26
			c0.287,0.315,0.652,0.473,1.096,0.473c0.439,0,0.791-0.124,1.056-0.372s0.396-0.549,0.396-0.903c0-0.293-0.077-0.555-0.231-0.787
			C32.663,78.723,32.079,78.159,31.2,77.464z M31.872,76.578c0.488-0.439,0.797-0.786,0.928-1.04s0.195-0.542,0.195-0.864
			c0-0.427-0.12-0.762-0.36-1.004c-0.24-0.241-0.568-0.363-0.983-0.363s-0.753,0.12-1.013,0.36s-0.391,0.521-0.391,0.843
			c0,0.211,0.054,0.423,0.162,0.635c0.108,0.211,0.262,0.413,0.461,0.604L31.872,76.578z"/>
		<path style="fill:#0066FF;" d="M49.979,73.936l2.014-0.982h0.202v6.988c0,0.464,0.019,0.753,0.058,0.867
			c0.039,0.113,0.119,0.201,0.241,0.262c0.122,0.062,0.37,0.096,0.745,0.104V81.4h-3.113v-0.226
			c0.391-0.009,0.643-0.042,0.757-0.101c0.114-0.06,0.193-0.139,0.238-0.238c0.044-0.1,0.067-0.397,0.067-0.895v-4.468
			c0-0.602-0.021-0.988-0.061-1.159c-0.028-0.131-0.081-0.227-0.156-0.287s-0.166-0.092-0.271-0.092c-0.15,0-0.36,0.063-0.628,0.189
			L49.979,73.936z"/>
		<path style="fill:#0066FF;" d="M55.216,77.311c0-0.943,0.143-1.756,0.427-2.438s0.663-1.189,1.135-1.523
			c0.366-0.265,0.745-0.396,1.135-0.396c0.635,0,1.205,0.323,1.709,0.971c0.631,0.802,0.946,1.888,0.946,3.259
			c0,0.961-0.139,1.776-0.415,2.448c-0.277,0.671-0.63,1.158-1.059,1.461c-0.43,0.304-0.843,0.455-1.242,0.455
			c-0.79,0-1.447-0.466-1.971-1.397C55.438,79.364,55.216,78.418,55.216,77.311z M56.413,77.464c0,1.139,0.14,2.069,0.421,2.789
			c0.231,0.606,0.578,0.909,1.037,0.909c0.22,0,0.448-0.099,0.684-0.296c0.236-0.197,0.415-0.528,0.537-0.991
			c0.188-0.7,0.281-1.688,0.281-2.961c0-0.943-0.098-1.731-0.293-2.361c-0.146-0.469-0.336-0.8-0.568-0.995
			c-0.167-0.135-0.368-0.202-0.604-0.202c-0.277,0-0.523,0.125-0.739,0.373c-0.293,0.338-0.492,0.868-0.598,1.593
			S56.413,76.76,56.413,77.464z"/>
		<path style="fill:#0066FF;" d="M81.353,73.124l-0.476,1.038h-2.49l-0.544,1.11c1.079,0.159,1.934,0.56,2.564,1.202
			c0.541,0.554,0.812,1.205,0.812,1.953c0,0.436-0.089,0.839-0.266,1.209s-0.399,0.686-0.669,0.945
			c-0.268,0.261-0.567,0.471-0.896,0.629c-0.468,0.224-0.948,0.336-1.44,0.336c-0.497,0-0.857-0.085-1.084-0.253
			c-0.226-0.169-0.339-0.355-0.339-0.559c0-0.114,0.047-0.215,0.141-0.303c0.094-0.087,0.212-0.131,0.354-0.131
			c0.105,0,0.198,0.017,0.277,0.049s0.215,0.116,0.406,0.25c0.305,0.212,0.614,0.317,0.928,0.317c0.476,0,0.894-0.18,1.254-0.54
			s0.54-0.799,0.54-1.315c0-0.5-0.16-0.967-0.482-1.4c-0.321-0.434-0.765-0.769-1.33-1.004c-0.443-0.184-1.048-0.289-1.812-0.317
			l1.587-3.217H81.353z"/>
	</g>
	<g>
		<path style="fill:#0066FF;" d="M118.048,6.367h6.409v0.592h-6.409V6.367z M118.048,8.644h6.409v0.604h-6.409V8.644z"/>
	</g>
	<g>
		<path style="fill:#0066FF;" d="M0.226,33.281h6.409v0.592H0.226V33.281z M0.226,35.558h6.409v0.604H0.226V35.558z"/>
		<path style="fill:#0066FF;" d="M104.599,33.281h6.409v0.592h-6.409V33.281z M104.599,35.558h6.409v0.604h-6.409V35.558z"/>
	</g>
	<g>
		<path style="fill:#0066FF;" d="M0.226,67.109h6.409v0.592H0.226V67.109z M0.226,69.387h6.409v0.604H0.226V69.387z"/>
		<path style="fill:#0066FF;" d="M38.736,67.109h6.409v0.592h-6.409V67.109z M38.736,69.387h6.409v0.604h-6.409V69.387z"/>
		<path style="fill:#0066FF;" d="M65.171,67.109h6.409v0.592h-6.409V67.109z M65.171,69.387h6.409v0.604h-6.409V69.387z"/>
	</g>
	<g>
		<path style="fill:#0066FF;" d="M22.795,74.992h0.598v2.917h2.899v0.592h-2.899V81.4h-0.598v-2.899h-2.912v-0.592h2.912V74.992z"/>
	</g>
</g>
<g id="theGroup">
</g>
</svg>
