<?xml version="1.0" encoding="iso-8859-1"?>
<!-- Generator: Adobe Illustrator 16.0.0, SVG Export Plug-In . SVG Version: 6.00 Build 0)  -->
<!DOCTYPE svg PUBLIC "-//W3C//DTD SVG 1.1//EN" "http://www.w3.org/Graphics/SVG/1.1/DTD/svg11.dtd">
<svg version="1.1" id="Lager_1" xmlns="http://www.w3.org/2000/svg" xmlns:xlink="http://www.w3.org/1999/xlink" x="0px" y="0px"
	 width="126.032px" height="51.386px" viewBox="0 0 126.032 51.386" style="enable-background:new 0 0 126.032 51.386;"
	 xml:space="preserve">
<g>
	
		<line style="fill:none;stroke:#0066FF;stroke-width:0.5;stroke-linecap:square;stroke-miterlimit:10;" x1="10.587" y1="34.595" x2="18.009" y2="34.595"/>
	<g>
		<path style="fill:#0066FF;" d="M7.166,8.711l0.202,0.043L6.659,11H0.25v-0.226h0.312c0.35,0,0.6-0.114,0.751-0.342
			c0.085-0.13,0.128-0.432,0.128-0.903V4.188c0-0.517-0.057-0.84-0.171-0.971C1.111,3.039,0.875,2.949,0.562,2.949H0.25V2.724h3.748
			v0.226C3.559,2.945,3.25,2.986,3.073,3.071C2.896,3.157,2.775,3.265,2.71,3.395S2.612,3.836,2.612,4.329v5.2
			c0,0.337,0.033,0.569,0.098,0.695c0.049,0.086,0.124,0.149,0.226,0.189c0.102,0.041,0.419,0.061,0.952,0.061h0.604
			c0.635,0,1.08-0.047,1.337-0.14c0.256-0.094,0.49-0.26,0.702-0.498C6.742,9.599,6.954,9.224,7.166,8.711z"/>
		<path style="fill:#0066FF;" d="M9.742,5.244v4.492c0,0.35,0.025,0.583,0.076,0.699c0.051,0.116,0.126,0.202,0.226,0.259
			c0.1,0.057,0.282,0.085,0.546,0.085V11H7.875v-0.22c0.272,0,0.456-0.026,0.549-0.079c0.094-0.053,0.168-0.141,0.223-0.263
			c0.055-0.122,0.083-0.356,0.083-0.702V7.582c0-0.606-0.018-0.999-0.055-1.178C8.646,6.274,8.601,6.184,8.54,6.132
			C8.479,6.082,8.396,6.056,8.29,6.056c-0.114,0-0.252,0.031-0.415,0.091l-0.085-0.22l1.685-0.684H9.742z M9.235,2.321
			c0.171,0,0.316,0.06,0.437,0.18s0.18,0.266,0.18,0.437s-0.06,0.317-0.18,0.439S9.406,3.56,9.235,3.56S8.918,3.499,8.796,3.377
			S8.613,3.108,8.613,2.938s0.06-0.316,0.18-0.437S9.061,2.321,9.235,2.321z"/>
		<path style="fill:#0066FF;" d="M16.183,9.285L16.115,11h-4.932v-0.22l3.711-4.944h-1.831c-0.395,0-0.653,0.025-0.775,0.076
			c-0.122,0.051-0.222,0.147-0.299,0.29C11.88,6.406,11.816,6.658,11.8,6.959h-0.244l0.037-1.55h4.688v0.226l-3.748,4.956h2.039
			c0.427,0,0.717-0.035,0.87-0.106c0.153-0.071,0.276-0.196,0.37-0.375c0.065-0.13,0.12-0.405,0.165-0.824H16.183z"/>
		<path style="fill:#0066FF;" d="M21.845,2.321v7.416c0,0.35,0.025,0.582,0.076,0.696c0.051,0.114,0.129,0.2,0.235,0.259
			s0.303,0.088,0.592,0.088V11h-2.741v-0.22c0.256,0,0.431-0.026,0.525-0.079c0.094-0.053,0.167-0.141,0.22-0.263
			s0.079-0.356,0.079-0.702V4.658c0-0.63-0.014-1.018-0.042-1.163C20.76,3.352,20.714,3.252,20.651,3.2
			c-0.063-0.053-0.144-0.08-0.241-0.08c-0.106,0-0.24,0.033-0.403,0.098l-0.104-0.213l1.667-0.684H21.845z"/>
		<path style="fill:#0066FF;" d="M25.979,5.244c0.846,0,1.526,0.322,2.039,0.965c0.436,0.549,0.653,1.18,0.653,1.892
			c0,0.501-0.12,1.007-0.36,1.52s-0.571,0.899-0.992,1.16c-0.421,0.26-0.89,0.391-1.407,0.391c-0.842,0-1.511-0.336-2.008-1.007
			c-0.419-0.566-0.629-1.201-0.629-1.904c0-0.513,0.127-1.022,0.382-1.529c0.254-0.506,0.589-0.881,1.004-1.123
			C25.076,5.366,25.516,5.244,25.979,5.244z M24.893,2.846c0.187,0,0.345,0.065,0.473,0.195c0.128,0.13,0.192,0.287,0.192,0.47
			c0,0.184-0.065,0.339-0.195,0.467c-0.13,0.128-0.285,0.192-0.464,0.192c-0.184,0-0.34-0.064-0.47-0.192
			c-0.13-0.128-0.195-0.284-0.195-0.467c0-0.183,0.064-0.339,0.192-0.47C24.554,2.911,24.71,2.846,24.893,2.846z M25.79,5.641
			c-0.215,0-0.432,0.064-0.65,0.192c-0.218,0.128-0.394,0.353-0.528,0.674s-0.201,0.734-0.201,1.239
			c0,0.813,0.162,1.516,0.485,2.105c0.324,0.59,0.75,0.885,1.279,0.885c0.395,0,0.72-0.163,0.977-0.488
			c0.256-0.325,0.385-0.885,0.385-1.678c0-0.993-0.214-1.774-0.641-2.344C26.606,5.836,26.238,5.641,25.79,5.641z M27.048,2.846
			c0.183,0,0.338,0.065,0.467,0.195c0.128,0.13,0.192,0.287,0.192,0.47c0,0.184-0.064,0.339-0.192,0.467
			C27.386,4.106,27.23,4.17,27.048,4.17c-0.184,0-0.34-0.064-0.47-0.192c-0.13-0.128-0.195-0.284-0.195-0.467
			c0-0.183,0.065-0.339,0.195-0.47S26.864,2.846,27.048,2.846z"/>
		<path style="fill:#0066FF;" d="M31.125,6.429c0.655-0.79,1.279-1.185,1.874-1.185c0.305,0,0.568,0.077,0.788,0.229
			c0.22,0.153,0.395,0.404,0.524,0.754c0.09,0.244,0.135,0.619,0.135,1.123v2.386c0,0.354,0.028,0.594,0.085,0.721
			c0.045,0.102,0.117,0.181,0.217,0.238s0.284,0.085,0.553,0.085V11h-2.765v-0.22h0.116c0.261,0,0.443-0.04,0.546-0.119
			c0.104-0.079,0.176-0.196,0.217-0.351c0.016-0.062,0.024-0.252,0.024-0.574V7.448c0-0.509-0.066-0.878-0.198-1.108
			c-0.132-0.229-0.355-0.345-0.668-0.345c-0.484,0-0.966,0.265-1.446,0.793v2.948c0,0.379,0.022,0.613,0.067,0.702
			c0.057,0.118,0.135,0.205,0.235,0.259c0.1,0.055,0.302,0.083,0.607,0.083V11H29.27v-0.22h0.122c0.285,0,0.477-0.072,0.577-0.217
			c0.1-0.144,0.149-0.42,0.149-0.827V7.661c0-0.671-0.015-1.08-0.046-1.227c-0.03-0.146-0.077-0.246-0.14-0.299
			c-0.063-0.053-0.147-0.08-0.253-0.08c-0.114,0-0.25,0.031-0.409,0.091l-0.092-0.22l1.685-0.684h0.263V6.429z"/>
	</g>
	<g>
		<path style="fill:#0066FF;" d="M12.627,22.285l2.014-0.982h0.202v6.988c0,0.464,0.019,0.753,0.058,0.867
			c0.039,0.113,0.119,0.201,0.241,0.262c0.122,0.062,0.37,0.096,0.745,0.104v0.226h-3.113v-0.226
			c0.391-0.009,0.643-0.042,0.757-0.101c0.114-0.06,0.193-0.139,0.238-0.238c0.044-0.1,0.067-0.397,0.067-0.895v-4.468
			c0-0.602-0.021-0.988-0.061-1.159c-0.028-0.13-0.081-0.226-0.156-0.287s-0.166-0.092-0.271-0.092c-0.15,0-0.36,0.063-0.628,0.189
			L12.627,22.285z"/>
	</g>
	<g>
		<path style="fill:#0066FF;" d="M24.697,30.449l2.014-0.982h0.202v6.988c0,0.464,0.019,0.753,0.058,0.867
			c0.039,0.113,0.119,0.201,0.241,0.262c0.122,0.062,0.37,0.096,0.745,0.104v0.226h-3.113v-0.226
			c0.391-0.009,0.643-0.042,0.757-0.101c0.114-0.06,0.193-0.139,0.238-0.238c0.044-0.1,0.067-0.397,0.067-0.895v-4.468
			c0-0.602-0.021-0.988-0.061-1.159c-0.028-0.131-0.081-0.227-0.156-0.287s-0.166-0.092-0.271-0.092c-0.15,0-0.36,0.063-0.628,0.189
			L24.697,30.449z"/>
		<path style="fill:#0066FF;" d="M35.214,36.321l-0.58,1.593h-4.883v-0.226c1.437-1.311,2.447-2.381,3.033-3.211
			s0.879-1.589,0.879-2.276c0-0.525-0.161-0.956-0.482-1.294S32.475,30.4,32.027,30.4c-0.407,0-0.772,0.119-1.095,0.357
			c-0.324,0.238-0.562,0.587-0.717,1.047h-0.226c0.102-0.753,0.363-1.331,0.784-1.733c0.421-0.403,0.947-0.604,1.578-0.604
			c0.671,0,1.232,0.216,1.682,0.646c0.449,0.432,0.674,0.94,0.674,1.526c0,0.419-0.098,0.838-0.293,1.257
			c-0.301,0.66-0.79,1.357-1.465,2.094c-1.013,1.107-1.646,1.774-1.898,2.002h2.161c0.439,0,0.748-0.016,0.924-0.049
			c0.177-0.032,0.337-0.099,0.479-0.198c0.143-0.1,0.267-0.241,0.373-0.424H35.214z"/>
		<path style="fill:#0066FF;" d="M38.947,33.824c0-0.943,0.143-1.756,0.427-2.438s0.663-1.189,1.135-1.523
			c0.366-0.265,0.745-0.396,1.135-0.396c0.635,0,1.205,0.323,1.709,0.971c0.631,0.802,0.946,1.888,0.946,3.259
			c0,0.961-0.139,1.776-0.415,2.448c-0.277,0.671-0.63,1.158-1.059,1.461c-0.43,0.304-0.843,0.455-1.242,0.455
			c-0.79,0-1.447-0.466-1.971-1.397C39.168,35.878,38.947,34.932,38.947,33.824z M40.143,33.978c0,1.139,0.14,2.069,0.421,2.789
			c0.231,0.606,0.578,0.909,1.037,0.909c0.22,0,0.448-0.099,0.684-0.296c0.236-0.197,0.415-0.528,0.537-0.991
			c0.188-0.7,0.281-1.688,0.281-2.961c0-0.943-0.098-1.731-0.293-2.361c-0.146-0.469-0.336-0.8-0.568-0.995
			c-0.167-0.135-0.368-0.202-0.604-0.202c-0.277,0-0.523,0.125-0.739,0.373c-0.293,0.338-0.492,0.868-0.598,1.593
			S40.143,33.273,40.143,33.978z"/>
		<path style="fill:#0066FF;" d="M45.197,33.824c0-0.943,0.143-1.756,0.427-2.438s0.663-1.189,1.135-1.523
			c0.366-0.265,0.745-0.396,1.135-0.396c0.635,0,1.205,0.323,1.709,0.971c0.631,0.802,0.946,1.888,0.946,3.259
			c0,0.961-0.139,1.776-0.415,2.448c-0.277,0.671-0.63,1.158-1.059,1.461c-0.43,0.304-0.843,0.455-1.242,0.455
			c-0.79,0-1.447-0.466-1.971-1.397C45.418,35.878,45.197,34.932,45.197,33.824z M46.393,33.978c0,1.139,0.14,2.069,0.421,2.789
			c0.231,0.606,0.578,0.909,1.037,0.909c0.22,0,0.448-0.099,0.684-0.296c0.236-0.197,0.415-0.528,0.537-0.991
			c0.188-0.7,0.281-1.688,0.281-2.961c0-0.943-0.098-1.731-0.293-2.361c-0.146-0.469-0.336-0.8-0.568-0.995
			c-0.167-0.135-0.368-0.202-0.604-0.202c-0.277,0-0.523,0.125-0.739,0.373c-0.293,0.338-0.492,0.868-0.598,1.593
			S46.393,33.273,46.393,33.978z"/>
		<path style="fill:#0066FF;" d="M51.447,33.824c0-0.943,0.143-1.756,0.427-2.438s0.663-1.189,1.135-1.523
			c0.366-0.265,0.745-0.396,1.135-0.396c0.635,0,1.205,0.323,1.709,0.971c0.631,0.802,0.946,1.888,0.946,3.259
			c0,0.961-0.139,1.776-0.415,2.448c-0.277,0.671-0.63,1.158-1.059,1.461c-0.43,0.304-0.843,0.455-1.242,0.455
			c-0.79,0-1.447-0.466-1.971-1.397C51.668,35.878,51.447,34.932,51.447,33.824z M52.643,33.978c0,1.139,0.14,2.069,0.421,2.789
			c0.231,0.606,0.578,0.909,1.037,0.909c0.22,0,0.448-0.099,0.684-0.296c0.236-0.197,0.415-0.528,0.537-0.991
			c0.188-0.7,0.281-1.688,0.281-2.961c0-0.943-0.098-1.731-0.293-2.361c-0.146-0.469-0.336-0.8-0.568-0.995
			c-0.167-0.135-0.368-0.202-0.604-0.202c-0.277,0-0.523,0.125-0.739,0.373c-0.293,0.338-0.492,0.868-0.598,1.593
			S52.643,33.273,52.643,33.978z"/>
		<path style="fill:#0066FF;" d="M62.802,29.234v5.566l1.422-1.3c0.301-0.276,0.476-0.451,0.525-0.524
			c0.033-0.049,0.049-0.098,0.049-0.146c0-0.082-0.033-0.151-0.101-0.211c-0.067-0.059-0.178-0.093-0.333-0.101v-0.195h2.429v0.195
			c-0.334,0.008-0.611,0.059-0.834,0.152c-0.221,0.094-0.465,0.261-0.729,0.501l-1.435,1.324l1.435,1.812
			c0.398,0.501,0.668,0.818,0.805,0.952c0.195,0.191,0.367,0.315,0.514,0.372c0.102,0.041,0.279,0.062,0.531,0.062v0.22h-2.716
			v-0.22c0.154-0.004,0.259-0.027,0.314-0.07s0.082-0.103,0.082-0.18c0-0.094-0.081-0.244-0.244-0.452l-1.715-2.191v1.855
			c0,0.362,0.025,0.601,0.076,0.715c0.051,0.113,0.123,0.195,0.217,0.244c0.093,0.049,0.297,0.075,0.61,0.079v0.22h-2.845v-0.22
			c0.285,0,0.499-0.034,0.641-0.104c0.085-0.045,0.15-0.114,0.195-0.208c0.061-0.134,0.091-0.366,0.091-0.695v-5.091
			c0-0.646-0.014-1.042-0.042-1.187s-0.075-0.244-0.14-0.3c-0.065-0.055-0.151-0.082-0.257-0.082c-0.085,0-0.213,0.034-0.384,0.104
			l-0.104-0.214l1.66-0.684H62.802z"/>
		<path style="fill:#0066FF;" d="M69.034,32.158v1.258c0.468-0.839,0.948-1.258,1.44-1.258c0.224,0,0.409,0.068,0.556,0.205
			c0.146,0.136,0.22,0.294,0.22,0.473c0,0.158-0.053,0.293-0.159,0.402c-0.105,0.11-0.231,0.165-0.378,0.165
			c-0.143,0-0.303-0.07-0.479-0.21c-0.177-0.141-0.308-0.211-0.394-0.211c-0.073,0-0.152,0.041-0.238,0.122
			c-0.183,0.167-0.372,0.441-0.567,0.824v2.679c0,0.31,0.039,0.544,0.116,0.702c0.053,0.11,0.146,0.202,0.28,0.274
			c0.135,0.074,0.328,0.11,0.58,0.11v0.22h-2.862v-0.22c0.284,0,0.496-0.045,0.635-0.134c0.102-0.065,0.173-0.169,0.213-0.312
			c0.021-0.069,0.031-0.267,0.031-0.593V34.49c0-0.651-0.014-1.039-0.04-1.163s-0.075-0.215-0.146-0.271s-0.159-0.085-0.266-0.085
			c-0.126,0-0.269,0.03-0.427,0.091l-0.062-0.22l1.69-0.684H69.034z"/>
		<path style="fill:#0066FF;" d="M85.292,31.213c0.236-0.558,0.534-0.988,0.895-1.291c0.359-0.304,0.809-0.455,1.346-0.455
			c0.663,0,1.172,0.216,1.525,0.646c0.269,0.322,0.403,0.666,0.403,1.032c0,0.602-0.379,1.225-1.136,1.867
			c0.509,0.199,0.894,0.484,1.154,0.854c0.26,0.37,0.391,0.806,0.391,1.307c0,0.716-0.229,1.336-0.684,1.861
			c-0.595,0.684-1.455,1.025-2.582,1.025c-0.558,0-0.938-0.069-1.139-0.207c-0.201-0.139-0.302-0.287-0.302-0.446
			c0-0.118,0.048-0.222,0.144-0.312c0.095-0.089,0.21-0.134,0.345-0.134c0.102,0,0.205,0.017,0.312,0.049
			c0.068,0.021,0.226,0.095,0.47,0.223s0.413,0.204,0.507,0.229c0.15,0.044,0.311,0.066,0.481,0.066c0.415,0,0.776-0.16,1.084-0.482
			c0.307-0.321,0.46-0.701,0.46-1.141c0-0.321-0.07-0.635-0.213-0.94c-0.106-0.228-0.222-0.4-0.348-0.519
			c-0.176-0.163-0.416-0.311-0.721-0.442s-0.616-0.198-0.934-0.198h-0.195v-0.184c0.321-0.04,0.644-0.156,0.967-0.348
			c0.324-0.191,0.559-0.421,0.705-0.689s0.22-0.563,0.22-0.885c0-0.42-0.131-0.758-0.394-1.017s-0.589-0.388-0.979-0.388
			c-0.631,0-1.157,0.338-1.581,1.014L85.292,31.213z"/>
		<path style="fill:#0066FF;" d="M93.733,33.824c0-0.943,0.143-1.756,0.428-2.438s0.663-1.189,1.135-1.523
			c0.367-0.265,0.745-0.396,1.136-0.396c0.635,0,1.204,0.323,1.709,0.971c0.631,0.802,0.946,1.888,0.946,3.259
			c0,0.961-0.139,1.776-0.415,2.448c-0.277,0.671-0.63,1.158-1.06,1.461c-0.429,0.304-0.843,0.455-1.242,0.455
			c-0.789,0-1.446-0.466-1.971-1.397C93.956,35.878,93.733,34.932,93.733,33.824z M94.931,33.978c0,1.139,0.14,2.069,0.421,2.789
			c0.231,0.606,0.577,0.909,1.037,0.909c0.22,0,0.448-0.099,0.684-0.296c0.236-0.197,0.415-0.528,0.537-0.991
			c0.188-0.7,0.281-1.688,0.281-2.961c0-0.943-0.098-1.731-0.293-2.361c-0.146-0.469-0.336-0.8-0.567-0.995
			c-0.167-0.135-0.369-0.202-0.604-0.202c-0.277,0-0.523,0.125-0.739,0.373c-0.293,0.338-0.492,0.868-0.598,1.593
			S94.931,33.273,94.931,33.978z"/>
		<path style="fill:#0066FF;" d="M99.983,33.824c0-0.943,0.143-1.756,0.428-2.438s0.663-1.189,1.135-1.523
			c0.367-0.265,0.745-0.396,1.136-0.396c0.635,0,1.204,0.323,1.709,0.971c0.631,0.802,0.946,1.888,0.946,3.259
			c0,0.961-0.139,1.776-0.415,2.448c-0.277,0.671-0.63,1.158-1.06,1.461c-0.429,0.304-0.843,0.455-1.242,0.455
			c-0.789,0-1.446-0.466-1.971-1.397C100.206,35.878,99.983,34.932,99.983,33.824z M101.181,33.978c0,1.139,0.14,2.069,0.421,2.789
			c0.231,0.606,0.577,0.909,1.037,0.909c0.22,0,0.448-0.099,0.684-0.296c0.236-0.197,0.415-0.528,0.537-0.991
			c0.188-0.7,0.281-1.688,0.281-2.961c0-0.943-0.098-1.731-0.293-2.361c-0.146-0.469-0.336-0.8-0.567-0.995
			c-0.167-0.135-0.369-0.202-0.604-0.202c-0.277,0-0.523,0.125-0.739,0.373c-0.293,0.338-0.492,0.868-0.598,1.593
			S101.181,33.273,101.181,33.978z"/>
		<path style="fill:#0066FF;" d="M106.233,33.824c0-0.943,0.143-1.756,0.428-2.438s0.663-1.189,1.135-1.523
			c0.367-0.265,0.745-0.396,1.136-0.396c0.635,0,1.204,0.323,1.709,0.971c0.631,0.802,0.946,1.888,0.946,3.259
			c0,0.961-0.139,1.776-0.415,2.448c-0.277,0.671-0.63,1.158-1.06,1.461c-0.429,0.304-0.843,0.455-1.242,0.455
			c-0.789,0-1.446-0.466-1.971-1.397C106.456,35.878,106.233,34.932,106.233,33.824z M107.431,33.978
			c0,1.139,0.14,2.069,0.421,2.789c0.231,0.606,0.577,0.909,1.037,0.909c0.22,0,0.448-0.099,0.684-0.296
			c0.236-0.197,0.415-0.528,0.537-0.991c0.188-0.7,0.281-1.688,0.281-2.961c0-0.943-0.098-1.731-0.293-2.361
			c-0.146-0.469-0.336-0.8-0.567-0.995c-0.167-0.135-0.369-0.202-0.604-0.202c-0.277,0-0.523,0.125-0.739,0.373
			c-0.293,0.338-0.492,0.868-0.598,1.593S107.431,33.273,107.431,33.978z"/>
		<path style="fill:#0066FF;" d="M117.59,29.234v5.566l1.422-1.3c0.301-0.276,0.477-0.451,0.525-0.524
			c0.032-0.049,0.049-0.098,0.049-0.146c0-0.082-0.034-0.151-0.102-0.211c-0.066-0.059-0.178-0.093-0.332-0.101v-0.195h2.429v0.195
			c-0.333,0.008-0.611,0.059-0.833,0.152s-0.465,0.261-0.729,0.501l-1.435,1.324l1.435,1.812c0.399,0.501,0.668,0.818,0.806,0.952
			c0.195,0.191,0.366,0.315,0.513,0.372c0.102,0.041,0.279,0.062,0.531,0.062v0.22h-2.716v-0.22c0.154-0.004,0.259-0.027,0.314-0.07
			c0.055-0.043,0.082-0.103,0.082-0.18c0-0.094-0.081-0.244-0.244-0.452l-1.715-2.191v1.855c0,0.362,0.025,0.601,0.076,0.715
			c0.051,0.113,0.123,0.195,0.217,0.244s0.297,0.075,0.61,0.079v0.22h-2.845v-0.22c0.285,0,0.499-0.034,0.641-0.104
			c0.086-0.045,0.151-0.114,0.195-0.208c0.062-0.134,0.092-0.366,0.092-0.695v-5.091c0-0.646-0.014-1.042-0.043-1.187
			c-0.028-0.145-0.075-0.244-0.14-0.3c-0.065-0.055-0.15-0.082-0.257-0.082c-0.085,0-0.213,0.034-0.385,0.104l-0.104-0.214
			l1.66-0.684H117.59z"/>
		<path style="fill:#0066FF;" d="M123.821,32.158v1.258c0.468-0.839,0.948-1.258,1.44-1.258c0.224,0,0.409,0.068,0.556,0.205
			c0.146,0.136,0.22,0.294,0.22,0.473c0,0.158-0.053,0.293-0.159,0.402c-0.105,0.11-0.231,0.165-0.378,0.165
			c-0.143,0-0.303-0.07-0.479-0.21c-0.177-0.141-0.308-0.211-0.394-0.211c-0.073,0-0.152,0.041-0.238,0.122
			c-0.183,0.167-0.372,0.441-0.567,0.824v2.679c0,0.31,0.039,0.544,0.116,0.702c0.053,0.11,0.146,0.202,0.28,0.274
			c0.135,0.074,0.328,0.11,0.58,0.11v0.22h-2.862v-0.22c0.284,0,0.496-0.045,0.635-0.134c0.102-0.065,0.173-0.169,0.213-0.312
			c0.021-0.069,0.031-0.267,0.031-0.593V34.49c0-0.651-0.014-1.039-0.04-1.163s-0.075-0.215-0.146-0.271s-0.159-0.085-0.266-0.085
			c-0.126,0-0.269,0.03-0.427,0.091l-0.062-0.22l1.69-0.684H123.821z"/>
	</g>
	<g>
		<path style="fill:#0066FF;" d="M17.184,44.501v0.866h-1.11v2.186h-1.007v-2.186h-3.503v-0.781l3.839-5.48h0.672v5.396H17.184z
			 M15.066,44.501v-4.107l-2.905,4.107H15.066z"/>
	</g>
	<g>
		<path style="fill:#0066FF;" d="M39.122,6.367h6.409v0.592h-6.409V6.367z M39.122,8.644h6.409v0.604h-6.409V8.644z"/>
	</g>
	<g>
		<path style="fill:#0066FF;" d="M0.226,33.281h6.409v0.592H0.226V33.281z M0.226,35.559h6.409v0.604H0.226V35.559z"/>
		<path style="fill:#0066FF;" d="M22.069,34.716c0,0.188-0.066,0.347-0.198,0.479c-0.132,0.132-0.29,0.198-0.473,0.198
			c-0.187,0-0.347-0.066-0.479-0.198c-0.132-0.133-0.199-0.292-0.199-0.479s0.066-0.347,0.199-0.479
			c0.132-0.132,0.292-0.198,0.479-0.198c0.183,0,0.341,0.066,0.473,0.198C22.003,34.369,22.069,34.528,22.069,34.716z"/>
		<path style="fill:#0066FF;" d="M74.898,33.281h6.409v0.592h-6.409V33.281z M74.898,35.559h6.409v0.604h-6.409V35.559z"/>
	</g>
</g>
<g id="theGroup">
</g>
</svg>
