<?xml version="1.0" encoding="iso-8859-1"?>
<!-- Generator: Adobe Illustrator 16.0.0, SVG Export Plug-In . SVG Version: 6.00 Build 0)  -->
<!DOCTYPE svg PUBLIC "-//W3C//DTD SVG 1.1//EN" "http://www.w3.org/Graphics/SVG/1.1/DTD/svg11.dtd">
<svg version="1.1" id="Lager_1" xmlns="http://www.w3.org/2000/svg" xmlns:xlink="http://www.w3.org/1999/xlink" x="0px" y="0px"
	 width="54.438px" height="17.832px" viewBox="0 0 54.438 17.832" style="enable-background:new 0 0 54.438 17.832;"
	 xml:space="preserve">
<g>
	<g>
		<path style="fill:#3A1968;" d="M3.882,14.268v0.227c-0.614-0.31-1.127-0.672-1.538-1.087c-0.586-0.59-1.038-1.286-1.355-2.087
			c-0.317-0.802-0.476-1.634-0.476-2.497c0-1.261,0.312-2.412,0.934-3.451c0.623-1.04,1.435-1.783,2.436-2.231v0.256
			c-0.5,0.277-0.912,0.655-1.233,1.135s-0.562,1.088-0.72,1.825C1.77,7.094,1.69,7.863,1.69,8.665c0,0.871,0.067,1.662,0.202,2.374
			c0.106,0.562,0.234,1.012,0.384,1.352c0.151,0.34,0.353,0.667,0.607,0.98C3.138,13.684,3.471,13.983,3.882,14.268z"/>
		<path style="fill:#3A1968;" d="M17.031,3.397V3.141c0.619,0.305,1.133,0.666,1.544,1.081c0.582,0.594,1.031,1.291,1.349,2.09
			c0.317,0.799,0.476,1.632,0.476,2.5c0,1.261-0.311,2.412-0.931,3.451c-0.621,1.04-1.434,1.783-2.438,2.231v-0.227
			c0.5-0.28,0.913-0.66,1.236-1.138c0.324-0.479,0.563-1.087,0.72-1.825s0.235-1.509,0.235-2.311c0-0.866-0.067-1.658-0.201-2.374
			c-0.102-0.562-0.229-1.011-0.381-1.349c-0.153-0.338-0.355-0.664-0.607-0.977C17.779,3.981,17.446,3.682,17.031,3.397z"/>
	</g>
	<g>
		<path style="fill:#3A1968;" d="M11.834,2.426h0.822l0.868,1.331l0.879-1.331l0.772,0.018l-1.273,1.825l1.33,1.937h-0.812
			l-0.938-1.418l-0.911,1.418h-0.805l1.331-1.937L11.834,2.426z"/>
		<path style="fill:#3A1968;" d="M24.826,2.426h0.702c-0.089,0.243-0.288,0.795-0.596,1.659c-0.23,0.65-0.423,1.179-0.579,1.589
			c-0.367,0.964-0.625,1.551-0.776,1.763c-0.15,0.211-0.409,0.317-0.775,0.317c-0.089,0-0.158-0.003-0.206-0.01
			c-0.048-0.007-0.108-0.02-0.178-0.039V7.126c0.11,0.031,0.19,0.049,0.239,0.057c0.049,0.007,0.093,0.01,0.131,0.01
			c0.117,0,0.204-0.019,0.259-0.058c0.055-0.039,0.102-0.086,0.139-0.143c0.012-0.019,0.054-0.115,0.126-0.289
			s0.126-0.303,0.159-0.387l-1.397-3.891h0.72l1.013,3.079L24.826,2.426z"/>
		<path style="fill:#3A1968;" d="M47.801,2.426h0.822l0.868,1.331l0.879-1.331l0.772,0.018l-1.273,1.825l1.33,1.937h-0.812
			l-0.938-1.418l-0.91,1.418h-0.805l1.33-1.937L47.801,2.426z"/>
		<path style="fill:#3A1968;" d="M53.652,2.426h0.702c-0.089,0.243-0.288,0.795-0.597,1.659c-0.23,0.65-0.423,1.179-0.578,1.589
			c-0.367,0.964-0.625,1.551-0.775,1.763c-0.15,0.211-0.409,0.317-0.776,0.317c-0.089,0-0.157-0.003-0.206-0.01
			c-0.048-0.007-0.107-0.02-0.178-0.039V7.126c0.11,0.031,0.19,0.049,0.239,0.057c0.05,0.007,0.093,0.01,0.131,0.01
			c0.117,0,0.203-0.019,0.259-0.058c0.055-0.039,0.102-0.086,0.139-0.143c0.012-0.019,0.055-0.115,0.127-0.289
			c0.073-0.174,0.126-0.303,0.159-0.387L50.9,2.426h0.72l1.013,3.079L53.652,2.426z"/>
	</g>
	<g>
		<path style="fill:#3A1968;" d="M8.811,7.864c0.252-0.032,0.421-0.138,0.507-0.317c0.048-0.098,0.073-0.239,0.073-0.423
			c0-0.375-0.133-0.648-0.399-0.818C8.726,6.137,8.345,6.053,7.85,6.053c-0.572,0-0.979,0.155-1.218,0.466
			C6.498,6.69,6.41,6.946,6.37,7.285H5.344c0.021-0.808,0.281-1.37,0.783-1.686s1.084-0.474,1.747-0.474
			c0.768,0,1.392,0.146,1.872,0.439c0.476,0.293,0.713,0.749,0.713,1.367v3.766c0,0.114,0.023,0.206,0.07,0.274
			c0.046,0.069,0.146,0.104,0.296,0.104c0.049,0,0.104-0.004,0.165-0.01c0.061-0.006,0.126-0.015,0.195-0.027v0.812
			c-0.171,0.049-0.301,0.079-0.391,0.092c-0.09,0.013-0.212,0.019-0.366,0.019c-0.379,0-0.653-0.135-0.824-0.403
			c-0.089-0.142-0.152-0.344-0.189-0.604c-0.224,0.293-0.545,0.547-0.964,0.763C8.032,11.933,7.57,12.04,7.065,12.04
			c-0.606,0-1.102-0.184-1.486-0.552c-0.384-0.368-0.577-0.828-0.577-1.381c0-0.605,0.189-1.075,0.568-1.408
			C5.948,8.366,6.445,8.161,7.06,8.083L8.811,7.864z M6.498,10.832c0.231,0.183,0.506,0.274,0.824,0.274
			c0.387,0,0.761-0.09,1.123-0.269c0.61-0.296,0.916-0.782,0.916-1.456V8.498C9.226,8.584,9.054,8.655,8.843,8.712
			C8.631,8.77,8.424,8.811,8.221,8.834L7.557,8.92C7.159,8.973,6.86,9.056,6.66,9.17c-0.34,0.19-0.51,0.495-0.51,0.913
			C6.15,10.399,6.266,10.649,6.498,10.832z"/>
		<path style="fill:#3A1968;" d="M44.776,7.864c0.252-0.032,0.421-0.138,0.506-0.317c0.049-0.098,0.073-0.239,0.073-0.423
			c0-0.375-0.133-0.648-0.398-0.818c-0.267-0.169-0.647-0.254-1.143-0.254c-0.572,0-0.979,0.155-1.218,0.466
			c-0.135,0.172-0.222,0.428-0.263,0.767h-1.025c0.021-0.808,0.282-1.37,0.784-1.686s1.084-0.474,1.746-0.474
			c0.769,0,1.393,0.146,1.872,0.439c0.476,0.293,0.713,0.749,0.713,1.367v3.766c0,0.114,0.023,0.206,0.07,0.274
			c0.047,0.069,0.146,0.104,0.296,0.104c0.049,0,0.104-0.004,0.165-0.01c0.061-0.006,0.126-0.015,0.195-0.027v0.812
			c-0.171,0.049-0.302,0.079-0.391,0.092c-0.09,0.013-0.212,0.019-0.366,0.019c-0.379,0-0.653-0.135-0.824-0.403
			c-0.09-0.142-0.152-0.344-0.189-0.604c-0.224,0.293-0.545,0.547-0.964,0.763s-0.881,0.323-1.386,0.323
			c-0.606,0-1.102-0.184-1.486-0.552s-0.577-0.828-0.577-1.381c0-0.605,0.189-1.075,0.568-1.408
			c0.378-0.333,0.875-0.539,1.489-0.616L44.776,7.864z M42.463,10.832c0.231,0.183,0.506,0.274,0.824,0.274
			c0.386,0,0.761-0.09,1.123-0.269c0.609-0.296,0.915-0.782,0.915-1.456V8.498c-0.134,0.086-0.307,0.157-0.518,0.214
			s-0.418,0.098-0.621,0.122L43.522,8.92c-0.398,0.053-0.697,0.136-0.898,0.25c-0.34,0.19-0.509,0.495-0.509,0.913
			C42.115,10.399,42.23,10.649,42.463,10.832z"/>
	</g>
	<g>
		<path style="fill:#3A1968;" d="M30.304,7.188h6.409V7.78h-6.409V7.188z M30.304,9.464h6.409v0.604h-6.409V9.464z"/>
	</g>
</g>
<g id="theGroup">
</g>
</svg>
