<?xml version="1.0" encoding="iso-8859-1"?>
<!-- Generator: Adobe Illustrator 16.0.0, SVG Export Plug-In . SVG Version: 6.00 Build 0)  -->
<!DOCTYPE svg PUBLIC "-//W3C//DTD SVG 1.1//EN" "http://www.w3.org/Graphics/SVG/1.1/DTD/svg11.dtd">
<svg version="1.1" id="Lager_1" xmlns="http://www.w3.org/2000/svg" xmlns:xlink="http://www.w3.org/1999/xlink" x="0px" y="0px"
	 width="23.803px" height="15.846px" viewBox="0 0 23.803 15.846" style="enable-background:new 0 0 23.803 15.846;"
	 xml:space="preserve">
<g>
	<g>
		<path d="M14.194,10.652v2.125c0,0.301,0.033,0.491,0.099,0.571c0.087,0.104,0.203,0.155,0.35,0.155h0.293v0.127h-1.931v-0.127
			h0.145c0.095,0,0.181-0.023,0.258-0.07c0.078-0.048,0.131-0.111,0.16-0.19c0.03-0.08,0.045-0.235,0.045-0.466v-2.125h-0.629
			v-0.254h0.629v-0.212c0-0.322,0.052-0.595,0.155-0.818s0.262-0.404,0.475-0.541c0.213-0.138,0.452-0.207,0.718-0.207
			c0.247,0,0.474,0.08,0.681,0.24c0.137,0.105,0.205,0.225,0.205,0.356c0,0.07-0.031,0.137-0.092,0.199
			c-0.062,0.062-0.127,0.094-0.197,0.094c-0.055,0-0.111-0.02-0.172-0.059c-0.06-0.039-0.133-0.122-0.221-0.25
			c-0.087-0.129-0.167-0.215-0.239-0.26c-0.073-0.045-0.154-0.067-0.244-0.067c-0.107,0-0.199,0.029-0.274,0.087
			c-0.076,0.058-0.13,0.146-0.163,0.268c-0.032,0.122-0.049,0.434-0.049,0.938v0.232h0.833v0.254H14.194z"/>
		<path d="M15.823,11.616c-0.003,0.479,0.114,0.856,0.349,1.129c0.235,0.273,0.512,0.409,0.83,0.409
			c0.211,0,0.396-0.058,0.552-0.175c0.156-0.116,0.287-0.315,0.394-0.598l0.109,0.07c-0.05,0.322-0.193,0.616-0.431,0.881
			s-0.535,0.396-0.893,0.396c-0.389,0-0.721-0.151-0.997-0.453c-0.276-0.303-0.414-0.709-0.414-1.22
			c0-0.553,0.142-0.983,0.425-1.293s0.64-0.464,1.067-0.464c0.362,0,0.66,0.119,0.893,0.358c0.233,0.238,0.35,0.558,0.35,0.958
			H15.823z M15.823,11.411h1.496c-0.012-0.207-0.037-0.353-0.074-0.438c-0.059-0.132-0.146-0.235-0.263-0.311
			c-0.117-0.075-0.238-0.112-0.365-0.112c-0.195,0-0.37,0.075-0.524,0.228C15.938,10.929,15.849,11.14,15.823,11.411z"/>
		<path d="M19.367,10.991c0.235-0.235,0.374-0.37,0.416-0.405c0.106-0.09,0.221-0.159,0.343-0.208
			c0.122-0.05,0.243-0.074,0.363-0.074c0.202,0,0.376,0.059,0.522,0.176c0.146,0.118,0.243,0.288,0.293,0.512
			c0.242-0.282,0.446-0.467,0.613-0.556c0.167-0.088,0.339-0.132,0.516-0.132c0.172,0,0.324,0.044,0.457,0.132
			c0.133,0.089,0.238,0.232,0.315,0.433c0.052,0.137,0.078,0.351,0.078,0.642V12.9c0,0.202,0.015,0.341,0.046,0.416
			c0.023,0.052,0.066,0.097,0.13,0.133c0.064,0.036,0.167,0.055,0.311,0.055v0.127h-1.595v-0.127h0.067
			c0.139,0,0.247-0.027,0.324-0.081c0.055-0.038,0.093-0.098,0.117-0.18c0.009-0.04,0.014-0.154,0.014-0.343v-1.391
			c0-0.263-0.032-0.449-0.096-0.557c-0.092-0.151-0.238-0.227-0.44-0.227c-0.125,0-0.25,0.031-0.376,0.094s-0.278,0.178-0.457,0.348
			l-0.007,0.039l0.007,0.151V12.9c0,0.222,0.013,0.358,0.037,0.413c0.024,0.054,0.071,0.1,0.14,0.136s0.185,0.055,0.349,0.055v0.127
			h-1.634v-0.127c0.18,0,0.302-0.021,0.369-0.063s0.113-0.106,0.14-0.19c0.012-0.04,0.018-0.156,0.018-0.35v-1.391
			c0-0.263-0.039-0.452-0.116-0.567c-0.104-0.15-0.249-0.227-0.435-0.227c-0.127,0-0.253,0.034-0.377,0.103
			c-0.195,0.104-0.347,0.22-0.452,0.35V12.9c0,0.212,0.015,0.35,0.044,0.413s0.073,0.111,0.131,0.143
			c0.058,0.032,0.175,0.048,0.351,0.048v0.127h-1.598v-0.127c0.147,0,0.251-0.016,0.311-0.048c0.059-0.031,0.104-0.082,0.134-0.151
			s0.046-0.204,0.046-0.404v-1.235c0-0.354-0.011-0.584-0.032-0.688c-0.017-0.078-0.042-0.131-0.077-0.161
			c-0.035-0.029-0.084-0.044-0.145-0.044c-0.066,0-0.145,0.018-0.236,0.053l-0.054-0.127l0.975-0.395h0.151V10.991z"/>
	</g>
	<g>
		<path d="M1.465,2.923l2.014-0.982h0.202v6.988c0,0.464,0.019,0.753,0.058,0.867c0.039,0.113,0.119,0.201,0.241,0.262
			c0.122,0.062,0.37,0.096,0.745,0.104v0.226H1.611v-0.226c0.391-0.009,0.643-0.042,0.757-0.101c0.114-0.06,0.193-0.139,0.238-0.238
			c0.044-0.1,0.067-0.397,0.067-0.895V4.461c0-0.602-0.021-0.988-0.061-1.159c-0.028-0.13-0.081-0.226-0.156-0.287
			S2.291,2.923,2.185,2.923c-0.15,0-0.36,0.063-0.628,0.189L1.465,2.923z"/>
		<path d="M6.702,6.299c0-0.944,0.143-1.757,0.427-2.438c0.285-0.681,0.663-1.189,1.135-1.523C8.63,2.073,9.009,1.941,9.399,1.941
			c0.635,0,1.205,0.323,1.709,0.971c0.631,0.801,0.946,1.888,0.946,3.259c0,0.96-0.139,1.776-0.415,2.448
			c-0.277,0.671-0.63,1.158-1.059,1.461c-0.43,0.304-0.843,0.455-1.242,0.455c-0.79,0-1.447-0.466-1.971-1.397
			C6.923,8.352,6.702,7.406,6.702,6.299z M7.898,6.452c0,1.139,0.14,2.069,0.421,2.789c0.231,0.606,0.578,0.909,1.037,0.909
			c0.22,0,0.448-0.099,0.684-0.296c0.236-0.197,0.415-0.528,0.537-0.991c0.188-0.7,0.281-1.687,0.281-2.961
			c0-0.944-0.098-1.731-0.293-2.362c-0.146-0.468-0.336-0.799-0.568-0.995C9.831,2.411,9.629,2.344,9.394,2.344
			c-0.277,0-0.523,0.124-0.739,0.373C8.362,3.054,8.163,3.585,8.057,4.309S7.898,5.748,7.898,6.452z"/>
	</g>
</g>
<g id="theGroup">
</g>
</svg>
