<?xml version="1.0" encoding="iso-8859-1"?>
<!-- Generator: Adobe Illustrator 16.0.0, SVG Export Plug-In . SVG Version: 6.00 Build 0)  -->
<!DOCTYPE svg PUBLIC "-//W3C//DTD SVG 1.1//EN" "http://www.w3.org/Graphics/SVG/1.1/DTD/svg11.dtd">
<svg version="1.1" id="Lager_1" xmlns="http://www.w3.org/2000/svg" xmlns:xlink="http://www.w3.org/1999/xlink" x="0px" y="0px"
	 width="188.413px" height="67.474px" viewBox="0 0 188.413 67.474" style="enable-background:new 0 0 188.413 67.474;"
	 xml:space="preserve">
<g>
	
		<line style="fill:none;stroke:#0066FF;stroke-width:0.5;stroke-linecap:square;stroke-miterlimit:10;" x1="76.642" y1="15.232" x2="178.009" y2="15.232"/>
	
		<line style="fill:none;stroke:#0066FF;stroke-width:0.5;stroke-linecap:square;stroke-miterlimit:10;" x1="10.587" y1="50.623" x2="69.337" y2="50.623"/>
	<g>
		<path style="fill:#0066FF;" d="M45.495,35.829l1.165-0.568h0.117v4.04c0,0.269,0.011,0.436,0.033,0.502
			c0.022,0.065,0.069,0.116,0.14,0.151c0.07,0.035,0.214,0.056,0.43,0.06v0.131H45.58v-0.131c0.226-0.004,0.372-0.023,0.438-0.058
			s0.112-0.08,0.138-0.138s0.039-0.23,0.039-0.518v-2.582c0-0.349-0.012-0.572-0.035-0.671c-0.017-0.075-0.046-0.131-0.09-0.166
			c-0.044-0.035-0.096-0.053-0.157-0.053c-0.087,0-0.208,0.036-0.363,0.109L45.495,35.829z"/>
		<path style="fill:#0066FF;" d="M49.094,35.829l1.165-0.568h0.117v4.04c0,0.269,0.011,0.436,0.033,0.502
			c0.022,0.065,0.069,0.116,0.14,0.151c0.07,0.035,0.214,0.056,0.43,0.06v0.131h-1.799v-0.131c0.226-0.004,0.372-0.023,0.438-0.058
			s0.112-0.08,0.138-0.138s0.039-0.23,0.039-0.518v-2.582c0-0.349-0.012-0.572-0.035-0.671c-0.017-0.075-0.046-0.131-0.09-0.166
			c-0.044-0.035-0.096-0.053-0.157-0.053c-0.087,0-0.208,0.036-0.363,0.109L49.094,35.829z"/>
	</g>
	<g>
		<path style="fill:#0066FF;" d="M51.738,55.596c-0.379-0.311-0.623-0.56-0.732-0.748s-0.165-0.383-0.165-0.586
			c0-0.311,0.12-0.578,0.36-0.803c0.24-0.225,0.559-0.337,0.956-0.337c0.386,0,0.696,0.104,0.932,0.314
			c0.235,0.209,0.353,0.448,0.353,0.716c0,0.179-0.063,0.361-0.19,0.547c-0.127,0.187-0.392,0.405-0.794,0.656
			c0.414,0.32,0.688,0.572,0.822,0.756c0.179,0.239,0.268,0.492,0.268,0.759c0,0.336-0.128,0.624-0.384,0.862
			c-0.257,0.238-0.593,0.358-1.009,0.358c-0.454,0-0.808-0.143-1.062-0.427c-0.203-0.229-0.304-0.478-0.304-0.749
			c0-0.211,0.071-0.421,0.213-0.629C51.145,56.077,51.39,55.848,51.738,55.596z M51.904,55.729c-0.195,0.165-0.34,0.345-0.434,0.538
			c-0.094,0.194-0.141,0.404-0.141,0.63c0,0.304,0.083,0.547,0.249,0.729c0.166,0.182,0.377,0.273,0.633,0.273
			c0.254,0,0.458-0.072,0.611-0.216c0.153-0.144,0.229-0.317,0.229-0.522c0-0.169-0.044-0.32-0.134-0.455
			C52.75,56.458,52.412,56.132,51.904,55.729z M52.292,55.219c0.282-0.255,0.461-0.455,0.536-0.603
			c0.075-0.146,0.113-0.313,0.113-0.499c0-0.247-0.069-0.44-0.208-0.58c-0.139-0.141-0.328-0.21-0.568-0.21
			c-0.24,0-0.435,0.069-0.585,0.208c-0.151,0.139-0.226,0.301-0.226,0.487c0,0.122,0.031,0.244,0.094,0.366
			c0.062,0.123,0.151,0.239,0.266,0.35L52.292,55.219z"/>
	</g>
	<g>
		<path style="fill:#0066FF;" d="M84.184,9.583c-0.574,0.443-0.934,0.7-1.081,0.769c-0.22,0.102-0.454,0.153-0.702,0.153
			c-0.387,0-0.705-0.132-0.956-0.397c-0.25-0.265-0.375-0.612-0.375-1.043c0-0.273,0.062-0.509,0.184-0.708
			c0.167-0.277,0.457-0.537,0.87-0.781c0.413-0.244,1.1-0.542,2.06-0.892v-0.22c0-0.557-0.089-0.939-0.266-1.147
			c-0.177-0.207-0.435-0.311-0.772-0.311c-0.256,0-0.459,0.069-0.61,0.208c-0.154,0.138-0.231,0.297-0.231,0.476l0.012,0.354
			c0,0.187-0.048,0.332-0.143,0.434c-0.096,0.102-0.221,0.152-0.375,0.152c-0.15,0-0.274-0.053-0.369-0.159
			c-0.096-0.106-0.144-0.25-0.144-0.433c0-0.35,0.179-0.672,0.537-0.965s0.86-0.439,1.508-0.439c0.496,0,0.903,0.083,1.221,0.25
			c0.24,0.126,0.417,0.324,0.531,0.592c0.073,0.175,0.11,0.533,0.11,1.074v1.898c0,0.533,0.01,0.86,0.03,0.979
			c0.021,0.12,0.054,0.201,0.101,0.241c0.046,0.041,0.101,0.061,0.162,0.061c0.065,0,0.122-0.014,0.171-0.043
			c0.085-0.053,0.25-0.201,0.494-0.445v0.342c-0.456,0.61-0.891,0.916-1.306,0.916c-0.2,0-0.358-0.069-0.477-0.208
			C84.249,10.152,84.188,9.916,84.184,9.583z M84.184,9.186v-2.13c-0.615,0.244-1.011,0.417-1.19,0.519
			c-0.321,0.179-0.551,0.366-0.689,0.562c-0.139,0.195-0.208,0.409-0.208,0.641c0,0.293,0.088,0.536,0.263,0.729
			s0.376,0.29,0.604,0.29C83.272,9.796,83.679,9.593,84.184,9.186z"/>
		<path style="fill:#0066FF;" d="M86.202,4.797h2.631v0.226h-0.171c-0.159,0-0.28,0.039-0.363,0.116s-0.125,0.181-0.125,0.312
			c0,0.142,0.043,0.311,0.128,0.506l1.3,3.088l1.306-3.204c0.094-0.228,0.141-0.401,0.141-0.519c0-0.057-0.017-0.104-0.049-0.14
			c-0.045-0.062-0.102-0.103-0.171-0.125c-0.069-0.022-0.21-0.034-0.421-0.034V4.797h1.825v0.226
			c-0.211,0.017-0.358,0.059-0.439,0.128c-0.142,0.122-0.271,0.326-0.384,0.61l-1.984,4.797h-0.25l-1.996-4.718
			c-0.089-0.22-0.175-0.377-0.256-0.473c-0.082-0.096-0.186-0.176-0.312-0.241c-0.069-0.037-0.206-0.071-0.409-0.104V4.797z"/>
		<path style="fill:#0066FF;" d="M96.165,4.632v1.904h-0.201c-0.155-0.598-0.354-1.005-0.596-1.221
			c-0.242-0.215-0.55-0.323-0.925-0.323c-0.285,0-0.515,0.075-0.69,0.226c-0.175,0.151-0.262,0.317-0.262,0.501
			c0,0.228,0.065,0.423,0.195,0.586c0.126,0.167,0.382,0.344,0.769,0.531l0.891,0.433c0.826,0.403,1.238,0.934,1.238,1.593
			c0,0.509-0.191,0.918-0.576,1.23c-0.384,0.311-0.815,0.467-1.291,0.467c-0.342,0-0.732-0.061-1.172-0.183
			c-0.135-0.041-0.244-0.061-0.33-0.061c-0.093,0-0.167,0.053-0.22,0.159h-0.201V8.478h0.201c0.114,0.569,0.332,0.999,0.653,1.288
			s0.682,0.433,1.08,0.433c0.281,0,0.51-0.082,0.687-0.247c0.177-0.165,0.265-0.363,0.265-0.595c0-0.281-0.099-0.517-0.296-0.708
			c-0.197-0.191-0.591-0.434-1.181-0.727c-0.59-0.293-0.977-0.558-1.16-0.793c-0.183-0.232-0.274-0.525-0.274-0.879
			c0-0.46,0.158-0.844,0.473-1.154c0.315-0.309,0.723-0.464,1.224-0.464c0.22,0,0.486,0.047,0.799,0.141
			c0.208,0.061,0.346,0.092,0.415,0.092c0.065,0,0.116-0.015,0.153-0.043c0.037-0.028,0.08-0.092,0.129-0.189H96.165z"/>
		<path style="fill:#0066FF;" d="M99.052,2.96v1.837h1.307v0.427h-1.307V8.85c0,0.362,0.053,0.606,0.156,0.732
			s0.237,0.189,0.399,0.189c0.135,0,0.265-0.042,0.391-0.125c0.126-0.083,0.224-0.207,0.293-0.369h0.238
			c-0.143,0.399-0.344,0.699-0.604,0.9c-0.26,0.201-0.528,0.302-0.806,0.302c-0.187,0-0.37-0.052-0.549-0.156
			c-0.18-0.104-0.312-0.252-0.397-0.446c-0.085-0.193-0.128-0.491-0.128-0.894v-3.76H97.16V5.023
			c0.224-0.089,0.452-0.241,0.687-0.455c0.234-0.213,0.442-0.467,0.626-0.76c0.094-0.155,0.224-0.438,0.391-0.848H99.052z"/>
		<path style="fill:#0066FF;" d="M104.106,9.583c-0.574,0.443-0.934,0.7-1.08,0.769c-0.221,0.102-0.454,0.153-0.702,0.153
			c-0.387,0-0.705-0.132-0.955-0.397c-0.251-0.265-0.376-0.612-0.376-1.043c0-0.273,0.062-0.509,0.184-0.708
			c0.167-0.277,0.456-0.537,0.869-0.781s1.1-0.542,2.061-0.892v-0.22c0-0.557-0.089-0.939-0.266-1.147
			c-0.177-0.207-0.435-0.311-0.772-0.311c-0.256,0-0.46,0.069-0.61,0.208c-0.154,0.138-0.231,0.297-0.231,0.476l0.012,0.354
			c0,0.187-0.048,0.332-0.144,0.434c-0.096,0.102-0.221,0.152-0.375,0.152c-0.15,0-0.273-0.053-0.369-0.159s-0.144-0.25-0.144-0.433
			c0-0.35,0.179-0.672,0.537-0.965s0.86-0.439,1.508-0.439c0.496,0,0.903,0.083,1.221,0.25c0.24,0.126,0.417,0.324,0.53,0.592
			c0.074,0.175,0.11,0.533,0.11,1.074v1.898c0,0.533,0.01,0.86,0.03,0.979c0.021,0.12,0.054,0.201,0.101,0.241
			s0.101,0.061,0.162,0.061c0.065,0,0.122-0.014,0.171-0.043c0.086-0.053,0.25-0.201,0.494-0.445v0.342
			c-0.455,0.61-0.891,0.916-1.306,0.916c-0.199,0-0.358-0.069-0.477-0.208S104.11,9.916,104.106,9.583z M104.106,9.186v-2.13
			c-0.614,0.244-1.012,0.417-1.19,0.519c-0.321,0.179-0.552,0.366-0.689,0.562c-0.139,0.195-0.208,0.409-0.208,0.641
			c0,0.293,0.088,0.536,0.263,0.729s0.376,0.29,0.604,0.29C103.194,9.796,103.602,9.593,104.106,9.186z M103.343,1.685
			c0.326,0,0.603,0.114,0.83,0.342c0.229,0.228,0.342,0.502,0.342,0.824c0,0.326-0.113,0.603-0.342,0.83
			c-0.228,0.228-0.504,0.342-0.83,0.342c-0.321,0-0.596-0.114-0.823-0.342c-0.229-0.228-0.342-0.504-0.342-0.83
			c0-0.321,0.112-0.596,0.339-0.824C102.742,1.798,103.018,1.685,103.343,1.685z M103.343,2.106c-0.207,0-0.383,0.072-0.527,0.216
			c-0.145,0.145-0.217,0.321-0.217,0.528c0,0.204,0.072,0.379,0.217,0.525s0.32,0.22,0.527,0.22c0.208,0,0.384-0.073,0.528-0.22
			s0.217-0.322,0.217-0.525c0-0.207-0.072-0.383-0.217-0.528C103.727,2.178,103.551,2.106,103.343,2.106z"/>
		<path style="fill:#0066FF;" d="M108.042,5.817c0.655-0.79,1.279-1.185,1.874-1.185c0.305,0,0.567,0.077,0.787,0.229
			c0.22,0.153,0.395,0.404,0.524,0.754c0.09,0.244,0.135,0.619,0.135,1.123v2.386c0,0.354,0.028,0.594,0.085,0.721
			c0.045,0.102,0.117,0.181,0.217,0.238s0.284,0.085,0.553,0.085v0.22h-2.766v-0.22h0.116c0.261,0,0.442-0.04,0.547-0.119
			c0.104-0.079,0.176-0.196,0.216-0.351c0.017-0.062,0.025-0.252,0.025-0.574V6.836c0-0.509-0.066-0.878-0.199-1.108
			c-0.132-0.229-0.354-0.345-0.668-0.345c-0.484,0-0.967,0.265-1.446,0.793v2.948c0,0.379,0.022,0.613,0.067,0.702
			c0.057,0.118,0.135,0.205,0.234,0.259c0.1,0.055,0.303,0.083,0.607,0.083v0.22h-2.765v-0.22h0.122
			c0.284,0,0.477-0.072,0.576-0.217c0.1-0.144,0.15-0.42,0.15-0.827V7.049c0-0.671-0.016-1.08-0.046-1.227
			c-0.031-0.146-0.078-0.246-0.141-0.299c-0.063-0.053-0.147-0.08-0.253-0.08c-0.114,0-0.251,0.031-0.409,0.091l-0.092-0.22
			l1.685-0.684h0.263V5.817z"/>
		<path style="fill:#0066FF;" d="M116.611,9.759c-0.272,0.285-0.539,0.49-0.8,0.614s-0.541,0.186-0.843,0.186
			c-0.609,0-1.143-0.255-1.599-0.766c-0.456-0.51-0.684-1.167-0.684-1.968s0.252-1.535,0.757-2.2
			c0.505-0.666,1.153-0.998,1.947-0.998c0.492,0,0.899,0.157,1.221,0.47V4.065c0-0.639-0.016-1.031-0.046-1.178
			s-0.078-0.247-0.144-0.299s-0.146-0.08-0.244-0.08c-0.105,0-0.246,0.033-0.421,0.098l-0.079-0.213l1.666-0.684h0.274v6.463
			c0,0.655,0.016,1.055,0.046,1.2s0.079,0.245,0.146,0.302c0.067,0.057,0.146,0.085,0.234,0.085c0.11,0,0.257-0.034,0.439-0.104
			l0.067,0.214l-1.66,0.689h-0.28V9.759z M116.611,9.333V6.452c-0.024-0.277-0.098-0.529-0.22-0.757
			c-0.122-0.228-0.284-0.4-0.485-0.516c-0.201-0.116-0.397-0.174-0.589-0.174c-0.358,0-0.678,0.161-0.958,0.482
			c-0.371,0.423-0.556,1.042-0.556,1.855c0,0.822,0.179,1.452,0.537,1.889c0.357,0.438,0.757,0.656,1.196,0.656
			C115.907,9.888,116.266,9.703,116.611,9.333z"/>
		<path style="fill:#0066FF;" d="M119.852,6.903c-0.004,0.83,0.198,1.481,0.604,1.953c0.407,0.472,0.886,0.708,1.435,0.708
			c0.366,0,0.685-0.101,0.955-0.302c0.271-0.202,0.498-0.546,0.681-1.035l0.189,0.122c-0.086,0.558-0.334,1.065-0.745,1.523
			c-0.411,0.458-0.926,0.687-1.544,0.687c-0.671,0-1.246-0.261-1.725-0.784c-0.478-0.523-0.717-1.226-0.717-2.109
			c0-0.956,0.245-1.702,0.735-2.237s1.105-0.803,1.847-0.803c0.626,0,1.142,0.207,1.544,0.62s0.604,0.965,0.604,1.657H119.852z
			 M119.852,6.549h2.588c-0.02-0.358-0.062-0.61-0.128-0.757c-0.102-0.228-0.253-0.407-0.454-0.537
			c-0.202-0.13-0.412-0.195-0.632-0.195c-0.338,0-0.641,0.131-0.906,0.394C120.053,5.716,119.896,6.081,119.852,6.549z"/>
		<path style="fill:#0066FF;" d="M126.008,2.96v1.837h1.307v0.427h-1.307V8.85c0,0.362,0.053,0.606,0.156,0.732
			s0.237,0.189,0.399,0.189c0.135,0,0.265-0.042,0.391-0.125c0.126-0.083,0.224-0.207,0.293-0.369h0.238
			c-0.143,0.399-0.344,0.699-0.604,0.9c-0.26,0.201-0.528,0.302-0.806,0.302c-0.187,0-0.37-0.052-0.549-0.156
			c-0.18-0.104-0.312-0.252-0.397-0.446c-0.085-0.193-0.128-0.491-0.128-0.894v-3.76h-0.885V5.023
			c0.224-0.089,0.452-0.241,0.687-0.455c0.234-0.213,0.442-0.467,0.626-0.76c0.094-0.155,0.224-0.438,0.391-0.848H126.008z"/>
		<path style="fill:#0066FF;" d="M132.644,2.96v1.837h1.307v0.427h-1.307V8.85c0,0.362,0.053,0.606,0.156,0.732
			s0.237,0.189,0.399,0.189c0.135,0,0.265-0.042,0.391-0.125c0.126-0.083,0.224-0.207,0.293-0.369h0.238
			c-0.143,0.399-0.344,0.699-0.604,0.9c-0.26,0.201-0.528,0.302-0.806,0.302c-0.187,0-0.37-0.052-0.549-0.156
			c-0.18-0.104-0.312-0.252-0.397-0.446c-0.085-0.193-0.128-0.491-0.128-0.894v-3.76h-0.885V5.023
			c0.224-0.089,0.452-0.241,0.687-0.455c0.234-0.213,0.442-0.467,0.626-0.76c0.094-0.155,0.224-0.438,0.391-0.848H132.644z"/>
		<path style="fill:#0066FF;" d="M136.459,4.632v4.492c0,0.35,0.025,0.583,0.076,0.699c0.051,0.116,0.126,0.202,0.226,0.259
			s0.282,0.085,0.547,0.085v0.22h-2.717v-0.22c0.273,0,0.456-0.026,0.55-0.079c0.094-0.053,0.168-0.141,0.223-0.263
			s0.083-0.356,0.083-0.702V6.97c0-0.606-0.019-0.999-0.056-1.178c-0.028-0.13-0.073-0.221-0.134-0.272
			c-0.062-0.051-0.145-0.076-0.25-0.076c-0.114,0-0.253,0.031-0.416,0.091l-0.085-0.22l1.685-0.684H136.459z M135.952,1.709
			c0.171,0,0.316,0.06,0.437,0.18s0.181,0.266,0.181,0.437s-0.061,0.317-0.181,0.439s-0.266,0.183-0.437,0.183
			s-0.317-0.061-0.439-0.183s-0.183-0.269-0.183-0.439s0.06-0.316,0.18-0.437S135.777,1.709,135.952,1.709z"/>
		<path style="fill:#0066FF;" d="M139.964,1.709v7.416c0,0.35,0.025,0.582,0.076,0.696c0.051,0.114,0.129,0.2,0.235,0.259
			c0.105,0.059,0.303,0.088,0.592,0.088v0.22h-2.74v-0.22c0.256,0,0.431-0.026,0.524-0.079c0.094-0.053,0.167-0.141,0.22-0.263
			s0.079-0.356,0.079-0.702V4.046c0-0.63-0.014-1.018-0.042-1.163c-0.029-0.144-0.075-0.243-0.138-0.296
			c-0.063-0.053-0.144-0.08-0.241-0.08c-0.105,0-0.24,0.033-0.402,0.098l-0.104-0.213l1.667-0.684H139.964z"/>
		<path style="fill:#0066FF;" d="M143.287,1.709v7.416c0,0.35,0.025,0.582,0.076,0.696c0.051,0.114,0.129,0.2,0.235,0.259
			c0.105,0.059,0.303,0.088,0.592,0.088v0.22h-2.74v-0.22c0.256,0,0.431-0.026,0.524-0.079c0.094-0.053,0.167-0.141,0.22-0.263
			s0.079-0.356,0.079-0.702V4.046c0-0.63-0.014-1.018-0.042-1.163c-0.029-0.144-0.075-0.243-0.138-0.296
			c-0.063-0.053-0.144-0.08-0.241-0.08c-0.105,0-0.24,0.033-0.402,0.098l-0.104-0.213l1.667-0.684H143.287z"/>
		<path style="fill:#0066FF;" d="M151.425,4.632v1.904h-0.201c-0.155-0.598-0.354-1.005-0.596-1.221
			c-0.242-0.215-0.55-0.323-0.924-0.323c-0.285,0-0.516,0.075-0.69,0.226c-0.175,0.151-0.263,0.317-0.263,0.501
			c0,0.228,0.065,0.423,0.195,0.586c0.127,0.167,0.383,0.344,0.77,0.531l0.891,0.433c0.826,0.403,1.239,0.934,1.239,1.593
			c0,0.509-0.192,0.918-0.576,1.23c-0.385,0.311-0.815,0.467-1.291,0.467c-0.342,0-0.732-0.061-1.172-0.183
			c-0.135-0.041-0.244-0.061-0.33-0.061c-0.094,0-0.167,0.053-0.22,0.159h-0.201V8.478h0.201c0.114,0.569,0.332,0.999,0.653,1.288
			s0.682,0.433,1.08,0.433c0.281,0,0.51-0.082,0.687-0.247c0.178-0.165,0.266-0.363,0.266-0.595c0-0.281-0.099-0.517-0.296-0.708
			c-0.197-0.191-0.591-0.434-1.181-0.727s-0.977-0.558-1.16-0.793c-0.183-0.232-0.274-0.525-0.274-0.879
			c0-0.46,0.157-0.844,0.473-1.154c0.315-0.309,0.724-0.464,1.224-0.464c0.221,0,0.486,0.047,0.8,0.141
			c0.208,0.061,0.346,0.092,0.415,0.092c0.065,0,0.116-0.015,0.152-0.043c0.037-0.028,0.08-0.092,0.129-0.189H151.425z"/>
		<path style="fill:#0066FF;" d="M155.423,4.632c0.847,0,1.525,0.322,2.039,0.965c0.435,0.549,0.652,1.18,0.652,1.892
			c0,0.501-0.12,1.007-0.359,1.52c-0.24,0.513-0.571,0.899-0.992,1.16s-0.891,0.391-1.407,0.391c-0.842,0-1.512-0.336-2.008-1.007
			c-0.419-0.566-0.629-1.201-0.629-1.904c0-0.513,0.127-1.022,0.382-1.529c0.254-0.506,0.589-0.881,1.004-1.123
			C154.52,4.754,154.959,4.632,155.423,4.632z M155.233,5.029c-0.216,0-0.433,0.064-0.649,0.192
			c-0.218,0.128-0.394,0.353-0.528,0.674s-0.201,0.734-0.201,1.239c0,0.813,0.161,1.516,0.485,2.105
			c0.323,0.59,0.749,0.885,1.278,0.885c0.395,0,0.721-0.163,0.977-0.488c0.256-0.325,0.385-0.885,0.385-1.678
			c0-0.993-0.214-1.774-0.641-2.344C156.05,5.225,155.682,5.029,155.233,5.029z"/>
		<path style="fill:#0066FF;" d="M160.861,1.709v7.416c0,0.35,0.025,0.582,0.076,0.696c0.051,0.114,0.129,0.2,0.235,0.259
			c0.105,0.059,0.303,0.088,0.592,0.088v0.22h-2.74v-0.22c0.256,0,0.431-0.026,0.524-0.079c0.094-0.053,0.167-0.141,0.22-0.263
			s0.079-0.356,0.079-0.702V4.046c0-0.63-0.014-1.018-0.042-1.163c-0.029-0.144-0.075-0.243-0.138-0.296
			c-0.063-0.053-0.144-0.08-0.241-0.08c-0.105,0-0.24,0.033-0.402,0.098l-0.104-0.213l1.667-0.684H160.861z"/>
		<path style="fill:#0066FF;" d="M163.201,6.903c-0.004,0.83,0.198,1.481,0.604,1.953c0.407,0.472,0.886,0.708,1.435,0.708
			c0.366,0,0.685-0.101,0.955-0.302c0.271-0.202,0.498-0.546,0.681-1.035l0.189,0.122c-0.086,0.558-0.334,1.065-0.745,1.523
			c-0.411,0.458-0.926,0.687-1.544,0.687c-0.671,0-1.246-0.261-1.725-0.784c-0.478-0.523-0.717-1.226-0.717-2.109
			c0-0.956,0.245-1.702,0.735-2.237s1.105-0.803,1.847-0.803c0.626,0,1.142,0.207,1.544,0.62s0.604,0.965,0.604,1.657H163.201z
			 M163.201,6.549h2.588c-0.02-0.358-0.062-0.61-0.128-0.757c-0.102-0.228-0.253-0.407-0.454-0.537
			c-0.202-0.13-0.412-0.195-0.632-0.195c-0.338,0-0.641,0.131-0.906,0.394C163.402,5.716,163.246,6.081,163.201,6.549z"/>
		<path style="fill:#0066FF;" d="M169.364,5.817c0.655-0.79,1.279-1.185,1.874-1.185c0.305,0,0.567,0.077,0.787,0.229
			c0.22,0.153,0.395,0.404,0.524,0.754c0.09,0.244,0.135,0.619,0.135,1.123v2.386c0,0.354,0.028,0.594,0.085,0.721
			c0.045,0.102,0.117,0.181,0.217,0.238s0.284,0.085,0.553,0.085v0.22h-2.766v-0.22h0.116c0.261,0,0.442-0.04,0.547-0.119
			c0.104-0.079,0.176-0.196,0.216-0.351c0.017-0.062,0.025-0.252,0.025-0.574V6.836c0-0.509-0.066-0.878-0.199-1.108
			c-0.132-0.229-0.354-0.345-0.668-0.345c-0.484,0-0.967,0.265-1.446,0.793v2.948c0,0.379,0.022,0.613,0.067,0.702
			c0.057,0.118,0.135,0.205,0.234,0.259c0.1,0.055,0.303,0.083,0.607,0.083v0.22h-2.765v-0.22h0.122
			c0.284,0,0.477-0.072,0.576-0.217c0.1-0.144,0.15-0.42,0.15-0.827V7.049c0-0.671-0.016-1.08-0.046-1.227
			c-0.031-0.146-0.078-0.246-0.141-0.299c-0.063-0.053-0.147-0.08-0.253-0.08c-0.114,0-0.251,0.031-0.409,0.091l-0.092-0.22
			l1.685-0.684h0.263V5.817z"/>
	</g>
	<g>
		<path style="fill:#0066FF;" d="M2.558,10.718v3.253h1.507c0.346,0,0.599-0.077,0.76-0.229c0.161-0.153,0.268-0.455,0.321-0.907
			h0.226v2.802H5.146C5.141,15.316,5.1,15.08,5.02,14.929c-0.079-0.15-0.189-0.263-0.33-0.339c-0.14-0.075-0.349-0.113-0.625-0.113
			H2.558v2.6c0,0.419,0.026,0.696,0.079,0.83c0.041,0.102,0.126,0.189,0.256,0.263c0.179,0.098,0.366,0.146,0.562,0.146h0.299v0.226
			H0.201v-0.226h0.293c0.342,0,0.59-0.1,0.745-0.299c0.098-0.13,0.146-0.443,0.146-0.94v-5.347c0-0.419-0.027-0.696-0.08-0.83
			c-0.041-0.102-0.124-0.189-0.25-0.263c-0.175-0.098-0.362-0.146-0.562-0.146H0.201v-0.226H6.36l0.08,1.819H6.226
			c-0.106-0.387-0.229-0.67-0.369-0.852c-0.141-0.181-0.313-0.312-0.519-0.394s-0.524-0.122-0.955-0.122H2.558z"/>
		<path style="fill:#0066FF;" d="M9.964,12.787c0.846,0,1.526,0.322,2.039,0.965c0.436,0.549,0.653,1.18,0.653,1.892
			c0,0.501-0.12,1.007-0.36,1.52s-0.571,0.899-0.992,1.16c-0.421,0.26-0.89,0.391-1.407,0.391c-0.842,0-1.511-0.336-2.008-1.007
			C7.47,17.141,7.26,16.506,7.26,15.802c0-0.513,0.127-1.022,0.382-1.529c0.254-0.506,0.589-0.881,1.004-1.123
			C9.061,12.908,9.5,12.787,9.964,12.787z M8.878,10.388c0.187,0,0.345,0.065,0.473,0.195c0.128,0.13,0.192,0.287,0.192,0.47
			c0,0.184-0.065,0.339-0.195,0.467c-0.13,0.128-0.285,0.192-0.464,0.192c-0.184,0-0.34-0.064-0.47-0.192
			c-0.13-0.128-0.195-0.284-0.195-0.467c0-0.183,0.064-0.339,0.192-0.47C8.539,10.453,8.695,10.388,8.878,10.388z M9.775,13.184
			c-0.215,0-0.432,0.064-0.65,0.192c-0.218,0.128-0.394,0.353-0.528,0.674s-0.201,0.734-0.201,1.239
			c0,0.813,0.162,1.516,0.485,2.105c0.324,0.59,0.75,0.885,1.279,0.885c0.395,0,0.72-0.163,0.977-0.488
			c0.256-0.325,0.385-0.885,0.385-1.678c0-0.993-0.214-1.774-0.641-2.344C10.591,13.379,10.223,13.184,9.775,13.184z M11.033,10.388
			c0.183,0,0.338,0.065,0.467,0.195c0.128,0.13,0.192,0.287,0.192,0.47c0,0.184-0.064,0.339-0.192,0.467
			c-0.128,0.128-0.284,0.192-0.467,0.192c-0.184,0-0.34-0.064-0.47-0.192c-0.13-0.128-0.195-0.284-0.195-0.467
			c0-0.183,0.065-0.339,0.195-0.47S10.849,10.388,11.033,10.388z"/>
		<path style="fill:#0066FF;" d="M15.116,12.787v1.258c0.468-0.838,0.948-1.258,1.44-1.258c0.224,0,0.409,0.068,0.556,0.205
			c0.146,0.137,0.22,0.294,0.22,0.473c0,0.159-0.053,0.293-0.159,0.403c-0.105,0.11-0.231,0.165-0.378,0.165
			c-0.143,0-0.302-0.07-0.479-0.21c-0.177-0.14-0.308-0.21-0.394-0.21c-0.073,0-0.152,0.041-0.238,0.122
			c-0.183,0.167-0.372,0.441-0.567,0.824v2.679c0,0.309,0.039,0.543,0.116,0.702c0.053,0.11,0.146,0.202,0.28,0.275
			c0.135,0.073,0.328,0.11,0.58,0.11v0.22H13.23v-0.22c0.285,0,0.496-0.045,0.635-0.134c0.102-0.065,0.173-0.169,0.213-0.311
			c0.021-0.069,0.031-0.267,0.031-0.592v-2.167c0-0.651-0.014-1.039-0.04-1.163c-0.026-0.124-0.075-0.214-0.146-0.271
			s-0.16-0.085-0.266-0.085c-0.126,0-0.269,0.031-0.427,0.091l-0.062-0.22l1.691-0.684H15.116z"/>
		<path style="fill:#0066FF;" d="M19.234,9.863v4.089c0.452-0.497,0.81-0.815,1.074-0.955c0.265-0.141,0.529-0.211,0.794-0.211
			c0.317,0,0.59,0.088,0.817,0.263c0.228,0.175,0.397,0.45,0.507,0.824c0.077,0.26,0.116,0.736,0.116,1.428v1.978
			c0,0.354,0.028,0.596,0.085,0.727c0.041,0.098,0.11,0.175,0.208,0.232s0.276,0.085,0.537,0.085v0.22h-2.747v-0.22h0.128
			c0.26,0,0.441-0.04,0.543-0.119c0.102-0.079,0.173-0.196,0.213-0.351c0.012-0.065,0.018-0.257,0.018-0.574v-1.978
			c0-0.61-0.031-1.011-0.094-1.202c-0.063-0.191-0.164-0.334-0.302-0.43s-0.305-0.144-0.5-0.144c-0.199,0-0.407,0.053-0.623,0.159
			s-0.474,0.319-0.775,0.641v2.954c0,0.383,0.021,0.621,0.064,0.714c0.042,0.094,0.122,0.172,0.238,0.235
			c0.116,0.063,0.316,0.095,0.601,0.095v0.22h-2.771v-0.22c0.248,0,0.443-0.039,0.586-0.116c0.081-0.041,0.146-0.118,0.195-0.231
			c0.049-0.114,0.073-0.346,0.073-0.696v-5.06c0-0.639-0.016-1.031-0.046-1.178c-0.031-0.146-0.078-0.247-0.141-0.299
			s-0.147-0.08-0.253-0.08c-0.086,0-0.224,0.033-0.415,0.098l-0.086-0.213l1.673-0.684H19.234z"/>
		<path style="fill:#0066FF;" d="M27.011,17.737c-0.574,0.443-0.934,0.7-1.081,0.769c-0.22,0.102-0.454,0.153-0.702,0.153
			c-0.387,0-0.705-0.132-0.956-0.397c-0.25-0.265-0.375-0.612-0.375-1.043c0-0.273,0.062-0.509,0.184-0.708
			c0.167-0.277,0.457-0.537,0.87-0.781c0.413-0.244,1.1-0.542,2.06-0.892v-0.22c0-0.557-0.089-0.939-0.266-1.147
			c-0.177-0.207-0.435-0.311-0.772-0.311c-0.256,0-0.459,0.069-0.61,0.208c-0.154,0.138-0.231,0.297-0.231,0.476l0.012,0.354
			c0,0.187-0.048,0.332-0.143,0.434c-0.096,0.102-0.221,0.152-0.375,0.152c-0.15,0-0.274-0.053-0.369-0.159
			c-0.096-0.106-0.144-0.25-0.144-0.433c0-0.35,0.179-0.672,0.537-0.965s0.86-0.439,1.508-0.439c0.496,0,0.903,0.083,1.221,0.25
			c0.24,0.126,0.417,0.324,0.531,0.592c0.073,0.175,0.11,0.533,0.11,1.074v1.898c0,0.533,0.01,0.86,0.03,0.979
			c0.021,0.12,0.054,0.201,0.101,0.241c0.046,0.041,0.101,0.061,0.162,0.061c0.065,0,0.122-0.014,0.171-0.043
			c0.085-0.053,0.25-0.201,0.494-0.445v0.342c-0.456,0.61-0.891,0.916-1.306,0.916c-0.2,0-0.358-0.069-0.477-0.208
			C27.076,18.307,27.015,18.07,27.011,17.737z M27.011,17.34v-2.13c-0.615,0.244-1.011,0.417-1.19,0.519
			c-0.321,0.179-0.551,0.366-0.689,0.562c-0.139,0.195-0.208,0.409-0.208,0.641c0,0.293,0.088,0.536,0.263,0.729
			s0.376,0.29,0.604,0.29C26.099,17.951,26.506,17.747,27.011,17.34z M26.248,9.839c0.326,0,0.602,0.114,0.83,0.342
			s0.342,0.502,0.342,0.824c0,0.326-0.114,0.603-0.342,0.83c-0.228,0.228-0.504,0.342-0.83,0.342c-0.321,0-0.596-0.114-0.824-0.342
			c-0.228-0.228-0.342-0.504-0.342-0.83c0-0.321,0.113-0.596,0.338-0.824C25.646,9.953,25.922,9.839,26.248,9.839z M26.248,10.26
			c-0.208,0-0.384,0.072-0.528,0.216c-0.145,0.145-0.217,0.321-0.217,0.528c0,0.204,0.072,0.379,0.217,0.525
			c0.144,0.146,0.32,0.22,0.528,0.22s0.383-0.073,0.528-0.22s0.217-0.322,0.217-0.525c0-0.207-0.072-0.383-0.217-0.528
			C26.631,10.333,26.455,10.26,26.248,10.26z"/>
		<path style="fill:#0066FF;" d="M31.239,9.863v7.416c0,0.35,0.025,0.582,0.076,0.696c0.051,0.114,0.129,0.2,0.235,0.259
			s0.303,0.088,0.592,0.088v0.22h-2.741v-0.22c0.256,0,0.431-0.026,0.525-0.079c0.094-0.053,0.167-0.141,0.22-0.263
			s0.079-0.356,0.079-0.702v-5.078c0-0.63-0.014-1.018-0.042-1.163c-0.028-0.144-0.074-0.243-0.137-0.296
			c-0.063-0.053-0.144-0.08-0.241-0.08c-0.106,0-0.24,0.033-0.403,0.098l-0.104-0.213l1.667-0.684H31.239z"/>
		<path style="fill:#0066FF;" d="M34.562,9.863v7.416c0,0.35,0.025,0.582,0.076,0.696c0.051,0.114,0.129,0.2,0.235,0.259
			s0.303,0.088,0.592,0.088v0.22h-2.741v-0.22c0.256,0,0.431-0.026,0.525-0.079c0.094-0.053,0.167-0.141,0.22-0.263
			s0.079-0.356,0.079-0.702v-5.078c0-0.63-0.014-1.018-0.042-1.163c-0.028-0.144-0.074-0.243-0.137-0.296
			c-0.063-0.053-0.144-0.08-0.241-0.08c-0.106,0-0.24,0.033-0.403,0.098l-0.104-0.213l1.667-0.684H34.562z"/>
		<path style="fill:#0066FF;" d="M39.129,17.737c-0.574,0.443-0.934,0.7-1.081,0.769c-0.22,0.102-0.454,0.153-0.702,0.153
			c-0.387,0-0.705-0.132-0.956-0.397c-0.25-0.265-0.375-0.612-0.375-1.043c0-0.273,0.062-0.509,0.184-0.708
			c0.167-0.277,0.457-0.537,0.87-0.781c0.413-0.244,1.1-0.542,2.06-0.892v-0.22c0-0.557-0.089-0.939-0.266-1.147
			c-0.177-0.207-0.435-0.311-0.772-0.311c-0.256,0-0.459,0.069-0.61,0.208c-0.154,0.138-0.231,0.297-0.231,0.476l0.012,0.354
			c0,0.187-0.048,0.332-0.143,0.434c-0.096,0.102-0.221,0.152-0.375,0.152c-0.15,0-0.274-0.053-0.369-0.159
			c-0.096-0.106-0.144-0.25-0.144-0.433c0-0.35,0.179-0.672,0.537-0.965s0.86-0.439,1.508-0.439c0.496,0,0.903,0.083,1.221,0.25
			c0.24,0.126,0.417,0.324,0.531,0.592c0.073,0.175,0.11,0.533,0.11,1.074v1.898c0,0.533,0.01,0.86,0.03,0.979
			c0.021,0.12,0.054,0.201,0.101,0.241c0.046,0.041,0.101,0.061,0.162,0.061c0.065,0,0.122-0.014,0.171-0.043
			c0.085-0.053,0.25-0.201,0.494-0.445v0.342c-0.456,0.61-0.891,0.916-1.306,0.916c-0.2,0-0.358-0.069-0.477-0.208
			C39.194,18.307,39.133,18.07,39.129,17.737z M39.129,17.34v-2.13c-0.615,0.244-1.011,0.417-1.19,0.519
			c-0.321,0.179-0.551,0.366-0.689,0.562c-0.139,0.195-0.208,0.409-0.208,0.641c0,0.293,0.088,0.536,0.263,0.729
			s0.376,0.29,0.604,0.29C38.218,17.951,38.625,17.747,39.129,17.34z"/>
		<path style="fill:#0066FF;" d="M43.064,13.971c0.655-0.79,1.279-1.185,1.874-1.185c0.305,0,0.568,0.077,0.788,0.229
			c0.22,0.153,0.395,0.404,0.524,0.754c0.09,0.244,0.135,0.619,0.135,1.123v2.386c0,0.354,0.028,0.594,0.085,0.721
			c0.045,0.102,0.117,0.181,0.217,0.238s0.284,0.085,0.553,0.085v0.22h-2.765v-0.22h0.116c0.261,0,0.443-0.04,0.546-0.119
			c0.104-0.079,0.176-0.196,0.217-0.351c0.016-0.062,0.024-0.252,0.024-0.574V14.99c0-0.509-0.066-0.878-0.198-1.108
			c-0.132-0.229-0.355-0.345-0.668-0.345c-0.484,0-0.966,0.265-1.446,0.793v2.948c0,0.379,0.022,0.613,0.067,0.702
			c0.057,0.118,0.135,0.205,0.235,0.259c0.1,0.055,0.302,0.083,0.607,0.083v0.22h-2.765v-0.22h0.122
			c0.285,0,0.477-0.072,0.577-0.217c0.1-0.144,0.149-0.42,0.149-0.827v-2.075c0-0.671-0.015-1.08-0.046-1.227
			c-0.03-0.146-0.077-0.246-0.14-0.299c-0.063-0.053-0.147-0.08-0.253-0.08c-0.114,0-0.25,0.031-0.409,0.091l-0.092-0.22
			l1.685-0.684h0.263V13.971z"/>
		<path style="fill:#0066FF;" d="M51.634,17.914c-0.273,0.285-0.54,0.49-0.8,0.614s-0.541,0.186-0.842,0.186
			c-0.61,0-1.144-0.255-1.599-0.766c-0.456-0.51-0.684-1.167-0.684-1.968s0.252-1.535,0.757-2.2
			c0.504-0.666,1.153-0.998,1.947-0.998c0.492,0,0.899,0.157,1.221,0.47v-1.031c0-0.639-0.016-1.031-0.046-1.178
			c-0.031-0.146-0.079-0.247-0.144-0.299s-0.146-0.08-0.244-0.08c-0.106,0-0.246,0.033-0.421,0.098l-0.08-0.213l1.667-0.684h0.274
			v6.463c0,0.655,0.015,1.055,0.046,1.2c0.03,0.145,0.079,0.245,0.146,0.302c0.067,0.057,0.146,0.085,0.235,0.085
			c0.11,0,0.256-0.034,0.439-0.104l0.067,0.214l-1.66,0.689h-0.28V17.914z M51.634,17.487v-2.881
			c-0.024-0.277-0.098-0.529-0.22-0.757c-0.122-0.228-0.284-0.4-0.485-0.516c-0.202-0.116-0.398-0.174-0.589-0.174
			c-0.358,0-0.678,0.161-0.958,0.482c-0.37,0.423-0.555,1.042-0.555,1.855c0,0.822,0.179,1.452,0.537,1.889
			c0.358,0.438,0.757,0.656,1.196,0.656C50.93,18.042,51.288,17.857,51.634,17.487z"/>
		<path style="fill:#0066FF;" d="M54.875,15.057c-0.004,0.83,0.197,1.481,0.604,1.953c0.407,0.472,0.885,0.708,1.435,0.708
			c0.366,0,0.685-0.101,0.955-0.302c0.271-0.202,0.498-0.546,0.681-1.035l0.189,0.122c-0.086,0.558-0.334,1.065-0.745,1.523
			c-0.411,0.458-0.925,0.687-1.544,0.687c-0.671,0-1.246-0.261-1.724-0.784c-0.479-0.523-0.717-1.226-0.717-2.109
			c0-0.956,0.245-1.702,0.735-2.237s1.106-0.803,1.847-0.803c0.626,0,1.141,0.207,1.544,0.62s0.604,0.965,0.604,1.657H54.875z
			 M54.875,14.704h2.588c-0.021-0.358-0.063-0.61-0.128-0.757c-0.102-0.228-0.253-0.407-0.455-0.537
			c-0.201-0.13-0.412-0.195-0.631-0.195c-0.338,0-0.64,0.131-0.907,0.394C55.075,13.87,54.919,14.235,54.875,14.704z"/>
		<path style="fill:#0066FF;" d="M61.031,11.115v1.837h1.306v0.427h-1.306v3.625c0,0.362,0.052,0.606,0.156,0.732
			c0.104,0.126,0.237,0.189,0.399,0.189c0.135,0,0.265-0.042,0.391-0.125c0.126-0.083,0.224-0.207,0.293-0.369h0.238
			c-0.143,0.399-0.344,0.699-0.604,0.9c-0.26,0.201-0.529,0.302-0.806,0.302c-0.187,0-0.37-0.052-0.549-0.156
			c-0.179-0.104-0.312-0.252-0.397-0.446c-0.085-0.193-0.128-0.491-0.128-0.894v-3.76h-0.885v-0.202
			c0.224-0.089,0.453-0.241,0.687-0.455c0.234-0.213,0.442-0.467,0.626-0.76c0.093-0.155,0.224-0.438,0.391-0.848H61.031z"/>
	</g>
	<g>
		<path style="fill:#0066FF;" d="M80.785,27.395c-0.574,0.443-0.934,0.7-1.081,0.769c-0.22,0.102-0.454,0.153-0.702,0.153
			c-0.387,0-0.705-0.132-0.956-0.397c-0.25-0.265-0.375-0.612-0.375-1.043c0-0.273,0.062-0.509,0.184-0.708
			c0.167-0.277,0.457-0.537,0.87-0.781c0.413-0.244,1.1-0.542,2.06-0.892v-0.22c0-0.557-0.089-0.939-0.266-1.147
			c-0.177-0.207-0.435-0.311-0.772-0.311c-0.256,0-0.459,0.069-0.61,0.208c-0.154,0.138-0.231,0.297-0.231,0.476l0.012,0.354
			c0,0.187-0.048,0.332-0.143,0.434c-0.096,0.102-0.221,0.152-0.375,0.152c-0.15,0-0.274-0.053-0.369-0.159
			c-0.096-0.106-0.144-0.25-0.144-0.433c0-0.35,0.179-0.672,0.537-0.965s0.86-0.439,1.508-0.439c0.496,0,0.903,0.083,1.221,0.25
			c0.24,0.126,0.417,0.324,0.531,0.592c0.073,0.175,0.11,0.533,0.11,1.074v1.898c0,0.533,0.01,0.86,0.03,0.979
			c0.021,0.12,0.054,0.201,0.101,0.241c0.046,0.041,0.101,0.061,0.162,0.061c0.065,0,0.122-0.014,0.171-0.043
			c0.085-0.053,0.25-0.201,0.494-0.445v0.342c-0.456,0.61-0.891,0.916-1.306,0.916c-0.2,0-0.358-0.069-0.477-0.208
			C80.85,27.965,80.789,27.729,80.785,27.395z M80.785,26.999v-2.13c-0.615,0.244-1.011,0.417-1.19,0.519
			c-0.321,0.179-0.551,0.366-0.689,0.562c-0.139,0.195-0.208,0.409-0.208,0.641c0,0.293,0.088,0.536,0.263,0.729
			s0.376,0.29,0.604,0.29C79.874,27.609,80.28,27.405,80.785,26.999z"/>
		<path style="fill:#0066FF;" d="M82.803,22.61h2.631v0.226h-0.171c-0.159,0-0.28,0.039-0.363,0.116s-0.125,0.181-0.125,0.312
			c0,0.142,0.043,0.311,0.128,0.506l1.3,3.088l1.306-3.204c0.094-0.228,0.141-0.401,0.141-0.519c0-0.057-0.017-0.104-0.049-0.14
			c-0.045-0.062-0.102-0.103-0.171-0.125c-0.069-0.022-0.21-0.034-0.421-0.034V22.61h1.825v0.226
			c-0.211,0.017-0.358,0.059-0.439,0.128c-0.142,0.122-0.271,0.326-0.384,0.61l-1.984,4.797h-0.25l-1.996-4.718
			c-0.089-0.22-0.175-0.377-0.256-0.473c-0.082-0.096-0.186-0.176-0.312-0.241c-0.069-0.037-0.206-0.071-0.409-0.104V22.61z"/>
		<path style="fill:#0066FF;" d="M92.766,22.445v1.904h-0.201c-0.155-0.598-0.354-1.005-0.595-1.221
			c-0.242-0.215-0.55-0.323-0.925-0.323c-0.285,0-0.515,0.075-0.69,0.226c-0.175,0.151-0.262,0.317-0.262,0.501
			c0,0.228,0.065,0.423,0.195,0.586c0.126,0.167,0.382,0.344,0.769,0.531l0.891,0.433c0.826,0.403,1.239,0.934,1.239,1.593
			c0,0.509-0.192,0.918-0.577,1.23c-0.384,0.311-0.815,0.467-1.291,0.467c-0.342,0-0.732-0.061-1.172-0.183
			c-0.135-0.041-0.244-0.061-0.33-0.061c-0.093,0-0.167,0.053-0.22,0.159h-0.201v-1.996h0.201c0.114,0.569,0.332,0.999,0.653,1.288
			s0.682,0.433,1.08,0.433c0.281,0,0.51-0.082,0.687-0.247c0.177-0.165,0.265-0.363,0.265-0.595c0-0.281-0.099-0.517-0.296-0.708
			c-0.197-0.191-0.591-0.434-1.181-0.727c-0.59-0.293-0.977-0.558-1.16-0.793c-0.183-0.232-0.274-0.525-0.274-0.879
			c0-0.46,0.158-0.844,0.473-1.154c0.315-0.309,0.723-0.464,1.224-0.464c0.22,0,0.486,0.047,0.799,0.141
			c0.208,0.061,0.346,0.092,0.415,0.092c0.065,0,0.116-0.015,0.153-0.043s0.08-0.092,0.128-0.189H92.766z"/>
		<path style="fill:#0066FF;" d="M95.653,20.773v1.837h1.307v0.427h-1.307v3.625c0,0.362,0.052,0.606,0.156,0.732
			s0.237,0.189,0.399,0.189c0.135,0,0.266-0.042,0.391-0.125c0.127-0.083,0.225-0.207,0.293-0.369h0.238
			c-0.143,0.399-0.344,0.699-0.604,0.9c-0.261,0.201-0.529,0.302-0.806,0.302c-0.187,0-0.37-0.052-0.549-0.156
			c-0.179-0.104-0.312-0.252-0.397-0.446c-0.085-0.193-0.128-0.491-0.128-0.894v-3.76h-0.885v-0.202
			c0.224-0.089,0.453-0.241,0.687-0.455c0.234-0.213,0.442-0.467,0.626-0.76c0.093-0.155,0.224-0.438,0.391-0.848H95.653z"/>
		<path style="fill:#0066FF;" d="M100.708,27.395c-0.574,0.443-0.934,0.7-1.08,0.769c-0.221,0.102-0.454,0.153-0.702,0.153
			c-0.387,0-0.705-0.132-0.955-0.397c-0.251-0.265-0.376-0.612-0.376-1.043c0-0.273,0.062-0.509,0.184-0.708
			c0.167-0.277,0.456-0.537,0.869-0.781s1.1-0.542,2.061-0.892v-0.22c0-0.557-0.089-0.939-0.266-1.147
			c-0.177-0.207-0.435-0.311-0.772-0.311c-0.256,0-0.46,0.069-0.61,0.208c-0.154,0.138-0.231,0.297-0.231,0.476l0.012,0.354
			c0,0.187-0.048,0.332-0.144,0.434c-0.096,0.102-0.221,0.152-0.375,0.152c-0.15,0-0.273-0.053-0.369-0.159s-0.144-0.25-0.144-0.433
			c0-0.35,0.179-0.672,0.537-0.965s0.86-0.439,1.508-0.439c0.496,0,0.903,0.083,1.221,0.25c0.24,0.126,0.417,0.324,0.53,0.592
			c0.074,0.175,0.11,0.533,0.11,1.074v1.898c0,0.533,0.01,0.86,0.03,0.979c0.021,0.12,0.054,0.201,0.101,0.241
			s0.101,0.061,0.162,0.061c0.065,0,0.122-0.014,0.171-0.043c0.086-0.053,0.25-0.201,0.494-0.445v0.342
			c-0.455,0.61-0.891,0.916-1.306,0.916c-0.199,0-0.358-0.069-0.477-0.208S100.712,27.729,100.708,27.395z M100.708,26.999v-2.13
			c-0.614,0.244-1.012,0.417-1.19,0.519c-0.321,0.179-0.552,0.366-0.689,0.562c-0.139,0.195-0.208,0.409-0.208,0.641
			c0,0.293,0.088,0.536,0.263,0.729s0.376,0.29,0.604,0.29C99.796,27.609,100.203,27.405,100.708,26.999z M99.944,19.497
			c0.326,0,0.603,0.114,0.83,0.342c0.229,0.228,0.342,0.502,0.342,0.824c0,0.326-0.113,0.603-0.342,0.83
			c-0.228,0.228-0.504,0.342-0.83,0.342c-0.321,0-0.596-0.114-0.823-0.342c-0.229-0.228-0.342-0.504-0.342-0.83
			c0-0.321,0.112-0.596,0.339-0.824C99.344,19.611,99.619,19.497,99.944,19.497z M99.944,19.918c-0.207,0-0.383,0.072-0.527,0.216
			c-0.145,0.145-0.217,0.321-0.217,0.528c0,0.204,0.072,0.379,0.217,0.525s0.32,0.22,0.527,0.22c0.208,0,0.384-0.073,0.528-0.22
			s0.217-0.322,0.217-0.525c0-0.207-0.072-0.383-0.217-0.528C100.328,19.991,100.152,19.918,99.944,19.918z"/>
		<path style="fill:#0066FF;" d="M104.644,23.629c0.655-0.79,1.279-1.185,1.874-1.185c0.305,0,0.567,0.077,0.787,0.229
			c0.22,0.153,0.395,0.404,0.524,0.754c0.09,0.244,0.135,0.619,0.135,1.123v2.386c0,0.354,0.028,0.594,0.085,0.721
			c0.045,0.102,0.117,0.181,0.217,0.238s0.284,0.085,0.553,0.085v0.22h-2.766v-0.22h0.116c0.261,0,0.442-0.04,0.547-0.119
			c0.104-0.079,0.176-0.196,0.216-0.351c0.017-0.062,0.025-0.252,0.025-0.574v-2.289c0-0.509-0.066-0.878-0.199-1.108
			c-0.132-0.229-0.354-0.345-0.668-0.345c-0.484,0-0.967,0.265-1.446,0.793v2.948c0,0.379,0.022,0.613,0.067,0.702
			c0.057,0.118,0.135,0.205,0.234,0.259c0.1,0.055,0.303,0.083,0.607,0.083v0.22h-2.765v-0.22h0.122
			c0.284,0,0.477-0.072,0.576-0.217c0.1-0.144,0.15-0.42,0.15-0.827v-2.075c0-0.671-0.016-1.08-0.046-1.227
			c-0.031-0.146-0.078-0.246-0.141-0.299c-0.063-0.053-0.147-0.08-0.253-0.08c-0.114,0-0.251,0.031-0.409,0.091l-0.092-0.22
			l1.685-0.684h0.263V23.629z"/>
		<path style="fill:#0066FF;" d="M113.213,27.572c-0.272,0.285-0.539,0.49-0.8,0.614s-0.541,0.186-0.843,0.186
			c-0.609,0-1.143-0.255-1.599-0.766c-0.456-0.51-0.684-1.167-0.684-1.968s0.252-1.535,0.757-2.2
			c0.505-0.666,1.153-0.998,1.947-0.998c0.492,0,0.899,0.157,1.221,0.47v-1.031c0-0.639-0.016-1.031-0.046-1.178
			s-0.078-0.247-0.144-0.299s-0.146-0.08-0.244-0.08c-0.105,0-0.246,0.033-0.421,0.098l-0.079-0.213l1.666-0.684h0.274v6.463
			c0,0.655,0.016,1.055,0.046,1.2s0.079,0.245,0.146,0.302c0.067,0.057,0.146,0.085,0.234,0.085c0.11,0,0.257-0.034,0.439-0.104
			l0.067,0.214l-1.66,0.689h-0.28V27.572z M113.213,27.145v-2.881c-0.024-0.277-0.098-0.529-0.22-0.757
			c-0.122-0.228-0.284-0.4-0.485-0.516c-0.201-0.116-0.397-0.174-0.589-0.174c-0.358,0-0.678,0.161-0.958,0.482
			c-0.371,0.423-0.556,1.042-0.556,1.855c0,0.822,0.179,1.452,0.537,1.889c0.357,0.438,0.757,0.656,1.196,0.656
			C112.509,27.7,112.867,27.515,113.213,27.145z"/>
		<path style="fill:#0066FF;" d="M116.453,24.715c-0.004,0.83,0.198,1.481,0.604,1.953c0.407,0.472,0.886,0.708,1.435,0.708
			c0.366,0,0.685-0.101,0.955-0.302c0.271-0.202,0.498-0.546,0.681-1.035l0.189,0.122c-0.086,0.558-0.334,1.065-0.745,1.523
			c-0.411,0.458-0.926,0.687-1.544,0.687c-0.671,0-1.246-0.261-1.725-0.784c-0.478-0.523-0.717-1.226-0.717-2.109
			c0-0.956,0.245-1.702,0.735-2.237s1.105-0.803,1.847-0.803c0.626,0,1.142,0.207,1.544,0.62s0.604,0.965,0.604,1.657H116.453z
			 M116.453,24.362h2.588c-0.02-0.358-0.062-0.61-0.128-0.757c-0.102-0.228-0.253-0.407-0.454-0.537
			c-0.202-0.13-0.412-0.195-0.632-0.195c-0.338,0-0.641,0.131-0.906,0.394C116.654,23.528,116.498,23.894,116.453,24.362z"/>
		<path style="fill:#0066FF;" d="M122.609,20.773v1.837h1.307v0.427h-1.307v3.625c0,0.362,0.053,0.606,0.156,0.732
			s0.237,0.189,0.399,0.189c0.135,0,0.265-0.042,0.391-0.125c0.126-0.083,0.224-0.207,0.293-0.369h0.238
			c-0.143,0.399-0.344,0.699-0.604,0.9c-0.26,0.201-0.528,0.302-0.806,0.302c-0.187,0-0.37-0.052-0.549-0.156
			c-0.18-0.104-0.312-0.252-0.397-0.446c-0.085-0.193-0.128-0.491-0.128-0.894v-3.76h-0.885v-0.202
			c0.224-0.089,0.452-0.241,0.687-0.455c0.234-0.213,0.442-0.467,0.626-0.76c0.094-0.155,0.224-0.438,0.391-0.848H122.609z"/>
		<path style="fill:#0066FF;" d="M129.245,20.773v1.837h1.307v0.427h-1.307v3.625c0,0.362,0.053,0.606,0.156,0.732
			s0.237,0.189,0.399,0.189c0.135,0,0.265-0.042,0.391-0.125c0.126-0.083,0.224-0.207,0.293-0.369h0.238
			c-0.143,0.399-0.344,0.699-0.604,0.9c-0.26,0.201-0.528,0.302-0.806,0.302c-0.187,0-0.37-0.052-0.549-0.156
			c-0.18-0.104-0.312-0.252-0.397-0.446c-0.085-0.193-0.128-0.491-0.128-0.894v-3.76h-0.885v-0.202
			c0.224-0.089,0.452-0.241,0.687-0.455c0.234-0.213,0.442-0.467,0.626-0.76c0.094-0.155,0.224-0.438,0.391-0.848H129.245z"/>
		<path style="fill:#0066FF;" d="M133.061,22.445v4.492c0,0.35,0.025,0.583,0.076,0.699c0.051,0.116,0.126,0.202,0.226,0.259
			s0.282,0.085,0.547,0.085v0.22h-2.717v-0.22c0.273,0,0.456-0.026,0.55-0.079c0.094-0.053,0.168-0.141,0.223-0.263
			s0.083-0.356,0.083-0.702v-2.154c0-0.606-0.019-0.999-0.056-1.178c-0.028-0.13-0.073-0.221-0.134-0.272
			c-0.062-0.051-0.145-0.076-0.25-0.076c-0.114,0-0.253,0.031-0.416,0.091l-0.085-0.22l1.685-0.684H133.061z M132.554,19.521
			c0.171,0,0.316,0.06,0.437,0.18s0.181,0.266,0.181,0.437s-0.061,0.317-0.181,0.439s-0.266,0.183-0.437,0.183
			s-0.317-0.061-0.439-0.183s-0.183-0.269-0.183-0.439s0.06-0.316,0.18-0.437S132.379,19.521,132.554,19.521z"/>
		<path style="fill:#0066FF;" d="M136.565,19.521v7.416c0,0.35,0.025,0.582,0.076,0.696c0.051,0.114,0.129,0.2,0.235,0.259
			c0.105,0.059,0.303,0.088,0.592,0.088v0.22h-2.74v-0.22c0.256,0,0.431-0.026,0.524-0.079c0.094-0.053,0.167-0.141,0.22-0.263
			s0.079-0.356,0.079-0.702v-5.078c0-0.63-0.014-1.018-0.042-1.163c-0.029-0.144-0.075-0.243-0.138-0.296
			c-0.063-0.053-0.144-0.08-0.241-0.08c-0.105,0-0.24,0.033-0.402,0.098l-0.104-0.213l1.667-0.684H136.565z"/>
		<path style="fill:#0066FF;" d="M139.889,19.521v7.416c0,0.35,0.025,0.582,0.076,0.696c0.051,0.114,0.129,0.2,0.235,0.259
			c0.105,0.059,0.303,0.088,0.592,0.088v0.22h-2.74v-0.22c0.256,0,0.431-0.026,0.524-0.079c0.094-0.053,0.167-0.141,0.22-0.263
			s0.079-0.356,0.079-0.702v-5.078c0-0.63-0.014-1.018-0.042-1.163c-0.029-0.144-0.075-0.243-0.138-0.296
			c-0.063-0.053-0.144-0.08-0.241-0.08c-0.105,0-0.24,0.033-0.402,0.098l-0.104-0.213l1.667-0.684H139.889z"/>
		<path style="fill:#0066FF;" d="M146.073,23.635c0.407-0.407,0.646-0.641,0.721-0.702c0.183-0.154,0.38-0.274,0.592-0.36
			c0.211-0.085,0.421-0.128,0.629-0.128c0.35,0,0.65,0.102,0.902,0.306c0.253,0.203,0.422,0.498,0.507,0.885
			c0.419-0.488,0.773-0.809,1.062-0.961c0.289-0.152,0.586-0.229,0.891-0.229c0.297,0,0.561,0.077,0.791,0.229
			c0.229,0.153,0.411,0.402,0.546,0.748c0.09,0.236,0.135,0.606,0.135,1.111v2.404c0,0.35,0.026,0.59,0.079,0.721
			c0.04,0.089,0.116,0.166,0.226,0.229c0.109,0.063,0.289,0.095,0.537,0.095v0.22h-2.759v-0.22h0.116
			c0.24,0,0.427-0.047,0.562-0.141c0.094-0.065,0.16-0.168,0.201-0.311c0.017-0.069,0.024-0.267,0.024-0.592v-2.404
			c0-0.456-0.055-0.777-0.165-0.965c-0.158-0.26-0.413-0.391-0.763-0.391c-0.216,0-0.433,0.054-0.65,0.162s-0.48,0.308-0.79,0.601
			l-0.013,0.067l0.013,0.263v2.667c0,0.383,0.021,0.621,0.064,0.714c0.042,0.094,0.123,0.172,0.241,0.235
			c0.117,0.063,0.319,0.095,0.604,0.095v0.22h-2.826v-0.22c0.31,0,0.522-0.037,0.639-0.11c0.115-0.073,0.196-0.183,0.24-0.33
			c0.021-0.069,0.031-0.271,0.031-0.604v-2.404c0-0.456-0.067-0.784-0.201-0.983c-0.18-0.26-0.43-0.391-0.751-0.391
			c-0.22,0-0.438,0.059-0.653,0.177c-0.338,0.179-0.598,0.38-0.781,0.604v2.997c0,0.366,0.025,0.604,0.076,0.714
			s0.126,0.192,0.226,0.247c0.1,0.055,0.303,0.083,0.607,0.083v0.22h-2.765v-0.22c0.256,0,0.436-0.027,0.537-0.083
			c0.102-0.055,0.179-0.142,0.232-0.262c0.053-0.12,0.079-0.353,0.079-0.699v-2.136c0-0.615-0.019-1.011-0.056-1.19
			c-0.028-0.134-0.072-0.227-0.134-0.278c-0.062-0.051-0.145-0.076-0.25-0.076c-0.114,0-0.251,0.031-0.409,0.091l-0.092-0.22
			l1.685-0.684h0.263V23.635z"/>
		<path style="fill:#0066FF;" d="M157.154,27.395c-0.574,0.443-0.934,0.7-1.08,0.769c-0.221,0.102-0.454,0.153-0.702,0.153
			c-0.387,0-0.705-0.132-0.955-0.397c-0.251-0.265-0.376-0.612-0.376-1.043c0-0.273,0.062-0.509,0.184-0.708
			c0.167-0.277,0.456-0.537,0.869-0.781s1.1-0.542,2.061-0.892v-0.22c0-0.557-0.089-0.939-0.266-1.147
			c-0.177-0.207-0.435-0.311-0.772-0.311c-0.256,0-0.46,0.069-0.61,0.208c-0.154,0.138-0.231,0.297-0.231,0.476l0.012,0.354
			c0,0.187-0.048,0.332-0.144,0.434c-0.096,0.102-0.221,0.152-0.375,0.152c-0.15,0-0.273-0.053-0.369-0.159s-0.144-0.25-0.144-0.433
			c0-0.35,0.179-0.672,0.537-0.965s0.86-0.439,1.508-0.439c0.496,0,0.903,0.083,1.221,0.25c0.24,0.126,0.417,0.324,0.53,0.592
			c0.074,0.175,0.11,0.533,0.11,1.074v1.898c0,0.533,0.01,0.86,0.03,0.979c0.021,0.12,0.054,0.201,0.101,0.241
			s0.101,0.061,0.162,0.061c0.065,0,0.122-0.014,0.171-0.043c0.086-0.053,0.25-0.201,0.494-0.445v0.342
			c-0.455,0.61-0.891,0.916-1.306,0.916c-0.199,0-0.358-0.069-0.477-0.208S157.158,27.729,157.154,27.395z M157.154,26.999v-2.13
			c-0.614,0.244-1.012,0.417-1.19,0.519c-0.321,0.179-0.552,0.366-0.689,0.562c-0.139,0.195-0.208,0.409-0.208,0.641
			c0,0.293,0.088,0.536,0.263,0.729s0.376,0.29,0.604,0.29C156.242,27.609,156.649,27.405,157.154,26.999z M156.391,19.497
			c0.326,0,0.603,0.114,0.83,0.342c0.229,0.228,0.342,0.502,0.342,0.824c0,0.326-0.113,0.603-0.342,0.83
			c-0.228,0.228-0.504,0.342-0.83,0.342c-0.321,0-0.596-0.114-0.823-0.342c-0.229-0.228-0.342-0.504-0.342-0.83
			c0-0.321,0.112-0.596,0.339-0.824C155.79,19.611,156.065,19.497,156.391,19.497z M156.391,19.918
			c-0.207,0-0.383,0.072-0.527,0.216c-0.145,0.145-0.217,0.321-0.217,0.528c0,0.204,0.072,0.379,0.217,0.525s0.32,0.22,0.527,0.22
			c0.208,0,0.384-0.073,0.528-0.22s0.217-0.322,0.217-0.525c0-0.207-0.072-0.383-0.217-0.528
			C156.774,19.991,156.599,19.918,156.391,19.918z"/>
		<path style="fill:#0066FF;" d="M161.089,23.629c0.655-0.79,1.279-1.185,1.874-1.185c0.305,0,0.567,0.077,0.787,0.229
			c0.22,0.153,0.395,0.404,0.524,0.754c0.09,0.244,0.135,0.619,0.135,1.123v2.386c0,0.354,0.028,0.594,0.085,0.721
			c0.045,0.102,0.117,0.181,0.217,0.238s0.284,0.085,0.553,0.085v0.22h-2.766v-0.22h0.116c0.261,0,0.442-0.04,0.547-0.119
			c0.104-0.079,0.176-0.196,0.216-0.351c0.017-0.062,0.025-0.252,0.025-0.574v-2.289c0-0.509-0.066-0.878-0.199-1.108
			c-0.132-0.229-0.354-0.345-0.668-0.345c-0.484,0-0.967,0.265-1.446,0.793v2.948c0,0.379,0.022,0.613,0.067,0.702
			c0.057,0.118,0.135,0.205,0.234,0.259c0.1,0.055,0.303,0.083,0.607,0.083v0.22h-2.765v-0.22h0.122
			c0.284,0,0.477-0.072,0.576-0.217c0.1-0.144,0.15-0.42,0.15-0.827v-2.075c0-0.671-0.016-1.08-0.046-1.227
			c-0.031-0.146-0.078-0.246-0.141-0.299c-0.063-0.053-0.147-0.08-0.253-0.08c-0.114,0-0.251,0.031-0.409,0.091l-0.092-0.22
			l1.685-0.684h0.263V23.629z"/>
		<path style="fill:#0066FF;" d="M166.648,24.715c-0.004,0.83,0.198,1.481,0.604,1.953c0.407,0.472,0.886,0.708,1.435,0.708
			c0.366,0,0.685-0.101,0.955-0.302c0.271-0.202,0.498-0.546,0.681-1.035l0.189,0.122c-0.086,0.558-0.334,1.065-0.745,1.523
			c-0.411,0.458-0.926,0.687-1.544,0.687c-0.671,0-1.246-0.261-1.725-0.784c-0.478-0.523-0.717-1.226-0.717-2.109
			c0-0.956,0.245-1.702,0.735-2.237s1.105-0.803,1.847-0.803c0.626,0,1.142,0.207,1.544,0.62s0.604,0.965,0.604,1.657H166.648z
			 M166.648,24.362h2.588c-0.02-0.358-0.062-0.61-0.128-0.757c-0.102-0.228-0.253-0.407-0.454-0.537
			c-0.202-0.13-0.412-0.195-0.632-0.195c-0.338,0-0.641,0.131-0.906,0.394C166.85,23.528,166.693,23.894,166.648,24.362z"/>
		<path style="fill:#0066FF;" d="M172.812,23.629c0.655-0.79,1.279-1.185,1.874-1.185c0.305,0,0.567,0.077,0.787,0.229
			c0.22,0.153,0.395,0.404,0.524,0.754c0.09,0.244,0.135,0.619,0.135,1.123v2.386c0,0.354,0.028,0.594,0.085,0.721
			c0.045,0.102,0.117,0.181,0.217,0.238s0.284,0.085,0.553,0.085v0.22h-2.766v-0.22h0.116c0.261,0,0.442-0.04,0.547-0.119
			c0.104-0.079,0.176-0.196,0.216-0.351c0.017-0.062,0.025-0.252,0.025-0.574v-2.289c0-0.509-0.066-0.878-0.199-1.108
			c-0.132-0.229-0.354-0.345-0.668-0.345c-0.484,0-0.967,0.265-1.446,0.793v2.948c0,0.379,0.022,0.613,0.067,0.702
			c0.057,0.118,0.135,0.205,0.234,0.259c0.1,0.055,0.303,0.083,0.607,0.083v0.22h-2.765v-0.22h0.122
			c0.284,0,0.477-0.072,0.576-0.217c0.1-0.144,0.15-0.42,0.15-0.827v-2.075c0-0.671-0.016-1.08-0.046-1.227
			c-0.031-0.146-0.078-0.246-0.141-0.299c-0.063-0.053-0.147-0.08-0.253-0.08c-0.114,0-0.251,0.031-0.409,0.091l-0.092-0.22
			l1.685-0.684h0.263V23.629z"/>
	</g>
	<g>
		<path style="fill:#0066FF;" d="M14.043,38.314l2.014-0.982h0.202v6.988c0,0.464,0.019,0.753,0.058,0.867
			c0.039,0.113,0.119,0.201,0.241,0.262c0.122,0.062,0.37,0.096,0.745,0.104v0.226h-3.113v-0.226
			c0.391-0.009,0.643-0.042,0.757-0.101c0.114-0.06,0.193-0.139,0.238-0.238c0.044-0.1,0.067-0.397,0.067-0.895v-4.468
			c0-0.602-0.021-0.988-0.061-1.159c-0.028-0.131-0.081-0.227-0.156-0.287s-0.166-0.092-0.271-0.092c-0.15,0-0.36,0.063-0.628,0.189
			L14.043,38.314z"/>
		<path style="fill:#0066FF;" d="M18.337,47.86v-0.269c0.419-0.138,0.744-0.353,0.974-0.644c0.229-0.291,0.345-0.6,0.345-0.925
			c0-0.077-0.018-0.143-0.055-0.195c-0.028-0.037-0.057-0.055-0.085-0.055c-0.045,0-0.143,0.04-0.293,0.122
			c-0.073,0.036-0.151,0.055-0.232,0.055c-0.199,0-0.358-0.059-0.476-0.177c-0.118-0.118-0.177-0.281-0.177-0.488
			c0-0.199,0.076-0.37,0.229-0.513c0.152-0.143,0.339-0.214,0.559-0.214c0.269,0,0.507,0.117,0.717,0.351
			c0.209,0.234,0.314,0.545,0.314,0.931c0,0.42-0.146,0.81-0.437,1.169C19.428,47.369,18.968,47.653,18.337,47.86z"/>
		<path style="fill:#0066FF;" d="M27.379,37.503l-0.476,1.038h-2.49l-0.543,1.11c1.078,0.159,1.933,0.56,2.563,1.202
			c0.541,0.554,0.812,1.205,0.812,1.953c0,0.436-0.089,0.839-0.266,1.209c-0.177,0.37-0.4,0.686-0.668,0.945
			c-0.269,0.261-0.568,0.471-0.897,0.629c-0.468,0.224-0.948,0.336-1.44,0.336c-0.497,0-0.858-0.085-1.083-0.253
			c-0.226-0.169-0.339-0.355-0.339-0.559c0-0.114,0.047-0.215,0.14-0.303c0.094-0.087,0.212-0.131,0.354-0.131
			c0.105,0,0.198,0.017,0.277,0.049c0.08,0.032,0.215,0.116,0.406,0.25c0.305,0.212,0.614,0.317,0.928,0.317
			c0.476,0,0.894-0.18,1.254-0.54c0.36-0.36,0.54-0.799,0.54-1.315c0-0.5-0.161-0.967-0.482-1.4s-0.765-0.769-1.331-1.004
			c-0.443-0.184-1.048-0.289-1.812-0.317l1.587-3.217H27.379z"/>
		<path style="fill:#0066FF;" d="M34.118,38.314l2.014-0.982h0.202v6.988c0,0.464,0.019,0.753,0.058,0.867
			c0.039,0.113,0.119,0.201,0.241,0.262c0.122,0.062,0.37,0.096,0.745,0.104v0.226h-3.113v-0.226
			c0.391-0.009,0.643-0.042,0.757-0.101c0.114-0.06,0.193-0.139,0.238-0.238c0.044-0.1,0.067-0.397,0.067-0.895v-4.468
			c0-0.602-0.021-0.988-0.061-1.159c-0.028-0.131-0.081-0.227-0.156-0.287s-0.166-0.092-0.271-0.092c-0.15,0-0.36,0.063-0.628,0.189
			L34.118,38.314z"/>
		<path style="fill:#0066FF;" d="M39.355,41.689c0-0.943,0.143-1.756,0.427-2.438s0.663-1.189,1.135-1.523
			c0.366-0.265,0.745-0.396,1.135-0.396c0.635,0,1.205,0.323,1.709,0.971c0.631,0.802,0.946,1.888,0.946,3.259
			c0,0.961-0.139,1.776-0.415,2.448c-0.277,0.671-0.63,1.158-1.059,1.461c-0.43,0.304-0.843,0.455-1.242,0.455
			c-0.79,0-1.447-0.466-1.971-1.397C39.577,43.743,39.355,42.797,39.355,41.689z M40.551,41.843c0,1.139,0.14,2.069,0.421,2.789
			c0.231,0.606,0.578,0.909,1.037,0.909c0.22,0,0.448-0.099,0.684-0.296c0.236-0.197,0.415-0.528,0.537-0.991
			c0.188-0.7,0.281-1.688,0.281-2.961c0-0.943-0.098-1.731-0.293-2.361c-0.146-0.469-0.336-0.8-0.568-0.995
			c-0.167-0.135-0.368-0.202-0.604-0.202c-0.277,0-0.523,0.125-0.739,0.373c-0.293,0.338-0.492,0.868-0.598,1.593
			S40.551,41.139,40.551,41.843z"/>
		<path style="fill:#0066FF;" d="M58.491,41.214c0.407-0.407,0.647-0.641,0.72-0.702c0.183-0.154,0.38-0.274,0.592-0.359
			c0.211-0.086,0.421-0.129,0.628-0.129c0.35,0,0.651,0.102,0.903,0.306c0.252,0.203,0.421,0.498,0.506,0.885
			c0.419-0.488,0.773-0.809,1.062-0.961c0.289-0.153,0.586-0.229,0.891-0.229c0.297,0,0.561,0.076,0.791,0.229
			c0.23,0.152,0.412,0.401,0.546,0.747c0.089,0.236,0.134,0.606,0.134,1.111v2.404c0,0.351,0.026,0.59,0.08,0.721
			c0.041,0.089,0.116,0.166,0.226,0.229c0.11,0.063,0.289,0.095,0.537,0.095v0.22H63.35v-0.22h0.116c0.24,0,0.427-0.047,0.562-0.141
			c0.093-0.064,0.161-0.169,0.201-0.312c0.016-0.068,0.024-0.266,0.024-0.592v-2.404c0-0.456-0.055-0.777-0.165-0.965
			c-0.158-0.26-0.413-0.391-0.763-0.391c-0.216,0-0.433,0.055-0.65,0.162c-0.218,0.107-0.481,0.309-0.791,0.602l-0.012,0.066
			l0.012,0.263v2.667c0,0.383,0.021,0.621,0.064,0.715c0.043,0.093,0.123,0.172,0.241,0.234c0.118,0.063,0.319,0.095,0.604,0.095
			v0.22h-2.826v-0.22c0.309,0,0.522-0.036,0.638-0.11c0.116-0.072,0.196-0.183,0.241-0.329c0.021-0.069,0.031-0.271,0.031-0.604
			v-2.404c0-0.456-0.067-0.783-0.202-0.982c-0.179-0.261-0.429-0.391-0.75-0.391c-0.22,0-0.438,0.059-0.653,0.177
			c-0.338,0.179-0.598,0.38-0.781,0.604v2.996c0,0.366,0.025,0.604,0.076,0.715c0.051,0.109,0.126,0.191,0.226,0.247
			c0.1,0.055,0.302,0.082,0.607,0.082v0.22h-2.765v-0.22c0.256,0,0.436-0.027,0.537-0.082c0.102-0.056,0.179-0.143,0.232-0.263
			s0.08-0.354,0.08-0.699V42.38c0-0.614-0.019-1.012-0.055-1.19c-0.028-0.135-0.073-0.227-0.134-0.277s-0.145-0.076-0.25-0.076
			c-0.114,0-0.25,0.03-0.409,0.091l-0.092-0.22l1.685-0.684h0.263V41.214z"/>
	</g>
	<g>
		<path style="fill:#0066FF;" d="M83.525,47.242c0.236-0.558,0.534-0.988,0.894-1.291c0.36-0.304,0.809-0.455,1.346-0.455
			c0.663,0,1.172,0.216,1.525,0.646c0.269,0.322,0.403,0.666,0.403,1.032c0,0.602-0.379,1.225-1.136,1.867
			c0.509,0.199,0.894,0.484,1.154,0.854s0.391,0.806,0.391,1.307c0,0.716-0.228,1.336-0.684,1.861
			c-0.594,0.684-1.455,1.025-2.582,1.025c-0.558,0-0.937-0.069-1.139-0.207c-0.201-0.139-0.302-0.287-0.302-0.446
			c0-0.118,0.047-0.222,0.143-0.312c0.096-0.089,0.21-0.134,0.345-0.134c0.102,0,0.205,0.017,0.311,0.049
			c0.069,0.021,0.226,0.095,0.47,0.223s0.413,0.204,0.506,0.229c0.15,0.044,0.311,0.066,0.482,0.066c0.415,0,0.776-0.16,1.083-0.482
			c0.307-0.321,0.461-0.701,0.461-1.141c0-0.321-0.071-0.635-0.213-0.94c-0.106-0.228-0.222-0.4-0.348-0.519
			c-0.175-0.163-0.415-0.311-0.72-0.442s-0.616-0.198-0.934-0.198h-0.195v-0.184c0.321-0.04,0.644-0.156,0.967-0.348
			c0.323-0.191,0.558-0.421,0.705-0.689s0.22-0.563,0.22-0.885c0-0.42-0.131-0.758-0.394-1.017
			c-0.262-0.259-0.589-0.388-0.979-0.388c-0.631,0-1.158,0.338-1.581,1.014L83.525,47.242z"/>
		<path style="fill:#0066FF;" d="M89.8,54.114v-0.226c0.529-0.009,1.021-0.132,1.477-0.369c0.456-0.238,0.896-0.654,1.321-1.248
			c0.425-0.595,0.721-1.248,0.888-1.96c-0.639,0.411-1.217,0.616-1.733,0.616c-0.582,0-1.08-0.225-1.495-0.674
			s-0.623-1.047-0.623-1.791c0-0.725,0.208-1.37,0.623-1.936c0.5-0.688,1.153-1.031,1.959-1.031c0.68,0,1.261,0.281,1.746,0.842
			c0.594,0.696,0.891,1.555,0.891,2.576c0,0.92-0.226,1.777-0.678,2.572c-0.451,0.796-1.08,1.456-1.886,1.98
			c-0.655,0.432-1.369,0.647-2.143,0.647H89.8z M93.584,49.86c0.073-0.529,0.11-0.952,0.11-1.27c0-0.395-0.067-0.821-0.202-1.279
			c-0.134-0.457-0.324-0.809-0.57-1.053c-0.247-0.244-0.526-0.366-0.839-0.366c-0.362,0-0.68,0.163-0.952,0.488
			c-0.272,0.326-0.409,0.81-0.409,1.453c0,0.858,0.181,1.529,0.543,2.014c0.265,0.351,0.59,0.525,0.977,0.525
			c0.187,0,0.409-0.045,0.665-0.135C93.163,50.149,93.389,50.022,93.584,49.86z"/>
		<path style="fill:#0066FF;" d="M95.842,49.854c0-0.943,0.143-1.756,0.427-2.438c0.285-0.682,0.663-1.189,1.135-1.523
			c0.367-0.265,0.745-0.396,1.136-0.396c0.635,0,1.204,0.323,1.709,0.971c0.631,0.802,0.946,1.888,0.946,3.259
			c0,0.961-0.139,1.776-0.415,2.448c-0.277,0.671-0.63,1.158-1.06,1.461c-0.429,0.304-0.843,0.455-1.242,0.455
			c-0.789,0-1.446-0.466-1.971-1.397C96.063,51.907,95.842,50.961,95.842,49.854z M97.039,50.007c0,1.139,0.14,2.069,0.421,2.789
			c0.231,0.606,0.577,0.909,1.037,0.909c0.22,0,0.448-0.099,0.684-0.296c0.236-0.197,0.415-0.528,0.537-0.991
			c0.188-0.7,0.281-1.688,0.281-2.961c0-0.943-0.098-1.731-0.293-2.361c-0.146-0.469-0.336-0.8-0.567-0.995
			c-0.167-0.135-0.369-0.202-0.604-0.202c-0.277,0-0.523,0.125-0.739,0.373c-0.293,0.338-0.492,0.868-0.598,1.593
			S97.039,49.303,97.039,50.007z"/>
		<path style="fill:#0066FF;" d="M102.125,56.024v-0.269c0.419-0.138,0.743-0.353,0.973-0.644c0.23-0.291,0.346-0.6,0.346-0.925
			c0-0.077-0.019-0.143-0.056-0.195c-0.028-0.037-0.057-0.055-0.085-0.055c-0.045,0-0.143,0.04-0.293,0.122
			c-0.073,0.036-0.15,0.055-0.232,0.055c-0.199,0-0.357-0.059-0.476-0.177s-0.177-0.281-0.177-0.488c0-0.199,0.076-0.37,0.229-0.513
			s0.339-0.214,0.559-0.214c0.269,0,0.507,0.117,0.717,0.351c0.21,0.234,0.314,0.545,0.314,0.931c0,0.42-0.146,0.81-0.437,1.169
			C103.216,55.533,102.755,55.817,102.125,56.024z"/>
		<path style="fill:#0066FF;" d="M111.544,45.496v0.226c-0.537,0.053-0.977,0.16-1.315,0.32c-0.34,0.161-0.676,0.406-1.008,0.735
			c-0.331,0.33-0.606,0.697-0.823,1.103c-0.218,0.404-0.4,0.886-0.547,1.443c0.586-0.403,1.174-0.604,1.764-0.604
			c0.566,0,1.057,0.228,1.472,0.684s0.622,1.042,0.622,1.758c0,0.691-0.209,1.322-0.629,1.893c-0.504,0.691-1.172,1.037-2.002,1.037
			c-0.565,0-1.045-0.188-1.439-0.562c-0.773-0.729-1.16-1.673-1.16-2.832c0-0.74,0.148-1.444,0.445-2.112
			c0.297-0.667,0.722-1.259,1.272-1.775c0.552-0.517,1.08-0.865,1.584-1.044c0.505-0.179,0.975-0.269,1.41-0.269H111.544z
			 M107.747,49.769c-0.073,0.55-0.109,0.993-0.109,1.331c0,0.391,0.071,0.814,0.216,1.272c0.145,0.457,0.359,0.82,0.645,1.089
			c0.207,0.191,0.46,0.287,0.757,0.287c0.354,0,0.67-0.167,0.949-0.5c0.278-0.334,0.418-0.811,0.418-1.429
			c0-0.696-0.139-1.298-0.415-1.807c-0.277-0.509-0.67-0.763-1.179-0.763c-0.154,0-0.32,0.032-0.497,0.098
			C108.354,49.412,108.093,49.553,107.747,49.769z"/>
		<path style="fill:#0066FF;" d="M117.922,52.351l-0.58,1.593h-4.883v-0.226c1.437-1.311,2.447-2.381,3.033-3.211
			s0.879-1.589,0.879-2.276c0-0.525-0.16-0.956-0.481-1.294c-0.322-0.338-0.706-0.507-1.154-0.507c-0.406,0-0.771,0.119-1.096,0.357
			c-0.323,0.238-0.562,0.587-0.717,1.047h-0.226c0.102-0.753,0.363-1.331,0.784-1.733c0.421-0.403,0.947-0.604,1.578-0.604
			c0.671,0,1.231,0.216,1.681,0.646c0.45,0.432,0.675,0.94,0.675,1.526c0,0.419-0.098,0.838-0.293,1.257
			c-0.301,0.66-0.789,1.357-1.465,2.094c-1.014,1.107-1.646,1.774-1.898,2.002h2.161c0.439,0,0.747-0.016,0.925-0.049
			c0.177-0.032,0.336-0.099,0.479-0.198s0.267-0.241,0.373-0.424H117.922z"/>
		<path style="fill:#0066FF;" d="M123.866,45.667l-0.476,1.038h-2.49l-0.544,1.11c1.079,0.159,1.934,0.56,2.564,1.202
			c0.541,0.554,0.812,1.205,0.812,1.953c0,0.436-0.089,0.839-0.266,1.209s-0.399,0.686-0.669,0.945
			c-0.268,0.261-0.567,0.471-0.896,0.629c-0.468,0.224-0.948,0.336-1.44,0.336c-0.497,0-0.857-0.085-1.084-0.253
			c-0.226-0.169-0.339-0.355-0.339-0.559c0-0.114,0.047-0.215,0.141-0.303c0.094-0.087,0.212-0.131,0.354-0.131
			c0.105,0,0.198,0.017,0.277,0.049s0.215,0.116,0.406,0.25c0.305,0.212,0.614,0.317,0.928,0.317c0.476,0,0.894-0.18,1.254-0.54
			s0.54-0.799,0.54-1.315c0-0.5-0.16-0.967-0.482-1.4c-0.321-0.434-0.765-0.769-1.33-1.004c-0.443-0.184-1.048-0.289-1.812-0.317
			l1.587-3.217H123.866z"/>
		<path style="fill:#0066FF;" d="M143.47,50.892v0.866h-1.11v2.186h-1.007v-2.186h-3.504v-0.781l3.839-5.48h0.672v5.396H143.47z
			 M141.353,50.892v-4.107l-2.906,4.107H141.353z"/>
		<path style="fill:#0066FF;" d="M144.354,49.854c0-0.943,0.143-1.756,0.428-2.438s0.663-1.189,1.135-1.523
			c0.367-0.265,0.745-0.396,1.136-0.396c0.635,0,1.204,0.323,1.709,0.971c0.631,0.802,0.946,1.888,0.946,3.259
			c0,0.961-0.139,1.776-0.415,2.448c-0.277,0.671-0.63,1.158-1.06,1.461c-0.429,0.304-0.843,0.455-1.242,0.455
			c-0.789,0-1.446-0.466-1.971-1.397C144.577,51.907,144.354,50.961,144.354,49.854z M145.552,50.007
			c0,1.139,0.14,2.069,0.421,2.789c0.231,0.606,0.577,0.909,1.037,0.909c0.22,0,0.448-0.099,0.684-0.296
			c0.236-0.197,0.415-0.528,0.537-0.991c0.188-0.7,0.281-1.688,0.281-2.961c0-0.943-0.098-1.731-0.293-2.361
			c-0.146-0.469-0.336-0.8-0.567-0.995c-0.167-0.135-0.369-0.202-0.604-0.202c-0.277,0-0.523,0.125-0.739,0.373
			c-0.293,0.338-0.492,0.868-0.598,1.593S145.552,49.303,145.552,50.007z"/>
		<path style="fill:#0066FF;" d="M150.604,49.854c0-0.943,0.143-1.756,0.428-2.438s0.663-1.189,1.135-1.523
			c0.367-0.265,0.745-0.396,1.136-0.396c0.635,0,1.204,0.323,1.709,0.971c0.631,0.802,0.946,1.888,0.946,3.259
			c0,0.961-0.139,1.776-0.415,2.448c-0.277,0.671-0.63,1.158-1.06,1.461c-0.429,0.304-0.843,0.455-1.242,0.455
			c-0.789,0-1.446-0.466-1.971-1.397C150.827,51.907,150.604,50.961,150.604,49.854z M151.802,50.007
			c0,1.139,0.14,2.069,0.421,2.789c0.231,0.606,0.577,0.909,1.037,0.909c0.22,0,0.448-0.099,0.684-0.296
			c0.236-0.197,0.415-0.528,0.537-0.991c0.188-0.7,0.281-1.688,0.281-2.961c0-0.943-0.098-1.731-0.293-2.361
			c-0.146-0.469-0.336-0.8-0.567-0.995c-0.167-0.135-0.369-0.202-0.604-0.202c-0.277,0-0.523,0.125-0.739,0.373
			c-0.293,0.338-0.492,0.868-0.598,1.593S151.802,49.303,151.802,50.007z"/>
	</g>
	<g>
		<path style="fill:#0066FF;" d="M11.611,56.939c0.236-0.558,0.534-0.988,0.894-1.291c0.36-0.304,0.809-0.455,1.346-0.455
			c0.663,0,1.172,0.216,1.525,0.646c0.269,0.322,0.403,0.666,0.403,1.032c0,0.602-0.379,1.225-1.136,1.867
			c0.509,0.199,0.894,0.484,1.154,0.854s0.391,0.806,0.391,1.307c0,0.716-0.228,1.336-0.684,1.861
			c-0.594,0.684-1.455,1.025-2.582,1.025c-0.558,0-0.937-0.069-1.139-0.207c-0.201-0.139-0.302-0.287-0.302-0.446
			c0-0.118,0.047-0.222,0.143-0.312c0.096-0.089,0.21-0.134,0.345-0.134c0.102,0,0.205,0.017,0.311,0.049
			c0.069,0.021,0.226,0.095,0.47,0.223s0.413,0.204,0.506,0.229c0.15,0.044,0.311,0.066,0.482,0.066c0.415,0,0.776-0.16,1.083-0.482
			c0.307-0.321,0.461-0.701,0.461-1.141c0-0.321-0.071-0.635-0.213-0.94c-0.106-0.228-0.222-0.4-0.348-0.519
			c-0.175-0.163-0.415-0.311-0.72-0.442s-0.616-0.198-0.934-0.198h-0.195V59.35c0.321-0.04,0.644-0.156,0.967-0.348
			c0.323-0.191,0.558-0.421,0.705-0.689s0.22-0.563,0.22-0.885c0-0.42-0.131-0.758-0.394-1.017
			c-0.262-0.259-0.589-0.388-0.979-0.388c-0.631,0-1.158,0.338-1.581,1.014L11.611,56.939z"/>
		<path style="fill:#0066FF;" d="M17.323,65.722v-0.269c0.419-0.138,0.744-0.353,0.974-0.644c0.229-0.291,0.345-0.6,0.345-0.925
			c0-0.077-0.018-0.143-0.055-0.195c-0.028-0.037-0.057-0.055-0.085-0.055c-0.045,0-0.143,0.04-0.293,0.122
			c-0.073,0.036-0.151,0.055-0.232,0.055c-0.199,0-0.358-0.059-0.476-0.177c-0.118-0.118-0.177-0.281-0.177-0.488
			c0-0.199,0.076-0.37,0.229-0.513c0.152-0.143,0.339-0.214,0.559-0.214c0.269,0,0.507,0.117,0.717,0.351
			c0.209,0.234,0.314,0.545,0.314,0.931c0,0.42-0.146,0.81-0.437,1.169C18.414,65.23,17.954,65.515,17.323,65.722z"/>
		<path style="fill:#0066FF;" d="M23.15,59.472c-0.655-0.537-1.077-0.968-1.266-1.294c-0.189-0.325-0.284-0.663-0.284-1.013
			c0-0.537,0.207-1,0.622-1.389s0.967-0.583,1.654-0.583c0.667,0,1.205,0.181,1.611,0.543s0.61,0.775,0.61,1.239
			c0,0.31-0.11,0.625-0.33,0.946s-0.677,0.699-1.374,1.135c0.716,0.554,1.19,0.989,1.422,1.307c0.309,0.415,0.464,0.853,0.464,1.312
			c0,0.581-0.222,1.079-0.666,1.492c-0.443,0.413-1.025,0.619-1.745,0.619c-0.786,0-1.398-0.246-1.837-0.738
			c-0.35-0.395-0.525-0.826-0.525-1.294c0-0.366,0.123-0.729,0.369-1.09S22.548,59.907,23.15,59.472z M23.437,59.704
			c-0.338,0.284-0.588,0.595-0.751,0.931c-0.163,0.336-0.244,0.699-0.244,1.09c0,0.524,0.144,0.944,0.431,1.26
			c0.287,0.315,0.652,0.473,1.096,0.473c0.439,0,0.791-0.124,1.056-0.372s0.396-0.549,0.396-0.903c0-0.293-0.077-0.555-0.231-0.787
			C24.9,60.963,24.316,60.399,23.437,59.704z M24.108,58.818c0.488-0.439,0.797-0.786,0.928-1.04s0.195-0.542,0.195-0.864
			c0-0.427-0.12-0.762-0.36-1.004c-0.24-0.241-0.568-0.363-0.983-0.363s-0.753,0.12-1.013,0.36s-0.391,0.521-0.391,0.843
			c0,0.211,0.054,0.423,0.162,0.635c0.108,0.211,0.262,0.413,0.461,0.604L24.108,58.818z"/>
		<path style="fill:#0066FF;" d="M32.818,60.589v0.866h-1.11v2.186H30.7v-2.186h-3.503v-0.781l3.839-5.48h0.672v5.396H32.818z
			 M30.7,60.589v-4.107l-2.905,4.107H30.7z"/>
		<path style="fill:#0066FF;" d="M39.354,56.176l2.014-0.982h0.202v6.988c0,0.464,0.019,0.753,0.058,0.867
			c0.039,0.113,0.119,0.201,0.241,0.262c0.122,0.062,0.37,0.096,0.745,0.104v0.226H39.5v-0.226c0.391-0.009,0.643-0.042,0.757-0.101
			c0.114-0.06,0.193-0.139,0.238-0.238c0.044-0.1,0.067-0.397,0.067-0.895v-4.468c0-0.602-0.021-0.988-0.061-1.159
			c-0.028-0.131-0.081-0.227-0.156-0.287s-0.166-0.092-0.271-0.092c-0.15,0-0.36,0.063-0.628,0.189L39.354,56.176z"/>
		<path style="fill:#0066FF;" d="M44.591,59.551c0-0.943,0.143-1.756,0.427-2.438s0.663-1.189,1.135-1.523
			c0.366-0.265,0.745-0.396,1.135-0.396c0.635,0,1.205,0.323,1.709,0.971c0.631,0.802,0.946,1.888,0.946,3.259
			c0,0.961-0.139,1.776-0.415,2.448c-0.277,0.671-0.63,1.158-1.059,1.461c-0.43,0.304-0.843,0.455-1.242,0.455
			c-0.79,0-1.447-0.466-1.971-1.397C44.812,61.604,44.591,60.658,44.591,59.551z M45.787,59.704c0,1.139,0.14,2.069,0.421,2.789
			c0.231,0.606,0.578,0.909,1.037,0.909c0.22,0,0.448-0.099,0.684-0.296c0.236-0.197,0.415-0.528,0.537-0.991
			c0.188-0.7,0.281-1.688,0.281-2.961c0-0.943-0.098-1.731-0.293-2.361c-0.146-0.469-0.336-0.8-0.568-0.995
			c-0.167-0.135-0.368-0.202-0.604-0.202c-0.277,0-0.523,0.125-0.739,0.373c-0.293,0.338-0.492,0.868-0.598,1.593
			S45.787,59,45.787,59.704z"/>
		<path style="fill:#0066FF;" d="M61.027,59.075c0.407-0.407,0.647-0.641,0.72-0.702c0.183-0.154,0.38-0.274,0.592-0.359
			c0.211-0.086,0.421-0.129,0.628-0.129c0.35,0,0.651,0.102,0.903,0.306c0.252,0.203,0.421,0.498,0.506,0.885
			c0.419-0.488,0.773-0.809,1.062-0.961c0.289-0.153,0.586-0.229,0.891-0.229c0.297,0,0.561,0.076,0.791,0.229
			c0.23,0.152,0.412,0.401,0.546,0.747c0.089,0.236,0.134,0.606,0.134,1.111v2.404c0,0.351,0.026,0.59,0.08,0.721
			c0.041,0.089,0.116,0.166,0.226,0.229c0.11,0.063,0.289,0.095,0.537,0.095v0.22h-2.759v-0.22h0.116
			c0.24,0,0.427-0.047,0.562-0.141c0.093-0.064,0.161-0.169,0.201-0.312c0.016-0.068,0.024-0.266,0.024-0.592v-2.404
			c0-0.456-0.055-0.777-0.165-0.965c-0.158-0.26-0.413-0.391-0.763-0.391c-0.216,0-0.433,0.055-0.65,0.162
			c-0.218,0.107-0.481,0.309-0.791,0.602l-0.012,0.066l0.012,0.263v2.667c0,0.383,0.021,0.621,0.064,0.715
			c0.043,0.093,0.123,0.172,0.241,0.234c0.118,0.063,0.319,0.095,0.604,0.095v0.22h-2.826v-0.22c0.309,0,0.522-0.036,0.638-0.11
			c0.116-0.072,0.196-0.183,0.241-0.329c0.021-0.069,0.031-0.271,0.031-0.604v-2.404c0-0.456-0.067-0.783-0.202-0.982
			c-0.179-0.261-0.429-0.391-0.75-0.391c-0.22,0-0.438,0.059-0.653,0.177c-0.338,0.179-0.598,0.38-0.781,0.604v2.996
			c0,0.366,0.025,0.604,0.076,0.715c0.051,0.109,0.126,0.191,0.226,0.247c0.1,0.055,0.302,0.082,0.607,0.082v0.22h-2.765v-0.22
			c0.256,0,0.436-0.027,0.537-0.082c0.102-0.056,0.179-0.143,0.232-0.263s0.08-0.354,0.08-0.699v-2.136
			c0-0.614-0.019-1.012-0.055-1.19c-0.028-0.135-0.073-0.227-0.134-0.277s-0.145-0.076-0.25-0.076c-0.114,0-0.25,0.03-0.409,0.091
			l-0.092-0.22l1.685-0.684h0.263V59.075z"/>
	</g>
	<g>
		<path style="fill:#0066FF;" d="M66.28,13.91h6.409v0.592H66.28V13.91z M66.28,16.187h6.409v0.604H66.28V16.187z"/>
		<path style="fill:#0066FF;" d="M181.778,13.91h6.409v0.592h-6.409V13.91z M181.778,16.187h6.409v0.604h-6.409V16.187z"/>
	</g>
	<g>
		<path style="fill:#0066FF;" d="M31.492,42.581c0,0.188-0.066,0.347-0.198,0.479c-0.132,0.132-0.29,0.198-0.473,0.198
			c-0.187,0-0.347-0.066-0.479-0.198c-0.132-0.133-0.199-0.292-0.199-0.479s0.066-0.347,0.199-0.479
			c0.132-0.132,0.292-0.198,0.479-0.198c0.183,0,0.341,0.066,0.473,0.198C31.425,42.234,31.492,42.394,31.492,42.581z"/>
	</g>
	<g>
		<path style="fill:#0066FF;" d="M0.226,49.311h6.409v0.592H0.226V49.311z M0.226,51.588h6.409v0.604H0.226V51.588z"/>
		<path style="fill:#0066FF;" d="M73.111,49.311h6.409v0.592h-6.409V49.311z M73.111,51.588h6.409v0.604h-6.409V51.588z"/>
		<path style="fill:#0066FF;" d="M133.689,48.603h0.305c-0.081,0.663-0.281,1.156-0.601,1.478c-0.32,0.321-0.693,0.482-1.12,0.482
			c-0.199,0-0.429-0.044-0.687-0.132c-0.259-0.087-0.659-0.284-1.203-0.589c-0.543-0.305-0.961-0.458-1.254-0.458
			c-0.269,0-0.504,0.097-0.705,0.29s-0.328,0.476-0.382,0.846h-0.28c0.077-0.659,0.274-1.15,0.592-1.475
			c0.317-0.323,0.678-0.484,1.081-0.484c0.199,0,0.447,0.049,0.744,0.146c0.216,0.072,0.641,0.278,1.275,0.616
			c0.48,0.256,0.873,0.384,1.178,0.384c0.261,0,0.475-0.081,0.642-0.244C133.494,49.252,133.632,48.965,133.689,48.603z
			 M133.689,50.965h0.305c-0.081,0.663-0.281,1.156-0.601,1.48c-0.32,0.323-0.693,0.484-1.12,0.484
			c-0.199,0-0.429-0.044-0.687-0.134c-0.259-0.09-0.659-0.287-1.203-0.592c-0.543-0.306-0.961-0.458-1.254-0.458
			c-0.269,0-0.504,0.097-0.705,0.29s-0.328,0.477-0.382,0.852h-0.28c0.077-0.659,0.274-1.15,0.592-1.475
			c0.317-0.323,0.678-0.485,1.081-0.485c0.199,0,0.447,0.049,0.744,0.146c0.216,0.074,0.641,0.279,1.275,0.617
			c0.48,0.256,0.873,0.385,1.178,0.385c0.261,0,0.475-0.084,0.642-0.251C133.494,51.614,133.632,51.327,133.689,50.965z"/>
	</g>
	<g>
		<path style="fill:#0066FF;" d="M36.716,60.442c0,0.188-0.066,0.347-0.198,0.479c-0.132,0.132-0.29,0.198-0.473,0.198
			c-0.187,0-0.347-0.066-0.479-0.198c-0.132-0.133-0.199-0.292-0.199-0.479s0.066-0.347,0.199-0.479
			c0.132-0.132,0.292-0.198,0.479-0.198c0.183,0,0.341,0.066,0.473,0.198C36.65,60.096,36.716,60.255,36.716,60.442z"/>
	</g>
</g>
<g id="theGroup">
</g>
</svg>
