<?xml version="1.0" encoding="iso-8859-1"?>
<!-- Generator: Adobe Illustrator 16.0.0, SVG Export Plug-In . SVG Version: 6.00 Build 0)  -->
<!DOCTYPE svg PUBLIC "-//W3C//DTD SVG 1.1//EN" "http://www.w3.org/Graphics/SVG/1.1/DTD/svg11.dtd">
<svg version="1.1" id="Lager_1" xmlns="http://www.w3.org/2000/svg" xmlns:xlink="http://www.w3.org/1999/xlink" x="0px" y="0px"
	 width="74.487px" height="51.376px" viewBox="0 0 74.487 51.376" style="enable-background:new 0 0 74.487 51.376;"
	 xml:space="preserve">
<g>
	
		<line style="fill:none;stroke:#0066FF;stroke-width:0.5;stroke-linecap:square;stroke-miterlimit:10;" x1="10.597" y1="34.585" x2="50.831" y2="34.585"/>
	<g>
		<path style="fill:#0066FF;" d="M5.719,8.229H2.515L1.953,9.535c-0.138,0.321-0.208,0.562-0.208,0.72
			c0,0.126,0.06,0.237,0.18,0.333c0.12,0.096,0.379,0.158,0.778,0.187V11H0.098v-0.226c0.346-0.062,0.57-0.141,0.671-0.238
			c0.208-0.195,0.438-0.592,0.69-1.19L4.37,2.534h0.214l2.881,6.885c0.231,0.554,0.442,0.913,0.631,1.078
			c0.189,0.165,0.453,0.257,0.791,0.278V11H5.621v-0.226c0.33-0.017,0.553-0.071,0.668-0.165c0.116-0.094,0.174-0.208,0.174-0.342
			c0-0.179-0.082-0.462-0.244-0.849L5.719,8.229z M5.548,7.777L4.145,4.433l-1.44,3.345H5.548z"/>
		<path style="fill:#0066FF;" d="M10.81,6.429c0.655-0.79,1.279-1.185,1.874-1.185c0.305,0,0.568,0.077,0.788,0.229
			c0.22,0.153,0.395,0.404,0.524,0.754c0.09,0.244,0.135,0.619,0.135,1.123v2.386c0,0.354,0.028,0.594,0.085,0.721
			c0.045,0.102,0.117,0.181,0.217,0.238s0.284,0.085,0.553,0.085V11H12.22v-0.22h0.116c0.261,0,0.443-0.04,0.546-0.119
			c0.104-0.079,0.176-0.196,0.217-0.351c0.016-0.062,0.024-0.252,0.024-0.574V7.448c0-0.509-0.066-0.878-0.198-1.108
			c-0.132-0.229-0.355-0.345-0.668-0.345c-0.484,0-0.966,0.265-1.446,0.793v2.948c0,0.379,0.022,0.613,0.067,0.702
			c0.057,0.118,0.135,0.205,0.235,0.259c0.1,0.055,0.302,0.083,0.607,0.083V11H8.955v-0.22h0.122c0.285,0,0.477-0.072,0.577-0.217
			c0.1-0.144,0.149-0.42,0.149-0.827V7.661c0-0.671-0.015-1.08-0.046-1.227c-0.03-0.146-0.077-0.246-0.14-0.299
			c-0.063-0.053-0.147-0.08-0.253-0.08c-0.114,0-0.25,0.031-0.409,0.091l-0.092-0.22l1.685-0.684h0.263V6.429z"/>
		<path style="fill:#0066FF;" d="M17.054,3.572v1.837h1.306v0.427h-1.306v3.625c0,0.362,0.052,0.606,0.156,0.732
			c0.104,0.126,0.237,0.189,0.399,0.189c0.135,0,0.265-0.042,0.391-0.125c0.126-0.083,0.224-0.207,0.293-0.369h0.238
			c-0.143,0.399-0.344,0.699-0.604,0.9c-0.26,0.201-0.529,0.302-0.806,0.302c-0.187,0-0.37-0.052-0.549-0.156
			c-0.179-0.104-0.312-0.252-0.397-0.446c-0.085-0.193-0.128-0.491-0.128-0.894v-3.76h-0.885V5.635
			c0.224-0.089,0.453-0.241,0.687-0.455c0.234-0.213,0.442-0.467,0.626-0.76c0.093-0.155,0.224-0.438,0.391-0.848H17.054z"/>
		<path style="fill:#0066FF;" d="M22.108,10.194c-0.574,0.443-0.934,0.7-1.081,0.769c-0.22,0.102-0.454,0.153-0.702,0.153
			c-0.387,0-0.705-0.132-0.956-0.397c-0.25-0.265-0.375-0.612-0.375-1.043c0-0.273,0.062-0.509,0.184-0.708
			c0.167-0.277,0.457-0.537,0.87-0.781c0.413-0.244,1.1-0.542,2.06-0.892v-0.22c0-0.557-0.089-0.939-0.266-1.147
			c-0.177-0.207-0.435-0.311-0.772-0.311c-0.256,0-0.459,0.069-0.61,0.208c-0.154,0.138-0.231,0.297-0.231,0.476l0.012,0.354
			c0,0.187-0.048,0.332-0.143,0.434c-0.096,0.102-0.221,0.152-0.375,0.152c-0.15,0-0.274-0.053-0.369-0.159
			c-0.096-0.106-0.144-0.25-0.144-0.433c0-0.35,0.179-0.672,0.537-0.965s0.86-0.439,1.508-0.439c0.496,0,0.903,0.083,1.221,0.25
			c0.24,0.126,0.417,0.324,0.531,0.592c0.073,0.175,0.11,0.533,0.11,1.074v1.898c0,0.533,0.01,0.86,0.03,0.979
			c0.021,0.12,0.054,0.201,0.101,0.241c0.046,0.041,0.101,0.061,0.162,0.061c0.065,0,0.122-0.014,0.171-0.043
			c0.085-0.053,0.25-0.201,0.494-0.445v0.342c-0.456,0.61-0.891,0.916-1.306,0.916c-0.2,0-0.358-0.069-0.477-0.208
			C22.173,10.764,22.112,10.528,22.108,10.194z M22.108,9.798v-2.13c-0.615,0.244-1.011,0.417-1.19,0.519
			c-0.321,0.179-0.551,0.366-0.689,0.562c-0.139,0.195-0.208,0.409-0.208,0.641c0,0.293,0.088,0.536,0.263,0.729
			s0.376,0.29,0.604,0.29C21.197,10.408,21.604,10.205,22.108,9.798z"/>
		<path style="fill:#0066FF;" d="M26.336,2.321v7.416c0,0.35,0.025,0.582,0.076,0.696c0.051,0.114,0.129,0.2,0.235,0.259
			s0.303,0.088,0.592,0.088V11h-2.741v-0.22c0.256,0,0.431-0.026,0.525-0.079c0.094-0.053,0.167-0.141,0.22-0.263
			s0.079-0.356,0.079-0.702V4.658c0-0.63-0.014-1.018-0.042-1.163c-0.028-0.144-0.074-0.243-0.137-0.296
			C25.08,3.147,25,3.12,24.902,3.12c-0.106,0-0.24,0.033-0.403,0.098l-0.104-0.213l1.667-0.684H26.336z"/>
		<path style="fill:#0066FF;" d="M28.677,7.515c-0.004,0.83,0.197,1.481,0.604,1.953c0.407,0.472,0.885,0.708,1.435,0.708
			c0.366,0,0.685-0.101,0.955-0.302c0.271-0.202,0.498-0.546,0.681-1.035l0.189,0.122c-0.086,0.558-0.334,1.065-0.745,1.523
			c-0.411,0.458-0.925,0.687-1.544,0.687c-0.671,0-1.246-0.261-1.724-0.784c-0.479-0.523-0.717-1.226-0.717-2.109
			c0-0.956,0.245-1.702,0.735-2.237s1.106-0.803,1.847-0.803c0.626,0,1.141,0.207,1.544,0.62s0.604,0.965,0.604,1.657H28.677z
			 M28.677,7.161h2.588c-0.021-0.358-0.063-0.61-0.128-0.757c-0.102-0.228-0.253-0.407-0.455-0.537
			c-0.201-0.13-0.412-0.195-0.631-0.195c-0.338,0-0.64,0.131-0.907,0.394C28.877,6.328,28.722,6.693,28.677,7.161z"/>
		<path style="fill:#0066FF;" d="M34.833,3.572v1.837h1.306v0.427h-1.306v3.625c0,0.362,0.052,0.606,0.156,0.732
			c0.104,0.126,0.237,0.189,0.399,0.189c0.135,0,0.265-0.042,0.391-0.125c0.126-0.083,0.224-0.207,0.293-0.369h0.238
			c-0.143,0.399-0.344,0.699-0.604,0.9c-0.26,0.201-0.529,0.302-0.806,0.302c-0.187,0-0.37-0.052-0.549-0.156
			c-0.179-0.104-0.312-0.252-0.397-0.446c-0.085-0.193-0.128-0.491-0.128-0.894v-3.76h-0.885V5.635
			c0.224-0.089,0.453-0.241,0.687-0.455c0.234-0.213,0.442-0.467,0.626-0.76c0.093-0.155,0.224-0.438,0.391-0.848H34.833z"/>
		<path style="fill:#0066FF;" d="M43.794,10.371c-0.272,0.285-0.539,0.49-0.8,0.614s-0.541,0.186-0.843,0.186
			c-0.609,0-1.143-0.255-1.599-0.766c-0.456-0.51-0.684-1.167-0.684-1.968s0.252-1.535,0.757-2.2
			c0.505-0.666,1.153-0.998,1.947-0.998c0.492,0,0.899,0.157,1.221,0.47V4.677c0-0.639-0.016-1.031-0.046-1.178
			S43.67,3.252,43.604,3.2s-0.146-0.08-0.244-0.08c-0.105,0-0.246,0.033-0.421,0.098L42.86,3.004l1.666-0.684h0.274v6.463
			c0,0.655,0.016,1.055,0.046,1.2s0.079,0.245,0.146,0.302c0.067,0.057,0.146,0.085,0.234,0.085c0.11,0,0.257-0.034,0.439-0.104
			l0.067,0.214l-1.66,0.689h-0.28V10.371z M43.794,9.944V7.063c-0.024-0.277-0.098-0.529-0.22-0.757
			c-0.122-0.228-0.284-0.4-0.485-0.516c-0.201-0.116-0.397-0.174-0.589-0.174c-0.358,0-0.678,0.161-0.958,0.482
			c-0.371,0.423-0.556,1.042-0.556,1.855c0,0.822,0.179,1.452,0.537,1.889c0.357,0.438,0.757,0.656,1.196,0.656
			C43.09,10.5,43.448,10.314,43.794,9.944z"/>
		<path style="fill:#0066FF;" d="M45.777,5.409h2.606v0.226h-0.129c-0.183,0-0.32,0.04-0.411,0.119
			c-0.092,0.08-0.138,0.178-0.138,0.296c0,0.159,0.067,0.379,0.201,0.659l1.361,2.82L50.52,6.44
			c0.069-0.167,0.104-0.332,0.104-0.494c0-0.073-0.015-0.128-0.043-0.165c-0.033-0.044-0.084-0.08-0.152-0.106
			c-0.069-0.026-0.191-0.04-0.367-0.04V5.409h1.819v0.226c-0.15,0.017-0.267,0.049-0.348,0.098
			c-0.082,0.049-0.171,0.141-0.269,0.275c-0.037,0.057-0.106,0.213-0.208,0.47l-2.276,5.578c-0.22,0.542-0.508,0.95-0.863,1.227
			c-0.356,0.277-0.699,0.415-1.029,0.415c-0.239,0-0.437-0.069-0.592-0.208c-0.154-0.138-0.231-0.297-0.231-0.476
			c0-0.171,0.056-0.308,0.168-0.412c0.111-0.104,0.265-0.156,0.46-0.156c0.135,0,0.318,0.045,0.55,0.135
			c0.163,0.061,0.265,0.091,0.306,0.091c0.121,0,0.255-0.063,0.399-0.189c0.145-0.126,0.29-0.371,0.437-0.732l0.396-0.971
			l-2.008-4.218c-0.062-0.126-0.159-0.283-0.293-0.47c-0.102-0.143-0.186-0.238-0.25-0.287c-0.094-0.065-0.244-0.122-0.452-0.171
			V5.409z"/>
		<path style="fill:#0066FF;" d="M53.453,8.961c-0.342-0.167-0.604-0.4-0.787-0.699c-0.183-0.299-0.274-0.63-0.274-0.992
			c0-0.553,0.208-1.029,0.625-1.428c0.417-0.399,0.951-0.599,1.603-0.599c0.533,0,0.995,0.13,1.386,0.391h1.184
			c0.175,0,0.277,0.005,0.306,0.016s0.049,0.027,0.061,0.052c0.024,0.037,0.037,0.102,0.037,0.195c0,0.106-0.011,0.179-0.03,0.22
			c-0.013,0.021-0.034,0.037-0.064,0.049s-0.134,0.019-0.309,0.019h-0.727c0.229,0.293,0.342,0.667,0.342,1.123
			c0,0.521-0.199,0.966-0.598,1.336s-0.934,0.555-1.605,0.555c-0.276,0-0.56-0.041-0.848-0.122c-0.18,0.155-0.301,0.29-0.363,0.406
			c-0.063,0.116-0.095,0.214-0.095,0.296c0,0.069,0.033,0.136,0.101,0.201c0.067,0.065,0.198,0.112,0.394,0.141
			c0.114,0.016,0.398,0.03,0.854,0.043c0.838,0.02,1.382,0.049,1.63,0.085c0.378,0.053,0.681,0.193,0.906,0.421
			s0.339,0.509,0.339,0.842c0,0.46-0.216,0.891-0.647,1.294c-0.635,0.594-1.463,0.891-2.483,0.891c-0.786,0-1.449-0.177-1.99-0.531
			c-0.305-0.204-0.458-0.415-0.458-0.635c0-0.098,0.022-0.195,0.067-0.293c0.069-0.151,0.212-0.36,0.428-0.629
			c0.028-0.037,0.235-0.256,0.622-0.659c-0.212-0.126-0.361-0.239-0.448-0.339c-0.088-0.1-0.132-0.212-0.132-0.339
			c0-0.142,0.059-0.309,0.174-0.5C52.767,9.582,53.034,9.312,53.453,8.961z M53.393,11c-0.191,0.208-0.336,0.401-0.434,0.58
			c-0.098,0.179-0.146,0.344-0.146,0.494c0,0.195,0.118,0.366,0.354,0.513c0.406,0.252,0.994,0.378,1.764,0.378
			c0.732,0,1.272-0.129,1.62-0.388s0.522-0.534,0.522-0.827c0-0.212-0.104-0.362-0.312-0.452c-0.212-0.089-0.631-0.142-1.258-0.158
			C54.589,11.116,53.885,11.069,53.393,11z M54.516,5.537c-0.302,0-0.554,0.12-0.757,0.36c-0.204,0.24-0.306,0.608-0.306,1.104
			c0,0.643,0.139,1.142,0.415,1.496C54.08,8.766,54.349,8.9,54.674,8.9c0.31,0,0.563-0.116,0.763-0.348
			c0.2-0.232,0.3-0.596,0.3-1.093c0-0.647-0.141-1.153-0.421-1.52C55.107,5.672,54.841,5.537,54.516,5.537z"/>
		<path style="fill:#0066FF;" d="M59.838,6.429c0.655-0.79,1.279-1.185,1.874-1.185c0.305,0,0.567,0.077,0.787,0.229
			c0.22,0.153,0.395,0.404,0.524,0.754c0.09,0.244,0.135,0.619,0.135,1.123v2.386c0,0.354,0.028,0.594,0.085,0.721
			c0.045,0.102,0.117,0.181,0.217,0.238s0.284,0.085,0.553,0.085V11h-2.766v-0.22h0.116c0.261,0,0.442-0.04,0.547-0.119
			c0.104-0.079,0.176-0.196,0.216-0.351c0.017-0.062,0.025-0.252,0.025-0.574V7.448c0-0.509-0.066-0.878-0.199-1.108
			c-0.132-0.229-0.354-0.345-0.668-0.345c-0.484,0-0.967,0.265-1.446,0.793v2.948c0,0.379,0.022,0.613,0.067,0.702
			c0.057,0.118,0.135,0.205,0.234,0.259c0.1,0.055,0.303,0.083,0.607,0.083V11h-2.765v-0.22h0.122c0.284,0,0.477-0.072,0.576-0.217
			c0.1-0.144,0.15-0.42,0.15-0.827V7.661c0-0.671-0.016-1.08-0.046-1.227c-0.031-0.146-0.078-0.246-0.141-0.299
			c-0.063-0.053-0.147-0.08-0.253-0.08c-0.114,0-0.251,0.031-0.409,0.091l-0.092-0.22l1.685-0.684h0.263V6.429z"/>
	</g>
	<g>
		<path style="fill:#0066FF;" d="M11.633,25.661c0-0.944,0.143-1.757,0.427-2.438c0.285-0.681,0.663-1.189,1.135-1.523
			c0.366-0.264,0.745-0.396,1.135-0.396c0.635,0,1.205,0.323,1.709,0.971c0.631,0.801,0.946,1.888,0.946,3.259
			c0,0.96-0.139,1.776-0.415,2.448c-0.277,0.671-0.63,1.158-1.059,1.461c-0.43,0.304-0.843,0.455-1.242,0.455
			c-0.79,0-1.447-0.466-1.971-1.397C11.855,27.714,11.633,26.768,11.633,25.661z M12.83,25.813c0,1.139,0.14,2.069,0.421,2.789
			c0.231,0.606,0.578,0.909,1.037,0.909c0.22,0,0.448-0.099,0.684-0.296c0.236-0.197,0.415-0.528,0.537-0.991
			c0.188-0.7,0.281-1.688,0.281-2.961c0-0.944-0.098-1.731-0.293-2.362c-0.146-0.468-0.336-0.799-0.568-0.995
			c-0.167-0.135-0.368-0.202-0.604-0.202c-0.277,0-0.523,0.124-0.739,0.373c-0.293,0.337-0.492,0.869-0.598,1.593
			S12.83,25.109,12.83,25.813z"/>
		<path style="fill:#0066FF;" d="M18.103,31.831v-0.269c0.419-0.138,0.744-0.353,0.974-0.644c0.229-0.291,0.345-0.6,0.345-0.925
			c0-0.077-0.018-0.143-0.055-0.195c-0.028-0.037-0.057-0.055-0.085-0.055c-0.045,0-0.143,0.04-0.293,0.122
			c-0.073,0.036-0.151,0.055-0.232,0.055c-0.199,0-0.358-0.059-0.476-0.177c-0.118-0.118-0.177-0.281-0.177-0.488
			c0-0.199,0.076-0.37,0.229-0.513c0.152-0.143,0.339-0.214,0.559-0.214c0.269,0,0.507,0.117,0.717,0.351
			c0.209,0.234,0.314,0.545,0.314,0.931c0,0.42-0.146,0.81-0.437,1.169C19.194,31.34,18.734,31.624,18.103,31.831z"/>
		<path style="fill:#0066FF;" d="M25.982,21.474l-0.476,1.038h-2.49l-0.543,1.111c1.078,0.159,1.933,0.56,2.563,1.202
			c0.541,0.554,0.812,1.205,0.812,1.953c0,0.436-0.089,0.839-0.266,1.209c-0.177,0.37-0.4,0.686-0.668,0.945
			c-0.269,0.261-0.568,0.471-0.897,0.629c-0.468,0.224-0.948,0.336-1.44,0.336c-0.497,0-0.858-0.085-1.083-0.253
			c-0.226-0.169-0.339-0.355-0.339-0.559c0-0.114,0.047-0.215,0.14-0.303c0.094-0.087,0.212-0.131,0.354-0.131
			c0.105,0,0.198,0.017,0.277,0.049c0.08,0.032,0.215,0.116,0.406,0.25c0.305,0.212,0.614,0.317,0.928,0.317
			c0.476,0,0.894-0.18,1.254-0.54c0.36-0.36,0.54-0.799,0.54-1.315c0-0.5-0.161-0.967-0.482-1.4s-0.765-0.768-1.331-1.004
			c-0.443-0.184-1.048-0.289-1.812-0.317l1.587-3.217H25.982z"/>
		<path style="fill:#0066FF;" d="M32.245,21.071v7.416c0,0.351,0.025,0.582,0.076,0.696c0.051,0.113,0.129,0.2,0.235,0.259
			c0.106,0.06,0.303,0.089,0.592,0.089v0.22h-2.741v-0.22c0.256,0,0.431-0.026,0.525-0.079s0.167-0.141,0.22-0.263
			s0.079-0.356,0.079-0.702v-5.078c0-0.63-0.014-1.018-0.042-1.163c-0.028-0.144-0.074-0.243-0.137-0.296
			c-0.063-0.053-0.144-0.08-0.241-0.08c-0.106,0-0.24,0.033-0.403,0.098l-0.104-0.213l1.667-0.684H32.245z"/>
		<path style="fill:#0066FF;" d="M35.574,23.994v4.492c0,0.351,0.025,0.583,0.076,0.699s0.126,0.202,0.226,0.26
			c0.1,0.057,0.282,0.085,0.546,0.085v0.22h-2.716v-0.22c0.272,0,0.456-0.026,0.549-0.079s0.168-0.141,0.223-0.263
			c0.055-0.122,0.083-0.356,0.083-0.702v-2.154c0-0.606-0.018-0.999-0.055-1.178c-0.028-0.13-0.073-0.221-0.134-0.272
			c-0.062-0.051-0.145-0.076-0.25-0.076c-0.114,0-0.252,0.031-0.415,0.091l-0.085-0.22l1.685-0.684H35.574z M35.067,21.071
			c0.171,0,0.316,0.06,0.437,0.18s0.18,0.266,0.18,0.437s-0.06,0.317-0.18,0.439s-0.266,0.183-0.437,0.183s-0.317-0.061-0.439-0.183
			s-0.183-0.269-0.183-0.439s0.06-0.316,0.18-0.437S34.892,21.071,35.067,21.071z"/>
		<path style="fill:#0066FF;" d="M38.778,22.322v1.837h1.307v0.427h-1.307v3.625c0,0.362,0.053,0.606,0.156,0.732
			s0.238,0.189,0.4,0.189c0.135,0,0.264-0.042,0.391-0.125c0.125-0.084,0.223-0.207,0.293-0.37h0.238
			c-0.143,0.399-0.344,0.699-0.605,0.9c-0.26,0.202-0.527,0.303-0.805,0.303c-0.188,0-0.371-0.052-0.549-0.156
			c-0.179-0.104-0.312-0.252-0.397-0.445s-0.128-0.491-0.128-0.895v-3.759h-0.885v-0.202c0.224-0.089,0.453-0.241,0.687-0.455
			c0.234-0.213,0.442-0.467,0.626-0.76c0.093-0.155,0.224-0.438,0.391-0.848H38.778z"/>
		<path style="fill:#0066FF;" d="M41.605,26.265c-0.004,0.83,0.198,1.481,0.604,1.953c0.407,0.473,0.886,0.708,1.435,0.708
			c0.366,0,0.685-0.101,0.955-0.302s0.498-0.546,0.681-1.034l0.189,0.121c-0.086,0.558-0.334,1.065-0.745,1.523
			s-0.926,0.687-1.544,0.687c-0.671,0-1.246-0.262-1.725-0.784c-0.478-0.522-0.717-1.226-0.717-2.109
			c0-0.956,0.245-1.701,0.735-2.236s1.105-0.803,1.847-0.803c0.626,0,1.142,0.207,1.544,0.62s0.604,0.965,0.604,1.657H41.605z
			 M41.605,25.911h2.588c-0.02-0.358-0.062-0.61-0.128-0.757c-0.102-0.228-0.253-0.407-0.454-0.537
			c-0.202-0.13-0.412-0.195-0.632-0.195c-0.338,0-0.641,0.131-0.906,0.394C41.807,25.078,41.65,25.443,41.605,25.911z"/>
		<path style="fill:#0066FF;" d="M47.774,23.994v1.258c0.468-0.838,0.948-1.258,1.44-1.258c0.224,0,0.409,0.068,0.556,0.205
			c0.146,0.137,0.22,0.294,0.22,0.473c0,0.159-0.053,0.293-0.159,0.403c-0.105,0.11-0.231,0.165-0.378,0.165
			c-0.143,0-0.303-0.07-0.479-0.21c-0.177-0.14-0.308-0.21-0.394-0.21c-0.073,0-0.152,0.041-0.238,0.122
			c-0.183,0.167-0.372,0.441-0.567,0.824v2.679c0,0.31,0.039,0.544,0.116,0.702c0.053,0.11,0.146,0.202,0.28,0.274
			c0.135,0.074,0.328,0.11,0.58,0.11v0.22h-2.862v-0.22c0.284,0,0.496-0.045,0.635-0.134c0.102-0.065,0.173-0.169,0.213-0.312
			c0.021-0.069,0.031-0.267,0.031-0.593v-2.166c0-0.651-0.014-1.039-0.04-1.163c-0.026-0.124-0.075-0.214-0.146-0.271
			s-0.159-0.085-0.266-0.085c-0.126,0-0.269,0.031-0.427,0.091l-0.062-0.22l1.69-0.684H47.774z"/>
	</g>
	<g>
		<path style="fill:#0066FF;" d="M69.811,29.608l-0.476,1.038h-2.49l-0.544,1.11c1.079,0.159,1.934,0.56,2.564,1.202
			c0.541,0.554,0.812,1.205,0.812,1.953c0,0.436-0.089,0.839-0.266,1.209s-0.399,0.686-0.669,0.945
			c-0.268,0.261-0.567,0.471-0.896,0.629c-0.468,0.224-0.948,0.336-1.44,0.336c-0.497,0-0.857-0.085-1.084-0.253
			c-0.226-0.169-0.339-0.355-0.339-0.559c0-0.114,0.047-0.215,0.141-0.303c0.094-0.087,0.212-0.131,0.354-0.131
			c0.105,0,0.198,0.017,0.277,0.049s0.215,0.116,0.406,0.25c0.305,0.212,0.614,0.317,0.928,0.317c0.476,0,0.894-0.18,1.254-0.54
			s0.54-0.799,0.54-1.315c0-0.5-0.16-0.967-0.482-1.4c-0.321-0.434-0.765-0.769-1.33-1.004c-0.443-0.184-1.048-0.289-1.812-0.317
			l1.587-3.217H69.811z"/>
	</g>
	<g>
		<path style="fill:#0066FF;" d="M11.633,43.453c0-0.943,0.143-1.756,0.427-2.438s0.663-1.189,1.135-1.523
			c0.366-0.265,0.745-0.396,1.135-0.396c0.635,0,1.205,0.323,1.709,0.971c0.631,0.802,0.946,1.888,0.946,3.259
			c0,0.961-0.139,1.776-0.415,2.448c-0.277,0.671-0.63,1.158-1.059,1.461c-0.43,0.304-0.843,0.455-1.242,0.455
			c-0.79,0-1.447-0.466-1.971-1.397C11.855,45.507,11.633,44.561,11.633,43.453z M12.83,43.606c0,1.139,0.14,2.069,0.421,2.789
			c0.231,0.606,0.578,0.909,1.037,0.909c0.22,0,0.448-0.099,0.684-0.296c0.236-0.197,0.415-0.528,0.537-0.991
			c0.188-0.7,0.281-1.688,0.281-2.961c0-0.943-0.098-1.731-0.293-2.361c-0.146-0.469-0.336-0.8-0.568-0.995
			c-0.167-0.135-0.368-0.202-0.604-0.202c-0.277,0-0.523,0.125-0.739,0.373c-0.293,0.338-0.492,0.868-0.598,1.593
			S12.83,42.902,12.83,43.606z"/>
		<path style="fill:#0066FF;" d="M18.103,49.624v-0.269c0.419-0.138,0.744-0.353,0.974-0.644c0.229-0.291,0.345-0.6,0.345-0.925
			c0-0.077-0.018-0.143-0.055-0.195c-0.028-0.037-0.057-0.055-0.085-0.055c-0.045,0-0.143,0.04-0.293,0.122
			c-0.073,0.036-0.151,0.055-0.232,0.055c-0.199,0-0.358-0.059-0.476-0.177c-0.118-0.118-0.177-0.281-0.177-0.488
			c0-0.199,0.076-0.37,0.229-0.513c0.152-0.143,0.339-0.214,0.559-0.214c0.269,0,0.507,0.117,0.717,0.351
			c0.209,0.234,0.314,0.545,0.314,0.931c0,0.42-0.146,0.81-0.437,1.169C19.194,49.133,18.734,49.417,18.103,49.624z"/>
		<path style="fill:#0066FF;" d="M22.021,40.078l2.014-0.982h0.202v6.988c0,0.464,0.019,0.753,0.058,0.867
			c0.039,0.113,0.119,0.201,0.241,0.262c0.122,0.062,0.37,0.096,0.745,0.104v0.226h-3.113v-0.226
			c0.391-0.009,0.643-0.042,0.757-0.101c0.114-0.06,0.193-0.139,0.238-0.238c0.044-0.1,0.067-0.397,0.067-0.895v-4.468
			c0-0.602-0.021-0.988-0.061-1.159c-0.028-0.131-0.081-0.227-0.156-0.287s-0.166-0.092-0.271-0.092c-0.15,0-0.36,0.063-0.628,0.189
			L22.021,40.078z"/>
		<path style="fill:#0066FF;" d="M32.245,38.863v7.416c0,0.351,0.025,0.582,0.076,0.696c0.051,0.113,0.129,0.2,0.235,0.259
			c0.106,0.06,0.303,0.089,0.592,0.089v0.22h-2.741v-0.22c0.256,0,0.431-0.026,0.525-0.079s0.167-0.141,0.22-0.263
			s0.079-0.356,0.079-0.702v-5.078c0-0.631-0.014-1.018-0.042-1.162s-0.074-0.243-0.137-0.297c-0.063-0.053-0.144-0.079-0.241-0.079
			c-0.106,0-0.24,0.033-0.403,0.098l-0.104-0.214l1.667-0.684H32.245z"/>
		<path style="fill:#0066FF;" d="M35.574,41.787v4.492c0,0.351,0.025,0.583,0.076,0.699s0.126,0.202,0.226,0.26
			c0.1,0.057,0.282,0.085,0.546,0.085v0.22h-2.716v-0.22c0.272,0,0.456-0.026,0.549-0.079s0.168-0.141,0.223-0.263
			c0.055-0.122,0.083-0.356,0.083-0.702v-2.154c0-0.606-0.018-0.999-0.055-1.178c-0.028-0.131-0.073-0.221-0.134-0.271
			c-0.062-0.051-0.145-0.076-0.25-0.076c-0.114,0-0.252,0.03-0.415,0.091l-0.085-0.22l1.685-0.684H35.574z M35.067,38.863
			c0.171,0,0.316,0.061,0.437,0.181s0.18,0.266,0.18,0.437s-0.06,0.317-0.18,0.439s-0.266,0.183-0.437,0.183
			s-0.317-0.061-0.439-0.183s-0.183-0.269-0.183-0.439s0.06-0.316,0.18-0.437S34.892,38.863,35.067,38.863z"/>
		<path style="fill:#0066FF;" d="M38.778,40.115v1.837h1.307v0.427h-1.307v3.626c0,0.362,0.053,0.606,0.156,0.732
			s0.238,0.189,0.4,0.189c0.135,0,0.264-0.042,0.391-0.125c0.125-0.084,0.223-0.207,0.293-0.37h0.238
			c-0.143,0.399-0.344,0.699-0.605,0.9c-0.26,0.202-0.527,0.303-0.805,0.303c-0.188,0-0.371-0.052-0.549-0.156
			c-0.179-0.104-0.312-0.252-0.397-0.445s-0.128-0.491-0.128-0.895v-3.76h-0.885v-0.201c0.224-0.089,0.453-0.241,0.687-0.454
			c0.234-0.214,0.442-0.468,0.626-0.761c0.093-0.154,0.224-0.437,0.391-0.848H38.778z"/>
		<path style="fill:#0066FF;" d="M41.605,44.058c-0.004,0.83,0.198,1.481,0.604,1.953c0.407,0.473,0.886,0.708,1.435,0.708
			c0.366,0,0.685-0.101,0.955-0.302s0.498-0.546,0.681-1.034l0.189,0.121c-0.086,0.558-0.334,1.065-0.745,1.523
			s-0.926,0.687-1.544,0.687c-0.671,0-1.246-0.262-1.725-0.784c-0.478-0.522-0.717-1.226-0.717-2.109
			c0-0.956,0.245-1.701,0.735-2.236s1.105-0.803,1.847-0.803c0.626,0,1.142,0.207,1.544,0.619c0.402,0.413,0.604,0.966,0.604,1.657
			H41.605z M41.605,43.704h2.588c-0.02-0.358-0.062-0.61-0.128-0.757c-0.102-0.229-0.253-0.407-0.454-0.537
			c-0.202-0.131-0.412-0.195-0.632-0.195c-0.338,0-0.641,0.131-0.906,0.394C41.807,42.871,41.65,43.236,41.605,43.704z"/>
		<path style="fill:#0066FF;" d="M47.774,41.787v1.258c0.468-0.839,0.948-1.258,1.44-1.258c0.224,0,0.409,0.068,0.556,0.205
			c0.146,0.136,0.22,0.294,0.22,0.473c0,0.158-0.053,0.293-0.159,0.402c-0.105,0.11-0.231,0.165-0.378,0.165
			c-0.143,0-0.303-0.07-0.479-0.21c-0.177-0.141-0.308-0.211-0.394-0.211c-0.073,0-0.152,0.041-0.238,0.122
			c-0.183,0.167-0.372,0.441-0.567,0.824v2.679c0,0.31,0.039,0.544,0.116,0.702c0.053,0.11,0.146,0.202,0.28,0.274
			c0.135,0.074,0.328,0.11,0.58,0.11v0.22h-2.862v-0.22c0.284,0,0.496-0.045,0.635-0.134c0.102-0.065,0.173-0.169,0.213-0.312
			c0.021-0.069,0.031-0.267,0.031-0.593v-2.166c0-0.651-0.014-1.039-0.04-1.163s-0.075-0.215-0.146-0.271S46.422,42.6,46.315,42.6
			c-0.126,0-0.269,0.03-0.427,0.091l-0.062-0.22l1.69-0.684H47.774z"/>
	</g>
	<g>
		<path style="fill:#0066FF;" d="M67.853,6.367h6.409v0.592h-6.409V6.367z M67.853,8.644h6.409v0.604h-6.409V8.644z"/>
	</g>
	<g>
		<path style="fill:#0066FF;" d="M0.226,33.252h6.409v0.592H0.226V33.252z M0.226,35.529h6.409v0.604H0.226V35.529z"/>
		<path style="fill:#0066FF;" d="M54.599,33.252h6.409v0.592h-6.409V33.252z M54.599,35.529h6.409v0.604h-6.409V35.529z"/>
	</g>
</g>
<g id="theGroup">
</g>
</svg>
