<?xml version="1.0" encoding="iso-8859-1"?>
<!-- Generator: Adobe Illustrator 16.0.0, SVG Export Plug-In . SVG Version: 6.00 Build 0)  -->
<!DOCTYPE svg PUBLIC "-//W3C//DTD SVG 1.1//EN" "http://www.w3.org/Graphics/SVG/1.1/DTD/svg11.dtd">
<svg version="1.1" id="Lager_1" xmlns="http://www.w3.org/2000/svg" xmlns:xlink="http://www.w3.org/1999/xlink" x="0px" y="0px"
	 width="170.242px" height="15.454px" viewBox="0 0 170.242 15.454" style="enable-background:new 0 0 170.242 15.454;"
	 xml:space="preserve">
<g>
	<g>
		<path d="M33.894,1.69l1.165-0.568h0.117v4.041c0,0.268,0.011,0.435,0.033,0.501s0.069,0.117,0.14,0.152
			c0.07,0.035,0.214,0.055,0.43,0.06v0.13h-1.799v-0.13c0.226-0.005,0.372-0.024,0.438-0.059c0.066-0.034,0.112-0.08,0.138-0.137
			s0.039-0.23,0.039-0.517V2.58c0-0.348-0.012-0.572-0.035-0.67c-0.017-0.075-0.046-0.13-0.09-0.166
			C34.423,1.708,34.371,1.69,34.31,1.69c-0.087,0-0.208,0.037-0.363,0.109L33.894,1.69z"/>
		<path d="M36.907,3.642c0-0.545,0.082-1.016,0.247-1.41c0.165-0.394,0.383-0.688,0.656-0.88c0.211-0.153,0.43-0.229,0.656-0.229
			c0.367,0,0.696,0.187,0.988,0.561c0.365,0.464,0.547,1.092,0.547,1.884c0,0.555-0.08,1.027-0.24,1.415s-0.364,0.67-0.612,0.845
			S38.662,6.09,38.431,6.09c-0.457,0-0.836-0.269-1.14-0.808C37.035,4.829,36.907,4.282,36.907,3.642z M37.598,3.73
			c0,0.659,0.081,1.196,0.244,1.612c0.134,0.351,0.334,0.526,0.6,0.526c0.127,0,0.259-0.057,0.396-0.171
			c0.136-0.114,0.24-0.305,0.311-0.574c0.108-0.404,0.162-0.975,0.162-1.711c0-0.545-0.057-1-0.169-1.365
			c-0.084-0.271-0.194-0.462-0.328-0.575c-0.096-0.078-0.213-0.117-0.349-0.117c-0.16,0-0.302,0.072-0.427,0.215
			c-0.169,0.195-0.285,0.502-0.346,0.921C37.629,2.91,37.598,3.323,37.598,3.73z"/>
	</g>
	<g>
		<path d="M5.731,10.028l-0.58,1.593H0.269v-0.226c1.437-1.311,2.447-2.381,3.033-3.211s0.879-1.589,0.879-2.276
			c0-0.525-0.161-0.956-0.482-1.294S2.993,4.107,2.545,4.107c-0.407,0-0.772,0.119-1.095,0.357C1.126,4.703,0.887,5.052,0.732,5.512
			H0.507C0.608,4.759,0.87,4.181,1.291,3.778c0.421-0.403,0.947-0.604,1.578-0.604c0.671,0,1.232,0.216,1.682,0.647
			C5,4.252,5.225,4.761,5.225,5.347c0,0.419-0.098,0.838-0.293,1.257C4.63,7.263,4.142,7.961,3.467,8.697
			c-1.013,1.107-1.646,1.774-1.898,2.002h2.161c0.439,0,0.748-0.016,0.924-0.049c0.177-0.032,0.337-0.099,0.479-0.198
			c0.143-0.1,0.267-0.241,0.373-0.424H5.731z"/>
		<path d="M6.734,13.702v-0.269c0.419-0.138,0.744-0.353,0.974-0.644c0.229-0.291,0.345-0.6,0.345-0.925
			c0-0.077-0.018-0.143-0.055-0.195c-0.028-0.037-0.057-0.055-0.085-0.055c-0.045,0-0.143,0.04-0.293,0.122
			c-0.073,0.036-0.151,0.055-0.232,0.055c-0.199,0-0.358-0.059-0.476-0.177c-0.118-0.118-0.177-0.281-0.177-0.488
			c0-0.199,0.076-0.37,0.229-0.513C7.115,10.472,7.302,10.4,7.521,10.4c0.269,0,0.507,0.117,0.717,0.351
			c0.209,0.234,0.314,0.545,0.314,0.931c0,0.42-0.146,0.81-0.437,1.169C7.825,13.211,7.365,13.495,6.734,13.702z"/>
		<path d="M15.776,3.345L15.3,4.382h-2.49l-0.543,1.111c1.078,0.159,1.933,0.56,2.563,1.202c0.541,0.554,0.812,1.205,0.812,1.953
			c0,0.436-0.089,0.839-0.266,1.209c-0.177,0.37-0.4,0.686-0.668,0.945c-0.269,0.261-0.568,0.471-0.897,0.629
			c-0.468,0.224-0.948,0.336-1.44,0.336c-0.497,0-0.858-0.085-1.083-0.253c-0.226-0.169-0.339-0.355-0.339-0.559
			c0-0.114,0.047-0.215,0.14-0.303c0.094-0.087,0.212-0.131,0.354-0.131c0.105,0,0.198,0.017,0.277,0.049
			c0.08,0.032,0.215,0.116,0.406,0.25c0.305,0.212,0.614,0.317,0.928,0.317c0.476,0,0.894-0.18,1.254-0.54
			c0.36-0.36,0.54-0.799,0.54-1.315c0-0.5-0.161-0.967-0.482-1.4c-0.321-0.434-0.765-0.768-1.331-1.004
			c-0.443-0.184-1.048-0.289-1.812-0.317l1.587-3.217H15.776z"/>
		<path d="M22.515,4.156l2.014-0.982h0.202v6.988c0,0.464,0.019,0.753,0.058,0.867c0.039,0.113,0.119,0.201,0.241,0.262
			c0.122,0.062,0.37,0.096,0.745,0.104v0.226h-3.113v-0.226c0.391-0.009,0.643-0.042,0.757-0.101
			c0.114-0.06,0.193-0.139,0.238-0.238c0.044-0.1,0.067-0.397,0.067-0.895V5.694c0-0.602-0.021-0.988-0.061-1.159
			c-0.028-0.13-0.081-0.226-0.156-0.287s-0.166-0.092-0.271-0.092c-0.15,0-0.36,0.063-0.628,0.189L22.515,4.156z"/>
		<path d="M27.751,7.532c0-0.944,0.143-1.757,0.427-2.438c0.285-0.681,0.663-1.189,1.135-1.523c0.366-0.264,0.745-0.396,1.135-0.396
			c0.635,0,1.205,0.323,1.709,0.971c0.631,0.801,0.946,1.888,0.946,3.259c0,0.96-0.139,1.776-0.415,2.448
			c-0.277,0.671-0.63,1.158-1.059,1.461c-0.43,0.304-0.843,0.455-1.242,0.455c-0.79,0-1.447-0.466-1.971-1.397
			C27.973,9.585,27.751,8.639,27.751,7.532z M28.948,7.685c0,1.139,0.14,2.069,0.421,2.789c0.231,0.606,0.578,0.909,1.037,0.909
			c0.22,0,0.448-0.099,0.684-0.296c0.236-0.197,0.415-0.528,0.537-0.991c0.188-0.7,0.281-1.687,0.281-2.961
			c0-0.944-0.098-1.731-0.293-2.362c-0.146-0.468-0.336-0.799-0.568-0.995c-0.167-0.135-0.368-0.202-0.604-0.202
			c-0.277,0-0.523,0.124-0.739,0.373c-0.293,0.337-0.492,0.869-0.598,1.593S28.948,6.98,28.948,7.685z"/>
		<path d="M51.149,7.397c0.574,0.122,1.003,0.317,1.288,0.586c0.395,0.375,0.592,0.832,0.592,1.373c0,0.411-0.13,0.805-0.391,1.182
			c-0.26,0.376-0.618,0.65-1.071,0.823c-0.454,0.174-1.146,0.26-2.078,0.26h-3.906v-0.226h0.311c0.346,0,0.594-0.11,0.745-0.33
			c0.093-0.143,0.14-0.445,0.14-0.909V4.81c0-0.513-0.059-0.836-0.177-0.971C46.443,3.66,46.207,3.57,45.894,3.57h-0.311V3.345
			h3.577c0.667,0,1.202,0.049,1.605,0.146c0.61,0.146,1.076,0.406,1.397,0.778c0.321,0.372,0.482,0.8,0.482,1.285
			c0,0.415-0.126,0.787-0.379,1.114C52.014,6.996,51.641,7.239,51.149,7.397z M47.951,7.068c0.15,0.028,0.322,0.05,0.516,0.064
			c0.193,0.015,0.406,0.021,0.638,0.021c0.594,0,1.041-0.064,1.339-0.192c0.299-0.128,0.528-0.324,0.687-0.589
			c0.158-0.265,0.238-0.553,0.238-0.867c0-0.484-0.197-0.897-0.592-1.239c-0.395-0.342-0.97-0.513-1.727-0.513
			c-0.407,0-0.773,0.044-1.099,0.134V7.068z M47.951,11.023c0.472,0.109,0.938,0.164,1.398,0.164c0.736,0,1.298-0.165,1.685-0.497
			c0.386-0.332,0.58-0.741,0.58-1.229c0-0.322-0.087-0.631-0.262-0.928c-0.175-0.297-0.46-0.531-0.854-0.702
			c-0.395-0.171-0.883-0.257-1.465-0.257c-0.252,0-0.468,0.004-0.647,0.013c-0.179,0.008-0.323,0.022-0.433,0.042V11.023z"/>
		<path d="M58.043,8.136c-0.004,0.83,0.197,1.481,0.604,1.953c0.407,0.473,0.885,0.708,1.435,0.708c0.366,0,0.685-0.101,0.955-0.302
			s0.498-0.546,0.681-1.034l0.189,0.121c-0.086,0.558-0.334,1.065-0.745,1.523c-0.411,0.458-0.925,0.687-1.544,0.687
			c-0.671,0-1.246-0.262-1.724-0.784c-0.479-0.522-0.717-1.226-0.717-2.109c0-0.956,0.245-1.701,0.735-2.236
			s1.106-0.803,1.847-0.803c0.626,0,1.141,0.207,1.544,0.62s0.604,0.965,0.604,1.657H58.043z M58.043,7.782h2.588
			c-0.021-0.358-0.063-0.61-0.128-0.757c-0.102-0.228-0.253-0.407-0.455-0.537c-0.201-0.13-0.412-0.195-0.631-0.195
			c-0.338,0-0.64,0.131-0.907,0.394C58.243,6.949,58.088,7.314,58.043,7.782z"/>
		<path d="M64.499,2.942v7.416c0,0.351,0.025,0.582,0.076,0.696c0.051,0.113,0.129,0.2,0.235,0.259
			c0.106,0.06,0.303,0.089,0.592,0.089v0.22h-2.741v-0.22c0.256,0,0.431-0.026,0.525-0.079s0.167-0.141,0.22-0.263
			s0.079-0.356,0.079-0.702V5.279c0-0.63-0.014-1.018-0.042-1.163c-0.028-0.144-0.074-0.243-0.137-0.296
			c-0.063-0.053-0.144-0.08-0.241-0.08c-0.106,0-0.24,0.033-0.403,0.098l-0.104-0.213l1.667-0.684H64.499z"/>
		<path d="M67.822,2.942v7.416c0,0.351,0.025,0.582,0.076,0.696c0.051,0.113,0.129,0.2,0.235,0.259
			c0.106,0.06,0.303,0.089,0.592,0.089v0.22h-2.741v-0.22c0.256,0,0.431-0.026,0.525-0.079s0.167-0.141,0.22-0.263
			s0.079-0.356,0.079-0.702V5.279c0-0.63-0.014-1.018-0.042-1.163c-0.028-0.144-0.074-0.243-0.137-0.296
			c-0.063-0.053-0.144-0.08-0.241-0.08c-0.106,0-0.24,0.033-0.403,0.098L65.88,3.625l1.667-0.684H67.822z"/>
		<path d="M70.162,8.136c-0.004,0.83,0.197,1.481,0.604,1.953c0.407,0.473,0.885,0.708,1.435,0.708c0.366,0,0.685-0.101,0.955-0.302
			s0.498-0.546,0.681-1.034l0.189,0.121c-0.086,0.558-0.334,1.065-0.745,1.523c-0.411,0.458-0.925,0.687-1.544,0.687
			c-0.671,0-1.246-0.262-1.724-0.784c-0.479-0.522-0.717-1.226-0.717-2.109c0-0.956,0.245-1.701,0.735-2.236
			s1.106-0.803,1.847-0.803c0.626,0,1.141,0.207,1.544,0.62s0.604,0.965,0.604,1.657H70.162z M70.162,7.782h2.588
			c-0.021-0.358-0.063-0.61-0.128-0.757c-0.102-0.228-0.253-0.407-0.455-0.537c-0.201-0.13-0.412-0.195-0.631-0.195
			c-0.338,0-0.64,0.131-0.907,0.394C70.362,6.949,70.207,7.314,70.162,7.782z"/>
		<path d="M76.331,5.865v1.258c0.468-0.838,0.948-1.258,1.44-1.258c0.224,0,0.409,0.068,0.556,0.205
			c0.146,0.137,0.22,0.294,0.22,0.473c0,0.159-0.053,0.293-0.159,0.403c-0.105,0.11-0.231,0.165-0.378,0.165
			c-0.143,0-0.302-0.07-0.479-0.21c-0.177-0.14-0.308-0.21-0.394-0.21c-0.073,0-0.152,0.041-0.238,0.122
			c-0.183,0.167-0.372,0.441-0.567,0.824v2.679c0,0.31,0.039,0.544,0.116,0.702c0.053,0.11,0.146,0.202,0.28,0.274
			c0.135,0.074,0.328,0.11,0.58,0.11v0.22h-2.862v-0.22c0.285,0,0.496-0.045,0.635-0.134c0.102-0.065,0.173-0.169,0.213-0.312
			c0.021-0.069,0.031-0.267,0.031-0.593V8.197c0-0.651-0.014-1.039-0.04-1.163c-0.026-0.124-0.075-0.214-0.146-0.271
			s-0.16-0.085-0.266-0.085c-0.126,0-0.269,0.031-0.427,0.091l-0.062-0.22l1.691-0.684H76.331z"/>
		<path d="M87.273,10.028l-0.58,1.593h-4.883v-0.226c1.437-1.311,2.447-2.381,3.033-3.211s0.879-1.589,0.879-2.276
			c0-0.525-0.161-0.956-0.482-1.294s-0.706-0.507-1.154-0.507c-0.407,0-0.772,0.119-1.095,0.357
			c-0.324,0.238-0.562,0.587-0.717,1.047h-0.226c0.102-0.753,0.363-1.331,0.784-1.733c0.421-0.403,0.947-0.604,1.578-0.604
			c0.671,0,1.232,0.216,1.681,0.647s0.675,0.94,0.675,1.526c0,0.419-0.098,0.838-0.293,1.257c-0.302,0.659-0.79,1.357-1.465,2.093
			c-1.013,1.107-1.646,1.774-1.898,2.002h2.161c0.439,0,0.748-0.016,0.924-0.049c0.178-0.032,0.338-0.099,0.479-0.198
			c0.143-0.1,0.267-0.241,0.373-0.424H87.273z"/>
		<path d="M93.218,3.345l-0.476,1.038h-2.49l-0.544,1.111c1.079,0.159,1.934,0.56,2.564,1.202c0.541,0.554,0.812,1.205,0.812,1.953
			c0,0.436-0.089,0.839-0.266,1.209s-0.399,0.686-0.669,0.945c-0.268,0.261-0.567,0.471-0.896,0.629
			c-0.468,0.224-0.948,0.336-1.44,0.336c-0.497,0-0.857-0.085-1.084-0.253c-0.226-0.169-0.339-0.355-0.339-0.559
			c0-0.114,0.047-0.215,0.141-0.303c0.094-0.087,0.212-0.131,0.354-0.131c0.105,0,0.198,0.017,0.277,0.049s0.215,0.116,0.406,0.25
			c0.305,0.212,0.614,0.317,0.928,0.317c0.476,0,0.894-0.18,1.254-0.54s0.54-0.799,0.54-1.315c0-0.5-0.16-0.967-0.482-1.4
			c-0.321-0.434-0.765-0.768-1.33-1.004c-0.443-0.184-1.048-0.289-1.812-0.317l1.587-3.217H93.218z"/>
		<path d="M97.068,7.532c0-0.944,0.143-1.757,0.428-2.438c0.285-0.681,0.663-1.189,1.135-1.523c0.367-0.264,0.745-0.396,1.136-0.396
			c0.635,0,1.204,0.323,1.709,0.971c0.631,0.801,0.946,1.888,0.946,3.259c0,0.96-0.139,1.776-0.415,2.448
			c-0.277,0.671-0.63,1.158-1.06,1.461c-0.429,0.304-0.843,0.455-1.242,0.455c-0.789,0-1.446-0.466-1.971-1.397
			C97.291,9.585,97.068,8.639,97.068,7.532z M98.266,7.685c0,1.139,0.14,2.069,0.421,2.789c0.231,0.606,0.577,0.909,1.037,0.909
			c0.22,0,0.448-0.099,0.684-0.296c0.236-0.197,0.415-0.528,0.537-0.991c0.188-0.7,0.281-1.687,0.281-2.961
			c0-0.944-0.098-1.731-0.293-2.362c-0.146-0.468-0.336-0.799-0.567-0.995c-0.167-0.135-0.369-0.202-0.604-0.202
			c-0.277,0-0.523,0.124-0.739,0.373c-0.293,0.337-0.492,0.869-0.598,1.593S98.266,6.98,98.266,7.685z"/>
		<path d="M103.318,7.532c0-0.944,0.143-1.757,0.428-2.438c0.285-0.681,0.663-1.189,1.135-1.523
			c0.367-0.264,0.745-0.396,1.136-0.396c0.635,0,1.204,0.323,1.709,0.971c0.631,0.801,0.946,1.888,0.946,3.259
			c0,0.96-0.139,1.776-0.415,2.448c-0.277,0.671-0.63,1.158-1.06,1.461c-0.429,0.304-0.843,0.455-1.242,0.455
			c-0.789,0-1.446-0.466-1.971-1.397C103.541,9.585,103.318,8.639,103.318,7.532z M104.516,7.685c0,1.139,0.14,2.069,0.421,2.789
			c0.231,0.606,0.577,0.909,1.037,0.909c0.22,0,0.448-0.099,0.684-0.296c0.236-0.197,0.415-0.528,0.537-0.991
			c0.188-0.7,0.281-1.687,0.281-2.961c0-0.944-0.098-1.731-0.293-2.362c-0.146-0.468-0.336-0.799-0.567-0.995
			c-0.167-0.135-0.369-0.202-0.604-0.202c-0.277,0-0.523,0.124-0.739,0.373c-0.293,0.337-0.492,0.869-0.598,1.593
			S104.516,6.98,104.516,7.685z"/>
		<path d="M109.568,7.532c0-0.944,0.143-1.757,0.428-2.438c0.285-0.681,0.663-1.189,1.135-1.523
			c0.367-0.264,0.745-0.396,1.136-0.396c0.635,0,1.204,0.323,1.709,0.971c0.631,0.801,0.946,1.888,0.946,3.259
			c0,0.96-0.139,1.776-0.415,2.448c-0.277,0.671-0.63,1.158-1.06,1.461c-0.429,0.304-0.843,0.455-1.242,0.455
			c-0.789,0-1.446-0.466-1.971-1.397C109.791,9.585,109.568,8.639,109.568,7.532z M110.766,7.685c0,1.139,0.14,2.069,0.421,2.789
			c0.231,0.606,0.577,0.909,1.037,0.909c0.22,0,0.448-0.099,0.684-0.296c0.236-0.197,0.415-0.528,0.537-0.991
			c0.188-0.7,0.281-1.687,0.281-2.961c0-0.944-0.098-1.731-0.293-2.362c-0.146-0.468-0.336-0.799-0.567-0.995
			c-0.167-0.135-0.369-0.202-0.604-0.202c-0.277,0-0.523,0.124-0.739,0.373c-0.293,0.337-0.492,0.869-0.598,1.593
			S110.766,6.98,110.766,7.685z"/>
		<path d="M118.581,7.532c0-0.944,0.143-1.757,0.428-2.438c0.285-0.681,0.663-1.189,1.135-1.523
			c0.367-0.264,0.745-0.396,1.136-0.396c0.635,0,1.204,0.323,1.709,0.971c0.631,0.801,0.946,1.888,0.946,3.259
			c0,0.96-0.139,1.776-0.415,2.448c-0.277,0.671-0.63,1.158-1.06,1.461c-0.429,0.304-0.843,0.455-1.242,0.455
			c-0.789,0-1.446-0.466-1.971-1.397C118.804,9.585,118.581,8.639,118.581,7.532z M119.778,7.685c0,1.139,0.14,2.069,0.421,2.789
			c0.231,0.606,0.577,0.909,1.037,0.909c0.22,0,0.448-0.099,0.684-0.296c0.236-0.197,0.415-0.528,0.537-0.991
			c0.188-0.7,0.281-1.687,0.281-2.961c0-0.944-0.098-1.731-0.293-2.362c-0.146-0.468-0.336-0.799-0.567-0.995
			c-0.167-0.135-0.369-0.202-0.604-0.202c-0.277,0-0.523,0.124-0.739,0.373c-0.293,0.337-0.492,0.869-0.598,1.593
			S119.778,6.98,119.778,7.685z"/>
		<path d="M124.831,7.532c0-0.944,0.143-1.757,0.428-2.438c0.285-0.681,0.663-1.189,1.135-1.523
			c0.367-0.264,0.745-0.396,1.136-0.396c0.635,0,1.204,0.323,1.709,0.971c0.631,0.801,0.946,1.888,0.946,3.259
			c0,0.96-0.139,1.776-0.415,2.448c-0.277,0.671-0.63,1.158-1.06,1.461c-0.429,0.304-0.843,0.455-1.242,0.455
			c-0.789,0-1.446-0.466-1.971-1.397C125.054,9.585,124.831,8.639,124.831,7.532z M126.028,7.685c0,1.139,0.14,2.069,0.421,2.789
			c0.231,0.606,0.577,0.909,1.037,0.909c0.22,0,0.448-0.099,0.684-0.296c0.236-0.197,0.415-0.528,0.537-0.991
			c0.188-0.7,0.281-1.687,0.281-2.961c0-0.944-0.098-1.731-0.293-2.362c-0.146-0.468-0.336-0.799-0.567-0.995
			c-0.167-0.135-0.369-0.202-0.604-0.202c-0.277,0-0.523,0.124-0.739,0.373c-0.293,0.337-0.492,0.869-0.598,1.593
			S126.028,6.98,126.028,7.685z"/>
		<path d="M131.081,7.532c0-0.944,0.143-1.757,0.428-2.438c0.285-0.681,0.663-1.189,1.135-1.523
			c0.367-0.264,0.745-0.396,1.136-0.396c0.635,0,1.204,0.323,1.709,0.971c0.631,0.801,0.946,1.888,0.946,3.259
			c0,0.96-0.139,1.776-0.415,2.448c-0.277,0.671-0.63,1.158-1.06,1.461c-0.429,0.304-0.843,0.455-1.242,0.455
			c-0.789,0-1.446-0.466-1.971-1.397C131.304,9.585,131.081,8.639,131.081,7.532z M132.278,7.685c0,1.139,0.14,2.069,0.421,2.789
			c0.231,0.606,0.577,0.909,1.037,0.909c0.22,0,0.448-0.099,0.684-0.296c0.236-0.197,0.415-0.528,0.537-0.991
			c0.188-0.7,0.281-1.687,0.281-2.961c0-0.944-0.098-1.731-0.293-2.362c-0.146-0.468-0.336-0.799-0.567-0.995
			c-0.167-0.135-0.369-0.202-0.604-0.202c-0.277,0-0.523,0.124-0.739,0.373c-0.293,0.337-0.492,0.869-0.598,1.593
			S132.278,6.98,132.278,7.685z"/>
		<path d="M140.093,7.532c0-0.944,0.143-1.757,0.428-2.438c0.285-0.681,0.663-1.189,1.135-1.523
			c0.367-0.264,0.745-0.396,1.136-0.396c0.635,0,1.204,0.323,1.709,0.971c0.631,0.801,0.946,1.888,0.946,3.259
			c0,0.96-0.139,1.776-0.415,2.448c-0.277,0.671-0.63,1.158-1.06,1.461c-0.429,0.304-0.843,0.455-1.242,0.455
			c-0.789,0-1.446-0.466-1.971-1.397C140.315,9.585,140.093,8.639,140.093,7.532z M141.29,7.685c0,1.139,0.14,2.069,0.421,2.789
			c0.231,0.606,0.577,0.909,1.037,0.909c0.22,0,0.448-0.099,0.684-0.296c0.236-0.197,0.415-0.528,0.537-0.991
			c0.188-0.7,0.281-1.687,0.281-2.961c0-0.944-0.098-1.731-0.293-2.362c-0.146-0.468-0.336-0.799-0.567-0.995
			c-0.167-0.135-0.369-0.202-0.604-0.202c-0.277,0-0.523,0.124-0.739,0.373c-0.293,0.337-0.492,0.869-0.598,1.593
			S141.29,6.98,141.29,7.685z"/>
		<path d="M146.343,7.532c0-0.944,0.143-1.757,0.428-2.438c0.285-0.681,0.663-1.189,1.135-1.523
			c0.367-0.264,0.745-0.396,1.136-0.396c0.635,0,1.204,0.323,1.709,0.971c0.631,0.801,0.946,1.888,0.946,3.259
			c0,0.96-0.139,1.776-0.415,2.448c-0.277,0.671-0.63,1.158-1.06,1.461c-0.429,0.304-0.843,0.455-1.242,0.455
			c-0.789,0-1.446-0.466-1.971-1.397C146.565,9.585,146.343,8.639,146.343,7.532z M147.54,7.685c0,1.139,0.14,2.069,0.421,2.789
			c0.231,0.606,0.577,0.909,1.037,0.909c0.22,0,0.448-0.099,0.684-0.296c0.236-0.197,0.415-0.528,0.537-0.991
			c0.188-0.7,0.281-1.687,0.281-2.961c0-0.944-0.098-1.731-0.293-2.362c-0.146-0.468-0.336-0.799-0.567-0.995
			c-0.167-0.135-0.369-0.202-0.604-0.202c-0.277,0-0.523,0.124-0.739,0.373c-0.293,0.337-0.492,0.869-0.598,1.593
			S147.54,6.98,147.54,7.685z"/>
		<path d="M152.593,7.532c0-0.944,0.143-1.757,0.428-2.438c0.285-0.681,0.663-1.189,1.135-1.523
			c0.367-0.264,0.745-0.396,1.136-0.396c0.635,0,1.204,0.323,1.709,0.971c0.631,0.801,0.946,1.888,0.946,3.259
			c0,0.96-0.139,1.776-0.415,2.448c-0.277,0.671-0.63,1.158-1.06,1.461c-0.429,0.304-0.843,0.455-1.242,0.455
			c-0.789,0-1.446-0.466-1.971-1.397C152.815,9.585,152.593,8.639,152.593,7.532z M153.79,7.685c0,1.139,0.14,2.069,0.421,2.789
			c0.231,0.606,0.577,0.909,1.037,0.909c0.22,0,0.448-0.099,0.684-0.296c0.236-0.197,0.415-0.528,0.537-0.991
			c0.188-0.7,0.281-1.687,0.281-2.961c0-0.944-0.098-1.731-0.293-2.362c-0.146-0.468-0.336-0.799-0.567-0.995
			c-0.167-0.135-0.369-0.202-0.604-0.202c-0.277,0-0.523,0.124-0.739,0.373c-0.293,0.337-0.492,0.869-0.598,1.593
			S153.79,6.98,153.79,7.685z"/>
		<path d="M167.678,7.397c0.574,0.122,1.004,0.317,1.288,0.586c0.395,0.375,0.593,0.832,0.593,1.373
			c0,0.411-0.131,0.805-0.391,1.182c-0.261,0.376-0.618,0.65-1.071,0.823c-0.454,0.174-1.146,0.26-2.079,0.26h-3.906v-0.226h0.312
			c0.346,0,0.595-0.11,0.745-0.33c0.094-0.143,0.141-0.445,0.141-0.909V4.81c0-0.513-0.06-0.836-0.178-0.971
			c-0.158-0.179-0.395-0.269-0.708-0.269h-0.312V3.345h3.577c0.667,0,1.202,0.049,1.605,0.146c0.61,0.146,1.076,0.406,1.397,0.778
			c0.321,0.372,0.482,0.8,0.482,1.285c0,0.415-0.126,0.787-0.379,1.114C168.543,6.996,168.171,7.239,167.678,7.397z M164.48,7.068
			c0.15,0.028,0.322,0.05,0.516,0.064c0.192,0.015,0.405,0.021,0.638,0.021c0.594,0,1.04-0.064,1.34-0.192
			c0.299-0.128,0.527-0.324,0.687-0.589c0.158-0.265,0.238-0.553,0.238-0.867c0-0.484-0.198-0.897-0.593-1.239
			s-0.97-0.513-1.728-0.513c-0.406,0-0.772,0.044-1.098,0.134V7.068z M164.48,11.023c0.472,0.109,0.938,0.164,1.397,0.164
			c0.736,0,1.298-0.165,1.685-0.497s0.58-0.741,0.58-1.229c0-0.322-0.088-0.631-0.263-0.928c-0.175-0.297-0.46-0.531-0.854-0.702
			s-0.883-0.257-1.465-0.257c-0.253,0-0.468,0.004-0.647,0.013c-0.179,0.008-0.323,0.022-0.433,0.042V11.023z"/>
	</g>
	<g>
		<path d="M19.89,8.423c0,0.188-0.066,0.347-0.198,0.479c-0.132,0.132-0.29,0.198-0.473,0.198c-0.187,0-0.347-0.066-0.479-0.198
			c-0.132-0.133-0.199-0.292-0.199-0.479c0-0.187,0.066-0.347,0.199-0.479c0.132-0.132,0.292-0.199,0.479-0.199
			c0.183,0,0.341,0.066,0.473,0.199C19.824,8.076,19.89,8.236,19.89,8.423z"/>
	</g>
</g>
<g id="theGroup">
</g>
</svg>
