<?xml version="1.0" encoding="iso-8859-1"?>
<!-- Generator: Adobe Illustrator 16.0.0, SVG Export Plug-In . SVG Version: 6.00 Build 0)  -->
<!DOCTYPE svg PUBLIC "-//W3C//DTD SVG 1.1//EN" "http://www.w3.org/Graphics/SVG/1.1/DTD/svg11.dtd">
<svg version="1.1" id="Lager_1" xmlns="http://www.w3.org/2000/svg" xmlns:xlink="http://www.w3.org/1999/xlink" x="0px" y="0px"
	 width="93.378px" height="15.454px" viewBox="0 0 93.378 15.454" style="enable-background:new 0 0 93.378 15.454;"
	 xml:space="preserve">
<g>
	<g>
		<path d="M9.886,5.085L9.55,6.006H6.728v-0.13c0.831-0.758,1.415-1.376,1.754-1.856C8.82,3.54,8.989,3.101,8.989,2.703
			c0-0.304-0.093-0.553-0.279-0.748C8.525,1.76,8.302,1.662,8.043,1.662c-0.235,0-0.446,0.069-0.633,0.207S7.085,2.208,6.996,2.474
			h-0.13c0.059-0.435,0.21-0.769,0.453-1.002c0.244-0.233,0.548-0.35,0.912-0.35c0.388,0,0.712,0.125,0.972,0.374
			c0.26,0.25,0.39,0.543,0.39,0.882c0,0.242-0.057,0.485-0.169,0.727C9.249,3.486,8.967,3.89,8.577,4.315
			c-0.586,0.64-0.952,1.026-1.098,1.158h1.249c0.254,0,0.433-0.009,0.535-0.028C9.365,5.426,9.458,5.388,9.54,5.33
			c0.082-0.058,0.154-0.139,0.215-0.245H9.886z"/>
		<path d="M33.163,5.085l-0.335,0.921h-2.823v-0.13c0.831-0.758,1.415-1.376,1.754-1.856c0.338-0.479,0.508-0.918,0.508-1.316
			c0-0.304-0.093-0.553-0.279-0.748c-0.186-0.195-0.408-0.293-0.667-0.293c-0.235,0-0.446,0.069-0.633,0.207
			s-0.325,0.339-0.415,0.605h-0.13c0.059-0.435,0.21-0.769,0.453-1.002c0.244-0.233,0.548-0.35,0.912-0.35
			c0.388,0,0.712,0.125,0.972,0.374c0.26,0.25,0.39,0.543,0.39,0.882c0,0.242-0.057,0.485-0.169,0.727
			c-0.174,0.381-0.457,0.785-0.847,1.21c-0.586,0.64-0.952,1.026-1.098,1.158h1.249c0.254,0,0.433-0.009,0.535-0.028
			c0.103-0.019,0.195-0.057,0.277-0.115c0.082-0.058,0.154-0.139,0.215-0.245H33.163z"/>
		<path d="M56.439,5.085l-0.335,0.921h-2.823v-0.13c0.83-0.758,1.415-1.376,1.754-1.856c0.339-0.479,0.508-0.918,0.508-1.316
			c0-0.304-0.093-0.553-0.278-0.748c-0.187-0.195-0.408-0.293-0.667-0.293c-0.235,0-0.446,0.069-0.634,0.207
			c-0.187,0.138-0.325,0.339-0.414,0.605h-0.131c0.059-0.435,0.21-0.769,0.453-1.002c0.244-0.233,0.548-0.35,0.912-0.35
			c0.389,0,0.713,0.125,0.973,0.374c0.26,0.25,0.39,0.543,0.39,0.882c0,0.242-0.057,0.485-0.169,0.727
			c-0.175,0.381-0.457,0.785-0.848,1.21c-0.585,0.64-0.951,1.026-1.097,1.158h1.249c0.254,0,0.432-0.009,0.534-0.028
			s0.194-0.057,0.277-0.115c0.082-0.058,0.154-0.139,0.215-0.245H56.439z"/>
		<path d="M93.078,5.085l-0.335,0.921H89.92v-0.13c0.83-0.758,1.415-1.376,1.754-1.856c0.339-0.479,0.508-0.918,0.508-1.316
			c0-0.304-0.093-0.553-0.278-0.748c-0.187-0.195-0.408-0.293-0.667-0.293c-0.235,0-0.446,0.069-0.634,0.207
			c-0.187,0.138-0.325,0.339-0.414,0.605h-0.131c0.059-0.435,0.21-0.769,0.453-1.002c0.244-0.233,0.548-0.35,0.912-0.35
			c0.389,0,0.713,0.125,0.973,0.374c0.26,0.25,0.39,0.543,0.39,0.882c0,0.242-0.057,0.485-0.169,0.727
			c-0.175,0.381-0.457,0.785-0.848,1.21c-0.585,0.64-0.951,1.026-1.097,1.158h1.249c0.254,0,0.432-0.009,0.534-0.028
			s0.194-0.057,0.277-0.115c0.082-0.058,0.154-0.139,0.215-0.245H93.078z"/>
	</g>
	<g>
		<path d="M5.816,8.569v0.866h-1.11v2.186H3.699V9.436H0.195V8.654l3.839-5.48h0.672v5.396H5.816z M3.699,8.569V4.462L0.793,8.569
			H3.699z"/>
		<path d="M29.091,8.569v0.866h-1.11v2.186h-1.007V9.436H23.47V8.654l3.839-5.48h0.672v5.396H29.091z M26.974,8.569V4.462
			l-2.905,4.107H26.974z"/>
		<path d="M52.366,8.569v0.866h-1.11v2.186h-1.007V9.436h-3.504V8.654l3.839-5.48h0.672v5.396H52.366z M50.249,8.569V4.462
			l-2.906,4.107H50.249z"/>
		<path d="M71.947,4.919c0.236-0.558,0.534-0.988,0.895-1.291c0.359-0.303,0.809-0.455,1.346-0.455c0.663,0,1.172,0.216,1.525,0.647
			c0.269,0.321,0.403,0.666,0.403,1.032c0,0.602-0.379,1.225-1.136,1.867c0.509,0.2,0.894,0.484,1.154,0.854
			c0.26,0.371,0.391,0.806,0.391,1.307c0,0.716-0.229,1.336-0.684,1.861c-0.595,0.684-1.455,1.025-2.582,1.025
			c-0.558,0-0.938-0.069-1.139-0.207c-0.201-0.139-0.302-0.287-0.302-0.446c0-0.118,0.048-0.222,0.144-0.312
			c0.095-0.089,0.21-0.134,0.345-0.134c0.102,0,0.205,0.017,0.312,0.049c0.068,0.021,0.226,0.095,0.47,0.223
			s0.413,0.204,0.507,0.229c0.15,0.044,0.311,0.066,0.481,0.066c0.415,0,0.776-0.16,1.084-0.482c0.307-0.321,0.46-0.701,0.46-1.141
			c0-0.321-0.07-0.635-0.213-0.94c-0.106-0.228-0.222-0.4-0.348-0.519c-0.176-0.163-0.416-0.31-0.721-0.442
			s-0.616-0.198-0.934-0.198h-0.195V7.33c0.321-0.041,0.644-0.156,0.967-0.348c0.324-0.191,0.559-0.421,0.705-0.689
			s0.22-0.564,0.22-0.885c0-0.419-0.131-0.758-0.394-1.016s-0.589-0.388-0.979-0.388c-0.631,0-1.157,0.338-1.581,1.013L71.947,4.919
			z"/>
		<path d="M89.004,8.569v0.866h-1.11v2.186h-1.007V9.436h-3.504V8.654l3.839-5.48h0.672v5.396H89.004z M86.887,8.569V4.462
			L83.98,8.569H86.887z"/>
	</g>
	<g>
		<path d="M16.975,5.212h0.598V8.13h2.899v0.592h-2.899v2.899h-0.598V8.722h-2.912V8.13h2.912V5.212z"/>
		<path d="M40.248,5.212h0.598V8.13h2.899v0.592h-2.899v2.899h-0.598V8.722h-2.912V8.13h2.912V5.212z"/>
		<path d="M61.547,6.988h6.409v0.592h-6.409V6.988z M61.547,9.266h6.409v0.604h-6.409V9.266z"/>
		<path d="M80.653,8.423c0,0.188-0.066,0.347-0.199,0.479c-0.132,0.132-0.289,0.198-0.473,0.198c-0.188,0-0.347-0.066-0.479-0.198
			C79.37,8.77,79.304,8.61,79.304,8.423c0-0.187,0.066-0.347,0.198-0.479c0.133-0.132,0.292-0.199,0.479-0.199
			c0.184,0,0.341,0.066,0.473,0.199C80.587,8.076,80.653,8.236,80.653,8.423z"/>
	</g>
</g>
<g id="theGroup">
</g>
</svg>
