<?xml version="1.0" encoding="iso-8859-1"?>
<!-- Generator: Adobe Illustrator 16.0.0, SVG Export Plug-In . SVG Version: 6.00 Build 0)  -->
<!DOCTYPE svg PUBLIC "-//W3C//DTD SVG 1.1//EN" "http://www.w3.org/Graphics/SVG/1.1/DTD/svg11.dtd">
<svg version="1.1" id="Lager_1" xmlns="http://www.w3.org/2000/svg" xmlns:xlink="http://www.w3.org/1999/xlink" x="0px" y="0px"
	 width="153.672px" height="33.306px" viewBox="0 0 153.672 33.306" style="enable-background:new 0 0 153.672 33.306;"
	 xml:space="preserve">
<g>
	
		<line style="fill:none;stroke:#0066FF;stroke-width:0.5;stroke-linecap:square;stroke-miterlimit:10;" x1="0.586" y1="16.476" x2="35.586" y2="16.476"/>
	<g>
		<path style="fill:#0066FF;" d="M33.324,4.242v0.501h-0.642v1.263h-0.583V4.743h-2.025V4.291l2.22-3.169h0.388v3.12H33.324z
			 M32.099,4.242V1.867l-1.68,2.375H32.099z"/>
	</g>
	<g>
		<path style="fill:#0066FF;" d="M76.605,12.406v0.501h-0.642v1.263H75.38v-1.263h-2.025v-0.452l2.22-3.169h0.388v3.12H76.605z
			 M75.38,12.406v-2.375l-1.68,2.375H75.38z"/>
		<path style="fill:#0066FF;" d="M82.238,10.295c0.136-0.322,0.309-0.571,0.517-0.746s0.468-0.263,0.778-0.263
			c0.383,0,0.678,0.125,0.882,0.374c0.155,0.186,0.233,0.385,0.233,0.597c0,0.348-0.219,0.708-0.656,1.08
			c0.294,0.115,0.516,0.28,0.666,0.494c0.151,0.214,0.227,0.466,0.227,0.755c0,0.414-0.132,0.773-0.396,1.076
			c-0.344,0.396-0.841,0.593-1.492,0.593c-0.322,0-0.542-0.04-0.658-0.12c-0.116-0.08-0.175-0.166-0.175-0.258
			c0-0.068,0.027-0.128,0.083-0.18c0.055-0.052,0.121-0.078,0.199-0.078c0.059,0,0.119,0.009,0.18,0.028
			c0.04,0.012,0.131,0.055,0.271,0.129c0.142,0.074,0.239,0.118,0.293,0.132c0.087,0.026,0.181,0.039,0.279,0.039
			c0.24,0,0.448-0.093,0.626-0.279c0.178-0.186,0.267-0.406,0.267-0.66c0-0.186-0.041-0.367-0.123-0.543
			c-0.062-0.132-0.129-0.232-0.201-0.3c-0.102-0.094-0.24-0.179-0.417-0.256c-0.176-0.076-0.356-0.114-0.54-0.114h-0.112v-0.106
			c0.186-0.023,0.372-0.091,0.559-0.201c0.188-0.111,0.323-0.244,0.408-0.399c0.084-0.155,0.127-0.326,0.127-0.512
			c0-0.242-0.076-0.438-0.228-0.587c-0.152-0.149-0.341-0.224-0.566-0.224c-0.365,0-0.669,0.195-0.914,0.586L82.238,10.295z"/>
		<path style="fill:#0066FF;" d="M124.003,9.854l1.165-0.568h0.116v4.041c0,0.268,0.011,0.435,0.033,0.501s0.069,0.117,0.14,0.152
			s0.214,0.055,0.431,0.06v0.13h-1.8v-0.13c0.226-0.005,0.371-0.024,0.438-0.059c0.065-0.034,0.111-0.08,0.138-0.137
			c0.025-0.058,0.039-0.23,0.039-0.517v-2.583c0-0.348-0.012-0.572-0.036-0.67c-0.016-0.075-0.046-0.13-0.09-0.166
			c-0.043-0.035-0.096-0.053-0.156-0.053c-0.088,0-0.209,0.037-0.364,0.109L124.003,9.854z"/>
	</g>
	<g>
		<path style="fill:#0066FF;" d="M27.789,19.983c0.136-0.322,0.309-0.571,0.517-0.747c0.208-0.175,0.468-0.263,0.778-0.263
			c0.383,0,0.677,0.125,0.882,0.374c0.155,0.187,0.233,0.385,0.233,0.597c0,0.348-0.219,0.708-0.656,1.08
			c0.294,0.115,0.517,0.279,0.667,0.493c0.15,0.215,0.226,0.466,0.226,0.756c0,0.414-0.131,0.772-0.395,1.076
			c-0.343,0.395-0.841,0.593-1.493,0.593c-0.322,0-0.542-0.04-0.658-0.12c-0.117-0.08-0.175-0.166-0.175-0.258
			c0-0.068,0.027-0.128,0.083-0.18c0.055-0.052,0.122-0.078,0.199-0.078c0.059,0,0.119,0.01,0.18,0.028
			c0.04,0.012,0.131,0.055,0.272,0.129s0.239,0.118,0.293,0.133c0.087,0.025,0.18,0.038,0.279,0.038c0.24,0,0.449-0.093,0.626-0.278
			c0.178-0.186,0.267-0.406,0.267-0.66c0-0.186-0.041-0.367-0.124-0.543c-0.061-0.132-0.128-0.231-0.201-0.3
			c-0.101-0.095-0.24-0.18-0.417-0.256c-0.176-0.077-0.356-0.115-0.54-0.115h-0.113v-0.105c0.186-0.023,0.373-0.091,0.56-0.201
			s0.323-0.243,0.408-0.398c0.084-0.155,0.127-0.326,0.127-0.512c0-0.242-0.076-0.438-0.228-0.588
			c-0.152-0.149-0.341-0.224-0.566-0.224c-0.365,0-0.669,0.195-0.914,0.585L27.789,19.983z"/>
	</g>
	<g>
		<path style="fill:#0066FF;" d="M1.465,4.166l2.014-0.982h0.202v6.988c0,0.464,0.019,0.753,0.058,0.867
			c0.039,0.114,0.119,0.201,0.241,0.262s0.37,0.096,0.745,0.104v0.226H1.611v-0.226c0.391-0.008,0.643-0.042,0.757-0.101
			c0.114-0.059,0.193-0.138,0.238-0.238c0.044-0.1,0.067-0.398,0.067-0.895V5.704c0-0.602-0.021-0.988-0.061-1.159
			c-0.028-0.13-0.081-0.226-0.156-0.287S2.291,4.166,2.185,4.166c-0.15,0-0.36,0.063-0.628,0.189L1.465,4.166z"/>
		<path style="fill:#0066FF;" d="M11.981,10.038l-0.58,1.593H6.519v-0.226c1.437-1.311,2.447-2.381,3.033-3.211
			s0.879-1.589,0.879-2.276c0-0.525-0.161-0.956-0.482-1.294S9.243,4.117,8.795,4.117c-0.407,0-0.772,0.119-1.095,0.357
			C7.376,4.712,7.137,5.062,6.982,5.521H6.757C6.858,4.769,7.12,4.19,7.541,3.788c0.421-0.403,0.947-0.604,1.578-0.604
			c0.671,0,1.232,0.216,1.682,0.647c0.449,0.431,0.674,0.94,0.674,1.526c0,0.419-0.098,0.838-0.293,1.257
			c-0.301,0.659-0.79,1.357-1.465,2.093c-1.013,1.107-1.646,1.774-1.898,2.002h2.161c0.439,0,0.748-0.016,0.924-0.049
			c0.177-0.032,0.337-0.098,0.479-0.198c0.143-0.1,0.267-0.241,0.373-0.424H11.981z"/>
		<path style="fill:#0066FF;" d="M18.603,4.166l2.014-0.982h0.202v6.988c0,0.464,0.019,0.753,0.058,0.867
			c0.039,0.114,0.119,0.201,0.241,0.262s0.37,0.096,0.745,0.104v0.226h-3.113v-0.226c0.391-0.008,0.643-0.042,0.757-0.101
			c0.114-0.059,0.193-0.138,0.238-0.238c0.044-0.1,0.067-0.398,0.067-0.895V5.704c0-0.602-0.021-0.988-0.061-1.159
			c-0.028-0.13-0.081-0.226-0.156-0.287s-0.166-0.092-0.271-0.092c-0.15,0-0.36,0.063-0.628,0.189L18.603,4.166z"/>
		<path style="fill:#0066FF;" d="M23.839,7.542c0-0.944,0.143-1.757,0.427-2.438c0.285-0.681,0.663-1.189,1.135-1.523
			c0.366-0.264,0.745-0.396,1.135-0.396c0.635,0,1.205,0.323,1.709,0.971c0.631,0.801,0.946,1.888,0.946,3.259
			c0,0.96-0.139,1.776-0.415,2.448c-0.277,0.671-0.63,1.159-1.059,1.462c-0.43,0.303-0.843,0.455-1.242,0.455
			c-0.79,0-1.447-0.466-1.971-1.397C24.061,9.594,23.839,8.648,23.839,7.542z M25.036,7.694c0,1.139,0.14,2.069,0.421,2.789
			c0.231,0.606,0.578,0.909,1.037,0.909c0.22,0,0.448-0.098,0.684-0.296c0.236-0.197,0.415-0.528,0.537-0.992
			c0.188-0.7,0.281-1.687,0.281-2.96c0-0.944-0.098-1.731-0.293-2.362c-0.146-0.468-0.336-0.799-0.568-0.995
			c-0.167-0.135-0.368-0.202-0.604-0.202c-0.277,0-0.523,0.124-0.739,0.373C25.5,4.296,25.3,4.828,25.194,5.552
			S25.036,6.99,25.036,7.694z"/>
	</g>
	<g>
		<path style="fill:#0066FF;" d="M55.253,18.192l-0.58,1.593H49.79V19.56c1.437-1.311,2.447-2.381,3.033-3.211
			s0.879-1.589,0.879-2.276c0-0.525-0.161-0.956-0.482-1.294s-0.706-0.507-1.154-0.507c-0.407,0-0.772,0.119-1.095,0.357
			c-0.324,0.238-0.562,0.587-0.717,1.047h-0.226c0.102-0.753,0.363-1.331,0.784-1.733c0.421-0.403,0.947-0.604,1.578-0.604
			c0.671,0,1.232,0.216,1.682,0.647c0.449,0.431,0.674,0.94,0.674,1.526c0,0.419-0.098,0.838-0.293,1.257
			c-0.301,0.659-0.79,1.357-1.465,2.093c-1.013,1.107-1.646,1.774-1.898,2.002h2.161c0.439,0,0.748-0.016,0.924-0.049
			c0.177-0.032,0.337-0.099,0.479-0.198c0.143-0.1,0.267-0.241,0.373-0.424H55.253z"/>
		<path style="fill:#0066FF;" d="M61.874,12.32l2.014-0.982h0.202v6.988c0,0.464,0.019,0.753,0.058,0.867
			c0.039,0.113,0.119,0.201,0.241,0.262c0.122,0.062,0.37,0.096,0.745,0.104v0.226h-3.113V19.56
			c0.391-0.009,0.643-0.042,0.757-0.101c0.114-0.06,0.193-0.139,0.238-0.238c0.044-0.1,0.067-0.397,0.067-0.895v-4.468
			c0-0.602-0.021-0.988-0.061-1.159c-0.028-0.13-0.081-0.226-0.156-0.287S62.7,12.32,62.594,12.32c-0.15,0-0.36,0.063-0.628,0.189
			L61.874,12.32z"/>
		<path style="fill:#0066FF;" d="M67.111,15.696c0-0.944,0.143-1.757,0.427-2.438c0.285-0.681,0.663-1.189,1.135-1.523
			c0.366-0.264,0.745-0.396,1.135-0.396c0.635,0,1.205,0.323,1.709,0.971c0.631,0.801,0.946,1.888,0.946,3.259
			c0,0.961-0.139,1.776-0.415,2.448c-0.277,0.671-0.63,1.158-1.059,1.461c-0.43,0.304-0.843,0.455-1.242,0.455
			c-0.79,0-1.447-0.466-1.971-1.397C67.333,17.749,67.111,16.803,67.111,15.696z M68.307,15.849c0,1.139,0.14,2.069,0.421,2.789
			c0.231,0.606,0.578,0.909,1.037,0.909c0.22,0,0.448-0.099,0.684-0.296c0.236-0.197,0.415-0.528,0.537-0.991
			c0.188-0.7,0.281-1.687,0.281-2.961c0-0.944-0.098-1.731-0.293-2.362c-0.146-0.468-0.336-0.799-0.568-0.995
			c-0.167-0.135-0.368-0.202-0.604-0.202c-0.277,0-0.523,0.124-0.739,0.373c-0.293,0.337-0.492,0.869-0.598,1.593
			S68.307,15.145,68.307,15.849z"/>
		<path style="fill:#0066FF;" d="M105.978,18.192l-0.58,1.593h-4.883V19.56c1.437-1.311,2.447-2.381,3.033-3.211
			s0.879-1.589,0.879-2.276c0-0.525-0.16-0.956-0.481-1.294c-0.322-0.338-0.706-0.507-1.154-0.507c-0.406,0-0.771,0.119-1.096,0.357
			c-0.323,0.238-0.562,0.587-0.717,1.047h-0.226c0.102-0.753,0.363-1.331,0.784-1.733c0.421-0.403,0.947-0.604,1.578-0.604
			c0.671,0,1.231,0.216,1.681,0.647c0.45,0.431,0.675,0.94,0.675,1.526c0,0.419-0.098,0.838-0.293,1.257
			c-0.301,0.659-0.789,1.357-1.465,2.093c-1.014,1.107-1.646,1.774-1.898,2.002h2.161c0.439,0,0.747-0.016,0.925-0.049
			c0.177-0.032,0.336-0.099,0.479-0.198s0.267-0.241,0.373-0.424H105.978z"/>
		<path style="fill:#0066FF;" d="M112.599,12.32l2.014-0.982h0.202v6.988c0,0.464,0.019,0.753,0.058,0.867
			c0.039,0.113,0.119,0.201,0.241,0.262c0.122,0.062,0.37,0.096,0.745,0.104v0.226h-3.113V19.56
			c0.391-0.009,0.643-0.042,0.757-0.101c0.114-0.06,0.193-0.139,0.238-0.238s0.067-0.397,0.067-0.895v-4.468
			c0-0.602-0.021-0.988-0.062-1.159c-0.028-0.13-0.08-0.226-0.155-0.287c-0.076-0.061-0.166-0.092-0.271-0.092
			c-0.151,0-0.36,0.063-0.629,0.189L112.599,12.32z"/>
		<path style="fill:#0066FF;" d="M117.835,15.696c0-0.944,0.143-1.757,0.428-2.438c0.285-0.681,0.663-1.189,1.135-1.523
			c0.367-0.264,0.745-0.396,1.136-0.396c0.635,0,1.204,0.323,1.709,0.971c0.631,0.801,0.946,1.888,0.946,3.259
			c0,0.961-0.139,1.776-0.415,2.448c-0.277,0.671-0.63,1.158-1.06,1.461c-0.429,0.304-0.843,0.455-1.242,0.455
			c-0.789,0-1.446-0.466-1.971-1.397C118.058,17.749,117.835,16.803,117.835,15.696z M119.032,15.849
			c0,1.139,0.14,2.069,0.421,2.789c0.231,0.606,0.577,0.909,1.037,0.909c0.22,0,0.448-0.099,0.684-0.296
			c0.236-0.197,0.415-0.528,0.537-0.991c0.188-0.7,0.281-1.687,0.281-2.961c0-0.944-0.098-1.731-0.293-2.362
			c-0.146-0.468-0.336-0.799-0.567-0.995c-0.167-0.135-0.369-0.202-0.604-0.202c-0.277,0-0.523,0.124-0.739,0.373
			c-0.293,0.337-0.492,0.869-0.598,1.593S119.032,15.145,119.032,15.849z"/>
		<path style="fill:#0066FF;" d="M146.903,18.192l-0.58,1.593h-4.883V19.56c1.437-1.311,2.447-2.381,3.033-3.211
			s0.879-1.589,0.879-2.276c0-0.525-0.16-0.956-0.481-1.294c-0.322-0.338-0.706-0.507-1.154-0.507c-0.406,0-0.771,0.119-1.096,0.357
			c-0.323,0.238-0.562,0.587-0.717,1.047h-0.226c0.102-0.753,0.363-1.331,0.784-1.733c0.421-0.403,0.947-0.604,1.578-0.604
			c0.671,0,1.231,0.216,1.681,0.647c0.45,0.431,0.675,0.94,0.675,1.526c0,0.419-0.098,0.838-0.293,1.257
			c-0.301,0.659-0.789,1.357-1.465,2.093c-1.014,1.107-1.646,1.774-1.898,2.002h2.161c0.439,0,0.747-0.016,0.925-0.049
			c0.177-0.032,0.336-0.099,0.479-0.198s0.267-0.241,0.373-0.424H146.903z"/>
		<path style="fill:#0066FF;" d="M147.873,15.696c0-0.944,0.143-1.757,0.428-2.438c0.285-0.681,0.663-1.189,1.135-1.523
			c0.367-0.264,0.745-0.396,1.136-0.396c0.635,0,1.204,0.323,1.709,0.971c0.631,0.801,0.946,1.888,0.946,3.259
			c0,0.961-0.139,1.776-0.415,2.448c-0.277,0.671-0.63,1.158-1.06,1.461c-0.429,0.304-0.843,0.455-1.242,0.455
			c-0.789,0-1.446-0.466-1.971-1.397C148.096,17.749,147.873,16.803,147.873,15.696z M149.07,15.849c0,1.139,0.14,2.069,0.421,2.789
			c0.231,0.606,0.577,0.909,1.037,0.909c0.22,0,0.448-0.099,0.684-0.296c0.236-0.197,0.415-0.528,0.537-0.991
			c0.188-0.7,0.281-1.687,0.281-2.961c0-0.944-0.098-1.731-0.293-2.362c-0.146-0.468-0.336-0.799-0.567-0.995
			c-0.167-0.135-0.369-0.202-0.604-0.202c-0.277,0-0.523,0.124-0.739,0.373c-0.293,0.337-0.492,0.869-0.598,1.593
			S149.07,15.145,149.07,15.849z"/>
	</g>
	<g>
		<path style="fill:#0066FF;" d="M9.548,21.025v0.226c-0.537,0.053-0.976,0.16-1.315,0.32c-0.34,0.161-0.675,0.406-1.007,0.735
			c-0.332,0.33-0.606,0.697-0.824,1.103c-0.218,0.404-0.4,0.886-0.546,1.443c0.586-0.403,1.174-0.604,1.764-0.604
			c0.565,0,1.056,0.228,1.471,0.684s0.622,1.042,0.622,1.758c0,0.691-0.209,1.322-0.628,1.893c-0.504,0.691-1.172,1.037-2.002,1.037
			c-0.565,0-1.046-0.188-1.44-0.562c-0.773-0.729-1.16-1.673-1.16-2.832c0-0.74,0.148-1.444,0.445-2.112
			c0.297-0.667,0.721-1.259,1.273-1.775c0.551-0.517,1.079-0.865,1.583-1.044c0.505-0.179,0.975-0.269,1.41-0.269H9.548z
			 M5.752,25.298c-0.073,0.55-0.11,0.993-0.11,1.331c0,0.391,0.072,0.814,0.217,1.272c0.144,0.457,0.359,0.82,0.644,1.089
			c0.207,0.191,0.459,0.287,0.757,0.287c0.354,0,0.67-0.167,0.949-0.5c0.279-0.334,0.418-0.811,0.418-1.429
			c0-0.696-0.139-1.298-0.415-1.807c-0.277-0.509-0.669-0.763-1.178-0.763c-0.155,0-0.32,0.032-0.498,0.098
			C6.359,24.941,6.098,25.082,5.752,25.298z"/>
		<path style="fill:#0066FF;" d="M16.298,22.008l2.014-0.982h0.202v6.988c0,0.464,0.019,0.753,0.058,0.867
			c0.039,0.113,0.119,0.201,0.241,0.262c0.122,0.062,0.37,0.096,0.745,0.104v0.226h-3.113v-0.226
			c0.391-0.009,0.643-0.042,0.757-0.101c0.114-0.06,0.193-0.139,0.238-0.238c0.044-0.1,0.067-0.397,0.067-0.895v-4.468
			c0-0.602-0.021-0.988-0.061-1.159c-0.028-0.131-0.081-0.227-0.156-0.287s-0.166-0.092-0.271-0.092c-0.15,0-0.36,0.063-0.628,0.189
			L16.298,22.008z"/>
		<path style="fill:#0066FF;" d="M21.535,25.383c0-0.943,0.143-1.756,0.427-2.438s0.663-1.189,1.135-1.523
			c0.366-0.265,0.745-0.396,1.135-0.396c0.635,0,1.205,0.323,1.709,0.971c0.631,0.802,0.946,1.888,0.946,3.259
			c0,0.961-0.139,1.776-0.415,2.448c-0.277,0.671-0.63,1.158-1.059,1.461c-0.43,0.304-0.843,0.455-1.242,0.455
			c-0.79,0-1.447-0.466-1.971-1.397C21.756,27.437,21.535,26.49,21.535,25.383z M22.731,25.536c0,1.139,0.14,2.069,0.421,2.789
			c0.231,0.606,0.578,0.909,1.037,0.909c0.22,0,0.448-0.099,0.684-0.296c0.236-0.197,0.415-0.528,0.537-0.991
			c0.188-0.7,0.281-1.688,0.281-2.961c0-0.943-0.098-1.731-0.293-2.361c-0.146-0.469-0.336-0.8-0.568-0.995
			c-0.167-0.135-0.368-0.202-0.604-0.202c-0.277,0-0.523,0.125-0.739,0.373c-0.293,0.338-0.492,0.868-0.598,1.593
			S22.731,24.832,22.731,25.536z"/>
	</g>
	<g>
		<path style="fill:#0066FF;" d="M77.552,12.138h3.706v0.349h-3.706V12.138z"/>
	</g>
	<g>
		<path style="fill:#0066FF;" d="M15.984,8.433c0,0.187-0.066,0.347-0.198,0.479c-0.132,0.132-0.29,0.199-0.473,0.199
			c-0.187,0-0.347-0.066-0.479-0.199c-0.132-0.132-0.199-0.292-0.199-0.479s0.066-0.347,0.199-0.479
			c0.132-0.132,0.292-0.199,0.479-0.199c0.183,0,0.341,0.066,0.473,0.199C15.917,8.086,15.984,8.246,15.984,8.433z"/>
	</g>
	<g>
		<path style="fill:#0066FF;" d="M39.366,15.152h6.409v0.592h-6.409V15.152z M39.366,17.43h6.409v0.604h-6.409V17.43z"/>
		<path style="fill:#0066FF;" d="M59.26,16.587c0,0.188-0.066,0.347-0.198,0.479c-0.132,0.132-0.29,0.198-0.473,0.198
			c-0.187,0-0.347-0.066-0.479-0.198c-0.132-0.133-0.199-0.292-0.199-0.479s0.066-0.347,0.199-0.479
			c0.132-0.132,0.292-0.199,0.479-0.199c0.183,0,0.341,0.066,0.473,0.199C59.193,16.24,59.26,16.399,59.26,16.587z"/>
		<path style="fill:#0066FF;" d="M90.102,15.152h6.409v0.592h-6.409V15.152z M90.102,17.43h6.409v0.604h-6.409V17.43z"/>
		<path style="fill:#0066FF;" d="M109.996,16.587c0,0.188-0.066,0.347-0.199,0.479c-0.132,0.132-0.289,0.198-0.473,0.198
			c-0.188,0-0.347-0.066-0.479-0.198c-0.132-0.133-0.198-0.292-0.198-0.479s0.066-0.347,0.198-0.479
			c0.133-0.132,0.292-0.199,0.479-0.199c0.184,0,0.341,0.066,0.473,0.199C109.93,16.24,109.996,16.399,109.996,16.587z"/>
		<path style="fill:#0066FF;" d="M131.024,15.152h6.409v0.592h-6.409V15.152z M131.024,17.43h6.409v0.604h-6.409V17.43z"/>
	</g>
	<g>
		<path style="fill:#0066FF;" d="M13.679,26.274c0,0.188-0.066,0.347-0.198,0.479c-0.132,0.132-0.29,0.198-0.473,0.198
			c-0.187,0-0.347-0.066-0.479-0.198c-0.132-0.133-0.199-0.292-0.199-0.479s0.066-0.347,0.199-0.479
			c0.132-0.132,0.292-0.198,0.479-0.198c0.183,0,0.341,0.066,0.473,0.198C13.613,25.928,13.679,26.087,13.679,26.274z"/>
	</g>
</g>
<g id="theGroup">
</g>
</svg>
