<?xml version="1.0" encoding="iso-8859-1"?>
<!-- Generator: Adobe Illustrator 16.0.0, SVG Export Plug-In . SVG Version: 6.00 Build 0)  -->
<!DOCTYPE svg PUBLIC "-//W3C//DTD SVG 1.1//EN" "http://www.w3.org/Graphics/SVG/1.1/DTD/svg11.dtd">
<svg version="1.1" id="Lager_1" xmlns="http://www.w3.org/2000/svg" xmlns:xlink="http://www.w3.org/1999/xlink" x="0px" y="0px"
	 width="66.969px" height="32.044px" viewBox="0 0 66.969 32.044" style="enable-background:new 0 0 66.969 32.044;"
	 xml:space="preserve">
<g>
	
		<line style="fill:none;stroke:#0066FF;stroke-width:0.5;stroke-linecap:square;stroke-miterlimit:10;" x1="0.25" y1="15.242" x2="7.281" y2="15.242"/>
	
		<line style="fill:none;stroke:#0066FF;stroke-width:0.5;stroke-linecap:square;stroke-miterlimit:10;" x1="19.547" y1="15.242" x2="26.969" y2="15.242"/>
	
		<line style="fill:none;stroke:#0066FF;stroke-width:0.5;stroke-linecap:square;stroke-miterlimit:10;" x1="41.109" y1="15.242" x2="48.141" y2="15.242"/>
	<g>
		<path style="fill:#0066FF;" d="M6.174,2.112L5.698,3.149h-2.49L2.665,4.261c1.078,0.158,1.933,0.56,2.563,1.202
			C5.769,6.017,6.04,6.667,6.04,7.416c0,0.436-0.089,0.838-0.266,1.209c-0.177,0.37-0.4,0.686-0.668,0.945
			c-0.269,0.261-0.568,0.471-0.897,0.629c-0.468,0.224-0.948,0.336-1.44,0.336c-0.497,0-0.858-0.085-1.083-0.254
			c-0.226-0.168-0.339-0.354-0.339-0.558c0-0.114,0.047-0.215,0.14-0.303C1.58,9.334,1.698,9.29,1.841,9.29
			c0.105,0,0.198,0.016,0.277,0.049c0.08,0.032,0.215,0.116,0.406,0.25c0.305,0.212,0.614,0.317,0.928,0.317
			c0.476,0,0.894-0.18,1.254-0.54c0.36-0.36,0.54-0.799,0.54-1.315c0-0.5-0.161-0.968-0.482-1.4
			C4.443,6.217,3.999,5.882,3.434,5.646C2.99,5.463,2.386,5.357,1.621,5.329l1.587-3.217H6.174z"/>
		<path style="fill:#0066FF;" d="M26.127,7.337v0.866h-1.11v2.186h-1.007V8.203h-3.503V7.422l3.839-5.48h0.672v5.396H26.127z
			 M24.009,7.337V3.229l-2.905,4.107H24.009z"/>
		<path style="fill:#0066FF;" d="M42.132,10.56v-0.226c0.529-0.009,1.021-0.132,1.478-0.37c0.455-0.237,0.896-0.653,1.321-1.248
			c0.425-0.594,0.721-1.247,0.888-1.959c-0.639,0.411-1.217,0.616-1.733,0.616c-0.582,0-1.08-0.225-1.495-0.674
			c-0.415-0.45-0.623-1.047-0.623-1.792c0-0.724,0.208-1.369,0.623-1.935c0.5-0.688,1.153-1.031,1.959-1.031
			c0.68,0,1.262,0.28,1.746,0.842c0.594,0.696,0.891,1.555,0.891,2.576c0,0.919-0.226,1.777-0.678,2.572
			c-0.451,0.796-1.08,1.456-1.886,1.98c-0.655,0.432-1.369,0.647-2.143,0.647H42.132z M45.916,6.306
			c0.073-0.529,0.109-0.952,0.109-1.27c0-0.396-0.066-0.821-0.201-1.279c-0.134-0.458-0.324-0.809-0.57-1.053
			s-0.526-0.366-0.84-0.366c-0.361,0-0.679,0.163-0.951,0.488c-0.273,0.325-0.409,0.81-0.409,1.453c0,0.858,0.181,1.529,0.543,2.014
			c0.265,0.35,0.59,0.525,0.977,0.525c0.188,0,0.409-0.045,0.665-0.135C45.495,6.594,45.721,6.468,45.916,6.306z"/>
	</g>
	<g>
		<path style="fill:#0066FF;" d="M62.184,11.107l2.014-0.982h0.202v6.988c0,0.464,0.019,0.753,0.058,0.867
			c0.039,0.113,0.119,0.201,0.241,0.262c0.122,0.062,0.37,0.096,0.745,0.104v0.226H62.33v-0.226
			c0.391-0.009,0.643-0.042,0.757-0.101c0.114-0.06,0.193-0.139,0.238-0.238s0.067-0.397,0.067-0.895v-4.468
			c0-0.602-0.021-0.988-0.062-1.159c-0.028-0.13-0.08-0.226-0.155-0.287c-0.076-0.061-0.166-0.092-0.271-0.092
			c-0.151,0-0.36,0.063-0.629,0.189L62.184,11.107z"/>
	</g>
	<g>
		<path style="fill:#0066FF;" d="M1.29,28.382v-0.226c0.529-0.009,1.021-0.132,1.477-0.369c0.456-0.238,0.896-0.654,1.321-1.248
			c0.425-0.595,0.721-1.248,0.888-1.96c-0.639,0.411-1.217,0.616-1.733,0.616c-0.582,0-1.08-0.225-1.495-0.674
			s-0.623-1.047-0.623-1.791c0-0.725,0.208-1.37,0.623-1.936c0.5-0.688,1.153-1.031,1.959-1.031c0.68,0,1.261,0.281,1.746,0.842
			c0.594,0.696,0.891,1.555,0.891,2.576c0,0.92-0.226,1.777-0.678,2.572c-0.451,0.796-1.08,1.456-1.886,1.98
			c-0.655,0.432-1.369,0.647-2.143,0.647H1.29z M5.074,24.128c0.073-0.529,0.11-0.952,0.11-1.27c0-0.395-0.067-0.821-0.202-1.279
			c-0.134-0.457-0.324-0.809-0.57-1.053c-0.247-0.244-0.526-0.366-0.839-0.366c-0.362,0-0.68,0.163-0.952,0.488
			c-0.272,0.326-0.409,0.81-0.409,1.453c0,0.858,0.181,1.529,0.543,2.014c0.265,0.351,0.59,0.525,0.977,0.525
			c0.187,0,0.409-0.045,0.665-0.135C4.653,24.417,4.879,24.29,5.074,24.128z"/>
		<path style="fill:#0066FF;" d="M20.777,28.382v-0.226c0.529-0.009,1.021-0.132,1.477-0.369c0.456-0.238,0.896-0.654,1.321-1.248
			c0.425-0.595,0.721-1.248,0.888-1.96c-0.639,0.411-1.217,0.616-1.733,0.616c-0.582,0-1.08-0.225-1.495-0.674
			s-0.623-1.047-0.623-1.791c0-0.725,0.208-1.37,0.623-1.936c0.5-0.688,1.153-1.031,1.959-1.031c0.68,0,1.261,0.281,1.746,0.842
			c0.594,0.696,0.891,1.555,0.891,2.576c0,0.92-0.226,1.777-0.678,2.572c-0.451,0.796-1.08,1.456-1.886,1.98
			c-0.655,0.432-1.369,0.647-2.143,0.647H20.777z M24.562,24.128c0.073-0.529,0.11-0.952,0.11-1.27c0-0.395-0.067-0.821-0.202-1.279
			c-0.134-0.457-0.324-0.809-0.57-1.053c-0.247-0.244-0.526-0.366-0.839-0.366c-0.362,0-0.68,0.163-0.952,0.488
			c-0.272,0.326-0.409,0.81-0.409,1.453c0,0.858,0.181,1.529,0.543,2.014c0.265,0.351,0.59,0.525,0.977,0.525
			c0.187,0,0.409-0.045,0.665-0.135C24.141,24.417,24.366,24.29,24.562,24.128z"/>
		<path style="fill:#0066FF;" d="M42.14,28.382v-0.226c0.529-0.009,1.021-0.132,1.478-0.369c0.455-0.238,0.896-0.654,1.321-1.248
			c0.425-0.595,0.721-1.248,0.888-1.96c-0.639,0.411-1.217,0.616-1.733,0.616c-0.582,0-1.08-0.225-1.495-0.674
			s-0.623-1.047-0.623-1.791c0-0.725,0.208-1.37,0.623-1.936c0.5-0.688,1.153-1.031,1.959-1.031c0.68,0,1.262,0.281,1.746,0.842
			c0.594,0.696,0.891,1.555,0.891,2.576c0,0.92-0.226,1.777-0.678,2.572c-0.451,0.796-1.08,1.456-1.886,1.98
			c-0.655,0.432-1.369,0.647-2.143,0.647H42.14z M45.924,24.128c0.073-0.529,0.109-0.952,0.109-1.27
			c0-0.395-0.066-0.821-0.201-1.279c-0.134-0.457-0.324-0.809-0.57-1.053s-0.526-0.366-0.84-0.366c-0.361,0-0.679,0.163-0.951,0.488
			c-0.273,0.326-0.409,0.81-0.409,1.453c0,0.858,0.181,1.529,0.543,2.014c0.265,0.351,0.59,0.525,0.977,0.525
			c0.188,0,0.409-0.045,0.665-0.135C45.503,24.417,45.729,24.29,45.924,24.128z"/>
	</g>
	<g>
		<path style="fill:#0066FF;" d="M13.036,12.164h0.598v2.917h2.899v0.592h-2.899v2.899h-0.598v-2.899h-2.912v-0.592h2.912V12.164z"
			/>
		<path style="fill:#0066FF;" d="M30.747,13.939h6.409v0.593h-6.409V13.939z M30.747,16.217h6.409v0.604h-6.409V16.217z"/>
		<path style="fill:#0066FF;" d="M51.907,13.939h6.409v0.593h-6.409V13.939z M51.907,16.217h6.409v0.604h-6.409V16.217z"/>
	</g>
</g>
<g id="theGroup">
</g>
</svg>
