<?xml version="1.0" encoding="iso-8859-1"?>
<!-- Generator: Adobe Illustrator 16.0.0, SVG Export Plug-In . SVG Version: 6.00 Build 0)  -->
<!DOCTYPE svg PUBLIC "-//W3C//DTD SVG 1.1//EN" "http://www.w3.org/Graphics/SVG/1.1/DTD/svg11.dtd">
<svg version="1.1" id="Lager_1" xmlns="http://www.w3.org/2000/svg" xmlns:xlink="http://www.w3.org/1999/xlink" x="0px" y="0px"
	 width="124.615px" height="32.044px" viewBox="0 0 124.615 32.044" style="enable-background:new 0 0 124.615 32.044;"
	 xml:space="preserve">
<g>
	
		<line style="fill:none;stroke:#0066FF;stroke-width:0.5;stroke-linecap:square;stroke-miterlimit:10;" x1="0.25" y1="15.242" x2="23.492" y2="15.242"/>
	<g>
		<path style="fill:#0066FF;" d="M2.083,2.112h4.437v0.231L3.762,10.56H3.078L5.55,3.107H3.273c-0.459,0-0.787,0.055-0.982,0.164
			C1.949,3.459,1.675,3.748,1.467,4.139L1.29,4.071L2.083,2.112z"/>
		<path style="fill:#0066FF;" d="M12.502,2.112l-0.476,1.037h-2.49L8.993,4.261c1.078,0.158,1.933,0.56,2.563,1.202
			c0.541,0.554,0.812,1.204,0.812,1.953c0,0.436-0.089,0.838-0.266,1.209c-0.177,0.37-0.4,0.686-0.668,0.945
			c-0.269,0.261-0.568,0.471-0.897,0.629c-0.468,0.224-0.948,0.336-1.44,0.336c-0.497,0-0.858-0.085-1.083-0.254
			c-0.226-0.168-0.339-0.354-0.339-0.558c0-0.114,0.047-0.215,0.14-0.303C7.908,9.334,8.026,9.29,8.169,9.29
			c0.105,0,0.198,0.016,0.277,0.049c0.08,0.032,0.215,0.116,0.406,0.25C9.157,9.801,9.467,9.906,9.78,9.906
			c0.476,0,0.894-0.18,1.254-0.54c0.36-0.36,0.54-0.799,0.54-1.315c0-0.5-0.161-0.968-0.482-1.4
			c-0.321-0.434-0.765-0.769-1.331-1.004C9.318,5.463,8.714,5.357,7.949,5.329l1.587-3.217H12.502z"/>
		<path style="fill:#0066FF;" d="M18.337,8.35c-0.342-0.167-0.604-0.399-0.787-0.698c-0.183-0.3-0.274-0.63-0.274-0.992
			c0-0.554,0.208-1.029,0.625-1.428c0.417-0.399,0.951-0.599,1.602-0.599c0.533,0,0.995,0.13,1.386,0.391h1.184
			c0.175,0,0.277,0.005,0.306,0.016c0.028,0.01,0.049,0.027,0.061,0.052c0.024,0.036,0.037,0.102,0.037,0.195
			c0,0.105-0.01,0.179-0.031,0.22c-0.012,0.021-0.034,0.036-0.064,0.049c-0.031,0.012-0.133,0.019-0.309,0.019h-0.726
			c0.228,0.293,0.342,0.667,0.342,1.123c0,0.521-0.199,0.966-0.598,1.336s-0.934,0.556-1.605,0.556
			c-0.276,0-0.559-0.041-0.848-0.122c-0.179,0.154-0.3,0.29-0.363,0.406c-0.063,0.115-0.094,0.214-0.094,0.296
			c0,0.069,0.033,0.136,0.101,0.201c0.067,0.065,0.198,0.112,0.394,0.141c0.114,0.016,0.399,0.03,0.854,0.043
			c0.838,0.02,1.381,0.049,1.63,0.085c0.378,0.053,0.68,0.193,0.906,0.421c0.226,0.229,0.339,0.509,0.339,0.843
			c0,0.46-0.216,0.891-0.647,1.294c-0.635,0.594-1.462,0.891-2.484,0.891c-0.785,0-1.449-0.177-1.99-0.53
			c-0.305-0.204-0.458-0.415-0.458-0.635c0-0.098,0.022-0.195,0.067-0.293c0.069-0.151,0.211-0.36,0.427-0.629
			c0.028-0.037,0.236-0.257,0.623-0.659c-0.211-0.126-0.361-0.239-0.449-0.339S17.36,9.788,17.36,9.662
			c0-0.143,0.058-0.31,0.174-0.5C17.65,8.971,17.918,8.7,18.337,8.35z M18.276,10.389c-0.191,0.207-0.336,0.4-0.434,0.58
			c-0.098,0.179-0.146,0.344-0.146,0.494c0,0.195,0.118,0.366,0.354,0.513c0.407,0.252,0.995,0.378,1.764,0.378
			c0.732,0,1.272-0.129,1.62-0.388c0.348-0.258,0.522-0.533,0.522-0.826c0-0.212-0.104-0.362-0.311-0.452
			c-0.212-0.09-0.631-0.143-1.258-0.158C19.473,10.505,18.769,10.458,18.276,10.389z M19.399,4.926c-0.301,0-0.554,0.12-0.757,0.36
			c-0.204,0.24-0.306,0.608-0.306,1.104c0,0.643,0.139,1.142,0.415,1.495c0.212,0.269,0.48,0.403,0.806,0.403
			c0.31,0,0.564-0.116,0.763-0.348c0.199-0.232,0.299-0.597,0.299-1.093c0-0.647-0.141-1.153-0.421-1.52
			C19.991,5.061,19.725,4.926,19.399,4.926z"/>
	</g>
	<g>
		<path style="fill:#0066FF;" d="M37.694,14.483c0-0.944,0.143-1.757,0.427-2.438s0.663-1.189,1.135-1.523
			c0.366-0.264,0.745-0.396,1.135-0.396c0.635,0,1.205,0.323,1.709,0.971c0.631,0.802,0.946,1.888,0.946,3.259
			c0,0.961-0.139,1.776-0.415,2.448c-0.277,0.671-0.63,1.158-1.059,1.461c-0.43,0.304-0.843,0.455-1.242,0.455
			c-0.79,0-1.447-0.466-1.971-1.397C37.916,16.535,37.694,15.59,37.694,14.483z M38.89,14.636c0,1.14,0.14,2.069,0.421,2.789
			c0.231,0.606,0.578,0.909,1.037,0.909c0.22,0,0.448-0.099,0.684-0.296c0.236-0.197,0.415-0.528,0.537-0.991
			c0.188-0.7,0.281-1.687,0.281-2.961c0-0.943-0.098-1.73-0.293-2.361c-0.146-0.468-0.336-0.8-0.568-0.995
			c-0.167-0.135-0.368-0.201-0.604-0.201c-0.277,0-0.523,0.124-0.739,0.372c-0.293,0.338-0.492,0.869-0.598,1.593
			C38.943,13.218,38.89,13.932,38.89,14.636z"/>
		<path style="fill:#0066FF;" d="M43.976,20.653v-0.269c0.419-0.138,0.744-0.353,0.974-0.644c0.229-0.291,0.345-0.6,0.345-0.925
			c0-0.077-0.018-0.143-0.055-0.195c-0.028-0.037-0.057-0.055-0.085-0.055c-0.045,0-0.143,0.04-0.293,0.122
			c-0.073,0.036-0.151,0.055-0.232,0.055c-0.199,0-0.358-0.059-0.476-0.177c-0.118-0.118-0.177-0.281-0.177-0.488
			c0-0.199,0.076-0.37,0.229-0.513c0.152-0.143,0.339-0.214,0.559-0.214c0.269,0,0.507,0.117,0.717,0.351
			c0.209,0.234,0.314,0.545,0.314,0.931c0,0.42-0.146,0.81-0.437,1.169C45.067,20.162,44.607,20.446,43.976,20.653z"/>
		<path style="fill:#0066FF;" d="M49.049,10.296h4.437v0.232l-2.759,8.215h-0.684l2.472-7.452h-2.277
			c-0.459,0-0.787,0.055-0.982,0.165c-0.342,0.187-0.616,0.476-0.824,0.866l-0.177-0.067L49.049,10.296z"/>
		<path style="fill:#0066FF;" d="M59.468,10.296l-0.476,1.038h-2.49l-0.543,1.11c1.078,0.159,1.933,0.56,2.563,1.202
			c0.541,0.554,0.812,1.205,0.812,1.953c0,0.436-0.089,0.838-0.266,1.209c-0.177,0.37-0.4,0.686-0.668,0.945
			c-0.269,0.261-0.568,0.471-0.897,0.629c-0.468,0.224-0.948,0.336-1.44,0.336c-0.497,0-0.858-0.085-1.083-0.253
			c-0.226-0.169-0.339-0.355-0.339-0.559c0-0.114,0.047-0.215,0.14-0.303c0.094-0.087,0.212-0.131,0.354-0.131
			c0.105,0,0.198,0.017,0.277,0.049c0.08,0.032,0.215,0.116,0.406,0.25c0.305,0.212,0.614,0.317,0.928,0.317
			c0.476,0,0.894-0.18,1.254-0.54c0.36-0.36,0.54-0.799,0.54-1.315c0-0.5-0.161-0.967-0.482-1.4s-0.765-0.768-1.331-1.004
			c-0.443-0.184-1.048-0.289-1.812-0.317l1.587-3.217H59.468z"/>
		<path style="fill:#0066FF;" d="M65.49,16.533c-0.342-0.166-0.604-0.399-0.787-0.698s-0.274-0.63-0.274-0.992
			c0-0.553,0.208-1.029,0.625-1.428s0.951-0.599,1.603-0.599c0.533,0,0.995,0.131,1.386,0.391h1.184
			c0.175,0,0.277,0.006,0.306,0.016c0.028,0.011,0.049,0.027,0.061,0.052c0.024,0.037,0.037,0.102,0.037,0.195
			c0,0.106-0.011,0.18-0.03,0.22c-0.013,0.021-0.034,0.037-0.064,0.049c-0.03,0.013-0.134,0.019-0.309,0.019h-0.727
			c0.229,0.293,0.342,0.667,0.342,1.123c0,0.521-0.199,0.967-0.598,1.337s-0.934,0.555-1.605,0.555c-0.276,0-0.56-0.04-0.848-0.122
			c-0.18,0.155-0.301,0.29-0.363,0.406c-0.063,0.116-0.095,0.215-0.095,0.296c0,0.069,0.033,0.137,0.101,0.201
			c0.067,0.065,0.198,0.112,0.394,0.141c0.114,0.017,0.398,0.03,0.854,0.043c0.838,0.021,1.382,0.049,1.63,0.085
			c0.378,0.053,0.681,0.193,0.906,0.421c0.226,0.229,0.339,0.509,0.339,0.843c0,0.46-0.216,0.892-0.647,1.294
			c-0.635,0.594-1.463,0.891-2.483,0.891c-0.786,0-1.449-0.177-1.99-0.53c-0.305-0.204-0.458-0.415-0.458-0.635
			c0-0.098,0.022-0.195,0.067-0.293c0.069-0.15,0.212-0.36,0.428-0.629c0.028-0.036,0.235-0.257,0.622-0.659
			c-0.212-0.126-0.361-0.239-0.448-0.339c-0.088-0.1-0.132-0.213-0.132-0.339c0-0.143,0.059-0.309,0.174-0.5
			C64.804,17.154,65.071,16.884,65.49,16.533z M65.43,18.572c-0.191,0.207-0.336,0.4-0.434,0.58
			c-0.098,0.179-0.146,0.344-0.146,0.494c0,0.195,0.118,0.366,0.354,0.513c0.406,0.252,0.994,0.378,1.764,0.378
			c0.732,0,1.272-0.129,1.62-0.387c0.348-0.259,0.522-0.534,0.522-0.827c0-0.212-0.104-0.362-0.312-0.452
			c-0.212-0.089-0.631-0.143-1.258-0.158C66.626,18.688,65.922,18.642,65.43,18.572z M66.553,13.109c-0.302,0-0.554,0.12-0.757,0.36
			c-0.204,0.24-0.306,0.608-0.306,1.104c0,0.644,0.139,1.142,0.415,1.496c0.212,0.268,0.48,0.402,0.806,0.402
			c0.31,0,0.563-0.116,0.763-0.348c0.2-0.232,0.3-0.596,0.3-1.093c0-0.646-0.141-1.153-0.421-1.52
			C67.145,13.244,66.878,13.109,66.553,13.109z"/>
		<path style="fill:#0066FF;" d="M84.662,10.296h4.437v0.232l-2.759,8.215h-0.684l2.473-7.452h-2.277
			c-0.46,0-0.787,0.055-0.982,0.165c-0.342,0.187-0.616,0.476-0.824,0.866l-0.177-0.067L84.662,10.296z"/>
		<path style="fill:#0066FF;" d="M95.08,10.296l-0.476,1.038h-2.49l-0.544,1.11c1.079,0.159,1.934,0.56,2.564,1.202
			c0.541,0.554,0.812,1.205,0.812,1.953c0,0.436-0.089,0.838-0.266,1.209c-0.177,0.37-0.399,0.686-0.669,0.945
			c-0.268,0.261-0.567,0.471-0.896,0.629c-0.468,0.224-0.948,0.336-1.44,0.336c-0.497,0-0.857-0.085-1.084-0.253
			c-0.226-0.169-0.339-0.355-0.339-0.559c0-0.114,0.047-0.215,0.141-0.303c0.094-0.087,0.212-0.131,0.354-0.131
			c0.105,0,0.198,0.017,0.277,0.049s0.215,0.116,0.406,0.25c0.305,0.212,0.614,0.317,0.928,0.317c0.476,0,0.894-0.18,1.254-0.54
			s0.54-0.799,0.54-1.315c0-0.5-0.16-0.967-0.482-1.4c-0.321-0.434-0.765-0.768-1.33-1.004c-0.443-0.184-1.048-0.289-1.812-0.317
			l1.587-3.217H95.08z"/>
		<path style="fill:#0066FF;" d="M96.355,14.483c0-0.944,0.143-1.757,0.428-2.438s0.663-1.189,1.135-1.523
			c0.367-0.264,0.745-0.396,1.136-0.396c0.635,0,1.204,0.323,1.709,0.971c0.631,0.802,0.946,1.888,0.946,3.259
			c0,0.961-0.139,1.776-0.415,2.448c-0.277,0.671-0.63,1.158-1.06,1.461c-0.429,0.304-0.843,0.455-1.242,0.455
			c-0.789,0-1.446-0.466-1.971-1.397C96.578,16.535,96.355,15.59,96.355,14.483z M97.553,14.636c0,1.14,0.14,2.069,0.421,2.789
			c0.231,0.606,0.577,0.909,1.037,0.909c0.22,0,0.448-0.099,0.684-0.296c0.236-0.197,0.415-0.528,0.537-0.991
			c0.188-0.7,0.281-1.687,0.281-2.961c0-0.943-0.098-1.73-0.293-2.361c-0.146-0.468-0.336-0.8-0.567-0.995
			c-0.167-0.135-0.369-0.201-0.604-0.201c-0.277,0-0.523,0.124-0.739,0.372c-0.293,0.338-0.492,0.869-0.598,1.593
			C97.605,13.218,97.553,13.932,97.553,14.636z"/>
		<path style="fill:#0066FF;" d="M107.718,14.007c0.407-0.406,0.646-0.641,0.721-0.702c0.183-0.154,0.38-0.274,0.592-0.359
			c0.211-0.086,0.421-0.129,0.629-0.129c0.35,0,0.65,0.103,0.902,0.306c0.253,0.203,0.422,0.498,0.507,0.885
			c0.419-0.488,0.773-0.809,1.062-0.961s0.586-0.229,0.891-0.229c0.297,0,0.561,0.077,0.791,0.229
			c0.229,0.152,0.411,0.401,0.546,0.747c0.09,0.236,0.135,0.606,0.135,1.111v2.404c0,0.351,0.026,0.59,0.079,0.721
			c0.04,0.089,0.116,0.166,0.226,0.229c0.109,0.063,0.289,0.095,0.537,0.095v0.22h-2.759v-0.22h0.116
			c0.24,0,0.427-0.047,0.562-0.141c0.094-0.064,0.16-0.169,0.201-0.312c0.017-0.068,0.024-0.266,0.024-0.592v-2.404
			c0-0.456-0.055-0.777-0.165-0.965c-0.158-0.26-0.413-0.391-0.763-0.391c-0.216,0-0.433,0.055-0.65,0.162
			c-0.218,0.108-0.48,0.309-0.79,0.602l-0.013,0.066l0.013,0.263v2.667c0,0.383,0.021,0.621,0.064,0.715
			c0.042,0.093,0.123,0.172,0.241,0.234c0.117,0.063,0.319,0.095,0.604,0.095v0.22h-2.826v-0.22c0.31,0,0.522-0.036,0.639-0.11
			c0.115-0.072,0.196-0.183,0.24-0.329c0.021-0.069,0.031-0.271,0.031-0.604v-2.404c0-0.456-0.067-0.783-0.201-0.982
			c-0.18-0.261-0.43-0.391-0.751-0.391c-0.22,0-0.438,0.059-0.653,0.177c-0.338,0.179-0.598,0.381-0.781,0.604v2.996
			c0,0.366,0.025,0.604,0.076,0.715c0.051,0.109,0.126,0.191,0.226,0.247c0.1,0.055,0.303,0.082,0.607,0.082v0.22h-2.765v-0.22
			c0.256,0,0.436-0.027,0.537-0.082c0.102-0.056,0.179-0.143,0.232-0.263c0.053-0.12,0.079-0.354,0.079-0.699v-2.136
			c0-0.614-0.019-1.011-0.056-1.19c-0.028-0.134-0.072-0.227-0.134-0.277s-0.145-0.076-0.25-0.076c-0.114,0-0.251,0.03-0.409,0.091
			l-0.092-0.22l1.685-0.684h0.263V14.007z"/>
		<path style="fill:#0066FF;" d="M117.126,16.533c-0.342-0.166-0.604-0.399-0.787-0.698s-0.274-0.63-0.274-0.992
			c0-0.553,0.208-1.029,0.625-1.428s0.951-0.599,1.603-0.599c0.533,0,0.995,0.131,1.386,0.391h1.184
			c0.175,0,0.277,0.006,0.306,0.016c0.028,0.011,0.049,0.027,0.061,0.052c0.024,0.037,0.037,0.102,0.037,0.195
			c0,0.106-0.011,0.18-0.03,0.22c-0.013,0.021-0.034,0.037-0.064,0.049c-0.03,0.013-0.134,0.019-0.309,0.019h-0.727
			c0.229,0.293,0.342,0.667,0.342,1.123c0,0.521-0.199,0.967-0.598,1.337s-0.934,0.555-1.605,0.555c-0.276,0-0.56-0.04-0.848-0.122
			c-0.18,0.155-0.301,0.29-0.363,0.406c-0.063,0.116-0.095,0.215-0.095,0.296c0,0.069,0.033,0.137,0.101,0.201
			c0.067,0.065,0.198,0.112,0.394,0.141c0.114,0.017,0.398,0.03,0.854,0.043c0.838,0.021,1.382,0.049,1.63,0.085
			c0.378,0.053,0.681,0.193,0.906,0.421c0.226,0.229,0.339,0.509,0.339,0.843c0,0.46-0.216,0.892-0.647,1.294
			c-0.635,0.594-1.463,0.891-2.483,0.891c-0.786,0-1.449-0.177-1.99-0.53c-0.305-0.204-0.458-0.415-0.458-0.635
			c0-0.098,0.022-0.195,0.067-0.293c0.069-0.15,0.212-0.36,0.428-0.629c0.028-0.036,0.235-0.257,0.622-0.659
			c-0.212-0.126-0.361-0.239-0.448-0.339c-0.088-0.1-0.132-0.213-0.132-0.339c0-0.143,0.059-0.309,0.174-0.5
			C116.439,17.154,116.707,16.884,117.126,16.533z M117.065,18.572c-0.191,0.207-0.336,0.4-0.434,0.58
			c-0.098,0.179-0.146,0.344-0.146,0.494c0,0.195,0.118,0.366,0.354,0.513c0.406,0.252,0.994,0.378,1.764,0.378
			c0.732,0,1.272-0.129,1.62-0.387c0.348-0.259,0.522-0.534,0.522-0.827c0-0.212-0.104-0.362-0.312-0.452
			c-0.212-0.089-0.631-0.143-1.258-0.158C118.262,18.688,117.558,18.642,117.065,18.572z M118.188,13.109
			c-0.302,0-0.554,0.12-0.757,0.36c-0.204,0.24-0.306,0.608-0.306,1.104c0,0.644,0.139,1.142,0.415,1.496
			c0.212,0.268,0.48,0.402,0.806,0.402c0.31,0,0.563-0.116,0.763-0.348c0.2-0.232,0.3-0.596,0.3-1.093
			c0-0.646-0.141-1.153-0.421-1.52C118.78,13.244,118.514,13.109,118.188,13.109z"/>
	</g>
	<g>
		<path style="fill:#0066FF;" d="M3.463,20.746l2.014-0.982h0.202v6.988c0,0.464,0.019,0.753,0.058,0.867
			c0.039,0.113,0.119,0.201,0.241,0.262c0.122,0.062,0.37,0.096,0.745,0.104v0.226H3.609v-0.226C4,27.977,4.252,27.943,4.366,27.885
			c0.114-0.06,0.193-0.139,0.238-0.238c0.044-0.1,0.067-0.397,0.067-0.895v-4.468c0-0.602-0.021-0.988-0.061-1.159
			c-0.028-0.131-0.081-0.227-0.156-0.287s-0.166-0.092-0.271-0.092c-0.15,0-0.36,0.063-0.628,0.189L3.463,20.746z"/>
		<path style="fill:#0066FF;" d="M8.7,24.121c0-0.943,0.143-1.756,0.427-2.438s0.663-1.189,1.135-1.523
			c0.366-0.265,0.745-0.396,1.135-0.396c0.635,0,1.205,0.323,1.709,0.971c0.631,0.802,0.946,1.888,0.946,3.259
			c0,0.961-0.139,1.776-0.415,2.448c-0.277,0.671-0.63,1.158-1.059,1.461c-0.43,0.304-0.843,0.455-1.242,0.455
			c-0.79,0-1.447-0.466-1.971-1.397C8.921,26.175,8.7,25.229,8.7,24.121z M9.896,24.274c0,1.139,0.14,2.069,0.421,2.789
			c0.231,0.606,0.578,0.909,1.037,0.909c0.22,0,0.448-0.099,0.684-0.296c0.236-0.197,0.415-0.528,0.537-0.991
			c0.188-0.7,0.281-1.688,0.281-2.961c0-0.943-0.098-1.731-0.293-2.361c-0.146-0.469-0.336-0.8-0.568-0.995
			c-0.167-0.135-0.368-0.202-0.604-0.202c-0.277,0-0.523,0.125-0.739,0.373c-0.293,0.338-0.492,0.868-0.598,1.593
			S9.896,23.57,9.896,24.274z"/>
		<path style="fill:#0066FF;" d="M14.95,24.121c0-0.943,0.143-1.756,0.427-2.438s0.663-1.189,1.135-1.523
			c0.366-0.265,0.745-0.396,1.135-0.396c0.635,0,1.205,0.323,1.709,0.971c0.631,0.802,0.946,1.888,0.946,3.259
			c0,0.961-0.139,1.776-0.415,2.448c-0.277,0.671-0.63,1.158-1.059,1.461c-0.43,0.304-0.843,0.455-1.242,0.455
			c-0.79,0-1.447-0.466-1.971-1.397C15.171,26.175,14.95,25.229,14.95,24.121z M16.146,24.274c0,1.139,0.14,2.069,0.421,2.789
			c0.231,0.606,0.578,0.909,1.037,0.909c0.22,0,0.448-0.099,0.684-0.296c0.236-0.197,0.415-0.528,0.537-0.991
			c0.188-0.7,0.281-1.688,0.281-2.961c0-0.943-0.098-1.731-0.293-2.361c-0.146-0.469-0.336-0.8-0.568-0.995
			c-0.167-0.135-0.368-0.202-0.604-0.202c-0.277,0-0.523,0.125-0.739,0.373c-0.293,0.338-0.492,0.868-0.598,1.593
			S16.146,23.57,16.146,24.274z"/>
	</g>
	<g>
		<path style="fill:#0066FF;" d="M27.272,13.939h6.409v0.593h-6.409V13.939z M27.272,16.217h6.409v0.604h-6.409V16.217z"/>
		<path style="fill:#0066FF;" d="M73.433,13.939h6.409v0.593h-6.409V13.939z M73.433,16.217h6.409v0.604h-6.409V16.217z"/>
	</g>
</g>
<g id="theGroup">
</g>
</svg>
