<?xml version="1.0" encoding="iso-8859-1"?>
<!-- Generator: Adobe Illustrator 16.0.0, SVG Export Plug-In . SVG Version: 6.00 Build 0)  -->
<!DOCTYPE svg PUBLIC "-//W3C//DTD SVG 1.1//EN" "http://www.w3.org/Graphics/SVG/1.1/DTD/svg11.dtd">
<svg version="1.1" id="Lager_1" xmlns="http://www.w3.org/2000/svg" xmlns:xlink="http://www.w3.org/1999/xlink" x="0px" y="0px"
	 width="90.244px" height="33.306px" viewBox="0 0 90.244 33.306" style="enable-background:new 0 0 90.244 33.306;"
	 xml:space="preserve">
<g>
	
		<line style="fill:none;stroke:#0066FF;stroke-width:0.5;stroke-linecap:square;stroke-miterlimit:10;" x1="0.586" y1="16.476" x2="18.438" y2="16.476"/>
	<g>
		<path style="fill:#0066FF;" d="M16.175,4.242v0.501h-0.642v1.263h-0.583V4.743h-2.025V4.291l2.22-3.169h0.388v3.12H16.175z
			 M14.951,4.242V1.867l-1.68,2.375H14.951z"/>
	</g>
	<g>
		<path style="fill:#0066FF;" d="M47.19,12.406v0.501h-0.642v1.263h-0.583v-1.263h-2.025v-0.452l2.219-3.169h0.389v3.12H47.19z
			 M45.966,12.406v-2.375l-1.68,2.375H45.966z"/>
		<path style="fill:#0066FF;" d="M55.812,9.286v0.131c-0.311,0.03-0.564,0.092-0.761,0.185c-0.196,0.093-0.391,0.235-0.582,0.425
			s-0.351,0.403-0.477,0.637c-0.126,0.234-0.23,0.513-0.315,0.834c0.339-0.232,0.679-0.349,1.02-0.349
			c0.327,0,0.61,0.132,0.851,0.395c0.24,0.264,0.36,0.603,0.36,1.017c0,0.4-0.122,0.764-0.364,1.094c-0.291,0.4-0.677,0.6-1.157,0.6
			c-0.327,0-0.604-0.108-0.833-0.324c-0.446-0.421-0.67-0.967-0.67-1.638c0-0.428,0.086-0.835,0.258-1.221s0.417-0.728,0.735-1.027
			s0.624-0.5,0.916-0.604c0.291-0.104,0.563-0.155,0.814-0.155H55.812z M53.617,11.756c-0.043,0.317-0.064,0.574-0.064,0.769
			c0,0.226,0.042,0.471,0.126,0.736c0.083,0.265,0.207,0.475,0.372,0.63c0.12,0.111,0.266,0.166,0.438,0.166
			c0.205,0,0.388-0.097,0.549-0.29s0.241-0.468,0.241-0.826c0-0.402-0.08-0.75-0.239-1.044c-0.16-0.294-0.388-0.441-0.682-0.441
			c-0.089,0-0.185,0.019-0.287,0.056C53.968,11.551,53.816,11.632,53.617,11.756z"/>
		<path style="fill:#0066FF;" d="M89.944,13.249l-0.335,0.921h-2.823v-0.13c0.83-0.758,1.415-1.376,1.754-1.856
			c0.339-0.479,0.508-0.918,0.508-1.316c0-0.304-0.093-0.553-0.278-0.748c-0.187-0.195-0.408-0.293-0.667-0.293
			c-0.235,0-0.446,0.069-0.634,0.207c-0.187,0.138-0.325,0.339-0.414,0.605h-0.131c0.059-0.435,0.21-0.769,0.453-1.002
			c0.244-0.233,0.548-0.35,0.912-0.35c0.389,0,0.713,0.125,0.973,0.374c0.26,0.25,0.39,0.543,0.39,0.882
			c0,0.242-0.057,0.485-0.169,0.727c-0.175,0.381-0.457,0.785-0.848,1.21c-0.585,0.64-0.951,1.026-1.097,1.158h1.249
			c0.254,0,0.432-0.009,0.534-0.028s0.194-0.057,0.277-0.115c0.082-0.058,0.154-0.139,0.215-0.245H89.944z"/>
	</g>
	<g>
		<path style="fill:#0066FF;" d="M15.974,18.974v0.131c-0.311,0.03-0.564,0.092-0.76,0.186c-0.197,0.093-0.391,0.234-0.583,0.425
			c-0.191,0.19-0.351,0.403-0.476,0.637c-0.126,0.234-0.231,0.513-0.316,0.835c0.339-0.233,0.679-0.35,1.02-0.35
			c0.327,0,0.611,0.132,0.851,0.396s0.36,0.602,0.36,1.016c0,0.4-0.121,0.765-0.363,1.094c-0.292,0.4-0.678,0.601-1.158,0.601
			c-0.327,0-0.604-0.108-0.833-0.325c-0.447-0.421-0.67-0.967-0.67-1.637c0-0.429,0.086-0.835,0.257-1.221
			c0.172-0.386,0.417-0.729,0.736-1.027s0.624-0.5,0.916-0.604c0.292-0.104,0.563-0.155,0.815-0.155H15.974z M13.779,21.444
			c-0.042,0.317-0.063,0.573-0.063,0.769c0,0.226,0.042,0.472,0.125,0.736c0.083,0.265,0.208,0.475,0.372,0.63
			c0.12,0.11,0.266,0.165,0.438,0.165c0.205,0,0.388-0.096,0.549-0.289c0.161-0.192,0.242-0.468,0.242-0.825
			c0-0.402-0.08-0.751-0.24-1.045c-0.16-0.294-0.387-0.441-0.681-0.441c-0.09,0-0.186,0.02-0.288,0.057
			C14.13,21.238,13.979,21.319,13.779,21.444z"/>
	</g>
	<g>
		<path style="fill:#0066FF;" d="M1.465,4.166l2.014-0.982h0.202v6.988c0,0.464,0.019,0.753,0.058,0.867
			c0.039,0.114,0.119,0.201,0.241,0.262s0.37,0.096,0.745,0.104v0.226H1.611v-0.226c0.391-0.008,0.643-0.042,0.757-0.101
			c0.114-0.059,0.193-0.138,0.238-0.238c0.044-0.1,0.067-0.398,0.067-0.895V5.704c0-0.602-0.021-0.988-0.061-1.159
			c-0.028-0.13-0.081-0.226-0.156-0.287S2.291,4.166,2.185,4.166c-0.15,0-0.36,0.063-0.628,0.189L1.465,4.166z"/>
		<path style="fill:#0066FF;" d="M6.702,7.542c0-0.944,0.143-1.757,0.427-2.438C7.414,4.422,7.792,3.914,8.264,3.58
			C8.63,3.316,9.009,3.184,9.399,3.184c0.635,0,1.205,0.323,1.709,0.971c0.631,0.801,0.946,1.888,0.946,3.259
			c0,0.96-0.139,1.776-0.415,2.448c-0.277,0.671-0.63,1.159-1.059,1.462c-0.43,0.303-0.843,0.455-1.242,0.455
			c-0.79,0-1.447-0.466-1.971-1.397C6.923,9.594,6.702,8.648,6.702,7.542z M7.898,7.694c0,1.139,0.14,2.069,0.421,2.789
			c0.231,0.606,0.578,0.909,1.037,0.909c0.22,0,0.448-0.098,0.684-0.296c0.236-0.197,0.415-0.528,0.537-0.992
			c0.188-0.7,0.281-1.687,0.281-2.96c0-0.944-0.098-1.731-0.293-2.362c-0.146-0.468-0.336-0.799-0.568-0.995
			C9.831,3.653,9.629,3.586,9.394,3.586c-0.277,0-0.523,0.124-0.739,0.373C8.362,4.296,8.163,4.828,8.057,5.552
			S7.898,6.99,7.898,7.694z"/>
	</g>
	<g>
		<path style="fill:#0066FF;" d="M32.48,12.32l2.014-0.982h0.202v6.988c0,0.464,0.019,0.753,0.058,0.867
			c0.039,0.113,0.119,0.201,0.241,0.262c0.122,0.062,0.37,0.096,0.745,0.104v0.226h-3.113V19.56
			c0.391-0.009,0.643-0.042,0.757-0.101c0.114-0.06,0.193-0.139,0.238-0.238c0.044-0.1,0.067-0.397,0.067-0.895v-4.468
			c0-0.602-0.021-0.988-0.061-1.159c-0.028-0.13-0.081-0.226-0.156-0.287s-0.166-0.092-0.271-0.092c-0.15,0-0.36,0.063-0.628,0.189
			L32.48,12.32z"/>
		<path style="fill:#0066FF;" d="M37.717,15.696c0-0.944,0.143-1.757,0.427-2.438c0.285-0.681,0.663-1.189,1.135-1.523
			c0.366-0.264,0.745-0.396,1.135-0.396c0.635,0,1.205,0.323,1.709,0.971c0.631,0.801,0.946,1.888,0.946,3.259
			c0,0.961-0.139,1.776-0.415,2.448c-0.277,0.671-0.63,1.158-1.059,1.461c-0.43,0.304-0.843,0.455-1.242,0.455
			c-0.79,0-1.447-0.466-1.971-1.397C37.939,17.749,37.717,16.803,37.717,15.696z M38.914,15.849c0,1.139,0.14,2.069,0.421,2.789
			c0.231,0.606,0.578,0.909,1.037,0.909c0.22,0,0.448-0.099,0.684-0.296c0.236-0.197,0.415-0.528,0.537-0.991
			c0.188-0.7,0.281-1.687,0.281-2.961c0-0.944-0.098-1.731-0.293-2.362c-0.146-0.468-0.336-0.799-0.568-0.995
			c-0.167-0.135-0.368-0.202-0.604-0.202c-0.277,0-0.523,0.124-0.739,0.373c-0.293,0.337-0.492,0.869-0.598,1.593
			S38.914,15.145,38.914,15.849z"/>
		<path style="fill:#0066FF;" d="M71.268,12.32l2.014-0.982h0.202v6.988c0,0.464,0.019,0.753,0.058,0.867
			c0.039,0.113,0.119,0.201,0.241,0.262c0.122,0.062,0.37,0.096,0.745,0.104v0.226h-3.113V19.56
			c0.391-0.009,0.643-0.042,0.757-0.101c0.114-0.06,0.193-0.139,0.238-0.238s0.067-0.397,0.067-0.895v-4.468
			c0-0.602-0.021-0.988-0.062-1.159c-0.028-0.13-0.08-0.226-0.155-0.287c-0.076-0.061-0.166-0.092-0.271-0.092
			c-0.151,0-0.36,0.063-0.629,0.189L71.268,12.32z"/>
		<path style="fill:#0066FF;" d="M76.504,15.696c0-0.944,0.143-1.757,0.428-2.438c0.285-0.681,0.663-1.189,1.135-1.523
			c0.367-0.264,0.745-0.396,1.136-0.396c0.635,0,1.204,0.323,1.709,0.971c0.631,0.801,0.946,1.888,0.946,3.259
			c0,0.961-0.139,1.776-0.415,2.448c-0.277,0.671-0.63,1.158-1.06,1.461c-0.429,0.304-0.843,0.455-1.242,0.455
			c-0.789,0-1.446-0.466-1.971-1.397C76.727,17.749,76.504,16.803,76.504,15.696z M77.701,15.849c0,1.139,0.14,2.069,0.421,2.789
			c0.231,0.606,0.577,0.909,1.037,0.909c0.22,0,0.448-0.099,0.684-0.296c0.236-0.197,0.415-0.528,0.537-0.991
			c0.188-0.7,0.281-1.687,0.281-2.961c0-0.944-0.098-1.731-0.293-2.362c-0.146-0.468-0.336-0.799-0.567-0.995
			c-0.167-0.135-0.369-0.202-0.604-0.202c-0.277,0-0.523,0.124-0.739,0.373c-0.293,0.337-0.492,0.869-0.598,1.593
			S77.701,15.145,77.701,15.849z"/>
	</g>
	<g>
		<path style="fill:#0066FF;" d="M1.494,22.008l2.014-0.982H3.71v6.988c0,0.464,0.019,0.753,0.058,0.867
			c0.039,0.113,0.119,0.201,0.241,0.262c0.122,0.062,0.37,0.096,0.745,0.104v0.226H1.641v-0.226
			c0.391-0.009,0.643-0.042,0.757-0.101c0.114-0.06,0.193-0.139,0.238-0.238c0.044-0.1,0.067-0.397,0.067-0.895v-4.468
			c0-0.602-0.021-0.988-0.061-1.159C2.613,22.256,2.561,22.16,2.486,22.1s-0.166-0.092-0.271-0.092c-0.15,0-0.36,0.063-0.628,0.189
			L1.494,22.008z"/>
		<path style="fill:#0066FF;" d="M6.731,25.383c0-0.943,0.143-1.756,0.427-2.438s0.663-1.189,1.135-1.523
			c0.366-0.265,0.745-0.396,1.135-0.396c0.635,0,1.205,0.323,1.709,0.971c0.631,0.802,0.946,1.888,0.946,3.259
			c0,0.961-0.139,1.776-0.415,2.448c-0.277,0.671-0.63,1.158-1.059,1.461c-0.43,0.304-0.843,0.455-1.242,0.455
			c-0.79,0-1.447-0.466-1.971-1.397C6.953,27.437,6.731,26.49,6.731,25.383z M7.927,25.536c0,1.139,0.14,2.069,0.421,2.789
			c0.231,0.606,0.578,0.909,1.037,0.909c0.22,0,0.448-0.099,0.684-0.296c0.236-0.197,0.415-0.528,0.537-0.991
			c0.188-0.7,0.281-1.688,0.281-2.961c0-0.943-0.098-1.731-0.293-2.361c-0.146-0.469-0.336-0.8-0.568-0.995
			c-0.167-0.135-0.368-0.202-0.604-0.202c-0.277,0-0.523,0.125-0.739,0.373c-0.293,0.338-0.492,0.868-0.598,1.593
			S7.927,24.832,7.927,25.536z"/>
	</g>
	<g>
		<path style="fill:#0066FF;" d="M48.139,12.138h3.705v0.349h-3.705V12.138z"/>
		<path style="fill:#0066FF;" d="M82.825,12.138h3.705v0.349h-3.705V12.138z"/>
	</g>
	<g>
		<path style="fill:#0066FF;" d="M22.218,15.152h6.409v0.592h-6.409V15.152z M22.218,17.43h6.409v0.604h-6.409V17.43z"/>
		<path style="fill:#0066FF;" d="M61.003,15.152h6.409v0.592h-6.409V15.152z M61.003,17.43h6.409v0.604h-6.409V17.43z"/>
	</g>
</g>
<g id="theGroup">
</g>
</svg>
