<?xml version="1.0" encoding="iso-8859-1"?>
<!-- Generator: Adobe Illustrator 16.0.0, SVG Export Plug-In . SVG Version: 6.00 Build 0)  -->
<!DOCTYPE svg PUBLIC "-//W3C//DTD SVG 1.1//EN" "http://www.w3.org/Graphics/SVG/1.1/DTD/svg11.dtd">
<svg version="1.1" id="Lager_1" xmlns="http://www.w3.org/2000/svg" xmlns:xlink="http://www.w3.org/1999/xlink" x="0px" y="0px"
	 width="80.947px" height="57.779px" viewBox="0 0 80.947 57.779" style="enable-background:new 0 0 80.947 57.779;"
	 xml:space="preserve">
<g>
	<path d="M19.545,26.497c-0.266-0.208-0.54-0.328-0.991-0.328c-0.919,0-1.772,0.751-1.788,2.415
		c0.354-0.367,0.789-0.688,1.595-0.688c0.87,0,1.749,0.607,1.749,1.855c0,1.23-0.911,1.854-1.878,1.854
		c-1.208,0-2.079-0.704-2.079-2.671c0-1.823,0.822-3.262,2.385-3.262c0.629,0,1.088,0.176,1.258,0.335L19.545,26.497z
		 M18.279,28.393c-0.709,0-1.449,0.575-1.498,1.23c0.032,0.816,0.564,1.487,1.402,1.487c0.821,0,1.312-0.56,1.312-1.343
		C19.496,28.872,18.893,28.393,18.279,28.393z"/>
</g>
<path style="fill:none;stroke:#000000;stroke-width:0.7002;stroke-linecap:round;stroke-linejoin:round;stroke-miterlimit:10;" d="
	M35.238,0.35h11.339v11.34H35.238V0.35L35.238,0.35z M40.925,11.69L18.252,23.03 M40.925,11.69l22.68,11.34 M12.602,23.03h11.301
	v11.34H12.602V23.03L12.602,23.03z M57.917,23.03h11.34v11.34h-11.34V23.03L57.917,23.03z M63.604,34.37l-11.34,11.34 M63.604,34.37
	l11.34,11.34 M69.257,45.71h11.34v11.34h-11.34V45.71L69.257,45.71z M46.577,45.71h11.34v11.34h-11.34V45.71L46.577,45.71z"/>
<g>
	<path d="M40.432,3.331h-2.498l-0.145,1.848c0.379-0.345,0.781-0.472,1.191-0.472c0.967,0,1.861,0.655,1.861,1.95
		c0,0.88-0.531,2.031-2.014,2.031c-0.99,0-1.49-0.544-1.854-1.104l0.523-0.271c0.283,0.52,0.734,0.879,1.346,0.879
		c0.766,0,1.387-0.447,1.387-1.535c0-0.848-0.5-1.455-1.307-1.455c-0.562,0-0.99,0.336-1.225,0.872l-0.506-0.112l0.258-3.126h2.98
		V3.331z"/>
	<path d="M44.277,7.249v1.359h-0.58V7.249h-2.674V6.754l2.4-3.918h0.854v3.918h1v0.495H44.277z M41.635,6.754h2.062V3.443h-0.023
		L41.635,6.754z"/>
</g>
<path style="fill:none;stroke:#000000;stroke-width:0.7002;stroke-linecap:round;stroke-linejoin:round;stroke-miterlimit:10;" d="
	M17.377,34.749L6.038,46.089 M17.377,34.749l11.34,11.34 M23.029,46.089h11.34v11.34h-11.34V46.089L23.029,46.089z M0.35,46.089
	h11.34v11.34H0.35V46.089L0.35,46.089z"/>
<g>
	<path d="M61.794,30.859c0.267,0.207,0.54,0.327,0.991,0.327c0.919,0,1.716-0.815,1.789-2.414c-0.354,0.367-0.79,0.688-1.596,0.688
		c-0.87,0-1.748-0.608-1.748-1.855c0-1.231,0.91-1.854,1.877-1.854c1.209,0,2.079,0.703,2.079,2.67c0,1.823-0.822,3.263-2.385,3.263
		c-0.629,0-1.088-0.176-1.257-0.336L61.794,30.859z M63.06,28.964c0.709,0,1.257-0.464,1.482-1.071
		c-0.017-1.008-0.548-1.647-1.386-1.647c-0.822,0-1.313,0.56-1.313,1.344C61.843,28.484,62.447,28.964,63.06,28.964z"/>
</g>
<g>
	<path d="M50.441,52.893c0.443,0.592,0.992,0.959,1.596,0.959c0.854,0,1.369-0.432,1.369-1.119c0-0.808-0.482-1.295-1.643-1.295
		h-0.572v-0.496h0.346c1.16,0,1.66-0.367,1.66-1.08c0-0.583-0.508-0.951-1.063-0.951c-0.709,0-1.015,0.305-1.401,0.8l-0.477-0.319
		c0.396-0.544,0.943-0.976,1.878-0.976c1.031,0,1.676,0.527,1.676,1.438c0,0.696-0.451,1.104-0.902,1.279
		c0.919,0.353,1.112,1.008,1.112,1.535c0,0.984-0.766,1.68-1.982,1.68c-1.111,0-1.789-0.688-2.062-1.136L50.441,52.893z"/>
</g>
<g>
	<path d="M7.76,54.693H3.981v-0.607c1.007-2.023,3.175-2.143,3.175-3.694c0-0.671-0.436-1.056-1.177-1.056
		c-0.838,0-1.272,0.672-1.37,1.256l-0.572-0.128c0.186-0.8,0.662-1.623,1.959-1.623c0.95,0,1.771,0.544,1.771,1.535
		c0,1.759-2.545,2.238-3.174,3.821H7.76V54.693z"/>
</g>
<g>
	<path d="M73.168,52.893c0.443,0.592,0.99,0.959,1.595,0.959c0.854,0,1.37-0.432,1.37-1.119c0-0.808-0.484-1.295-1.645-1.295h-0.572
		v-0.496h0.348c1.16,0,1.659-0.367,1.659-1.08c0-0.583-0.507-0.951-1.063-0.951c-0.709,0-1.016,0.305-1.402,0.8l-0.475-0.319
		c0.395-0.544,0.942-0.976,1.877-0.976c1.031,0,1.676,0.527,1.676,1.438c0,0.696-0.451,1.104-0.902,1.279
		c0.918,0.353,1.111,1.008,1.111,1.535c0,0.984-0.766,1.68-1.981,1.68c-1.112,0-1.788-0.688-2.062-1.136L73.168,52.893z"/>
</g>
<g>
	<path d="M26.917,53.318c0.443,0.592,0.991,0.959,1.595,0.959c0.854,0,1.37-0.432,1.37-1.119c0-0.808-0.483-1.295-1.644-1.295
		h-0.572v-0.496h0.347c1.16,0,1.659-0.367,1.659-1.08c0-0.583-0.507-0.951-1.062-0.951c-0.709,0-1.016,0.305-1.402,0.8l-0.476-0.319
		c0.396-0.544,0.942-0.976,1.878-0.976c1.031,0,1.676,0.527,1.676,1.438c0,0.696-0.451,1.104-0.902,1.279
		c0.918,0.353,1.111,1.008,1.111,1.535c0,0.984-0.766,1.68-1.982,1.68c-1.111,0-1.788-0.688-2.062-1.136L26.917,53.318z"/>
</g>
<g id="theGroup">
</g>
<g>
</g>
<g>
</g>
<g>
</g>
<g>
</g>
<g>
</g>
<g>
</g>
<g>
</g>
<g>
</g>
<g>
</g>
<g>
</g>
<g>
</g>
<g>
</g>
</svg>
