<?xml version="1.0" encoding="iso-8859-1"?>
<!-- Generator: Adobe Illustrator 16.0.0, SVG Export Plug-In . SVG Version: 6.00 Build 0)  -->
<!DOCTYPE svg PUBLIC "-//W3C//DTD SVG 1.1//EN" "http://www.w3.org/Graphics/SVG/1.1/DTD/svg11.dtd">
<svg version="1.1" id="Lager_1" xmlns="http://www.w3.org/2000/svg" xmlns:xlink="http://www.w3.org/1999/xlink" x="0px" y="0px"
	 width="36.516px" height="32.044px" viewBox="0 0 36.516 32.044" style="enable-background:new 0 0 36.516 32.044;"
	 xml:space="preserve">
<g>
	
		<line style="fill:none;stroke:#000000;stroke-width:0.5;stroke-linecap:square;stroke-miterlimit:10;" x1="0.25" y1="15.242" x2="7.672" y2="15.242"/>
	
		<line style="fill:none;stroke:#000000;stroke-width:0.5;stroke-linecap:square;stroke-miterlimit:10;" x1="28.844" y1="15.242" x2="36.266" y2="15.242"/>
	<g>
		<path d="M2.093,2.112H6.53v0.231L3.771,10.56H3.088L5.56,3.107H3.283c-0.46,0-0.787,0.055-0.982,0.164
			C1.959,3.459,1.685,3.748,1.477,4.139L1.3,4.071L2.093,2.112z"/>
		<path d="M30.888,2.924l2.014-0.982h0.202V8.93c0,0.464,0.019,0.753,0.058,0.867c0.039,0.113,0.119,0.201,0.241,0.262
			c0.122,0.062,0.37,0.096,0.745,0.104v0.226h-3.113v-0.226c0.391-0.009,0.643-0.042,0.757-0.102
			c0.114-0.059,0.193-0.138,0.238-0.237s0.067-0.398,0.067-0.895V4.462c0-0.603-0.021-0.988-0.062-1.159
			c-0.028-0.131-0.08-0.227-0.155-0.287c-0.076-0.062-0.166-0.092-0.271-0.092c-0.151,0-0.36,0.063-0.629,0.189L30.888,2.924z"/>
	</g>
	<g>
		<path d="M21.861,11.871c0.236-0.558,0.534-0.988,0.895-1.291c0.359-0.303,0.809-0.455,1.346-0.455
			c0.663,0,1.172,0.216,1.525,0.647c0.269,0.321,0.403,0.665,0.403,1.031c0,0.603-0.379,1.225-1.136,1.867
			c0.509,0.2,0.894,0.484,1.154,0.854c0.26,0.371,0.391,0.806,0.391,1.307c0,0.716-0.229,1.336-0.684,1.861
			c-0.595,0.684-1.455,1.025-2.582,1.025c-0.558,0-0.938-0.069-1.139-0.207c-0.201-0.139-0.302-0.287-0.302-0.446
			c0-0.118,0.048-0.222,0.144-0.312c0.095-0.089,0.21-0.134,0.345-0.134c0.102,0,0.205,0.017,0.312,0.049
			c0.068,0.021,0.226,0.095,0.47,0.223s0.413,0.204,0.507,0.229c0.15,0.044,0.311,0.066,0.481,0.066c0.415,0,0.776-0.16,1.084-0.482
			c0.307-0.321,0.46-0.701,0.46-1.141c0-0.322-0.07-0.635-0.213-0.94c-0.106-0.228-0.222-0.4-0.348-0.519
			c-0.176-0.162-0.416-0.31-0.721-0.442c-0.305-0.132-0.616-0.198-0.934-0.198h-0.195v-0.184c0.321-0.04,0.644-0.156,0.967-0.348
			c0.324-0.191,0.559-0.421,0.705-0.689s0.22-0.563,0.22-0.885c0-0.419-0.131-0.758-0.394-1.017
			c-0.263-0.258-0.589-0.388-0.979-0.388c-0.631,0-1.157,0.338-1.581,1.014L21.861,11.871z"/>
	</g>
	<g>
		<path d="M6.763,26.618l-0.58,1.593H1.3v-0.226c1.437-1.311,2.447-2.381,3.033-3.211s0.879-1.589,0.879-2.276
			c0-0.525-0.161-0.956-0.482-1.294s-0.706-0.507-1.153-0.507c-0.407,0-0.772,0.119-1.096,0.357s-0.562,0.587-0.717,1.047H1.538
			c0.102-0.753,0.362-1.331,0.784-1.733c0.421-0.403,0.946-0.604,1.577-0.604c0.672,0,1.232,0.216,1.682,0.646
			c0.449,0.432,0.675,0.94,0.675,1.526c0,0.419-0.098,0.838-0.293,1.257c-0.302,0.66-0.79,1.357-1.465,2.094
			c-1.014,1.107-1.646,1.774-1.898,2.002h2.161c0.439,0,0.747-0.016,0.924-0.049c0.178-0.032,0.337-0.099,0.479-0.198
			s0.267-0.241,0.372-0.424H6.763z"/>
		<path d="M35.35,26.618l-0.58,1.593h-4.883v-0.226c1.437-1.311,2.447-2.381,3.033-3.211s0.879-1.589,0.879-2.276
			c0-0.525-0.16-0.956-0.481-1.294c-0.322-0.338-0.706-0.507-1.154-0.507c-0.406,0-0.771,0.119-1.096,0.357
			c-0.323,0.238-0.562,0.587-0.717,1.047h-0.226c0.102-0.753,0.363-1.331,0.784-1.733c0.421-0.403,0.947-0.604,1.578-0.604
			c0.671,0,1.231,0.216,1.681,0.646c0.45,0.432,0.675,0.94,0.675,1.526c0,0.419-0.098,0.838-0.293,1.257
			c-0.301,0.66-0.789,1.357-1.465,2.094c-1.014,1.107-1.646,1.774-1.898,2.002h2.161c0.439,0,0.747-0.016,0.925-0.049
			c0.177-0.032,0.336-0.099,0.479-0.198s0.267-0.241,0.373-0.424H35.35z"/>
	</g>
	<g>
		<path d="M11.452,13.939h6.409v0.593h-6.409V13.939z M11.452,16.217h6.409v0.604h-6.409V16.217z"/>
	</g>
</g>
<g id="theGroup">
</g>
</svg>
