<?xml version="1.0" encoding="iso-8859-1"?>
<!-- Generator: Adobe Illustrator 16.0.0, SVG Export Plug-In . SVG Version: 6.00 Build 0)  -->
<!DOCTYPE svg PUBLIC "-//W3C//DTD SVG 1.1//EN" "http://www.w3.org/Graphics/SVG/1.1/DTD/svg11.dtd">
<svg version="1.1" id="Lager_1" xmlns="http://www.w3.org/2000/svg" xmlns:xlink="http://www.w3.org/1999/xlink" x="0px" y="0px"
	 width="40.758px" height="32.626px" viewBox="0 0 40.758 32.626" style="enable-background:new 0 0 40.758 32.626;"
	 xml:space="preserve">
<g>
	
		<line style="fill:none;stroke:#0066FF;stroke-width:0.5;stroke-linecap:square;stroke-miterlimit:10;" x1="0.25" y1="15.845" x2="20.758" y2="15.845"/>
	<g>
		<path style="fill:#0066FF;" d="M13.784,9.407L13.204,11H8.321v-0.226c1.437-1.311,2.447-2.381,3.033-3.211
			s0.879-1.589,0.879-2.276c0-0.525-0.161-0.956-0.482-1.294s-0.706-0.507-1.154-0.507c-0.407,0-0.772,0.119-1.095,0.357
			C9.178,4.082,8.939,4.431,8.785,4.891H8.559C8.661,4.138,8.922,3.56,9.343,3.157c0.421-0.403,0.947-0.604,1.578-0.604
			c0.671,0,1.232,0.216,1.682,0.647c0.449,0.431,0.674,0.94,0.674,1.526c0,0.419-0.098,0.838-0.293,1.257
			c-0.301,0.659-0.79,1.357-1.465,2.093c-1.013,1.107-1.646,1.774-1.898,2.002h2.161c0.439,0,0.748-0.016,0.924-0.049
			c0.177-0.032,0.337-0.098,0.479-0.198c0.143-0.1,0.267-0.241,0.373-0.424H13.784z"/>
		<path style="fill:#0066FF;" d="M16.701,6.831c-0.655-0.537-1.077-0.968-1.266-1.294c-0.189-0.325-0.284-0.663-0.284-1.013
			c0-0.537,0.207-1,0.622-1.389s0.967-0.583,1.654-0.583c0.667,0,1.205,0.181,1.611,0.543c0.407,0.362,0.61,0.775,0.61,1.239
			c0,0.309-0.11,0.625-0.33,0.946c-0.22,0.321-0.677,0.7-1.374,1.135c0.716,0.554,1.19,0.989,1.422,1.307
			c0.309,0.415,0.464,0.852,0.464,1.312c0,0.582-0.222,1.08-0.666,1.492c-0.443,0.413-1.025,0.62-1.745,0.62
			c-0.786,0-1.398-0.246-1.837-0.738c-0.35-0.395-0.525-0.826-0.525-1.294c0-0.366,0.123-0.729,0.369-1.09
			C15.674,7.665,16.099,7.267,16.701,6.831z M16.988,7.063C16.65,7.348,16.4,7.658,16.237,7.994
			c-0.163,0.335-0.244,0.699-0.244,1.089c0,0.525,0.144,0.945,0.431,1.26c0.287,0.315,0.652,0.473,1.096,0.473
			c0.439,0,0.791-0.124,1.056-0.373c0.265-0.248,0.396-0.549,0.396-0.903c0-0.293-0.077-0.555-0.231-0.787
			C18.451,8.323,17.867,7.759,16.988,7.063z M17.659,6.178c0.488-0.439,0.797-0.786,0.928-1.041s0.195-0.542,0.195-0.864
			c0-0.427-0.12-0.762-0.36-1.004c-0.24-0.242-0.568-0.363-0.983-0.363s-0.753,0.12-1.013,0.36c-0.26,0.24-0.391,0.521-0.391,0.843
			c0,0.211,0.054,0.423,0.162,0.635c0.108,0.211,0.262,0.413,0.461,0.604L17.659,6.178z"/>
	</g>
	<g>
		<path style="fill:#0066FF;" d="M35.766,10.888h4.437v0.232l-2.759,8.215H36.76l2.473-7.452h-2.277
			c-0.46,0-0.787,0.055-0.982,0.165c-0.342,0.187-0.616,0.476-0.824,0.867l-0.177-0.067L35.766,10.888z"/>
	</g>
	<g>
		<path style="fill:#0066FF;" d="M18.556,25.741v0.866h-1.11v2.186h-1.007v-2.186h-3.503v-0.781l3.839-5.48h0.672v5.396H18.556z
			 M16.438,25.741v-4.107l-2.905,4.107H16.438z"/>
	</g>
	<g>
		<path style="fill:#0066FF;" d="M1.452,7.484h6.409v0.604H1.452V7.484z"/>
	</g>
	<g>
		<path style="fill:#0066FF;" d="M24.538,14.531h6.409v0.592h-6.409V14.531z M24.538,16.808h6.409v0.604h-6.409V16.808z"/>
	</g>
	<g>
		<path style="fill:#0066FF;" d="M2.78,25.277h6.409v0.604H2.78V25.277z"/>
	</g>
</g>
<g id="theGroup">
</g>
</svg>
