<?xml version="1.0" encoding="iso-8859-1"?>
<!-- Generator: Adobe Illustrator 16.0.0, SVG Export Plug-In . SVG Version: 6.00 Build 0)  -->
<!DOCTYPE svg PUBLIC "-//W3C//DTD SVG 1.1//EN" "http://www.w3.org/Graphics/SVG/1.1/DTD/svg11.dtd">
<svg version="1.1" id="Lager_1" xmlns="http://www.w3.org/2000/svg" xmlns:xlink="http://www.w3.org/1999/xlink" x="0px" y="0px"
	 width="49.785px" height="53.896px" viewBox="0 0 49.785 53.896" style="enable-background:new 0 0 49.785 53.896;"
	 xml:space="preserve">
<g>
	<g>
		<path style="fill:#CC0000;" d="M28.111,21.803c0.136-0.322,0.309-0.571,0.517-0.746s0.468-0.263,0.778-0.263
			c0.383,0,0.678,0.125,0.882,0.374c0.155,0.186,0.233,0.385,0.233,0.597c0,0.348-0.219,0.708-0.656,1.08
			c0.294,0.115,0.516,0.28,0.666,0.494c0.151,0.214,0.227,0.466,0.227,0.755c0,0.414-0.132,0.773-0.396,1.076
			c-0.344,0.396-0.841,0.593-1.492,0.593c-0.322,0-0.542-0.04-0.658-0.12c-0.116-0.08-0.175-0.166-0.175-0.258
			c0-0.068,0.027-0.128,0.083-0.18c0.055-0.052,0.121-0.078,0.199-0.078c0.059,0,0.119,0.009,0.18,0.028
			c0.04,0.012,0.131,0.055,0.271,0.129c0.142,0.074,0.239,0.118,0.293,0.132c0.087,0.026,0.181,0.039,0.279,0.039
			c0.24,0,0.448-0.093,0.626-0.279c0.178-0.186,0.267-0.406,0.267-0.66c0-0.186-0.041-0.367-0.123-0.543
			c-0.062-0.132-0.129-0.232-0.201-0.3c-0.102-0.094-0.24-0.179-0.417-0.256c-0.176-0.076-0.356-0.114-0.54-0.114h-0.112v-0.106
			c0.186-0.023,0.372-0.091,0.559-0.201c0.188-0.111,0.323-0.244,0.408-0.399c0.084-0.155,0.127-0.326,0.127-0.512
			c0-0.242-0.076-0.438-0.228-0.587c-0.152-0.149-0.341-0.224-0.566-0.224c-0.365,0-0.669,0.195-0.914,0.586L28.111,21.803z"/>
	</g>
	<g>
		<path style="fill:#0066FF;" d="M5.731,9.407L5.151,11H0.269v-0.226c1.437-1.311,2.447-2.381,3.033-3.211s0.879-1.589,0.879-2.276
			c0-0.525-0.161-0.956-0.482-1.294S2.993,3.486,2.545,3.486c-0.407,0-0.772,0.119-1.095,0.357C1.126,4.082,0.887,4.431,0.732,4.891
			H0.507C0.608,4.138,0.87,3.56,1.291,3.157c0.421-0.403,0.947-0.604,1.578-0.604c0.671,0,1.232,0.216,1.682,0.647
			C5,3.631,5.225,4.14,5.225,4.726c0,0.419-0.098,0.838-0.293,1.257C4.63,6.642,4.142,7.34,3.467,8.076
			c-1.013,1.107-1.646,1.774-1.898,2.002h2.161c0.439,0,0.748-0.016,0.924-0.049c0.177-0.032,0.337-0.098,0.479-0.198
			c0.143-0.1,0.267-0.241,0.373-0.424H5.731z"/>
		<path style="fill:#0066FF;" d="M21.639,2.321v7.416c0,0.35,0.025,0.582,0.076,0.696c0.051,0.114,0.129,0.2,0.235,0.259
			s0.303,0.088,0.592,0.088V11h-2.741v-0.22c0.256,0,0.431-0.026,0.525-0.079c0.094-0.053,0.167-0.141,0.22-0.263
			s0.079-0.356,0.079-0.702V4.658c0-0.63-0.014-1.018-0.042-1.163c-0.028-0.144-0.074-0.243-0.137-0.296
			c-0.063-0.053-0.144-0.08-0.241-0.08c-0.106,0-0.24,0.033-0.403,0.098l-0.104-0.213l1.667-0.684H21.639z"/>
	</g>
	<g>
		<path style="fill:#0066FF;" d="M5.731,29.72l-0.58,1.593H0.269v-0.226c1.437-1.311,2.447-2.381,3.033-3.211
			s0.879-1.589,0.879-2.276c0-0.525-0.161-0.956-0.482-1.294s-0.706-0.507-1.154-0.507c-0.407,0-0.772,0.119-1.095,0.357
			c-0.324,0.238-0.562,0.587-0.717,1.047H0.507c0.102-0.753,0.363-1.331,0.784-1.733c0.421-0.403,0.947-0.604,1.578-0.604
			c0.671,0,1.232,0.216,1.682,0.647c0.449,0.431,0.674,0.94,0.674,1.526c0,0.419-0.098,0.838-0.293,1.257
			c-0.301,0.659-0.79,1.357-1.465,2.093c-1.013,1.107-1.646,1.774-1.898,2.002h2.161c0.439,0,0.748-0.016,0.924-0.049
			c0.177-0.032,0.337-0.099,0.479-0.198c0.143-0.1,0.267-0.241,0.373-0.424H5.731z"/>
		<path style="fill:#0066FF;" d="M38.601,22.633v7.416c0,0.351,0.025,0.582,0.076,0.696c0.051,0.113,0.129,0.2,0.235,0.259
			c0.105,0.06,0.303,0.089,0.592,0.089v0.22h-2.74v-0.22c0.256,0,0.431-0.026,0.524-0.079s0.167-0.141,0.22-0.263
			s0.079-0.356,0.079-0.702v-5.078c0-0.63-0.014-1.018-0.042-1.163c-0.029-0.144-0.075-0.243-0.138-0.296
			c-0.063-0.053-0.144-0.08-0.241-0.08c-0.105,0-0.24,0.033-0.402,0.098l-0.104-0.213l1.667-0.684H38.601z"/>
		<path style="fill:#0066FF;" d="M42.961,25.923h6.586v0.501h-6.586V25.923z M42.961,27.913h6.586v0.5h-6.586V27.913z"/>
	</g>
	<g>
		<path style="fill:#0066FF;" d="M0.226,44.673h6.586v0.501H0.226V44.673z M0.226,46.663h6.586v0.5H0.226V46.663z"/>
		<path style="fill:#0066FF;" d="M10.614,45.973c0-0.943,0.143-1.756,0.427-2.438s0.663-1.189,1.135-1.523
			c0.366-0.265,0.745-0.396,1.135-0.396c0.635,0,1.205,0.323,1.709,0.971c0.631,0.802,0.946,1.888,0.946,3.259
			c0,0.961-0.139,1.776-0.415,2.448c-0.277,0.671-0.63,1.158-1.059,1.461c-0.43,0.304-0.843,0.455-1.242,0.455
			c-0.79,0-1.447-0.466-1.971-1.397C10.835,48.026,10.614,47.08,10.614,45.973z M11.81,46.126c0,1.139,0.14,2.069,0.421,2.789
			c0.231,0.606,0.578,0.909,1.037,0.909c0.22,0,0.448-0.099,0.684-0.296c0.236-0.197,0.415-0.528,0.537-0.991
			c0.188-0.7,0.281-1.688,0.281-2.961c0-0.943-0.098-1.731-0.293-2.361c-0.146-0.469-0.336-0.8-0.568-0.995
			c-0.167-0.135-0.368-0.202-0.604-0.202c-0.277,0-0.523,0.125-0.739,0.373c-0.293,0.338-0.492,0.868-0.598,1.593
			S11.81,45.422,11.81,46.126z"/>
		<path style="fill:#0066FF;" d="M17.083,52.144v-0.269c0.419-0.138,0.744-0.353,0.974-0.644c0.229-0.291,0.345-0.6,0.345-0.925
			c0-0.077-0.018-0.143-0.055-0.195c-0.028-0.037-0.057-0.055-0.085-0.055c-0.045,0-0.143,0.04-0.293,0.122
			c-0.073,0.036-0.151,0.055-0.232,0.055c-0.199,0-0.358-0.059-0.476-0.177c-0.118-0.118-0.177-0.281-0.177-0.488
			c0-0.199,0.076-0.37,0.229-0.513c0.152-0.143,0.339-0.214,0.559-0.214c0.269,0,0.507,0.117,0.717,0.351
			c0.209,0.234,0.314,0.545,0.314,0.931c0,0.42-0.146,0.81-0.437,1.169C18.175,51.652,17.714,51.937,17.083,52.144z"/>
	</g>
	<g>
		<path style="fill:#CC0000;" d="M11.816,6.435c0.407-0.407,0.647-0.641,0.72-0.702c0.183-0.154,0.38-0.274,0.592-0.36
			c0.211-0.085,0.421-0.128,0.628-0.128c0.35,0,0.651,0.102,0.903,0.306c0.252,0.203,0.421,0.498,0.506,0.885
			c0.419-0.488,0.773-0.809,1.062-0.961c0.289-0.152,0.586-0.229,0.891-0.229c0.297,0,0.561,0.077,0.791,0.229
			c0.23,0.153,0.412,0.402,0.546,0.748c0.089,0.236,0.134,0.606,0.134,1.111v2.404c0,0.35,0.026,0.59,0.08,0.721
			c0.041,0.089,0.116,0.166,0.226,0.229c0.11,0.063,0.289,0.095,0.537,0.095V11h-2.759v-0.22h0.116c0.24,0,0.427-0.047,0.562-0.141
			c0.093-0.065,0.161-0.168,0.201-0.311c0.016-0.069,0.024-0.267,0.024-0.592V7.332c0-0.456-0.055-0.777-0.165-0.965
			C17.255,6.107,17,5.977,16.65,5.977c-0.216,0-0.433,0.054-0.65,0.162c-0.218,0.108-0.481,0.308-0.791,0.601l-0.012,0.067
			l0.012,0.263v2.667c0,0.383,0.021,0.621,0.064,0.714c0.043,0.094,0.123,0.172,0.241,0.235c0.118,0.063,0.319,0.095,0.604,0.095V11
			h-2.826v-0.22c0.309,0,0.522-0.037,0.638-0.11c0.116-0.073,0.196-0.183,0.241-0.33c0.021-0.069,0.031-0.271,0.031-0.604V7.332
			c0-0.456-0.067-0.784-0.202-0.983c-0.179-0.26-0.429-0.391-0.75-0.391c-0.22,0-0.438,0.059-0.653,0.177
			C12.26,6.314,12,6.516,11.816,6.74v2.997c0,0.366,0.025,0.604,0.076,0.714s0.126,0.192,0.226,0.247
			c0.1,0.055,0.302,0.083,0.607,0.083V11H9.961v-0.22c0.256,0,0.436-0.027,0.537-0.083c0.102-0.055,0.179-0.142,0.232-0.262
			s0.08-0.353,0.08-0.699V7.601c0-0.615-0.019-1.011-0.055-1.19c-0.028-0.134-0.073-0.227-0.134-0.278
			c-0.061-0.051-0.145-0.076-0.25-0.076c-0.114,0-0.25,0.031-0.409,0.091l-0.092-0.22l1.685-0.684h0.263V6.435z"/>
	</g>
	<g>
		<path style="fill:#0066FF;" d="M19.983,45.973c0-0.943,0.143-1.756,0.427-2.438s0.663-1.189,1.135-1.523
			c0.366-0.265,0.745-0.396,1.135-0.396c0.635,0,1.205,0.323,1.709,0.971c0.631,0.802,0.946,1.888,0.946,3.259
			c0,0.961-0.139,1.776-0.415,2.448c-0.277,0.671-0.63,1.158-1.059,1.461c-0.43,0.304-0.843,0.455-1.242,0.455
			c-0.79,0-1.447-0.466-1.971-1.397C20.205,48.026,19.983,47.08,19.983,45.973z M21.179,46.126c0,1.139,0.14,2.069,0.421,2.789
			c0.231,0.606,0.578,0.909,1.037,0.909c0.22,0,0.448-0.099,0.684-0.296c0.236-0.197,0.415-0.528,0.537-0.991
			c0.188-0.7,0.281-1.688,0.281-2.961c0-0.943-0.098-1.731-0.293-2.361c-0.146-0.469-0.336-0.8-0.568-0.995
			c-0.167-0.135-0.368-0.202-0.604-0.202c-0.277,0-0.523,0.125-0.739,0.373c-0.293,0.338-0.492,0.868-0.598,1.593
			S21.179,45.422,21.179,46.126z"/>
	</g>
	<g>
		<path style="fill:#CC0000;" d="M12.363,23.848l2.014-0.982h0.202v6.988c0,0.464,0.019,0.753,0.058,0.867
			c0.039,0.113,0.119,0.201,0.241,0.262c0.122,0.062,0.37,0.096,0.745,0.104v0.226H12.51v-0.226
			c0.391-0.009,0.643-0.042,0.757-0.101c0.114-0.06,0.193-0.139,0.238-0.238c0.044-0.1,0.067-0.397,0.067-0.895v-4.468
			c0-0.602-0.021-0.988-0.061-1.159c-0.028-0.13-0.081-0.226-0.156-0.287s-0.166-0.092-0.271-0.092c-0.15,0-0.36,0.063-0.628,0.189
			L12.363,23.848z"/>
		<path style="fill:#CC0000;" d="M17.6,27.223c0-0.944,0.143-1.757,0.427-2.438c0.285-0.681,0.663-1.189,1.135-1.523
			c0.366-0.264,0.745-0.396,1.135-0.396c0.635,0,1.205,0.323,1.709,0.971c0.631,0.801,0.946,1.888,0.946,3.259
			c0,0.96-0.139,1.776-0.415,2.448c-0.277,0.671-0.63,1.158-1.059,1.461c-0.43,0.304-0.843,0.455-1.242,0.455
			c-0.79,0-1.447-0.466-1.971-1.397C17.822,29.276,17.6,28.33,17.6,27.223z M18.796,27.376c0,1.139,0.14,2.069,0.421,2.789
			c0.231,0.606,0.578,0.909,1.037,0.909c0.22,0,0.448-0.099,0.684-0.296c0.236-0.197,0.415-0.528,0.537-0.991
			c0.188-0.7,0.281-1.688,0.281-2.961c0-0.944-0.098-1.731-0.293-2.362c-0.146-0.468-0.336-0.799-0.568-0.995
			c-0.167-0.135-0.368-0.202-0.604-0.202c-0.277,0-0.523,0.124-0.739,0.373c-0.293,0.337-0.492,0.869-0.598,1.593
			S18.796,26.672,18.796,27.376z"/>
	</g>
	<g>
		<path style="fill:#0066FF;" d="M26.233,45.973c0-0.943,0.143-1.756,0.427-2.438c0.285-0.682,0.663-1.189,1.135-1.523
			c0.367-0.265,0.745-0.396,1.136-0.396c0.635,0,1.204,0.323,1.709,0.971c0.631,0.802,0.946,1.888,0.946,3.259
			c0,0.961-0.139,1.776-0.415,2.448c-0.277,0.671-0.63,1.158-1.06,1.461c-0.429,0.304-0.843,0.455-1.242,0.455
			c-0.789,0-1.446-0.466-1.971-1.397C26.454,48.026,26.233,47.08,26.233,45.973z M27.43,46.126c0,1.139,0.14,2.069,0.421,2.789
			c0.231,0.606,0.577,0.909,1.037,0.909c0.22,0,0.448-0.099,0.684-0.296c0.236-0.197,0.415-0.528,0.537-0.991
			c0.188-0.7,0.281-1.688,0.281-2.961c0-0.943-0.098-1.731-0.293-2.361c-0.146-0.469-0.336-0.8-0.567-0.995
			c-0.167-0.135-0.369-0.202-0.604-0.202c-0.277,0-0.523,0.125-0.739,0.373c-0.293,0.338-0.492,0.868-0.598,1.593
			S27.43,45.422,27.43,46.126z"/>
		<path style="fill:#0066FF;" d="M37.763,48.47l-0.58,1.593H32.3v-0.226c1.437-1.311,2.447-2.381,3.033-3.211
			s0.879-1.589,0.879-2.276c0-0.525-0.16-0.956-0.481-1.294c-0.322-0.338-0.706-0.507-1.154-0.507c-0.406,0-0.771,0.119-1.096,0.357
			c-0.323,0.238-0.562,0.587-0.717,1.047h-0.226c0.102-0.753,0.363-1.331,0.784-1.733c0.421-0.403,0.947-0.604,1.578-0.604
			c0.671,0,1.231,0.216,1.681,0.646c0.45,0.432,0.675,0.94,0.675,1.526c0,0.419-0.098,0.838-0.293,1.257
			c-0.301,0.66-0.789,1.357-1.465,2.094c-1.014,1.107-1.646,1.774-1.898,2.002h2.161c0.439,0,0.747-0.016,0.925-0.049
			c0.177-0.032,0.336-0.099,0.479-0.198s0.267-0.241,0.373-0.424H37.763z"/>
		<path style="fill:#0066FF;" d="M43.72,41.383v7.416c0,0.351,0.025,0.582,0.076,0.696c0.051,0.113,0.129,0.2,0.235,0.259
			c0.105,0.06,0.303,0.089,0.592,0.089v0.22h-2.74v-0.22c0.256,0,0.431-0.026,0.524-0.079s0.167-0.141,0.22-0.263
			s0.079-0.356,0.079-0.702v-5.078c0-0.631-0.014-1.018-0.042-1.162c-0.029-0.145-0.075-0.243-0.138-0.297
			c-0.063-0.053-0.144-0.079-0.241-0.079c-0.105,0-0.24,0.033-0.402,0.098l-0.104-0.214l1.667-0.684H43.72z"/>
	</g>
	<g>
		<path style="fill:#CC0000;" d="M23.929,23.646h3.706v0.349h-3.706V23.646z"/>
	</g>
	<g>
		<path style="fill:#0066FF;" d="M26.056,6.367h6.409v0.592h-6.409V6.367z M26.056,8.644h6.409v0.604h-6.409V8.644z"/>
	</g>
	<g>
		<path style="fill:#0066FF;" d="M9.744,28.114c0,0.187-0.066,0.347-0.198,0.479c-0.132,0.132-0.29,0.198-0.473,0.198
			c-0.187,0-0.347-0.066-0.479-0.198c-0.132-0.133-0.199-0.293-0.199-0.479s0.066-0.347,0.199-0.479
			c0.132-0.132,0.292-0.198,0.479-0.198c0.183,0,0.341,0.066,0.473,0.198C9.677,27.768,9.744,27.928,9.744,28.114z"/>
	</g>
</g>
<g id="theGroup">
</g>
</svg>
