<?xml version="1.0" encoding="iso-8859-1"?>
<!-- Generator: Adobe Illustrator 16.0.0, SVG Export Plug-In . SVG Version: 6.00 Build 0)  -->
<!DOCTYPE svg PUBLIC "-//W3C//DTD SVG 1.1//EN" "http://www.w3.org/Graphics/SVG/1.1/DTD/svg11.dtd">
<svg version="1.1" id="Lager_1" xmlns="http://www.w3.org/2000/svg" xmlns:xlink="http://www.w3.org/1999/xlink" x="0px" y="0px"
	 width="208.304px" height="16.458px" viewBox="0 0 208.304 16.458" style="enable-background:new 0 0 208.304 16.458;"
	 xml:space="preserve">
<g>
	<g>
		<path style="fill:#0066FF;" d="M13.208,11.264v2.125c0,0.301,0.033,0.491,0.099,0.571c0.087,0.104,0.204,0.155,0.349,0.155h0.293
			v0.127h-1.93v-0.127h0.145c0.094,0,0.18-0.023,0.257-0.07c0.078-0.048,0.131-0.111,0.161-0.19c0.029-0.08,0.044-0.235,0.044-0.466
			v-2.125h-0.628V11.01h0.628v-0.212c0-0.322,0.052-0.595,0.155-0.818s0.262-0.404,0.475-0.541c0.213-0.138,0.452-0.207,0.718-0.207
			c0.247,0,0.474,0.08,0.681,0.24c0.137,0.105,0.205,0.225,0.205,0.356c0,0.07-0.031,0.137-0.092,0.199
			c-0.062,0.062-0.127,0.094-0.198,0.094c-0.054,0-0.111-0.02-0.171-0.059c-0.06-0.039-0.134-0.122-0.221-0.25
			c-0.087-0.129-0.167-0.215-0.24-0.26c-0.073-0.045-0.154-0.067-0.244-0.067c-0.108,0-0.2,0.029-0.275,0.087
			S13.29,9.719,13.257,9.84c-0.033,0.122-0.049,0.434-0.049,0.938v0.232h0.833v0.254H13.208z"/>
		<path style="fill:#0066FF;" d="M14.836,12.228c-0.002,0.479,0.114,0.856,0.35,1.129c0.235,0.273,0.512,0.409,0.829,0.409
			c0.212,0,0.396-0.058,0.552-0.175c0.156-0.116,0.288-0.315,0.394-0.598l0.109,0.07c-0.049,0.322-0.193,0.616-0.431,0.881
			c-0.237,0.265-0.535,0.396-0.893,0.396c-0.388,0-0.721-0.151-0.997-0.453c-0.276-0.303-0.415-0.709-0.415-1.22
			c0-0.553,0.142-0.983,0.425-1.293s0.639-0.464,1.067-0.464c0.362,0,0.66,0.119,0.893,0.358c0.233,0.238,0.35,0.558,0.35,0.958
			H14.836z M14.836,12.022h1.496c-0.012-0.207-0.036-0.353-0.074-0.438c-0.059-0.132-0.146-0.235-0.263-0.311
			c-0.116-0.075-0.238-0.112-0.365-0.112c-0.195,0-0.37,0.075-0.524,0.228C14.953,11.541,14.862,11.752,14.836,12.022z"/>
		<path style="fill:#0066FF;" d="M18.381,11.603c0.235-0.235,0.374-0.37,0.417-0.405c0.106-0.09,0.22-0.159,0.342-0.208
			c0.122-0.05,0.243-0.074,0.363-0.074c0.202,0,0.376,0.059,0.522,0.176c0.146,0.118,0.243,0.288,0.293,0.512
			c0.242-0.282,0.447-0.467,0.614-0.556c0.167-0.088,0.339-0.132,0.515-0.132c0.172,0,0.324,0.044,0.457,0.132
			c0.133,0.089,0.238,0.232,0.316,0.433c0.052,0.137,0.078,0.351,0.078,0.642v1.391c0,0.202,0.015,0.341,0.046,0.416
			c0.023,0.052,0.067,0.097,0.13,0.133s0.167,0.055,0.311,0.055v0.127h-1.595v-0.127h0.067c0.139,0,0.247-0.027,0.325-0.081
			c0.054-0.038,0.093-0.098,0.116-0.18c0.009-0.04,0.014-0.154,0.014-0.343v-1.391c0-0.263-0.032-0.449-0.095-0.557
			c-0.092-0.151-0.239-0.227-0.441-0.227c-0.125,0-0.25,0.031-0.376,0.094s-0.278,0.178-0.457,0.348l-0.007,0.039l0.007,0.151v1.542
			c0,0.222,0.012,0.358,0.037,0.413c0.025,0.054,0.071,0.1,0.139,0.136c0.068,0.036,0.185,0.055,0.35,0.055v0.127h-1.634v-0.127
			c0.179,0,0.302-0.021,0.369-0.063s0.114-0.106,0.14-0.19c0.012-0.04,0.018-0.156,0.018-0.35v-1.391
			c0-0.263-0.039-0.452-0.117-0.567c-0.104-0.15-0.248-0.227-0.434-0.227c-0.127,0-0.253,0.034-0.377,0.103
			c-0.195,0.104-0.346,0.22-0.452,0.35v1.732c0,0.212,0.015,0.35,0.044,0.413c0.03,0.063,0.073,0.111,0.131,0.143
			c0.058,0.032,0.175,0.048,0.351,0.048v0.127h-1.599v-0.127c0.148,0,0.252-0.016,0.311-0.048c0.059-0.031,0.104-0.082,0.134-0.151
			c0.03-0.069,0.046-0.204,0.046-0.404v-1.235c0-0.354-0.011-0.584-0.032-0.688c-0.017-0.078-0.042-0.131-0.078-0.161
			c-0.036-0.029-0.083-0.044-0.145-0.044c-0.066,0-0.145,0.018-0.236,0.053l-0.053-0.127l0.974-0.395h0.152V11.603z"/>
	</g>
	<g>
		<path style="fill:#0066FF;" d="M50.271,5.849v3.675c0,0.521,0.057,0.85,0.171,0.988c0.15,0.179,0.352,0.269,0.604,0.269h0.507V11
			h-3.339v-0.22h0.25c0.163,0,0.311-0.041,0.446-0.122c0.134-0.081,0.227-0.191,0.277-0.33c0.051-0.138,0.076-0.406,0.076-0.805
			V5.849h-1.086V5.409h1.086V5.043c0-0.558,0.09-1.029,0.269-1.416c0.179-0.387,0.453-0.699,0.821-0.937
			c0.368-0.238,0.782-0.357,1.242-0.357c0.427,0,0.82,0.138,1.178,0.415c0.236,0.183,0.354,0.389,0.354,0.616
			c0,0.122-0.053,0.237-0.159,0.345s-0.22,0.162-0.342,0.162c-0.094,0-0.192-0.034-0.296-0.101
			c-0.104-0.067-0.231-0.211-0.382-0.434c-0.15-0.222-0.289-0.371-0.415-0.448c-0.126-0.078-0.266-0.116-0.421-0.116
			c-0.187,0-0.346,0.05-0.476,0.149c-0.13,0.1-0.224,0.254-0.281,0.464c-0.057,0.21-0.085,0.75-0.085,1.621v0.403h1.44v0.439H50.271
			z"/>
		<path style="fill:#0066FF;" d="M53.139,7.515c-0.004,0.83,0.197,1.481,0.604,1.953c0.407,0.473,0.885,0.708,1.435,0.708
			c0.366,0,0.685-0.101,0.955-0.302s0.498-0.546,0.681-1.034l0.189,0.121c-0.086,0.558-0.334,1.065-0.745,1.523
			c-0.411,0.458-0.925,0.687-1.544,0.687c-0.671,0-1.246-0.262-1.724-0.784c-0.479-0.522-0.717-1.226-0.717-2.109
			c0-0.956,0.245-1.702,0.735-2.237s1.106-0.803,1.847-0.803c0.626,0,1.141,0.207,1.544,0.62s0.604,0.965,0.604,1.657H53.139z
			 M53.139,7.161h2.588c-0.021-0.358-0.063-0.61-0.128-0.757c-0.102-0.228-0.253-0.407-0.455-0.537
			c-0.201-0.13-0.412-0.195-0.631-0.195c-0.338,0-0.64,0.131-0.907,0.394C53.339,6.328,53.184,6.693,53.139,7.161z"/>
		<path style="fill:#0066FF;" d="M59.332,6.435c0.407-0.407,0.647-0.641,0.72-0.702c0.183-0.154,0.38-0.274,0.592-0.36
			c0.211-0.085,0.421-0.128,0.628-0.128c0.35,0,0.651,0.102,0.903,0.306c0.252,0.203,0.421,0.498,0.506,0.885
			c0.419-0.488,0.773-0.809,1.062-0.961c0.289-0.152,0.586-0.229,0.891-0.229c0.297,0,0.561,0.077,0.791,0.229
			c0.23,0.153,0.412,0.402,0.546,0.748c0.089,0.236,0.134,0.606,0.134,1.111v2.404c0,0.351,0.026,0.59,0.08,0.721
			c0.041,0.089,0.116,0.166,0.226,0.229c0.11,0.063,0.289,0.095,0.537,0.095V11H64.19v-0.22h0.116c0.24,0,0.427-0.047,0.562-0.141
			c0.093-0.064,0.161-0.169,0.201-0.312c0.016-0.068,0.024-0.266,0.024-0.592V7.332c0-0.456-0.055-0.777-0.165-0.965
			c-0.158-0.26-0.413-0.391-0.763-0.391c-0.216,0-0.433,0.054-0.65,0.162c-0.218,0.108-0.481,0.308-0.791,0.601l-0.012,0.067
			l0.012,0.263v2.667c0,0.383,0.021,0.621,0.064,0.715c0.043,0.093,0.123,0.172,0.241,0.234c0.118,0.063,0.319,0.095,0.604,0.095V11
			h-2.826v-0.22c0.309,0,0.522-0.036,0.638-0.11c0.116-0.072,0.196-0.183,0.241-0.329c0.021-0.069,0.031-0.271,0.031-0.604V7.332
			c0-0.456-0.067-0.784-0.202-0.983c-0.179-0.26-0.429-0.391-0.75-0.391c-0.22,0-0.438,0.059-0.653,0.177
			c-0.338,0.179-0.598,0.38-0.781,0.604v2.997c0,0.366,0.025,0.604,0.076,0.715c0.051,0.109,0.126,0.191,0.226,0.247
			c0.1,0.055,0.302,0.082,0.607,0.082V11h-2.765v-0.22c0.256,0,0.436-0.027,0.537-0.082c0.102-0.056,0.179-0.143,0.232-0.263
			s0.08-0.354,0.08-0.699V7.601c0-0.615-0.019-1.011-0.055-1.19c-0.028-0.134-0.073-0.227-0.134-0.278
			c-0.061-0.051-0.145-0.076-0.25-0.076c-0.114,0-0.25,0.031-0.409,0.091l-0.092-0.22l1.685-0.684h0.263V6.435z"/>
		<path style="fill:#0066FF;" d="M68.868,3.572v1.837h1.306v0.427h-1.306v3.625c0,0.362,0.052,0.606,0.156,0.732
			c0.104,0.126,0.237,0.189,0.399,0.189c0.135,0,0.265-0.042,0.391-0.125c0.126-0.084,0.224-0.207,0.293-0.37h0.238
			c-0.143,0.399-0.344,0.699-0.604,0.9c-0.26,0.202-0.529,0.303-0.806,0.303c-0.187,0-0.37-0.052-0.549-0.156
			c-0.179-0.104-0.312-0.252-0.397-0.445s-0.128-0.491-0.128-0.895V5.836h-0.885V5.635c0.224-0.089,0.453-0.241,0.687-0.455
			c0.234-0.213,0.442-0.467,0.626-0.76c0.093-0.155,0.224-0.438,0.391-0.848H68.868z"/>
		<path style="fill:#0066FF;" d="M73.923,10.194c-0.574,0.443-0.934,0.7-1.081,0.769c-0.22,0.103-0.454,0.153-0.702,0.153
			c-0.387,0-0.705-0.133-0.956-0.397c-0.25-0.264-0.375-0.612-0.375-1.043c0-0.272,0.062-0.509,0.184-0.708
			c0.167-0.276,0.457-0.537,0.87-0.781c0.413-0.244,1.1-0.542,2.06-0.892v-0.22c0-0.557-0.089-0.939-0.266-1.147
			c-0.177-0.207-0.435-0.311-0.772-0.311c-0.256,0-0.459,0.069-0.61,0.208C72.12,5.962,72.043,6.121,72.043,6.3l0.012,0.354
			c0,0.187-0.048,0.332-0.143,0.434c-0.096,0.102-0.221,0.152-0.375,0.152c-0.15,0-0.274-0.053-0.369-0.159
			c-0.096-0.106-0.144-0.25-0.144-0.433c0-0.35,0.179-0.672,0.537-0.965s0.86-0.439,1.508-0.439c0.496,0,0.903,0.083,1.221,0.25
			c0.24,0.126,0.417,0.324,0.531,0.592c0.073,0.175,0.11,0.533,0.11,1.074v1.897c0,0.533,0.01,0.86,0.03,0.98
			c0.021,0.12,0.054,0.2,0.101,0.24c0.046,0.041,0.101,0.062,0.162,0.062c0.065,0,0.122-0.015,0.171-0.043
			c0.085-0.053,0.25-0.201,0.494-0.445v0.342c-0.456,0.61-0.891,0.915-1.306,0.915c-0.2,0-0.358-0.068-0.477-0.207
			C73.988,10.764,73.927,10.528,73.923,10.194z M73.923,9.798v-2.13c-0.615,0.244-1.011,0.417-1.19,0.519
			c-0.321,0.179-0.551,0.366-0.689,0.562c-0.139,0.195-0.208,0.408-0.208,0.641c0,0.293,0.088,0.536,0.263,0.729
			s0.376,0.29,0.604,0.29C73.011,10.408,73.418,10.204,73.923,9.798z"/>
		<path style="fill:#0066FF;" d="M78.151,2.321v7.416c0,0.351,0.025,0.582,0.076,0.696c0.051,0.113,0.129,0.2,0.235,0.259
			c0.106,0.06,0.303,0.089,0.592,0.089V11h-2.741v-0.22c0.256,0,0.431-0.026,0.525-0.079s0.167-0.141,0.22-0.263
			s0.079-0.356,0.079-0.702V4.658c0-0.63-0.014-1.018-0.042-1.163c-0.028-0.144-0.074-0.243-0.137-0.296
			c-0.063-0.053-0.144-0.08-0.241-0.08c-0.106,0-0.24,0.033-0.403,0.098l-0.104-0.213l1.667-0.684H78.151z"/>
		<path style="fill:#0066FF;" d="M85.41,5.244c0.846,0,1.526,0.322,2.039,0.965c0.436,0.549,0.653,1.18,0.653,1.892
			c0,0.501-0.12,1.007-0.36,1.521c-0.24,0.512-0.571,0.898-0.992,1.159c-0.421,0.261-0.89,0.391-1.407,0.391
			c-0.842,0-1.511-0.336-2.008-1.007c-0.419-0.565-0.629-1.201-0.629-1.904c0-0.513,0.127-1.022,0.382-1.529
			c0.254-0.506,0.589-0.881,1.004-1.123C84.507,5.366,84.946,5.244,85.41,5.244z M85.221,5.641c-0.215,0-0.432,0.064-0.65,0.192
			c-0.218,0.128-0.394,0.353-0.528,0.674s-0.201,0.734-0.201,1.239c0,0.813,0.162,1.516,0.485,2.105
			c0.324,0.59,0.75,0.885,1.279,0.885c0.395,0,0.72-0.162,0.977-0.488c0.256-0.325,0.385-0.885,0.385-1.678
			c0-0.993-0.214-1.774-0.641-2.344C86.037,5.836,85.668,5.641,85.221,5.641z"/>
		<path style="fill:#0066FF;" d="M93.674,8.876c-0.15,0.736-0.446,1.303-0.885,1.7c-0.439,0.396-0.925,0.595-1.458,0.595
			c-0.635,0-1.188-0.267-1.66-0.8s-0.708-1.253-0.708-2.16c0-0.879,0.261-1.593,0.784-2.143s1.151-0.824,1.883-0.824
			c0.549,0,1.001,0.146,1.354,0.437c0.354,0.291,0.531,0.593,0.531,0.906c0,0.155-0.05,0.28-0.149,0.375
			c-0.1,0.096-0.239,0.144-0.418,0.144c-0.24,0-0.421-0.077-0.543-0.232c-0.069-0.085-0.115-0.248-0.137-0.488
			c-0.022-0.24-0.105-0.423-0.247-0.549c-0.143-0.122-0.34-0.183-0.592-0.183c-0.407,0-0.734,0.15-0.983,0.452
			c-0.329,0.399-0.494,0.926-0.494,1.581c0,0.667,0.164,1.257,0.491,1.768s0.77,0.766,1.328,0.766c0.399,0,0.757-0.137,1.074-0.409
			c0.224-0.187,0.441-0.526,0.653-1.019L93.674,8.876z"/>
		<path style="fill:#0066FF;" d="M96.041,2.321V6.41c0.452-0.497,0.81-0.815,1.074-0.955c0.265-0.141,0.529-0.211,0.794-0.211
			c0.317,0,0.59,0.088,0.817,0.263c0.228,0.175,0.397,0.45,0.507,0.824c0.077,0.26,0.116,0.736,0.116,1.428v1.978
			c0,0.354,0.028,0.597,0.085,0.727c0.041,0.098,0.11,0.175,0.208,0.232c0.098,0.057,0.276,0.085,0.537,0.085V11h-2.747v-0.22h0.128
			c0.26,0,0.441-0.04,0.543-0.119c0.102-0.079,0.173-0.196,0.213-0.351c0.012-0.065,0.018-0.257,0.018-0.574V7.759
			c0-0.61-0.031-1.011-0.094-1.202c-0.063-0.191-0.164-0.334-0.302-0.43s-0.305-0.144-0.5-0.144c-0.199,0-0.407,0.053-0.623,0.159
			s-0.474,0.319-0.775,0.641v2.954c0,0.383,0.021,0.621,0.064,0.715c0.042,0.093,0.122,0.172,0.238,0.234
			c0.116,0.063,0.316,0.095,0.601,0.095V11h-2.771v-0.22c0.248,0,0.443-0.039,0.586-0.116c0.081-0.04,0.146-0.118,0.195-0.231
			c0.049-0.114,0.073-0.346,0.073-0.696v-5.06c0-0.639-0.016-1.031-0.046-1.178c-0.031-0.146-0.078-0.247-0.141-0.299
			s-0.147-0.08-0.253-0.08c-0.086,0-0.224,0.033-0.415,0.098l-0.086-0.213l1.673-0.684H96.041z"/>
		<path style="fill:#0066FF;" d="M112.913,7.515c-0.004,0.83,0.198,1.481,0.604,1.953c0.407,0.473,0.886,0.708,1.435,0.708
			c0.366,0,0.685-0.101,0.955-0.302s0.498-0.546,0.681-1.034l0.189,0.121c-0.086,0.558-0.334,1.065-0.745,1.523
			s-0.926,0.687-1.544,0.687c-0.671,0-1.246-0.262-1.725-0.784c-0.478-0.522-0.717-1.226-0.717-2.109
			c0-0.956,0.245-1.702,0.735-2.237s1.105-0.803,1.847-0.803c0.626,0,1.142,0.207,1.544,0.62s0.604,0.965,0.604,1.657H112.913z
			 M112.913,7.161h2.588c-0.02-0.358-0.062-0.61-0.128-0.757c-0.102-0.228-0.253-0.407-0.454-0.537
			c-0.202-0.13-0.412-0.195-0.632-0.195c-0.338,0-0.641,0.131-0.906,0.394C113.114,6.328,112.958,6.693,112.913,7.161z"/>
		<path style="fill:#0066FF;" d="M119.077,6.429c0.655-0.79,1.279-1.185,1.874-1.185c0.305,0,0.567,0.077,0.787,0.229
			c0.22,0.153,0.395,0.404,0.524,0.754c0.09,0.244,0.135,0.619,0.135,1.123v2.386c0,0.354,0.028,0.595,0.085,0.721
			c0.045,0.102,0.117,0.181,0.217,0.238c0.1,0.057,0.284,0.085,0.553,0.085V11h-2.766v-0.22h0.116c0.261,0,0.442-0.04,0.547-0.119
			c0.104-0.079,0.176-0.196,0.216-0.351c0.017-0.062,0.025-0.253,0.025-0.574V7.448c0-0.509-0.066-0.878-0.199-1.108
			c-0.132-0.229-0.354-0.345-0.668-0.345c-0.484,0-0.967,0.265-1.446,0.793v2.948c0,0.379,0.022,0.612,0.067,0.702
			c0.057,0.118,0.135,0.204,0.234,0.26c0.1,0.055,0.303,0.082,0.607,0.082V11h-2.765v-0.22h0.122c0.284,0,0.477-0.072,0.576-0.217
			s0.15-0.42,0.15-0.827V7.661c0-0.671-0.016-1.08-0.046-1.227c-0.031-0.146-0.078-0.246-0.141-0.299
			c-0.063-0.053-0.147-0.08-0.253-0.08c-0.114,0-0.251,0.031-0.409,0.091l-0.092-0.22l1.685-0.684h0.263V6.429z"/>
		<path style="fill:#0066FF;" d="M125.32,3.572v1.837h1.307v0.427h-1.307v3.625c0,0.362,0.053,0.606,0.156,0.732
			s0.237,0.189,0.399,0.189c0.135,0,0.265-0.042,0.391-0.125c0.126-0.084,0.224-0.207,0.293-0.37h0.238
			c-0.143,0.399-0.344,0.699-0.604,0.9c-0.26,0.202-0.528,0.303-0.806,0.303c-0.187,0-0.37-0.052-0.549-0.156
			c-0.18-0.104-0.312-0.252-0.397-0.445c-0.085-0.193-0.128-0.491-0.128-0.895V5.836h-0.885V5.635
			c0.224-0.089,0.452-0.241,0.687-0.455c0.234-0.213,0.442-0.467,0.626-0.76c0.094-0.155,0.224-0.438,0.391-0.848H125.32z"/>
		<path style="fill:#0066FF;" d="M130.376,10.194c-0.574,0.443-0.934,0.7-1.08,0.769c-0.221,0.103-0.454,0.153-0.702,0.153
			c-0.387,0-0.705-0.133-0.955-0.397c-0.251-0.264-0.376-0.612-0.376-1.043c0-0.272,0.062-0.509,0.184-0.708
			c0.167-0.276,0.456-0.537,0.869-0.781s1.1-0.542,2.061-0.892v-0.22c0-0.557-0.089-0.939-0.266-1.147
			c-0.177-0.207-0.435-0.311-0.772-0.311c-0.256,0-0.46,0.069-0.61,0.208c-0.154,0.138-0.231,0.297-0.231,0.476l0.012,0.354
			c0,0.187-0.048,0.332-0.144,0.434c-0.096,0.102-0.221,0.152-0.375,0.152c-0.15,0-0.273-0.053-0.369-0.159s-0.144-0.25-0.144-0.433
			c0-0.35,0.179-0.672,0.537-0.965s0.86-0.439,1.508-0.439c0.496,0,0.903,0.083,1.221,0.25c0.24,0.126,0.417,0.324,0.53,0.592
			c0.074,0.175,0.11,0.533,0.11,1.074v1.897c0,0.533,0.01,0.86,0.03,0.98s0.054,0.2,0.101,0.24c0.047,0.041,0.101,0.062,0.162,0.062
			c0.065,0,0.122-0.015,0.171-0.043c0.086-0.053,0.25-0.201,0.494-0.445v0.342c-0.455,0.61-0.891,0.915-1.306,0.915
			c-0.199,0-0.358-0.068-0.477-0.207S130.38,10.528,130.376,10.194z M130.376,9.798v-2.13c-0.614,0.244-1.012,0.417-1.19,0.519
			c-0.321,0.179-0.552,0.366-0.689,0.562c-0.139,0.195-0.208,0.408-0.208,0.641c0,0.293,0.088,0.536,0.263,0.729
			s0.376,0.29,0.604,0.29C129.464,10.408,129.871,10.204,130.376,9.798z"/>
	</g>
	<g>
		<path style="fill:#CC0000;" d="M5.816,7.948v0.866h-1.11V11H3.699V8.814H0.195V8.034l3.839-5.481h0.672v5.396H5.816z M3.699,7.948
			V3.841L0.793,7.948H3.699z"/>
		<path style="fill:#CC0000;" d="M7.715,3.535l2.014-0.982h0.202v6.988c0,0.464,0.019,0.753,0.058,0.867
			c0.039,0.113,0.119,0.201,0.241,0.262c0.122,0.062,0.37,0.096,0.745,0.104V11H7.861v-0.226c0.391-0.009,0.643-0.042,0.757-0.101
			c0.114-0.06,0.193-0.139,0.238-0.238c0.044-0.1,0.067-0.397,0.067-0.895V5.073c0-0.602-0.021-0.988-0.061-1.159
			c-0.028-0.13-0.081-0.226-0.156-0.287S8.541,3.535,8.435,3.535c-0.15,0-0.36,0.063-0.628,0.189L7.715,3.535z"/>
		<path style="fill:#CC0000;" d="M43.741,7.948v0.866h-1.11V11h-1.007V8.814H38.12V8.034l3.839-5.481h0.672v5.396H43.741z
			 M41.624,7.948V3.841l-2.905,4.107H41.624z"/>
		<path style="fill:#CC0000;" d="M104.228,3.535l2.014-0.982h0.202v6.988c0,0.464,0.019,0.753,0.058,0.867
			c0.039,0.113,0.119,0.201,0.241,0.262c0.122,0.062,0.37,0.096,0.745,0.104V11h-3.113v-0.226c0.391-0.009,0.643-0.042,0.757-0.101
			c0.114-0.06,0.193-0.139,0.238-0.238c0.044-0.1,0.067-0.397,0.067-0.895V5.073c0-0.602-0.021-0.988-0.062-1.159
			c-0.028-0.13-0.081-0.226-0.155-0.287c-0.076-0.061-0.166-0.092-0.271-0.092c-0.151,0-0.36,0.063-0.629,0.189L104.228,3.535z"/>
		<path style="fill:#CC0000;" d="M154.941,7.948v0.866h-1.11V11h-1.007V8.814h-3.504V8.034l3.839-5.481h0.672v5.396H154.941z
			 M152.824,7.948V3.841l-2.906,4.107H152.824z"/>
	</g>
	<g>
		<path style="fill:#0066FF;" d="M201.542,9.407L200.962,11h-4.883v-0.226c1.437-1.311,2.447-2.381,3.033-3.211
			s0.879-1.589,0.879-2.276c0-0.525-0.16-0.956-0.481-1.294c-0.322-0.338-0.706-0.507-1.154-0.507c-0.406,0-0.771,0.119-1.096,0.357
			c-0.323,0.238-0.562,0.587-0.717,1.047h-0.226c0.102-0.753,0.363-1.331,0.784-1.733c0.421-0.403,0.947-0.604,1.578-0.604
			c0.671,0,1.231,0.216,1.681,0.647c0.45,0.431,0.675,0.94,0.675,1.526c0,0.419-0.098,0.838-0.293,1.257
			c-0.301,0.659-0.789,1.357-1.465,2.093c-1.014,1.107-1.646,1.774-1.898,2.002h2.161c0.439,0,0.747-0.016,0.925-0.049
			c0.177-0.032,0.336-0.099,0.479-0.198s0.267-0.241,0.373-0.424H201.542z"/>
	</g>
	<g>
		<path style="fill:#CC0000;" d="M178.643,3.535l2.014-0.982h0.202v6.988c0,0.464,0.019,0.753,0.058,0.867
			c0.039,0.113,0.119,0.201,0.241,0.262c0.122,0.062,0.37,0.096,0.745,0.104V11h-3.113v-0.226c0.391-0.009,0.643-0.042,0.757-0.101
			c0.114-0.06,0.193-0.139,0.238-0.238s0.067-0.397,0.067-0.895V5.073c0-0.602-0.021-0.988-0.062-1.159
			c-0.028-0.13-0.08-0.226-0.155-0.287c-0.076-0.061-0.166-0.092-0.271-0.092c-0.151,0-0.36,0.063-0.629,0.189L178.643,3.535z"/>
	</g>
	<g>
		<path style="fill:#0066FF;" d="M134.569,2.321v7.416c0,0.351,0.025,0.582,0.076,0.696c0.051,0.113,0.129,0.2,0.235,0.259
			c0.105,0.06,0.303,0.089,0.592,0.089V11h-2.74v-0.22c0.256,0,0.431-0.026,0.524-0.079s0.167-0.141,0.22-0.263
			s0.079-0.356,0.079-0.702V4.658c0-0.63-0.014-1.018-0.042-1.163c-0.029-0.144-0.075-0.243-0.138-0.296
			c-0.063-0.053-0.144-0.08-0.241-0.08c-0.105,0-0.24,0.033-0.402,0.098l-0.104-0.213l1.667-0.684H134.569z"/>
		<path style="fill:#0066FF;" d="M166.43,2.724l-0.476,1.038h-2.49l-0.544,1.111c1.079,0.159,1.934,0.56,2.564,1.202
			c0.541,0.554,0.812,1.205,0.812,1.953c0,0.436-0.089,0.838-0.266,1.209c-0.177,0.37-0.399,0.686-0.669,0.945
			c-0.268,0.261-0.567,0.471-0.896,0.629c-0.468,0.224-0.948,0.336-1.44,0.336c-0.497,0-0.857-0.085-1.084-0.253
			c-0.226-0.169-0.339-0.355-0.339-0.559c0-0.114,0.047-0.215,0.141-0.303c0.094-0.087,0.212-0.131,0.354-0.131
			c0.105,0,0.198,0.017,0.277,0.049s0.215,0.116,0.406,0.25c0.305,0.212,0.614,0.317,0.928,0.317c0.476,0,0.894-0.18,1.254-0.54
			s0.54-0.799,0.54-1.315c0-0.5-0.16-0.967-0.482-1.4c-0.321-0.434-0.765-0.768-1.33-1.004c-0.443-0.184-1.048-0.289-1.812-0.317
			l1.587-3.217H166.43z"/>
		<path style="fill:#0066FF;" d="M203.519,3.535l2.014-0.982h0.202v6.988c0,0.464,0.019,0.753,0.058,0.867
			c0.039,0.113,0.119,0.201,0.241,0.262c0.122,0.062,0.37,0.096,0.745,0.104V11h-3.113v-0.226c0.391-0.009,0.643-0.042,0.757-0.101
			c0.114-0.06,0.193-0.139,0.238-0.238s0.067-0.397,0.067-0.895V5.073c0-0.602-0.021-0.988-0.062-1.159
			c-0.028-0.13-0.08-0.226-0.155-0.287c-0.076-0.061-0.166-0.092-0.271-0.092c-0.151,0-0.36,0.063-0.629,0.189L203.519,3.535z"/>
	</g>
	<g>
		<path style="fill:#0066FF;" d="M27.755,6.367h6.409v0.592h-6.409V6.367z M27.755,8.644h6.409v0.604h-6.409V8.644z"/>
		<path style="fill:#0066FF;" d="M138.965,6.367h6.409v0.592h-6.409V6.367z M138.965,8.644h6.409v0.604h-6.409V8.644z"/>
		<path style="fill:#0066FF;" d="M158.859,7.802c0,0.187-0.066,0.347-0.199,0.479c-0.132,0.132-0.289,0.199-0.473,0.199
			c-0.188,0-0.347-0.066-0.479-0.199c-0.132-0.132-0.198-0.292-0.198-0.479s0.066-0.347,0.198-0.479
			c0.133-0.132,0.292-0.199,0.479-0.199c0.184,0,0.341,0.066,0.473,0.199C158.793,7.455,158.859,7.615,158.859,7.802z"/>
		<path style="fill:#0066FF;" d="M172.212,4.591h0.599v2.917h2.899v0.592h-2.899V11h-0.599V8.101h-2.911V7.509h2.911V4.591z"/>
		<path style="fill:#0066FF;" d="M185.623,6.367h6.409v0.592h-6.409V6.367z M185.623,8.644h6.409v0.604h-6.409V8.644z"/>
	</g>
</g>
<g id="theGroup">
</g>
</svg>
