<?xml version="1.0" encoding="iso-8859-1"?>
<!-- Generator: Adobe Illustrator 16.0.0, SVG Export Plug-In . SVG Version: 6.00 Build 0)  -->
<!DOCTYPE svg PUBLIC "-//W3C//DTD SVG 1.1//EN" "http://www.w3.org/Graphics/SVG/1.1/DTD/svg11.dtd">
<svg version="1.1" id="Lager_1" xmlns="http://www.w3.org/2000/svg" xmlns:xlink="http://www.w3.org/1999/xlink" x="0px" y="0px"
	 width="43.008px" height="35.762px" viewBox="0 0 43.008 35.762" style="enable-background:new 0 0 43.008 35.762;"
	 xml:space="preserve">
<g>
	<g>
		<path style="fill:#0066FF;" d="M2.051,3.535l2.014-0.982h0.202v6.988c0,0.464,0.019,0.753,0.058,0.867
			c0.039,0.114,0.119,0.201,0.241,0.262s0.37,0.096,0.745,0.104V11H2.197v-0.226c0.391-0.008,0.643-0.042,0.757-0.101
			c0.114-0.059,0.193-0.138,0.238-0.238c0.044-0.1,0.067-0.398,0.067-0.895V5.073c0-0.602-0.021-0.988-0.061-1.159
			C3.17,3.784,3.118,3.688,3.042,3.627S2.877,3.535,2.771,3.535c-0.15,0-0.36,0.063-0.628,0.189L2.051,3.535z"/>
		<path style="fill:#0066FF;" d="M19.458,4.298c0.236-0.558,0.534-0.988,0.894-1.291c0.36-0.303,0.809-0.455,1.346-0.455
			c0.663,0,1.172,0.216,1.525,0.647c0.269,0.321,0.403,0.666,0.403,1.032c0,0.602-0.379,1.225-1.136,1.867
			c0.509,0.2,0.894,0.484,1.154,0.854c0.26,0.371,0.391,0.806,0.391,1.307c0,0.716-0.229,1.336-0.684,1.861
			c-0.595,0.684-1.455,1.025-2.582,1.025c-0.558,0-0.937-0.069-1.139-0.208c-0.201-0.138-0.302-0.287-0.302-0.446
			c0-0.118,0.047-0.222,0.143-0.311s0.21-0.134,0.345-0.134c0.102,0,0.205,0.016,0.311,0.049c0.069,0.021,0.226,0.095,0.47,0.223
			c0.244,0.128,0.413,0.205,0.506,0.229c0.15,0.045,0.311,0.067,0.482,0.067c0.415,0,0.776-0.161,1.083-0.482
			s0.461-0.702,0.461-1.141c0-0.322-0.071-0.635-0.213-0.94c-0.106-0.228-0.222-0.4-0.348-0.519c-0.175-0.163-0.415-0.31-0.72-0.442
			s-0.616-0.198-0.934-0.198h-0.195V6.709c0.321-0.041,0.644-0.156,0.967-0.348c0.323-0.191,0.558-0.421,0.705-0.689
			s0.22-0.564,0.22-0.885c0-0.419-0.131-0.758-0.394-1.016c-0.262-0.258-0.589-0.388-0.979-0.388c-0.631,0-1.158,0.338-1.581,1.013
			L19.458,4.298z"/>
	</g>
	<g>
		<path style="fill:#0066FF;" d="M24.95,28.157l-0.58,1.593h-4.883v-0.226c1.437-1.311,2.447-2.381,3.033-3.211
			s0.879-1.589,0.879-2.276c0-0.525-0.161-0.956-0.482-1.294s-0.706-0.507-1.154-0.507c-0.407,0-0.772,0.119-1.095,0.357
			c-0.324,0.238-0.562,0.587-0.717,1.047h-0.226c0.102-0.753,0.363-1.331,0.784-1.733c0.421-0.403,0.947-0.604,1.578-0.604
			c0.671,0,1.232,0.216,1.681,0.646c0.449,0.432,0.675,0.94,0.675,1.526c0,0.419-0.098,0.838-0.293,1.257
			c-0.302,0.66-0.79,1.357-1.465,2.094c-1.013,1.107-1.646,1.774-1.898,2.002h2.161c0.439,0,0.748-0.016,0.924-0.049
			c0.178-0.032,0.338-0.099,0.479-0.198c0.143-0.1,0.267-0.241,0.373-0.424H24.95z"/>
	</g>
	<g>
		<path style="fill:#0066FF;" d="M36.941,4.463h1.422l1.501,2.301l1.521-2.301l1.336,0.031l-2.203,3.156L42.818,11h-1.403
			l-1.624-2.454L38.217,11h-1.392l2.301-3.351L36.941,4.463z"/>
	</g>
	<g>
		<path style="fill:#0066FF;" d="M0.183,23.213h1.422l1.501,2.301l1.52-2.301l1.336,0.031L3.76,26.399l2.301,3.351H4.657
			l-1.624-2.453L1.459,29.75H0.067l2.301-3.351L0.183,23.213z"/>
	</g>
	<g>
		<path style="fill:#0066FF;" d="M9.044,6.367h6.409v0.592H9.044V6.367z M9.044,8.644h6.409v0.604H9.044V8.644z"/>
		<path style="fill:#0066FF;" d="M27.129,7.484h6.409v0.604h-6.409V7.484z"/>
	</g>
	<g>
		<path style="fill:#0066FF;" d="M9.044,25.117h6.409v0.592H9.044V25.117z M9.044,27.395h6.409v0.604H9.044V27.395z"/>
	</g>
</g>
<g id="theGroup">
</g>
</svg>
