<?xml version="1.0" encoding="iso-8859-1"?>
<!-- Generator: Adobe Illustrator 16.0.0, SVG Export Plug-In . SVG Version: 6.00 Build 0)  -->
<!DOCTYPE svg PUBLIC "-//W3C//DTD SVG 1.1//EN" "http://www.w3.org/Graphics/SVG/1.1/DTD/svg11.dtd">
<svg version="1.1" id="Lager_1" xmlns="http://www.w3.org/2000/svg" xmlns:xlink="http://www.w3.org/1999/xlink" x="0px" y="0px"
	 width="143.548px" height="32.014px" viewBox="0 0 143.548 32.014" style="enable-background:new 0 0 143.548 32.014;"
	 xml:space="preserve">
<g>
	
		<line style="fill:none;stroke:#0066FF;stroke-width:0.5;stroke-linecap:square;stroke-miterlimit:10;" x1="58.672" y1="15.232" x2="85.274" y2="15.232"/>
	<g>
		<path style="fill:#0066FF;" d="M59.551,2.923l2.014-0.982h0.202v6.988c0,0.464,0.019,0.753,0.058,0.867
			c0.039,0.114,0.119,0.201,0.241,0.262s0.37,0.096,0.745,0.104v0.226h-3.113v-0.226c0.391-0.008,0.643-0.042,0.757-0.101
			c0.114-0.059,0.193-0.138,0.238-0.238c0.044-0.1,0.067-0.398,0.067-0.895V4.461c0-0.602-0.021-0.988-0.061-1.159
			c-0.028-0.13-0.081-0.226-0.156-0.287s-0.166-0.092-0.271-0.092c-0.15,0-0.36,0.063-0.628,0.189L59.551,2.923z"/>
		<path style="fill:#0066FF;" d="M66.575,6.299c0-0.944,0.143-1.757,0.427-2.438c0.285-0.681,0.663-1.189,1.135-1.523
			c0.366-0.264,0.745-0.396,1.135-0.396c0.635,0,1.205,0.323,1.709,0.971c0.631,0.801,0.946,1.888,0.946,3.259
			c0,0.96-0.139,1.776-0.415,2.448c-0.277,0.671-0.63,1.159-1.059,1.462c-0.43,0.303-0.843,0.455-1.242,0.455
			c-0.79,0-1.447-0.466-1.971-1.397C66.797,8.352,66.575,7.406,66.575,6.299z M67.771,6.452c0,1.139,0.14,2.069,0.421,2.789
			c0.231,0.606,0.578,0.909,1.037,0.909c0.22,0,0.448-0.098,0.684-0.296c0.236-0.197,0.415-0.528,0.537-0.992
			c0.188-0.7,0.281-1.687,0.281-2.96c0-0.944-0.098-1.731-0.293-2.362c-0.146-0.468-0.336-0.799-0.568-0.995
			c-0.167-0.135-0.368-0.202-0.604-0.202c-0.277,0-0.523,0.124-0.739,0.373c-0.293,0.337-0.492,0.869-0.598,1.593
			S67.771,5.748,67.771,6.452z"/>
		<path style="fill:#0066FF;" d="M72.824,6.299c0-0.944,0.143-1.757,0.428-2.438c0.285-0.681,0.663-1.189,1.135-1.523
			c0.367-0.264,0.745-0.396,1.136-0.396c0.635,0,1.204,0.323,1.709,0.971c0.631,0.801,0.946,1.888,0.946,3.259
			c0,0.96-0.139,1.776-0.415,2.448c-0.277,0.671-0.63,1.159-1.06,1.462c-0.429,0.303-0.843,0.455-1.242,0.455
			c-0.789,0-1.446-0.466-1.971-1.397C73.047,8.352,72.824,7.406,72.824,6.299z M74.021,6.452c0,1.139,0.14,2.069,0.421,2.789
			c0.231,0.606,0.577,0.909,1.037,0.909c0.22,0,0.448-0.098,0.684-0.296c0.236-0.197,0.415-0.528,0.537-0.992
			c0.188-0.7,0.281-1.687,0.281-2.96c0-0.944-0.098-1.731-0.293-2.362c-0.146-0.468-0.336-0.799-0.567-0.995
			c-0.167-0.135-0.369-0.202-0.604-0.202c-0.277,0-0.523,0.124-0.739,0.373c-0.293,0.337-0.492,0.869-0.598,1.593
			S74.021,5.748,74.021,6.452z"/>
		<path style="fill:#0066FF;" d="M79.074,6.299c0-0.944,0.143-1.757,0.428-2.438c0.285-0.681,0.663-1.189,1.135-1.523
			c0.367-0.264,0.745-0.396,1.136-0.396c0.635,0,1.204,0.323,1.709,0.971c0.631,0.801,0.946,1.888,0.946,3.259
			c0,0.96-0.139,1.776-0.415,2.448c-0.277,0.671-0.63,1.159-1.06,1.462c-0.429,0.303-0.843,0.455-1.242,0.455
			c-0.789,0-1.446-0.466-1.971-1.397C79.297,8.352,79.074,7.406,79.074,6.299z M80.271,6.452c0,1.139,0.14,2.069,0.421,2.789
			c0.231,0.606,0.577,0.909,1.037,0.909c0.22,0,0.448-0.098,0.684-0.296c0.236-0.197,0.415-0.528,0.537-0.992
			c0.188-0.7,0.281-1.687,0.281-2.96c0-0.944-0.098-1.731-0.293-2.362c-0.146-0.468-0.336-0.799-0.567-0.995
			c-0.167-0.135-0.369-0.202-0.604-0.202c-0.277,0-0.523,0.124-0.739,0.373c-0.293,0.337-0.492,0.869-0.598,1.593
			S80.271,5.748,80.271,6.452z"/>
	</g>
	<g>
		<path style="fill:#0066FF;" d="M1.465,11.087l2.014-0.982h0.202v6.988c0,0.464,0.019,0.753,0.058,0.867
			c0.039,0.113,0.119,0.201,0.241,0.262c0.122,0.062,0.37,0.096,0.745,0.104v0.226H1.611v-0.226
			c0.391-0.009,0.643-0.042,0.757-0.101c0.114-0.06,0.193-0.139,0.238-0.238c0.044-0.1,0.067-0.397,0.067-0.895v-4.468
			c0-0.602-0.021-0.988-0.061-1.159c-0.028-0.13-0.081-0.226-0.156-0.287s-0.166-0.092-0.271-0.092c-0.15,0-0.36,0.063-0.628,0.189
			L1.465,11.087z"/>
		<path style="fill:#0066FF;" d="M9.827,14.463c0-0.944,0.143-1.757,0.427-2.438c0.285-0.681,0.663-1.189,1.135-1.523
			c0.366-0.264,0.745-0.396,1.135-0.396c0.635,0,1.205,0.323,1.709,0.971c0.631,0.801,0.946,1.888,0.946,3.259
			c0,0.96-0.139,1.776-0.415,2.448c-0.277,0.671-0.63,1.158-1.059,1.461c-0.43,0.304-0.843,0.455-1.242,0.455
			c-0.79,0-1.447-0.466-1.971-1.397C10.048,16.516,9.827,15.57,9.827,14.463z M11.023,14.616c0,1.139,0.14,2.069,0.421,2.789
			c0.231,0.606,0.578,0.909,1.037,0.909c0.22,0,0.448-0.099,0.684-0.296c0.236-0.197,0.415-0.528,0.537-0.991
			c0.188-0.7,0.281-1.687,0.281-2.961c0-0.944-0.098-1.731-0.293-2.362c-0.146-0.468-0.336-0.799-0.568-0.995
			c-0.167-0.135-0.368-0.202-0.604-0.202c-0.277,0-0.523,0.124-0.739,0.373c-0.293,0.337-0.492,0.869-0.598,1.593
			S11.023,13.912,11.023,14.616z"/>
		<path style="fill:#0066FF;" d="M16.077,14.463c0-0.944,0.143-1.757,0.427-2.438c0.285-0.681,0.663-1.189,1.135-1.523
			c0.366-0.264,0.745-0.396,1.135-0.396c0.635,0,1.205,0.323,1.709,0.971c0.631,0.801,0.946,1.888,0.946,3.259
			c0,0.96-0.139,1.776-0.415,2.448c-0.277,0.671-0.63,1.158-1.059,1.461c-0.43,0.304-0.843,0.455-1.242,0.455
			c-0.79,0-1.447-0.466-1.971-1.397C16.298,16.516,16.077,15.57,16.077,14.463z M17.273,14.616c0,1.139,0.14,2.069,0.421,2.789
			c0.231,0.606,0.578,0.909,1.037,0.909c0.22,0,0.448-0.099,0.684-0.296c0.236-0.197,0.415-0.528,0.537-0.991
			c0.188-0.7,0.281-1.687,0.281-2.961c0-0.944-0.098-1.731-0.293-2.362c-0.146-0.468-0.336-0.799-0.568-0.995
			c-0.167-0.135-0.368-0.202-0.604-0.202c-0.277,0-0.523,0.124-0.739,0.373c-0.293,0.337-0.492,0.869-0.598,1.593
			S17.273,13.912,17.273,14.616z"/>
		<path style="fill:#0066FF;" d="M22.327,14.463c0-0.944,0.143-1.757,0.427-2.438c0.285-0.681,0.663-1.189,1.135-1.523
			c0.366-0.264,0.745-0.396,1.135-0.396c0.635,0,1.205,0.323,1.709,0.971c0.631,0.801,0.946,1.888,0.946,3.259
			c0,0.96-0.139,1.776-0.415,2.448c-0.277,0.671-0.63,1.158-1.059,1.461c-0.43,0.304-0.843,0.455-1.242,0.455
			c-0.79,0-1.447-0.466-1.971-1.397C22.548,16.516,22.327,15.57,22.327,14.463z M23.523,14.616c0,1.139,0.14,2.069,0.421,2.789
			c0.231,0.606,0.578,0.909,1.037,0.909c0.22,0,0.448-0.099,0.684-0.296c0.236-0.197,0.415-0.528,0.537-0.991
			c0.188-0.7,0.281-1.687,0.281-2.961c0-0.944-0.098-1.731-0.293-2.362c-0.146-0.468-0.336-0.799-0.568-0.995
			c-0.167-0.135-0.368-0.202-0.604-0.202c-0.277,0-0.523,0.124-0.739,0.373c-0.293,0.337-0.492,0.869-0.598,1.593
			S23.523,13.912,23.523,14.616z"/>
		<path style="fill:#0066FF;" d="M32.446,12.961h1.001v3.253c0,0.59,0.037,0.993,0.11,1.209c0.053,0.162,0.15,0.295,0.293,0.396
			s0.297,0.152,0.464,0.152c0.48,0,0.96-0.272,1.44-0.817v-4.193h1.007v3.991c0,0.407,0.016,0.674,0.049,0.8
			c0.028,0.098,0.077,0.174,0.146,0.229c0.069,0.055,0.142,0.082,0.22,0.082c0.105,0,0.195-0.045,0.269-0.135
			c0.105-0.126,0.181-0.333,0.226-0.622h0.256c-0.037,0.492-0.165,0.852-0.384,1.077s-0.495,0.339-0.824,0.339
			c-0.317,0-0.562-0.118-0.732-0.354c-0.122-0.175-0.199-0.443-0.232-0.805c-0.354,0.414-0.684,0.712-0.989,0.891
			s-0.614,0.269-0.928,0.269c-0.216,0-0.403-0.043-0.562-0.128c-0.114-0.065-0.242-0.195-0.385-0.391
			c-0.004,0.126-0.006,0.22-0.006,0.28c0,0.321,0.069,0.808,0.208,1.459c0.053,0.248,0.08,0.46,0.08,0.635
			c0,0.195-0.057,0.356-0.171,0.482c-0.114,0.126-0.249,0.188-0.403,0.188c-0.15,0-0.276-0.059-0.378-0.177
			c-0.102-0.118-0.153-0.28-0.153-0.488c0-0.187,0.059-0.522,0.177-1.007c0.081-0.325,0.126-0.537,0.134-0.635
			c0.049-0.419,0.073-0.783,0.073-1.093c0-0.021-0.002-0.173-0.006-0.458V12.961z"/>
		<path style="fill:#0066FF;" d="M40.351,16.514c-0.342-0.168-0.604-0.4-0.787-0.699c-0.183-0.299-0.274-0.63-0.274-0.992
			c0-0.553,0.208-1.029,0.625-1.428c0.417-0.399,0.951-0.599,1.602-0.599c0.533,0,0.995,0.13,1.386,0.391h1.184
			c0.175,0,0.277,0.005,0.306,0.016c0.028,0.01,0.049,0.027,0.061,0.052c0.024,0.037,0.037,0.102,0.037,0.195
			c0,0.106-0.01,0.179-0.031,0.22c-0.012,0.021-0.034,0.037-0.064,0.049c-0.031,0.012-0.133,0.019-0.309,0.019H43.36
			c0.228,0.293,0.342,0.667,0.342,1.123c0,0.521-0.199,0.966-0.598,1.336c-0.399,0.371-0.934,0.555-1.605,0.555
			c-0.276,0-0.559-0.04-0.848-0.122c-0.179,0.155-0.3,0.29-0.363,0.406s-0.094,0.215-0.094,0.296c0,0.069,0.033,0.137,0.101,0.201
			c0.067,0.065,0.198,0.112,0.394,0.141c0.114,0.017,0.399,0.03,0.854,0.043c0.838,0.021,1.381,0.049,1.63,0.085
			c0.378,0.053,0.68,0.193,0.906,0.421c0.226,0.229,0.339,0.509,0.339,0.843c0,0.46-0.216,0.892-0.647,1.294
			c-0.635,0.594-1.462,0.891-2.484,0.891c-0.785,0-1.449-0.177-1.99-0.53c-0.305-0.204-0.458-0.415-0.458-0.635
			c0-0.098,0.022-0.195,0.067-0.293c0.069-0.15,0.211-0.36,0.427-0.629c0.028-0.036,0.236-0.257,0.623-0.659
			c-0.211-0.126-0.361-0.239-0.449-0.339s-0.131-0.213-0.131-0.339c0-0.143,0.058-0.309,0.174-0.5
			C39.664,17.134,39.932,16.864,40.351,16.514z M40.29,18.552c-0.191,0.207-0.336,0.4-0.434,0.58
			c-0.098,0.179-0.146,0.344-0.146,0.494c0,0.195,0.118,0.366,0.354,0.513c0.407,0.252,0.995,0.378,1.764,0.378
			c0.732,0,1.272-0.129,1.62-0.387c0.348-0.259,0.522-0.534,0.522-0.827c0-0.212-0.104-0.362-0.311-0.452
			c-0.212-0.089-0.631-0.143-1.258-0.158C41.486,18.668,40.782,18.622,40.29,18.552z M41.413,13.089c-0.301,0-0.554,0.12-0.757,0.36
			c-0.204,0.24-0.306,0.608-0.306,1.104c0,0.643,0.139,1.142,0.415,1.496c0.212,0.269,0.48,0.403,0.806,0.403
			c0.31,0,0.564-0.116,0.763-0.348c0.199-0.232,0.299-0.596,0.299-1.093c0-0.647-0.141-1.153-0.421-1.52
			C42.005,13.224,41.738,13.089,41.413,13.089z"/>
		<path style="fill:#0066FF;" d="M92.778,13.987c0.407-0.407,0.646-0.641,0.721-0.702c0.183-0.154,0.38-0.274,0.592-0.36
			c0.211-0.085,0.421-0.128,0.629-0.128c0.35,0,0.65,0.102,0.902,0.306c0.253,0.203,0.422,0.498,0.507,0.885
			c0.419-0.488,0.773-0.809,1.062-0.961c0.289-0.152,0.586-0.229,0.891-0.229c0.297,0,0.561,0.077,0.791,0.229
			c0.229,0.153,0.411,0.402,0.546,0.748c0.09,0.236,0.135,0.606,0.135,1.111v2.404c0,0.351,0.026,0.59,0.079,0.721
			c0.04,0.089,0.116,0.166,0.226,0.229c0.109,0.063,0.289,0.095,0.537,0.095v0.22h-2.759v-0.22h0.116
			c0.24,0,0.427-0.047,0.562-0.141c0.094-0.064,0.16-0.169,0.201-0.312c0.017-0.068,0.024-0.266,0.024-0.592v-2.404
			c0-0.456-0.055-0.777-0.165-0.965c-0.158-0.26-0.413-0.391-0.763-0.391c-0.216,0-0.433,0.054-0.65,0.162s-0.48,0.308-0.79,0.601
			l-0.013,0.067l0.013,0.263v2.667c0,0.383,0.021,0.621,0.064,0.715c0.042,0.093,0.123,0.172,0.241,0.234
			c0.117,0.063,0.319,0.095,0.604,0.095v0.22h-2.826v-0.22c0.31,0,0.522-0.036,0.639-0.11c0.115-0.072,0.196-0.183,0.24-0.329
			c0.021-0.069,0.031-0.271,0.031-0.604v-2.404c0-0.456-0.067-0.784-0.201-0.983c-0.18-0.26-0.43-0.391-0.751-0.391
			c-0.22,0-0.438,0.059-0.653,0.177c-0.338,0.179-0.598,0.38-0.781,0.604v2.997c0,0.366,0.025,0.604,0.076,0.715
			c0.051,0.109,0.126,0.191,0.226,0.247c0.1,0.055,0.303,0.082,0.607,0.082v0.22h-2.765v-0.22c0.256,0,0.436-0.027,0.537-0.082
			c0.102-0.056,0.179-0.143,0.232-0.263c0.053-0.12,0.079-0.354,0.079-0.699v-2.136c0-0.615-0.019-1.011-0.056-1.19
			c-0.028-0.134-0.072-0.227-0.134-0.278c-0.062-0.051-0.145-0.076-0.25-0.076c-0.114,0-0.251,0.031-0.409,0.091l-0.092-0.22
			l1.685-0.684h0.263V13.987z"/>
		<path style="fill:#0066FF;" d="M102.186,16.514c-0.342-0.168-0.604-0.4-0.787-0.699c-0.183-0.299-0.274-0.63-0.274-0.992
			c0-0.553,0.208-1.029,0.625-1.428c0.417-0.399,0.951-0.599,1.603-0.599c0.533,0,0.995,0.13,1.386,0.391h1.184
			c0.175,0,0.277,0.005,0.306,0.016s0.049,0.027,0.061,0.052c0.024,0.037,0.037,0.102,0.037,0.195c0,0.106-0.011,0.179-0.03,0.22
			c-0.013,0.021-0.034,0.037-0.064,0.049s-0.134,0.019-0.309,0.019h-0.727c0.229,0.293,0.342,0.667,0.342,1.123
			c0,0.521-0.199,0.966-0.598,1.336c-0.398,0.371-0.934,0.555-1.605,0.555c-0.276,0-0.56-0.04-0.848-0.122
			c-0.18,0.155-0.301,0.29-0.363,0.406c-0.063,0.116-0.095,0.215-0.095,0.296c0,0.069,0.033,0.137,0.101,0.201
			c0.067,0.065,0.198,0.112,0.394,0.141c0.114,0.017,0.398,0.03,0.854,0.043c0.838,0.021,1.382,0.049,1.63,0.085
			c0.378,0.053,0.681,0.193,0.906,0.421c0.226,0.229,0.339,0.509,0.339,0.843c0,0.46-0.216,0.892-0.647,1.294
			c-0.635,0.594-1.463,0.891-2.483,0.891c-0.786,0-1.449-0.177-1.99-0.53c-0.305-0.204-0.458-0.415-0.458-0.635
			c0-0.098,0.022-0.195,0.067-0.293c0.069-0.15,0.212-0.36,0.428-0.629c0.028-0.036,0.235-0.257,0.622-0.659
			c-0.212-0.126-0.361-0.239-0.448-0.339c-0.088-0.1-0.132-0.213-0.132-0.339c0-0.143,0.059-0.309,0.174-0.5
			C101.499,17.134,101.767,16.864,102.186,16.514z M102.125,18.552c-0.191,0.207-0.336,0.4-0.434,0.58
			c-0.098,0.179-0.146,0.344-0.146,0.494c0,0.195,0.118,0.366,0.354,0.513c0.406,0.252,0.994,0.378,1.764,0.378
			c0.732,0,1.272-0.129,1.62-0.387c0.348-0.259,0.522-0.534,0.522-0.827c0-0.212-0.104-0.362-0.312-0.452
			c-0.212-0.089-0.631-0.143-1.258-0.158C103.321,18.668,102.617,18.622,102.125,18.552z M103.248,13.089
			c-0.302,0-0.554,0.12-0.757,0.36c-0.204,0.24-0.306,0.608-0.306,1.104c0,0.643,0.139,1.142,0.415,1.496
			c0.212,0.269,0.48,0.403,0.806,0.403c0.31,0,0.563-0.116,0.763-0.348c0.2-0.232,0.3-0.596,0.3-1.093
			c0-0.647-0.141-1.153-0.421-1.52C103.84,13.224,103.573,13.089,103.248,13.089z"/>
		<path style="fill:#0066FF;" d="M120.39,11.087l2.014-0.982h0.202v6.988c0,0.464,0.019,0.753,0.058,0.867
			c0.039,0.113,0.119,0.201,0.241,0.262c0.122,0.062,0.37,0.096,0.745,0.104v0.226h-3.113v-0.226
			c0.391-0.009,0.643-0.042,0.757-0.101c0.114-0.06,0.193-0.139,0.238-0.238s0.067-0.397,0.067-0.895v-4.468
			c0-0.602-0.021-0.988-0.062-1.159c-0.028-0.13-0.08-0.226-0.155-0.287c-0.076-0.061-0.166-0.092-0.271-0.092
			c-0.151,0-0.36,0.063-0.629,0.189L120.39,11.087z"/>
		<path style="fill:#0066FF;" d="M129.775,13.987c0.407-0.407,0.646-0.641,0.721-0.702c0.183-0.154,0.38-0.274,0.592-0.36
			c0.211-0.085,0.421-0.128,0.629-0.128c0.35,0,0.65,0.102,0.902,0.306c0.253,0.203,0.422,0.498,0.507,0.885
			c0.419-0.488,0.773-0.809,1.062-0.961c0.289-0.152,0.586-0.229,0.891-0.229c0.297,0,0.561,0.077,0.791,0.229
			c0.229,0.153,0.411,0.402,0.546,0.748c0.09,0.236,0.135,0.606,0.135,1.111v2.404c0,0.351,0.026,0.59,0.079,0.721
			c0.04,0.089,0.116,0.166,0.226,0.229c0.109,0.063,0.289,0.095,0.537,0.095v0.22h-2.759v-0.22h0.116
			c0.24,0,0.427-0.047,0.562-0.141c0.094-0.064,0.16-0.169,0.201-0.312c0.017-0.068,0.024-0.266,0.024-0.592v-2.404
			c0-0.456-0.055-0.777-0.165-0.965c-0.158-0.26-0.413-0.391-0.763-0.391c-0.216,0-0.433,0.054-0.65,0.162s-0.48,0.308-0.79,0.601
			l-0.013,0.067l0.013,0.263v2.667c0,0.383,0.021,0.621,0.064,0.715c0.042,0.093,0.123,0.172,0.241,0.234
			c0.117,0.063,0.319,0.095,0.604,0.095v0.22h-2.826v-0.22c0.31,0,0.522-0.036,0.639-0.11c0.115-0.072,0.196-0.183,0.24-0.329
			c0.021-0.069,0.031-0.271,0.031-0.604v-2.404c0-0.456-0.067-0.784-0.201-0.983c-0.18-0.26-0.43-0.391-0.751-0.391
			c-0.22,0-0.438,0.059-0.653,0.177c-0.338,0.179-0.598,0.38-0.781,0.604v2.997c0,0.366,0.025,0.604,0.076,0.715
			c0.051,0.109,0.126,0.191,0.226,0.247c0.1,0.055,0.303,0.082,0.607,0.082v0.22h-2.765v-0.22c0.256,0,0.436-0.027,0.537-0.082
			c0.102-0.056,0.179-0.143,0.232-0.263c0.053-0.12,0.079-0.354,0.079-0.699v-2.136c0-0.615-0.019-1.011-0.056-1.19
			c-0.028-0.134-0.072-0.227-0.134-0.278c-0.062-0.051-0.145-0.076-0.25-0.076c-0.114,0-0.251,0.031-0.409,0.091l-0.092-0.22
			l1.685-0.684h0.263V13.987z"/>
		<path style="fill:#0066FF;" d="M139.184,16.514c-0.342-0.168-0.604-0.4-0.787-0.699c-0.183-0.299-0.274-0.63-0.274-0.992
			c0-0.553,0.208-1.029,0.625-1.428c0.417-0.399,0.951-0.599,1.603-0.599c0.533,0,0.995,0.13,1.386,0.391h1.184
			c0.175,0,0.277,0.005,0.306,0.016s0.049,0.027,0.061,0.052c0.024,0.037,0.037,0.102,0.037,0.195c0,0.106-0.011,0.179-0.03,0.22
			c-0.013,0.021-0.034,0.037-0.064,0.049s-0.134,0.019-0.309,0.019h-0.727c0.229,0.293,0.342,0.667,0.342,1.123
			c0,0.521-0.199,0.966-0.598,1.336c-0.398,0.371-0.934,0.555-1.605,0.555c-0.276,0-0.56-0.04-0.848-0.122
			c-0.18,0.155-0.301,0.29-0.363,0.406c-0.063,0.116-0.095,0.215-0.095,0.296c0,0.069,0.033,0.137,0.101,0.201
			c0.067,0.065,0.198,0.112,0.394,0.141c0.114,0.017,0.398,0.03,0.854,0.043c0.838,0.021,1.382,0.049,1.63,0.085
			c0.378,0.053,0.681,0.193,0.906,0.421c0.226,0.229,0.339,0.509,0.339,0.843c0,0.46-0.216,0.892-0.647,1.294
			c-0.635,0.594-1.463,0.891-2.483,0.891c-0.786,0-1.449-0.177-1.99-0.53c-0.305-0.204-0.458-0.415-0.458-0.635
			c0-0.098,0.022-0.195,0.067-0.293c0.069-0.15,0.212-0.36,0.428-0.629c0.028-0.036,0.235-0.257,0.622-0.659
			c-0.212-0.126-0.361-0.239-0.448-0.339c-0.088-0.1-0.132-0.213-0.132-0.339c0-0.143,0.059-0.309,0.174-0.5
			C138.497,17.134,138.765,16.864,139.184,16.514z M139.123,18.552c-0.191,0.207-0.336,0.4-0.434,0.58
			c-0.098,0.179-0.146,0.344-0.146,0.494c0,0.195,0.118,0.366,0.354,0.513c0.406,0.252,0.994,0.378,1.764,0.378
			c0.732,0,1.272-0.129,1.62-0.387c0.348-0.259,0.522-0.534,0.522-0.827c0-0.212-0.104-0.362-0.312-0.452
			c-0.212-0.089-0.631-0.143-1.258-0.158C140.319,18.668,139.615,18.622,139.123,18.552z M140.246,13.089
			c-0.302,0-0.554,0.12-0.757,0.36c-0.204,0.24-0.306,0.608-0.306,1.104c0,0.643,0.139,1.142,0.415,1.496
			c0.212,0.269,0.48,0.403,0.806,0.403c0.31,0,0.563-0.116,0.763-0.348c0.2-0.232,0.3-0.596,0.3-1.093
			c0-0.647-0.141-1.153-0.421-1.52C140.838,13.224,140.571,13.089,140.246,13.089z"/>
	</g>
	<g>
		<path style="fill:#0066FF;" d="M59.551,20.716l2.014-0.982h0.202v6.988c0,0.464,0.019,0.753,0.058,0.867
			c0.039,0.113,0.119,0.201,0.241,0.262c0.122,0.062,0.37,0.096,0.745,0.104v0.226h-3.113v-0.226
			c0.391-0.009,0.643-0.042,0.757-0.101c0.114-0.06,0.193-0.139,0.238-0.238c0.044-0.1,0.067-0.397,0.067-0.895v-4.468
			c0-0.602-0.021-0.988-0.061-1.159c-0.028-0.131-0.081-0.227-0.156-0.287s-0.166-0.092-0.271-0.092c-0.15,0-0.36,0.063-0.628,0.189
			L59.551,20.716z"/>
		<path style="fill:#0066FF;" d="M66.575,24.091c0-0.943,0.143-1.756,0.427-2.438s0.663-1.189,1.135-1.523
			c0.366-0.265,0.745-0.396,1.135-0.396c0.635,0,1.205,0.323,1.709,0.971c0.631,0.802,0.946,1.888,0.946,3.259
			c0,0.961-0.139,1.776-0.415,2.448c-0.277,0.671-0.63,1.158-1.059,1.461c-0.43,0.304-0.843,0.455-1.242,0.455
			c-0.79,0-1.447-0.466-1.971-1.397C66.797,26.145,66.575,25.199,66.575,24.091z M67.771,24.245c0,1.139,0.14,2.069,0.421,2.789
			c0.231,0.606,0.578,0.909,1.037,0.909c0.22,0,0.448-0.099,0.684-0.296c0.236-0.197,0.415-0.528,0.537-0.991
			c0.188-0.7,0.281-1.688,0.281-2.961c0-0.943-0.098-1.731-0.293-2.361c-0.146-0.469-0.336-0.8-0.568-0.995
			c-0.167-0.135-0.368-0.202-0.604-0.202c-0.277,0-0.523,0.125-0.739,0.373c-0.293,0.338-0.492,0.868-0.598,1.593
			S67.771,23.541,67.771,24.245z"/>
		<path style="fill:#0066FF;" d="M72.824,24.091c0-0.943,0.143-1.756,0.428-2.438s0.663-1.189,1.135-1.523
			c0.367-0.265,0.745-0.396,1.136-0.396c0.635,0,1.204,0.323,1.709,0.971c0.631,0.802,0.946,1.888,0.946,3.259
			c0,0.961-0.139,1.776-0.415,2.448c-0.277,0.671-0.63,1.158-1.06,1.461c-0.429,0.304-0.843,0.455-1.242,0.455
			c-0.789,0-1.446-0.466-1.971-1.397C73.047,26.145,72.824,25.199,72.824,24.091z M74.021,24.245c0,1.139,0.14,2.069,0.421,2.789
			c0.231,0.606,0.577,0.909,1.037,0.909c0.22,0,0.448-0.099,0.684-0.296c0.236-0.197,0.415-0.528,0.537-0.991
			c0.188-0.7,0.281-1.688,0.281-2.961c0-0.943-0.098-1.731-0.293-2.361c-0.146-0.469-0.336-0.8-0.567-0.995
			c-0.167-0.135-0.369-0.202-0.604-0.202c-0.277,0-0.523,0.125-0.739,0.373c-0.293,0.338-0.492,0.868-0.598,1.593
			S74.021,23.541,74.021,24.245z"/>
		<path style="fill:#0066FF;" d="M79.074,24.091c0-0.943,0.143-1.756,0.428-2.438s0.663-1.189,1.135-1.523
			c0.367-0.265,0.745-0.396,1.136-0.396c0.635,0,1.204,0.323,1.709,0.971c0.631,0.802,0.946,1.888,0.946,3.259
			c0,0.961-0.139,1.776-0.415,2.448c-0.277,0.671-0.63,1.158-1.06,1.461c-0.429,0.304-0.843,0.455-1.242,0.455
			c-0.789,0-1.446-0.466-1.971-1.397C79.297,26.145,79.074,25.199,79.074,24.091z M80.271,24.245c0,1.139,0.14,2.069,0.421,2.789
			c0.231,0.606,0.577,0.909,1.037,0.909c0.22,0,0.448-0.099,0.684-0.296c0.236-0.197,0.415-0.528,0.537-0.991
			c0.188-0.7,0.281-1.688,0.281-2.961c0-0.943-0.098-1.731-0.293-2.361c-0.146-0.469-0.336-0.8-0.567-0.995
			c-0.167-0.135-0.369-0.202-0.604-0.202c-0.277,0-0.523,0.125-0.739,0.373c-0.293,0.338-0.492,0.868-0.598,1.593
			S80.271,23.541,80.271,24.245z"/>
	</g>
	<g>
		<path style="fill:#0066FF;" d="M48.312,13.919h6.409v0.592h-6.409V13.919z M48.312,16.196h6.409V16.8h-6.409V16.196z"/>
		<path style="fill:#0066FF;" d="M110.146,13.919h6.409v0.592h-6.409V13.919z M110.146,16.196h6.409V16.8h-6.409V16.196z"/>
	</g>
</g>
<g id="theGroup">
</g>
</svg>
