<?xml version="1.0" encoding="iso-8859-1"?>
<!-- Generator: Adobe Illustrator 16.0.0, SVG Export Plug-In . SVG Version: 6.00 Build 0)  -->
<!DOCTYPE svg PUBLIC "-//W3C//DTD SVG 1.1//EN" "http://www.w3.org/Graphics/SVG/1.1/DTD/svg11.dtd">
<svg version="1.1" id="Lager_1" xmlns="http://www.w3.org/2000/svg" xmlns:xlink="http://www.w3.org/1999/xlink" x="0px" y="0px"
	 width="43.312px" height="32.044px" viewBox="0 0 43.312 32.044" style="enable-background:new 0 0 43.312 32.044;"
	 xml:space="preserve">
<g>
	
		<line style="fill:none;stroke:#000000;stroke-width:0.5;stroke-linecap:square;stroke-miterlimit:10;" x1="0.25" y1="15.242" x2="7.672" y2="15.242"/>
	
		<line style="fill:none;stroke:#000000;stroke-width:0.5;stroke-linecap:square;stroke-miterlimit:10;" x1="14.469" y1="15.242" x2="21.891" y2="15.242"/>
	
		<line style="fill:none;stroke:#000000;stroke-width:0.5;stroke-linecap:square;stroke-miterlimit:10;" x1="36.031" y1="15.242" x2="43.062" y2="15.242"/>
	<g>
		<path d="M1.666,3.687C1.901,3.129,2.2,2.699,2.56,2.396c0.36-0.303,0.809-0.454,1.346-0.454c0.663,0,1.172,0.216,1.525,0.646
			C5.7,2.909,5.834,3.254,5.834,3.62c0,0.602-0.379,1.225-1.136,1.867c0.509,0.199,0.894,0.484,1.154,0.854s0.391,0.806,0.391,1.307
			c0,0.716-0.228,1.336-0.684,1.861c-0.594,0.684-1.455,1.025-2.582,1.025c-0.558,0-0.937-0.069-1.139-0.208
			c-0.201-0.138-0.302-0.286-0.302-0.445c0-0.118,0.047-0.222,0.143-0.312c0.096-0.089,0.21-0.134,0.345-0.134
			c0.102,0,0.205,0.016,0.311,0.049c0.069,0.021,0.226,0.095,0.47,0.223S3.22,9.912,3.313,9.937c0.15,0.045,0.311,0.067,0.482,0.067
			c0.415,0,0.776-0.161,1.083-0.482S5.34,8.82,5.34,8.381c0-0.322-0.071-0.635-0.213-0.94c-0.106-0.228-0.222-0.4-0.348-0.519
			c-0.175-0.163-0.415-0.311-0.72-0.442C3.753,6.347,3.442,6.281,3.125,6.281H2.929V6.098C3.25,6.057,3.573,5.941,3.896,5.75
			C4.22,5.559,4.455,5.329,4.601,5.061s0.22-0.564,0.22-0.886c0-0.419-0.131-0.758-0.394-1.016C4.165,2.9,3.838,2.771,3.448,2.771
			c-0.631,0-1.158,0.338-1.581,1.013L1.666,3.687z"/>
		<path d="M15.878,3.687c0.236-0.558,0.534-0.987,0.894-1.291c0.36-0.303,0.809-0.454,1.346-0.454c0.663,0,1.172,0.216,1.525,0.646
			c0.269,0.321,0.403,0.666,0.403,1.032c0,0.602-0.379,1.225-1.136,1.867c0.509,0.199,0.894,0.484,1.154,0.854
			s0.391,0.806,0.391,1.307c0,0.716-0.228,1.336-0.684,1.861c-0.594,0.684-1.455,1.025-2.582,1.025
			c-0.558,0-0.937-0.069-1.139-0.208c-0.201-0.138-0.302-0.286-0.302-0.445c0-0.118,0.047-0.222,0.143-0.312
			c0.096-0.089,0.21-0.134,0.345-0.134c0.102,0,0.205,0.016,0.311,0.049c0.069,0.021,0.226,0.095,0.47,0.223
			s0.413,0.204,0.506,0.229c0.15,0.045,0.311,0.067,0.482,0.067c0.415,0,0.776-0.161,1.083-0.482s0.461-0.701,0.461-1.141
			c0-0.322-0.071-0.635-0.213-0.94c-0.106-0.228-0.222-0.4-0.348-0.519c-0.175-0.163-0.415-0.311-0.72-0.442
			c-0.305-0.133-0.616-0.198-0.934-0.198h-0.195V6.098c0.321-0.041,0.644-0.156,0.967-0.348c0.323-0.191,0.558-0.421,0.705-0.689
			s0.22-0.564,0.22-0.886c0-0.419-0.131-0.758-0.394-1.016C18.377,2.9,18.051,2.771,17.66,2.771c-0.631,0-1.158,0.338-1.581,1.013
			L15.878,3.687z"/>
		<path d="M37.065,10.56v-0.226c0.529-0.009,1.021-0.132,1.478-0.37c0.455-0.237,0.896-0.653,1.321-1.248
			c0.425-0.594,0.721-1.247,0.888-1.959c-0.639,0.411-1.217,0.616-1.733,0.616c-0.582,0-1.08-0.225-1.495-0.674
			C37.108,6.249,36.9,5.652,36.9,4.907c0-0.724,0.208-1.369,0.623-1.935c0.5-0.688,1.153-1.031,1.959-1.031
			c0.68,0,1.262,0.28,1.746,0.842c0.594,0.696,0.891,1.555,0.891,2.576c0,0.919-0.226,1.777-0.678,2.572
			c-0.451,0.796-1.08,1.456-1.886,1.98c-0.655,0.432-1.369,0.647-2.143,0.647H37.065z M40.85,6.306
			c0.073-0.529,0.109-0.952,0.109-1.27c0-0.396-0.066-0.821-0.201-1.279c-0.134-0.458-0.324-0.809-0.57-1.053
			s-0.526-0.366-0.84-0.366c-0.361,0-0.679,0.163-0.951,0.488c-0.273,0.325-0.409,0.81-0.409,1.453c0,0.858,0.181,1.529,0.543,2.014
			c0.265,0.35,0.59,0.525,0.977,0.525c0.188,0,0.409-0.045,0.665-0.135C40.429,6.594,40.654,6.468,40.85,6.306z"/>
	</g>
	<g>
		<path d="M6.762,26.618l-0.58,1.593H1.299v-0.226c1.437-1.311,2.447-2.381,3.033-3.211s0.879-1.589,0.879-2.276
			c0-0.525-0.161-0.956-0.482-1.294s-0.706-0.507-1.154-0.507c-0.407,0-0.772,0.119-1.095,0.357
			c-0.324,0.238-0.562,0.587-0.717,1.047H1.538c0.102-0.753,0.363-1.331,0.784-1.733c0.421-0.403,0.947-0.604,1.578-0.604
			c0.671,0,1.232,0.216,1.682,0.646c0.449,0.432,0.674,0.94,0.674,1.526c0,0.419-0.098,0.838-0.293,1.257
			c-0.301,0.66-0.79,1.357-1.465,2.094c-1.013,1.107-1.646,1.774-1.898,2.002H4.76c0.439,0,0.748-0.016,0.924-0.049
			c0.177-0.032,0.337-0.099,0.479-0.198c0.143-0.1,0.267-0.241,0.373-0.424H6.762z"/>
		<path d="M21.06,25.159v0.866h-1.11v2.186h-1.007v-2.186h-3.503v-0.781l3.839-5.48h0.672v5.396H21.06z M18.942,25.159v-4.107
			l-2.905,4.107H18.942z"/>
		<path d="M38.805,24.042c-0.655-0.537-1.077-0.968-1.267-1.294c-0.188-0.325-0.283-0.663-0.283-1.013c0-0.537,0.207-1,0.622-1.389
			s0.967-0.583,1.654-0.583c0.667,0,1.204,0.181,1.611,0.543s0.61,0.775,0.61,1.239c0,0.31-0.11,0.625-0.329,0.946
			c-0.221,0.321-0.678,0.699-1.374,1.135c0.717,0.554,1.19,0.989,1.423,1.307c0.309,0.415,0.463,0.853,0.463,1.312
			c0,0.581-0.222,1.079-0.665,1.492s-1.025,0.619-1.745,0.619c-0.785,0-1.398-0.246-1.838-0.738
			c-0.35-0.395-0.524-0.826-0.524-1.294c0-0.366,0.123-0.729,0.369-1.09S38.203,24.478,38.805,24.042z M39.092,24.274
			c-0.338,0.284-0.588,0.595-0.751,0.931c-0.162,0.336-0.244,0.699-0.244,1.09c0,0.524,0.144,0.944,0.431,1.26
			s0.652,0.473,1.096,0.473c0.439,0,0.791-0.124,1.056-0.372s0.396-0.549,0.396-0.903c0-0.293-0.077-0.555-0.231-0.787
			C40.555,25.533,39.971,24.97,39.092,24.274z M39.764,23.389c0.488-0.439,0.797-0.786,0.928-1.04
			c0.13-0.254,0.195-0.542,0.195-0.864c0-0.427-0.12-0.762-0.36-1.004c-0.24-0.241-0.567-0.363-0.983-0.363
			c-0.414,0-0.752,0.12-1.013,0.36s-0.391,0.521-0.391,0.843c0,0.211,0.054,0.423,0.162,0.635c0.107,0.211,0.261,0.413,0.46,0.604
			L39.764,23.389z"/>
	</g>
	<g>
		<path d="M11.741,15.374c0,0.188-0.066,0.348-0.198,0.479c-0.132,0.132-0.29,0.198-0.473,0.198c-0.187,0-0.347-0.066-0.479-0.198
			c-0.132-0.132-0.199-0.292-0.199-0.479c0-0.187,0.066-0.347,0.199-0.479c0.132-0.133,0.292-0.199,0.479-0.199
			c0.183,0,0.341,0.066,0.473,0.199C11.675,15.027,11.741,15.188,11.741,15.374z"/>
		<path d="M25.671,13.939h6.409v0.593h-6.409V13.939z M25.671,16.217h6.409v0.604h-6.409V16.217z"/>
	</g>
</g>
<g id="theGroup">
</g>
</svg>
