<?xml version="1.0" encoding="iso-8859-1"?>
<!-- Generator: Adobe Illustrator 16.0.0, SVG Export Plug-In . SVG Version: 6.00 Build 0)  -->
<!DOCTYPE svg PUBLIC "-//W3C//DTD SVG 1.1//EN" "http://www.w3.org/Graphics/SVG/1.1/DTD/svg11.dtd">
<svg version="1.1" id="Lager_1" xmlns="http://www.w3.org/2000/svg" xmlns:xlink="http://www.w3.org/1999/xlink" x="0px" y="0px"
	 width="35.344px" height="32.044px" viewBox="0 0 35.344 32.044" style="enable-background:new 0 0 35.344 32.044;"
	 xml:space="preserve">
<g>
	
		<line style="fill:none;stroke:#000000;stroke-width:0.5;stroke-linecap:square;stroke-miterlimit:10;" x1="0.25" y1="15.242" x2="7.672" y2="15.242"/>
	
		<line style="fill:none;stroke:#000000;stroke-width:0.5;stroke-linecap:square;stroke-miterlimit:10;" x1="21.812" y1="15.242" x2="35.094" y2="15.242"/>
	<g>
		<path d="M6.752,8.796l-0.58,1.593H1.29v-0.226c1.437-1.311,2.447-2.381,3.033-3.211s0.879-1.589,0.879-2.276
			c0-0.525-0.161-0.956-0.482-1.294S4.014,2.875,3.566,2.875c-0.407,0-0.772,0.119-1.095,0.357C2.147,3.47,1.908,3.819,1.753,4.279
			H1.528c0.102-0.753,0.363-1.331,0.784-1.733C2.733,2.143,3.259,1.941,3.89,1.941c0.671,0,1.232,0.216,1.682,0.646
			c0.449,0.432,0.674,0.94,0.674,1.526c0,0.419-0.098,0.838-0.293,1.257C5.651,6.03,5.163,6.729,4.488,7.465
			C3.475,8.571,2.842,9.239,2.589,9.467H4.75c0.439,0,0.748-0.017,0.924-0.049C5.852,9.386,6.012,9.319,6.154,9.22
			c0.143-0.1,0.267-0.241,0.373-0.424H6.752z"/>
		<path d="M23.186,2.924l2.014-0.982h0.202V8.93c0,0.464,0.019,0.753,0.058,0.867c0.039,0.113,0.119,0.201,0.241,0.262
			c0.122,0.062,0.37,0.096,0.745,0.104v0.226h-3.113v-0.226c0.391-0.009,0.643-0.042,0.757-0.102
			c0.114-0.059,0.193-0.138,0.238-0.237s0.067-0.398,0.067-0.895V4.462c0-0.603-0.021-0.988-0.062-1.159
			c-0.028-0.131-0.08-0.227-0.155-0.287c-0.076-0.062-0.166-0.092-0.271-0.092c-0.151,0-0.36,0.063-0.629,0.189L23.186,2.924z"/>
		<path d="M33.574,1.941v0.226c-0.537,0.053-0.977,0.16-1.315,0.32c-0.34,0.161-0.676,0.406-1.008,0.735
			c-0.331,0.33-0.606,0.697-0.823,1.102c-0.218,0.405-0.4,0.887-0.547,1.444c0.586-0.403,1.174-0.604,1.764-0.604
			c0.566,0,1.057,0.228,1.472,0.684c0.415,0.455,0.622,1.041,0.622,1.758c0,0.691-0.209,1.322-0.629,1.892
			c-0.504,0.692-1.172,1.038-2.002,1.038c-0.565,0-1.045-0.188-1.439-0.562c-0.773-0.729-1.16-1.673-1.16-2.832
			c0-0.741,0.148-1.444,0.445-2.112c0.297-0.667,0.722-1.259,1.272-1.775c0.552-0.518,1.08-0.865,1.584-1.044
			c0.505-0.18,0.975-0.269,1.41-0.269H33.574z M29.777,6.214c-0.073,0.549-0.109,0.992-0.109,1.33c0,0.391,0.071,0.815,0.216,1.272
			c0.145,0.458,0.359,0.821,0.645,1.09c0.207,0.191,0.46,0.287,0.757,0.287c0.354,0,0.67-0.167,0.949-0.501
			c0.278-0.333,0.418-0.81,0.418-1.428c0-0.696-0.139-1.298-0.415-1.807c-0.277-0.509-0.67-0.763-1.179-0.763
			c-0.154,0-0.32,0.032-0.497,0.098C30.385,5.857,30.123,5.998,29.777,6.214z"/>
	</g>
	<g>
		<path d="M2.093,19.935H6.53v0.231l-2.759,8.216H3.087L5.56,20.93H3.283c-0.459,0-0.787,0.055-0.982,0.164
			c-0.342,0.188-0.616,0.477-0.824,0.867l-0.177-0.067L2.093,19.935z"/>
		<path d="M27.624,19.935l-0.476,1.038h-2.49l-0.544,1.11c1.079,0.159,1.934,0.56,2.564,1.202c0.541,0.554,0.812,1.205,0.812,1.953
			c0,0.436-0.089,0.839-0.266,1.209s-0.399,0.686-0.669,0.945c-0.268,0.261-0.567,0.471-0.896,0.629
			c-0.468,0.224-0.948,0.336-1.44,0.336c-0.497,0-0.857-0.085-1.084-0.253c-0.226-0.169-0.339-0.355-0.339-0.559
			c0-0.114,0.047-0.215,0.141-0.303c0.094-0.087,0.212-0.131,0.354-0.131c0.105,0,0.198,0.017,0.277,0.049s0.215,0.116,0.406,0.25
			c0.305,0.212,0.614,0.317,0.928,0.317c0.476,0,0.894-0.18,1.254-0.54s0.54-0.799,0.54-1.315c0-0.5-0.16-0.967-0.482-1.4
			c-0.321-0.434-0.765-0.769-1.33-1.004c-0.443-0.184-1.048-0.289-1.812-0.317l1.587-3.217H27.624z"/>
		<path d="M34.052,19.764v0.226c-0.537,0.053-0.977,0.16-1.315,0.32c-0.34,0.161-0.676,0.406-1.008,0.735
			c-0.331,0.33-0.606,0.697-0.823,1.103c-0.218,0.404-0.4,0.886-0.547,1.443c0.586-0.403,1.174-0.604,1.764-0.604
			c0.566,0,1.057,0.228,1.472,0.684s0.622,1.042,0.622,1.758c0,0.691-0.209,1.322-0.629,1.893c-0.504,0.691-1.172,1.037-2.002,1.037
			c-0.565,0-1.045-0.188-1.439-0.562c-0.773-0.729-1.16-1.673-1.16-2.832c0-0.74,0.148-1.444,0.445-2.112
			c0.297-0.667,0.722-1.259,1.272-1.775c0.552-0.517,1.08-0.865,1.584-1.044c0.505-0.179,0.975-0.269,1.41-0.269H34.052z
			 M30.255,24.036c-0.073,0.55-0.109,0.993-0.109,1.331c0,0.391,0.071,0.814,0.216,1.272c0.145,0.457,0.359,0.82,0.645,1.089
			c0.207,0.191,0.46,0.287,0.757,0.287c0.354,0,0.67-0.167,0.949-0.5c0.278-0.334,0.418-0.811,0.418-1.429
			c0-0.696-0.139-1.298-0.415-1.807c-0.277-0.509-0.67-0.763-1.179-0.763c-0.154,0-0.32,0.032-0.497,0.098
			C30.862,23.68,30.601,23.82,30.255,24.036z"/>
	</g>
	<g>
		<path d="M11.452,13.939h6.409v0.593h-6.409V13.939z M11.452,16.217h6.409v0.604h-6.409V16.217z"/>
	</g>
</g>
<g id="theGroup">
</g>
</svg>
