<?xml version="1.0" encoding="iso-8859-1"?>
<!-- Generator: Adobe Illustrator 16.0.0, SVG Export Plug-In . SVG Version: 6.00 Build 0)  -->
<!DOCTYPE svg PUBLIC "-//W3C//DTD SVG 1.1//EN" "http://www.w3.org/Graphics/SVG/1.1/DTD/svg11.dtd">
<svg version="1.1" id="Lager_1" xmlns="http://www.w3.org/2000/svg" xmlns:xlink="http://www.w3.org/1999/xlink" x="0px" y="0px"
	 width="90.219px" height="54.512px" viewBox="0 0 90.219 54.512" style="enable-background:new 0 0 90.219 54.512;"
	 xml:space="preserve">
<g>
	<g>
		<path style="fill:#0066FF;" d="M12.567,9.407L11.987,11H7.104v-0.226c1.437-1.311,2.447-2.381,3.033-3.211
			s0.879-1.589,0.879-2.276c0-0.525-0.161-0.956-0.482-1.294S9.829,3.486,9.381,3.486c-0.407,0-0.772,0.119-1.095,0.357
			C7.962,4.082,7.723,4.431,7.568,4.891H7.343C7.444,4.138,7.706,3.56,8.127,3.157c0.421-0.403,0.947-0.604,1.578-0.604
			c0.671,0,1.232,0.216,1.682,0.647c0.449,0.431,0.674,0.94,0.674,1.526c0,0.419-0.098,0.838-0.293,1.257
			c-0.301,0.659-0.79,1.357-1.465,2.093C9.29,9.183,8.657,9.851,8.404,10.078h2.161c0.439,0,0.748-0.016,0.924-0.049
			c0.177-0.032,0.337-0.098,0.479-0.198c0.143-0.1,0.267-0.241,0.373-0.424H12.567z"/>
		<path style="fill:#0066FF;" d="M28.255,13.447v0.226c-0.614-0.309-1.127-0.671-1.538-1.086c-0.586-0.59-1.038-1.286-1.355-2.087
			s-0.476-1.634-0.476-2.497c0-1.261,0.312-2.412,0.934-3.451c0.623-1.04,1.435-1.783,2.436-2.231v0.256
			c-0.5,0.277-0.912,0.655-1.233,1.135s-0.562,1.088-0.72,1.825c-0.159,0.737-0.238,1.506-0.238,2.308
			c0,0.871,0.067,1.662,0.202,2.374c0.106,0.562,0.234,1.012,0.384,1.352c0.151,0.339,0.353,0.666,0.607,0.979
			S27.844,13.163,28.255,13.447z"/>
		<path style="fill:#0066FF;" d="M41.312,2.724l-0.476,1.038h-2.49l-0.543,1.111c1.078,0.159,1.933,0.56,2.563,1.202
			c0.541,0.554,0.812,1.205,0.812,1.953c0,0.436-0.089,0.838-0.266,1.209c-0.177,0.37-0.4,0.686-0.668,0.946
			s-0.568,0.47-0.897,0.628c-0.468,0.224-0.948,0.336-1.44,0.336c-0.497,0-0.858-0.084-1.083-0.253
			c-0.226-0.168-0.339-0.355-0.339-0.558c0-0.114,0.047-0.215,0.14-0.302c0.094-0.087,0.212-0.131,0.354-0.131
			c0.105,0,0.198,0.016,0.277,0.049c0.08,0.033,0.215,0.116,0.406,0.25c0.305,0.212,0.614,0.317,0.928,0.317
			c0.476,0,0.894-0.18,1.254-0.54c0.36-0.36,0.54-0.798,0.54-1.315c0-0.5-0.161-0.967-0.482-1.4
			c-0.321-0.434-0.765-0.768-1.331-1.004c-0.443-0.184-1.048-0.289-1.812-0.317l1.587-3.217H41.312z"/>
		<path style="fill:#0066FF;" d="M42.229,2.577V2.321c0.619,0.305,1.133,0.666,1.544,1.081c0.582,0.594,1.031,1.291,1.349,2.09
			c0.317,0.799,0.476,1.632,0.476,2.5c0,1.261-0.311,2.412-0.931,3.451c-0.621,1.04-1.434,1.783-2.438,2.231v-0.226
			c0.5-0.28,0.913-0.66,1.236-1.138c0.324-0.478,0.563-1.086,0.72-1.825c0.157-0.739,0.235-1.509,0.235-2.311
			c0-0.866-0.067-1.658-0.201-2.374c-0.102-0.562-0.229-1.011-0.381-1.349c-0.153-0.338-0.355-0.664-0.607-0.977
			C42.978,3.161,42.645,2.862,42.229,2.577z"/>
	</g>
	<g>
		<path style="fill:#0066FF;" d="M72.362,28.157l-0.58,1.593h-4.883v-0.226c1.437-1.311,2.447-2.381,3.033-3.211
			s0.879-1.589,0.879-2.276c0-0.525-0.16-0.956-0.481-1.294c-0.322-0.338-0.706-0.507-1.154-0.507c-0.406,0-0.771,0.119-1.096,0.357
			c-0.323,0.238-0.562,0.587-0.717,1.047h-0.226c0.102-0.753,0.363-1.331,0.784-1.733c0.421-0.403,0.947-0.604,1.578-0.604
			c0.671,0,1.231,0.216,1.681,0.647c0.45,0.431,0.675,0.94,0.675,1.526c0,0.419-0.098,0.838-0.293,1.257
			c-0.301,0.659-0.789,1.357-1.465,2.093c-1.014,1.107-1.646,1.774-1.898,2.002h2.161c0.439,0,0.747-0.016,0.925-0.049
			c0.177-0.032,0.336-0.099,0.479-0.198s0.267-0.241,0.373-0.424H72.362z"/>
		<path style="fill:#0066FF;" d="M89.395,21.474l-0.476,1.038h-2.49l-0.544,1.111c1.079,0.159,1.934,0.56,2.564,1.202
			c0.541,0.554,0.812,1.205,0.812,1.953c0,0.436-0.089,0.838-0.266,1.209c-0.177,0.37-0.399,0.686-0.669,0.945
			c-0.268,0.261-0.567,0.471-0.896,0.629c-0.468,0.224-0.948,0.336-1.44,0.336c-0.497,0-0.857-0.085-1.084-0.253
			c-0.226-0.169-0.339-0.355-0.339-0.559c0-0.114,0.047-0.215,0.141-0.303c0.094-0.087,0.212-0.131,0.354-0.131
			c0.105,0,0.198,0.016,0.277,0.049s0.215,0.116,0.406,0.25c0.305,0.212,0.614,0.317,0.928,0.317c0.476,0,0.894-0.18,1.254-0.54
			c0.36-0.36,0.54-0.798,0.54-1.315c0-0.5-0.16-0.967-0.482-1.4c-0.321-0.434-0.765-0.768-1.33-1.004
			c-0.443-0.184-1.048-0.289-1.812-0.317l1.587-3.217H89.395z"/>
	</g>
	<g>
		<path style="fill:#0066FF;" d="M59.844,41.799c0.236-0.558,0.534-0.988,0.895-1.291c0.359-0.304,0.809-0.455,1.346-0.455
			c0.663,0,1.172,0.216,1.525,0.646c0.269,0.322,0.403,0.666,0.403,1.032c0,0.602-0.379,1.225-1.136,1.867
			c0.509,0.199,0.894,0.484,1.154,0.854c0.26,0.37,0.391,0.806,0.391,1.307c0,0.716-0.229,1.336-0.684,1.861
			c-0.595,0.684-1.455,1.025-2.582,1.025c-0.558,0-0.938-0.069-1.139-0.207c-0.201-0.139-0.302-0.287-0.302-0.446
			c0-0.118,0.048-0.222,0.144-0.312c0.095-0.089,0.21-0.134,0.345-0.134c0.102,0,0.205,0.017,0.312,0.049
			c0.068,0.021,0.226,0.095,0.47,0.223s0.413,0.204,0.507,0.229c0.15,0.044,0.311,0.066,0.481,0.066c0.415,0,0.776-0.16,1.084-0.482
			c0.307-0.321,0.46-0.701,0.46-1.141c0-0.321-0.07-0.635-0.213-0.94c-0.106-0.228-0.222-0.4-0.348-0.519
			c-0.176-0.163-0.416-0.311-0.721-0.442s-0.616-0.198-0.934-0.198h-0.195v-0.184c0.321-0.04,0.644-0.156,0.967-0.348
			c0.324-0.191,0.559-0.421,0.705-0.689s0.22-0.563,0.22-0.885c0-0.42-0.131-0.758-0.394-1.017s-0.589-0.388-0.979-0.388
			c-0.631,0-1.157,0.338-1.581,1.014L59.844,41.799z"/>
	</g>
	<g>
		<path style="fill:#0066FF;" d="M60.379,4.463h1.422l1.501,2.301l1.521-2.301l1.336,0.031l-2.203,3.156L66.256,11h-1.403
			l-1.624-2.454L61.654,11h-1.392l2.301-3.351L60.379,4.463z"/>
	</g>
	<g>
		<path style="fill:#0066FF;" d="M40.564,23.213h1.422l1.501,2.301l1.52-2.301l1.336,0.031l-2.203,3.156l2.301,3.351h-1.403
			l-1.624-2.454L41.84,29.75h-1.392l2.301-3.351L40.564,23.213z"/>
	</g>
	<g>
		<path style="fill:#0066FF;" d="M40.564,41.963h1.422l1.501,2.301l1.52-2.301l1.336,0.031l-2.203,3.155l2.301,3.351h-1.403
			l-1.624-2.453L41.84,48.5h-1.392l2.301-3.351L40.564,41.963z"/>
	</g>
	<g>
		<path style="fill:#0066FF;" d="M0.226,7.484h6.409v0.604H0.226V7.484z"/>
		<path style="fill:#0066FF;" d="M15.536,7.484h6.409v0.604h-6.409V7.484z"/>
		<path style="fill:#0066FF;" d="M29.284,7.484h6.409v0.604h-6.409V7.484z"/>
		<path style="fill:#0066FF;" d="M49.432,6.367h6.409v0.592h-6.409V6.367z M49.432,8.644h6.409v0.604h-6.409V8.644z"/>
	</g>
	<g>
		<path style="fill:#0066FF;" d="M49.444,25.117h6.409v0.592h-6.409V25.117z M49.444,27.394h6.409v0.604h-6.409V27.394z"/>
		<path style="fill:#0066FF;" d="M60.029,26.234h6.409v0.604h-6.409V26.234z"/>
		<path style="fill:#0066FF;" d="M78.051,23.341h0.599v2.917h2.899v0.592h-2.899v2.899h-0.599v-2.899H75.14v-0.592h2.911V23.341z"/>
	</g>
	<g>
		<path style="fill:#0066FF;" d="M49.444,43.867h6.409v0.592h-6.409V43.867z M49.444,46.145h6.409v0.604h-6.409V46.145z"/>
	</g>
</g>
<g id="theGroup">
</g>
</svg>
