<?xml version="1.0" encoding="iso-8859-1"?>
<!-- Generator: Adobe Illustrator 16.0.0, SVG Export Plug-In . SVG Version: 6.00 Build 0)  -->
<!DOCTYPE svg PUBLIC "-//W3C//DTD SVG 1.1//EN" "http://www.w3.org/Graphics/SVG/1.1/DTD/svg11.dtd">
<svg version="1.1" id="Lager_1" xmlns="http://www.w3.org/2000/svg" xmlns:xlink="http://www.w3.org/1999/xlink" x="0px" y="0px"
	 width="142.001px" height="15.474px" viewBox="0 0 142.001 15.474" style="enable-background:new 0 0 142.001 15.474;"
	 xml:space="preserve">
<g>
	<g>
		<path d="M37.771,1.122v0.131c-0.311,0.03-0.564,0.092-0.76,0.185c-0.197,0.093-0.391,0.235-0.583,0.425
			c-0.191,0.19-0.351,0.403-0.476,0.637c-0.126,0.234-0.231,0.513-0.316,0.834c0.339-0.232,0.679-0.349,1.02-0.349
			c0.327,0,0.611,0.132,0.851,0.395c0.24,0.264,0.36,0.603,0.36,1.017c0,0.4-0.121,0.764-0.363,1.094
			c-0.292,0.4-0.678,0.6-1.158,0.6c-0.327,0-0.604-0.108-0.833-0.324c-0.447-0.421-0.67-0.967-0.67-1.638
			c0-0.428,0.086-0.835,0.257-1.221c0.172-0.386,0.417-0.728,0.736-1.027s0.624-0.5,0.916-0.604
			c0.292-0.104,0.563-0.155,0.815-0.155H37.771z M35.576,3.592c-0.042,0.317-0.063,0.574-0.063,0.769
			c0,0.226,0.042,0.471,0.125,0.736c0.083,0.265,0.208,0.475,0.372,0.63c0.12,0.111,0.266,0.166,0.438,0.166
			c0.205,0,0.388-0.097,0.549-0.29s0.242-0.468,0.242-0.826c0-0.402-0.08-0.75-0.24-1.044c-0.16-0.294-0.387-0.441-0.681-0.441
			c-0.09,0-0.186,0.019-0.288,0.056C35.927,3.387,35.775,3.468,35.576,3.592z"/>
	</g>
	<g>
		<path d="M1.257,3.364h4.437v0.232l-2.759,8.215H2.252l2.472-7.452H2.447c-0.459,0-0.787,0.055-0.982,0.165
			C1.123,4.711,0.849,5,0.641,5.391L0.464,5.323L1.257,3.364z"/>
		<path d="M6.921,13.722v-0.269c0.419-0.138,0.744-0.353,0.974-0.644c0.229-0.291,0.345-0.6,0.345-0.925
			c0-0.077-0.018-0.143-0.055-0.195c-0.028-0.037-0.057-0.055-0.085-0.055c-0.045,0-0.143,0.04-0.293,0.122
			c-0.073,0.036-0.151,0.055-0.232,0.055c-0.199,0-0.358-0.059-0.476-0.177c-0.118-0.118-0.177-0.281-0.177-0.488
			c0-0.199,0.076-0.37,0.229-0.513c0.152-0.143,0.339-0.214,0.559-0.214c0.269,0,0.507,0.117,0.717,0.351
			c0.209,0.234,0.314,0.545,0.314,0.931c0,0.42-0.146,0.81-0.437,1.169C8.013,13.23,7.552,13.515,6.921,13.722z"/>
		<path d="M16.669,10.048l-0.58,1.593h-4.883v-0.226c1.437-1.311,2.447-2.381,3.033-3.211s0.879-1.589,0.879-2.276
			c0-0.525-0.161-0.956-0.482-1.294s-0.706-0.507-1.154-0.507c-0.407,0-0.772,0.119-1.095,0.357
			c-0.324,0.238-0.562,0.587-0.717,1.047h-0.226c0.102-0.753,0.363-1.331,0.784-1.733c0.421-0.403,0.947-0.604,1.578-0.604
			c0.671,0,1.232,0.216,1.682,0.647c0.449,0.431,0.674,0.94,0.674,1.526c0,0.419-0.098,0.838-0.293,1.257
			c-0.301,0.659-0.79,1.357-1.465,2.093c-1.013,1.107-1.646,1.774-1.898,2.002h2.161c0.439,0,0.748-0.016,0.924-0.049
			c0.177-0.032,0.337-0.099,0.479-0.198c0.143-0.1,0.267-0.241,0.373-0.424H16.669z"/>
		<path d="M23.29,4.176l2.014-0.982h0.202v6.988c0,0.464,0.019,0.753,0.058,0.867c0.039,0.113,0.119,0.201,0.241,0.262
			c0.122,0.062,0.37,0.096,0.745,0.104v0.226h-3.113v-0.226c0.391-0.009,0.643-0.042,0.757-0.101
			c0.114-0.06,0.193-0.139,0.238-0.238c0.044-0.1,0.067-0.397,0.067-0.895V5.714c0-0.602-0.021-0.988-0.061-1.159
			c-0.028-0.13-0.081-0.226-0.156-0.287s-0.166-0.092-0.271-0.092c-0.15,0-0.36,0.063-0.628,0.189L23.29,4.176z"/>
		<path d="M28.527,7.552c0-0.944,0.143-1.757,0.427-2.439c0.285-0.681,0.663-1.189,1.135-1.523c0.366-0.264,0.745-0.396,1.135-0.396
			c0.635,0,1.205,0.323,1.709,0.971c0.631,0.801,0.946,1.888,0.946,3.259c0,0.961-0.139,1.776-0.415,2.448
			c-0.277,0.671-0.63,1.158-1.059,1.461c-0.43,0.304-0.843,0.455-1.242,0.455c-0.79,0-1.447-0.466-1.971-1.397
			C28.749,9.604,28.527,8.658,28.527,7.552z M29.723,7.704c0,1.139,0.14,2.069,0.421,2.789c0.231,0.606,0.578,0.909,1.037,0.909
			c0.22,0,0.448-0.099,0.684-0.296c0.236-0.197,0.415-0.528,0.537-0.991c0.188-0.7,0.281-1.688,0.281-2.961
			c0-0.944-0.098-1.731-0.293-2.362c-0.146-0.468-0.336-0.799-0.568-0.995c-0.167-0.135-0.368-0.202-0.604-0.202
			c-0.277,0-0.523,0.124-0.739,0.373c-0.293,0.337-0.492,0.869-0.598,1.593S29.723,7,29.723,7.704z"/>
		<path d="M54.963,3.364V3.59c-0.215,0-0.391,0.039-0.524,0.116c-0.135,0.077-0.263,0.222-0.385,0.434
			c-0.082,0.142-0.209,0.482-0.385,1.019l-2.307,6.671h-0.244l-1.886-5.292l-1.874,5.292h-0.22l-2.46-6.873
			c-0.183-0.513-0.299-0.815-0.348-0.909c-0.082-0.155-0.192-0.27-0.333-0.345c-0.14-0.075-0.331-0.113-0.57-0.113V3.364h3.063V3.59
			h-0.146c-0.215,0-0.38,0.049-0.494,0.146S45.68,3.952,45.68,4.091c0,0.142,0.089,0.47,0.269,0.982l1.63,4.645l1.373-3.949
			l-0.244-0.696l-0.195-0.556c-0.085-0.203-0.181-0.382-0.287-0.537c-0.053-0.077-0.118-0.142-0.195-0.195
			c-0.102-0.073-0.203-0.126-0.305-0.158c-0.078-0.024-0.2-0.037-0.366-0.037V3.364h3.223V3.59h-0.22
			c-0.228,0-0.395,0.049-0.501,0.146c-0.105,0.098-0.158,0.23-0.158,0.397c0,0.208,0.091,0.57,0.274,1.086l1.587,4.498l1.575-4.559
			c0.179-0.504,0.269-0.854,0.269-1.05c0-0.094-0.03-0.181-0.088-0.262c-0.059-0.082-0.133-0.139-0.223-0.171
			c-0.155-0.057-0.356-0.086-0.604-0.086V3.364H54.963z"/>
		<path d="M59.441,8.155c-0.004,0.83,0.197,1.481,0.604,1.953c0.407,0.473,0.885,0.708,1.435,0.708c0.366,0,0.685-0.101,0.955-0.302
			s0.498-0.546,0.681-1.034l0.189,0.121c-0.086,0.558-0.334,1.065-0.745,1.523c-0.411,0.458-0.925,0.687-1.544,0.687
			c-0.671,0-1.246-0.262-1.724-0.784c-0.479-0.522-0.717-1.226-0.717-2.109c0-0.956,0.245-1.701,0.735-2.236
			s1.106-0.803,1.847-0.803c0.626,0,1.141,0.207,1.544,0.62s0.604,0.965,0.604,1.657H59.441z M59.441,7.802h2.588
			c-0.021-0.358-0.063-0.61-0.128-0.757c-0.102-0.228-0.253-0.407-0.455-0.537c-0.201-0.13-0.412-0.195-0.631-0.195
			c-0.338,0-0.64,0.131-0.907,0.394C59.641,6.968,59.486,7.333,59.441,7.802z"/>
		<path d="M65.897,2.961v7.416c0,0.351,0.025,0.582,0.076,0.696c0.051,0.113,0.129,0.2,0.235,0.259
			c0.106,0.06,0.303,0.089,0.592,0.089v0.22H64.06v-0.22c0.256,0,0.431-0.026,0.525-0.079s0.167-0.141,0.22-0.263
			s0.079-0.356,0.079-0.702V5.299c0-0.63-0.014-1.018-0.042-1.163c-0.028-0.144-0.074-0.243-0.137-0.296
			c-0.063-0.053-0.144-0.08-0.241-0.08c-0.106,0-0.24,0.033-0.403,0.098l-0.104-0.213l1.667-0.684H65.897z"/>
		<path d="M69.22,2.961v7.416c0,0.351,0.025,0.582,0.076,0.696c0.051,0.113,0.129,0.2,0.235,0.259
			c0.106,0.06,0.303,0.089,0.592,0.089v0.22h-2.741v-0.22c0.256,0,0.431-0.026,0.525-0.079s0.167-0.141,0.22-0.263
			s0.079-0.356,0.079-0.702V5.299c0-0.63-0.014-1.018-0.042-1.163c-0.028-0.144-0.074-0.243-0.137-0.296
			c-0.063-0.053-0.144-0.08-0.241-0.08c-0.106,0-0.24,0.033-0.403,0.098l-0.104-0.213l1.667-0.684H69.22z"/>
		<path d="M71.56,8.155c-0.004,0.83,0.198,1.481,0.604,1.953c0.407,0.473,0.886,0.708,1.435,0.708c0.366,0,0.685-0.101,0.955-0.302
			s0.498-0.546,0.681-1.034l0.189,0.121c-0.086,0.558-0.334,1.065-0.745,1.523s-0.926,0.687-1.544,0.687
			c-0.671,0-1.246-0.262-1.725-0.784c-0.478-0.522-0.717-1.226-0.717-2.109c0-0.956,0.245-1.701,0.735-2.236
			s1.105-0.803,1.847-0.803c0.626,0,1.142,0.207,1.544,0.62s0.604,0.965,0.604,1.657H71.56z M71.56,7.802h2.588
			c-0.02-0.358-0.062-0.61-0.128-0.757c-0.102-0.228-0.253-0.407-0.454-0.537c-0.202-0.13-0.412-0.195-0.632-0.195
			c-0.338,0-0.641,0.131-0.906,0.394C71.761,6.968,71.604,7.333,71.56,7.802z"/>
		<path d="M77.729,5.885v1.258c0.468-0.838,0.948-1.258,1.44-1.258c0.224,0,0.409,0.068,0.556,0.205
			c0.146,0.137,0.22,0.294,0.22,0.473c0,0.159-0.053,0.293-0.159,0.403c-0.105,0.11-0.231,0.165-0.378,0.165
			c-0.143,0-0.303-0.07-0.479-0.21c-0.177-0.14-0.308-0.21-0.394-0.21c-0.073,0-0.152,0.041-0.238,0.122
			c-0.183,0.167-0.372,0.441-0.567,0.824v2.679c0,0.31,0.039,0.544,0.116,0.702c0.053,0.11,0.146,0.202,0.28,0.274
			c0.135,0.074,0.328,0.11,0.58,0.11v0.22h-2.862v-0.22c0.284,0,0.496-0.045,0.635-0.134c0.102-0.065,0.173-0.169,0.213-0.312
			c0.021-0.069,0.031-0.267,0.031-0.593V8.217c0-0.651-0.014-1.039-0.04-1.163c-0.026-0.124-0.075-0.214-0.146-0.271
			s-0.159-0.085-0.266-0.085c-0.126,0-0.269,0.031-0.427,0.091l-0.062-0.22l1.69-0.684H77.729z"/>
		<path d="M84.198,3.364h4.437v0.232l-2.759,8.215h-0.684l2.473-7.452h-2.277c-0.46,0-0.787,0.055-0.982,0.165
			C84.063,4.711,83.789,5,83.581,5.391l-0.177-0.067L84.198,3.364z"/>
		<path d="M94.922,10.048l-0.58,1.593h-4.883v-0.226c1.437-1.311,2.447-2.381,3.033-3.211s0.879-1.589,0.879-2.276
			c0-0.525-0.16-0.956-0.481-1.294c-0.322-0.338-0.706-0.507-1.154-0.507c-0.406,0-0.771,0.119-1.096,0.357
			c-0.323,0.238-0.562,0.587-0.717,1.047h-0.226c0.102-0.753,0.363-1.331,0.784-1.733c0.421-0.403,0.947-0.604,1.578-0.604
			c0.671,0,1.231,0.216,1.681,0.647c0.45,0.431,0.675,0.94,0.675,1.526c0,0.419-0.098,0.838-0.293,1.257
			c-0.301,0.659-0.789,1.357-1.465,2.093c-1.014,1.107-1.646,1.774-1.898,2.002h2.161c0.439,0,0.747-0.016,0.925-0.049
			c0.177-0.032,0.336-0.099,0.479-0.198s0.267-0.241,0.373-0.424H94.922z"/>
		<path d="M95.892,7.552c0-0.944,0.143-1.757,0.428-2.439c0.285-0.681,0.663-1.189,1.135-1.523c0.367-0.264,0.745-0.396,1.136-0.396
			c0.635,0,1.204,0.323,1.709,0.971c0.631,0.801,0.946,1.888,0.946,3.259c0,0.961-0.139,1.776-0.415,2.448
			c-0.277,0.671-0.63,1.158-1.06,1.461c-0.429,0.304-0.843,0.455-1.242,0.455c-0.789,0-1.446-0.466-1.971-1.397
			C96.114,9.604,95.892,8.658,95.892,7.552z M97.089,7.704c0,1.139,0.14,2.069,0.421,2.789c0.231,0.606,0.577,0.909,1.037,0.909
			c0.22,0,0.448-0.099,0.684-0.296c0.236-0.197,0.415-0.528,0.537-0.991c0.188-0.7,0.281-1.688,0.281-2.961
			c0-0.944-0.098-1.731-0.293-2.362c-0.146-0.468-0.336-0.799-0.567-0.995c-0.167-0.135-0.369-0.202-0.604-0.202
			c-0.277,0-0.523,0.124-0.739,0.373c-0.293,0.337-0.492,0.869-0.598,1.593S97.089,7,97.089,7.704z"/>
		<path d="M102.142,7.552c0-0.944,0.143-1.757,0.428-2.439c0.285-0.681,0.663-1.189,1.135-1.523
			c0.367-0.264,0.745-0.396,1.136-0.396c0.635,0,1.204,0.323,1.709,0.971c0.631,0.801,0.946,1.888,0.946,3.259
			c0,0.961-0.139,1.776-0.415,2.448c-0.277,0.671-0.63,1.158-1.06,1.461c-0.429,0.304-0.843,0.455-1.242,0.455
			c-0.789,0-1.446-0.466-1.971-1.397C102.364,9.604,102.142,8.658,102.142,7.552z M103.339,7.704c0,1.139,0.14,2.069,0.421,2.789
			c0.231,0.606,0.577,0.909,1.037,0.909c0.22,0,0.448-0.099,0.684-0.296c0.236-0.197,0.415-0.528,0.537-0.991
			c0.188-0.7,0.281-1.688,0.281-2.961c0-0.944-0.098-1.731-0.293-2.362c-0.146-0.468-0.336-0.799-0.567-0.995
			c-0.167-0.135-0.369-0.202-0.604-0.202c-0.277,0-0.523,0.124-0.739,0.373c-0.293,0.337-0.492,0.869-0.598,1.593
			S103.339,7,103.339,7.704z"/>
		<path d="M108.392,7.552c0-0.944,0.143-1.757,0.428-2.439c0.285-0.681,0.663-1.189,1.135-1.523
			c0.367-0.264,0.745-0.396,1.136-0.396c0.635,0,1.204,0.323,1.709,0.971c0.631,0.801,0.946,1.888,0.946,3.259
			c0,0.961-0.139,1.776-0.415,2.448c-0.277,0.671-0.63,1.158-1.06,1.461c-0.429,0.304-0.843,0.455-1.242,0.455
			c-0.789,0-1.446-0.466-1.971-1.397C108.614,9.604,108.392,8.658,108.392,7.552z M109.589,7.704c0,1.139,0.14,2.069,0.421,2.789
			c0.231,0.606,0.577,0.909,1.037,0.909c0.22,0,0.448-0.099,0.684-0.296c0.236-0.197,0.415-0.528,0.537-0.991
			c0.188-0.7,0.281-1.688,0.281-2.961c0-0.944-0.098-1.731-0.293-2.362c-0.146-0.468-0.336-0.799-0.567-0.995
			c-0.167-0.135-0.369-0.202-0.604-0.202c-0.277,0-0.523,0.124-0.739,0.373c-0.293,0.337-0.492,0.869-0.598,1.593
			S109.589,7,109.589,7.704z"/>
		<path d="M114.642,7.552c0-0.944,0.143-1.757,0.428-2.439c0.285-0.681,0.663-1.189,1.135-1.523
			c0.367-0.264,0.745-0.396,1.136-0.396c0.635,0,1.204,0.323,1.709,0.971c0.631,0.801,0.946,1.888,0.946,3.259
			c0,0.961-0.139,1.776-0.415,2.448c-0.277,0.671-0.63,1.158-1.06,1.461c-0.429,0.304-0.843,0.455-1.242,0.455
			c-0.789,0-1.446-0.466-1.971-1.397C114.864,9.604,114.642,8.658,114.642,7.552z M115.839,7.704c0,1.139,0.14,2.069,0.421,2.789
			c0.231,0.606,0.577,0.909,1.037,0.909c0.22,0,0.448-0.099,0.684-0.296c0.236-0.197,0.415-0.528,0.537-0.991
			c0.188-0.7,0.281-1.688,0.281-2.961c0-0.944-0.098-1.731-0.293-2.362c-0.146-0.468-0.336-0.799-0.567-0.995
			c-0.167-0.135-0.369-0.202-0.604-0.202c-0.277,0-0.523,0.124-0.739,0.373c-0.293,0.337-0.492,0.869-0.598,1.593
			S115.839,7,115.839,7.704z"/>
		<path d="M120.892,7.552c0-0.944,0.143-1.757,0.428-2.439c0.285-0.681,0.663-1.189,1.135-1.523
			c0.367-0.264,0.745-0.396,1.136-0.396c0.635,0,1.204,0.323,1.709,0.971c0.631,0.801,0.946,1.888,0.946,3.259
			c0,0.961-0.139,1.776-0.415,2.448c-0.277,0.671-0.63,1.158-1.06,1.461c-0.429,0.304-0.843,0.455-1.242,0.455
			c-0.789,0-1.446-0.466-1.971-1.397C121.114,9.604,120.892,8.658,120.892,7.552z M122.089,7.704c0,1.139,0.14,2.069,0.421,2.789
			c0.231,0.606,0.577,0.909,1.037,0.909c0.22,0,0.448-0.099,0.684-0.296c0.236-0.197,0.415-0.528,0.537-0.991
			c0.188-0.7,0.281-1.688,0.281-2.961c0-0.944-0.098-1.731-0.293-2.362c-0.146-0.468-0.336-0.799-0.567-0.995
			c-0.167-0.135-0.369-0.202-0.604-0.202c-0.277,0-0.523,0.124-0.739,0.373c-0.293,0.337-0.492,0.869-0.598,1.593
			S122.089,7,122.089,7.704z"/>
		<path d="M141.903,3.364V3.59c-0.216,0-0.391,0.039-0.524,0.116c-0.135,0.077-0.263,0.222-0.385,0.434
			c-0.081,0.142-0.21,0.482-0.385,1.019l-2.307,6.671h-0.244l-1.887-5.292l-1.873,5.292h-0.22l-2.46-6.873
			c-0.184-0.513-0.299-0.815-0.348-0.909c-0.082-0.155-0.192-0.27-0.333-0.345s-0.33-0.113-0.57-0.113V3.364h3.063V3.59h-0.146
			c-0.216,0-0.38,0.049-0.494,0.146s-0.171,0.216-0.171,0.354c0,0.142,0.09,0.47,0.269,0.982l1.63,4.645l1.373-3.949l-0.244-0.696
			l-0.195-0.556c-0.085-0.203-0.181-0.382-0.287-0.537c-0.053-0.077-0.118-0.142-0.195-0.195c-0.102-0.073-0.203-0.126-0.305-0.158
			c-0.077-0.024-0.199-0.037-0.366-0.037V3.364h3.223V3.59h-0.22c-0.229,0-0.395,0.049-0.501,0.146
			c-0.105,0.098-0.158,0.23-0.158,0.397c0,0.208,0.092,0.57,0.274,1.086l1.587,4.498l1.574-4.559c0.18-0.504,0.27-0.854,0.27-1.05
			c0-0.094-0.03-0.181-0.089-0.262c-0.06-0.082-0.134-0.139-0.223-0.171c-0.155-0.057-0.356-0.086-0.604-0.086V3.364H141.903z"/>
	</g>
	<g>
		<path d="M20.671,8.442c0,0.188-0.066,0.347-0.198,0.479C20.341,9.054,20.183,9.12,20,9.12c-0.187,0-0.347-0.066-0.479-0.198
			c-0.132-0.133-0.199-0.292-0.199-0.479s0.066-0.347,0.199-0.479C19.653,7.831,19.813,7.765,20,7.765
			c0.183,0,0.341,0.066,0.473,0.198C20.605,8.096,20.671,8.255,20.671,8.442z"/>
	</g>
</g>
<g id="theGroup">
</g>
</svg>
