<?xml version="1.0" encoding="iso-8859-1"?>
<!-- Generator: Adobe Illustrator 16.0.0, SVG Export Plug-In . SVG Version: 6.00 Build 0)  -->
<!DOCTYPE svg PUBLIC "-//W3C//DTD SVG 1.1//EN" "http://www.w3.org/Graphics/SVG/1.1/DTD/svg11.dtd">
<svg version="1.1" id="Lager_1" xmlns="http://www.w3.org/2000/svg" xmlns:xlink="http://www.w3.org/1999/xlink" x="0px" y="0px"
	 width="114.05px" height="17.633px" viewBox="0 0 114.05 17.633" style="enable-background:new 0 0 114.05 17.633;"
	 xml:space="preserve">
<g>
	<g>
		<path style="fill:#0066FF;" d="M31.331,5.085l-0.335,0.921h-2.823v-0.13c0.831-0.758,1.415-1.376,1.754-1.856
			c0.338-0.479,0.508-0.918,0.508-1.316c0-0.304-0.093-0.553-0.279-0.748c-0.186-0.195-0.408-0.293-0.667-0.293
			c-0.235,0-0.446,0.069-0.633,0.207s-0.325,0.339-0.415,0.605h-0.13c0.059-0.435,0.21-0.769,0.453-1.002
			c0.244-0.233,0.548-0.35,0.912-0.35c0.388,0,0.712,0.125,0.972,0.374c0.26,0.25,0.39,0.543,0.39,0.882
			c0,0.242-0.057,0.485-0.169,0.727c-0.174,0.381-0.457,0.785-0.847,1.21c-0.586,0.64-0.952,1.026-1.098,1.158h1.249
			c0.254,0,0.433-0.009,0.535-0.028c0.103-0.019,0.195-0.057,0.277-0.115c0.082-0.058,0.154-0.139,0.215-0.245H31.331z"/>
		<path style="fill:#0066FF;" d="M113.75,5.085l-0.335,0.921h-2.823v-0.13c0.83-0.758,1.415-1.376,1.754-1.856
			c0.339-0.479,0.508-0.918,0.508-1.316c0-0.304-0.093-0.553-0.278-0.748c-0.187-0.195-0.408-0.293-0.667-0.293
			c-0.235,0-0.446,0.069-0.634,0.207c-0.187,0.138-0.325,0.339-0.414,0.605h-0.131c0.059-0.435,0.21-0.769,0.453-1.002
			c0.244-0.233,0.548-0.35,0.912-0.35c0.389,0,0.713,0.125,0.973,0.374c0.26,0.25,0.39,0.543,0.39,0.882
			c0,0.242-0.057,0.485-0.169,0.727c-0.175,0.381-0.457,0.785-0.848,1.21c-0.585,0.64-0.951,1.026-1.097,1.158h1.249
			c0.254,0,0.432-0.009,0.534-0.028s0.194-0.057,0.277-0.115c0.082-0.058,0.154-0.139,0.215-0.245H113.75z"/>
	</g>
	<g>
		<path style="fill:#0066FF;" d="M3.882,14.068v0.227c-0.614-0.31-1.127-0.672-1.538-1.087c-0.586-0.59-1.038-1.286-1.355-2.087
			c-0.317-0.802-0.476-1.634-0.476-2.497c0-1.261,0.312-2.412,0.934-3.451c0.623-1.04,1.435-1.783,2.436-2.231v0.256
			c-0.5,0.277-0.912,0.655-1.233,1.135s-0.562,1.088-0.72,1.825C1.77,6.895,1.69,7.664,1.69,8.466c0,0.871,0.067,1.662,0.202,2.374
			c0.106,0.562,0.234,1.012,0.384,1.352c0.151,0.34,0.353,0.667,0.607,0.98C3.138,13.484,3.471,13.784,3.882,14.068z"/>
		<path style="fill:#0066FF;" d="M10.304,8.569v0.867h-1.11v2.185H8.187V9.436H4.683V8.655l3.839-5.481h0.672v5.396H10.304z
			 M8.187,8.569V4.462L5.281,8.569H8.187z"/>
		<path style="fill:#0066FF;" d="M23.668,3.198V2.942c0.619,0.305,1.133,0.666,1.544,1.081c0.582,0.594,1.031,1.291,1.349,2.09
			c0.317,0.799,0.476,1.632,0.476,2.5c0,1.262-0.311,2.412-0.931,3.451c-0.621,1.04-1.434,1.783-2.438,2.231v-0.227
			c0.5-0.28,0.913-0.66,1.236-1.138c0.324-0.479,0.563-1.087,0.72-1.825c0.157-0.739,0.235-1.509,0.235-2.311
			c0-0.866-0.067-1.658-0.201-2.374c-0.102-0.562-0.229-1.011-0.381-1.349c-0.153-0.338-0.355-0.664-0.607-0.977
			C24.417,3.782,24.083,3.483,23.668,3.198z"/>
		<path style="fill:#0066FF;" d="M52.404,8.569v0.867h-1.11v2.185h-1.007V9.436h-3.503V8.655l3.839-5.481h0.672v5.396H52.404z
			 M50.287,8.569V4.462l-2.905,4.107H50.287z"/>
		<path style="fill:#0066FF;" d="M71.504,8.569v0.867h-1.11v2.185h-1.007V9.436h-3.504V8.655l3.839-5.481h0.672v5.396H71.504z
			 M69.387,8.569V4.462L66.48,8.569H69.387z"/>
		<path style="fill:#0066FF;" d="M92.228,4.156l2.014-0.982h0.202v6.988c0,0.464,0.019,0.753,0.058,0.867
			c0.039,0.113,0.119,0.201,0.241,0.262c0.122,0.062,0.37,0.096,0.745,0.104v0.226h-3.113v-0.226
			c0.391-0.009,0.643-0.042,0.757-0.101c0.114-0.06,0.193-0.139,0.238-0.238s0.067-0.397,0.067-0.895V5.694
			c0-0.602-0.021-0.988-0.062-1.159c-0.028-0.13-0.08-0.226-0.155-0.287c-0.076-0.061-0.166-0.092-0.271-0.092
			c-0.151,0-0.36,0.063-0.629,0.189L92.228,4.156z"/>
		<path style="fill:#0066FF;" d="M102.616,3.174v0.226c-0.537,0.053-0.977,0.16-1.315,0.321c-0.34,0.161-0.676,0.406-1.008,0.735
			c-0.331,0.33-0.606,0.697-0.823,1.102c-0.218,0.405-0.4,0.886-0.547,1.444c0.586-0.403,1.174-0.604,1.764-0.604
			c0.566,0,1.057,0.228,1.472,0.684s0.622,1.042,0.622,1.758c0,0.692-0.209,1.322-0.629,1.893c-0.504,0.691-1.172,1.037-2.002,1.037
			c-0.565,0-1.045-0.188-1.439-0.562c-0.773-0.729-1.16-1.672-1.16-2.832c0-0.741,0.148-1.444,0.445-2.112s0.722-1.259,1.272-1.776
			c0.552-0.517,1.08-0.865,1.584-1.044c0.505-0.179,0.975-0.269,1.41-0.269H102.616z M98.819,7.446
			c-0.073,0.549-0.109,0.993-0.109,1.331c0,0.391,0.071,0.815,0.216,1.273c0.145,0.457,0.359,0.82,0.645,1.089
			c0.207,0.191,0.46,0.287,0.757,0.287c0.354,0,0.67-0.167,0.949-0.5c0.278-0.334,0.418-0.81,0.418-1.429
			c0-0.696-0.139-1.298-0.415-1.807c-0.277-0.509-0.67-0.763-1.179-0.763c-0.154,0-0.32,0.032-0.497,0.098
			C99.427,7.09,99.165,7.23,98.819,7.446z"/>
	</g>
	<g>
		<path style="fill:#0066FF;" d="M21.077,7.665c0.252-0.032,0.421-0.138,0.507-0.317c0.048-0.098,0.073-0.239,0.073-0.423
			c0-0.375-0.133-0.648-0.399-0.818c-0.266-0.169-0.646-0.254-1.142-0.254c-0.572,0-0.979,0.155-1.218,0.466
			c-0.134,0.172-0.221,0.428-0.262,0.767H17.61c0.021-0.808,0.281-1.37,0.783-1.686s1.084-0.474,1.747-0.474
			c0.768,0,1.392,0.146,1.872,0.439c0.476,0.293,0.713,0.749,0.713,1.367v3.767c0,0.113,0.023,0.205,0.07,0.273
			c0.046,0.069,0.146,0.104,0.296,0.104c0.049,0,0.104-0.004,0.165-0.01c0.061-0.006,0.126-0.015,0.195-0.027v0.812
			c-0.171,0.049-0.301,0.079-0.391,0.092c-0.09,0.013-0.212,0.019-0.366,0.019c-0.379,0-0.653-0.135-0.824-0.403
			c-0.089-0.142-0.152-0.344-0.189-0.604c-0.224,0.293-0.545,0.547-0.964,0.763c-0.419,0.216-0.881,0.323-1.386,0.323
			c-0.606,0-1.102-0.184-1.486-0.552c-0.384-0.368-0.577-0.828-0.577-1.381c0-0.605,0.189-1.075,0.568-1.408
			c0.378-0.333,0.875-0.539,1.489-0.616L21.077,7.665z M18.764,10.633c0.231,0.183,0.506,0.274,0.824,0.274
			c0.387,0,0.761-0.09,1.123-0.269c0.61-0.296,0.916-0.782,0.916-1.456V8.299c-0.134,0.086-0.307,0.157-0.518,0.214
			c-0.211,0.057-0.418,0.098-0.622,0.122l-0.664,0.085c-0.398,0.053-0.697,0.136-0.897,0.25c-0.34,0.19-0.51,0.495-0.51,0.913
			C18.416,10.2,18.531,10.45,18.764,10.633z"/>
		<path style="fill:#0066FF;" d="M57.354,7.665c0.252-0.032,0.421-0.138,0.507-0.317c0.048-0.098,0.073-0.239,0.073-0.423
			c0-0.375-0.133-0.648-0.399-0.818c-0.266-0.169-0.646-0.254-1.142-0.254c-0.572,0-0.979,0.155-1.218,0.466
			c-0.134,0.172-0.221,0.428-0.262,0.767h-1.025c0.021-0.808,0.281-1.37,0.783-1.686s1.084-0.474,1.747-0.474
			c0.768,0,1.392,0.146,1.872,0.439c0.476,0.293,0.714,0.749,0.714,1.367v3.767c0,0.113,0.023,0.205,0.07,0.273
			c0.047,0.069,0.145,0.104,0.295,0.104c0.049,0,0.104-0.004,0.166-0.01c0.061-0.006,0.125-0.015,0.195-0.027v0.812
			c-0.172,0.049-0.303,0.079-0.391,0.092c-0.09,0.013-0.213,0.019-0.367,0.019c-0.379,0-0.653-0.135-0.824-0.403
			c-0.089-0.142-0.152-0.344-0.189-0.604c-0.224,0.293-0.545,0.547-0.964,0.763c-0.419,0.216-0.881,0.323-1.386,0.323
			c-0.606,0-1.102-0.184-1.486-0.552c-0.384-0.368-0.577-0.828-0.577-1.381c0-0.605,0.189-1.075,0.568-1.408
			c0.378-0.333,0.875-0.539,1.489-0.616L57.354,7.665z M55.041,10.633c0.231,0.183,0.506,0.274,0.824,0.274
			c0.387,0,0.761-0.09,1.123-0.269c0.61-0.296,0.916-0.782,0.916-1.456V8.299c-0.134,0.086-0.307,0.157-0.518,0.214
			c-0.211,0.057-0.418,0.098-0.622,0.122L56.1,8.721c-0.398,0.053-0.697,0.136-0.897,0.25c-0.34,0.19-0.51,0.495-0.51,0.913
			C54.692,10.2,54.808,10.45,55.041,10.633z"/>
		<path style="fill:#0066FF;" d="M76.443,7.665c0.252-0.032,0.421-0.138,0.506-0.317c0.049-0.098,0.073-0.239,0.073-0.423
			c0-0.375-0.133-0.648-0.398-0.818c-0.267-0.169-0.647-0.254-1.143-0.254c-0.572,0-0.979,0.155-1.218,0.466
			c-0.135,0.172-0.222,0.428-0.263,0.767h-1.025c0.021-0.808,0.282-1.37,0.784-1.686s1.084-0.474,1.746-0.474
			c0.769,0,1.393,0.146,1.872,0.439c0.476,0.293,0.713,0.749,0.713,1.367v3.767c0,0.113,0.023,0.205,0.07,0.273
			c0.047,0.069,0.146,0.104,0.296,0.104c0.049,0,0.104-0.004,0.165-0.01c0.061-0.006,0.126-0.015,0.195-0.027v0.812
			c-0.171,0.049-0.302,0.079-0.391,0.092c-0.09,0.013-0.212,0.019-0.366,0.019c-0.379,0-0.653-0.135-0.824-0.403
			c-0.09-0.142-0.152-0.344-0.189-0.604c-0.224,0.293-0.545,0.547-0.964,0.763s-0.881,0.323-1.386,0.323
			c-0.606,0-1.102-0.184-1.486-0.552s-0.577-0.828-0.577-1.381c0-0.605,0.189-1.075,0.568-1.408
			c0.378-0.333,0.875-0.539,1.489-0.616L76.443,7.665z M74.13,10.633c0.231,0.183,0.506,0.274,0.824,0.274
			c0.386,0,0.761-0.09,1.123-0.269c0.609-0.296,0.915-0.782,0.915-1.456V8.299c-0.134,0.086-0.307,0.157-0.518,0.214
			s-0.418,0.098-0.621,0.122l-0.664,0.085c-0.398,0.053-0.697,0.136-0.898,0.25c-0.34,0.19-0.509,0.495-0.509,0.913
			C73.782,10.2,73.897,10.45,74.13,10.633z"/>
		<path style="fill:#0066FF;" d="M107.771,7.665c0.252-0.032,0.421-0.138,0.506-0.317c0.049-0.098,0.073-0.239,0.073-0.423
			c0-0.375-0.133-0.648-0.398-0.818c-0.267-0.169-0.647-0.254-1.143-0.254c-0.572,0-0.979,0.155-1.218,0.466
			c-0.135,0.172-0.222,0.428-0.263,0.767h-1.025c0.021-0.808,0.282-1.37,0.784-1.686s1.084-0.474,1.746-0.474
			c0.769,0,1.393,0.146,1.872,0.439c0.476,0.293,0.713,0.749,0.713,1.367v3.767c0,0.113,0.023,0.205,0.07,0.273
			c0.047,0.069,0.146,0.104,0.296,0.104c0.049,0,0.104-0.004,0.165-0.01c0.061-0.006,0.126-0.015,0.195-0.027v0.812
			c-0.171,0.049-0.302,0.079-0.391,0.092c-0.09,0.013-0.212,0.019-0.366,0.019c-0.379,0-0.653-0.135-0.824-0.403
			c-0.09-0.142-0.152-0.344-0.189-0.604c-0.224,0.293-0.545,0.547-0.964,0.763s-0.881,0.323-1.386,0.323
			c-0.606,0-1.102-0.184-1.486-0.552s-0.577-0.828-0.577-1.381c0-0.605,0.189-1.075,0.568-1.408
			c0.378-0.333,0.875-0.539,1.489-0.616L107.771,7.665z M105.457,10.633c0.231,0.183,0.506,0.274,0.824,0.274
			c0.386,0,0.761-0.09,1.123-0.269c0.609-0.296,0.915-0.782,0.915-1.456V8.299c-0.134,0.086-0.307,0.157-0.518,0.214
			s-0.418,0.098-0.621,0.122l-0.664,0.085c-0.398,0.053-0.697,0.136-0.898,0.25c-0.34,0.19-0.509,0.495-0.509,0.913
			C105.109,10.2,105.225,10.45,105.457,10.633z"/>
	</g>
	<g>
		<path style="fill:#0066FF;" d="M14.236,8.423c0,0.187-0.066,0.347-0.198,0.479c-0.132,0.132-0.29,0.199-0.473,0.199
			c-0.187,0-0.347-0.066-0.479-0.199c-0.132-0.132-0.199-0.292-0.199-0.479s0.066-0.347,0.199-0.479
			c0.132-0.132,0.292-0.199,0.479-0.199c0.183,0,0.341,0.066,0.473,0.199C14.169,8.076,14.236,8.236,14.236,8.423z"/>
		<path style="fill:#0066FF;" d="M36.44,6.988h6.409v0.592H36.44V6.988z M36.44,9.265h6.409v0.604H36.44V9.265z"/>
		<path style="fill:#0066FF;" d="M63.172,8.423c0,0.187-0.066,0.347-0.199,0.479c-0.132,0.132-0.289,0.199-0.473,0.199
			c-0.188,0-0.347-0.066-0.479-0.199c-0.132-0.132-0.198-0.292-0.198-0.479s0.066-0.347,0.198-0.479
			c0.133-0.132,0.292-0.199,0.479-0.199c0.184,0,0.341,0.066,0.473,0.199C63.105,8.076,63.172,8.236,63.172,8.423z"/>
		<path style="fill:#0066FF;" d="M81.976,6.988h6.409v0.592h-6.409V6.988z M81.976,9.265h6.409v0.604h-6.409V9.265z"/>
	</g>
</g>
<g id="theGroup">
</g>
</svg>
