<?xml version="1.0" encoding="iso-8859-1"?>
<!-- Generator: Adobe Illustrator 16.0.0, SVG Export Plug-In . SVG Version: 6.00 Build 0)  -->
<!DOCTYPE svg PUBLIC "-//W3C//DTD SVG 1.1//EN" "http://www.w3.org/Graphics/SVG/1.1/DTD/svg11.dtd">
<svg version="1.1" id="Lager_1" xmlns="http://www.w3.org/2000/svg" xmlns:xlink="http://www.w3.org/1999/xlink" x="0px" y="0px"
	 width="69.2px" height="53.896px" viewBox="0 0 69.2 53.896" style="enable-background:new 0 0 69.2 53.896;" xml:space="preserve"
	>
<g>
	<g>
		<path style="fill:#CC0000;" d="M44.986,21.823c0.136-0.322,0.309-0.571,0.517-0.746s0.468-0.263,0.778-0.263
			c0.383,0,0.678,0.125,0.882,0.374c0.155,0.186,0.233,0.385,0.233,0.597c0,0.348-0.219,0.708-0.656,1.08
			c0.294,0.115,0.516,0.28,0.666,0.494c0.151,0.214,0.227,0.466,0.227,0.755c0,0.414-0.132,0.773-0.396,1.076
			c-0.344,0.396-0.841,0.593-1.492,0.593c-0.322,0-0.542-0.04-0.658-0.12c-0.116-0.08-0.175-0.166-0.175-0.258
			c0-0.068,0.027-0.128,0.083-0.18c0.055-0.052,0.121-0.078,0.199-0.078c0.059,0,0.119,0.009,0.18,0.028
			c0.04,0.012,0.131,0.055,0.271,0.129c0.142,0.074,0.239,0.118,0.293,0.132c0.087,0.026,0.181,0.039,0.279,0.039
			c0.24,0,0.448-0.093,0.626-0.279c0.178-0.186,0.267-0.406,0.267-0.66c0-0.186-0.041-0.367-0.123-0.543
			c-0.062-0.132-0.129-0.232-0.201-0.3c-0.102-0.094-0.24-0.179-0.417-0.256c-0.176-0.076-0.356-0.114-0.54-0.114h-0.112v-0.106
			c0.186-0.023,0.372-0.091,0.559-0.201c0.188-0.111,0.323-0.244,0.408-0.399c0.084-0.155,0.127-0.326,0.127-0.512
			c0-0.242-0.076-0.438-0.228-0.587c-0.152-0.149-0.341-0.224-0.566-0.224c-0.365,0-0.669,0.195-0.914,0.586L44.986,21.823z"/>
	</g>
	<g>
		<path style="fill:#CC0000;" d="M20.795,2.321v5.566l1.422-1.3c0.301-0.276,0.476-0.451,0.525-0.524
			c0.033-0.049,0.049-0.098,0.049-0.146c0-0.082-0.034-0.152-0.101-0.211c-0.067-0.059-0.178-0.092-0.333-0.101V5.409h2.429v0.195
			c-0.333,0.008-0.611,0.059-0.833,0.152c-0.222,0.094-0.465,0.261-0.729,0.501L21.79,7.582l1.434,1.812
			c0.399,0.501,0.667,0.818,0.806,0.952c0.195,0.191,0.366,0.315,0.513,0.373c0.102,0.041,0.279,0.061,0.531,0.061V11h-2.716v-0.22
			c0.154-0.004,0.259-0.027,0.314-0.07c0.055-0.042,0.083-0.103,0.083-0.18c0-0.094-0.082-0.244-0.244-0.452l-1.715-2.191v1.855
			c0,0.362,0.025,0.6,0.076,0.714c0.051,0.114,0.123,0.195,0.217,0.244c0.093,0.049,0.297,0.075,0.61,0.079V11h-2.845v-0.22
			c0.285,0,0.499-0.035,0.641-0.104c0.085-0.045,0.15-0.114,0.195-0.208c0.061-0.134,0.091-0.366,0.091-0.695V4.683
			c0-0.646-0.014-1.042-0.042-1.187c-0.028-0.144-0.075-0.244-0.14-0.299c-0.065-0.055-0.151-0.083-0.257-0.083
			c-0.085,0-0.213,0.035-0.384,0.104l-0.104-0.213l1.66-0.684H20.795z"/>
	</g>
	<g>
		<path style="fill:#CC0000;" d="M33.496,23.848l2.014-0.982h0.202v6.988c0,0.464,0.019,0.753,0.058,0.867
			c0.039,0.113,0.119,0.201,0.241,0.262c0.122,0.062,0.37,0.096,0.745,0.104v0.226h-3.113v-0.226
			c0.391-0.009,0.643-0.042,0.757-0.101c0.114-0.06,0.193-0.139,0.238-0.238c0.044-0.1,0.067-0.397,0.067-0.895v-4.468
			c0-0.602-0.021-0.988-0.061-1.159c-0.028-0.13-0.081-0.226-0.156-0.287s-0.166-0.092-0.271-0.092c-0.15,0-0.36,0.063-0.628,0.189
			L33.496,23.848z"/>
		<path style="fill:#CC0000;" d="M38.732,27.223c0-0.944,0.143-1.757,0.428-2.438c0.285-0.681,0.663-1.189,1.135-1.523
			c0.367-0.264,0.745-0.396,1.136-0.396c0.635,0,1.204,0.323,1.709,0.971c0.631,0.801,0.946,1.888,0.946,3.259
			c0,0.96-0.139,1.776-0.415,2.448c-0.277,0.671-0.63,1.158-1.06,1.461c-0.429,0.304-0.843,0.455-1.242,0.455
			c-0.789,0-1.446-0.466-1.971-1.397C38.955,29.275,38.732,28.33,38.732,27.223z M39.93,27.376c0,1.14,0.14,2.069,0.421,2.789
			c0.231,0.606,0.577,0.909,1.037,0.909c0.22,0,0.448-0.099,0.684-0.296c0.236-0.197,0.415-0.528,0.537-0.991
			c0.188-0.7,0.281-1.687,0.281-2.961c0-0.944-0.098-1.731-0.293-2.362c-0.146-0.468-0.336-0.799-0.567-0.995
			c-0.167-0.135-0.369-0.202-0.604-0.202c-0.277,0-0.523,0.124-0.739,0.373c-0.293,0.337-0.492,0.869-0.598,1.593
			S39.93,26.672,39.93,27.376z"/>
	</g>
	<g>
		<path style="fill:#0066FF;" d="M5.603,2.553v0.226c-0.537,0.053-0.976,0.16-1.315,0.321S3.612,3.505,3.281,3.834
			c-0.332,0.33-0.606,0.697-0.824,1.102C2.239,5.341,2.057,5.822,1.91,6.38c0.586-0.403,1.174-0.604,1.764-0.604
			c0.565,0,1.056,0.228,1.471,0.684S5.768,7.5,5.768,8.217c0,0.692-0.209,1.322-0.628,1.892c-0.504,0.692-1.172,1.038-2.002,1.038
			c-0.565,0-1.046-0.187-1.44-0.562c-0.773-0.729-1.16-1.672-1.16-2.832c0-0.741,0.148-1.444,0.445-2.112
			C1.28,4.974,1.704,4.382,2.255,3.865C2.807,3.348,3.334,3,3.839,2.821c0.505-0.179,0.975-0.269,1.41-0.269H5.603z M1.807,6.825
			c-0.073,0.549-0.11,0.993-0.11,1.331c0,0.391,0.072,0.815,0.217,1.272c0.144,0.458,0.359,0.821,0.644,1.089
			c0.207,0.191,0.459,0.287,0.757,0.287c0.354,0,0.67-0.167,0.949-0.5s0.418-0.81,0.418-1.428c0-0.696-0.139-1.298-0.415-1.807
			C3.99,6.561,3.597,6.307,3.088,6.307c-0.155,0-0.32,0.032-0.498,0.098C2.414,6.469,2.152,6.609,1.807,6.825z"/>
		<path style="fill:#0066FF;" d="M6.921,13.081v-0.269c0.419-0.138,0.744-0.353,0.974-0.644c0.229-0.291,0.345-0.599,0.345-0.925
			c0-0.077-0.018-0.143-0.055-0.195c-0.028-0.037-0.057-0.055-0.085-0.055c-0.045,0-0.143,0.041-0.293,0.122
			c-0.073,0.036-0.151,0.055-0.232,0.055c-0.199,0-0.358-0.059-0.476-0.177c-0.118-0.118-0.177-0.281-0.177-0.488
			c0-0.2,0.076-0.371,0.229-0.513c0.152-0.143,0.339-0.214,0.559-0.214c0.269,0,0.507,0.117,0.717,0.351s0.314,0.544,0.314,0.931
			c0,0.419-0.146,0.809-0.437,1.169C8.013,12.59,7.552,12.874,6.921,13.081z"/>
		<path style="fill:#0066FF;" d="M15.106,9.407L14.526,11H9.644v-0.226c1.437-1.311,2.447-2.381,3.033-3.211
			s0.879-1.589,0.879-2.276c0-0.525-0.161-0.956-0.482-1.294s-0.706-0.507-1.154-0.507c-0.407,0-0.772,0.119-1.095,0.357
			c-0.324,0.238-0.562,0.587-0.717,1.047H9.882c0.102-0.753,0.363-1.331,0.784-1.733c0.421-0.403,0.947-0.604,1.578-0.604
			c0.671,0,1.232,0.216,1.682,0.647C14.375,3.631,14.6,4.14,14.6,4.726c0,0.419-0.098,0.838-0.293,1.257
			c-0.301,0.659-0.79,1.357-1.465,2.093c-1.013,1.107-1.646,1.774-1.898,2.002h2.161c0.439,0,0.748-0.016,0.924-0.049
			c0.177-0.032,0.337-0.098,0.479-0.198c0.143-0.1,0.267-0.241,0.373-0.424H15.106z"/>
		<path style="fill:#0066FF;" d="M26.886,8.961c-0.342-0.167-0.604-0.4-0.787-0.699c-0.183-0.299-0.274-0.63-0.274-0.992
			c0-0.553,0.208-1.029,0.625-1.428c0.417-0.399,0.951-0.599,1.602-0.599c0.533,0,0.995,0.13,1.386,0.391h1.184
			c0.175,0,0.277,0.005,0.306,0.016c0.028,0.01,0.049,0.027,0.061,0.052c0.024,0.037,0.037,0.102,0.037,0.195
			c0,0.106-0.01,0.179-0.031,0.22c-0.012,0.021-0.034,0.037-0.064,0.049c-0.031,0.012-0.133,0.019-0.309,0.019h-0.726
			c0.228,0.293,0.342,0.667,0.342,1.123c0,0.521-0.199,0.966-0.598,1.336s-0.934,0.555-1.605,0.555
			c-0.276,0-0.559-0.041-0.848-0.122c-0.179,0.155-0.3,0.29-0.363,0.406c-0.063,0.116-0.094,0.214-0.094,0.296
			c0,0.069,0.033,0.136,0.101,0.201c0.067,0.065,0.198,0.112,0.394,0.141c0.114,0.016,0.399,0.03,0.854,0.043
			c0.838,0.02,1.381,0.049,1.63,0.085c0.378,0.053,0.68,0.193,0.906,0.421c0.226,0.228,0.339,0.509,0.339,0.842
			c0,0.46-0.216,0.891-0.647,1.294c-0.635,0.594-1.462,0.891-2.484,0.891c-0.785,0-1.449-0.177-1.99-0.531
			c-0.305-0.204-0.458-0.415-0.458-0.635c0-0.098,0.022-0.195,0.067-0.293c0.069-0.151,0.211-0.36,0.427-0.629
			c0.028-0.037,0.236-0.256,0.623-0.659c-0.211-0.126-0.361-0.239-0.449-0.339c-0.087-0.1-0.131-0.212-0.131-0.339
			c0-0.142,0.058-0.309,0.174-0.5C26.199,9.582,26.467,9.312,26.886,8.961z M26.825,11c-0.191,0.208-0.336,0.401-0.434,0.58
			c-0.098,0.179-0.146,0.344-0.146,0.494c0,0.195,0.118,0.366,0.354,0.513c0.407,0.252,0.995,0.378,1.764,0.378
			c0.732,0,1.272-0.129,1.62-0.388c0.348-0.258,0.522-0.534,0.522-0.827c0-0.212-0.104-0.362-0.311-0.452
			c-0.212-0.089-0.631-0.142-1.258-0.158C28.021,11.116,27.317,11.069,26.825,11z M27.948,5.537c-0.301,0-0.554,0.12-0.757,0.36
			c-0.204,0.24-0.306,0.608-0.306,1.104c0,0.643,0.139,1.142,0.415,1.496c0.212,0.269,0.48,0.403,0.806,0.403
			c0.31,0,0.564-0.116,0.763-0.348c0.199-0.232,0.299-0.596,0.299-1.093c0-0.647-0.141-1.153-0.421-1.52
			C28.54,5.672,28.273,5.537,27.948,5.537z"/>
	</g>
	<g>
		<path style="fill:#0066FF;" d="M16.003,22.865v0.226c-0.537,0.053-0.976,0.16-1.315,0.321s-0.675,0.406-1.007,0.735
			c-0.332,0.33-0.606,0.697-0.824,1.102c-0.218,0.405-0.4,0.886-0.546,1.444c0.586-0.403,1.174-0.604,1.764-0.604
			c0.565,0,1.056,0.228,1.471,0.684s0.622,1.042,0.622,1.758c0,0.691-0.209,1.322-0.628,1.893c-0.504,0.691-1.172,1.037-2.002,1.037
			c-0.565,0-1.046-0.188-1.44-0.562c-0.773-0.729-1.16-1.673-1.16-2.832c0-0.741,0.148-1.444,0.445-2.112
			c0.297-0.667,0.721-1.259,1.273-1.776c0.551-0.517,1.079-0.865,1.583-1.044c0.505-0.179,0.975-0.269,1.41-0.269H16.003z
			 M12.207,27.138c-0.073,0.549-0.11,0.993-0.11,1.331c0,0.391,0.072,0.814,0.217,1.272c0.144,0.457,0.359,0.82,0.644,1.089
			c0.207,0.191,0.459,0.287,0.757,0.287c0.354,0,0.67-0.167,0.949-0.5c0.279-0.334,0.418-0.811,0.418-1.429
			c0-0.696-0.139-1.298-0.415-1.807c-0.277-0.509-0.669-0.763-1.178-0.763c-0.155,0-0.32,0.032-0.498,0.098
			C12.814,26.782,12.553,26.922,12.207,27.138z"/>
		<path style="fill:#0066FF;" d="M17.134,33.394v-0.269c0.419-0.138,0.744-0.353,0.974-0.644c0.229-0.291,0.345-0.6,0.345-0.925
			c0-0.077-0.018-0.143-0.055-0.195c-0.028-0.037-0.057-0.055-0.085-0.055c-0.045,0-0.143,0.04-0.293,0.122
			c-0.073,0.036-0.151,0.055-0.232,0.055c-0.199,0-0.358-0.059-0.476-0.177c-0.118-0.118-0.177-0.281-0.177-0.488
			c0-0.199,0.076-0.37,0.229-0.513c0.152-0.143,0.339-0.214,0.559-0.214c0.269,0,0.507,0.117,0.717,0.351
			c0.209,0.234,0.314,0.545,0.314,0.931c0,0.42-0.146,0.81-0.437,1.169C18.226,32.902,17.765,33.187,17.134,33.394z"/>
		<path style="fill:#0066FF;" d="M26.882,29.72l-0.58,1.593h-4.883v-0.226c1.437-1.311,2.447-2.381,3.033-3.211
			s0.879-1.589,0.879-2.276c0-0.525-0.161-0.956-0.482-1.294s-0.706-0.507-1.154-0.507c-0.407,0-0.772,0.119-1.095,0.357
			c-0.324,0.238-0.562,0.587-0.717,1.047h-0.226c0.102-0.753,0.363-1.331,0.784-1.733c0.421-0.403,0.947-0.604,1.578-0.604
			c0.671,0,1.232,0.216,1.682,0.647c0.449,0.431,0.674,0.94,0.674,1.526c0,0.419-0.098,0.838-0.293,1.257
			c-0.301,0.659-0.79,1.357-1.465,2.093c-1.013,1.107-1.646,1.774-1.898,2.002h2.161c0.439,0,0.748-0.016,0.924-0.049
			c0.177-0.032,0.337-0.099,0.479-0.198c0.143-0.1,0.267-0.241,0.373-0.424H26.882z"/>
		<path style="fill:#0066FF;" d="M51.549,29.273c-0.342-0.166-0.604-0.399-0.787-0.698c-0.183-0.299-0.274-0.63-0.274-0.992
			c0-0.553,0.208-1.029,0.625-1.428c0.417-0.399,0.951-0.599,1.603-0.599c0.533,0,0.995,0.13,1.386,0.391h1.184
			c0.175,0,0.277,0.005,0.306,0.016s0.049,0.027,0.061,0.052c0.024,0.037,0.037,0.102,0.037,0.195c0,0.106-0.011,0.179-0.03,0.22
			c-0.013,0.021-0.034,0.037-0.064,0.049s-0.134,0.019-0.309,0.019h-0.727c0.229,0.293,0.342,0.667,0.342,1.123
			c0,0.521-0.199,0.966-0.598,1.337c-0.398,0.37-0.934,0.555-1.605,0.555c-0.276,0-0.56-0.04-0.848-0.122
			c-0.18,0.155-0.301,0.29-0.363,0.406c-0.063,0.116-0.095,0.215-0.095,0.296c0,0.069,0.033,0.137,0.101,0.201
			c0.067,0.065,0.198,0.112,0.394,0.141c0.114,0.017,0.398,0.03,0.854,0.043c0.838,0.021,1.382,0.049,1.63,0.085
			c0.378,0.053,0.681,0.193,0.906,0.421c0.226,0.229,0.339,0.509,0.339,0.843c0,0.46-0.216,0.892-0.647,1.294
			c-0.635,0.594-1.463,0.891-2.483,0.891c-0.786,0-1.449-0.177-1.99-0.53c-0.305-0.204-0.458-0.415-0.458-0.635
			c0-0.098,0.022-0.195,0.067-0.293c0.069-0.15,0.212-0.36,0.428-0.629c0.028-0.036,0.235-0.257,0.622-0.659
			c-0.212-0.126-0.361-0.239-0.448-0.339c-0.088-0.1-0.132-0.213-0.132-0.339c0-0.143,0.059-0.309,0.174-0.5
			C50.862,29.895,51.13,29.624,51.549,29.273z M51.488,31.312c-0.191,0.207-0.336,0.4-0.434,0.58
			c-0.098,0.179-0.146,0.344-0.146,0.494c0,0.195,0.118,0.366,0.354,0.513c0.406,0.252,0.994,0.378,1.764,0.378
			c0.732,0,1.272-0.129,1.62-0.387c0.348-0.259,0.522-0.534,0.522-0.827c0-0.212-0.104-0.362-0.312-0.452
			c-0.212-0.089-0.631-0.143-1.258-0.158C52.685,31.429,51.98,31.382,51.488,31.312z M52.611,25.85c-0.302,0-0.554,0.12-0.757,0.36
			c-0.204,0.24-0.306,0.608-0.306,1.104c0,0.643,0.139,1.142,0.415,1.496c0.212,0.268,0.48,0.402,0.806,0.402
			c0.31,0,0.563-0.116,0.763-0.348c0.2-0.232,0.3-0.596,0.3-1.093c0-0.647-0.141-1.153-0.421-1.52
			C53.203,25.984,52.937,25.85,52.611,25.85z"/>
		<path style="fill:#0066FF;" d="M59.264,25.923h6.586v0.501h-6.586V25.923z M59.264,27.913h6.586v0.5h-6.586V27.913z"/>
	</g>
	<g>
		<path style="fill:#0066FF;" d="M0.431,44.673h6.586v0.501H0.431V44.673z M0.431,46.663h6.586v0.5H0.431V46.663z"/>
		<path style="fill:#0066FF;" d="M15.97,41.615v0.226c-0.537,0.053-0.976,0.16-1.315,0.32c-0.34,0.161-0.675,0.406-1.007,0.735
			c-0.332,0.33-0.606,0.697-0.824,1.103c-0.218,0.404-0.4,0.886-0.546,1.443c0.586-0.403,1.174-0.604,1.764-0.604
			c0.565,0,1.056,0.228,1.471,0.684s0.622,1.042,0.622,1.758c0,0.691-0.209,1.322-0.628,1.893c-0.504,0.691-1.172,1.037-2.002,1.037
			c-0.565,0-1.046-0.188-1.44-0.562c-0.773-0.729-1.16-1.673-1.16-2.832c0-0.74,0.148-1.444,0.445-2.112
			c0.297-0.667,0.721-1.259,1.273-1.775c0.551-0.517,1.079-0.865,1.583-1.044c0.505-0.179,0.975-0.269,1.41-0.269H15.97z
			 M12.174,45.888c-0.073,0.55-0.11,0.993-0.11,1.331c0,0.391,0.072,0.814,0.217,1.272c0.144,0.457,0.359,0.82,0.644,1.089
			c0.207,0.191,0.459,0.287,0.757,0.287c0.354,0,0.67-0.167,0.949-0.5c0.279-0.334,0.418-0.811,0.418-1.429
			c0-0.696-0.139-1.298-0.415-1.807c-0.277-0.509-0.669-0.763-1.178-0.763c-0.155,0-0.32,0.032-0.498,0.098
			C12.781,45.531,12.52,45.672,12.174,45.888z"/>
		<path style="fill:#0066FF;" d="M25.311,48.47l-0.58,1.593h-4.883v-0.226c1.437-1.311,2.447-2.381,3.033-3.211
			s0.879-1.589,0.879-2.276c0-0.525-0.161-0.956-0.482-1.294s-0.706-0.507-1.154-0.507c-0.407,0-0.772,0.119-1.095,0.357
			c-0.324,0.238-0.562,0.587-0.717,1.047h-0.226c0.102-0.753,0.363-1.331,0.784-1.733c0.421-0.403,0.947-0.604,1.578-0.604
			c0.671,0,1.232,0.216,1.682,0.646c0.449,0.432,0.674,0.94,0.674,1.526c0,0.419-0.098,0.838-0.293,1.257
			c-0.301,0.66-0.79,1.357-1.465,2.094c-1.013,1.107-1.646,1.774-1.898,2.002h2.161c0.439,0,0.748-0.016,0.924-0.049
			c0.177-0.032,0.337-0.099,0.479-0.198c0.143-0.1,0.267-0.241,0.373-0.424H25.311z"/>
		<path style="fill:#0066FF;" d="M26.281,45.973c0-0.943,0.143-1.756,0.427-2.438s0.663-1.189,1.135-1.523
			c0.366-0.265,0.745-0.396,1.135-0.396c0.635,0,1.205,0.323,1.709,0.971c0.631,0.802,0.946,1.888,0.946,3.259
			c0,0.961-0.139,1.776-0.415,2.448c-0.277,0.671-0.63,1.158-1.059,1.461c-0.43,0.304-0.843,0.455-1.242,0.455
			c-0.79,0-1.447-0.466-1.971-1.397C26.503,48.026,26.281,47.08,26.281,45.973z M27.478,46.126c0,1.139,0.14,2.069,0.421,2.789
			c0.231,0.606,0.578,0.909,1.037,0.909c0.22,0,0.448-0.099,0.684-0.296c0.236-0.197,0.415-0.528,0.537-0.991
			c0.188-0.7,0.281-1.688,0.281-2.961c0-0.943-0.098-1.731-0.293-2.361c-0.146-0.469-0.336-0.8-0.568-0.995
			c-0.167-0.135-0.368-0.202-0.604-0.202c-0.277,0-0.523,0.125-0.739,0.373c-0.293,0.338-0.492,0.868-0.598,1.593
			S27.478,45.422,27.478,46.126z"/>
		<path style="fill:#0066FF;" d="M32.531,45.973c0-0.943,0.143-1.756,0.427-2.438s0.663-1.189,1.135-1.523
			c0.366-0.265,0.745-0.396,1.136-0.396c0.635,0,1.203,0.323,1.709,0.971c0.631,0.802,0.945,1.888,0.945,3.259
			c0,0.961-0.139,1.776-0.414,2.448c-0.277,0.671-0.631,1.158-1.061,1.461c-0.428,0.304-0.842,0.455-1.242,0.455
			c-0.789,0-1.446-0.466-1.97-1.397C32.753,48.026,32.531,47.08,32.531,45.973z M33.728,46.126c0,1.139,0.14,2.069,0.421,2.789
			c0.231,0.606,0.578,0.909,1.038,0.909c0.219,0,0.447-0.099,0.684-0.296s0.414-0.528,0.537-0.991
			c0.188-0.7,0.281-1.688,0.281-2.961c0-0.943-0.098-1.731-0.293-2.361c-0.146-0.469-0.336-0.8-0.568-0.995
			c-0.166-0.135-0.369-0.202-0.604-0.202c-0.277,0-0.523,0.125-0.739,0.373c-0.293,0.338-0.492,0.868-0.598,1.593
			S33.728,45.422,33.728,46.126z"/>
		<path style="fill:#0066FF;" d="M43.341,48.023c-0.342-0.166-0.604-0.399-0.787-0.698s-0.274-0.63-0.274-0.992
			c0-0.553,0.208-1.029,0.625-1.428c0.417-0.399,0.951-0.599,1.603-0.599c0.533,0,0.995,0.131,1.386,0.391h1.184
			c0.175,0,0.277,0.006,0.306,0.016s0.049,0.027,0.061,0.052c0.024,0.036,0.037,0.102,0.037,0.195c0,0.105-0.011,0.179-0.03,0.22
			c-0.013,0.021-0.034,0.037-0.064,0.049s-0.134,0.019-0.309,0.019H46.35c0.229,0.293,0.342,0.667,0.342,1.123
			c0,0.521-0.199,0.966-0.598,1.337c-0.398,0.37-0.934,0.555-1.605,0.555c-0.276,0-0.56-0.04-0.848-0.122
			c-0.18,0.155-0.301,0.29-0.363,0.406c-0.063,0.116-0.095,0.215-0.095,0.296c0,0.069,0.033,0.137,0.101,0.201
			c0.067,0.065,0.198,0.112,0.394,0.141c0.114,0.017,0.398,0.03,0.854,0.043c0.838,0.021,1.382,0.049,1.63,0.085
			c0.378,0.053,0.681,0.193,0.906,0.421c0.226,0.229,0.339,0.509,0.339,0.843c0,0.46-0.216,0.892-0.647,1.294
			c-0.635,0.594-1.463,0.891-2.483,0.891c-0.786,0-1.449-0.177-1.99-0.53c-0.305-0.204-0.458-0.415-0.458-0.635
			c0-0.098,0.022-0.195,0.067-0.293c0.069-0.15,0.212-0.36,0.428-0.629c0.028-0.036,0.235-0.257,0.622-0.659
			c-0.212-0.126-0.361-0.239-0.448-0.339c-0.088-0.1-0.132-0.213-0.132-0.339c0-0.143,0.059-0.309,0.174-0.5
			C42.654,48.645,42.922,48.374,43.341,48.023z M43.28,50.062c-0.191,0.207-0.336,0.4-0.434,0.58
			c-0.098,0.179-0.146,0.344-0.146,0.494c0,0.195,0.118,0.366,0.354,0.513c0.406,0.252,0.994,0.378,1.764,0.378
			c0.732,0,1.272-0.129,1.62-0.387c0.348-0.259,0.522-0.534,0.522-0.827c0-0.212-0.104-0.362-0.312-0.452
			c-0.212-0.089-0.631-0.143-1.258-0.158C44.477,50.179,43.772,50.132,43.28,50.062z M44.403,44.6c-0.302,0-0.554,0.12-0.757,0.36
			c-0.204,0.24-0.306,0.608-0.306,1.104c0,0.644,0.139,1.142,0.415,1.496c0.212,0.268,0.48,0.402,0.806,0.402
			c0.31,0,0.563-0.116,0.763-0.348c0.2-0.232,0.3-0.597,0.3-1.093c0-0.647-0.141-1.153-0.421-1.52
			C44.995,44.734,44.729,44.6,44.403,44.6z"/>
	</g>
	<g>
		<path style="fill:#0066FF;" d="M38.155,6.367h6.409v0.592h-6.409V6.367z M38.155,8.644h6.409v0.604h-6.409V8.644z"/>
	</g>
	<g>
		<path style="fill:#0066FF;" d="M0.431,26.68H6.84v0.592H0.431V26.68z M0.431,28.957H6.84v0.604H0.431V28.957z"/>
		<path style="fill:#0066FF;" d="M30.875,28.114c0,0.187-0.066,0.347-0.198,0.479c-0.132,0.132-0.29,0.198-0.473,0.198
			c-0.187,0-0.347-0.066-0.479-0.198c-0.132-0.133-0.199-0.292-0.199-0.479s0.066-0.347,0.199-0.479
			c0.132-0.132,0.292-0.199,0.479-0.199c0.183,0,0.341,0.066,0.473,0.199C30.808,27.768,30.875,27.927,30.875,28.114z"/>
	</g>
</g>
<g id="theGroup">
</g>
</svg>
