<?xml version="1.0" encoding="iso-8859-1"?>
<!-- Generator: Adobe Illustrator 16.0.0, SVG Export Plug-In . SVG Version: 6.00 Build 0)  -->
<!DOCTYPE svg PUBLIC "-//W3C//DTD SVG 1.1//EN" "http://www.w3.org/Graphics/SVG/1.1/DTD/svg11.dtd">
<svg version="1.1" id="Lager_1" xmlns="http://www.w3.org/2000/svg" xmlns:xlink="http://www.w3.org/1999/xlink" x="0px" y="0px"
	 width="59.09px" height="15.808px" viewBox="0 0 59.09 15.808" style="enable-background:new 0 0 59.09 15.808;"
	 xml:space="preserve">
<g>
	<g>
		<path style="fill:#0066FF;" d="M24.67,1.575l-0.275,0.6h-1.44l-0.314,0.643c0.624,0.091,1.117,0.323,1.482,0.695
			c0.313,0.32,0.469,0.696,0.469,1.129c0,0.251-0.051,0.484-0.153,0.699c-0.102,0.214-0.231,0.396-0.386,0.547
			c-0.155,0.15-0.328,0.271-0.519,0.363c-0.271,0.129-0.548,0.194-0.833,0.194c-0.287,0-0.496-0.049-0.626-0.146
			c-0.13-0.098-0.196-0.206-0.196-0.323c0-0.066,0.027-0.124,0.081-0.174c0.054-0.051,0.123-0.076,0.205-0.076
			c0.061,0,0.114,0.01,0.16,0.028c0.046,0.019,0.124,0.067,0.235,0.145c0.176,0.123,0.355,0.184,0.536,0.184
			c0.275,0,0.517-0.104,0.725-0.312c0.208-0.208,0.312-0.462,0.312-0.761c0-0.289-0.093-0.559-0.279-0.81s-0.442-0.444-0.769-0.581
			c-0.256-0.106-0.606-0.167-1.048-0.184l0.917-1.859H24.67z"/>
		<path style="fill:#0066FF;" d="M58.79,5.438l-0.335,0.921h-2.823v-0.13c0.83-0.758,1.415-1.376,1.754-1.856
			c0.339-0.479,0.508-0.918,0.508-1.316c0-0.304-0.093-0.553-0.278-0.748c-0.187-0.195-0.408-0.293-0.667-0.293
			c-0.235,0-0.446,0.069-0.634,0.207C56.128,2.36,55.989,2.562,55.9,2.827H55.77c0.059-0.435,0.21-0.769,0.453-1.002
			c0.244-0.233,0.548-0.35,0.912-0.35c0.389,0,0.713,0.125,0.973,0.374c0.26,0.25,0.39,0.543,0.39,0.882
			c0,0.242-0.057,0.485-0.169,0.727c-0.175,0.381-0.457,0.785-0.848,1.21c-0.585,0.64-0.951,1.026-1.097,1.158h1.249
			c0.254,0,0.432-0.009,0.534-0.028s0.194-0.057,0.277-0.115c0.082-0.058,0.154-0.139,0.215-0.245H58.79z"/>
	</g>
	<g>
		<path style="fill:#0066FF;" d="M1.465,4.51l2.014-0.982h0.202v6.988c0,0.464,0.019,0.753,0.058,0.867
			c0.039,0.113,0.119,0.201,0.241,0.262c0.122,0.062,0.37,0.096,0.745,0.104v0.226H1.611v-0.226
			c0.391-0.009,0.643-0.042,0.757-0.101c0.114-0.06,0.193-0.139,0.238-0.238c0.044-0.1,0.067-0.397,0.067-0.895V6.048
			c0-0.602-0.021-0.988-0.061-1.159c-0.028-0.13-0.081-0.226-0.156-0.287S2.291,4.51,2.185,4.51c-0.15,0-0.36,0.063-0.628,0.189
			L1.465,4.51z"/>
		<path style="fill:#0066FF;" d="M6.702,7.885c0-0.944,0.143-1.757,0.427-2.438c0.285-0.681,0.663-1.189,1.135-1.523
			C8.63,3.66,9.009,3.527,9.399,3.527c0.635,0,1.205,0.323,1.709,0.971c0.631,0.801,0.946,1.888,0.946,3.259
			c0,0.961-0.139,1.776-0.415,2.448c-0.277,0.671-0.63,1.158-1.059,1.461c-0.43,0.304-0.843,0.455-1.242,0.455
			c-0.79,0-1.447-0.466-1.971-1.397C6.923,9.938,6.702,8.992,6.702,7.885z M7.898,8.038c0,1.139,0.14,2.069,0.421,2.789
			c0.231,0.606,0.578,0.909,1.037,0.909c0.22,0,0.448-0.099,0.684-0.296c0.236-0.197,0.415-0.528,0.537-0.991
			c0.188-0.7,0.281-1.687,0.281-2.961c0-0.944-0.098-1.731-0.293-2.362c-0.146-0.468-0.336-0.799-0.568-0.995
			C9.831,3.997,9.629,3.93,9.394,3.93c-0.277,0-0.523,0.124-0.739,0.373C8.362,4.64,8.163,5.171,8.057,5.896
			S7.898,7.334,7.898,8.038z"/>
		<path style="fill:#0066FF;" d="M40.09,4.51l2.014-0.982h0.202v6.988c0,0.464,0.019,0.753,0.058,0.867
			c0.039,0.113,0.119,0.201,0.241,0.262c0.122,0.062,0.37,0.096,0.745,0.104v0.226h-3.113v-0.226
			c0.391-0.009,0.643-0.042,0.757-0.101c0.114-0.06,0.193-0.139,0.238-0.238s0.067-0.397,0.067-0.895V6.048
			c0-0.602-0.021-0.988-0.062-1.159c-0.028-0.13-0.08-0.226-0.155-0.287c-0.076-0.061-0.166-0.092-0.271-0.092
			c-0.151,0-0.36,0.063-0.629,0.189L40.09,4.51z"/>
		<path style="fill:#0066FF;" d="M45.326,7.885c0-0.944,0.143-1.757,0.428-2.438c0.285-0.681,0.663-1.189,1.135-1.523
			c0.367-0.264,0.745-0.396,1.136-0.396c0.635,0,1.204,0.323,1.709,0.971c0.631,0.801,0.946,1.888,0.946,3.259
			c0,0.961-0.139,1.776-0.415,2.448c-0.277,0.671-0.63,1.158-1.06,1.461c-0.429,0.304-0.843,0.455-1.242,0.455
			c-0.789,0-1.446-0.466-1.971-1.397C45.549,9.938,45.326,8.992,45.326,7.885z M46.523,8.038c0,1.139,0.14,2.069,0.421,2.789
			c0.231,0.606,0.577,0.909,1.037,0.909c0.22,0,0.448-0.099,0.684-0.296c0.236-0.197,0.415-0.528,0.537-0.991
			c0.188-0.7,0.281-1.687,0.281-2.961c0-0.944-0.098-1.731-0.293-2.362c-0.146-0.468-0.336-0.799-0.567-0.995
			c-0.167-0.135-0.369-0.202-0.604-0.202c-0.277,0-0.523,0.124-0.739,0.373c-0.293,0.337-0.492,0.869-0.598,1.593
			S46.523,7.334,46.523,8.038z"/>
	</g>
	<g>
		<path style="fill:#0066FF;" d="M13.202,2.58h0.822l0.868,1.331l0.879-1.331l0.772,0.018L15.27,4.422l1.33,1.937h-0.812
			L14.85,4.941l-0.911,1.418h-0.805l1.331-1.937L13.202,2.58z"/>
	</g>
	<g>
		<path style="fill:#0066FF;" d="M17.21,4.327h3.705v0.349H17.21V4.327z"/>
		<path style="fill:#0066FF;" d="M51.659,4.327h3.705v0.349h-3.705V4.327z"/>
	</g>
	<g>
		<path style="fill:#0066FF;" d="M29.835,7.342h6.409v0.592h-6.409V7.342z M29.835,9.619h6.409v0.604h-6.409V9.619z"/>
	</g>
</g>
<g id="theGroup">
</g>
</svg>
