<?xml version="1.0" encoding="iso-8859-1"?>
<!-- Generator: Adobe Illustrator 16.0.0, SVG Export Plug-In . SVG Version: 6.00 Build 0)  -->
<!DOCTYPE svg PUBLIC "-//W3C//DTD SVG 1.1//EN" "http://www.w3.org/Graphics/SVG/1.1/DTD/svg11.dtd">
<svg version="1.1" id="Lager_1" xmlns="http://www.w3.org/2000/svg" xmlns:xlink="http://www.w3.org/1999/xlink" x="0px" y="0px"
	 width="14.714px" height="32.044px" viewBox="0 0 14.714 32.044" style="enable-background:new 0 0 14.714 32.044;"
	 xml:space="preserve">
<g>
	
		<line style="fill:none;stroke:#0066FF;stroke-width:0.5;stroke-linecap:square;stroke-miterlimit:10;" x1="7.042" y1="15.242" x2="14.464" y2="15.242"/>
	<g>
		<path style="fill:#0066FF;" d="M8.447,3.687c0.236-0.558,0.534-0.987,0.895-1.291c0.359-0.303,0.809-0.454,1.346-0.454
			c0.663,0,1.172,0.216,1.525,0.646c0.269,0.321,0.403,0.666,0.403,1.032c0,0.602-0.379,1.225-1.136,1.867
			c0.509,0.199,0.894,0.484,1.154,0.854c0.26,0.37,0.391,0.806,0.391,1.307c0,0.716-0.229,1.336-0.684,1.861
			c-0.595,0.684-1.455,1.025-2.582,1.025c-0.558,0-0.938-0.069-1.139-0.208c-0.201-0.138-0.302-0.286-0.302-0.445
			c0-0.118,0.047-0.222,0.144-0.312c0.096-0.089,0.21-0.134,0.345-0.134c0.102,0,0.205,0.016,0.312,0.049
			c0.068,0.021,0.226,0.095,0.47,0.223s0.413,0.204,0.507,0.229c0.15,0.045,0.311,0.067,0.481,0.067
			c0.415,0,0.776-0.161,1.084-0.482c0.307-0.321,0.46-0.701,0.46-1.141c0-0.322-0.07-0.635-0.213-0.94
			c-0.106-0.228-0.222-0.4-0.348-0.519c-0.176-0.163-0.416-0.311-0.721-0.442c-0.305-0.133-0.616-0.198-0.934-0.198H9.711V6.098
			c0.321-0.041,0.644-0.156,0.967-0.348c0.324-0.191,0.559-0.421,0.705-0.689s0.22-0.564,0.22-0.886
			c0-0.419-0.131-0.758-0.394-1.016C10.946,2.9,10.62,2.771,10.229,2.771c-0.631,0-1.157,0.338-1.581,1.013L8.447,3.687z"/>
	</g>
	<g>
		<path style="fill:#0066FF;" d="M1.465,11.107l2.014-0.982h0.202v6.988c0,0.464,0.019,0.753,0.058,0.867
			c0.039,0.113,0.119,0.201,0.241,0.262c0.122,0.062,0.37,0.096,0.745,0.104v0.226H1.611v-0.226
			c0.391-0.009,0.643-0.042,0.757-0.101c0.114-0.06,0.193-0.139,0.238-0.238c0.044-0.1,0.067-0.397,0.067-0.895v-4.468
			c0-0.602-0.021-0.988-0.061-1.159c-0.028-0.13-0.081-0.226-0.156-0.287c-0.075-0.061-0.166-0.092-0.271-0.092
			c-0.15,0-0.36,0.063-0.628,0.189L1.465,11.107z"/>
	</g>
	<g>
		<path style="fill:#0066FF;" d="M13.629,25.159v0.866h-1.11v2.186h-1.007v-2.186H8.008v-0.781l3.839-5.48h0.672v5.396H13.629z
			 M11.512,25.159v-4.107l-2.906,4.107H11.512z"/>
	</g>
</g>
<g id="theGroup">
</g>
</svg>
