<?xml version="1.0" encoding="iso-8859-1"?>
<!-- Generator: Adobe Illustrator 16.0.0, SVG Export Plug-In . SVG Version: 6.00 Build 0)  -->
<!DOCTYPE svg PUBLIC "-//W3C//DTD SVG 1.1//EN" "http://www.w3.org/Graphics/SVG/1.1/DTD/svg11.dtd">
<svg version="1.1" id="Lager_1" xmlns="http://www.w3.org/2000/svg" xmlns:xlink="http://www.w3.org/1999/xlink" x="0px" y="0px"
	 width="192.087px" height="51.376px" viewBox="0 0 192.087 51.376" style="enable-background:new 0 0 192.087 51.376;"
	 xml:space="preserve">
<g>
	
		<line style="fill:none;stroke:#000000;stroke-width:0.5;stroke-linecap:square;stroke-miterlimit:10;" x1="10.586" y1="34.595" x2="51.211" y2="34.595"/>
	
		<line style="fill:none;stroke:#000000;stroke-width:0.5;stroke-linecap:square;stroke-miterlimit:10;" x1="65.352" y1="34.595" x2="144.415" y2="34.595"/>
	
		<line style="fill:none;stroke:#000000;stroke-width:0.5;stroke-linecap:square;stroke-miterlimit:10;" x1="158.556" y1="34.595" x2="170.86" y2="34.595"/>
	
		<line style="fill:none;stroke:#000000;stroke-width:0.5;stroke-linecap:square;stroke-miterlimit:10;" x1="185.001" y1="34.595" x2="191.837" y2="34.595"/>
	<g>
		<path d="M5.719,8.229H2.515L1.953,9.535c-0.138,0.321-0.208,0.562-0.208,0.72c0,0.126,0.06,0.237,0.18,0.333
			c0.12,0.096,0.379,0.158,0.778,0.187V11H0.098v-0.226c0.346-0.062,0.57-0.141,0.671-0.238c0.208-0.195,0.438-0.592,0.69-1.19
			L4.37,2.534h0.214l2.881,6.885c0.231,0.554,0.442,0.913,0.631,1.078c0.189,0.165,0.453,0.257,0.791,0.278V11H5.621v-0.226
			c0.33-0.017,0.553-0.071,0.668-0.165c0.116-0.094,0.174-0.208,0.174-0.342c0-0.179-0.082-0.462-0.244-0.849L5.719,8.229z
			 M5.548,7.777L4.145,4.433l-1.44,3.345H5.548z"/>
		<path d="M10.81,6.429c0.655-0.79,1.279-1.185,1.874-1.185c0.305,0,0.568,0.077,0.788,0.229c0.22,0.153,0.395,0.404,0.524,0.754
			c0.09,0.244,0.135,0.619,0.135,1.123v2.386c0,0.354,0.028,0.594,0.085,0.721c0.045,0.102,0.117,0.181,0.217,0.238
			s0.284,0.085,0.553,0.085V11H12.22v-0.22h0.116c0.261,0,0.443-0.04,0.546-0.119c0.104-0.079,0.176-0.196,0.217-0.351
			c0.016-0.062,0.024-0.252,0.024-0.574V7.448c0-0.509-0.066-0.878-0.198-1.108c-0.132-0.229-0.355-0.345-0.668-0.345
			c-0.484,0-0.966,0.265-1.446,0.793v2.948c0,0.379,0.022,0.613,0.067,0.702c0.057,0.118,0.135,0.205,0.235,0.259
			c0.1,0.055,0.302,0.083,0.607,0.083V11H8.955v-0.22h0.122c0.285,0,0.477-0.072,0.577-0.217c0.1-0.144,0.149-0.42,0.149-0.827
			V7.661c0-0.671-0.015-1.08-0.046-1.227c-0.03-0.146-0.077-0.246-0.14-0.299c-0.063-0.053-0.147-0.08-0.253-0.08
			c-0.114,0-0.25,0.031-0.409,0.091l-0.092-0.22l1.685-0.684h0.263V6.429z"/>
		<path d="M19.379,10.371c-0.273,0.285-0.54,0.49-0.8,0.614s-0.541,0.186-0.842,0.186c-0.61,0-1.144-0.255-1.599-0.766
			c-0.456-0.51-0.684-1.167-0.684-1.968s0.252-1.535,0.757-2.2c0.504-0.666,1.153-0.998,1.947-0.998c0.492,0,0.899,0.157,1.221,0.47
			V4.677c0-0.639-0.016-1.031-0.046-1.178C19.303,3.353,19.255,3.252,19.19,3.2s-0.146-0.08-0.244-0.08
			c-0.106,0-0.246,0.033-0.421,0.098l-0.08-0.213l1.667-0.684h0.274v6.463c0,0.655,0.015,1.055,0.046,1.2
			c0.03,0.145,0.079,0.245,0.146,0.302c0.067,0.057,0.146,0.085,0.235,0.085c0.11,0,0.256-0.034,0.439-0.104l0.067,0.214
			l-1.66,0.689h-0.28V10.371z M19.379,9.944V7.063c-0.024-0.277-0.098-0.529-0.22-0.757c-0.122-0.228-0.284-0.4-0.485-0.516
			c-0.202-0.116-0.398-0.174-0.589-0.174c-0.358,0-0.678,0.161-0.958,0.482c-0.37,0.423-0.555,1.042-0.555,1.855
			c0,0.822,0.179,1.452,0.537,1.889c0.358,0.438,0.757,0.656,1.196,0.656C18.675,10.5,19.033,10.314,19.379,9.944z"/>
		<path d="M22.62,7.515c-0.004,0.83,0.197,1.481,0.604,1.953c0.407,0.472,0.885,0.708,1.435,0.708c0.366,0,0.685-0.101,0.955-0.302
			c0.271-0.202,0.498-0.546,0.681-1.035l0.189,0.122c-0.086,0.558-0.334,1.065-0.745,1.523c-0.411,0.458-0.925,0.687-1.544,0.687
			c-0.671,0-1.246-0.261-1.724-0.784c-0.479-0.523-0.717-1.226-0.717-2.109c0-0.956,0.245-1.702,0.735-2.237
			s1.106-0.803,1.847-0.803c0.626,0,1.141,0.207,1.544,0.62s0.604,0.965,0.604,1.657H22.62z M22.62,7.161h2.588
			c-0.021-0.358-0.063-0.61-0.128-0.757c-0.102-0.228-0.253-0.407-0.455-0.537c-0.201-0.13-0.412-0.195-0.631-0.195
			c-0.338,0-0.64,0.131-0.907,0.394C22.82,6.328,22.665,6.693,22.62,7.161z"/>
		<path d="M29.076,2.321v7.416c0,0.35,0.025,0.582,0.076,0.696c0.051,0.114,0.129,0.2,0.235,0.259s0.303,0.088,0.592,0.088V11
			h-2.741v-0.22c0.256,0,0.431-0.026,0.525-0.079c0.094-0.053,0.167-0.141,0.22-0.263s0.079-0.356,0.079-0.702V4.658
			c0-0.63-0.014-1.018-0.042-1.163c-0.028-0.144-0.074-0.243-0.137-0.296c-0.063-0.053-0.144-0.08-0.241-0.08
			c-0.106,0-0.24,0.033-0.403,0.098l-0.104-0.213l1.667-0.684H29.076z"/>
		<path d="M31.416,7.515c-0.004,0.83,0.197,1.481,0.604,1.953c0.407,0.472,0.885,0.708,1.435,0.708c0.366,0,0.685-0.101,0.955-0.302
			c0.271-0.202,0.498-0.546,0.681-1.035l0.189,0.122c-0.086,0.558-0.334,1.065-0.745,1.523c-0.411,0.458-0.925,0.687-1.544,0.687
			c-0.671,0-1.246-0.261-1.724-0.784c-0.479-0.523-0.717-1.226-0.717-2.109c0-0.956,0.245-1.702,0.735-2.237
			s1.106-0.803,1.847-0.803c0.626,0,1.141,0.207,1.544,0.62s0.604,0.965,0.604,1.657H31.416z M31.416,7.161h2.588
			c-0.021-0.358-0.063-0.61-0.128-0.757c-0.102-0.228-0.253-0.407-0.455-0.537c-0.201-0.13-0.412-0.195-0.631-0.195
			c-0.338,0-0.64,0.131-0.907,0.394C31.616,6.328,31.461,6.693,31.416,7.161z"/>
		<path d="M37.579,6.429c0.655-0.79,1.279-1.185,1.874-1.185c0.305,0,0.568,0.077,0.788,0.229c0.22,0.153,0.395,0.404,0.524,0.754
			c0.09,0.244,0.135,0.619,0.135,1.123v2.386c0,0.354,0.028,0.594,0.085,0.721c0.045,0.102,0.117,0.181,0.217,0.238
			s0.284,0.085,0.553,0.085V11h-2.765v-0.22h0.116c0.261,0,0.443-0.04,0.546-0.119c0.104-0.079,0.176-0.196,0.217-0.351
			c0.016-0.062,0.024-0.252,0.024-0.574V7.448c0-0.509-0.066-0.878-0.198-1.108c-0.132-0.229-0.355-0.345-0.668-0.345
			c-0.484,0-0.966,0.265-1.446,0.793v2.948c0,0.379,0.022,0.613,0.067,0.702c0.057,0.118,0.135,0.205,0.235,0.259
			c0.1,0.055,0.302,0.083,0.607,0.083V11h-2.765v-0.22h0.122c0.285,0,0.477-0.072,0.577-0.217c0.1-0.144,0.149-0.42,0.149-0.827
			V7.661c0-0.671-0.015-1.08-0.046-1.227c-0.03-0.146-0.077-0.246-0.14-0.299c-0.063-0.053-0.147-0.08-0.253-0.08
			c-0.114,0-0.25,0.031-0.409,0.091l-0.092-0.22l1.685-0.684h0.263V6.429z"/>
		<path d="M46.856,6.374c0.541-0.753,1.125-1.129,1.751-1.129c0.574,0,1.074,0.246,1.501,0.736s0.641,1.161,0.641,2.011
			c0,0.993-0.329,1.792-0.988,2.398c-0.566,0.521-1.196,0.781-1.893,0.781c-0.325,0-0.656-0.059-0.992-0.177
			c-0.335-0.118-0.678-0.295-1.028-0.531V4.671c0-0.635-0.015-1.025-0.046-1.172c-0.03-0.146-0.078-0.247-0.143-0.299
			c-0.065-0.053-0.146-0.08-0.244-0.08c-0.114,0-0.257,0.033-0.428,0.098l-0.085-0.213l1.678-0.684h0.275V6.374z M46.856,6.764
			v3.345c0.207,0.204,0.422,0.357,0.644,0.461c0.222,0.104,0.449,0.156,0.681,0.156c0.37,0,0.715-0.204,1.035-0.61
			c0.319-0.407,0.479-0.999,0.479-1.776c0-0.716-0.16-1.267-0.479-1.651c-0.32-0.385-0.683-0.577-1.089-0.577
			c-0.216,0-0.432,0.055-0.647,0.165C47.316,6.357,47.108,6.52,46.856,6.764z"/>
		<path d="M54.742,10.194c-0.574,0.443-0.934,0.7-1.081,0.769c-0.22,0.102-0.454,0.153-0.702,0.153
			c-0.387,0-0.705-0.132-0.956-0.397c-0.25-0.265-0.375-0.612-0.375-1.043c0-0.273,0.062-0.509,0.184-0.708
			c0.167-0.277,0.457-0.537,0.87-0.781c0.413-0.244,1.1-0.542,2.06-0.892v-0.22c0-0.557-0.089-0.939-0.266-1.147
			c-0.177-0.207-0.435-0.311-0.772-0.311c-0.256,0-0.459,0.069-0.61,0.208c-0.154,0.138-0.231,0.297-0.231,0.476l0.012,0.354
			c0,0.187-0.048,0.332-0.143,0.434C52.635,7.189,52.51,7.24,52.355,7.24c-0.15,0-0.274-0.053-0.369-0.159
			c-0.096-0.106-0.144-0.25-0.144-0.433c0-0.35,0.179-0.672,0.537-0.965s0.86-0.439,1.508-0.439c0.496,0,0.903,0.083,1.221,0.25
			c0.24,0.126,0.417,0.324,0.531,0.592c0.073,0.175,0.11,0.533,0.11,1.074v1.898c0,0.533,0.01,0.86,0.03,0.979
			c0.021,0.12,0.054,0.201,0.101,0.241c0.046,0.041,0.101,0.061,0.162,0.061c0.065,0,0.122-0.014,0.171-0.043
			c0.085-0.053,0.25-0.201,0.494-0.445v0.342c-0.456,0.61-0.891,0.916-1.306,0.916c-0.2,0-0.358-0.069-0.477-0.208
			C54.807,10.764,54.746,10.528,54.742,10.194z M54.742,9.798v-2.13c-0.615,0.244-1.011,0.417-1.19,0.519
			C53.23,8.365,53,8.553,52.862,8.748c-0.139,0.195-0.208,0.409-0.208,0.641c0,0.293,0.088,0.536,0.263,0.729s0.376,0.29,0.604,0.29
			C53.831,10.408,54.237,10.205,54.742,9.798z"/>
		<path d="M58.683,5.244v1.258c0.468-0.838,0.948-1.258,1.44-1.258c0.224,0,0.409,0.068,0.556,0.205
			c0.146,0.137,0.22,0.294,0.22,0.473c0,0.159-0.053,0.293-0.159,0.403c-0.105,0.11-0.231,0.165-0.378,0.165
			c-0.143,0-0.302-0.07-0.479-0.21c-0.177-0.14-0.308-0.21-0.394-0.21c-0.073,0-0.152,0.041-0.238,0.122
			c-0.183,0.167-0.372,0.441-0.567,0.824v2.679c0,0.309,0.039,0.543,0.116,0.702c0.053,0.11,0.146,0.202,0.28,0.275
			c0.135,0.073,0.328,0.11,0.58,0.11V11h-2.862v-0.22c0.285,0,0.496-0.045,0.635-0.134c0.102-0.065,0.173-0.169,0.213-0.311
			c0.021-0.069,0.031-0.267,0.031-0.592V7.576c0-0.651-0.014-1.039-0.04-1.163c-0.026-0.124-0.075-0.214-0.146-0.271
			s-0.16-0.085-0.266-0.085c-0.126,0-0.269,0.031-0.427,0.091l-0.062-0.22l1.691-0.684H58.683z"/>
		<path d="M62.79,6.429c0.655-0.79,1.279-1.185,1.874-1.185c0.305,0,0.568,0.077,0.788,0.229c0.22,0.153,0.395,0.404,0.524,0.754
			c0.09,0.244,0.135,0.619,0.135,1.123v2.386c0,0.354,0.028,0.594,0.085,0.721c0.045,0.102,0.117,0.181,0.217,0.238
			s0.284,0.085,0.553,0.085V11H64.2v-0.22h0.116c0.261,0,0.443-0.04,0.546-0.119c0.104-0.079,0.176-0.196,0.217-0.351
			c0.016-0.062,0.024-0.252,0.024-0.574V7.448c0-0.509-0.066-0.878-0.198-1.108c-0.132-0.229-0.355-0.345-0.668-0.345
			c-0.484,0-0.966,0.265-1.446,0.793v2.948c0,0.379,0.022,0.613,0.067,0.702c0.057,0.118,0.135,0.205,0.235,0.259
			c0.1,0.055,0.302,0.083,0.607,0.083V11h-2.765v-0.22h0.122c0.285,0,0.477-0.072,0.577-0.217c0.1-0.144,0.149-0.42,0.149-0.827
			V7.661c0-0.671-0.015-1.08-0.046-1.227c-0.03-0.146-0.077-0.246-0.14-0.299c-0.063-0.053-0.147-0.08-0.253-0.08
			c-0.114,0-0.25,0.031-0.409,0.091l-0.092-0.22l1.685-0.684h0.263V6.429z"/>
		<path d="M72.464,5.244v4.492c0,0.35,0.025,0.583,0.076,0.699c0.051,0.116,0.126,0.202,0.226,0.259
			c0.1,0.057,0.282,0.085,0.546,0.085V11h-2.716v-0.22c0.272,0,0.456-0.026,0.549-0.079c0.094-0.053,0.168-0.141,0.223-0.263
			c0.055-0.122,0.083-0.356,0.083-0.702V7.582c0-0.606-0.018-0.999-0.055-1.178c-0.028-0.13-0.073-0.221-0.134-0.272
			c-0.062-0.051-0.145-0.076-0.25-0.076c-0.114,0-0.252,0.031-0.415,0.091l-0.085-0.22l1.685-0.684H72.464z M71.957,2.321
			c0.171,0,0.316,0.06,0.437,0.18s0.18,0.266,0.18,0.437s-0.06,0.317-0.18,0.439S72.128,3.56,71.957,3.56s-0.317-0.061-0.439-0.183
			s-0.183-0.269-0.183-0.439s0.06-0.316,0.18-0.437S71.782,2.321,71.957,2.321z"/>
		<path d="M82.511,2.534v2.863h-0.226c-0.073-0.549-0.205-0.987-0.394-1.312c-0.189-0.326-0.459-0.584-0.809-0.775
			c-0.35-0.191-0.712-0.287-1.086-0.287c-0.423,0-0.773,0.129-1.05,0.388c-0.277,0.259-0.415,0.553-0.415,0.882
			c0,0.252,0.087,0.482,0.262,0.69c0.252,0.305,0.853,0.712,1.8,1.221c0.773,0.415,1.301,0.733,1.584,0.955
			c0.283,0.222,0.5,0.483,0.653,0.785c0.152,0.301,0.229,0.616,0.229,0.946c0,0.626-0.243,1.167-0.729,1.621
			c-0.486,0.454-1.112,0.681-1.877,0.681c-0.24,0-0.466-0.019-0.677-0.055c-0.126-0.021-0.388-0.095-0.785-0.223
			c-0.396-0.128-0.648-0.192-0.753-0.192c-0.102,0-0.183,0.031-0.241,0.091c-0.059,0.062-0.103,0.188-0.131,0.379H77.64V8.351h0.226
			c0.106,0.594,0.248,1.039,0.427,1.333c0.179,0.295,0.453,0.54,0.821,0.735s0.772,0.293,1.211,0.293
			c0.509,0,0.911-0.134,1.206-0.402s0.443-0.586,0.443-0.952c0-0.204-0.056-0.409-0.168-0.617c-0.112-0.208-0.286-0.401-0.522-0.58
			c-0.159-0.122-0.592-0.382-1.3-0.778c-0.708-0.397-1.211-0.713-1.51-0.949c-0.299-0.236-0.526-0.497-0.681-0.781
			s-0.232-0.598-0.232-0.94c0-0.594,0.228-1.105,0.684-1.535c0.456-0.429,1.036-0.644,1.739-0.644c0.439,0,0.906,0.108,1.398,0.324
			c0.228,0.102,0.389,0.153,0.482,0.153c0.106,0,0.192-0.032,0.26-0.095c0.067-0.063,0.121-0.19,0.162-0.382H82.511z"/>
		<path d="M83.91,5.409h2.631v0.226H86.37c-0.159,0-0.28,0.039-0.363,0.116s-0.125,0.181-0.125,0.312
			c0,0.142,0.043,0.311,0.128,0.506l1.3,3.088l1.306-3.204c0.094-0.228,0.141-0.401,0.141-0.519c0-0.057-0.017-0.104-0.049-0.14
			c-0.045-0.062-0.102-0.103-0.171-0.125c-0.069-0.022-0.21-0.034-0.421-0.034V5.409h1.825v0.226
			c-0.211,0.017-0.358,0.059-0.439,0.128c-0.142,0.122-0.271,0.326-0.384,0.61l-1.984,4.797h-0.25l-1.996-4.718
			c-0.089-0.22-0.175-0.377-0.256-0.473c-0.082-0.096-0.186-0.176-0.312-0.241c-0.069-0.037-0.206-0.071-0.409-0.104V5.409z"/>
		<path d="M91.2,7.515c-0.004,0.83,0.197,1.481,0.604,1.953c0.407,0.472,0.885,0.708,1.435,0.708c0.366,0,0.685-0.101,0.955-0.302
			c0.271-0.202,0.498-0.546,0.681-1.035l0.189,0.122c-0.086,0.558-0.334,1.065-0.745,1.523c-0.411,0.458-0.925,0.687-1.544,0.687
			c-0.671,0-1.246-0.261-1.724-0.784c-0.479-0.523-0.717-1.226-0.717-2.109c0-0.956,0.245-1.702,0.735-2.237
			s1.106-0.803,1.847-0.803c0.626,0,1.141,0.207,1.544,0.62s0.604,0.965,0.604,1.657H91.2z M91.2,7.161h2.588
			c-0.021-0.358-0.063-0.61-0.128-0.757c-0.102-0.228-0.253-0.407-0.455-0.537c-0.201-0.13-0.412-0.195-0.631-0.195
			c-0.338,0-0.64,0.131-0.907,0.394C91.4,6.328,91.245,6.693,91.2,7.161z"/>
		<path d="M97.368,5.244v1.258c0.469-0.838,0.949-1.258,1.441-1.258c0.223,0,0.408,0.068,0.555,0.205
			c0.146,0.137,0.221,0.294,0.221,0.473c0,0.159-0.053,0.293-0.16,0.403c-0.105,0.11-0.23,0.165-0.377,0.165
			c-0.143,0-0.303-0.07-0.48-0.21c-0.176-0.14-0.307-0.21-0.393-0.21c-0.074,0-0.152,0.041-0.238,0.122
			c-0.184,0.167-0.373,0.441-0.568,0.824v2.679c0,0.309,0.039,0.543,0.117,0.702c0.053,0.11,0.146,0.202,0.279,0.275
			c0.135,0.073,0.328,0.11,0.58,0.11V11h-2.862v-0.22c0.285,0,0.496-0.045,0.635-0.134c0.102-0.065,0.173-0.169,0.213-0.311
			c0.021-0.069,0.031-0.267,0.031-0.592V7.576c0-0.651-0.014-1.039-0.04-1.163c-0.026-0.124-0.075-0.214-0.146-0.271
			s-0.16-0.085-0.266-0.085c-0.126,0-0.269,0.031-0.427,0.091l-0.062-0.22l1.691-0.684H97.368z"/>
		<path d="M101.774,5.244v4.492c0,0.35,0.025,0.583,0.076,0.699c0.051,0.116,0.126,0.202,0.226,0.259s0.282,0.085,0.547,0.085V11
			h-2.717v-0.22c0.273,0,0.456-0.026,0.55-0.079c0.094-0.053,0.168-0.141,0.223-0.263s0.083-0.356,0.083-0.702V7.582
			c0-0.606-0.019-0.999-0.056-1.178c-0.028-0.13-0.073-0.221-0.134-0.272c-0.062-0.051-0.145-0.076-0.25-0.076
			c-0.114,0-0.253,0.031-0.416,0.091l-0.085-0.22l1.685-0.684H101.774z M101.268,2.321c0.171,0,0.316,0.06,0.437,0.18
			s0.181,0.266,0.181,0.437s-0.061,0.317-0.181,0.439s-0.266,0.183-0.437,0.183s-0.317-0.061-0.439-0.183s-0.183-0.269-0.183-0.439
			s0.06-0.316,0.18-0.437S101.093,2.321,101.268,2.321z"/>
		<path d="M104.851,8.961c-0.342-0.167-0.604-0.4-0.787-0.699c-0.183-0.299-0.274-0.63-0.274-0.992c0-0.553,0.208-1.029,0.625-1.428
			c0.417-0.399,0.951-0.599,1.603-0.599c0.533,0,0.995,0.13,1.386,0.391h1.184c0.175,0,0.277,0.005,0.306,0.016
			s0.049,0.027,0.061,0.052c0.024,0.037,0.037,0.102,0.037,0.195c0,0.106-0.011,0.179-0.03,0.22
			c-0.013,0.021-0.034,0.037-0.064,0.049s-0.134,0.019-0.309,0.019h-0.727c0.229,0.293,0.342,0.667,0.342,1.123
			c0,0.521-0.199,0.966-0.598,1.336s-0.934,0.555-1.605,0.555c-0.276,0-0.56-0.041-0.848-0.122c-0.18,0.155-0.301,0.29-0.363,0.406
			c-0.063,0.116-0.095,0.214-0.095,0.296c0,0.069,0.033,0.136,0.101,0.201c0.067,0.065,0.198,0.112,0.394,0.141
			c0.114,0.016,0.398,0.03,0.854,0.043c0.838,0.02,1.382,0.049,1.63,0.085c0.378,0.053,0.681,0.193,0.906,0.421
			s0.339,0.509,0.339,0.842c0,0.46-0.216,0.891-0.647,1.294c-0.635,0.594-1.463,0.891-2.483,0.891c-0.786,0-1.449-0.177-1.99-0.531
			c-0.305-0.204-0.458-0.415-0.458-0.635c0-0.098,0.022-0.195,0.067-0.293c0.069-0.151,0.212-0.36,0.428-0.629
			c0.028-0.037,0.235-0.256,0.622-0.659c-0.212-0.126-0.361-0.239-0.448-0.339c-0.088-0.1-0.132-0.212-0.132-0.339
			c0-0.142,0.059-0.309,0.174-0.5C104.164,9.582,104.432,9.312,104.851,8.961z M104.79,11c-0.191,0.208-0.336,0.401-0.434,0.58
			c-0.098,0.179-0.146,0.344-0.146,0.494c0,0.195,0.118,0.366,0.354,0.513c0.406,0.252,0.994,0.378,1.764,0.378
			c0.732,0,1.272-0.129,1.62-0.388s0.522-0.534,0.522-0.827c0-0.212-0.104-0.362-0.312-0.452c-0.212-0.089-0.631-0.142-1.258-0.158
			C105.986,11.116,105.282,11.069,104.79,11z M105.913,5.537c-0.302,0-0.554,0.12-0.757,0.36c-0.204,0.24-0.306,0.608-0.306,1.104
			c0,0.643,0.139,1.142,0.415,1.496c0.212,0.269,0.48,0.403,0.806,0.403c0.31,0,0.563-0.116,0.763-0.348
			c0.2-0.232,0.3-0.596,0.3-1.093c0-0.647-0.141-1.153-0.421-1.52C106.505,5.672,106.238,5.537,105.913,5.537z"/>
		<path d="M110.545,7.515c-0.004,0.83,0.198,1.481,0.604,1.953c0.407,0.472,0.886,0.708,1.435,0.708
			c0.366,0,0.685-0.101,0.955-0.302c0.271-0.202,0.498-0.546,0.681-1.035l0.189,0.122c-0.086,0.558-0.334,1.065-0.745,1.523
			c-0.411,0.458-0.926,0.687-1.544,0.687c-0.671,0-1.246-0.261-1.725-0.784c-0.478-0.523-0.717-1.226-0.717-2.109
			c0-0.956,0.245-1.702,0.735-2.237s1.105-0.803,1.847-0.803c0.626,0,1.142,0.207,1.544,0.62s0.604,0.965,0.604,1.657H110.545z
			 M110.545,7.161h2.588c-0.02-0.358-0.062-0.61-0.128-0.757c-0.102-0.228-0.253-0.407-0.454-0.537
			c-0.202-0.13-0.412-0.195-0.632-0.195c-0.338,0-0.641,0.131-0.906,0.394C110.746,6.328,110.59,6.693,110.545,7.161z"/>
	</g>
	<g>
		<path d="M21.674,29.121c-0.273,0.285-0.54,0.489-0.8,0.613s-0.541,0.187-0.842,0.187c-0.61,0-1.144-0.255-1.599-0.766
			s-0.684-1.167-0.684-1.969s0.252-1.535,0.757-2.2c0.504-0.666,1.153-0.998,1.947-0.998c0.492,0,0.899,0.157,1.221,0.47v-1.031
			c0-0.639-0.016-1.031-0.046-1.178c-0.031-0.146-0.079-0.247-0.144-0.299s-0.146-0.08-0.244-0.08c-0.106,0-0.246,0.033-0.421,0.098
			l-0.08-0.213l1.667-0.684h0.274v6.463c0,0.655,0.015,1.056,0.046,1.199c0.03,0.145,0.079,0.245,0.146,0.303
			c0.067,0.057,0.146,0.085,0.235,0.085c0.11,0,0.256-0.034,0.439-0.104l0.067,0.214l-1.66,0.689h-0.28V29.121z M21.674,28.694
			v-2.881c-0.024-0.277-0.098-0.529-0.22-0.757c-0.122-0.228-0.284-0.4-0.485-0.516c-0.202-0.116-0.398-0.174-0.589-0.174
			c-0.358,0-0.678,0.161-0.958,0.482c-0.37,0.423-0.555,1.042-0.555,1.855c0,0.822,0.179,1.452,0.537,1.89
			c0.358,0.438,0.757,0.656,1.196,0.656C20.97,29.25,21.328,29.064,21.674,28.694z"/>
		<path d="M24.915,26.265c-0.004,0.83,0.197,1.481,0.604,1.953c0.407,0.473,0.885,0.708,1.435,0.708
			c0.366,0,0.685-0.101,0.955-0.302s0.498-0.546,0.681-1.034l0.189,0.121c-0.086,0.558-0.334,1.065-0.745,1.523
			c-0.411,0.458-0.925,0.687-1.544,0.687c-0.671,0-1.246-0.262-1.724-0.784c-0.479-0.522-0.717-1.226-0.717-2.109
			c0-0.956,0.245-1.701,0.735-2.236s1.106-0.803,1.847-0.803c0.626,0,1.141,0.207,1.544,0.62s0.604,0.965,0.604,1.657H24.915z
			 M24.915,25.911h2.588c-0.021-0.358-0.063-0.61-0.128-0.757c-0.102-0.228-0.253-0.407-0.455-0.537
			c-0.201-0.13-0.412-0.195-0.631-0.195c-0.338,0-0.64,0.131-0.907,0.394C25.115,25.078,24.959,25.443,24.915,25.911z"/>
		<path d="M31.371,21.071v7.416c0,0.351,0.025,0.582,0.076,0.696c0.051,0.113,0.129,0.2,0.235,0.259
			c0.106,0.06,0.303,0.089,0.592,0.089v0.22h-2.741v-0.22c0.256,0,0.431-0.026,0.525-0.079s0.167-0.141,0.22-0.263
			s0.079-0.356,0.079-0.702v-5.078c0-0.63-0.014-1.018-0.042-1.163c-0.028-0.144-0.074-0.243-0.137-0.296
			c-0.063-0.053-0.144-0.08-0.241-0.08c-0.106,0-0.24,0.033-0.403,0.098l-0.104-0.213l1.667-0.684H31.371z"/>
		<path d="M33.71,26.265c-0.004,0.83,0.197,1.481,0.604,1.953c0.407,0.473,0.885,0.708,1.435,0.708c0.366,0,0.685-0.101,0.955-0.302
			s0.498-0.546,0.681-1.034l0.189,0.121c-0.086,0.558-0.334,1.065-0.745,1.523c-0.411,0.458-0.925,0.687-1.544,0.687
			c-0.671,0-1.246-0.262-1.724-0.784c-0.479-0.522-0.717-1.226-0.717-2.109c0-0.956,0.245-1.701,0.735-2.236
			s1.106-0.803,1.847-0.803c0.626,0,1.141,0.207,1.544,0.62s0.604,0.965,0.604,1.657H33.71z M33.71,25.911h2.588
			c-0.021-0.358-0.063-0.61-0.128-0.757c-0.102-0.228-0.253-0.407-0.455-0.537c-0.201-0.13-0.412-0.195-0.631-0.195
			c-0.338,0-0.64,0.131-0.907,0.394C33.911,25.078,33.755,25.443,33.71,25.911z"/>
		<path d="M39.874,25.179c0.655-0.79,1.279-1.185,1.874-1.185c0.305,0,0.568,0.077,0.788,0.229c0.22,0.153,0.395,0.404,0.524,0.754
			c0.09,0.244,0.135,0.619,0.135,1.123v2.386c0,0.354,0.028,0.595,0.085,0.721c0.045,0.102,0.117,0.181,0.217,0.238
			c0.1,0.057,0.284,0.085,0.553,0.085v0.22h-2.765v-0.22h0.116c0.261,0,0.443-0.04,0.546-0.119c0.104-0.079,0.176-0.196,0.217-0.351
			c0.016-0.062,0.024-0.253,0.024-0.574v-2.289c0-0.508-0.066-0.877-0.198-1.107c-0.132-0.229-0.355-0.345-0.668-0.345
			c-0.484,0-0.966,0.265-1.446,0.793v2.948c0,0.379,0.022,0.612,0.067,0.702c0.057,0.118,0.135,0.204,0.235,0.26
			c0.1,0.055,0.302,0.082,0.607,0.082v0.22h-2.765v-0.22h0.122c0.285,0,0.477-0.072,0.577-0.217c0.1-0.145,0.149-0.42,0.149-0.827
			v-2.075c0-0.671-0.015-1.08-0.046-1.227c-0.03-0.146-0.077-0.246-0.14-0.299c-0.063-0.053-0.147-0.08-0.253-0.08
			c-0.114,0-0.25,0.031-0.409,0.091l-0.092-0.22l1.685-0.684h0.263V25.179z"/>
		<path d="M84.635,28.157l-0.58,1.593h-4.883v-0.226c1.437-1.311,2.447-2.381,3.033-3.211s0.879-1.589,0.879-2.276
			c0-0.525-0.161-0.956-0.482-1.294s-0.706-0.507-1.154-0.507c-0.407,0-0.772,0.119-1.095,0.357
			c-0.324,0.238-0.562,0.587-0.717,1.047H79.41c0.102-0.753,0.363-1.331,0.784-1.733c0.421-0.403,0.947-0.604,1.578-0.604
			c0.671,0,1.232,0.216,1.682,0.647c0.449,0.431,0.674,0.94,0.674,1.526c0,0.419-0.098,0.838-0.293,1.257
			c-0.301,0.659-0.79,1.357-1.465,2.093c-1.013,1.107-1.646,1.774-1.898,2.002h2.161c0.439,0,0.748-0.016,0.924-0.049
			c0.177-0.032,0.337-0.099,0.479-0.198c0.143-0.1,0.267-0.241,0.373-0.424H84.635z"/>
		<path d="M90.716,25.185c0.407-0.407,0.647-0.641,0.72-0.702c0.183-0.154,0.38-0.274,0.592-0.36
			c0.211-0.085,0.421-0.128,0.628-0.128c0.35,0,0.651,0.102,0.903,0.306c0.252,0.203,0.421,0.498,0.506,0.885
			c0.419-0.488,0.773-0.809,1.062-0.961c0.289-0.152,0.586-0.229,0.891-0.229c0.297,0,0.561,0.077,0.791,0.229
			c0.23,0.153,0.412,0.402,0.546,0.748c0.09,0.236,0.135,0.606,0.135,1.111v2.404c0,0.351,0.026,0.59,0.08,0.721
			c0.04,0.089,0.115,0.166,0.225,0.229c0.109,0.063,0.289,0.095,0.537,0.095v0.22h-2.758v-0.22h0.116
			c0.24,0,0.427-0.047,0.562-0.141c0.093-0.064,0.161-0.169,0.201-0.312c0.016-0.068,0.024-0.266,0.024-0.592v-2.404
			c0-0.456-0.055-0.777-0.165-0.965c-0.158-0.26-0.413-0.391-0.763-0.391c-0.216,0-0.433,0.054-0.65,0.162
			c-0.218,0.108-0.481,0.308-0.791,0.601l-0.012,0.067l0.012,0.263v2.667c0,0.383,0.021,0.621,0.064,0.715
			c0.043,0.093,0.123,0.172,0.241,0.234c0.118,0.063,0.319,0.095,0.604,0.095v0.22h-2.826v-0.22c0.309,0,0.522-0.036,0.638-0.11
			c0.116-0.072,0.196-0.183,0.241-0.329c0.021-0.069,0.031-0.271,0.031-0.604v-2.404c0-0.456-0.067-0.784-0.202-0.983
			c-0.179-0.26-0.429-0.391-0.75-0.391c-0.22,0-0.438,0.059-0.653,0.177c-0.338,0.179-0.598,0.38-0.781,0.604v2.997
			c0,0.366,0.025,0.604,0.076,0.715c0.051,0.109,0.126,0.191,0.226,0.247c0.1,0.055,0.302,0.082,0.607,0.082v0.22h-2.765v-0.22
			c0.256,0,0.436-0.027,0.537-0.082c0.102-0.056,0.179-0.143,0.232-0.263s0.08-0.354,0.08-0.699v-2.136
			c0-0.615-0.019-1.011-0.055-1.19c-0.028-0.134-0.073-0.227-0.134-0.278c-0.061-0.051-0.145-0.076-0.25-0.076
			c-0.114,0-0.25,0.031-0.409,0.091l-0.092-0.22l1.685-0.684h0.263V25.185z"/>
		<path d="M100.558,23.994v4.492c0,0.351,0.025,0.583,0.076,0.699s0.126,0.202,0.226,0.26c0.1,0.057,0.282,0.085,0.547,0.085v0.22
			h-2.717v-0.22c0.273,0,0.456-0.026,0.55-0.079s0.168-0.141,0.223-0.263s0.083-0.356,0.083-0.702v-2.154
			c0-0.606-0.019-0.999-0.056-1.178c-0.028-0.13-0.073-0.221-0.134-0.272c-0.062-0.051-0.145-0.076-0.25-0.076
			c-0.114,0-0.253,0.031-0.416,0.091l-0.085-0.22l1.685-0.684H100.558z M100.051,21.071c0.171,0,0.316,0.06,0.437,0.18
			s0.181,0.266,0.181,0.437s-0.061,0.317-0.181,0.439s-0.266,0.183-0.437,0.183s-0.317-0.061-0.439-0.183s-0.183-0.269-0.183-0.439
			s0.06-0.316,0.18-0.437S99.876,21.071,100.051,21.071z"/>
		<path d="M104.062,21.071v7.416c0,0.351,0.025,0.582,0.076,0.696c0.051,0.113,0.129,0.2,0.235,0.259
			c0.105,0.06,0.303,0.089,0.592,0.089v0.22h-2.74v-0.22c0.256,0,0.431-0.026,0.524-0.079s0.167-0.141,0.22-0.263
			s0.079-0.356,0.079-0.702v-5.078c0-0.63-0.014-1.018-0.042-1.163c-0.029-0.144-0.075-0.243-0.138-0.296
			c-0.063-0.053-0.144-0.08-0.241-0.08c-0.105,0-0.24,0.033-0.402,0.098l-0.104-0.213l1.667-0.684H104.062z"/>
		<path d="M107.403,23.994v5.628c0,0.956-0.204,1.666-0.611,2.13c-0.406,0.464-0.936,0.695-1.586,0.695
			c-0.371,0-0.646-0.066-0.824-0.201c-0.18-0.134-0.269-0.272-0.269-0.415s0.05-0.265,0.149-0.366s0.217-0.152,0.351-0.152
			c0.106,0,0.214,0.026,0.323,0.079c0.069,0.028,0.203,0.132,0.4,0.309s0.363,0.266,0.497,0.266c0.098,0,0.193-0.038,0.287-0.113
			s0.163-0.201,0.208-0.378c0.044-0.178,0.066-0.561,0.066-1.15v-3.98c0-0.614-0.018-1.009-0.055-1.184
			c-0.028-0.134-0.073-0.227-0.135-0.278c-0.061-0.051-0.144-0.076-0.25-0.076c-0.113,0-0.252,0.031-0.415,0.091l-0.085-0.22
			l1.685-0.684H107.403z M106.878,21.064c0.175,0,0.323,0.062,0.445,0.184s0.184,0.271,0.184,0.445c0,0.171-0.062,0.317-0.184,0.439
			s-0.271,0.183-0.445,0.183c-0.171,0-0.317-0.061-0.439-0.183s-0.184-0.269-0.184-0.439c0-0.175,0.062-0.323,0.184-0.445
			S106.707,21.064,106.878,21.064z"/>
		<path d="M111.707,23.994c0.847,0,1.525,0.322,2.039,0.965c0.435,0.549,0.652,1.18,0.652,1.892c0,0.501-0.12,1.007-0.359,1.521
			c-0.24,0.512-0.571,0.898-0.992,1.159s-0.891,0.391-1.407,0.391c-0.842,0-1.512-0.336-2.008-1.007
			c-0.419-0.565-0.629-1.2-0.629-1.904c0-0.513,0.127-1.022,0.382-1.529c0.254-0.506,0.589-0.881,1.004-1.123
			C110.804,24.116,111.243,23.994,111.707,23.994z M111.518,24.391c-0.216,0-0.433,0.064-0.649,0.192
			c-0.218,0.128-0.394,0.353-0.528,0.674s-0.201,0.734-0.201,1.239c0,0.813,0.161,1.516,0.485,2.105
			c0.323,0.59,0.749,0.885,1.278,0.885c0.395,0,0.721-0.162,0.977-0.488c0.256-0.325,0.385-0.885,0.385-1.679
			c0-0.992-0.214-1.773-0.641-2.343C112.334,24.586,111.966,24.391,111.518,24.391z"/>
		<path d="M116.853,25.179c0.655-0.79,1.279-1.185,1.874-1.185c0.305,0,0.567,0.077,0.787,0.229c0.22,0.153,0.395,0.404,0.524,0.754
			c0.09,0.244,0.135,0.619,0.135,1.123v2.386c0,0.354,0.028,0.595,0.085,0.721c0.045,0.102,0.117,0.181,0.217,0.238
			c0.1,0.057,0.284,0.085,0.553,0.085v0.22h-2.766v-0.22h0.116c0.261,0,0.442-0.04,0.547-0.119c0.104-0.079,0.176-0.196,0.216-0.351
			c0.017-0.062,0.025-0.253,0.025-0.574v-2.289c0-0.508-0.066-0.877-0.199-1.107c-0.132-0.229-0.354-0.345-0.668-0.345
			c-0.484,0-0.967,0.265-1.446,0.793v2.948c0,0.379,0.022,0.612,0.067,0.702c0.057,0.118,0.135,0.204,0.234,0.26
			c0.1,0.055,0.303,0.082,0.607,0.082v0.22h-2.765v-0.22h0.122c0.284,0,0.477-0.072,0.576-0.217s0.15-0.42,0.15-0.827v-2.075
			c0-0.671-0.016-1.08-0.046-1.227c-0.031-0.146-0.078-0.246-0.141-0.299c-0.063-0.053-0.147-0.08-0.253-0.08
			c-0.114,0-0.251,0.031-0.409,0.091l-0.092-0.22l1.685-0.684h0.263V25.179z"/>
		<path d="M122.412,26.265c-0.004,0.83,0.198,1.481,0.604,1.953c0.407,0.473,0.886,0.708,1.435,0.708
			c0.366,0,0.685-0.101,0.955-0.302s0.498-0.546,0.681-1.034l0.189,0.121c-0.086,0.558-0.334,1.065-0.745,1.523
			s-0.926,0.687-1.544,0.687c-0.671,0-1.246-0.262-1.725-0.784c-0.478-0.522-0.717-1.226-0.717-2.109
			c0-0.956,0.245-1.701,0.735-2.236s1.105-0.803,1.847-0.803c0.626,0,1.142,0.207,1.544,0.62s0.604,0.965,0.604,1.657H122.412z
			 M122.412,25.911H125c-0.02-0.358-0.062-0.61-0.128-0.757c-0.102-0.228-0.253-0.407-0.454-0.537
			c-0.202-0.13-0.412-0.195-0.632-0.195c-0.338,0-0.641,0.131-0.906,0.394C122.613,25.078,122.457,25.443,122.412,25.911z"/>
		<path d="M128.582,23.994v1.258c0.468-0.838,0.948-1.258,1.44-1.258c0.224,0,0.409,0.068,0.556,0.205
			c0.146,0.137,0.22,0.294,0.22,0.473c0,0.159-0.053,0.293-0.159,0.403c-0.105,0.11-0.231,0.165-0.378,0.165
			c-0.143,0-0.303-0.07-0.479-0.21c-0.177-0.14-0.308-0.21-0.394-0.21c-0.073,0-0.152,0.041-0.238,0.122
			c-0.183,0.167-0.372,0.441-0.567,0.824v2.679c0,0.31,0.039,0.544,0.116,0.702c0.053,0.11,0.146,0.202,0.28,0.274
			c0.135,0.074,0.328,0.11,0.58,0.11v0.22h-2.862v-0.22c0.284,0,0.496-0.045,0.635-0.134c0.102-0.065,0.173-0.169,0.213-0.312
			c0.021-0.069,0.031-0.267,0.031-0.593v-2.166c0-0.651-0.014-1.039-0.04-1.163c-0.026-0.124-0.075-0.214-0.146-0.271
			s-0.159-0.085-0.266-0.085c-0.126,0-0.269,0.031-0.427,0.091l-0.062-0.22l1.69-0.684H128.582z"/>
		<path d="M167.475,28.157l-0.58,1.593h-4.883v-0.226c1.437-1.311,2.447-2.381,3.033-3.211s0.879-1.589,0.879-2.276
			c0-0.525-0.16-0.956-0.481-1.294c-0.322-0.338-0.706-0.507-1.154-0.507c-0.406,0-0.771,0.119-1.096,0.357
			c-0.323,0.238-0.562,0.587-0.717,1.047h-0.226c0.102-0.753,0.363-1.331,0.784-1.733c0.421-0.403,0.947-0.604,1.578-0.604
			c0.671,0,1.231,0.216,1.681,0.647c0.45,0.431,0.675,0.94,0.675,1.526c0,0.419-0.098,0.838-0.293,1.257
			c-0.301,0.659-0.789,1.357-1.465,2.093c-1.014,1.107-1.646,1.774-1.898,2.002h2.161c0.439,0,0.747-0.016,0.925-0.049
			c0.177-0.032,0.336-0.099,0.479-0.198s0.267-0.241,0.373-0.424H167.475z"/>
		<path d="M186.72,22.285l2.014-0.982h0.202v6.988c0,0.464,0.019,0.753,0.058,0.867c0.039,0.113,0.119,0.201,0.241,0.262
			c0.122,0.062,0.37,0.096,0.745,0.104v0.226h-3.113v-0.226c0.391-0.009,0.643-0.042,0.757-0.101
			c0.114-0.06,0.193-0.139,0.238-0.238s0.067-0.397,0.067-0.895v-4.468c0-0.602-0.021-0.988-0.062-1.159
			c-0.028-0.13-0.08-0.226-0.155-0.287c-0.076-0.061-0.166-0.092-0.271-0.092c-0.151,0-0.36,0.063-0.629,0.189L186.72,22.285z"/>
	</g>
	<g>
		<path d="M15.512,46.914c-0.273,0.285-0.54,0.489-0.8,0.613s-0.541,0.187-0.842,0.187c-0.61,0-1.144-0.255-1.599-0.766
			s-0.684-1.167-0.684-1.969s0.252-1.535,0.757-2.2s1.153-0.998,1.947-0.998c0.492,0,0.899,0.156,1.221,0.47V41.22
			c0-0.639-0.016-1.031-0.046-1.178c-0.031-0.146-0.079-0.246-0.144-0.3c-0.065-0.053-0.146-0.079-0.244-0.079
			c-0.106,0-0.246,0.033-0.421,0.098l-0.08-0.214l1.667-0.684h0.274v6.464c0,0.655,0.015,1.056,0.046,1.199
			c0.03,0.145,0.079,0.245,0.146,0.303c0.067,0.057,0.146,0.085,0.235,0.085c0.11,0,0.256-0.034,0.439-0.104l0.067,0.214
			l-1.66,0.689h-0.28V46.914z M15.512,46.487v-2.881c-0.024-0.277-0.098-0.529-0.22-0.757c-0.122-0.229-0.284-0.4-0.485-0.516
			c-0.202-0.116-0.398-0.174-0.589-0.174c-0.358,0-0.678,0.16-0.958,0.481c-0.37,0.424-0.555,1.042-0.555,1.855
			c0,0.822,0.179,1.452,0.537,1.89c0.358,0.438,0.757,0.656,1.196,0.656C14.808,47.043,15.166,46.857,15.512,46.487z"/>
		<path d="M18.752,44.058c-0.004,0.83,0.197,1.481,0.604,1.953c0.407,0.473,0.885,0.708,1.435,0.708
			c0.366,0,0.685-0.101,0.955-0.302s0.498-0.546,0.681-1.034l0.189,0.121c-0.086,0.558-0.334,1.065-0.745,1.523
			c-0.411,0.458-0.925,0.687-1.544,0.687c-0.671,0-1.246-0.262-1.724-0.784c-0.479-0.522-0.717-1.226-0.717-2.109
			c0-0.956,0.245-1.701,0.735-2.236s1.106-0.803,1.847-0.803c0.626,0,1.141,0.207,1.544,0.619c0.403,0.413,0.604,0.966,0.604,1.657
			H18.752z M18.752,43.704h2.588c-0.021-0.358-0.063-0.61-0.128-0.757c-0.102-0.229-0.253-0.407-0.455-0.537
			c-0.201-0.131-0.412-0.195-0.631-0.195c-0.338,0-0.64,0.131-0.907,0.394S18.797,43.236,18.752,43.704z"/>
		<path d="M24.909,40.115v1.837h1.306v0.427h-1.306v3.626c0,0.362,0.052,0.606,0.156,0.732c0.104,0.126,0.237,0.189,0.399,0.189
			c0.135,0,0.265-0.042,0.391-0.125c0.126-0.084,0.224-0.207,0.293-0.37h0.238c-0.143,0.399-0.344,0.699-0.604,0.9
			c-0.26,0.202-0.529,0.303-0.806,0.303c-0.187,0-0.37-0.052-0.549-0.156c-0.179-0.104-0.312-0.252-0.397-0.445
			s-0.128-0.491-0.128-0.895v-3.76h-0.885v-0.201c0.224-0.089,0.453-0.241,0.687-0.454c0.234-0.214,0.442-0.468,0.626-0.761
			c0.093-0.154,0.224-0.437,0.391-0.848H24.909z"/>
		<path d="M31.562,38.863v4.09c0.452-0.496,0.81-0.814,1.074-0.955c0.265-0.141,0.529-0.211,0.794-0.211
			c0.317,0,0.59,0.088,0.817,0.263c0.228,0.175,0.397,0.449,0.507,0.824c0.077,0.26,0.116,0.736,0.116,1.428v1.978
			c0,0.354,0.028,0.597,0.085,0.727c0.041,0.098,0.11,0.175,0.208,0.232c0.098,0.057,0.276,0.085,0.537,0.085v0.22h-2.747v-0.22
			h0.128c0.26,0,0.441-0.04,0.543-0.119c0.102-0.079,0.173-0.196,0.213-0.351c0.012-0.065,0.018-0.257,0.018-0.574v-1.978
			c0-0.61-0.031-1.011-0.094-1.202c-0.063-0.191-0.164-0.335-0.302-0.431c-0.138-0.095-0.305-0.144-0.5-0.144
			c-0.199,0-0.407,0.054-0.623,0.159s-0.474,0.319-0.775,0.641v2.954c0,0.383,0.021,0.621,0.064,0.715
			c0.042,0.093,0.122,0.172,0.238,0.234c0.116,0.063,0.316,0.095,0.601,0.095v0.22h-2.771v-0.22c0.248,0,0.443-0.039,0.586-0.116
			c0.081-0.04,0.146-0.118,0.195-0.231c0.049-0.114,0.073-0.346,0.073-0.696v-5.06c0-0.639-0.016-1.031-0.046-1.178
			c-0.031-0.146-0.078-0.246-0.141-0.3c-0.063-0.053-0.147-0.079-0.253-0.079c-0.086,0-0.224,0.033-0.415,0.098l-0.086-0.214
			l1.673-0.684H31.562z"/>
		<path d="M37.111,44.058c-0.004,0.83,0.197,1.481,0.604,1.953c0.407,0.473,0.885,0.708,1.435,0.708
			c0.366,0,0.685-0.101,0.955-0.302s0.498-0.546,0.681-1.034l0.189,0.121c-0.086,0.558-0.334,1.065-0.745,1.523
			c-0.411,0.458-0.925,0.687-1.544,0.687c-0.671,0-1.246-0.262-1.724-0.784c-0.479-0.522-0.717-1.226-0.717-2.109
			c0-0.956,0.245-1.701,0.735-2.236s1.106-0.803,1.847-0.803c0.626,0,1.141,0.207,1.544,0.619c0.403,0.413,0.604,0.966,0.604,1.657
			H37.111z M37.111,43.704h2.588c-0.021-0.358-0.063-0.61-0.128-0.757c-0.102-0.229-0.253-0.407-0.455-0.537
			c-0.201-0.131-0.412-0.195-0.631-0.195c-0.338,0-0.64,0.131-0.907,0.394S37.156,43.236,37.111,43.704z"/>
		<path d="M43.567,38.863v7.416c0,0.351,0.025,0.582,0.076,0.696c0.051,0.113,0.129,0.2,0.235,0.259
			c0.106,0.06,0.303,0.089,0.592,0.089v0.22h-2.741v-0.22c0.256,0,0.431-0.026,0.525-0.079s0.167-0.141,0.22-0.263
			s0.079-0.356,0.079-0.702v-5.078c0-0.631-0.014-1.018-0.042-1.162s-0.074-0.243-0.137-0.297c-0.063-0.053-0.144-0.079-0.241-0.079
			c-0.106,0-0.24,0.033-0.403,0.098l-0.104-0.214l1.667-0.684H43.567z"/>
		<path d="M48.135,46.737c-0.574,0.443-0.934,0.7-1.081,0.769c-0.22,0.103-0.454,0.153-0.702,0.153
			c-0.387,0-0.705-0.133-0.956-0.397c-0.25-0.264-0.375-0.612-0.375-1.043c0-0.272,0.062-0.509,0.184-0.708
			c0.167-0.277,0.457-0.537,0.87-0.781c0.413-0.244,1.1-0.541,2.06-0.892v-0.22c0-0.558-0.089-0.939-0.266-1.147
			c-0.177-0.207-0.435-0.311-0.772-0.311c-0.256,0-0.459,0.068-0.61,0.207c-0.154,0.139-0.231,0.297-0.231,0.477l0.012,0.354
			c0,0.188-0.048,0.332-0.143,0.434c-0.096,0.102-0.221,0.152-0.375,0.152c-0.15,0-0.274-0.053-0.369-0.158
			c-0.096-0.106-0.144-0.251-0.144-0.434c0-0.351,0.179-0.672,0.537-0.965s0.86-0.439,1.508-0.439c0.496,0,0.903,0.084,1.221,0.25
			c0.24,0.127,0.417,0.324,0.531,0.593c0.073,0.175,0.11,0.533,0.11,1.074v1.897c0,0.533,0.01,0.86,0.03,0.98
			c0.021,0.12,0.054,0.2,0.101,0.24c0.046,0.041,0.101,0.062,0.162,0.062c0.065,0,0.122-0.015,0.171-0.043
			c0.085-0.053,0.25-0.201,0.494-0.445v0.342c-0.456,0.61-0.891,0.915-1.306,0.915c-0.2,0-0.358-0.068-0.477-0.207
			C48.2,47.307,48.139,47.071,48.135,46.737z M48.135,46.341v-2.13c-0.615,0.244-1.011,0.417-1.19,0.519
			c-0.321,0.179-0.551,0.366-0.689,0.562c-0.139,0.195-0.208,0.408-0.208,0.641c0,0.293,0.088,0.536,0.263,0.729
			s0.376,0.29,0.604,0.29C47.223,46.951,47.63,46.747,48.135,46.341z"/>
		<path d="M69.819,49.99v0.227c-0.614-0.31-1.127-0.672-1.538-1.087c-0.586-0.59-1.038-1.286-1.355-2.087
			c-0.317-0.802-0.476-1.634-0.476-2.497c0-1.261,0.312-2.411,0.934-3.451c0.623-1.04,1.435-1.783,2.436-2.231v0.257
			c-0.5,0.276-0.912,0.655-1.233,1.136c-0.321,0.479-0.562,1.088-0.72,1.824s-0.238,1.506-0.238,2.308
			c0,0.87,0.067,1.662,0.202,2.374c0.106,0.562,0.234,1.012,0.384,1.352c0.151,0.34,0.353,0.667,0.607,0.98
			C69.075,49.406,69.408,49.706,69.819,49.99z"/>
		<path d="M76.156,45.95l-0.58,1.593h-4.883v-0.226c1.437-1.311,2.447-2.381,3.033-3.211s0.879-1.589,0.879-2.276
			c0-0.525-0.161-0.956-0.482-1.294s-0.706-0.507-1.154-0.507c-0.407,0-0.772,0.119-1.095,0.357
			c-0.324,0.238-0.562,0.587-0.717,1.047h-0.226c0.102-0.753,0.363-1.331,0.784-1.733c0.421-0.403,0.947-0.604,1.578-0.604
			c0.671,0,1.232,0.216,1.682,0.646c0.449,0.432,0.674,0.94,0.674,1.526c0,0.419-0.098,0.838-0.293,1.257
			c-0.301,0.66-0.79,1.357-1.465,2.094c-1.013,1.107-1.646,1.774-1.898,2.002h2.161c0.439,0,0.748-0.016,0.924-0.049
			c0.177-0.032,0.337-0.099,0.479-0.198c0.143-0.1,0.267-0.241,0.373-0.424H76.156z"/>
		<path d="M89.96,43.374c-0.655-0.537-1.077-0.968-1.266-1.294c-0.189-0.325-0.284-0.663-0.284-1.013c0-0.537,0.207-1,0.622-1.389
			s0.967-0.583,1.654-0.583c0.667,0,1.205,0.181,1.611,0.543s0.61,0.775,0.61,1.239c0,0.31-0.11,0.625-0.33,0.946
			s-0.677,0.699-1.374,1.135c0.716,0.554,1.19,0.989,1.422,1.307c0.309,0.415,0.464,0.853,0.464,1.312
			c0,0.581-0.222,1.079-0.666,1.492c-0.443,0.413-1.025,0.619-1.745,0.619c-0.786,0-1.398-0.246-1.837-0.738
			c-0.35-0.395-0.525-0.826-0.525-1.294c0-0.366,0.123-0.729,0.369-1.09S89.358,43.81,89.96,43.374z M90.248,43.606
			c-0.338,0.284-0.588,0.595-0.751,0.931c-0.163,0.336-0.244,0.699-0.244,1.09c0,0.524,0.144,0.944,0.431,1.26
			c0.287,0.315,0.652,0.473,1.096,0.473c0.439,0,0.791-0.124,1.056-0.372s0.396-0.549,0.396-0.903c0-0.293-0.077-0.555-0.231-0.787
			C91.71,44.865,91.126,44.302,90.248,43.606z M90.919,42.721c0.488-0.439,0.797-0.786,0.928-1.04s0.195-0.542,0.195-0.864
			c0-0.427-0.12-0.762-0.36-1.004c-0.24-0.241-0.568-0.363-0.983-0.363s-0.753,0.12-1.013,0.36s-0.391,0.521-0.391,0.843
			c0,0.211,0.054,0.423,0.162,0.635c0.108,0.211,0.262,0.413,0.461,0.604L90.919,42.721z"/>
		<path d="M93.905,39.12v-0.257c0.619,0.306,1.133,0.666,1.544,1.081c0.582,0.594,1.031,1.291,1.349,2.09
			c0.317,0.8,0.476,1.633,0.476,2.5c0,1.261-0.311,2.412-0.931,3.451c-0.621,1.04-1.434,1.783-2.438,2.231V49.99
			c0.5-0.28,0.913-0.66,1.236-1.138c0.324-0.479,0.563-1.087,0.72-1.825s0.235-1.509,0.235-2.311c0-0.866-0.067-1.658-0.201-2.374
			c-0.102-0.562-0.229-1.011-0.381-1.349c-0.153-0.338-0.355-0.663-0.607-0.977S94.32,39.405,93.905,39.12z"/>
		<path d="M103.476,42.978c0.407-0.407,0.646-0.641,0.721-0.702c0.183-0.154,0.38-0.274,0.592-0.359
			c0.211-0.086,0.421-0.129,0.629-0.129c0.35,0,0.65,0.102,0.902,0.306c0.253,0.203,0.422,0.498,0.507,0.885
			c0.419-0.488,0.773-0.809,1.062-0.961c0.289-0.153,0.586-0.229,0.891-0.229c0.297,0,0.561,0.076,0.791,0.229
			c0.229,0.152,0.411,0.401,0.546,0.747c0.09,0.236,0.135,0.606,0.135,1.111v2.404c0,0.351,0.026,0.59,0.079,0.721
			c0.04,0.089,0.116,0.166,0.226,0.229c0.109,0.063,0.289,0.095,0.537,0.095v0.22h-2.759v-0.22h0.116
			c0.24,0,0.427-0.047,0.562-0.141c0.094-0.064,0.16-0.169,0.201-0.312c0.017-0.068,0.024-0.266,0.024-0.592v-2.404
			c0-0.456-0.055-0.777-0.165-0.965c-0.158-0.26-0.413-0.391-0.763-0.391c-0.216,0-0.433,0.055-0.65,0.162s-0.48,0.309-0.79,0.602
			l-0.013,0.066l0.013,0.263v2.667c0,0.383,0.021,0.621,0.064,0.715c0.042,0.093,0.123,0.172,0.241,0.234
			c0.117,0.063,0.319,0.095,0.604,0.095v0.22h-2.826v-0.22c0.31,0,0.522-0.036,0.639-0.11c0.115-0.072,0.196-0.183,0.24-0.329
			c0.021-0.069,0.031-0.271,0.031-0.604v-2.404c0-0.456-0.067-0.783-0.201-0.982c-0.18-0.261-0.43-0.391-0.751-0.391
			c-0.22,0-0.438,0.059-0.653,0.177c-0.338,0.179-0.598,0.38-0.781,0.604v2.996c0,0.366,0.025,0.604,0.076,0.715
			c0.051,0.109,0.126,0.191,0.226,0.247c0.1,0.055,0.303,0.082,0.607,0.082v0.22h-2.765v-0.22c0.256,0,0.436-0.027,0.537-0.082
			c0.102-0.056,0.179-0.143,0.232-0.263c0.053-0.12,0.079-0.354,0.079-0.699v-2.136c0-0.614-0.019-1.012-0.056-1.19
			c-0.028-0.135-0.072-0.227-0.134-0.277s-0.145-0.076-0.25-0.076c-0.114,0-0.251,0.03-0.409,0.091l-0.092-0.22l1.685-0.684h0.263
			V42.978z"/>
		<path d="M113.316,41.787v4.492c0,0.351,0.025,0.583,0.076,0.699s0.126,0.202,0.226,0.26c0.1,0.057,0.282,0.085,0.547,0.085v0.22
			h-2.717v-0.22c0.273,0,0.456-0.026,0.55-0.079s0.168-0.141,0.223-0.263s0.083-0.356,0.083-0.702v-2.154
			c0-0.606-0.019-0.999-0.056-1.178c-0.028-0.131-0.073-0.221-0.134-0.271c-0.062-0.051-0.145-0.076-0.25-0.076
			c-0.114,0-0.253,0.03-0.416,0.091l-0.085-0.22l1.685-0.684H113.316z M112.81,38.863c0.171,0,0.316,0.061,0.437,0.181
			s0.181,0.266,0.181,0.437s-0.061,0.317-0.181,0.439s-0.266,0.183-0.437,0.183s-0.317-0.061-0.439-0.183s-0.183-0.269-0.183-0.439
			s0.06-0.316,0.18-0.437S112.635,38.863,112.81,38.863z"/>
		<path d="M116.821,38.863v7.416c0,0.351,0.025,0.582,0.076,0.696c0.051,0.113,0.129,0.2,0.235,0.259
			c0.105,0.06,0.303,0.089,0.592,0.089v0.22h-2.74v-0.22c0.256,0,0.431-0.026,0.524-0.079s0.167-0.141,0.22-0.263
			s0.079-0.356,0.079-0.702v-5.078c0-0.631-0.014-1.018-0.042-1.162c-0.029-0.145-0.075-0.243-0.138-0.297
			c-0.063-0.053-0.144-0.079-0.241-0.079c-0.105,0-0.24,0.033-0.402,0.098l-0.104-0.214l1.667-0.684H116.821z"/>
		<path d="M120.163,41.787v5.628c0,0.956-0.204,1.666-0.611,2.13c-0.406,0.464-0.936,0.695-1.586,0.695
			c-0.371,0-0.646-0.066-0.824-0.201c-0.18-0.134-0.269-0.272-0.269-0.415s0.05-0.265,0.149-0.366s0.217-0.152,0.351-0.152
			c0.106,0,0.214,0.026,0.323,0.079c0.069,0.028,0.203,0.132,0.4,0.309s0.363,0.266,0.497,0.266c0.098,0,0.193-0.038,0.287-0.113
			s0.163-0.201,0.208-0.378c0.044-0.178,0.066-0.561,0.066-1.15v-3.98c0-0.614-0.018-1.009-0.055-1.184
			c-0.028-0.135-0.073-0.227-0.135-0.277c-0.061-0.051-0.144-0.076-0.25-0.076c-0.113,0-0.252,0.03-0.415,0.091l-0.085-0.22
			l1.685-0.684H120.163z M119.638,38.857c0.175,0,0.323,0.062,0.445,0.184s0.184,0.271,0.184,0.445c0,0.171-0.062,0.317-0.184,0.439
			s-0.271,0.184-0.445,0.184c-0.171,0-0.317-0.062-0.439-0.184s-0.184-0.269-0.184-0.439c0-0.175,0.062-0.323,0.184-0.445
			S119.467,38.857,119.638,38.857z"/>
		<path d="M124.466,41.787c0.847,0,1.525,0.321,2.039,0.965c0.435,0.549,0.652,1.18,0.652,1.892c0,0.501-0.12,1.007-0.359,1.521
			c-0.24,0.512-0.571,0.898-0.992,1.159s-0.891,0.391-1.407,0.391c-0.842,0-1.512-0.336-2.008-1.007
			c-0.419-0.565-0.629-1.2-0.629-1.904c0-0.513,0.127-1.022,0.382-1.529c0.254-0.507,0.589-0.881,1.004-1.123
			S124.002,41.787,124.466,41.787z M124.276,42.184c-0.216,0-0.433,0.064-0.649,0.192c-0.218,0.129-0.394,0.354-0.528,0.675
			s-0.201,0.734-0.201,1.239c0,0.813,0.161,1.516,0.485,2.105c0.323,0.59,0.749,0.885,1.278,0.885c0.395,0,0.721-0.162,0.977-0.488
			c0.256-0.325,0.385-0.885,0.385-1.679c0-0.992-0.214-1.773-0.641-2.344C125.093,42.379,124.725,42.184,124.276,42.184z"/>
		<path d="M129.611,42.972c0.655-0.79,1.279-1.185,1.874-1.185c0.305,0,0.567,0.076,0.787,0.229c0.22,0.152,0.395,0.403,0.524,0.753
			c0.09,0.244,0.135,0.619,0.135,1.123v2.387c0,0.354,0.028,0.595,0.085,0.721c0.045,0.102,0.117,0.181,0.217,0.238
			c0.1,0.057,0.284,0.085,0.553,0.085v0.22h-2.766v-0.22h0.116c0.261,0,0.442-0.04,0.547-0.119c0.104-0.079,0.176-0.196,0.216-0.351
			c0.017-0.062,0.025-0.253,0.025-0.574V43.99c0-0.508-0.066-0.877-0.199-1.107c-0.132-0.229-0.354-0.345-0.668-0.345
			c-0.484,0-0.967,0.265-1.446,0.794v2.947c0,0.379,0.022,0.612,0.067,0.702c0.057,0.118,0.135,0.204,0.234,0.26
			c0.1,0.055,0.303,0.082,0.607,0.082v0.22h-2.765v-0.22h0.122c0.284,0,0.477-0.072,0.576-0.217s0.15-0.42,0.15-0.827v-2.075
			c0-0.671-0.016-1.08-0.046-1.227c-0.031-0.146-0.078-0.246-0.141-0.299c-0.063-0.053-0.147-0.079-0.253-0.079
			c-0.114,0-0.251,0.03-0.409,0.091l-0.092-0.22l1.685-0.684h0.263V42.972z"/>
		<path d="M135.171,44.058c-0.004,0.83,0.198,1.481,0.604,1.953c0.407,0.473,0.886,0.708,1.435,0.708
			c0.366,0,0.685-0.101,0.955-0.302s0.498-0.546,0.681-1.034l0.189,0.121c-0.086,0.558-0.334,1.065-0.745,1.523
			s-0.926,0.687-1.544,0.687c-0.671,0-1.246-0.262-1.725-0.784c-0.478-0.522-0.717-1.226-0.717-2.109
			c0-0.956,0.245-1.701,0.735-2.236s1.105-0.803,1.847-0.803c0.626,0,1.142,0.207,1.544,0.619c0.402,0.413,0.604,0.966,0.604,1.657
			H135.171z M135.171,43.704h2.588c-0.02-0.358-0.062-0.61-0.128-0.757c-0.102-0.229-0.253-0.407-0.454-0.537
			c-0.202-0.131-0.412-0.195-0.632-0.195c-0.338,0-0.641,0.131-0.906,0.394C135.372,42.871,135.216,43.236,135.171,43.704z"/>
		<path d="M141.341,41.787v1.258c0.468-0.839,0.948-1.258,1.44-1.258c0.224,0,0.409,0.068,0.556,0.205
			c0.146,0.136,0.22,0.294,0.22,0.473c0,0.158-0.053,0.293-0.159,0.402c-0.105,0.11-0.231,0.165-0.378,0.165
			c-0.143,0-0.303-0.07-0.479-0.21c-0.177-0.141-0.308-0.211-0.394-0.211c-0.073,0-0.152,0.041-0.238,0.122
			c-0.183,0.167-0.372,0.441-0.567,0.824v2.679c0,0.31,0.039,0.544,0.116,0.702c0.053,0.11,0.146,0.202,0.28,0.274
			c0.135,0.074,0.328,0.11,0.58,0.11v0.22h-2.862v-0.22c0.284,0,0.496-0.045,0.635-0.134c0.102-0.065,0.173-0.169,0.213-0.312
			c0.021-0.069,0.031-0.267,0.031-0.593v-2.166c0-0.651-0.014-1.039-0.04-1.163s-0.075-0.215-0.146-0.271s-0.159-0.085-0.266-0.085
			c-0.126,0-0.269,0.03-0.427,0.091l-0.062-0.22l1.69-0.684H141.341z"/>
		<path d="M159.404,40.078l2.014-0.982h0.202v6.988c0,0.464,0.019,0.753,0.058,0.867c0.039,0.113,0.119,0.201,0.241,0.262
			c0.122,0.062,0.37,0.096,0.745,0.104v0.226h-3.113v-0.226c0.391-0.009,0.643-0.042,0.757-0.101
			c0.114-0.06,0.193-0.139,0.238-0.238s0.067-0.397,0.067-0.895v-4.468c0-0.602-0.021-0.988-0.062-1.159
			c-0.028-0.131-0.08-0.227-0.155-0.287c-0.076-0.061-0.166-0.092-0.271-0.092c-0.151,0-0.36,0.063-0.629,0.189L159.404,40.078z"/>
		<path d="M164.641,43.453c0-0.943,0.143-1.756,0.428-2.438s0.663-1.189,1.135-1.523c0.367-0.265,0.745-0.396,1.136-0.396
			c0.635,0,1.204,0.323,1.709,0.971c0.631,0.802,0.946,1.888,0.946,3.259c0,0.961-0.139,1.776-0.415,2.448
			c-0.277,0.671-0.63,1.158-1.06,1.461c-0.429,0.304-0.843,0.455-1.242,0.455c-0.789,0-1.446-0.466-1.971-1.397
			C164.863,45.507,164.641,44.561,164.641,43.453z M165.838,43.606c0,1.139,0.14,2.069,0.421,2.789
			c0.231,0.606,0.577,0.909,1.037,0.909c0.22,0,0.448-0.099,0.684-0.296c0.236-0.197,0.415-0.528,0.537-0.991
			c0.188-0.7,0.281-1.688,0.281-2.961c0-0.943-0.098-1.731-0.293-2.361c-0.146-0.469-0.336-0.8-0.567-0.995
			c-0.167-0.135-0.369-0.202-0.604-0.202c-0.277,0-0.523,0.125-0.739,0.373c-0.293,0.338-0.492,0.868-0.598,1.593
			S165.838,42.902,165.838,43.606z"/>
		<path d="M190.777,39.267l-0.476,1.038h-2.49l-0.544,1.11c1.079,0.159,1.934,0.56,2.564,1.202c0.541,0.554,0.812,1.205,0.812,1.953
			c0,0.436-0.089,0.839-0.266,1.209s-0.399,0.686-0.669,0.945c-0.268,0.261-0.567,0.471-0.896,0.629
			c-0.468,0.224-0.948,0.336-1.44,0.336c-0.497,0-0.857-0.085-1.084-0.253c-0.226-0.169-0.339-0.355-0.339-0.559
			c0-0.114,0.047-0.215,0.141-0.303c0.094-0.087,0.212-0.131,0.354-0.131c0.105,0,0.198,0.017,0.277,0.049s0.215,0.116,0.406,0.25
			c0.305,0.212,0.614,0.317,0.928,0.317c0.476,0,0.894-0.18,1.254-0.54s0.54-0.799,0.54-1.315c0-0.5-0.16-0.967-0.482-1.4
			c-0.321-0.434-0.765-0.769-1.33-1.004c-0.443-0.184-1.048-0.289-1.812-0.317l1.587-3.217H190.777z"/>
	</g>
	<g>
		<path d="M118.038,6.367h6.409v0.592h-6.409V6.367z M118.038,8.644h6.409v0.604h-6.409V8.644z"/>
	</g>
	<g>
		<path d="M0.226,33.281h6.409v0.592H0.226V33.281z M0.226,35.559h6.409v0.604H0.226V35.559z"/>
		<path d="M54.986,33.281h6.409v0.592h-6.409V33.281z M54.986,35.559h6.409v0.604h-6.409V35.559z"/>
		<path d="M148.184,33.281h6.409v0.592h-6.409V33.281z M148.184,35.559h6.409v0.604h-6.409V35.559z"/>
		<path d="M174.619,33.281h6.409v0.592h-6.409V33.281z M174.619,35.559h6.409v0.604h-6.409V35.559z"/>
	</g>
	<g>
		<path d="M81.848,41.135h0.598v2.917h2.899v0.592h-2.899v2.899h-0.598v-2.899h-2.912v-0.592h2.912V41.135z"/>
	</g>
</g>
<g id="theGroup">
</g>
</svg>
