<?xml version="1.0" encoding="iso-8859-1"?>
<!-- Generator: Adobe Illustrator 16.0.0, SVG Export Plug-In . SVG Version: 6.00 Build 0)  -->
<!DOCTYPE svg PUBLIC "-//W3C//DTD SVG 1.1//EN" "http://www.w3.org/Graphics/SVG/1.1/DTD/svg11.dtd">
<svg version="1.1" id="Lager_1" xmlns="http://www.w3.org/2000/svg" xmlns:xlink="http://www.w3.org/1999/xlink" x="0px" y="0px"
	 width="114.038px" height="15.454px" viewBox="0 0 114.038 15.454" style="enable-background:new 0 0 114.038 15.454;"
	 xml:space="preserve">
<g>
	<g>
		<path d="M23.648,2.131c0.136-0.322,0.309-0.571,0.517-0.746c0.208-0.175,0.468-0.263,0.778-0.263c0.383,0,0.677,0.125,0.882,0.374
			c0.155,0.186,0.233,0.385,0.233,0.597c0,0.348-0.219,0.708-0.656,1.08c0.294,0.115,0.517,0.28,0.667,0.494
			c0.15,0.214,0.226,0.466,0.226,0.755c0,0.414-0.131,0.773-0.395,1.076c-0.343,0.396-0.841,0.593-1.493,0.593
			c-0.322,0-0.542-0.04-0.658-0.12c-0.117-0.08-0.175-0.166-0.175-0.258c0-0.068,0.027-0.128,0.083-0.18
			c0.055-0.052,0.122-0.078,0.199-0.078c0.059,0,0.119,0.009,0.18,0.028c0.04,0.012,0.131,0.055,0.272,0.129
			s0.239,0.118,0.293,0.132c0.087,0.026,0.18,0.039,0.279,0.039c0.24,0,0.449-0.093,0.626-0.279c0.178-0.186,0.267-0.406,0.267-0.66
			c0-0.186-0.041-0.367-0.124-0.543c-0.061-0.132-0.128-0.232-0.201-0.3c-0.101-0.094-0.24-0.179-0.417-0.256
			c-0.176-0.076-0.356-0.114-0.54-0.114h-0.113V3.525c0.186-0.023,0.373-0.091,0.56-0.201c0.187-0.111,0.323-0.244,0.408-0.399
			C25.43,2.77,25.473,2.6,25.473,2.414c0-0.242-0.076-0.438-0.228-0.587c-0.152-0.149-0.341-0.224-0.566-0.224
			c-0.365,0-0.669,0.195-0.914,0.586L23.648,2.131z"/>
	</g>
	<g>
		<path d="M5.426,3.345L4.95,4.382H2.46L1.917,5.493c1.078,0.159,1.933,0.56,2.563,1.202C5.021,7.249,5.292,7.9,5.292,8.648
			c0,0.436-0.089,0.839-0.266,1.209c-0.177,0.37-0.4,0.686-0.668,0.945c-0.269,0.261-0.568,0.471-0.897,0.629
			c-0.468,0.224-0.948,0.336-1.44,0.336c-0.497,0-0.858-0.085-1.083-0.253c-0.226-0.169-0.339-0.355-0.339-0.559
			c0-0.114,0.047-0.215,0.14-0.303c0.094-0.087,0.212-0.131,0.354-0.131c0.105,0,0.198,0.017,0.277,0.049
			c0.08,0.032,0.215,0.116,0.406,0.25c0.305,0.212,0.614,0.317,0.928,0.317c0.476,0,0.894-0.18,1.254-0.54
			c0.36-0.36,0.54-0.799,0.54-1.315c0-0.5-0.161-0.967-0.482-1.4C3.695,7.449,3.251,7.115,2.686,6.879
			C2.242,6.695,1.638,6.59,0.873,6.562L2.46,3.345H5.426z"/>
		<path d="M12.165,4.156l2.014-0.982h0.202v6.988c0,0.464,0.019,0.753,0.058,0.867c0.039,0.113,0.119,0.201,0.241,0.262
			c0.122,0.062,0.37,0.096,0.745,0.104v0.226h-3.113v-0.226c0.391-0.009,0.643-0.042,0.757-0.101
			c0.114-0.06,0.193-0.139,0.238-0.238c0.044-0.1,0.067-0.397,0.067-0.895V5.694c0-0.602-0.021-0.988-0.061-1.159
			c-0.028-0.13-0.081-0.226-0.156-0.287s-0.166-0.092-0.271-0.092c-0.15,0-0.36,0.063-0.628,0.189L12.165,4.156z"/>
		<path d="M17.402,7.532c0-0.944,0.143-1.757,0.427-2.438c0.285-0.681,0.663-1.189,1.135-1.523c0.366-0.264,0.745-0.396,1.135-0.396
			c0.635,0,1.205,0.323,1.709,0.971c0.631,0.801,0.946,1.888,0.946,3.259c0,0.96-0.139,1.776-0.415,2.448
			c-0.277,0.671-0.63,1.158-1.059,1.461c-0.43,0.304-0.843,0.455-1.242,0.455c-0.79,0-1.447-0.466-1.971-1.397
			C17.624,9.585,17.402,8.639,17.402,7.532z M18.598,7.685c0,1.139,0.14,2.069,0.421,2.789c0.231,0.606,0.578,0.909,1.037,0.909
			c0.22,0,0.448-0.099,0.684-0.296c0.236-0.197,0.415-0.528,0.537-0.991c0.188-0.7,0.281-1.687,0.281-2.961
			c0-0.944-0.098-1.731-0.293-2.362c-0.146-0.468-0.336-0.799-0.568-0.995c-0.167-0.135-0.368-0.202-0.604-0.202
			c-0.277,0-0.523,0.124-0.739,0.373c-0.293,0.337-0.492,0.869-0.598,1.593S18.598,6.98,18.598,7.685z"/>
		<path d="M43.175,3.345V3.57c-0.215,0-0.391,0.039-0.524,0.116c-0.135,0.077-0.263,0.222-0.385,0.434
			c-0.082,0.142-0.209,0.482-0.385,1.019l-2.307,6.671h-0.244l-1.886-5.292l-1.874,5.292h-0.22l-2.46-6.873
			c-0.183-0.513-0.299-0.815-0.348-0.909c-0.082-0.155-0.192-0.27-0.333-0.345C32.07,3.608,31.88,3.57,31.64,3.57V3.345h3.063V3.57
			h-0.146c-0.215,0-0.38,0.049-0.494,0.146s-0.171,0.216-0.171,0.354c0,0.142,0.089,0.47,0.269,0.982l1.63,4.645l1.373-3.949
			l-0.244-0.696l-0.195-0.556c-0.085-0.203-0.181-0.382-0.287-0.537c-0.053-0.077-0.118-0.142-0.195-0.195
			c-0.102-0.073-0.203-0.126-0.305-0.158c-0.078-0.024-0.2-0.037-0.366-0.037V3.345h3.223V3.57h-0.22
			c-0.228,0-0.395,0.049-0.501,0.146c-0.105,0.098-0.158,0.23-0.158,0.397c0,0.208,0.091,0.57,0.274,1.086l1.587,4.498l1.575-4.559
			c0.179-0.504,0.269-0.854,0.269-1.05c0-0.094-0.03-0.181-0.088-0.262c-0.059-0.082-0.133-0.139-0.223-0.171
			c-0.155-0.057-0.356-0.086-0.604-0.086V3.345H43.175z"/>
		<path d="M47.654,8.136c-0.004,0.83,0.197,1.481,0.604,1.953c0.407,0.473,0.885,0.708,1.435,0.708c0.366,0,0.685-0.101,0.955-0.302
			s0.498-0.546,0.681-1.034l0.189,0.121c-0.086,0.558-0.334,1.065-0.745,1.523c-0.411,0.458-0.925,0.687-1.544,0.687
			c-0.671,0-1.246-0.262-1.724-0.784c-0.479-0.522-0.717-1.226-0.717-2.109c0-0.956,0.245-1.701,0.735-2.236
			s1.106-0.803,1.847-0.803c0.626,0,1.141,0.207,1.544,0.62s0.604,0.965,0.604,1.657H47.654z M47.654,7.782h2.588
			c-0.021-0.358-0.063-0.61-0.128-0.757c-0.102-0.228-0.253-0.407-0.455-0.537c-0.201-0.13-0.412-0.195-0.631-0.195
			c-0.338,0-0.64,0.131-0.907,0.394C47.854,6.949,47.699,7.314,47.654,7.782z"/>
		<path d="M54.11,2.942v7.416c0,0.351,0.025,0.582,0.076,0.696c0.051,0.113,0.129,0.2,0.235,0.259
			c0.106,0.06,0.303,0.089,0.592,0.089v0.22h-2.741v-0.22c0.256,0,0.431-0.026,0.525-0.079s0.167-0.141,0.22-0.263
			s0.079-0.356,0.079-0.702V5.279c0-0.63-0.014-1.018-0.042-1.163c-0.028-0.144-0.074-0.243-0.137-0.296
			c-0.063-0.053-0.144-0.08-0.241-0.08c-0.106,0-0.24,0.033-0.403,0.098l-0.104-0.213l1.667-0.684H54.11z"/>
		<path d="M57.433,2.942v7.416c0,0.351,0.025,0.582,0.076,0.696c0.051,0.113,0.129,0.2,0.235,0.259
			c0.106,0.06,0.303,0.089,0.592,0.089v0.22h-2.741v-0.22c0.256,0,0.431-0.026,0.525-0.079s0.167-0.141,0.22-0.263
			s0.079-0.356,0.079-0.702V5.279c0-0.63-0.014-1.018-0.042-1.163c-0.028-0.144-0.074-0.243-0.137-0.296
			c-0.063-0.053-0.144-0.08-0.241-0.08c-0.106,0-0.24,0.033-0.403,0.098l-0.104-0.213l1.667-0.684H57.433z"/>
		<path d="M59.772,8.136c-0.004,0.83,0.198,1.481,0.604,1.953c0.407,0.473,0.886,0.708,1.435,0.708c0.366,0,0.685-0.101,0.955-0.302
			s0.498-0.546,0.681-1.034l0.189,0.121c-0.086,0.558-0.334,1.065-0.745,1.523s-0.926,0.687-1.544,0.687
			c-0.671,0-1.246-0.262-1.725-0.784c-0.478-0.522-0.717-1.226-0.717-2.109c0-0.956,0.245-1.701,0.735-2.236
			s1.105-0.803,1.847-0.803c0.626,0,1.142,0.207,1.544,0.62s0.604,0.965,0.604,1.657H59.772z M59.772,7.782h2.588
			c-0.02-0.358-0.062-0.61-0.128-0.757c-0.102-0.228-0.253-0.407-0.454-0.537c-0.202-0.13-0.412-0.195-0.632-0.195
			c-0.338,0-0.641,0.131-0.906,0.394C59.974,6.949,59.817,7.314,59.772,7.782z"/>
		<path d="M65.941,5.865v1.258c0.468-0.838,0.948-1.258,1.44-1.258c0.224,0,0.409,0.068,0.556,0.205
			c0.146,0.137,0.22,0.294,0.22,0.473c0,0.159-0.053,0.293-0.159,0.403c-0.105,0.11-0.231,0.165-0.378,0.165
			c-0.143,0-0.303-0.07-0.479-0.21c-0.177-0.14-0.308-0.21-0.394-0.21c-0.073,0-0.152,0.041-0.238,0.122
			c-0.183,0.167-0.372,0.441-0.567,0.824v2.679c0,0.31,0.039,0.544,0.116,0.702c0.053,0.11,0.146,0.202,0.28,0.274
			c0.135,0.074,0.328,0.11,0.58,0.11v0.22h-2.862v-0.22c0.284,0,0.496-0.045,0.635-0.134c0.102-0.065,0.173-0.169,0.213-0.312
			c0.021-0.069,0.031-0.267,0.031-0.593V8.197c0-0.651-0.014-1.039-0.04-1.163c-0.026-0.124-0.075-0.214-0.146-0.271
			s-0.159-0.085-0.266-0.085c-0.126,0-0.269,0.031-0.427,0.091l-0.062-0.22l1.69-0.684H65.941z"/>
		<path d="M76.578,3.345l-0.476,1.038h-2.49l-0.544,1.111c1.079,0.159,1.934,0.56,2.564,1.202c0.541,0.554,0.812,1.205,0.812,1.953
			c0,0.436-0.089,0.839-0.266,1.209s-0.399,0.686-0.669,0.945c-0.268,0.261-0.567,0.471-0.896,0.629
			c-0.468,0.224-0.948,0.336-1.44,0.336c-0.497,0-0.857-0.085-1.084-0.253c-0.226-0.169-0.339-0.355-0.339-0.559
			c0-0.114,0.047-0.215,0.141-0.303c0.094-0.087,0.212-0.131,0.354-0.131c0.105,0,0.198,0.017,0.277,0.049s0.215,0.116,0.406,0.25
			c0.305,0.212,0.614,0.317,0.928,0.317c0.476,0,0.894-0.18,1.254-0.54s0.54-0.799,0.54-1.315c0-0.5-0.16-0.967-0.482-1.4
			c-0.321-0.434-0.765-0.768-1.33-1.004c-0.443-0.184-1.048-0.289-1.812-0.317l1.587-3.217H76.578z"/>
		<path d="M80.429,7.532c0-0.944,0.143-1.757,0.428-2.438c0.285-0.681,0.663-1.189,1.135-1.523c0.367-0.264,0.745-0.396,1.136-0.396
			c0.635,0,1.204,0.323,1.709,0.971c0.631,0.801,0.946,1.888,0.946,3.259c0,0.96-0.139,1.776-0.415,2.448
			c-0.277,0.671-0.63,1.158-1.06,1.461c-0.429,0.304-0.843,0.455-1.242,0.455c-0.789,0-1.446-0.466-1.971-1.397
			C80.651,9.585,80.429,8.639,80.429,7.532z M81.626,7.685c0,1.139,0.14,2.069,0.421,2.789c0.231,0.606,0.577,0.909,1.037,0.909
			c0.22,0,0.448-0.099,0.684-0.296c0.236-0.197,0.415-0.528,0.537-0.991c0.188-0.7,0.281-1.687,0.281-2.961
			c0-0.944-0.098-1.731-0.293-2.362c-0.146-0.468-0.336-0.799-0.567-0.995c-0.167-0.135-0.369-0.202-0.604-0.202
			c-0.277,0-0.523,0.124-0.739,0.373c-0.293,0.337-0.492,0.869-0.598,1.593S81.626,6.98,81.626,7.685z"/>
		<path d="M86.679,7.532c0-0.944,0.143-1.757,0.428-2.438c0.285-0.681,0.663-1.189,1.135-1.523c0.367-0.264,0.745-0.396,1.136-0.396
			c0.635,0,1.204,0.323,1.709,0.971c0.631,0.801,0.946,1.888,0.946,3.259c0,0.96-0.139,1.776-0.415,2.448
			c-0.277,0.671-0.63,1.158-1.06,1.461c-0.429,0.304-0.843,0.455-1.242,0.455c-0.789,0-1.446-0.466-1.971-1.397
			C86.901,9.585,86.679,8.639,86.679,7.532z M87.876,7.685c0,1.139,0.14,2.069,0.421,2.789c0.231,0.606,0.577,0.909,1.037,0.909
			c0.22,0,0.448-0.099,0.684-0.296c0.236-0.197,0.415-0.528,0.537-0.991c0.188-0.7,0.281-1.687,0.281-2.961
			c0-0.944-0.098-1.731-0.293-2.362c-0.146-0.468-0.336-0.799-0.567-0.995c-0.167-0.135-0.369-0.202-0.604-0.202
			c-0.277,0-0.523,0.124-0.739,0.373c-0.293,0.337-0.492,0.869-0.598,1.593S87.876,6.98,87.876,7.685z"/>
		<path d="M92.929,7.532c0-0.944,0.143-1.757,0.428-2.438c0.285-0.681,0.663-1.189,1.135-1.523c0.367-0.264,0.745-0.396,1.136-0.396
			c0.635,0,1.204,0.323,1.709,0.971c0.631,0.801,0.946,1.888,0.946,3.259c0,0.96-0.139,1.776-0.415,2.448
			c-0.277,0.671-0.63,1.158-1.06,1.461c-0.429,0.304-0.843,0.455-1.242,0.455c-0.789,0-1.446-0.466-1.971-1.397
			C93.151,9.585,92.929,8.639,92.929,7.532z M94.126,7.685c0,1.139,0.14,2.069,0.421,2.789c0.231,0.606,0.577,0.909,1.037,0.909
			c0.22,0,0.448-0.099,0.684-0.296c0.236-0.197,0.415-0.528,0.537-0.991c0.188-0.7,0.281-1.687,0.281-2.961
			c0-0.944-0.098-1.731-0.293-2.362c-0.146-0.468-0.336-0.799-0.567-0.995c-0.167-0.135-0.369-0.202-0.604-0.202
			c-0.277,0-0.523,0.124-0.739,0.373c-0.293,0.337-0.492,0.869-0.598,1.593S94.126,6.98,94.126,7.685z"/>
		<path d="M113.94,3.345V3.57c-0.216,0-0.391,0.039-0.524,0.116c-0.135,0.077-0.263,0.222-0.385,0.434
			c-0.081,0.142-0.21,0.482-0.385,1.019l-2.307,6.671h-0.244l-1.887-5.292l-1.873,5.292h-0.22l-2.46-6.873
			c-0.184-0.513-0.299-0.815-0.348-0.909c-0.082-0.155-0.192-0.27-0.333-0.345s-0.33-0.113-0.57-0.113V3.345h3.063V3.57h-0.146
			c-0.216,0-0.38,0.049-0.494,0.146s-0.171,0.216-0.171,0.354c0,0.142,0.09,0.47,0.269,0.982l1.63,4.645l1.373-3.949l-0.244-0.696
			l-0.195-0.556c-0.085-0.203-0.181-0.382-0.287-0.537c-0.053-0.077-0.118-0.142-0.195-0.195c-0.102-0.073-0.203-0.126-0.305-0.158
			c-0.077-0.024-0.199-0.037-0.366-0.037V3.345h3.223V3.57h-0.22c-0.229,0-0.395,0.049-0.501,0.146
			c-0.105,0.098-0.158,0.23-0.158,0.397c0,0.208,0.092,0.57,0.274,1.086l1.587,4.498l1.574-4.559c0.18-0.504,0.27-0.854,0.27-1.05
			c0-0.094-0.03-0.181-0.089-0.262c-0.06-0.082-0.134-0.139-0.223-0.171c-0.155-0.057-0.356-0.086-0.604-0.086V3.345H113.94z"/>
	</g>
	<g>
		<path d="M9.539,8.423c0,0.188-0.066,0.347-0.198,0.479C9.208,9.034,9.05,9.101,8.867,9.101c-0.187,0-0.347-0.066-0.479-0.198
			C8.256,8.77,8.189,8.61,8.189,8.423c0-0.187,0.066-0.347,0.199-0.479C8.52,7.812,8.68,7.745,8.867,7.745
			c0.183,0,0.341,0.066,0.473,0.199C9.472,8.076,9.539,8.236,9.539,8.423z"/>
	</g>
</g>
<g id="theGroup">
</g>
</svg>
