<?xml version="1.0" encoding="iso-8859-1"?>
<!-- Generator: Adobe Illustrator 16.0.0, SVG Export Plug-In . SVG Version: 6.00 Build 0)  -->
<!DOCTYPE svg PUBLIC "-//W3C//DTD SVG 1.1//EN" "http://www.w3.org/Graphics/SVG/1.1/DTD/svg11.dtd">
<svg version="1.1" id="Lager_1" xmlns="http://www.w3.org/2000/svg" xmlns:xlink="http://www.w3.org/1999/xlink" x="0px" y="0px"
	 width="13.151px" height="32.044px" viewBox="0 0 13.151 32.044" style="enable-background:new 0 0 13.151 32.044;"
	 xml:space="preserve">
<g>
	
		<line style="fill:none;stroke:#3A1968;stroke-width:0.5;stroke-linecap:square;stroke-miterlimit:10;" x1="0.596" y1="15.242" x2="12.901" y2="15.242"/>
	<g>
		<path style="fill:#3A1968;" d="M4.424,3.687C4.66,3.129,4.958,2.699,5.318,2.396c0.36-0.303,0.809-0.454,1.346-0.454
			c0.663,0,1.172,0.216,1.525,0.646C8.458,2.909,8.593,3.254,8.593,3.62c0,0.602-0.379,1.225-1.136,1.867
			c0.509,0.199,0.894,0.484,1.154,0.854c0.26,0.37,0.391,0.806,0.391,1.307c0,0.716-0.229,1.336-0.684,1.861
			c-0.595,0.684-1.455,1.025-2.582,1.025c-0.558,0-0.937-0.069-1.139-0.208c-0.201-0.138-0.302-0.286-0.302-0.445
			c0-0.118,0.047-0.222,0.143-0.312c0.096-0.089,0.21-0.134,0.345-0.134c0.102,0,0.205,0.016,0.311,0.049
			c0.069,0.021,0.226,0.095,0.47,0.223s0.413,0.204,0.506,0.229c0.15,0.045,0.311,0.067,0.482,0.067
			c0.415,0,0.776-0.161,1.083-0.482C7.944,9.2,8.098,8.82,8.098,8.381c0-0.322-0.07-0.635-0.213-0.94
			c-0.105-0.228-0.223-0.4-0.348-0.519C7.361,6.759,7.122,6.611,6.816,6.479C6.511,6.347,6.2,6.281,5.883,6.281H5.688V6.098
			C6.009,6.057,6.331,5.941,6.655,5.75c0.323-0.191,0.558-0.421,0.705-0.689s0.22-0.564,0.22-0.886c0-0.419-0.131-0.758-0.394-1.016
			C6.923,2.9,6.597,2.771,6.206,2.771c-0.631,0-1.158,0.338-1.581,1.013L4.424,3.687z"/>
	</g>
	<g>
		<path style="fill:#3A1968;" d="M1.465,20.746l2.014-0.982h0.202v6.988c0,0.464,0.019,0.753,0.058,0.867
			c0.039,0.113,0.119,0.201,0.241,0.262c0.122,0.062,0.37,0.096,0.745,0.104v0.226H1.611v-0.226
			c0.391-0.009,0.643-0.042,0.757-0.101c0.114-0.06,0.193-0.139,0.238-0.238c0.044-0.1,0.067-0.397,0.067-0.895v-4.468
			c0-0.602-0.021-0.988-0.061-1.159c-0.028-0.131-0.081-0.227-0.156-0.287s-0.166-0.092-0.271-0.092c-0.15,0-0.36,0.063-0.628,0.189
			L1.465,20.746z"/>
		<path style="fill:#3A1968;" d="M6.702,24.121c0-0.943,0.143-1.756,0.427-2.438c0.285-0.682,0.663-1.189,1.135-1.523
			c0.367-0.265,0.745-0.396,1.136-0.396c0.635,0,1.204,0.323,1.709,0.971c0.631,0.802,0.946,1.888,0.946,3.259
			c0,0.961-0.139,1.776-0.415,2.448c-0.277,0.671-0.63,1.158-1.06,1.461c-0.429,0.304-0.843,0.455-1.242,0.455
			c-0.789,0-1.446-0.466-1.971-1.397C6.923,26.175,6.702,25.229,6.702,24.121z M7.898,24.274c0,1.139,0.14,2.069,0.421,2.789
			c0.231,0.606,0.577,0.909,1.037,0.909c0.22,0,0.448-0.099,0.684-0.296c0.236-0.197,0.415-0.528,0.537-0.991
			c0.188-0.7,0.281-1.688,0.281-2.961c0-0.943-0.098-1.731-0.293-2.361c-0.146-0.469-0.336-0.8-0.567-0.995
			c-0.167-0.135-0.369-0.202-0.604-0.202c-0.277,0-0.523,0.125-0.739,0.373c-0.293,0.338-0.492,0.868-0.598,1.593
			S7.898,23.57,7.898,24.274z"/>
	</g>
</g>
<g id="theGroup">
</g>
</svg>
