<?xml version="1.0" encoding="iso-8859-1"?>
<!-- Generator: Adobe Illustrator 16.0.0, SVG Export Plug-In . SVG Version: 6.00 Build 0)  -->
<!DOCTYPE svg PUBLIC "-//W3C//DTD SVG 1.1//EN" "http://www.w3.org/Graphics/SVG/1.1/DTD/svg11.dtd">
<svg version="1.1" id="Lager_1" xmlns="http://www.w3.org/2000/svg" xmlns:xlink="http://www.w3.org/1999/xlink" x="0px" y="0px"
	 width="48.938px" height="16.396px" viewBox="0 0 48.938 16.396" style="enable-background:new 0 0 48.938 16.396;"
	 xml:space="preserve">
<g>
	
		<line style="fill:none;stroke:#3A1968;stroke-width:0.5;stroke-linecap:square;stroke-miterlimit:10;" x1="12.578" y1="0.25" x2="12.578" y2="15.289"/>
	
		<line style="fill:none;stroke:#3A1968;stroke-width:0.5;stroke-linecap:square;stroke-miterlimit:10;" x1="22.188" y1="0.25" x2="22.188" y2="15.289"/>
	
		<line style="fill:none;stroke:#3A1968;stroke-width:0.5;stroke-linecap:square;stroke-miterlimit:10;" x1="12.266" y1="0.562" x2="22.5" y2="0.562"/>
	
		<line style="fill:none;stroke:#3A1968;stroke-width:0.5;stroke-linecap:square;stroke-miterlimit:10;" x1="12.266" y1="14.976" x2="22.5" y2="14.976"/>
	<g>
		<path style="fill:#3A1968;" d="M5.426,4.287L4.95,5.324H2.46L1.917,6.435c1.078,0.159,1.933,0.56,2.563,1.202
			C5.021,8.191,5.292,8.841,5.292,9.59c0,0.436-0.089,0.839-0.266,1.209c-0.177,0.37-0.4,0.686-0.668,0.945
			c-0.269,0.261-0.568,0.471-0.897,0.629c-0.468,0.224-0.948,0.336-1.44,0.336c-0.497,0-0.858-0.085-1.083-0.253
			c-0.226-0.169-0.339-0.355-0.339-0.559c0-0.114,0.047-0.215,0.14-0.303c0.094-0.087,0.212-0.131,0.354-0.131
			c0.105,0,0.198,0.017,0.277,0.049c0.08,0.032,0.215,0.116,0.406,0.25c0.305,0.212,0.614,0.317,0.928,0.317
			c0.476,0,0.894-0.18,1.254-0.54c0.36-0.36,0.54-0.799,0.54-1.315c0-0.5-0.161-0.968-0.482-1.4
			C3.695,8.391,3.251,8.057,2.686,7.821C2.242,7.637,1.638,7.532,0.873,7.503L2.46,4.287H5.426z"/>
		<path style="fill:#3A1968;" d="M42.254,9.511v0.866h-1.11v2.186h-1.007v-2.186h-3.504V9.596l3.839-5.48h0.672v5.396H42.254z
			 M40.137,9.511V5.404L37.23,9.511H40.137z"/>
		<path style="fill:#3A1968;" d="M43.139,8.474c0-0.944,0.143-1.757,0.428-2.438c0.285-0.681,0.663-1.189,1.135-1.523
			c0.367-0.264,0.745-0.396,1.136-0.396c0.635,0,1.204,0.323,1.709,0.971c0.631,0.801,0.946,1.888,0.946,3.259
			c0,0.961-0.139,1.776-0.415,2.448c-0.277,0.671-0.63,1.158-1.06,1.461c-0.429,0.304-0.843,0.455-1.242,0.455
			c-0.789,0-1.446-0.466-1.971-1.397C43.361,10.527,43.139,9.581,43.139,8.474z M44.336,8.626c0,1.139,0.14,2.069,0.421,2.789
			c0.231,0.606,0.577,0.909,1.037,0.909c0.22,0,0.448-0.099,0.684-0.296c0.236-0.197,0.415-0.528,0.537-0.991
			c0.188-0.7,0.281-1.687,0.281-2.961c0-0.944-0.098-1.731-0.293-2.362c-0.146-0.468-0.336-0.799-0.567-0.995
			c-0.167-0.135-0.369-0.202-0.604-0.202c-0.277,0-0.523,0.124-0.739,0.373C44.799,5.229,44.6,5.76,44.494,6.484
			S44.336,7.922,44.336,8.626z"/>
	</g>
	<g>
		<path style="fill:#3A1968;" d="M9.539,9.365c0,0.188-0.066,0.347-0.198,0.479c-0.132,0.132-0.29,0.198-0.473,0.198
			c-0.187,0-0.347-0.066-0.479-0.198C8.256,9.711,8.189,9.552,8.189,9.365s0.066-0.347,0.199-0.479
			C8.52,8.753,8.68,8.687,8.867,8.687c0.183,0,0.341,0.066,0.473,0.199C9.472,9.018,9.539,9.177,9.539,9.365z"/>
		<path style="fill:#3A1968;" d="M26.28,7.93h6.409v0.592H26.28V7.93z M26.28,10.208h6.409v0.604H26.28V10.208z"/>
	</g>
</g>
<g id="theGroup">
</g>
</svg>
