<?xml version="1.0" encoding="iso-8859-1"?>
<!-- Generator: Adobe Illustrator 16.0.0, SVG Export Plug-In . SVG Version: 6.00 Build 0)  -->
<!DOCTYPE svg PUBLIC "-//W3C//DTD SVG 1.1//EN" "http://www.w3.org/Graphics/SVG/1.1/DTD/svg11.dtd">
<svg version="1.1" id="Lager_1" xmlns="http://www.w3.org/2000/svg" xmlns:xlink="http://www.w3.org/1999/xlink" x="0px" y="0px"
	 width="67.877px" height="33.306px" viewBox="0 0 67.877 33.306" style="enable-background:new 0 0 67.877 33.306;"
	 xml:space="preserve">
<g>
	
		<line style="fill:none;stroke:#0066FF;stroke-width:0.5;stroke-linecap:square;stroke-miterlimit:10;" x1="0.25" y1="16.476" x2="12.086" y2="16.476"/>
	<g>
		<path style="fill:#0066FF;" d="M9.715,1.221l-0.275,0.6H8L7.686,2.463C8.31,2.555,8.803,2.787,9.168,3.158
			c0.312,0.32,0.469,0.696,0.469,1.129c0,0.251-0.051,0.484-0.153,0.699C9.382,5.2,9.253,5.382,9.098,5.533
			c-0.155,0.15-0.328,0.271-0.52,0.363C8.308,6.026,8.03,6.09,7.746,6.09c-0.287,0-0.496-0.049-0.627-0.146
			c-0.13-0.098-0.195-0.206-0.195-0.323c0-0.066,0.027-0.124,0.081-0.174C7.059,5.396,7.127,5.371,7.21,5.371
			c0.061,0,0.114,0.01,0.16,0.028c0.046,0.019,0.124,0.067,0.234,0.145C7.781,5.666,7.96,5.727,8.141,5.727
			c0.275,0,0.518-0.104,0.726-0.312c0.208-0.208,0.312-0.462,0.312-0.761c0-0.289-0.093-0.559-0.279-0.81
			C8.714,3.594,8.457,3.4,8.131,3.264C7.874,3.158,7.524,3.097,7.082,3.081L8,1.221H9.715z"/>
	</g>
	<g>
		<path style="fill:#0066FF;" d="M34.715,9.385l-0.275,0.6H33l-0.314,0.643c0.624,0.091,1.117,0.323,1.482,0.695
			c0.312,0.32,0.469,0.696,0.469,1.129c0,0.251-0.051,0.484-0.153,0.699c-0.102,0.214-0.23,0.396-0.386,0.547
			c-0.155,0.15-0.328,0.271-0.52,0.363c-0.271,0.129-0.548,0.194-0.832,0.194c-0.287,0-0.496-0.049-0.627-0.146
			c-0.13-0.098-0.195-0.206-0.195-0.323c0-0.066,0.027-0.124,0.081-0.174c0.054-0.051,0.122-0.076,0.205-0.076
			c0.061,0,0.114,0.01,0.16,0.028c0.046,0.019,0.124,0.067,0.234,0.145c0.177,0.123,0.355,0.184,0.536,0.184
			c0.275,0,0.518-0.104,0.726-0.312c0.208-0.208,0.312-0.462,0.312-0.761c0-0.289-0.093-0.559-0.279-0.81
			c-0.186-0.25-0.442-0.444-0.769-0.581c-0.257-0.106-0.606-0.167-1.049-0.184L33,9.385H34.715z"/>
		<path style="fill:#0066FF;" d="M40.458,10.295c0.136-0.322,0.309-0.571,0.517-0.746s0.468-0.263,0.778-0.263
			c0.383,0,0.678,0.125,0.882,0.374c0.155,0.186,0.233,0.385,0.233,0.597c0,0.348-0.219,0.708-0.656,1.08
			c0.294,0.115,0.516,0.28,0.666,0.494c0.151,0.214,0.227,0.466,0.227,0.755c0,0.414-0.132,0.773-0.396,1.076
			c-0.344,0.396-0.841,0.593-1.492,0.593c-0.322,0-0.542-0.04-0.658-0.12c-0.116-0.08-0.175-0.166-0.175-0.258
			c0-0.068,0.027-0.128,0.083-0.18c0.055-0.052,0.121-0.078,0.199-0.078c0.059,0,0.119,0.009,0.18,0.028
			c0.04,0.012,0.131,0.055,0.271,0.129c0.142,0.074,0.239,0.118,0.293,0.132c0.087,0.026,0.181,0.039,0.279,0.039
			c0.24,0,0.448-0.093,0.626-0.279c0.178-0.186,0.267-0.406,0.267-0.66c0-0.186-0.041-0.367-0.123-0.543
			c-0.062-0.132-0.129-0.232-0.201-0.3c-0.102-0.094-0.24-0.179-0.417-0.256c-0.176-0.076-0.356-0.114-0.54-0.114h-0.112v-0.106
			c0.186-0.023,0.372-0.091,0.559-0.201c0.188-0.111,0.323-0.244,0.408-0.399c0.084-0.155,0.127-0.326,0.127-0.512
			c0-0.242-0.076-0.438-0.228-0.587c-0.152-0.149-0.341-0.224-0.566-0.224c-0.365,0-0.669,0.195-0.914,0.586L40.458,10.295z"/>
		<path style="fill:#0066FF;" d="M67.577,13.249l-0.335,0.921h-2.823v-0.13c0.83-0.758,1.415-1.376,1.754-1.856
			c0.339-0.479,0.508-0.918,0.508-1.316c0-0.304-0.093-0.553-0.278-0.748c-0.187-0.195-0.408-0.293-0.667-0.293
			c-0.235,0-0.446,0.069-0.634,0.207c-0.187,0.138-0.325,0.339-0.414,0.605h-0.131c0.059-0.435,0.21-0.769,0.453-1.002
			c0.244-0.233,0.548-0.35,0.912-0.35c0.389,0,0.713,0.125,0.973,0.374c0.26,0.25,0.39,0.543,0.39,0.882
			c0,0.242-0.057,0.485-0.169,0.727c-0.175,0.381-0.457,0.785-0.848,1.21c-0.585,0.64-0.951,1.026-1.097,1.158h1.249
			c0.254,0,0.432-0.009,0.534-0.028s0.194-0.057,0.277-0.115c0.082-0.058,0.154-0.139,0.215-0.245H67.577z"/>
	</g>
	<g>
		<path style="fill:#0066FF;" d="M6.984,19.983c0.136-0.322,0.309-0.571,0.517-0.747c0.208-0.175,0.468-0.263,0.778-0.263
			c0.383,0,0.677,0.125,0.882,0.374c0.155,0.187,0.232,0.385,0.232,0.597c0,0.348-0.219,0.708-0.656,1.08
			c0.294,0.115,0.517,0.279,0.667,0.493c0.15,0.215,0.226,0.466,0.226,0.756c0,0.414-0.131,0.772-0.395,1.076
			c-0.344,0.395-0.841,0.593-1.493,0.593c-0.322,0-0.541-0.04-0.657-0.12c-0.117-0.08-0.175-0.166-0.175-0.258
			c0-0.068,0.027-0.128,0.083-0.18c0.055-0.052,0.121-0.078,0.199-0.078c0.059,0,0.118,0.01,0.18,0.028
			c0.04,0.012,0.131,0.055,0.271,0.129c0.142,0.074,0.239,0.118,0.293,0.133c0.087,0.025,0.18,0.038,0.279,0.038
			c0.239,0,0.448-0.093,0.626-0.278s0.267-0.406,0.267-0.66c0-0.186-0.041-0.367-0.124-0.543c-0.061-0.132-0.128-0.231-0.201-0.3
			c-0.101-0.095-0.239-0.18-0.416-0.256c-0.177-0.077-0.356-0.115-0.54-0.115H7.714v-0.105c0.187-0.023,0.373-0.091,0.56-0.201
			c0.188-0.11,0.323-0.243,0.408-0.398c0.084-0.155,0.127-0.326,0.127-0.512c0-0.242-0.076-0.438-0.228-0.588
			c-0.152-0.149-0.341-0.224-0.566-0.224c-0.365,0-0.67,0.195-0.914,0.585L6.984,19.983z"/>
	</g>
	<g>
		<path style="fill:#0066FF;" d="M1.275,4.929C1.511,4.372,1.81,3.941,2.169,3.638c0.36-0.303,0.81-0.455,1.347-0.455
			c0.663,0,1.172,0.216,1.525,0.647C5.31,4.152,5.444,4.496,5.444,4.862c0,0.602-0.379,1.225-1.136,1.867
			c0.509,0.2,0.894,0.484,1.153,0.854C5.723,7.955,5.853,8.39,5.853,8.891c0,0.716-0.228,1.336-0.684,1.861
			c-0.594,0.684-1.454,1.025-2.581,1.025c-0.558,0-0.938-0.069-1.139-0.208s-0.302-0.287-0.302-0.446
			c0-0.118,0.047-0.222,0.143-0.311s0.211-0.134,0.346-0.134c0.102,0,0.205,0.016,0.311,0.049c0.069,0.021,0.227,0.095,0.471,0.223
			c0.244,0.128,0.412,0.205,0.506,0.229c0.15,0.045,0.312,0.067,0.482,0.067c0.415,0,0.776-0.161,1.083-0.482
			c0.308-0.321,0.461-0.702,0.461-1.141c0-0.322-0.071-0.635-0.213-0.94c-0.106-0.228-0.223-0.4-0.349-0.519
			c-0.175-0.163-0.415-0.31-0.72-0.442C3.362,7.589,3.052,7.523,2.734,7.523H2.539V7.34C2.86,7.299,3.183,7.184,3.506,6.992
			s0.559-0.421,0.705-0.689s0.22-0.564,0.22-0.885c0-0.419-0.131-0.758-0.394-1.016S3.448,4.014,3.058,4.014
			c-0.631,0-1.158,0.338-1.581,1.013L1.275,4.929z"/>
	</g>
	<g>
		<path style="fill:#0066FF;" d="M26.275,13.083c0.235-0.558,0.534-0.988,0.894-1.291c0.36-0.303,0.81-0.455,1.347-0.455
			c0.663,0,1.172,0.216,1.525,0.647c0.269,0.321,0.403,0.666,0.403,1.032c0,0.602-0.379,1.225-1.136,1.867
			c0.509,0.2,0.894,0.484,1.153,0.854c0.261,0.371,0.391,0.806,0.391,1.307c0,0.716-0.228,1.336-0.684,1.861
			c-0.594,0.684-1.454,1.025-2.581,1.025c-0.558,0-0.938-0.069-1.139-0.207c-0.201-0.139-0.302-0.287-0.302-0.446
			c0-0.118,0.047-0.222,0.143-0.312c0.096-0.089,0.211-0.134,0.346-0.134c0.102,0,0.205,0.017,0.311,0.049
			c0.069,0.021,0.227,0.095,0.471,0.223s0.412,0.204,0.506,0.229c0.15,0.044,0.312,0.066,0.482,0.066
			c0.415,0,0.776-0.16,1.083-0.482c0.308-0.321,0.461-0.701,0.461-1.141c0-0.321-0.071-0.635-0.213-0.94
			c-0.106-0.228-0.223-0.4-0.349-0.519c-0.175-0.163-0.415-0.31-0.72-0.442c-0.306-0.132-0.616-0.198-0.934-0.198h-0.195v-0.184
			c0.321-0.041,0.644-0.156,0.967-0.348s0.559-0.421,0.705-0.689s0.22-0.564,0.22-0.885c0-0.419-0.131-0.758-0.394-1.016
			s-0.589-0.388-0.979-0.388c-0.631,0-1.158,0.338-1.581,1.013L26.275,13.083z"/>
		<path style="fill:#0066FF;" d="M58.726,13.083c0.236-0.558,0.534-0.988,0.895-1.291c0.359-0.303,0.809-0.455,1.346-0.455
			c0.663,0,1.172,0.216,1.525,0.647c0.269,0.321,0.403,0.666,0.403,1.032c0,0.602-0.379,1.225-1.136,1.867
			c0.509,0.2,0.894,0.484,1.154,0.854c0.26,0.371,0.391,0.806,0.391,1.307c0,0.716-0.229,1.336-0.684,1.861
			c-0.595,0.684-1.455,1.025-2.582,1.025c-0.558,0-0.938-0.069-1.139-0.207c-0.201-0.139-0.302-0.287-0.302-0.446
			c0-0.118,0.048-0.222,0.144-0.312c0.095-0.089,0.21-0.134,0.345-0.134c0.102,0,0.205,0.017,0.312,0.049
			c0.068,0.021,0.226,0.095,0.47,0.223s0.413,0.204,0.507,0.229c0.15,0.044,0.311,0.066,0.481,0.066c0.415,0,0.776-0.16,1.084-0.482
			c0.307-0.321,0.46-0.701,0.46-1.141c0-0.321-0.07-0.635-0.213-0.94c-0.106-0.228-0.222-0.4-0.348-0.519
			c-0.176-0.163-0.416-0.31-0.721-0.442s-0.616-0.198-0.934-0.198h-0.195v-0.184c0.321-0.041,0.644-0.156,0.967-0.348
			c0.324-0.191,0.559-0.421,0.705-0.689s0.22-0.564,0.22-0.885c0-0.419-0.131-0.758-0.394-1.016s-0.589-0.388-0.979-0.388
			c-0.631,0-1.157,0.338-1.581,1.013L58.726,13.083z"/>
	</g>
	<g>
		<path style="fill:#0066FF;" d="M1.314,22.771c0.235-0.558,0.534-0.988,0.894-1.291c0.36-0.304,0.81-0.455,1.347-0.455
			c0.663,0,1.172,0.216,1.525,0.646c0.269,0.322,0.403,0.666,0.403,1.032c0,0.602-0.379,1.225-1.136,1.867
			c0.509,0.199,0.894,0.484,1.153,0.854c0.261,0.37,0.391,0.806,0.391,1.307c0,0.716-0.228,1.336-0.684,1.861
			c-0.594,0.684-1.454,1.025-2.581,1.025c-0.558,0-0.938-0.069-1.139-0.207c-0.201-0.139-0.302-0.287-0.302-0.446
			c0-0.118,0.047-0.222,0.143-0.312c0.096-0.089,0.211-0.134,0.346-0.134c0.102,0,0.205,0.017,0.311,0.049
			c0.069,0.021,0.227,0.095,0.471,0.223s0.412,0.204,0.506,0.229c0.15,0.044,0.312,0.066,0.482,0.066
			c0.415,0,0.776-0.16,1.083-0.482c0.308-0.321,0.461-0.701,0.461-1.141c0-0.321-0.071-0.635-0.213-0.94
			c-0.106-0.228-0.223-0.4-0.349-0.519c-0.175-0.163-0.415-0.311-0.72-0.442c-0.306-0.132-0.616-0.198-0.934-0.198H2.578v-0.184
			c0.321-0.04,0.644-0.156,0.967-0.348s0.559-0.421,0.705-0.689s0.22-0.563,0.22-0.885c0-0.42-0.131-0.758-0.394-1.017
			s-0.589-0.388-0.979-0.388c-0.631,0-1.158,0.338-1.581,1.014L1.314,22.771z"/>
	</g>
	<g>
		<path style="fill:#0066FF;" d="M35.771,12.138h3.705v0.349h-3.705V12.138z"/>
	</g>
	<g>
		<path style="fill:#0066FF;" d="M15.866,15.152h6.409v0.592h-6.409V15.152z M15.866,17.43h6.409v0.604h-6.409V17.43z"/>
		<path style="fill:#0066FF;" d="M48.326,15.152h6.409v0.592h-6.409V15.152z M48.326,17.43h6.409v0.604h-6.409V17.43z"/>
	</g>
</g>
<g id="theGroup">
</g>
</svg>
