<?xml version="1.0" encoding="iso-8859-1"?>
<!-- Generator: Adobe Illustrator 16.0.0, SVG Export Plug-In . SVG Version: 6.00 Build 0)  -->
<!DOCTYPE svg PUBLIC "-//W3C//DTD SVG 1.1//EN" "http://www.w3.org/Graphics/SVG/1.1/DTD/svg11.dtd">
<svg version="1.1" id="Lager_1" xmlns="http://www.w3.org/2000/svg" xmlns:xlink="http://www.w3.org/1999/xlink" x="0px" y="0px"
	 width="85.796px" height="118.866px" viewBox="0 0 85.796 118.866" style="enable-background:new 0 0 85.796 118.866;"
	 xml:space="preserve">
<g>
	
		<line style="fill:none;stroke:#0066FF;stroke-width:0.5;stroke-linecap:square;stroke-miterlimit:10;" x1="10.587" y1="34.595" x2="18.009" y2="34.595"/>
	
		<line style="fill:none;stroke:#0066FF;stroke-width:0.5;stroke-linecap:square;stroke-miterlimit:10;" x1="24.806" y1="34.595" x2="32.228" y2="34.595"/>
	
		<line style="fill:none;stroke:#0066FF;stroke-width:0.5;stroke-linecap:square;stroke-miterlimit:10;" x1="44.494" y1="34.595" x2="51.915" y2="34.595"/>
	
		<line style="fill:none;stroke:#0066FF;stroke-width:0.5;stroke-linecap:square;stroke-miterlimit:10;" x1="58.712" y1="34.595" x2="65.353" y2="34.595"/>
	
		<line style="fill:none;stroke:#0066FF;stroke-width:0.5;stroke-linecap:square;stroke-miterlimit:10;" x1="10.587" y1="68.423" x2="22.892" y2="68.423"/>
	
		<line style="fill:none;stroke:#0066FF;stroke-width:0.5;stroke-linecap:square;stroke-miterlimit:10;" x1="35.157" y1="68.423" x2="47.462" y2="68.423"/>
	
		<line style="fill:none;stroke:#0066FF;stroke-width:0.5;stroke-linecap:square;stroke-miterlimit:10;" x1="10.587" y1="102.056" x2="22.892" y2="102.056"/>
	
		<line style="fill:none;stroke:#0066FF;stroke-width:0.5;stroke-linecap:square;stroke-miterlimit:10;" x1="37.032" y1="102.056" x2="43.673" y2="102.056"/>
	<g>
		<path style="fill:#0066FF;" d="M5.719,8.229H2.515L1.953,9.535c-0.138,0.321-0.208,0.562-0.208,0.72
			c0,0.126,0.06,0.237,0.18,0.333c0.12,0.096,0.379,0.158,0.778,0.187V11H0.098v-0.226c0.346-0.062,0.57-0.141,0.671-0.238
			c0.208-0.195,0.438-0.592,0.69-1.19L4.37,2.534h0.214l2.881,6.885c0.231,0.554,0.442,0.913,0.631,1.078
			c0.189,0.165,0.453,0.257,0.791,0.278V11H5.621v-0.226c0.33-0.017,0.553-0.071,0.668-0.165c0.116-0.094,0.174-0.208,0.174-0.342
			c0-0.179-0.082-0.462-0.244-0.849L5.719,8.229z M5.548,7.777L4.145,4.433l-1.44,3.345H5.548z"/>
		<path style="fill:#0066FF;" d="M10.81,6.429c0.655-0.79,1.279-1.185,1.874-1.185c0.305,0,0.568,0.077,0.788,0.229
			c0.22,0.153,0.395,0.404,0.524,0.754c0.09,0.244,0.135,0.619,0.135,1.123v2.386c0,0.354,0.028,0.594,0.085,0.721
			c0.045,0.102,0.117,0.181,0.217,0.238s0.284,0.085,0.553,0.085V11H12.22v-0.22h0.116c0.261,0,0.443-0.04,0.546-0.119
			c0.104-0.079,0.176-0.196,0.217-0.351c0.016-0.062,0.024-0.252,0.024-0.574V7.448c0-0.509-0.066-0.878-0.198-1.108
			c-0.132-0.229-0.355-0.345-0.668-0.345c-0.484,0-0.966,0.265-1.446,0.793v2.948c0,0.379,0.022,0.613,0.067,0.702
			c0.057,0.118,0.135,0.205,0.235,0.259c0.1,0.055,0.302,0.083,0.607,0.083V11H8.955v-0.22h0.122c0.285,0,0.477-0.072,0.577-0.217
			c0.1-0.144,0.149-0.42,0.149-0.827V7.661c0-0.671-0.015-1.08-0.046-1.227c-0.03-0.146-0.077-0.246-0.14-0.299
			c-0.063-0.053-0.147-0.08-0.253-0.08c-0.114,0-0.25,0.031-0.409,0.091l-0.092-0.22l1.685-0.684h0.263V6.429z"/>
		<path style="fill:#0066FF;" d="M19.379,10.371c-0.273,0.285-0.54,0.49-0.8,0.614s-0.541,0.186-0.842,0.186
			c-0.61,0-1.144-0.255-1.599-0.766c-0.456-0.51-0.684-1.167-0.684-1.968s0.252-1.535,0.757-2.2
			c0.504-0.666,1.153-0.998,1.947-0.998c0.492,0,0.899,0.157,1.221,0.47V4.677c0-0.639-0.016-1.031-0.046-1.178
			C19.303,3.353,19.255,3.252,19.19,3.2s-0.146-0.08-0.244-0.08c-0.106,0-0.246,0.033-0.421,0.098l-0.08-0.213l1.667-0.684h0.274
			v6.463c0,0.655,0.015,1.055,0.046,1.2c0.03,0.145,0.079,0.245,0.146,0.302c0.067,0.057,0.146,0.085,0.235,0.085
			c0.11,0,0.256-0.034,0.439-0.104l0.067,0.214l-1.66,0.689h-0.28V10.371z M19.379,9.944V7.063c-0.024-0.277-0.098-0.529-0.22-0.757
			c-0.122-0.228-0.284-0.4-0.485-0.516c-0.202-0.116-0.398-0.174-0.589-0.174c-0.358,0-0.678,0.161-0.958,0.482
			c-0.37,0.423-0.555,1.042-0.555,1.855c0,0.822,0.179,1.452,0.537,1.889c0.358,0.438,0.757,0.656,1.196,0.656
			C18.675,10.5,19.033,10.314,19.379,9.944z"/>
		<path style="fill:#0066FF;" d="M22.62,7.515c-0.004,0.83,0.197,1.481,0.604,1.953c0.407,0.472,0.885,0.708,1.435,0.708
			c0.366,0,0.685-0.101,0.955-0.302c0.271-0.202,0.498-0.546,0.681-1.035l0.189,0.122c-0.086,0.558-0.334,1.065-0.745,1.523
			c-0.411,0.458-0.925,0.687-1.544,0.687c-0.671,0-1.246-0.261-1.724-0.784c-0.479-0.523-0.717-1.226-0.717-2.109
			c0-0.956,0.245-1.702,0.735-2.237s1.106-0.803,1.847-0.803c0.626,0,1.141,0.207,1.544,0.62s0.604,0.965,0.604,1.657H22.62z
			 M22.62,7.161h2.588c-0.021-0.358-0.063-0.61-0.128-0.757c-0.102-0.228-0.253-0.407-0.455-0.537
			c-0.201-0.13-0.412-0.195-0.631-0.195c-0.338,0-0.64,0.131-0.907,0.394C22.82,6.328,22.665,6.693,22.62,7.161z"/>
		<path style="fill:#0066FF;" d="M29.076,2.321v7.416c0,0.35,0.025,0.582,0.076,0.696c0.051,0.114,0.129,0.2,0.235,0.259
			s0.303,0.088,0.592,0.088V11h-2.741v-0.22c0.256,0,0.431-0.026,0.525-0.079c0.094-0.053,0.167-0.141,0.22-0.263
			s0.079-0.356,0.079-0.702V4.658c0-0.63-0.014-1.018-0.042-1.163c-0.028-0.144-0.074-0.243-0.137-0.296
			c-0.063-0.053-0.144-0.08-0.241-0.08c-0.106,0-0.24,0.033-0.403,0.098l-0.104-0.213l1.667-0.684H29.076z"/>
		<path style="fill:#0066FF;" d="M31.416,7.515c-0.004,0.83,0.197,1.481,0.604,1.953c0.407,0.472,0.885,0.708,1.435,0.708
			c0.366,0,0.685-0.101,0.955-0.302c0.271-0.202,0.498-0.546,0.681-1.035l0.189,0.122c-0.086,0.558-0.334,1.065-0.745,1.523
			c-0.411,0.458-0.925,0.687-1.544,0.687c-0.671,0-1.246-0.261-1.724-0.784c-0.479-0.523-0.717-1.226-0.717-2.109
			c0-0.956,0.245-1.702,0.735-2.237s1.106-0.803,1.847-0.803c0.626,0,1.141,0.207,1.544,0.62s0.604,0.965,0.604,1.657H31.416z
			 M31.416,7.161h2.588c-0.021-0.358-0.063-0.61-0.128-0.757c-0.102-0.228-0.253-0.407-0.455-0.537
			c-0.201-0.13-0.412-0.195-0.631-0.195c-0.338,0-0.64,0.131-0.907,0.394C31.616,6.328,31.461,6.693,31.416,7.161z"/>
		<path style="fill:#0066FF;" d="M37.579,6.429c0.655-0.79,1.279-1.185,1.874-1.185c0.305,0,0.568,0.077,0.788,0.229
			c0.22,0.153,0.395,0.404,0.524,0.754c0.09,0.244,0.135,0.619,0.135,1.123v2.386c0,0.354,0.028,0.594,0.085,0.721
			c0.045,0.102,0.117,0.181,0.217,0.238s0.284,0.085,0.553,0.085V11h-2.765v-0.22h0.116c0.261,0,0.443-0.04,0.546-0.119
			c0.104-0.079,0.176-0.196,0.217-0.351c0.016-0.062,0.024-0.252,0.024-0.574V7.448c0-0.509-0.066-0.878-0.198-1.108
			c-0.132-0.229-0.355-0.345-0.668-0.345c-0.484,0-0.966,0.265-1.446,0.793v2.948c0,0.379,0.022,0.613,0.067,0.702
			c0.057,0.118,0.135,0.205,0.235,0.259c0.1,0.055,0.302,0.083,0.607,0.083V11h-2.765v-0.22h0.122c0.285,0,0.477-0.072,0.577-0.217
			c0.1-0.144,0.149-0.42,0.149-0.827V7.661c0-0.671-0.015-1.08-0.046-1.227c-0.03-0.146-0.077-0.246-0.14-0.299
			c-0.063-0.053-0.147-0.08-0.253-0.08c-0.114,0-0.25,0.031-0.409,0.091l-0.092-0.22l1.685-0.684h0.263V6.429z"/>
		<path style="fill:#0066FF;" d="M47.247,2.321v7.416c0,0.35,0.025,0.582,0.076,0.696c0.051,0.114,0.129,0.2,0.235,0.259
			c0.105,0.059,0.303,0.088,0.592,0.088V11h-2.74v-0.22c0.256,0,0.431-0.026,0.524-0.079c0.094-0.053,0.167-0.141,0.22-0.263
			s0.079-0.356,0.079-0.702V4.658c0-0.63-0.014-1.018-0.042-1.163c-0.029-0.144-0.075-0.243-0.138-0.296
			c-0.063-0.053-0.144-0.08-0.241-0.08c-0.105,0-0.24,0.033-0.402,0.098l-0.104-0.213l1.667-0.684H47.247z"/>
		<path style="fill:#0066FF;" d="M51.382,5.244c0.847,0,1.525,0.322,2.039,0.965c0.435,0.549,0.652,1.18,0.652,1.892
			c0,0.501-0.12,1.007-0.359,1.52c-0.24,0.513-0.571,0.899-0.992,1.16s-0.891,0.391-1.407,0.391c-0.842,0-1.512-0.336-2.008-1.007
			c-0.419-0.566-0.629-1.201-0.629-1.904c0-0.513,0.127-1.022,0.382-1.529c0.254-0.506,0.589-0.881,1.004-1.123
			C50.479,5.366,50.918,5.244,51.382,5.244z M50.296,2.846c0.187,0,0.345,0.065,0.473,0.195s0.192,0.287,0.192,0.47
			c0,0.184-0.065,0.339-0.195,0.467C50.635,4.106,50.48,4.17,50.302,4.17c-0.184,0-0.34-0.064-0.471-0.192
			c-0.13-0.128-0.195-0.284-0.195-0.467c0-0.183,0.064-0.339,0.192-0.47C49.957,2.911,50.112,2.846,50.296,2.846z M51.192,5.641
			c-0.216,0-0.433,0.064-0.649,0.192c-0.218,0.128-0.394,0.353-0.528,0.674s-0.201,0.734-0.201,1.239
			c0,0.813,0.161,1.516,0.485,2.105c0.323,0.59,0.749,0.885,1.278,0.885c0.395,0,0.721-0.163,0.977-0.488
			c0.256-0.325,0.385-0.885,0.385-1.678c0-0.993-0.214-1.774-0.641-2.344C52.009,5.836,51.641,5.641,51.192,5.641z M52.45,2.846
			c0.183,0,0.339,0.065,0.467,0.195s0.192,0.287,0.192,0.47c0,0.184-0.064,0.339-0.192,0.467C52.789,4.106,52.633,4.17,52.45,4.17
			c-0.184,0-0.34-0.064-0.471-0.192c-0.13-0.128-0.195-0.284-0.195-0.467c0-0.183,0.065-0.339,0.195-0.47
			C52.11,2.911,52.267,2.846,52.45,2.846z"/>
		<path style="fill:#0066FF;" d="M54.495,5.965l1.721-0.696h0.232v1.307c0.288-0.493,0.578-0.837,0.869-1.035
			s0.598-0.296,0.919-0.296c0.562,0,1.029,0.22,1.403,0.659c0.46,0.537,0.689,1.237,0.689,2.1c0,0.965-0.276,1.762-0.83,2.393
			c-0.455,0.517-1.029,0.775-1.721,0.775c-0.301,0-0.562-0.043-0.781-0.128c-0.163-0.062-0.346-0.184-0.549-0.366v1.703
			c0,0.382,0.022,0.625,0.069,0.729c0.047,0.104,0.129,0.186,0.244,0.247c0.116,0.061,0.327,0.091,0.632,0.091v0.226h-2.93v-0.226
			h0.152c0.225,0.004,0.416-0.039,0.574-0.128c0.077-0.045,0.138-0.117,0.18-0.217c0.043-0.1,0.064-0.353,0.064-0.76V7.057
			c0-0.362-0.017-0.592-0.049-0.69s-0.085-0.171-0.155-0.22c-0.071-0.049-0.168-0.073-0.29-0.073c-0.098,0-0.222,0.029-0.373,0.086
			L54.495,5.965z M56.448,6.935v2.087c0,0.452,0.018,0.749,0.055,0.891c0.057,0.236,0.196,0.443,0.418,0.623
			s0.501,0.269,0.839,0.269c0.407,0,0.736-0.159,0.989-0.476c0.329-0.415,0.494-0.999,0.494-1.751c0-0.854-0.188-1.512-0.562-1.972
			c-0.261-0.317-0.569-0.476-0.928-0.476c-0.195,0-0.389,0.049-0.58,0.146C57.027,6.349,56.785,6.569,56.448,6.935z"/>
		<path style="fill:#0066FF;" d="M64.315,10.194c-0.574,0.443-0.934,0.7-1.08,0.769c-0.221,0.102-0.454,0.153-0.702,0.153
			c-0.387,0-0.705-0.132-0.955-0.397c-0.251-0.265-0.376-0.612-0.376-1.043c0-0.273,0.062-0.509,0.184-0.708
			c0.167-0.277,0.456-0.537,0.869-0.781s1.1-0.542,2.061-0.892v-0.22c0-0.557-0.089-0.939-0.266-1.147
			c-0.177-0.207-0.435-0.311-0.772-0.311c-0.256,0-0.46,0.069-0.61,0.208c-0.154,0.138-0.231,0.297-0.231,0.476l0.012,0.354
			c0,0.187-0.048,0.332-0.144,0.434c-0.096,0.102-0.221,0.152-0.375,0.152c-0.15,0-0.273-0.053-0.369-0.159s-0.144-0.25-0.144-0.433
			c0-0.35,0.179-0.672,0.537-0.965s0.86-0.439,1.508-0.439c0.496,0,0.903,0.083,1.221,0.25c0.24,0.126,0.417,0.324,0.53,0.592
			c0.074,0.175,0.11,0.533,0.11,1.074v1.898c0,0.533,0.01,0.86,0.03,0.979c0.021,0.12,0.054,0.201,0.101,0.241
			s0.101,0.061,0.162,0.061c0.065,0,0.122-0.014,0.171-0.043c0.086-0.053,0.25-0.201,0.494-0.445v0.342
			c-0.455,0.61-0.891,0.916-1.306,0.916c-0.199,0-0.358-0.069-0.477-0.208S64.319,10.528,64.315,10.194z M64.315,9.798v-2.13
			c-0.614,0.244-1.012,0.417-1.19,0.519c-0.321,0.179-0.552,0.366-0.689,0.562c-0.139,0.195-0.208,0.409-0.208,0.641
			c0,0.293,0.088,0.536,0.263,0.729s0.376,0.29,0.604,0.29C63.403,10.408,63.811,10.205,64.315,9.798z"/>
		<path style="fill:#0066FF;" d="M68.256,5.244v1.258c0.468-0.838,0.948-1.258,1.44-1.258c0.224,0,0.409,0.068,0.556,0.205
			c0.146,0.137,0.22,0.294,0.22,0.473c0,0.159-0.053,0.293-0.159,0.403c-0.105,0.11-0.231,0.165-0.378,0.165
			c-0.143,0-0.303-0.07-0.479-0.21c-0.177-0.14-0.308-0.21-0.394-0.21c-0.073,0-0.152,0.041-0.238,0.122
			c-0.183,0.167-0.372,0.441-0.567,0.824v2.679c0,0.309,0.039,0.543,0.116,0.702c0.053,0.11,0.146,0.202,0.28,0.275
			c0.135,0.073,0.328,0.11,0.58,0.11V11H66.37v-0.22c0.284,0,0.496-0.045,0.635-0.134c0.102-0.065,0.173-0.169,0.213-0.311
			c0.021-0.069,0.031-0.267,0.031-0.592V7.576c0-0.651-0.014-1.039-0.04-1.163c-0.026-0.124-0.075-0.214-0.146-0.271
			s-0.159-0.085-0.266-0.085c-0.126,0-0.269,0.031-0.427,0.091l-0.062-0.22l1.69-0.684H68.256z"/>
		<path style="fill:#0066FF;" d="M71.673,7.515c-0.004,0.83,0.198,1.481,0.604,1.953c0.407,0.472,0.886,0.708,1.435,0.708
			c0.366,0,0.685-0.101,0.955-0.302c0.271-0.202,0.498-0.546,0.681-1.035l0.189,0.122c-0.086,0.558-0.334,1.065-0.745,1.523
			c-0.411,0.458-0.926,0.687-1.544,0.687c-0.671,0-1.246-0.261-1.725-0.784c-0.478-0.523-0.717-1.226-0.717-2.109
			c0-0.956,0.245-1.702,0.735-2.237s1.105-0.803,1.847-0.803c0.626,0,1.142,0.207,1.544,0.62s0.604,0.965,0.604,1.657H71.673z
			 M71.673,7.161h2.588c-0.02-0.358-0.062-0.61-0.128-0.757c-0.102-0.228-0.253-0.407-0.454-0.537
			c-0.202-0.13-0.412-0.195-0.632-0.195c-0.338,0-0.641,0.131-0.906,0.394C71.874,6.328,71.718,6.693,71.673,7.161z"/>
	</g>
	<g>
		<path style="fill:#0066FF;" d="M12.637,22.285l2.014-0.982h0.202v6.988c0,0.464,0.019,0.753,0.058,0.867
			c0.039,0.114,0.119,0.201,0.241,0.262s0.37,0.096,0.745,0.104v0.226h-3.113v-0.226c0.391-0.008,0.643-0.042,0.757-0.101
			c0.114-0.059,0.193-0.138,0.238-0.238c0.044-0.1,0.067-0.398,0.067-0.895v-4.468c0-0.602-0.021-0.988-0.061-1.159
			c-0.028-0.13-0.081-0.226-0.156-0.287s-0.166-0.092-0.271-0.092c-0.15,0-0.36,0.063-0.628,0.189L12.637,22.285z"/>
		<path style="fill:#0066FF;" d="M31.316,28.157l-0.58,1.593h-4.883v-0.226c1.437-1.311,2.447-2.381,3.033-3.211
			s0.879-1.589,0.879-2.276c0-0.525-0.161-0.956-0.482-1.294s-0.706-0.507-1.154-0.507c-0.407,0-0.772,0.119-1.095,0.357
			c-0.324,0.238-0.562,0.587-0.717,1.047h-0.226c0.102-0.753,0.363-1.331,0.784-1.733c0.421-0.403,0.947-0.604,1.578-0.604
			c0.671,0,1.232,0.216,1.682,0.647c0.449,0.431,0.674,0.94,0.674,1.526c0,0.419-0.098,0.838-0.293,1.257
			c-0.301,0.659-0.79,1.357-1.465,2.093c-1.013,1.107-1.646,1.774-1.898,2.002h2.161c0.439,0,0.748-0.016,0.924-0.049
			c0.177-0.032,0.337-0.098,0.479-0.198c0.143-0.1,0.267-0.241,0.373-0.424H31.316z"/>
		<path style="fill:#0066FF;" d="M46.537,22.285l2.014-0.982h0.202v6.988c0,0.464,0.019,0.753,0.058,0.867
			c0.039,0.114,0.119,0.201,0.241,0.262s0.37,0.096,0.745,0.104v0.226h-3.113v-0.226c0.391-0.008,0.643-0.042,0.757-0.101
			c0.114-0.059,0.193-0.138,0.238-0.238s0.067-0.398,0.067-0.895v-4.468c0-0.602-0.021-0.988-0.062-1.159
			c-0.028-0.13-0.08-0.226-0.155-0.287c-0.076-0.061-0.166-0.092-0.271-0.092c-0.151,0-0.36,0.063-0.629,0.189L46.537,22.285z"/>
		<path style="fill:#0066FF;" d="M60.361,22.285l2.014-0.982h0.202v6.988c0,0.464,0.019,0.753,0.058,0.867
			c0.039,0.114,0.119,0.201,0.241,0.262s0.37,0.096,0.745,0.104v0.226h-3.113v-0.226c0.391-0.008,0.643-0.042,0.757-0.101
			c0.114-0.059,0.193-0.138,0.238-0.238s0.067-0.398,0.067-0.895v-4.468c0-0.602-0.021-0.988-0.062-1.159
			c-0.028-0.13-0.08-0.226-0.155-0.287c-0.076-0.061-0.166-0.092-0.271-0.092c-0.151,0-0.36,0.063-0.629,0.189L60.361,22.285z"/>
	</g>
	<g>
		<path style="fill:#0066FF;" d="M17.174,44.511v0.867h-1.11v2.185h-1.007v-2.185h-3.503v-0.781l3.839-5.481h0.672v5.396H17.174z
			 M15.056,44.511v-4.107l-2.905,4.107H15.056z"/>
		<path style="fill:#0066FF;" d="M26.205,40.861c0.236-0.558,0.534-0.988,0.894-1.291c0.36-0.303,0.809-0.455,1.346-0.455
			c0.663,0,1.172,0.216,1.525,0.647c0.269,0.321,0.403,0.666,0.403,1.032c0,0.602-0.379,1.225-1.136,1.867
			c0.509,0.2,0.894,0.484,1.154,0.854c0.26,0.371,0.391,0.806,0.391,1.307c0,0.716-0.228,1.336-0.684,1.861
			c-0.594,0.684-1.455,1.025-2.582,1.025c-0.558,0-0.937-0.069-1.139-0.208c-0.201-0.138-0.302-0.287-0.302-0.446
			c0-0.118,0.047-0.222,0.143-0.311s0.21-0.134,0.345-0.134c0.102,0,0.205,0.016,0.311,0.049c0.069,0.021,0.226,0.095,0.47,0.223
			c0.244,0.128,0.413,0.205,0.506,0.229c0.15,0.045,0.311,0.067,0.482,0.067c0.415,0,0.776-0.161,1.083-0.482
			s0.461-0.702,0.461-1.141c0-0.322-0.071-0.635-0.213-0.94c-0.106-0.228-0.222-0.4-0.348-0.519c-0.175-0.163-0.415-0.31-0.72-0.442
			s-0.616-0.198-0.934-0.198h-0.195v-0.184c0.321-0.041,0.644-0.156,0.967-0.348c0.323-0.191,0.558-0.421,0.705-0.689
			s0.22-0.564,0.22-0.885c0-0.419-0.131-0.758-0.394-1.016c-0.262-0.258-0.589-0.388-0.979-0.388c-0.631,0-1.158,0.338-1.581,1.013
			L26.205,40.861z"/>
		<path style="fill:#0066FF;" d="M50.989,45.97l-0.58,1.593h-4.883v-0.226c1.437-1.311,2.447-2.381,3.033-3.211
			s0.879-1.589,0.879-2.276c0-0.525-0.16-0.956-0.481-1.294c-0.322-0.338-0.706-0.507-1.154-0.507c-0.406,0-0.771,0.119-1.096,0.357
			c-0.323,0.238-0.562,0.587-0.717,1.047h-0.226c0.102-0.753,0.363-1.331,0.784-1.733c0.421-0.403,0.947-0.604,1.578-0.604
			c0.671,0,1.231,0.216,1.681,0.647c0.45,0.431,0.675,0.94,0.675,1.526c0,0.419-0.098,0.838-0.293,1.257
			c-0.301,0.659-0.789,1.357-1.465,2.093c-1.014,1.107-1.646,1.774-1.898,2.002h2.161c0.439,0,0.747-0.016,0.925-0.049
			c0.177-0.032,0.336-0.098,0.479-0.198c0.143-0.1,0.267-0.241,0.373-0.424H50.989z"/>
		<path style="fill:#0066FF;" d="M59.717,40.861c0.236-0.558,0.534-0.988,0.895-1.291c0.359-0.303,0.809-0.455,1.346-0.455
			c0.663,0,1.172,0.216,1.525,0.647c0.269,0.321,0.403,0.666,0.403,1.032c0,0.602-0.379,1.225-1.136,1.867
			c0.509,0.2,0.894,0.484,1.154,0.854c0.26,0.371,0.391,0.806,0.391,1.307c0,0.716-0.229,1.336-0.684,1.861
			c-0.595,0.684-1.455,1.025-2.582,1.025c-0.558,0-0.938-0.069-1.139-0.208s-0.302-0.287-0.302-0.446
			c0-0.118,0.048-0.222,0.144-0.311c0.095-0.089,0.21-0.134,0.345-0.134c0.102,0,0.205,0.016,0.312,0.049
			c0.068,0.021,0.226,0.095,0.47,0.223c0.244,0.128,0.413,0.205,0.507,0.229c0.15,0.045,0.311,0.067,0.481,0.067
			c0.415,0,0.776-0.161,1.084-0.482c0.307-0.321,0.46-0.702,0.46-1.141c0-0.322-0.07-0.635-0.213-0.94
			c-0.106-0.228-0.222-0.4-0.348-0.519c-0.176-0.163-0.416-0.31-0.721-0.442s-0.616-0.198-0.934-0.198H60.98v-0.184
			c0.321-0.041,0.644-0.156,0.967-0.348c0.324-0.191,0.559-0.421,0.705-0.689s0.22-0.564,0.22-0.885
			c0-0.419-0.131-0.758-0.394-1.016s-0.589-0.388-0.979-0.388c-0.631,0-1.157,0.338-1.581,1.013L59.717,40.861z"/>
	</g>
	<g>
		<path style="fill:#0066FF;" d="M19.511,61.985l-0.58,1.593h-4.883v-0.226c1.437-1.311,2.447-2.381,3.033-3.211
			s0.879-1.589,0.879-2.276c0-0.525-0.161-0.956-0.482-1.294s-0.706-0.507-1.154-0.507c-0.407,0-0.772,0.119-1.095,0.357
			c-0.324,0.238-0.562,0.587-0.717,1.047h-0.226c0.102-0.753,0.363-1.331,0.784-1.733c0.421-0.403,0.947-0.604,1.578-0.604
			c0.671,0,1.232,0.216,1.682,0.647c0.449,0.431,0.674,0.94,0.674,1.526c0,0.419-0.098,0.838-0.293,1.257
			c-0.301,0.659-0.79,1.357-1.465,2.093c-1.013,1.107-1.646,1.774-1.898,2.002h2.161c0.439,0,0.748-0.016,0.924-0.049
			c0.177-0.032,0.337-0.099,0.479-0.198c0.143-0.1,0.267-0.241,0.373-0.424H19.511z"/>
		<path style="fill:#0066FF;" d="M44.073,61.985l-0.58,1.593H38.61v-0.226c1.437-1.311,2.447-2.381,3.033-3.211
			s0.879-1.589,0.879-2.276c0-0.525-0.161-0.956-0.482-1.294s-0.706-0.507-1.154-0.507c-0.407,0-0.772,0.119-1.095,0.357
			c-0.324,0.238-0.562,0.587-0.717,1.047h-0.226c0.102-0.753,0.363-1.331,0.784-1.733c0.421-0.403,0.947-0.604,1.578-0.604
			c0.671,0,1.232,0.216,1.682,0.647c0.449,0.431,0.674,0.94,0.674,1.526c0,0.419-0.098,0.838-0.293,1.257
			c-0.301,0.659-0.79,1.357-1.465,2.093c-1.013,1.107-1.646,1.774-1.898,2.002h2.161c0.439,0,0.748-0.016,0.924-0.049
			c0.177-0.032,0.337-0.099,0.479-0.198c0.143-0.1,0.267-0.241,0.373-0.424H44.073z"/>
	</g>
	<g>
		<path style="fill:#0066FF;" d="M11.465,73.916l2.014-0.982h0.202v6.988c0,0.464,0.019,0.753,0.058,0.867
			c0.039,0.113,0.119,0.201,0.241,0.262c0.122,0.062,0.37,0.096,0.745,0.104v0.226h-3.113v-0.226
			c0.391-0.009,0.643-0.042,0.757-0.101c0.114-0.06,0.193-0.139,0.238-0.238c0.044-0.1,0.067-0.397,0.067-0.895v-4.468
			c0-0.602-0.021-0.988-0.061-1.159c-0.028-0.131-0.081-0.227-0.156-0.287s-0.166-0.092-0.271-0.092c-0.15,0-0.36,0.063-0.628,0.189
			L11.465,73.916z"/>
		<path style="fill:#0066FF;" d="M21.981,79.788l-0.58,1.593h-4.883v-0.226c1.437-1.311,2.447-2.381,3.033-3.211
			s0.879-1.589,0.879-2.276c0-0.525-0.161-0.956-0.482-1.294s-0.706-0.507-1.154-0.507c-0.407,0-0.772,0.119-1.095,0.357
			c-0.324,0.238-0.562,0.587-0.717,1.047h-0.226c0.102-0.753,0.363-1.331,0.784-1.733c0.421-0.403,0.947-0.604,1.578-0.604
			c0.671,0,1.232,0.216,1.682,0.646c0.449,0.432,0.674,0.94,0.674,1.526c0,0.419-0.098,0.838-0.293,1.257
			c-0.301,0.66-0.79,1.357-1.465,2.094c-1.013,1.107-1.646,1.774-1.898,2.002h2.161c0.439,0,0.748-0.016,0.924-0.049
			c0.177-0.032,0.337-0.099,0.479-0.198c0.143-0.1,0.267-0.241,0.373-0.424H21.981z"/>
		<path style="fill:#0066FF;" d="M36.027,73.916l2.014-0.982h0.202v6.988c0,0.464,0.019,0.753,0.058,0.867
			c0.039,0.113,0.119,0.201,0.241,0.262c0.122,0.062,0.37,0.096,0.745,0.104v0.226h-3.113v-0.226
			c0.391-0.009,0.643-0.042,0.757-0.101c0.114-0.06,0.193-0.139,0.238-0.238c0.044-0.1,0.067-0.397,0.067-0.895v-4.468
			c0-0.602-0.021-0.988-0.061-1.159c-0.028-0.131-0.081-0.227-0.156-0.287s-0.166-0.092-0.271-0.092c-0.15,0-0.36,0.063-0.628,0.189
			L36.027,73.916z"/>
		<path style="fill:#0066FF;" d="M46.544,79.788l-0.58,1.593h-4.883v-0.226c1.437-1.311,2.447-2.381,3.033-3.211
			s0.879-1.589,0.879-2.276c0-0.525-0.16-0.956-0.482-1.294c-0.321-0.338-0.706-0.507-1.154-0.507c-0.407,0-0.772,0.119-1.095,0.357
			c-0.324,0.238-0.562,0.587-0.717,1.047h-0.226c0.102-0.753,0.363-1.331,0.784-1.733c0.421-0.403,0.947-0.604,1.578-0.604
			c0.671,0,1.232,0.216,1.681,0.646c0.45,0.432,0.675,0.94,0.675,1.526c0,0.419-0.098,0.838-0.293,1.257
			c-0.301,0.66-0.789,1.357-1.465,2.094c-1.013,1.107-1.646,1.774-1.898,2.002h2.161c0.439,0,0.747-0.016,0.925-0.049
			c0.177-0.032,0.336-0.099,0.479-0.198s0.267-0.241,0.373-0.424H46.544z"/>
	</g>
	<g>
		<path style="fill:#0066FF;" d="M19.596,94.14v0.866h-1.11v2.186h-1.007v-2.186h-3.503v-0.781l3.839-5.48h0.672v5.396H19.596z
			 M17.478,94.14v-4.107l-2.905,4.107H17.478z"/>
		<path style="fill:#0066FF;" d="M38.682,89.727l2.014-0.982h0.202v6.988c0,0.464,0.019,0.753,0.058,0.867
			c0.039,0.113,0.119,0.201,0.241,0.262c0.122,0.062,0.37,0.096,0.745,0.104v0.226h-3.113v-0.226
			c0.391-0.009,0.643-0.042,0.757-0.101c0.114-0.06,0.193-0.139,0.238-0.238c0.044-0.1,0.067-0.397,0.067-0.895v-4.468
			c0-0.602-0.021-0.988-0.061-1.159c-0.028-0.131-0.081-0.227-0.156-0.287s-0.166-0.092-0.271-0.092c-0.15,0-0.36,0.063-0.628,0.189
			L38.682,89.727z"/>
	</g>
	<g>
		<path style="fill:#0066FF;" d="M11.465,107.568l2.014-0.982h0.202v6.988c0,0.464,0.019,0.753,0.058,0.867
			c0.039,0.113,0.119,0.201,0.241,0.262c0.122,0.062,0.37,0.096,0.745,0.104v0.226h-3.113v-0.226
			c0.391-0.009,0.643-0.042,0.757-0.101c0.114-0.06,0.193-0.139,0.238-0.238c0.044-0.1,0.067-0.397,0.067-0.895v-4.468
			c0-0.602-0.021-0.988-0.061-1.159c-0.028-0.131-0.081-0.227-0.156-0.287s-0.166-0.092-0.271-0.092c-0.15,0-0.36,0.063-0.628,0.189
			L11.465,107.568z"/>
		<path style="fill:#0066FF;" d="M21.981,113.44l-0.58,1.593h-4.883v-0.226c1.437-1.311,2.447-2.381,3.033-3.211
			s0.879-1.589,0.879-2.276c0-0.525-0.161-0.956-0.482-1.294s-0.706-0.507-1.154-0.507c-0.407,0-0.772,0.119-1.095,0.357
			c-0.324,0.238-0.562,0.587-0.717,1.047h-0.226c0.102-0.753,0.363-1.331,0.784-1.733c0.421-0.403,0.947-0.604,1.578-0.604
			c0.671,0,1.232,0.216,1.682,0.646c0.449,0.432,0.674,0.94,0.674,1.526c0,0.419-0.098,0.838-0.293,1.257
			c-0.301,0.66-0.79,1.357-1.465,2.094c-1.013,1.107-1.646,1.774-1.898,2.002h2.161c0.439,0,0.748-0.016,0.924-0.049
			c0.177-0.032,0.337-0.099,0.479-0.198c0.143-0.1,0.267-0.241,0.373-0.424H21.981z"/>
		<path style="fill:#0066FF;" d="M38.047,108.332c0.236-0.558,0.534-0.988,0.894-1.291c0.36-0.304,0.809-0.455,1.346-0.455
			c0.663,0,1.172,0.216,1.525,0.646c0.269,0.322,0.403,0.666,0.403,1.032c0,0.602-0.379,1.225-1.136,1.867
			c0.509,0.199,0.894,0.484,1.154,0.854s0.391,0.806,0.391,1.307c0,0.716-0.228,1.336-0.684,1.861
			c-0.594,0.684-1.455,1.025-2.582,1.025c-0.558,0-0.937-0.069-1.139-0.207c-0.201-0.139-0.302-0.287-0.302-0.446
			c0-0.118,0.047-0.222,0.143-0.312c0.096-0.089,0.21-0.134,0.345-0.134c0.102,0,0.205,0.017,0.311,0.049
			c0.069,0.021,0.226,0.095,0.47,0.223s0.413,0.204,0.506,0.229c0.15,0.044,0.311,0.066,0.482,0.066c0.415,0,0.776-0.16,1.083-0.482
			c0.307-0.321,0.461-0.701,0.461-1.141c0-0.321-0.071-0.635-0.213-0.94c-0.106-0.228-0.222-0.4-0.348-0.519
			c-0.175-0.163-0.415-0.311-0.72-0.442s-0.616-0.198-0.934-0.198h-0.195v-0.184c0.321-0.04,0.644-0.156,0.967-0.348
			c0.323-0.191,0.558-0.421,0.705-0.689s0.22-0.563,0.22-0.885c0-0.42-0.131-0.758-0.394-1.017
			c-0.262-0.259-0.589-0.388-0.979-0.388c-0.631,0-1.158,0.338-1.581,1.014L38.047,108.332z"/>
	</g>
	<g>
		<path style="fill:#0066FF;" d="M79.161,6.367h6.409v0.592h-6.409V6.367z M79.161,8.644h6.409v0.604h-6.409V8.644z"/>
	</g>
	<g>
		<path style="fill:#0066FF;" d="M0.226,33.271h6.409v0.592H0.226V33.271z M0.226,35.548h6.409v0.604H0.226V35.548z"/>
		<path style="fill:#0066FF;" d="M22.069,34.706c0,0.187-0.066,0.347-0.198,0.479c-0.132,0.132-0.29,0.199-0.473,0.199
			c-0.187,0-0.347-0.066-0.479-0.199c-0.132-0.132-0.199-0.292-0.199-0.479s0.066-0.347,0.199-0.479
			c0.132-0.132,0.292-0.199,0.479-0.199c0.183,0,0.341,0.066,0.473,0.199C22.003,34.359,22.069,34.519,22.069,34.706z"/>
		<path style="fill:#0066FF;" d="M37.973,31.496h0.598v2.917h2.899v0.592h-2.899v2.899h-0.598v-2.899h-2.912v-0.592h2.912V31.496z"
			/>
		<path style="fill:#0066FF;" d="M55.968,34.706c0,0.187-0.066,0.347-0.199,0.479c-0.132,0.132-0.289,0.199-0.473,0.199
			c-0.188,0-0.347-0.066-0.479-0.199c-0.132-0.132-0.198-0.292-0.198-0.479s0.066-0.347,0.198-0.479
			c0.133-0.132,0.292-0.199,0.479-0.199c0.184,0,0.341,0.066,0.473,0.199C55.901,34.359,55.968,34.519,55.968,34.706z"/>
		<path style="fill:#0066FF;" d="M69.108,33.271h6.409v0.592h-6.409V33.271z M69.108,35.548h6.409v0.604h-6.409V35.548z"/>
	</g>
	<g>
		<path style="fill:#0066FF;" d="M0.226,67.109h6.409v0.592H0.226V67.109z M0.226,69.387h6.409v0.604H0.226V69.387z"/>
		<path style="fill:#0066FF;" d="M28.635,65.334h0.598v2.917h2.899v0.592h-2.899v2.899h-0.598v-2.899h-2.912v-0.592h2.912V65.334z"
			/>
		<path style="fill:#0066FF;" d="M51.222,67.109h6.409v0.592h-6.409V67.109z M51.222,69.387h6.409v0.604h-6.409V69.387z"/>
	</g>
	<g>
		<path style="fill:#0066FF;" d="M0.226,100.742h6.409v0.592H0.226V100.742z M0.226,103.02h6.409v0.604H0.226V103.02z"/>
		<path style="fill:#0066FF;" d="M26.661,100.742h6.409v0.592h-6.409V100.742z M26.661,103.02h6.409v0.604h-6.409V103.02z"/>
	</g>
</g>
<g id="theGroup">
</g>
</svg>
