<?xml version="1.0" encoding="iso-8859-1"?>
<!-- Generator: Adobe Illustrator 16.0.0, SVG Export Plug-In . SVG Version: 6.00 Build 0)  -->
<!DOCTYPE svg PUBLIC "-//W3C//DTD SVG 1.1//EN" "http://www.w3.org/Graphics/SVG/1.1/DTD/svg11.dtd">
<svg version="1.1" id="Lager_1" xmlns="http://www.w3.org/2000/svg" xmlns:xlink="http://www.w3.org/1999/xlink" x="0px" y="0px"
	 width="89.004px" height="51.386px" viewBox="0 0 89.004 51.386" style="enable-background:new 0 0 89.004 51.386;"
	 xml:space="preserve">
<g>
	
		<line style="fill:none;stroke:#0066FF;stroke-width:0.5;stroke-linecap:square;stroke-miterlimit:10;" x1="10.586" y1="34.595" x2="18.008" y2="34.595"/>
	
		<line style="fill:none;stroke:#0066FF;stroke-width:0.5;stroke-linecap:square;stroke-miterlimit:10;" x1="50.47" y1="34.595" x2="63.946" y2="34.595"/>
	<g>
		<path style="fill:#0066FF;" d="M5.719,8.229H2.515L1.953,9.535c-0.138,0.321-0.208,0.562-0.208,0.72
			c0,0.126,0.06,0.237,0.18,0.333c0.12,0.096,0.379,0.158,0.778,0.187V11H0.098v-0.226c0.346-0.062,0.57-0.141,0.671-0.238
			c0.208-0.195,0.438-0.592,0.69-1.19L4.37,2.534h0.214l2.881,6.885c0.231,0.554,0.442,0.913,0.631,1.078
			c0.189,0.165,0.453,0.257,0.791,0.278V11H5.621v-0.226c0.33-0.017,0.553-0.071,0.668-0.165c0.116-0.094,0.174-0.208,0.174-0.342
			c0-0.179-0.082-0.462-0.244-0.849L5.719,8.229z M5.548,7.777L4.145,4.433l-1.44,3.345H5.548z"/>
		<path style="fill:#0066FF;" d="M10.81,6.429c0.655-0.79,1.279-1.185,1.874-1.185c0.305,0,0.568,0.077,0.788,0.229
			c0.22,0.153,0.395,0.404,0.524,0.754c0.09,0.244,0.135,0.619,0.135,1.123v2.386c0,0.354,0.028,0.594,0.085,0.721
			c0.045,0.102,0.117,0.181,0.217,0.238s0.284,0.085,0.553,0.085V11H12.22v-0.22h0.116c0.261,0,0.443-0.04,0.546-0.119
			c0.104-0.079,0.176-0.196,0.217-0.351c0.016-0.062,0.024-0.252,0.024-0.574V7.448c0-0.509-0.066-0.878-0.198-1.108
			c-0.132-0.229-0.355-0.345-0.668-0.345c-0.484,0-0.966,0.265-1.446,0.793v2.948c0,0.379,0.022,0.613,0.067,0.702
			c0.057,0.118,0.135,0.205,0.235,0.259c0.1,0.055,0.302,0.083,0.607,0.083V11H8.955v-0.22h0.122c0.285,0,0.477-0.072,0.577-0.217
			c0.1-0.144,0.149-0.42,0.149-0.827V7.661c0-0.671-0.015-1.08-0.046-1.227c-0.03-0.146-0.077-0.246-0.14-0.299
			c-0.063-0.053-0.147-0.08-0.253-0.08c-0.114,0-0.25,0.031-0.409,0.091l-0.092-0.22l1.685-0.684h0.263V6.429z"/>
		<path style="fill:#0066FF;" d="M17.054,3.572v1.837h1.306v0.427h-1.306v3.625c0,0.362,0.052,0.606,0.156,0.732
			c0.104,0.126,0.237,0.189,0.399,0.189c0.135,0,0.265-0.042,0.391-0.125c0.126-0.083,0.224-0.207,0.293-0.369h0.238
			c-0.143,0.399-0.344,0.699-0.604,0.9c-0.26,0.201-0.529,0.302-0.806,0.302c-0.187,0-0.37-0.052-0.549-0.156
			c-0.179-0.104-0.312-0.252-0.397-0.446c-0.085-0.193-0.128-0.491-0.128-0.894v-3.76h-0.885V5.635
			c0.224-0.089,0.453-0.241,0.687-0.455c0.234-0.213,0.442-0.467,0.626-0.76c0.093-0.155,0.224-0.438,0.391-0.848H17.054z"/>
		<path style="fill:#0066FF;" d="M22.108,10.194c-0.574,0.443-0.934,0.7-1.081,0.769c-0.22,0.102-0.454,0.153-0.702,0.153
			c-0.387,0-0.705-0.132-0.956-0.397c-0.25-0.265-0.375-0.612-0.375-1.043c0-0.273,0.062-0.509,0.184-0.708
			c0.167-0.277,0.457-0.537,0.87-0.781c0.413-0.244,1.1-0.542,2.06-0.892v-0.22c0-0.557-0.089-0.939-0.266-1.147
			c-0.177-0.207-0.435-0.311-0.772-0.311c-0.256,0-0.459,0.069-0.61,0.208c-0.154,0.138-0.231,0.297-0.231,0.476l0.012,0.354
			c0,0.187-0.048,0.332-0.143,0.434c-0.096,0.102-0.221,0.152-0.375,0.152c-0.15,0-0.274-0.053-0.369-0.159
			c-0.096-0.106-0.144-0.25-0.144-0.433c0-0.35,0.179-0.672,0.537-0.965s0.86-0.439,1.508-0.439c0.496,0,0.903,0.083,1.221,0.25
			c0.24,0.126,0.417,0.324,0.531,0.592c0.073,0.175,0.11,0.533,0.11,1.074v1.898c0,0.533,0.01,0.86,0.03,0.979
			c0.021,0.12,0.054,0.201,0.101,0.241c0.046,0.041,0.101,0.061,0.162,0.061c0.065,0,0.122-0.014,0.171-0.043
			c0.085-0.053,0.25-0.201,0.494-0.445v0.342c-0.456,0.61-0.891,0.916-1.306,0.916c-0.2,0-0.358-0.069-0.477-0.208
			C22.173,10.764,22.112,10.528,22.108,10.194z M22.108,9.798v-2.13c-0.615,0.244-1.011,0.417-1.19,0.519
			c-0.321,0.179-0.551,0.366-0.689,0.562c-0.139,0.195-0.208,0.409-0.208,0.641c0,0.293,0.088,0.536,0.263,0.729
			s0.376,0.29,0.604,0.29C21.197,10.408,21.604,10.205,22.108,9.798z"/>
		<path style="fill:#0066FF;" d="M26.336,2.321v7.416c0,0.35,0.025,0.582,0.076,0.696c0.051,0.114,0.129,0.2,0.235,0.259
			s0.303,0.088,0.592,0.088V11h-2.741v-0.22c0.256,0,0.431-0.026,0.525-0.079c0.094-0.053,0.167-0.141,0.22-0.263
			s0.079-0.356,0.079-0.702V4.658c0-0.63-0.014-1.018-0.042-1.163c-0.028-0.144-0.074-0.243-0.137-0.296
			C25.08,3.147,25,3.12,24.902,3.12c-0.106,0-0.24,0.033-0.403,0.098l-0.104-0.213l1.667-0.684H26.336z"/>
		<path style="fill:#0066FF;" d="M28.677,7.515c-0.004,0.83,0.197,1.481,0.604,1.953c0.407,0.472,0.885,0.708,1.435,0.708
			c0.366,0,0.685-0.101,0.955-0.302c0.271-0.202,0.498-0.546,0.681-1.035l0.189,0.122c-0.086,0.558-0.334,1.065-0.745,1.523
			c-0.411,0.458-0.925,0.687-1.544,0.687c-0.671,0-1.246-0.261-1.724-0.784c-0.479-0.523-0.717-1.226-0.717-2.109
			c0-0.956,0.245-1.702,0.735-2.237s1.106-0.803,1.847-0.803c0.626,0,1.141,0.207,1.544,0.62s0.604,0.965,0.604,1.657H28.677z
			 M28.677,7.161h2.588c-0.021-0.358-0.063-0.61-0.128-0.757c-0.102-0.228-0.253-0.407-0.455-0.537
			c-0.201-0.13-0.412-0.195-0.631-0.195c-0.338,0-0.64,0.131-0.907,0.394C28.877,6.328,28.722,6.693,28.677,7.161z"/>
		<path style="fill:#0066FF;" d="M34.833,3.572v1.837h1.306v0.427h-1.306v3.625c0,0.362,0.052,0.606,0.156,0.732
			c0.104,0.126,0.237,0.189,0.399,0.189c0.135,0,0.265-0.042,0.391-0.125c0.126-0.083,0.224-0.207,0.293-0.369h0.238
			c-0.143,0.399-0.344,0.699-0.604,0.9c-0.26,0.201-0.529,0.302-0.806,0.302c-0.187,0-0.37-0.052-0.549-0.156
			c-0.179-0.104-0.312-0.252-0.397-0.446c-0.085-0.193-0.128-0.491-0.128-0.894v-3.76h-0.885V5.635
			c0.224-0.089,0.453-0.241,0.687-0.455c0.234-0.213,0.442-0.467,0.626-0.76c0.093-0.155,0.224-0.438,0.391-0.848H34.833z"/>
		<path style="fill:#0066FF;" d="M39.558,5.409h2.631v0.226h-0.171c-0.159,0-0.28,0.039-0.363,0.116S41.53,5.932,41.53,6.062
			c0,0.142,0.043,0.311,0.128,0.506l1.3,3.088l1.306-3.204c0.094-0.228,0.141-0.401,0.141-0.519c0-0.057-0.017-0.104-0.049-0.14
			c-0.045-0.062-0.102-0.103-0.171-0.125c-0.069-0.022-0.21-0.034-0.421-0.034V5.409h1.825v0.226
			c-0.211,0.017-0.358,0.059-0.439,0.128c-0.142,0.122-0.271,0.326-0.384,0.61l-1.984,4.797h-0.25l-1.996-4.718
			c-0.089-0.22-0.175-0.377-0.256-0.473c-0.082-0.096-0.186-0.176-0.312-0.241c-0.069-0.037-0.206-0.071-0.409-0.104V5.409z"/>
		<path style="fill:#0066FF;" d="M50.81,5.409v3.388c0,0.646,0.014,1.042,0.045,1.187s0.08,0.245,0.146,0.302
			c0.066,0.057,0.146,0.085,0.234,0.085c0.127,0,0.27-0.034,0.428-0.104l0.086,0.214l-1.672,0.689h-0.275V9.987
			c-0.48,0.521-0.846,0.848-1.1,0.983c-0.252,0.134-0.518,0.201-0.799,0.201c-0.312,0-0.584-0.091-0.814-0.271
			c-0.23-0.181-0.391-0.414-0.479-0.699c-0.09-0.285-0.135-0.688-0.135-1.208V6.496c0-0.265-0.029-0.448-0.086-0.549
			s-0.141-0.18-0.253-0.235c-0.112-0.055-0.314-0.081-0.607-0.077V5.409h1.96V9.15c0,0.521,0.09,0.863,0.271,1.025
			c0.18,0.163,0.398,0.244,0.656,0.244c0.174,0,0.373-0.055,0.594-0.165c0.223-0.11,0.486-0.319,0.791-0.628V6.459
			c0-0.317-0.059-0.532-0.174-0.644c-0.115-0.112-0.357-0.172-0.723-0.18V5.409H50.81z"/>
		<path style="fill:#0066FF;" d="M51.932,5.409h2.63v0.226c-0.166,0-0.283,0.029-0.351,0.086c-0.067,0.057-0.101,0.132-0.101,0.226
			c0,0.098,0.071,0.248,0.214,0.452c0.045,0.065,0.111,0.167,0.201,0.305l0.396,0.635l0.458-0.635
			c0.293-0.403,0.439-0.657,0.439-0.763c0-0.086-0.034-0.158-0.104-0.217s-0.182-0.089-0.336-0.089V5.409h1.893v0.226
			c-0.2,0.013-0.373,0.067-0.52,0.165c-0.199,0.138-0.472,0.439-0.817,0.903l-0.763,1.02l1.391,2.002
			c0.342,0.492,0.586,0.788,0.732,0.888c0.146,0.1,0.336,0.156,0.568,0.168V11h-2.637v-0.22c0.183,0,0.325-0.041,0.427-0.122
			c0.077-0.057,0.116-0.132,0.116-0.226c0-0.094-0.13-0.33-0.391-0.708l-0.818-1.196l-0.896,1.196
			c-0.277,0.37-0.415,0.59-0.415,0.659c0,0.098,0.046,0.186,0.137,0.265c0.092,0.08,0.229,0.123,0.412,0.131V11h-1.825v-0.22
			c0.146-0.021,0.275-0.071,0.385-0.152c0.155-0.118,0.415-0.419,0.781-0.903l1.172-1.557L53.25,6.63
			c-0.302-0.439-0.534-0.715-0.699-0.827c-0.165-0.112-0.371-0.168-0.619-0.168V5.409z"/>
		<path style="fill:#0066FF;" d="M60.037,6.429c0.655-0.79,1.279-1.185,1.874-1.185c0.305,0,0.567,0.077,0.787,0.229
			c0.22,0.153,0.395,0.404,0.524,0.754c0.09,0.244,0.135,0.619,0.135,1.123v2.386c0,0.354,0.028,0.594,0.085,0.721
			c0.045,0.102,0.117,0.181,0.217,0.238s0.284,0.085,0.553,0.085V11h-2.766v-0.22h0.116c0.261,0,0.442-0.04,0.547-0.119
			c0.104-0.079,0.176-0.196,0.216-0.351c0.017-0.062,0.025-0.252,0.025-0.574V7.448c0-0.509-0.066-0.878-0.199-1.108
			c-0.132-0.229-0.354-0.345-0.668-0.345c-0.484,0-0.967,0.265-1.446,0.793v2.948c0,0.379,0.022,0.613,0.067,0.702
			c0.057,0.118,0.135,0.205,0.234,0.259c0.1,0.055,0.303,0.083,0.607,0.083V11h-2.765v-0.22h0.122c0.284,0,0.477-0.072,0.576-0.217
			c0.1-0.144,0.15-0.42,0.15-0.827V7.661c0-0.671-0.016-1.08-0.046-1.227c-0.031-0.146-0.078-0.246-0.141-0.299
			c-0.063-0.053-0.147-0.08-0.253-0.08c-0.114,0-0.251,0.031-0.409,0.091l-0.092-0.22l1.685-0.684h0.263V6.429z"/>
		<path style="fill:#0066FF;" d="M67.825,10.194c-0.574,0.443-0.934,0.7-1.08,0.769c-0.221,0.102-0.454,0.153-0.702,0.153
			c-0.387,0-0.705-0.132-0.955-0.397c-0.251-0.265-0.376-0.612-0.376-1.043c0-0.273,0.062-0.509,0.184-0.708
			c0.167-0.277,0.456-0.537,0.869-0.781s1.1-0.542,2.061-0.892v-0.22c0-0.557-0.089-0.939-0.266-1.147
			c-0.177-0.207-0.435-0.311-0.772-0.311c-0.256,0-0.46,0.069-0.61,0.208c-0.154,0.138-0.231,0.297-0.231,0.476l0.012,0.354
			c0,0.187-0.048,0.332-0.144,0.434c-0.096,0.102-0.221,0.152-0.375,0.152c-0.15,0-0.273-0.053-0.369-0.159s-0.144-0.25-0.144-0.433
			c0-0.35,0.179-0.672,0.537-0.965s0.86-0.439,1.508-0.439c0.496,0,0.903,0.083,1.221,0.25c0.24,0.126,0.417,0.324,0.53,0.592
			c0.074,0.175,0.11,0.533,0.11,1.074v1.898c0,0.533,0.01,0.86,0.03,0.979c0.021,0.12,0.054,0.201,0.101,0.241
			s0.101,0.061,0.162,0.061c0.065,0,0.122-0.014,0.171-0.043c0.086-0.053,0.25-0.201,0.494-0.445v0.342
			c-0.455,0.61-0.891,0.916-1.306,0.916c-0.199,0-0.358-0.069-0.477-0.208S67.829,10.528,67.825,10.194z M67.825,9.798v-2.13
			c-0.614,0.244-1.012,0.417-1.19,0.519c-0.321,0.179-0.552,0.366-0.689,0.562c-0.139,0.195-0.208,0.409-0.208,0.641
			c0,0.293,0.088,0.536,0.263,0.729s0.376,0.29,0.604,0.29C66.913,10.408,67.32,10.205,67.825,9.798z"/>
	</g>
	<g>
		<path style="fill:#0066FF;" d="M12.627,22.285l2.014-0.982h0.202v6.988c0,0.464,0.019,0.753,0.058,0.867
			c0.039,0.113,0.119,0.201,0.241,0.262c0.122,0.062,0.37,0.096,0.745,0.104v0.226h-3.113v-0.226
			c0.391-0.009,0.643-0.042,0.757-0.101c0.114-0.06,0.193-0.139,0.238-0.238c0.044-0.1,0.067-0.397,0.067-0.895v-4.468
			c0-0.602-0.021-0.988-0.061-1.159c-0.028-0.13-0.081-0.226-0.156-0.287s-0.166-0.092-0.271-0.092c-0.15,0-0.36,0.063-0.628,0.189
			L12.627,22.285z"/>
		<path style="fill:#0066FF;" d="M56.641,21.303v0.226c-0.537,0.053-0.977,0.16-1.315,0.321c-0.34,0.161-0.676,0.406-1.008,0.735
			c-0.331,0.33-0.606,0.697-0.823,1.102c-0.218,0.405-0.4,0.886-0.547,1.444c0.586-0.403,1.174-0.604,1.764-0.604
			c0.566,0,1.057,0.228,1.472,0.684s0.622,1.042,0.622,1.758c0,0.691-0.209,1.322-0.629,1.893c-0.504,0.691-1.172,1.037-2.002,1.037
			c-0.565,0-1.045-0.188-1.439-0.562c-0.773-0.729-1.16-1.673-1.16-2.832c0-0.741,0.148-1.444,0.445-2.112s0.722-1.259,1.272-1.776
			c0.552-0.517,1.08-0.865,1.584-1.044c0.505-0.179,0.975-0.269,1.41-0.269H56.641z M52.844,25.575
			c-0.073,0.549-0.109,0.992-0.109,1.331c0,0.391,0.071,0.814,0.216,1.272c0.145,0.457,0.359,0.82,0.645,1.089
			c0.207,0.191,0.46,0.287,0.757,0.287c0.354,0,0.67-0.167,0.949-0.5c0.278-0.334,0.418-0.811,0.418-1.429
			c0-0.696-0.139-1.298-0.415-1.807c-0.277-0.509-0.67-0.763-1.179-0.763c-0.154,0-0.32,0.032-0.497,0.098
			C53.451,25.219,53.189,25.359,52.844,25.575z"/>
		<path style="fill:#0066FF;" d="M57.738,25.661c0-0.944,0.143-1.757,0.428-2.438c0.285-0.681,0.663-1.189,1.135-1.523
			c0.367-0.264,0.745-0.396,1.136-0.396c0.635,0,1.204,0.323,1.709,0.971c0.631,0.801,0.946,1.888,0.946,3.259
			c0,0.961-0.139,1.776-0.415,2.448c-0.277,0.671-0.63,1.158-1.06,1.461c-0.429,0.304-0.843,0.455-1.242,0.455
			c-0.789,0-1.446-0.466-1.971-1.397C57.961,27.714,57.738,26.768,57.738,25.661z M58.936,25.813c0,1.139,0.14,2.069,0.421,2.789
			c0.231,0.606,0.577,0.909,1.037,0.909c0.22,0,0.448-0.099,0.684-0.296c0.236-0.197,0.415-0.528,0.537-0.991
			c0.188-0.7,0.281-1.687,0.281-2.961c0-0.944-0.098-1.731-0.293-2.362c-0.146-0.468-0.336-0.799-0.567-0.995
			c-0.167-0.135-0.369-0.202-0.604-0.202c-0.277,0-0.523,0.124-0.739,0.373c-0.293,0.337-0.492,0.869-0.598,1.593
			S58.936,25.109,58.936,25.813z"/>
	</g>
	<g>
		<path style="fill:#0066FF;" d="M30.007,29.467v0.226c-0.537,0.053-0.976,0.16-1.315,0.32c-0.34,0.161-0.675,0.406-1.007,0.735
			c-0.332,0.33-0.606,0.697-0.824,1.103c-0.218,0.404-0.4,0.886-0.546,1.443c0.586-0.403,1.174-0.604,1.764-0.604
			c0.565,0,1.056,0.228,1.471,0.684s0.622,1.042,0.622,1.758c0,0.691-0.209,1.322-0.628,1.893c-0.504,0.691-1.172,1.037-2.002,1.037
			c-0.565,0-1.046-0.188-1.44-0.562c-0.773-0.729-1.16-1.673-1.16-2.832c0-0.74,0.148-1.444,0.445-2.112
			c0.297-0.667,0.721-1.259,1.273-1.775c0.551-0.517,1.079-0.865,1.583-1.044c0.505-0.179,0.975-0.269,1.41-0.269H30.007z
			 M26.211,33.739c-0.073,0.55-0.11,0.993-0.11,1.331c0,0.391,0.072,0.814,0.217,1.272c0.144,0.457,0.359,0.82,0.644,1.089
			c0.207,0.191,0.459,0.287,0.757,0.287c0.354,0,0.67-0.167,0.949-0.5c0.279-0.334,0.418-0.811,0.418-1.429
			c0-0.696-0.139-1.298-0.415-1.807c-0.277-0.509-0.669-0.763-1.178-0.763c-0.155,0-0.32,0.032-0.498,0.098
			C26.818,33.383,26.557,33.523,26.211,33.739z"/>
		<path style="fill:#0066FF;" d="M31.106,33.824c0-0.943,0.143-1.756,0.427-2.438s0.663-1.189,1.135-1.523
			c0.366-0.265,0.745-0.396,1.135-0.396c0.635,0,1.205,0.323,1.709,0.971c0.631,0.802,0.946,1.888,0.946,3.259
			c0,0.961-0.139,1.776-0.415,2.448c-0.277,0.671-0.63,1.158-1.059,1.461c-0.43,0.304-0.843,0.455-1.242,0.455
			c-0.79,0-1.447-0.466-1.971-1.397C31.328,35.878,31.106,34.932,31.106,33.824z M32.302,33.978c0,1.139,0.14,2.069,0.421,2.789
			c0.231,0.606,0.578,0.909,1.037,0.909c0.22,0,0.448-0.099,0.684-0.296c0.236-0.197,0.415-0.528,0.537-0.991
			c0.188-0.7,0.281-1.688,0.281-2.961c0-0.943-0.098-1.731-0.293-2.361c-0.146-0.469-0.336-0.8-0.568-0.995
			c-0.167-0.135-0.368-0.202-0.604-0.202c-0.277,0-0.523,0.125-0.739,0.373c-0.293,0.338-0.492,0.868-0.598,1.593
			S32.302,33.273,32.302,33.978z"/>
		<path style="fill:#0066FF;" d="M77.969,30.449l2.014-0.982h0.202v6.988c0,0.464,0.019,0.753,0.058,0.867
			c0.039,0.113,0.119,0.201,0.241,0.262c0.122,0.062,0.37,0.096,0.745,0.104v0.226h-3.113v-0.226
			c0.391-0.009,0.643-0.042,0.757-0.101c0.114-0.06,0.193-0.139,0.238-0.238s0.067-0.397,0.067-0.895v-4.468
			c0-0.602-0.021-0.988-0.062-1.159c-0.028-0.131-0.08-0.227-0.155-0.287c-0.076-0.061-0.166-0.092-0.271-0.092
			c-0.151,0-0.36,0.063-0.629,0.189L77.969,30.449z"/>
		<path style="fill:#0066FF;" d="M88.18,29.638l-0.476,1.038h-2.49l-0.544,1.11c1.079,0.159,1.934,0.56,2.564,1.202
			c0.541,0.554,0.812,1.205,0.812,1.953c0,0.436-0.089,0.839-0.266,1.209s-0.399,0.686-0.669,0.945
			c-0.268,0.261-0.567,0.471-0.896,0.629c-0.468,0.224-0.948,0.336-1.44,0.336c-0.497,0-0.857-0.085-1.084-0.253
			c-0.226-0.169-0.339-0.355-0.339-0.559c0-0.114,0.047-0.215,0.141-0.303c0.094-0.087,0.212-0.131,0.354-0.131
			c0.105,0,0.198,0.017,0.277,0.049s0.215,0.116,0.406,0.25c0.305,0.212,0.614,0.317,0.928,0.317c0.476,0,0.894-0.18,1.254-0.54
			s0.54-0.799,0.54-1.315c0-0.5-0.16-0.967-0.482-1.4c-0.321-0.434-0.765-0.769-1.33-1.004c-0.443-0.184-1.048-0.289-1.812-0.317
			l1.587-3.217H88.18z"/>
	</g>
	<g>
		<path style="fill:#0066FF;" d="M17.184,44.501v0.866h-1.11v2.186h-1.007v-2.186h-3.503v-0.781l3.839-5.48h0.672v5.396H17.184z
			 M15.066,44.501v-4.107l-2.905,4.107H15.066z"/>
		<path style="fill:#0066FF;" d="M60.071,44.501v0.866h-1.11v2.186h-1.007v-2.186H54.45v-0.781l3.839-5.48h0.672v5.396H60.071z
			 M57.954,44.501v-4.107l-2.906,4.107H57.954z"/>
	</g>
	<g>
		<path style="fill:#0066FF;" d="M73.702,6.367h6.409v0.592h-6.409V6.367z M73.702,8.644h6.409v0.604h-6.409V8.644z"/>
	</g>
	<g>
		<path style="fill:#0066FF;" d="M0.226,33.281h6.409v0.592H0.226V33.281z M0.226,35.559h6.409v0.604H0.226V35.559z"/>
		<path style="fill:#0066FF;" d="M22.069,34.716c0,0.188-0.066,0.347-0.198,0.479c-0.132,0.132-0.29,0.198-0.473,0.198
			c-0.187,0-0.347-0.066-0.479-0.198c-0.132-0.133-0.199-0.292-0.199-0.479s0.066-0.347,0.199-0.479
			c0.132-0.132,0.292-0.198,0.479-0.198c0.183,0,0.341,0.066,0.473,0.198C22.003,34.369,22.069,34.528,22.069,34.716z"/>
		<path style="fill:#0066FF;" d="M40.099,33.281h6.409v0.592h-6.409V33.281z M40.099,35.559h6.409v0.604h-6.409V35.559z"/>
		<path style="fill:#0066FF;" d="M67.709,33.281h6.409v0.592h-6.409V33.281z M67.709,35.559h6.409v0.604h-6.409V35.559z"/>
	</g>
</g>
<g id="theGroup">
</g>
</svg>
