<?xml version="1.0" encoding="iso-8859-1"?>
<!-- Generator: Adobe Illustrator 16.0.0, SVG Export Plug-In . SVG Version: 6.00 Build 0)  -->
<!DOCTYPE svg PUBLIC "-//W3C//DTD SVG 1.1//EN" "http://www.w3.org/Graphics/SVG/1.1/DTD/svg11.dtd">
<svg version="1.1" id="Lager_1" xmlns="http://www.w3.org/2000/svg" xmlns:xlink="http://www.w3.org/1999/xlink" x="0px" y="0px"
	 width="62.766px" height="65.872px" viewBox="0 0 62.766 65.872" style="enable-background:new 0 0 62.766 65.872;"
	 xml:space="preserve">
<g>
	
		<line style="fill:none;stroke:#0066FF;stroke-width:0.5;stroke-linecap:square;stroke-miterlimit:10;" x1="0.25" y1="15.232" x2="13.531" y2="15.232"/>
	
		<line style="fill:none;stroke:#0066FF;stroke-width:0.5;stroke-linecap:square;stroke-miterlimit:10;" x1="27.672" y1="15.232" x2="40.953" y2="15.232"/>
	
		<line style="fill:none;stroke:#0066FF;stroke-width:0.5;stroke-linecap:square;stroke-miterlimit:10;" x1="27.672" y1="49.061" x2="40.953" y2="49.061"/>
	
		<line style="fill:none;stroke:#0066FF;stroke-width:0.5;stroke-linecap:square;stroke-miterlimit:10;" x1="55.094" y1="49.061" x2="62.516" y2="49.061"/>
	<g>
		<path style="fill:#0066FF;" d="M7.075,8.795l-0.58,1.593H1.612v-0.226c1.437-1.311,2.447-2.381,3.033-3.211
			s0.879-1.589,0.879-2.276c0-0.525-0.161-0.956-0.482-1.294S4.336,2.875,3.888,2.875c-0.407,0-0.772,0.119-1.095,0.357
			C2.469,3.47,2.23,3.819,2.076,4.279H1.85c0.102-0.753,0.363-1.331,0.784-1.733c0.421-0.403,0.947-0.604,1.578-0.604
			c0.671,0,1.232,0.216,1.682,0.647c0.449,0.431,0.674,0.94,0.674,1.526c0,0.419-0.098,0.838-0.293,1.257
			C5.974,6.03,5.485,6.728,4.81,7.464C3.797,8.571,3.164,9.239,2.912,9.466h2.161c0.439,0,0.748-0.016,0.924-0.049
			c0.177-0.032,0.337-0.098,0.479-0.198c0.143-0.1,0.267-0.241,0.373-0.424H7.075z"/>
		<path style="fill:#0066FF;" d="M9.058,2.923l2.014-0.982h0.202v6.988c0,0.464,0.019,0.753,0.058,0.867
			c0.039,0.114,0.119,0.201,0.241,0.262s0.37,0.096,0.745,0.104v0.226H9.205v-0.226c0.391-0.008,0.643-0.042,0.757-0.101
			c0.114-0.059,0.193-0.138,0.238-0.238c0.044-0.1,0.067-0.398,0.067-0.895V4.461c0-0.602-0.021-0.988-0.061-1.159
			c-0.028-0.13-0.081-0.226-0.156-0.287S9.884,2.923,9.778,2.923c-0.15,0-0.36,0.063-0.628,0.189L9.058,2.923z"/>
		<path style="fill:#0066FF;" d="M29.058,2.923l2.014-0.982h0.202v6.988c0,0.464,0.019,0.753,0.058,0.867
			c0.039,0.114,0.119,0.201,0.241,0.262s0.37,0.096,0.745,0.104v0.226h-3.113v-0.226c0.391-0.008,0.643-0.042,0.757-0.101
			c0.114-0.059,0.193-0.138,0.238-0.238c0.044-0.1,0.067-0.398,0.067-0.895V4.461c0-0.602-0.021-0.988-0.061-1.159
			c-0.028-0.13-0.081-0.226-0.156-0.287s-0.166-0.092-0.271-0.092c-0.15,0-0.36,0.063-0.628,0.189L29.058,2.923z"/>
		<path style="fill:#0066FF;" d="M39.575,8.795l-0.58,1.593h-4.883v-0.226c1.437-1.311,2.447-2.381,3.033-3.211
			s0.879-1.589,0.879-2.276c0-0.525-0.16-0.956-0.481-1.294c-0.322-0.338-0.706-0.507-1.154-0.507c-0.406,0-0.771,0.119-1.096,0.357
			C34.97,3.47,34.73,3.819,34.576,4.279h-0.226c0.102-0.753,0.363-1.331,0.784-1.733c0.421-0.403,0.947-0.604,1.578-0.604
			c0.671,0,1.231,0.216,1.681,0.647c0.45,0.431,0.675,0.94,0.675,1.526c0,0.419-0.098,0.838-0.293,1.257
			c-0.301,0.659-0.789,1.357-1.465,2.093c-1.014,1.107-1.646,1.774-1.898,2.002h2.161c0.439,0,0.747-0.016,0.925-0.049
			c0.177-0.032,0.336-0.098,0.479-0.198c0.143-0.1,0.267-0.241,0.373-0.424H39.575z"/>
	</g>
	<g>
		<path style="fill:#0066FF;" d="M1.275,21.489c0.236-0.558,0.534-0.988,0.894-1.291c0.36-0.303,0.809-0.455,1.346-0.455
			c0.663,0,1.172,0.216,1.525,0.647c0.269,0.321,0.403,0.666,0.403,1.032c0,0.602-0.379,1.225-1.136,1.867
			c0.509,0.2,0.894,0.484,1.154,0.854c0.26,0.371,0.391,0.806,0.391,1.307c0,0.716-0.228,1.336-0.684,1.861
			c-0.594,0.684-1.455,1.025-2.582,1.025c-0.558,0-0.937-0.069-1.139-0.208c-0.201-0.138-0.302-0.287-0.302-0.446
			c0-0.118,0.047-0.222,0.143-0.311s0.21-0.134,0.345-0.134c0.102,0,0.205,0.016,0.311,0.049c0.069,0.021,0.226,0.095,0.47,0.223
			c0.244,0.128,0.413,0.205,0.506,0.229c0.15,0.045,0.311,0.067,0.482,0.067c0.415,0,0.776-0.161,1.083-0.482
			s0.461-0.702,0.461-1.141c0-0.322-0.071-0.635-0.213-0.94c-0.106-0.228-0.222-0.4-0.348-0.519c-0.175-0.163-0.415-0.31-0.72-0.442
			s-0.616-0.198-0.934-0.198H2.539V23.9c0.321-0.041,0.644-0.156,0.967-0.348c0.323-0.191,0.558-0.421,0.705-0.689
			s0.22-0.564,0.22-0.885c0-0.419-0.131-0.758-0.394-1.016c-0.262-0.258-0.589-0.388-0.979-0.388c-0.631,0-1.158,0.338-1.581,1.013
			L1.275,21.489z"/>
		<path style="fill:#0066FF;" d="M12.493,19.744v0.226c-0.537,0.053-0.976,0.16-1.315,0.321s-0.675,0.406-1.007,0.735
			c-0.332,0.33-0.606,0.697-0.824,1.102c-0.218,0.405-0.4,0.886-0.546,1.444c0.586-0.403,1.174-0.604,1.764-0.604
			c0.565,0,1.056,0.228,1.471,0.684s0.622,1.042,0.622,1.758c0,0.692-0.209,1.322-0.628,1.892c-0.504,0.692-1.172,1.038-2.002,1.038
			c-0.565,0-1.046-0.187-1.44-0.562c-0.773-0.729-1.16-1.672-1.16-2.832c0-0.741,0.148-1.444,0.445-2.112
			c0.297-0.667,0.721-1.259,1.273-1.776c0.551-0.517,1.079-0.865,1.583-1.044c0.505-0.179,0.975-0.269,1.41-0.269H12.493z
			 M8.697,24.016c-0.073,0.549-0.11,0.993-0.11,1.331c0,0.391,0.072,0.815,0.217,1.272c0.144,0.458,0.359,0.821,0.644,1.089
			c0.207,0.191,0.459,0.287,0.757,0.287c0.354,0,0.67-0.167,0.949-0.5s0.418-0.81,0.418-1.428c0-0.696-0.139-1.298-0.415-1.807
			c-0.277-0.509-0.669-0.763-1.178-0.763c-0.155,0-0.32,0.032-0.498,0.098C9.304,23.66,9.042,23.8,8.697,24.016z"/>
		<path style="fill:#0066FF;" d="M28.688,21.489c0.236-0.558,0.534-0.988,0.894-1.291c0.36-0.303,0.809-0.455,1.346-0.455
			c0.663,0,1.172,0.216,1.525,0.647c0.269,0.321,0.403,0.666,0.403,1.032c0,0.602-0.379,1.225-1.136,1.867
			c0.509,0.2,0.894,0.484,1.154,0.854c0.26,0.371,0.391,0.806,0.391,1.307c0,0.716-0.229,1.336-0.684,1.861
			c-0.595,0.684-1.455,1.025-2.582,1.025c-0.558,0-0.937-0.069-1.139-0.208c-0.201-0.138-0.302-0.287-0.302-0.446
			c0-0.118,0.047-0.222,0.143-0.311s0.21-0.134,0.345-0.134c0.102,0,0.205,0.016,0.311,0.049c0.069,0.021,0.226,0.095,0.47,0.223
			c0.244,0.128,0.413,0.205,0.506,0.229c0.15,0.045,0.311,0.067,0.482,0.067c0.415,0,0.776-0.161,1.083-0.482s0.46-0.702,0.46-1.141
			c0-0.322-0.07-0.635-0.213-0.94c-0.106-0.228-0.222-0.4-0.348-0.519c-0.175-0.163-0.415-0.31-0.72-0.442s-0.616-0.198-0.934-0.198
			h-0.195V23.9c0.321-0.041,0.644-0.156,0.967-0.348c0.323-0.191,0.558-0.421,0.705-0.689s0.22-0.564,0.22-0.885
			c0-0.419-0.131-0.758-0.394-1.016c-0.262-0.258-0.589-0.388-0.979-0.388c-0.631,0-1.158,0.338-1.581,1.013L28.688,21.489z"/>
		<path style="fill:#0066FF;" d="M39.906,19.744v0.226c-0.537,0.053-0.977,0.16-1.315,0.321c-0.34,0.161-0.676,0.406-1.008,0.735
			c-0.331,0.33-0.606,0.697-0.823,1.102c-0.218,0.405-0.4,0.886-0.547,1.444c0.586-0.403,1.174-0.604,1.764-0.604
			c0.566,0,1.057,0.228,1.472,0.684s0.622,1.042,0.622,1.758c0,0.692-0.209,1.322-0.629,1.892c-0.504,0.692-1.172,1.038-2.002,1.038
			c-0.565,0-1.045-0.187-1.439-0.562c-0.773-0.729-1.16-1.672-1.16-2.832c0-0.741,0.148-1.444,0.445-2.112s0.722-1.259,1.272-1.776
			c0.552-0.517,1.08-0.865,1.584-1.044c0.505-0.179,0.975-0.269,1.41-0.269H39.906z M36.109,24.016
			C36.036,24.565,36,25.009,36,25.347c0,0.391,0.071,0.815,0.216,1.272c0.145,0.458,0.359,0.821,0.645,1.089
			c0.207,0.191,0.46,0.287,0.757,0.287c0.354,0,0.67-0.167,0.949-0.5c0.278-0.333,0.418-0.81,0.418-1.428
			c0-0.696-0.139-1.298-0.415-1.807c-0.277-0.509-0.67-0.763-1.179-0.763c-0.154,0-0.32,0.032-0.497,0.098
			C36.717,23.66,36.455,23.8,36.109,24.016z"/>
	</g>
	<g>
		<path style="fill:#0066FF;" d="M31.836,44.378v-0.226c0.529-0.009,1.021-0.132,1.478-0.369c0.455-0.238,0.895-0.654,1.32-1.248
			c0.426-0.595,0.721-1.248,0.889-1.96c-0.639,0.411-1.217,0.616-1.734,0.616c-0.582,0-1.08-0.225-1.494-0.674
			c-0.416-0.449-0.624-1.047-0.624-1.791c0-0.725,0.208-1.37,0.624-1.936c0.5-0.688,1.152-1.031,1.959-1.031
			c0.68,0,1.262,0.281,1.746,0.842c0.594,0.696,0.891,1.555,0.891,2.576c0,0.92-0.227,1.777-0.678,2.572
			c-0.451,0.796-1.08,1.456-1.887,1.98c-0.654,0.432-1.369,0.647-2.142,0.647H31.836z M35.621,40.124
			c0.072-0.529,0.109-0.952,0.109-1.27c0-0.395-0.066-0.821-0.201-1.279c-0.135-0.457-0.324-0.809-0.57-1.053
			s-0.527-0.366-0.84-0.366c-0.361,0-0.68,0.163-0.952,0.488c-0.272,0.326-0.409,0.81-0.409,1.453c0,0.858,0.182,1.529,0.543,2.014
			c0.266,0.351,0.59,0.525,0.977,0.525c0.188,0,0.41-0.045,0.666-0.135C35.199,40.413,35.426,40.286,35.621,40.124z"/>
		<path style="fill:#0066FF;" d="M57.13,36.742l2.014-0.982h0.202v6.988c0,0.464,0.019,0.753,0.058,0.867
			c0.039,0.113,0.119,0.201,0.241,0.262c0.122,0.062,0.37,0.096,0.745,0.104v0.226h-3.113v-0.226
			c0.391-0.009,0.643-0.042,0.757-0.101c0.114-0.06,0.193-0.139,0.238-0.238s0.067-0.397,0.067-0.895V38.28
			c0-0.602-0.021-0.988-0.062-1.159c-0.028-0.131-0.08-0.227-0.155-0.287c-0.076-0.061-0.166-0.092-0.271-0.092
			c-0.151,0-0.36,0.063-0.629,0.189L57.13,36.742z"/>
	</g>
	<g>
		<path style="fill:#0066FF;" d="M28.687,55.338c0.236-0.558,0.534-0.988,0.894-1.291c0.36-0.304,0.809-0.455,1.346-0.455
			c0.663,0,1.172,0.216,1.526,0.646c0.268,0.322,0.402,0.666,0.402,1.032c0,0.602-0.379,1.225-1.135,1.867
			c0.508,0.199,0.893,0.484,1.154,0.854s0.392,0.806,0.392,1.307c0,0.716-0.229,1.336-0.685,1.861
			c-0.594,0.684-1.455,1.025-2.582,1.025c-0.558,0-0.937-0.069-1.139-0.207c-0.201-0.139-0.302-0.287-0.302-0.446
			c0-0.118,0.047-0.222,0.143-0.312c0.096-0.089,0.21-0.134,0.345-0.134c0.102,0,0.205,0.017,0.311,0.049
			c0.069,0.021,0.226,0.095,0.47,0.223s0.413,0.204,0.506,0.229c0.15,0.044,0.311,0.066,0.482,0.066c0.415,0,0.776-0.16,1.083-0.482
			c0.307-0.321,0.461-0.701,0.461-1.141c0-0.321-0.071-0.635-0.213-0.94c-0.106-0.228-0.222-0.4-0.348-0.519
			c-0.175-0.163-0.415-0.311-0.72-0.442s-0.616-0.198-0.934-0.198h-0.195v-0.184c0.321-0.04,0.644-0.156,0.967-0.348
			c0.323-0.191,0.558-0.421,0.705-0.689s0.22-0.563,0.22-0.885c0-0.42-0.131-0.758-0.394-1.017
			c-0.262-0.259-0.589-0.388-0.979-0.388c-0.631,0-1.158,0.338-1.581,1.014L28.687,55.338z"/>
		<path style="fill:#0066FF;" d="M39.906,53.592v0.226c-0.537,0.053-0.977,0.16-1.315,0.32c-0.34,0.161-0.676,0.406-1.008,0.735
			c-0.331,0.33-0.606,0.697-0.823,1.103c-0.218,0.404-0.4,0.886-0.547,1.443c0.586-0.403,1.174-0.604,1.764-0.604
			c0.566,0,1.057,0.228,1.472,0.684s0.622,1.042,0.622,1.758c0,0.691-0.209,1.322-0.629,1.893c-0.504,0.691-1.172,1.037-2.002,1.037
			c-0.565,0-1.045-0.188-1.439-0.562c-0.773-0.729-1.16-1.673-1.16-2.832c0-0.74,0.148-1.444,0.445-2.112
			c0.297-0.667,0.722-1.259,1.272-1.775c0.552-0.517,1.08-0.865,1.584-1.044c0.505-0.179,0.975-0.269,1.41-0.269H39.906z
			 M36.109,57.864C36.036,58.414,36,58.857,36,59.195c0,0.391,0.071,0.814,0.216,1.272c0.145,0.457,0.359,0.82,0.645,1.089
			c0.207,0.191,0.46,0.287,0.757,0.287c0.354,0,0.67-0.167,0.949-0.5c0.278-0.334,0.418-0.811,0.418-1.429
			c0-0.696-0.139-1.298-0.415-1.807c-0.277-0.509-0.67-0.763-1.179-0.763c-0.154,0-0.32,0.032-0.497,0.098
			C36.717,57.508,36.455,57.648,36.109,57.864z"/>
		<path style="fill:#0066FF;" d="M61.682,58.987v0.866h-1.11v2.186h-1.007v-2.186h-3.504v-0.781l3.839-5.48h0.672v5.396H61.682z
			 M59.564,58.987V54.88l-2.906,4.107H59.564z"/>
	</g>
	<g>
		<path style="fill:#0066FF;" d="M53.793,12.015h1.422l1.501,2.301l1.521-2.301l1.336,0.031l-2.203,3.156l2.301,3.351h-1.403
			l-1.624-2.454l-1.574,2.454h-1.392l2.301-3.351L53.793,12.015z"/>
	</g>
	<g>
		<path style="fill:#0066FF;" d="M8.431,45.844h1.422l1.501,2.301l1.52-2.301l1.336,0.031l-2.203,3.155l2.301,3.351h-1.403
			l-1.624-2.453l-1.574,2.453H8.315l2.301-3.351L8.431,45.844z"/>
	</g>
	<g>
		<path style="fill:#0066FF;" d="M46.707,12.144h0.599v2.917h2.899v0.592h-2.899v2.899h-0.599v-2.899h-2.911v-0.592h2.911V12.144z"
			/>
	</g>
	<g>
		<path style="fill:#0066FF;" d="M17.311,14.369h6.409v0.592h-6.409V14.369z M17.311,16.646h6.409v0.604h-6.409V16.646z"/>
	</g>
	<g>
		<path style="fill:#0066FF;" d="M17.311,47.748h6.409v0.592h-6.409V47.748z M17.311,50.025h6.409v0.604h-6.409V50.025z"/>
		<path style="fill:#0066FF;" d="M44.722,47.748h6.409v0.592h-6.409V47.748z M44.722,50.025h6.409v0.604h-6.409V50.025z"/>
	</g>
</g>
<g id="theGroup">
</g>
</svg>
