<?xml version="1.0" encoding="iso-8859-1"?>
<!-- Generator: Adobe Illustrator 16.0.0, SVG Export Plug-In . SVG Version: 6.00 Build 0)  -->
<!DOCTYPE svg PUBLIC "-//W3C//DTD SVG 1.1//EN" "http://www.w3.org/Graphics/SVG/1.1/DTD/svg11.dtd">
<svg version="1.1" id="Lager_1" xmlns="http://www.w3.org/2000/svg" xmlns:xlink="http://www.w3.org/1999/xlink" x="0px" y="0px"
	 width="157.049px" height="69.553px" viewBox="0 0 157.049 69.553" style="enable-background:new 0 0 157.049 69.553;"
	 xml:space="preserve">
<g>
	
		<line style="fill:none;stroke:#0066FF;stroke-width:0.5;stroke-linecap:square;stroke-miterlimit:10;" x1="10.634" y1="52.742" x2="52.275" y2="52.742"/>
	<g>
		<path style="fill:#0066FF;" d="M2.601,6.512v2.411c0,0.521,0.057,0.844,0.171,0.971c0.155,0.179,0.389,0.269,0.702,0.269h0.317
			v0.226H0.245v-0.226h0.311c0.35,0,0.601-0.114,0.751-0.342c0.082-0.126,0.122-0.425,0.122-0.897V3.577
			c0-0.521-0.055-0.844-0.165-0.971C1.106,2.427,0.87,2.337,0.556,2.337H0.245V2.112h3.034c0.74,0,1.324,0.076,1.751,0.229
			c0.427,0.152,0.788,0.41,1.081,0.772S6.55,3.904,6.55,4.401c0,0.675-0.223,1.225-0.668,1.647C5.436,6.472,4.807,6.683,3.993,6.683
			c-0.199,0-0.415-0.014-0.647-0.042S2.866,6.569,2.601,6.512z M2.601,6.165c0.216,0.041,0.407,0.071,0.574,0.092
			c0.167,0.02,0.309,0.03,0.427,0.03c0.423,0,0.788-0.164,1.096-0.491c0.307-0.328,0.461-0.752,0.461-1.272
			c0-0.358-0.073-0.691-0.22-0.998s-0.354-0.537-0.623-0.69C4.047,2.683,3.743,2.606,3.401,2.606c-0.208,0-0.474,0.039-0.8,0.116
			V6.165z"/>
		<path style="fill:#0066FF;" d="M8.395,6.903c-0.004,0.83,0.197,1.481,0.604,1.953c0.407,0.472,0.885,0.708,1.435,0.708
			c0.366,0,0.685-0.101,0.955-0.302c0.271-0.202,0.498-0.546,0.681-1.035l0.189,0.122c-0.086,0.558-0.334,1.065-0.745,1.523
			c-0.411,0.458-0.925,0.687-1.544,0.687c-0.671,0-1.246-0.261-1.724-0.784C7.767,9.252,7.528,8.549,7.528,7.666
			c0-0.956,0.245-1.702,0.735-2.237S9.37,4.626,10.11,4.626c0.626,0,1.141,0.207,1.544,0.62s0.604,0.965,0.604,1.657H8.395z
			 M8.395,6.549h2.588c-0.021-0.358-0.063-0.61-0.128-0.757c-0.102-0.228-0.253-0.407-0.455-0.537
			C10.199,5.125,9.988,5.06,9.769,5.06c-0.338,0-0.64,0.131-0.907,0.394C8.595,5.716,8.44,6.081,8.395,6.549z"/>
		<path style="fill:#0066FF;" d="M14.564,4.632V5.89c0.468-0.838,0.948-1.258,1.44-1.258c0.224,0,0.409,0.068,0.556,0.205
			c0.146,0.137,0.22,0.294,0.22,0.473c0,0.159-0.053,0.293-0.159,0.403c-0.105,0.11-0.231,0.165-0.378,0.165
			c-0.143,0-0.302-0.07-0.479-0.21c-0.177-0.14-0.308-0.21-0.394-0.21c-0.073,0-0.152,0.041-0.238,0.122
			c-0.183,0.167-0.372,0.441-0.567,0.824v2.679c0,0.309,0.039,0.543,0.116,0.702c0.053,0.11,0.146,0.202,0.28,0.275
			c0.135,0.073,0.328,0.11,0.58,0.11v0.22h-2.862v-0.22c0.285,0,0.496-0.045,0.635-0.134c0.102-0.065,0.173-0.169,0.213-0.311
			c0.021-0.069,0.031-0.267,0.031-0.592V6.964c0-0.651-0.014-1.039-0.04-1.163c-0.026-0.124-0.075-0.214-0.146-0.271
			s-0.16-0.085-0.266-0.085c-0.126,0-0.269,0.031-0.427,0.091l-0.062-0.22l1.691-0.684H14.564z"/>
		<path style="fill:#0066FF;" d="M20.654,4.632v1.904h-0.201c-0.155-0.598-0.354-1.005-0.595-1.221
			c-0.242-0.215-0.55-0.323-0.925-0.323c-0.285,0-0.515,0.075-0.69,0.226c-0.175,0.151-0.262,0.317-0.262,0.501
			c0,0.228,0.065,0.423,0.195,0.586c0.126,0.167,0.382,0.344,0.769,0.531l0.891,0.433c0.826,0.403,1.239,0.934,1.239,1.593
			c0,0.509-0.192,0.918-0.577,1.23c-0.384,0.311-0.815,0.467-1.291,0.467c-0.342,0-0.732-0.061-1.172-0.183
			c-0.135-0.041-0.244-0.061-0.33-0.061c-0.093,0-0.167,0.053-0.22,0.159h-0.201V8.478h0.201c0.114,0.569,0.332,0.999,0.653,1.288
			s0.682,0.433,1.08,0.433c0.281,0,0.51-0.082,0.687-0.247c0.177-0.165,0.265-0.363,0.265-0.595c0-0.281-0.099-0.517-0.296-0.708
			c-0.197-0.191-0.591-0.434-1.181-0.727c-0.59-0.293-0.977-0.558-1.16-0.793c-0.183-0.232-0.274-0.525-0.274-0.879
			c0-0.46,0.158-0.844,0.473-1.154c0.315-0.309,0.723-0.464,1.224-0.464c0.22,0,0.486,0.047,0.799,0.141
			c0.208,0.061,0.346,0.092,0.415,0.092c0.065,0,0.116-0.015,0.153-0.043s0.08-0.092,0.128-0.189H20.654z"/>
		<path style="fill:#0066FF;" d="M24.652,4.632c0.846,0,1.526,0.322,2.039,0.965c0.436,0.549,0.653,1.18,0.653,1.892
			c0,0.501-0.12,1.007-0.36,1.52s-0.571,0.899-0.992,1.16c-0.421,0.26-0.89,0.391-1.407,0.391c-0.842,0-1.511-0.336-2.008-1.007
			c-0.419-0.566-0.629-1.201-0.629-1.904c0-0.513,0.127-1.022,0.382-1.529c0.254-0.506,0.589-0.881,1.004-1.123
			C23.749,4.754,24.188,4.632,24.652,4.632z M24.463,5.029c-0.215,0-0.432,0.064-0.65,0.192c-0.218,0.128-0.394,0.353-0.528,0.674
			s-0.201,0.734-0.201,1.239c0,0.813,0.162,1.516,0.485,2.105c0.324,0.59,0.75,0.885,1.279,0.885c0.395,0,0.72-0.163,0.977-0.488
			c0.256-0.325,0.385-0.885,0.385-1.678c0-0.993-0.214-1.774-0.641-2.344C25.279,5.225,24.911,5.029,24.463,5.029z"/>
		<path style="fill:#0066FF;" d="M29.798,5.817c0.655-0.79,1.279-1.185,1.874-1.185c0.305,0,0.568,0.077,0.788,0.229
			c0.22,0.153,0.395,0.404,0.524,0.754c0.09,0.244,0.135,0.619,0.135,1.123v2.386c0,0.354,0.028,0.594,0.085,0.721
			c0.045,0.102,0.117,0.181,0.217,0.238s0.284,0.085,0.553,0.085v0.22h-2.765v-0.22h0.116c0.261,0,0.443-0.04,0.546-0.119
			c0.104-0.079,0.176-0.196,0.217-0.351c0.016-0.062,0.024-0.252,0.024-0.574V6.836c0-0.509-0.066-0.878-0.198-1.108
			c-0.132-0.229-0.355-0.345-0.668-0.345c-0.484,0-0.966,0.265-1.446,0.793v2.948c0,0.379,0.022,0.613,0.067,0.702
			C29.922,9.945,30,10.031,30.1,10.086c0.1,0.055,0.302,0.083,0.607,0.083v0.22h-2.765v-0.22h0.122c0.285,0,0.477-0.072,0.577-0.217
			c0.1-0.144,0.149-0.42,0.149-0.827V7.049c0-0.671-0.015-1.08-0.046-1.227c-0.03-0.146-0.077-0.246-0.14-0.299
			c-0.063-0.053-0.147-0.08-0.253-0.08c-0.114,0-0.25,0.031-0.409,0.091l-0.092-0.22l1.685-0.684h0.263V5.817z"/>
		<path style="fill:#0066FF;" d="M37.586,9.583c-0.574,0.443-0.934,0.7-1.081,0.769c-0.22,0.102-0.454,0.153-0.702,0.153
			c-0.387,0-0.705-0.132-0.956-0.397c-0.25-0.265-0.375-0.612-0.375-1.043c0-0.273,0.062-0.509,0.184-0.708
			c0.167-0.277,0.457-0.537,0.87-0.781c0.413-0.244,1.1-0.542,2.06-0.892v-0.22c0-0.557-0.089-0.939-0.266-1.147
			c-0.177-0.207-0.435-0.311-0.772-0.311c-0.256,0-0.459,0.069-0.61,0.208c-0.154,0.138-0.231,0.297-0.231,0.476l0.012,0.354
			c0,0.187-0.048,0.332-0.143,0.434c-0.096,0.102-0.221,0.152-0.375,0.152c-0.15,0-0.274-0.053-0.369-0.159
			c-0.096-0.106-0.144-0.25-0.144-0.433c0-0.35,0.179-0.672,0.537-0.965s0.86-0.439,1.508-0.439c0.496,0,0.903,0.083,1.221,0.25
			c0.24,0.126,0.417,0.324,0.531,0.592c0.073,0.175,0.11,0.533,0.11,1.074v1.898c0,0.533,0.01,0.86,0.03,0.979
			c0.021,0.12,0.054,0.201,0.101,0.241c0.046,0.041,0.101,0.061,0.162,0.061c0.065,0,0.122-0.014,0.171-0.043
			c0.085-0.053,0.25-0.201,0.494-0.445v0.342c-0.456,0.61-0.891,0.916-1.306,0.916c-0.2,0-0.358-0.069-0.477-0.208
			C37.651,10.152,37.59,9.916,37.586,9.583z M37.586,9.186v-2.13c-0.615,0.244-1.011,0.417-1.19,0.519
			c-0.321,0.179-0.551,0.366-0.689,0.562c-0.139,0.195-0.208,0.409-0.208,0.641c0,0.293,0.088,0.536,0.263,0.729
			s0.376,0.29,0.604,0.29C36.674,9.796,37.081,9.593,37.586,9.186z"/>
		<path style="fill:#0066FF;" d="M41.814,1.709v7.416c0,0.35,0.025,0.582,0.076,0.696c0.051,0.114,0.129,0.2,0.235,0.259
			s0.303,0.088,0.592,0.088v0.22h-2.741v-0.22c0.256,0,0.431-0.026,0.525-0.079c0.094-0.053,0.167-0.141,0.22-0.263
			S40.8,9.471,40.8,9.125V4.046c0-0.63-0.014-1.018-0.042-1.163c-0.028-0.144-0.074-0.243-0.137-0.296
			c-0.063-0.053-0.144-0.08-0.241-0.08c-0.106,0-0.24,0.033-0.403,0.098l-0.104-0.213l1.667-0.684H41.814z"/>
		<path style="fill:#0066FF;" d="M44.837,2.96v1.837h1.306v0.427h-1.306V8.85c0,0.362,0.052,0.606,0.156,0.732
			c0.104,0.126,0.237,0.189,0.399,0.189c0.135,0,0.265-0.042,0.391-0.125c0.126-0.083,0.224-0.207,0.293-0.369h0.238
			c-0.143,0.399-0.344,0.699-0.604,0.9c-0.26,0.201-0.529,0.302-0.806,0.302c-0.187,0-0.37-0.052-0.549-0.156
			c-0.179-0.104-0.312-0.252-0.397-0.446c-0.085-0.193-0.128-0.491-0.128-0.894v-3.76h-0.885V5.023
			c0.224-0.089,0.453-0.241,0.687-0.455c0.234-0.213,0.442-0.467,0.626-0.76c0.093-0.155,0.224-0.438,0.391-0.848H44.837z"/>
		<path style="fill:#0066FF;" d="M49.892,9.583c-0.574,0.443-0.934,0.7-1.081,0.769c-0.22,0.102-0.454,0.153-0.702,0.153
			c-0.387,0-0.705-0.132-0.956-0.397c-0.25-0.265-0.375-0.612-0.375-1.043c0-0.273,0.062-0.509,0.184-0.708
			c0.167-0.277,0.457-0.537,0.87-0.781c0.413-0.244,1.1-0.542,2.06-0.892v-0.22c0-0.557-0.089-0.939-0.266-1.147
			c-0.177-0.207-0.435-0.311-0.772-0.311c-0.256,0-0.459,0.069-0.61,0.208c-0.154,0.138-0.231,0.297-0.231,0.476l0.012,0.354
			c0,0.187-0.048,0.332-0.143,0.434c-0.096,0.102-0.221,0.152-0.375,0.152c-0.15,0-0.274-0.053-0.369-0.159
			c-0.096-0.106-0.144-0.25-0.144-0.433c0-0.35,0.179-0.672,0.537-0.965s0.86-0.439,1.508-0.439c0.496,0,0.903,0.083,1.221,0.25
			c0.24,0.126,0.417,0.324,0.531,0.592c0.073,0.175,0.11,0.533,0.11,1.074v1.898c0,0.533,0.01,0.86,0.03,0.979
			c0.021,0.12,0.054,0.201,0.101,0.241c0.046,0.041,0.101,0.061,0.162,0.061c0.065,0,0.122-0.014,0.171-0.043
			c0.085-0.053,0.25-0.201,0.494-0.445v0.342c-0.456,0.61-0.891,0.916-1.306,0.916c-0.2,0-0.358-0.069-0.477-0.208
			C49.957,10.152,49.896,9.916,49.892,9.583z M48.048,2.228c0.188,0,0.345,0.065,0.473,0.195c0.128,0.13,0.192,0.287,0.192,0.47
			s-0.065,0.339-0.195,0.467c-0.13,0.128-0.285,0.192-0.464,0.192c-0.183,0-0.34-0.064-0.47-0.192
			c-0.13-0.128-0.195-0.284-0.195-0.467s0.064-0.34,0.192-0.47C47.71,2.293,47.866,2.228,48.048,2.228z M49.892,9.186v-2.13
			c-0.615,0.244-1.011,0.417-1.19,0.519c-0.321,0.179-0.551,0.366-0.689,0.562c-0.139,0.195-0.208,0.409-0.208,0.641
			c0,0.293,0.088,0.536,0.263,0.729s0.376,0.29,0.604,0.29C48.98,9.796,49.387,9.593,49.892,9.186z M50.203,2.228
			c0.183,0,0.339,0.065,0.467,0.195c0.128,0.13,0.192,0.287,0.192,0.47S50.798,3.232,50.67,3.36
			c-0.128,0.128-0.284,0.192-0.467,0.192s-0.34-0.064-0.47-0.192c-0.13-0.128-0.195-0.284-0.195-0.467s0.065-0.34,0.195-0.47
			C49.863,2.293,50.02,2.228,50.203,2.228z"/>
		<path style="fill:#0066FF;" d="M53.821,2.96v1.837h1.306v0.427h-1.306V8.85c0,0.362,0.052,0.606,0.156,0.732
			c0.104,0.126,0.237,0.189,0.399,0.189c0.135,0,0.265-0.042,0.391-0.125c0.126-0.083,0.224-0.207,0.293-0.369h0.238
			c-0.143,0.399-0.344,0.699-0.604,0.9c-0.26,0.201-0.529,0.302-0.806,0.302c-0.187,0-0.37-0.052-0.549-0.156
			c-0.179-0.104-0.312-0.252-0.397-0.446c-0.085-0.193-0.128-0.491-0.128-0.894v-3.76h-0.885V5.023
			c0.224-0.089,0.453-0.241,0.687-0.455c0.234-0.213,0.442-0.467,0.626-0.76c0.093-0.155,0.224-0.438,0.391-0.848H53.821z"/>
		<path style="fill:#0066FF;" d="M57.349,1.709v4.089c0.452-0.497,0.81-0.815,1.074-0.955c0.265-0.141,0.529-0.211,0.794-0.211
			c0.317,0,0.59,0.088,0.817,0.263c0.228,0.175,0.397,0.45,0.507,0.824c0.077,0.26,0.116,0.736,0.116,1.428v1.978
			c0,0.354,0.028,0.596,0.085,0.727c0.041,0.098,0.11,0.175,0.208,0.232s0.276,0.085,0.537,0.085v0.22h-2.747v-0.22h0.128
			c0.26,0,0.441-0.04,0.543-0.119c0.102-0.079,0.173-0.196,0.213-0.351c0.012-0.065,0.018-0.257,0.018-0.574V7.147
			c0-0.61-0.031-1.011-0.094-1.202c-0.063-0.191-0.164-0.334-0.302-0.43s-0.305-0.144-0.5-0.144c-0.199,0-0.407,0.053-0.623,0.159
			S57.65,5.849,57.349,6.17v2.954c0,0.383,0.021,0.621,0.064,0.714c0.042,0.094,0.122,0.172,0.238,0.235
			c0.116,0.063,0.316,0.095,0.601,0.095v0.22h-2.771v-0.22c0.248,0,0.443-0.039,0.586-0.116c0.081-0.041,0.146-0.118,0.195-0.231
			c0.049-0.114,0.073-0.346,0.073-0.696v-5.06c0-0.639-0.016-1.031-0.046-1.178c-0.031-0.146-0.078-0.247-0.141-0.299
			s-0.147-0.08-0.253-0.08c-0.086,0-0.224,0.033-0.415,0.098l-0.086-0.213l1.673-0.684H57.349z"/>
		<path style="fill:#0066FF;" d="M62.897,6.903c-0.004,0.83,0.197,1.481,0.604,1.953c0.407,0.472,0.885,0.708,1.435,0.708
			c0.366,0,0.685-0.101,0.955-0.302c0.271-0.202,0.498-0.546,0.681-1.035l0.189,0.122c-0.086,0.558-0.334,1.065-0.745,1.523
			c-0.411,0.458-0.925,0.687-1.544,0.687c-0.671,0-1.246-0.261-1.724-0.784c-0.479-0.523-0.717-1.226-0.717-2.109
			c0-0.956,0.245-1.702,0.735-2.237s1.106-0.803,1.847-0.803c0.626,0,1.141,0.207,1.544,0.62s0.604,0.965,0.604,1.657H62.897z
			 M62.897,6.549h2.588c-0.021-0.358-0.063-0.61-0.128-0.757c-0.102-0.228-0.253-0.407-0.455-0.537
			c-0.201-0.13-0.412-0.195-0.631-0.195c-0.338,0-0.64,0.131-0.907,0.394C63.098,5.716,62.942,6.081,62.897,6.549z"/>
		<path style="fill:#0066FF;" d="M69.054,2.96v1.837h1.306v0.427h-1.306V8.85c0,0.362,0.052,0.606,0.156,0.732
			c0.104,0.126,0.237,0.189,0.399,0.189c0.135,0,0.265-0.042,0.391-0.125c0.126-0.083,0.224-0.207,0.293-0.369h0.238
			c-0.143,0.399-0.344,0.699-0.604,0.9c-0.26,0.201-0.529,0.302-0.806,0.302c-0.187,0-0.37-0.052-0.549-0.156
			c-0.179-0.104-0.312-0.252-0.397-0.446c-0.085-0.193-0.128-0.491-0.128-0.894v-3.76h-0.885V5.023
			c0.224-0.089,0.453-0.241,0.687-0.455c0.234-0.213,0.442-0.467,0.626-0.76c0.093-0.155,0.224-0.438,0.391-0.848H69.054z"/>
		<path style="fill:#0066FF;" d="M71.881,6.903c-0.004,0.83,0.197,1.481,0.604,1.953c0.407,0.472,0.885,0.708,1.435,0.708
			c0.366,0,0.685-0.101,0.955-0.302c0.271-0.202,0.498-0.546,0.681-1.035l0.189,0.122C75.659,8.907,75.411,9.415,75,9.873
			c-0.411,0.458-0.925,0.687-1.544,0.687c-0.671,0-1.246-0.261-1.724-0.784c-0.479-0.523-0.717-1.226-0.717-2.109
			c0-0.956,0.245-1.702,0.735-2.237s1.106-0.803,1.847-0.803c0.626,0,1.141,0.207,1.544,0.62s0.604,0.965,0.604,1.657H71.881z
			 M71.881,6.549h2.588c-0.021-0.358-0.063-0.61-0.128-0.757c-0.102-0.228-0.253-0.407-0.455-0.537
			c-0.201-0.13-0.412-0.195-0.631-0.195c-0.338,0-0.64,0.131-0.907,0.394C72.082,5.716,71.926,6.081,71.881,6.549z"/>
		<path style="fill:#0066FF;" d="M78.044,5.817c0.655-0.79,1.279-1.185,1.873-1.185c0.306,0,0.568,0.077,0.788,0.229
			c0.22,0.153,0.395,0.404,0.524,0.754c0.09,0.244,0.135,0.619,0.135,1.123v2.386c0,0.354,0.028,0.594,0.085,0.721
			c0.045,0.102,0.117,0.181,0.217,0.238s0.284,0.085,0.553,0.085v0.22h-2.765v-0.22h0.116c0.261,0,0.443-0.04,0.547-0.119
			c0.104-0.079,0.176-0.196,0.216-0.351c0.017-0.062,0.025-0.252,0.025-0.574V6.836c0-0.509-0.066-0.878-0.199-1.108
			c-0.132-0.229-0.354-0.345-0.668-0.345c-0.484,0-0.966,0.265-1.446,0.793v2.948c0,0.379,0.022,0.613,0.067,0.702
			c0.057,0.118,0.135,0.205,0.235,0.259c0.1,0.055,0.302,0.083,0.607,0.083v0.22h-2.765v-0.22h0.122
			c0.285,0,0.477-0.072,0.577-0.217c0.1-0.144,0.149-0.42,0.149-0.827V7.049c0-0.671-0.015-1.08-0.046-1.227
			c-0.03-0.146-0.077-0.246-0.14-0.299c-0.063-0.053-0.147-0.08-0.253-0.08c-0.114,0-0.25,0.031-0.409,0.091l-0.092-0.22
			l1.685-0.684h0.263V5.817z"/>
		<path style="fill:#0066FF;" d="M88.958,9.583c-0.574,0.443-0.934,0.7-1.08,0.769c-0.221,0.102-0.454,0.153-0.702,0.153
			c-0.387,0-0.705-0.132-0.955-0.397c-0.251-0.265-0.376-0.612-0.376-1.043c0-0.273,0.062-0.509,0.184-0.708
			c0.167-0.277,0.456-0.537,0.869-0.781s1.1-0.542,2.061-0.892v-0.22c0-0.557-0.089-0.939-0.266-1.147
			c-0.177-0.207-0.435-0.311-0.772-0.311c-0.256,0-0.46,0.069-0.61,0.208c-0.154,0.138-0.231,0.297-0.231,0.476l0.012,0.354
			c0,0.187-0.048,0.332-0.144,0.434c-0.096,0.102-0.221,0.152-0.375,0.152c-0.15,0-0.273-0.053-0.369-0.159s-0.144-0.25-0.144-0.433
			c0-0.35,0.179-0.672,0.537-0.965s0.86-0.439,1.508-0.439c0.496,0,0.903,0.083,1.221,0.25c0.24,0.126,0.417,0.324,0.53,0.592
			c0.074,0.175,0.11,0.533,0.11,1.074v1.898c0,0.533,0.01,0.86,0.03,0.979c0.021,0.12,0.054,0.201,0.101,0.241
			s0.101,0.061,0.162,0.061c0.065,0,0.122-0.014,0.171-0.043c0.086-0.053,0.25-0.201,0.494-0.445v0.342
			c-0.455,0.61-0.891,0.916-1.306,0.916c-0.199,0-0.358-0.069-0.477-0.208S88.961,9.916,88.958,9.583z M88.958,9.186v-2.13
			c-0.614,0.244-1.012,0.417-1.19,0.519c-0.321,0.179-0.552,0.366-0.689,0.562c-0.139,0.195-0.208,0.409-0.208,0.641
			c0,0.293,0.088,0.536,0.263,0.729s0.376,0.29,0.604,0.29C88.045,9.796,88.453,9.593,88.958,9.186z M88.194,1.685
			c0.326,0,0.603,0.114,0.83,0.342c0.229,0.228,0.342,0.502,0.342,0.824c0,0.326-0.113,0.603-0.342,0.83
			c-0.228,0.228-0.504,0.342-0.83,0.342c-0.321,0-0.596-0.114-0.823-0.342c-0.229-0.228-0.342-0.504-0.342-0.83
			c0-0.321,0.112-0.596,0.339-0.824C87.593,1.798,87.869,1.685,88.194,1.685z M88.194,2.106c-0.207,0-0.383,0.072-0.527,0.216
			C87.522,2.467,87.45,2.643,87.45,2.85c0,0.204,0.072,0.379,0.217,0.525s0.32,0.22,0.527,0.22c0.208,0,0.384-0.073,0.528-0.22
			s0.217-0.322,0.217-0.525c0-0.207-0.072-0.383-0.217-0.528C88.578,2.178,88.402,2.106,88.194,2.106z"/>
		<path style="fill:#0066FF;" d="M92.898,4.632V5.89c0.468-0.838,0.948-1.258,1.44-1.258c0.224,0,0.409,0.068,0.556,0.205
			c0.146,0.137,0.22,0.294,0.22,0.473c0,0.159-0.053,0.293-0.159,0.403c-0.105,0.11-0.231,0.165-0.378,0.165
			c-0.143,0-0.303-0.07-0.479-0.21c-0.177-0.14-0.308-0.21-0.394-0.21c-0.073,0-0.152,0.041-0.238,0.122
			c-0.183,0.167-0.372,0.441-0.567,0.824v2.679c0,0.309,0.039,0.543,0.116,0.702c0.053,0.11,0.146,0.202,0.28,0.275
			c0.135,0.073,0.328,0.11,0.58,0.11v0.22h-2.862v-0.22c0.284,0,0.496-0.045,0.635-0.134c0.102-0.065,0.173-0.169,0.213-0.311
			c0.021-0.069,0.031-0.267,0.031-0.592V6.964c0-0.651-0.014-1.039-0.04-1.163c-0.026-0.124-0.075-0.214-0.146-0.271
			s-0.159-0.085-0.266-0.085c-0.126,0-0.269,0.031-0.427,0.091l-0.062-0.22l1.69-0.684H92.898z"/>
		<path style="fill:#0066FF;" d="M99.574,2.923l2.014-0.982h0.202v6.988c0,0.464,0.019,0.753,0.058,0.867
			c0.039,0.114,0.119,0.201,0.241,0.262s0.37,0.096,0.745,0.104v0.226H99.72v-0.226c0.391-0.008,0.643-0.042,0.757-0.101
			c0.114-0.059,0.193-0.138,0.238-0.238s0.067-0.398,0.067-0.895V4.461c0-0.602-0.021-0.988-0.062-1.159
			c-0.028-0.13-0.08-0.226-0.155-0.287c-0.076-0.061-0.166-0.092-0.271-0.092c-0.151,0-0.36,0.063-0.629,0.189L99.574,2.923z"/>
		<path style="fill:#0066FF;" d="M105.018,10.559v-0.226c0.529-0.008,1.021-0.131,1.478-0.37c0.455-0.238,0.896-0.654,1.321-1.248
			c0.425-0.594,0.721-1.247,0.888-1.959c-0.639,0.411-1.217,0.617-1.733,0.617c-0.582,0-1.08-0.225-1.495-0.674
			s-0.623-1.047-0.623-1.792c0-0.724,0.208-1.369,0.623-1.935c0.5-0.688,1.153-1.031,1.959-1.031c0.68,0,1.262,0.281,1.746,0.842
			c0.594,0.696,0.891,1.554,0.891,2.576c0,0.919-0.226,1.777-0.678,2.573c-0.451,0.795-1.08,1.456-1.886,1.98
			c-0.655,0.431-1.369,0.647-2.143,0.647H105.018z M108.802,6.305c0.073-0.529,0.109-0.952,0.109-1.27
			c0-0.395-0.066-0.821-0.201-1.279c-0.134-0.458-0.324-0.809-0.57-1.053s-0.526-0.366-0.84-0.366c-0.361,0-0.679,0.163-0.951,0.488
			c-0.273,0.326-0.409,0.81-0.409,1.453c0,0.858,0.181,1.53,0.543,2.014c0.265,0.35,0.59,0.525,0.977,0.525
			c0.188,0,0.409-0.045,0.665-0.135C108.381,6.594,108.607,6.468,108.802,6.305z"/>
		<path style="fill:#0066FF;" d="M111.268,10.559v-0.226c0.529-0.008,1.021-0.131,1.478-0.37c0.455-0.238,0.896-0.654,1.321-1.248
			c0.425-0.594,0.721-1.247,0.888-1.959c-0.639,0.411-1.217,0.617-1.733,0.617c-0.582,0-1.08-0.225-1.495-0.674
			s-0.623-1.047-0.623-1.792c0-0.724,0.208-1.369,0.623-1.935c0.5-0.688,1.153-1.031,1.959-1.031c0.68,0,1.262,0.281,1.746,0.842
			c0.594,0.696,0.891,1.554,0.891,2.576c0,0.919-0.226,1.777-0.678,2.573c-0.451,0.795-1.08,1.456-1.886,1.98
			c-0.655,0.431-1.369,0.647-2.143,0.647H111.268z M115.052,6.305c0.073-0.529,0.109-0.952,0.109-1.27
			c0-0.395-0.066-0.821-0.201-1.279c-0.134-0.458-0.324-0.809-0.57-1.053s-0.526-0.366-0.84-0.366c-0.361,0-0.679,0.163-0.951,0.488
			c-0.273,0.326-0.409,0.81-0.409,1.453c0,0.858,0.181,1.53,0.543,2.014c0.265,0.35,0.59,0.525,0.977,0.525
			c0.188,0,0.409-0.045,0.665-0.135C114.631,6.594,114.857,6.468,115.052,6.305z"/>
		<path style="fill:#0066FF;" d="M117.31,6.299c0-0.944,0.143-1.757,0.428-2.438c0.285-0.681,0.663-1.189,1.135-1.523
			c0.367-0.264,0.745-0.396,1.136-0.396c0.635,0,1.204,0.323,1.709,0.971c0.631,0.801,0.946,1.888,0.946,3.259
			c0,0.96-0.139,1.776-0.415,2.448c-0.277,0.671-0.63,1.159-1.06,1.462c-0.429,0.303-0.843,0.455-1.242,0.455
			c-0.789,0-1.446-0.466-1.971-1.397C117.533,8.352,117.31,7.406,117.31,6.299z M118.507,6.452c0,1.139,0.14,2.069,0.421,2.789
			c0.231,0.606,0.577,0.909,1.037,0.909c0.22,0,0.448-0.098,0.684-0.296c0.236-0.197,0.415-0.528,0.537-0.992
			c0.188-0.7,0.281-1.687,0.281-2.96c0-0.944-0.098-1.731-0.293-2.362c-0.146-0.468-0.336-0.799-0.567-0.995
			c-0.167-0.135-0.369-0.202-0.604-0.202c-0.277,0-0.523,0.124-0.739,0.373c-0.293,0.337-0.492,0.869-0.598,1.593
			S118.507,5.748,118.507,6.452z"/>
		<path style="fill:#0066FF;" d="M128.553,4.632v4.492c0,0.35,0.025,0.583,0.076,0.699c0.051,0.116,0.126,0.202,0.226,0.259
			s0.282,0.085,0.547,0.085v0.22h-2.717v-0.22c0.273,0,0.456-0.026,0.55-0.079c0.094-0.053,0.168-0.141,0.223-0.263
			s0.083-0.356,0.083-0.702V6.97c0-0.606-0.019-0.999-0.056-1.178c-0.028-0.13-0.073-0.221-0.134-0.272
			c-0.062-0.051-0.145-0.076-0.25-0.076c-0.114,0-0.253,0.031-0.416,0.091l-0.085-0.22l1.685-0.684H128.553z M128.046,1.709
			c0.171,0,0.316,0.06,0.437,0.18s0.181,0.266,0.181,0.437s-0.061,0.317-0.181,0.439s-0.266,0.183-0.437,0.183
			s-0.317-0.061-0.439-0.183s-0.183-0.269-0.183-0.439s0.06-0.316,0.18-0.437S127.872,1.709,128.046,1.709z"/>
		<path style="fill:#0066FF;" d="M136.428,9.583c-0.574,0.443-0.934,0.7-1.08,0.769c-0.221,0.102-0.454,0.153-0.702,0.153
			c-0.387,0-0.705-0.132-0.955-0.397c-0.251-0.265-0.376-0.612-0.376-1.043c0-0.273,0.062-0.509,0.184-0.708
			c0.167-0.277,0.456-0.537,0.869-0.781s1.1-0.542,2.061-0.892v-0.22c0-0.557-0.089-0.939-0.266-1.147
			c-0.177-0.207-0.435-0.311-0.772-0.311c-0.256,0-0.46,0.069-0.61,0.208c-0.154,0.138-0.231,0.297-0.231,0.476l0.012,0.354
			c0,0.187-0.048,0.332-0.144,0.434c-0.096,0.102-0.221,0.152-0.375,0.152c-0.15,0-0.273-0.053-0.369-0.159s-0.144-0.25-0.144-0.433
			c0-0.35,0.179-0.672,0.537-0.965s0.86-0.439,1.508-0.439c0.496,0,0.903,0.083,1.221,0.25c0.24,0.126,0.417,0.324,0.53,0.592
			c0.074,0.175,0.11,0.533,0.11,1.074v1.898c0,0.533,0.01,0.86,0.03,0.979c0.021,0.12,0.054,0.201,0.101,0.241
			s0.101,0.061,0.162,0.061c0.065,0,0.122-0.014,0.171-0.043c0.086-0.053,0.25-0.201,0.494-0.445v0.342
			c-0.455,0.61-0.891,0.916-1.306,0.916c-0.199,0-0.358-0.069-0.477-0.208S136.432,9.916,136.428,9.583z M136.428,9.186v-2.13
			c-0.614,0.244-1.012,0.417-1.19,0.519c-0.321,0.179-0.552,0.366-0.689,0.562c-0.139,0.195-0.208,0.409-0.208,0.641
			c0,0.293,0.088,0.536,0.263,0.729s0.376,0.29,0.604,0.29C135.516,9.796,135.923,9.593,136.428,9.186z"/>
		<path style="fill:#0066FF;" d="M140.364,5.817c0.655-0.79,1.279-1.185,1.874-1.185c0.305,0,0.567,0.077,0.787,0.229
			c0.22,0.153,0.395,0.404,0.524,0.754c0.09,0.244,0.135,0.619,0.135,1.123v2.386c0,0.354,0.028,0.594,0.085,0.721
			c0.045,0.102,0.117,0.181,0.217,0.238s0.284,0.085,0.553,0.085v0.22h-2.766v-0.22h0.116c0.261,0,0.442-0.04,0.547-0.119
			c0.104-0.079,0.176-0.196,0.216-0.351c0.017-0.062,0.025-0.252,0.025-0.574V6.836c0-0.509-0.066-0.878-0.199-1.108
			c-0.132-0.229-0.354-0.345-0.668-0.345c-0.484,0-0.967,0.265-1.446,0.793v2.948c0,0.379,0.022,0.613,0.067,0.702
			c0.057,0.118,0.135,0.205,0.234,0.259c0.1,0.055,0.303,0.083,0.607,0.083v0.22h-2.765v-0.22h0.122
			c0.284,0,0.477-0.072,0.576-0.217c0.1-0.144,0.15-0.42,0.15-0.827V7.049c0-0.671-0.016-1.08-0.046-1.227
			c-0.031-0.146-0.078-0.246-0.141-0.299c-0.063-0.053-0.147-0.08-0.253-0.08c-0.114,0-0.251,0.031-0.409,0.091l-0.092-0.22
			l1.685-0.684h0.263V5.817z"/>
		<path style="fill:#0066FF;" d="M146.607,2.96v1.837h1.307v0.427h-1.307V8.85c0,0.362,0.053,0.606,0.156,0.732
			s0.237,0.189,0.399,0.189c0.135,0,0.265-0.042,0.391-0.125c0.126-0.083,0.224-0.207,0.293-0.369h0.238
			c-0.143,0.399-0.344,0.699-0.604,0.9c-0.26,0.201-0.528,0.302-0.806,0.302c-0.187,0-0.37-0.052-0.549-0.156
			c-0.18-0.104-0.312-0.252-0.397-0.446c-0.085-0.193-0.128-0.491-0.128-0.894v-3.76h-0.885V5.023
			c0.224-0.089,0.452-0.241,0.687-0.455c0.234-0.213,0.442-0.467,0.626-0.76c0.094-0.155,0.224-0.438,0.391-0.848H146.607z"/>
		<path style="fill:#0066FF;" d="M151.662,9.583c-0.574,0.443-0.934,0.7-1.08,0.769c-0.221,0.102-0.454,0.153-0.702,0.153
			c-0.387,0-0.705-0.132-0.955-0.397c-0.251-0.265-0.376-0.612-0.376-1.043c0-0.273,0.062-0.509,0.184-0.708
			c0.167-0.277,0.456-0.537,0.869-0.781s1.1-0.542,2.061-0.892v-0.22c0-0.557-0.089-0.939-0.266-1.147
			c-0.177-0.207-0.435-0.311-0.772-0.311c-0.256,0-0.46,0.069-0.61,0.208c-0.154,0.138-0.231,0.297-0.231,0.476l0.012,0.354
			c0,0.187-0.048,0.332-0.144,0.434c-0.096,0.102-0.221,0.152-0.375,0.152c-0.15,0-0.273-0.053-0.369-0.159s-0.144-0.25-0.144-0.433
			c0-0.35,0.179-0.672,0.537-0.965s0.86-0.439,1.508-0.439c0.496,0,0.903,0.083,1.221,0.25c0.24,0.126,0.417,0.324,0.53,0.592
			c0.074,0.175,0.11,0.533,0.11,1.074v1.898c0,0.533,0.01,0.86,0.03,0.979c0.021,0.12,0.054,0.201,0.101,0.241
			s0.101,0.061,0.162,0.061c0.065,0,0.122-0.014,0.171-0.043c0.086-0.053,0.25-0.201,0.494-0.445v0.342
			c-0.455,0.61-0.891,0.916-1.306,0.916c-0.199,0-0.358-0.069-0.477-0.208S151.666,9.916,151.662,9.583z M151.662,9.186v-2.13
			c-0.614,0.244-1.012,0.417-1.19,0.519c-0.321,0.179-0.552,0.366-0.689,0.562c-0.139,0.195-0.208,0.409-0.208,0.641
			c0,0.293,0.088,0.536,0.263,0.729s0.376,0.29,0.604,0.29C150.75,9.796,151.157,9.593,151.662,9.186z"/>
		<path style="fill:#0066FF;" d="M155.89,1.709v7.416c0,0.35,0.025,0.582,0.076,0.696c0.051,0.114,0.129,0.2,0.235,0.259
			c0.105,0.059,0.303,0.088,0.592,0.088v0.22h-2.74v-0.22c0.256,0,0.431-0.026,0.524-0.079c0.094-0.053,0.167-0.141,0.22-0.263
			s0.079-0.356,0.079-0.702V4.046c0-0.63-0.014-1.018-0.042-1.163c-0.029-0.144-0.075-0.243-0.138-0.296
			c-0.063-0.053-0.144-0.08-0.241-0.08c-0.105,0-0.24,0.033-0.402,0.098l-0.104-0.213l1.667-0.684H155.89z"/>
	</g>
	<g>
		<path style="fill:#0066FF;" d="M1.96,24.512c0.541-0.753,1.125-1.129,1.751-1.129c0.574,0,1.074,0.246,1.501,0.736
			s0.641,1.161,0.641,2.011c0,0.993-0.329,1.792-0.988,2.398c-0.566,0.521-1.196,0.781-1.893,0.781
			c-0.325,0-0.656-0.059-0.992-0.177c-0.335-0.118-0.678-0.295-1.028-0.531v-5.792c0-0.635-0.015-1.025-0.046-1.172
			c-0.03-0.146-0.078-0.247-0.143-0.299c-0.065-0.053-0.146-0.08-0.244-0.08c-0.114,0-0.257,0.033-0.428,0.098l-0.085-0.213
			l1.678-0.684H1.96V24.512z M1.96,24.902v3.345c0.207,0.204,0.422,0.357,0.644,0.461c0.222,0.104,0.449,0.156,0.681,0.156
			c0.37,0,0.715-0.204,1.035-0.61c0.319-0.407,0.479-0.999,0.479-1.776c0-0.716-0.16-1.267-0.479-1.651
			C4,24.441,3.637,24.25,3.23,24.25c-0.216,0-0.432,0.055-0.647,0.165C2.42,24.496,2.212,24.658,1.96,24.902z"/>
		<path style="fill:#0066FF;" d="M9.846,28.333c-0.574,0.443-0.934,0.7-1.081,0.769c-0.22,0.102-0.454,0.153-0.702,0.153
			c-0.387,0-0.705-0.132-0.956-0.397c-0.25-0.265-0.375-0.612-0.375-1.043c0-0.273,0.062-0.509,0.184-0.708
			c0.167-0.277,0.457-0.537,0.87-0.781c0.413-0.244,1.1-0.542,2.06-0.892v-0.22c0-0.557-0.089-0.939-0.266-1.147
			c-0.177-0.207-0.435-0.311-0.772-0.311c-0.256,0-0.459,0.069-0.61,0.208c-0.154,0.138-0.231,0.297-0.231,0.476l0.012,0.354
			c0,0.187-0.048,0.332-0.143,0.434c-0.096,0.102-0.221,0.152-0.375,0.152c-0.15,0-0.274-0.053-0.369-0.159
			c-0.096-0.106-0.144-0.25-0.144-0.433c0-0.35,0.179-0.672,0.537-0.965s0.86-0.439,1.508-0.439c0.496,0,0.903,0.083,1.221,0.25
			c0.24,0.126,0.417,0.324,0.531,0.592c0.073,0.175,0.11,0.533,0.11,1.074v1.898c0,0.533,0.01,0.86,0.03,0.979
			c0.021,0.12,0.054,0.201,0.101,0.241c0.046,0.041,0.101,0.061,0.162,0.061c0.065,0,0.122-0.014,0.171-0.043
			c0.085-0.053,0.25-0.201,0.494-0.445v0.342c-0.456,0.61-0.891,0.916-1.306,0.916c-0.2,0-0.358-0.069-0.477-0.208
			C9.911,28.902,9.85,28.666,9.846,28.333z M9.846,27.936v-2.13c-0.615,0.244-1.011,0.417-1.19,0.519
			c-0.321,0.179-0.551,0.366-0.689,0.562c-0.139,0.195-0.208,0.409-0.208,0.641c0,0.293,0.088,0.536,0.263,0.729
			s0.376,0.29,0.604,0.29C8.935,28.546,9.341,28.343,9.846,27.936z"/>
		<path style="fill:#0066FF;" d="M13.787,23.382v1.258c0.468-0.838,0.948-1.258,1.44-1.258c0.224,0,0.409,0.068,0.556,0.205
			c0.146,0.137,0.22,0.294,0.22,0.473c0,0.159-0.053,0.293-0.159,0.403c-0.105,0.11-0.231,0.165-0.378,0.165
			c-0.143,0-0.302-0.07-0.479-0.21c-0.177-0.14-0.308-0.21-0.394-0.21c-0.073,0-0.152,0.041-0.238,0.122
			c-0.183,0.167-0.372,0.441-0.567,0.824v2.679c0,0.309,0.039,0.543,0.116,0.702c0.053,0.11,0.146,0.202,0.28,0.275
			c0.135,0.073,0.328,0.11,0.58,0.11v0.22h-2.862v-0.22c0.285,0,0.496-0.045,0.635-0.134c0.102-0.065,0.173-0.169,0.213-0.311
			c0.021-0.069,0.031-0.267,0.031-0.592v-2.167c0-0.651-0.014-1.039-0.04-1.163c-0.026-0.124-0.075-0.214-0.146-0.271
			s-0.16-0.085-0.266-0.085c-0.126,0-0.269,0.031-0.427,0.091l-0.062-0.22l1.691-0.684H13.787z"/>
		<path style="fill:#0066FF;" d="M17.894,24.567c0.655-0.79,1.279-1.185,1.874-1.185c0.305,0,0.568,0.077,0.788,0.229
			c0.22,0.153,0.395,0.404,0.524,0.754c0.09,0.244,0.135,0.619,0.135,1.123v2.386c0,0.354,0.028,0.594,0.085,0.721
			c0.045,0.102,0.117,0.181,0.217,0.238s0.284,0.085,0.553,0.085v0.22h-2.765v-0.22h0.116c0.261,0,0.443-0.04,0.546-0.119
			c0.104-0.079,0.176-0.196,0.217-0.351c0.016-0.062,0.024-0.252,0.024-0.574v-2.289c0-0.509-0.066-0.878-0.198-1.108
			c-0.132-0.229-0.355-0.345-0.668-0.345c-0.484,0-0.966,0.265-1.446,0.793v2.948c0,0.379,0.022,0.613,0.067,0.702
			c0.057,0.118,0.135,0.205,0.235,0.259c0.1,0.055,0.302,0.083,0.607,0.083v0.22h-2.765v-0.22h0.122
			c0.285,0,0.477-0.072,0.577-0.217c0.1-0.144,0.149-0.42,0.149-0.827v-2.075c0-0.671-0.015-1.08-0.046-1.227
			c-0.03-0.146-0.077-0.246-0.14-0.299c-0.063-0.053-0.147-0.08-0.253-0.08c-0.114,0-0.25,0.031-0.409,0.091l-0.092-0.22
			l1.685-0.684h0.263V24.567z"/>
		<path style="fill:#0066FF;" d="M25.236,24.103l1.721-0.696h0.232v1.307c0.289-0.493,0.579-0.837,0.87-1.035
			s0.597-0.296,0.919-0.296c0.562,0,1.029,0.22,1.403,0.659c0.46,0.537,0.69,1.237,0.69,2.1c0,0.965-0.277,1.762-0.83,2.393
			c-0.456,0.517-1.029,0.775-1.721,0.775c-0.301,0-0.562-0.043-0.781-0.128c-0.163-0.062-0.346-0.184-0.549-0.366v1.703
			c0,0.382,0.023,0.625,0.07,0.729c0.046,0.104,0.128,0.186,0.244,0.247c0.116,0.061,0.327,0.091,0.631,0.091v0.226h-2.93v-0.226
			h0.153c0.224,0.004,0.415-0.039,0.574-0.128c0.077-0.045,0.137-0.117,0.18-0.217c0.042-0.1,0.064-0.353,0.064-0.76v-5.286
			c0-0.362-0.016-0.592-0.049-0.69s-0.084-0.171-0.156-0.22s-0.167-0.073-0.29-0.073c-0.098,0-0.222,0.029-0.373,0.086
			L25.236,24.103z M27.189,25.073v2.087c0,0.452,0.018,0.749,0.055,0.891c0.057,0.236,0.196,0.443,0.418,0.623
			c0.222,0.179,0.501,0.269,0.839,0.269c0.407,0,0.737-0.159,0.989-0.476c0.329-0.415,0.494-0.999,0.494-1.751
			c0-0.854-0.187-1.512-0.562-1.972c-0.26-0.317-0.57-0.476-0.928-0.476c-0.195,0-0.389,0.049-0.58,0.146
			C27.769,24.487,27.527,24.707,27.189,25.073z"/>
		<path style="fill:#0066FF;" d="M32.829,25.653c-0.004,0.83,0.197,1.481,0.604,1.953c0.407,0.472,0.885,0.708,1.435,0.708
			c0.366,0,0.685-0.101,0.955-0.302c0.271-0.202,0.498-0.546,0.681-1.035l0.189,0.122c-0.086,0.558-0.334,1.065-0.745,1.523
			c-0.411,0.458-0.925,0.687-1.544,0.687c-0.671,0-1.246-0.261-1.724-0.784c-0.479-0.523-0.717-1.226-0.717-2.109
			c0-0.956,0.245-1.702,0.735-2.237s1.106-0.803,1.847-0.803c0.626,0,1.141,0.207,1.544,0.62s0.604,0.965,0.604,1.657H32.829z
			 M32.829,25.299h2.588c-0.021-0.358-0.063-0.61-0.128-0.757c-0.102-0.228-0.253-0.407-0.455-0.537
			c-0.201-0.13-0.412-0.195-0.631-0.195c-0.338,0-0.64,0.131-0.907,0.394C33.029,24.466,32.874,24.831,32.829,25.299z"/>
		<path style="fill:#0066FF;" d="M38.998,23.382v1.258c0.468-0.838,0.948-1.258,1.44-1.258c0.224,0,0.409,0.068,0.556,0.205
			c0.146,0.137,0.22,0.294,0.22,0.473c0,0.159-0.053,0.293-0.159,0.403c-0.105,0.11-0.231,0.165-0.378,0.165
			c-0.143,0-0.302-0.07-0.479-0.21c-0.177-0.14-0.308-0.21-0.394-0.21c-0.073,0-0.152,0.041-0.238,0.122
			c-0.183,0.167-0.372,0.441-0.567,0.824v2.679c0,0.309,0.039,0.543,0.116,0.702c0.053,0.11,0.146,0.202,0.28,0.275
			c0.135,0.073,0.328,0.11,0.58,0.11v0.22h-2.862v-0.22c0.285,0,0.496-0.045,0.635-0.134c0.102-0.065,0.173-0.169,0.213-0.311
			c0.021-0.069,0.031-0.267,0.031-0.592v-2.167c0-0.651-0.014-1.039-0.04-1.163c-0.026-0.124-0.075-0.214-0.146-0.271
			s-0.16-0.085-0.266-0.085c-0.126,0-0.269,0.031-0.427,0.091l-0.062-0.22l1.691-0.684H38.998z"/>
		<path style="fill:#0066FF;" d="M47.768,28.333c-0.574,0.443-0.934,0.7-1.081,0.769c-0.22,0.102-0.454,0.153-0.702,0.153
			c-0.387,0-0.705-0.132-0.956-0.397c-0.25-0.265-0.375-0.612-0.375-1.043c0-0.273,0.062-0.509,0.184-0.708
			c0.167-0.277,0.457-0.537,0.87-0.781c0.413-0.244,1.1-0.542,2.06-0.892v-0.22c0-0.557-0.089-0.939-0.266-1.147
			c-0.177-0.207-0.435-0.311-0.772-0.311c-0.256,0-0.459,0.069-0.61,0.208c-0.154,0.138-0.231,0.297-0.231,0.476l0.012,0.354
			c0,0.187-0.048,0.332-0.143,0.434c-0.096,0.102-0.221,0.152-0.375,0.152c-0.15,0-0.274-0.053-0.369-0.159
			c-0.096-0.106-0.144-0.25-0.144-0.433c0-0.35,0.179-0.672,0.537-0.965s0.86-0.439,1.508-0.439c0.496,0,0.903,0.083,1.221,0.25
			c0.24,0.126,0.417,0.324,0.531,0.592c0.073,0.175,0.11,0.533,0.11,1.074v1.898c0,0.533,0.01,0.86,0.03,0.979
			c0.021,0.12,0.054,0.201,0.101,0.241c0.046,0.041,0.101,0.061,0.162,0.061c0.065,0,0.122-0.014,0.171-0.043
			c0.085-0.053,0.25-0.201,0.494-0.445v0.342c-0.456,0.61-0.891,0.916-1.306,0.916c-0.2,0-0.358-0.069-0.477-0.208
			C47.833,28.902,47.771,28.666,47.768,28.333z M47.768,27.936v-2.13c-0.615,0.244-1.011,0.417-1.19,0.519
			c-0.321,0.179-0.551,0.366-0.689,0.562c-0.139,0.195-0.208,0.409-0.208,0.641c0,0.293,0.088,0.536,0.263,0.729
			s0.376,0.29,0.604,0.29C46.856,28.546,47.263,28.343,47.768,27.936z"/>
		<path style="fill:#0066FF;" d="M51.703,24.567c0.655-0.79,1.279-1.185,1.874-1.185c0.305,0,0.568,0.077,0.788,0.229
			c0.22,0.153,0.395,0.404,0.524,0.754c0.09,0.244,0.135,0.619,0.135,1.123v2.386c0,0.354,0.028,0.594,0.085,0.721
			c0.045,0.102,0.117,0.181,0.217,0.238s0.284,0.085,0.553,0.085v0.22h-2.765v-0.22h0.116c0.261,0,0.443-0.04,0.546-0.119
			c0.104-0.079,0.176-0.196,0.217-0.351c0.016-0.062,0.024-0.252,0.024-0.574v-2.289c0-0.509-0.066-0.878-0.198-1.108
			c-0.132-0.229-0.355-0.345-0.668-0.345c-0.484,0-0.966,0.265-1.446,0.793v2.948c0,0.379,0.022,0.613,0.067,0.702
			c0.057,0.118,0.135,0.205,0.235,0.259c0.1,0.055,0.302,0.083,0.607,0.083v0.22h-2.765v-0.22h0.122
			c0.285,0,0.477-0.072,0.577-0.217c0.1-0.144,0.149-0.42,0.149-0.827v-2.075c0-0.671-0.015-1.08-0.046-1.227
			c-0.03-0.146-0.077-0.246-0.14-0.299c-0.063-0.053-0.147-0.08-0.253-0.08c-0.114,0-0.25,0.031-0.409,0.091l-0.092-0.22
			l1.685-0.684h0.263V24.567z"/>
		<path style="fill:#0066FF;" d="M59.936,23.382v1.904h-0.201c-0.155-0.598-0.354-1.005-0.595-1.221
			c-0.242-0.215-0.55-0.323-0.925-0.323c-0.285,0-0.515,0.075-0.69,0.226c-0.175,0.151-0.262,0.317-0.262,0.501
			c0,0.228,0.065,0.423,0.195,0.586c0.126,0.167,0.382,0.344,0.769,0.531l0.891,0.433c0.826,0.403,1.239,0.934,1.239,1.593
			c0,0.509-0.192,0.918-0.577,1.23c-0.384,0.311-0.815,0.467-1.291,0.467c-0.342,0-0.732-0.061-1.172-0.183
			c-0.135-0.041-0.244-0.061-0.33-0.061c-0.093,0-0.167,0.053-0.22,0.159h-0.201v-1.996h0.201c0.114,0.569,0.332,0.999,0.653,1.288
			s0.682,0.433,1.08,0.433c0.281,0,0.51-0.082,0.687-0.247c0.177-0.165,0.265-0.363,0.265-0.595c0-0.281-0.099-0.517-0.296-0.708
			c-0.197-0.191-0.591-0.434-1.181-0.727c-0.59-0.293-0.977-0.558-1.16-0.793c-0.183-0.232-0.274-0.525-0.274-0.879
			c0-0.46,0.158-0.844,0.473-1.154c0.315-0.309,0.723-0.464,1.224-0.464c0.22,0,0.486,0.047,0.799,0.141
			c0.208,0.061,0.346,0.092,0.415,0.092c0.065,0,0.116-0.015,0.153-0.043s0.08-0.092,0.128-0.189H59.936z"/>
		<path style="fill:#0066FF;" d="M62.823,21.71v1.837h1.306v0.427h-1.306V27.6c0,0.362,0.052,0.606,0.156,0.732
			c0.104,0.126,0.237,0.189,0.399,0.189c0.135,0,0.265-0.042,0.391-0.125c0.126-0.083,0.224-0.207,0.293-0.369H64.3
			c-0.143,0.399-0.344,0.699-0.604,0.9c-0.26,0.201-0.529,0.302-0.806,0.302c-0.187,0-0.37-0.052-0.549-0.156
			c-0.179-0.104-0.312-0.252-0.397-0.446c-0.085-0.193-0.128-0.491-0.128-0.894v-3.76h-0.885v-0.202
			c0.224-0.089,0.453-0.241,0.687-0.455c0.234-0.213,0.442-0.467,0.626-0.76c0.093-0.155,0.224-0.438,0.391-0.848H62.823z"/>
		<path style="fill:#0066FF;" d="M67.878,28.333c-0.574,0.443-0.934,0.7-1.081,0.769c-0.22,0.102-0.454,0.153-0.702,0.153
			c-0.387,0-0.705-0.132-0.956-0.397c-0.25-0.265-0.375-0.612-0.375-1.043c0-0.273,0.062-0.509,0.184-0.708
			c0.167-0.277,0.457-0.537,0.87-0.781c0.413-0.244,1.1-0.542,2.06-0.892v-0.22c0-0.557-0.089-0.939-0.266-1.147
			c-0.177-0.207-0.435-0.311-0.772-0.311c-0.256,0-0.459,0.069-0.61,0.208c-0.154,0.138-0.231,0.297-0.231,0.476l0.012,0.354
			c0,0.187-0.048,0.332-0.143,0.434c-0.096,0.102-0.221,0.152-0.375,0.152c-0.15,0-0.274-0.053-0.369-0.159
			c-0.096-0.106-0.144-0.25-0.144-0.433c0-0.35,0.179-0.672,0.537-0.965s0.86-0.439,1.508-0.439c0.496,0,0.903,0.083,1.221,0.25
			c0.24,0.126,0.417,0.324,0.531,0.592c0.073,0.175,0.11,0.533,0.11,1.074v1.898c0,0.533,0.01,0.86,0.03,0.979
			c0.021,0.12,0.054,0.201,0.101,0.241c0.046,0.041,0.101,0.061,0.162,0.061c0.065,0,0.122-0.014,0.171-0.043
			c0.085-0.053,0.25-0.201,0.494-0.445v0.342c-0.456,0.61-0.891,0.916-1.306,0.916c-0.2,0-0.358-0.069-0.477-0.208
			C67.943,28.902,67.882,28.666,67.878,28.333z M66.034,20.978c0.188,0,0.345,0.065,0.473,0.195c0.128,0.13,0.192,0.287,0.192,0.47
			s-0.065,0.339-0.195,0.467c-0.13,0.128-0.285,0.192-0.464,0.192c-0.183,0-0.34-0.064-0.47-0.192
			c-0.13-0.128-0.195-0.284-0.195-0.467s0.064-0.34,0.192-0.47C65.696,21.043,65.852,20.978,66.034,20.978z M67.878,27.936v-2.13
			c-0.615,0.244-1.011,0.417-1.19,0.519c-0.321,0.179-0.551,0.366-0.689,0.562c-0.139,0.195-0.208,0.409-0.208,0.641
			c0,0.293,0.088,0.536,0.263,0.729s0.376,0.29,0.604,0.29C66.966,28.546,67.373,28.343,67.878,27.936z M68.189,20.978
			c0.183,0,0.339,0.065,0.467,0.195c0.128,0.13,0.192,0.287,0.192,0.47s-0.064,0.339-0.192,0.467
			c-0.128,0.128-0.284,0.192-0.467,0.192s-0.34-0.064-0.47-0.192c-0.13-0.128-0.195-0.284-0.195-0.467s0.065-0.34,0.195-0.47
			C67.849,21.043,68.006,20.978,68.189,20.978z"/>
		<path style="fill:#0066FF;" d="M72.106,20.459v7.416c0,0.35,0.025,0.582,0.076,0.696c0.051,0.114,0.129,0.2,0.235,0.259
			s0.303,0.088,0.592,0.088v0.22h-2.741v-0.22c0.256,0,0.431-0.026,0.525-0.079c0.094-0.053,0.167-0.141,0.22-0.263
			s0.079-0.356,0.079-0.702v-5.078c0-0.63-0.014-1.018-0.042-1.163c-0.028-0.144-0.074-0.243-0.137-0.296
			c-0.063-0.053-0.144-0.08-0.241-0.08c-0.106,0-0.24,0.033-0.403,0.098l-0.104-0.213l1.667-0.684H72.106z"/>
		<path style="fill:#0066FF;" d="M75.429,20.459v7.416c0,0.35,0.025,0.582,0.076,0.696c0.051,0.114,0.129,0.2,0.235,0.259
			s0.303,0.088,0.592,0.088v0.22h-2.741v-0.22c0.256,0,0.431-0.026,0.525-0.079c0.094-0.053,0.167-0.141,0.22-0.263
			s0.079-0.356,0.079-0.702v-5.078c0-0.63-0.014-1.018-0.042-1.163c-0.028-0.144-0.074-0.243-0.137-0.296
			c-0.063-0.053-0.144-0.08-0.241-0.08c-0.106,0-0.24,0.033-0.403,0.098l-0.104-0.213l1.667-0.684H75.429z"/>
		<path style="fill:#0066FF;" d="M80.779,28.509c-0.273,0.285-0.54,0.49-0.801,0.614c-0.26,0.124-0.541,0.186-0.842,0.186
			c-0.61,0-1.144-0.255-1.599-0.766c-0.456-0.51-0.684-1.167-0.684-1.968s0.252-1.535,0.757-2.2
			c0.504-0.666,1.153-0.998,1.947-0.998c0.493,0,0.899,0.157,1.221,0.47v-1.031c0-0.639-0.016-1.031-0.047-1.178
			c-0.029-0.146-0.078-0.247-0.143-0.299c-0.066-0.053-0.146-0.08-0.244-0.08c-0.106,0-0.246,0.033-0.422,0.098l-0.079-0.213
			l1.667-0.684h0.273v6.463c0,0.655,0.016,1.055,0.047,1.2c0.029,0.145,0.078,0.245,0.146,0.302
			c0.066,0.057,0.145,0.085,0.234,0.085c0.109,0,0.256-0.034,0.439-0.104l0.066,0.214l-1.66,0.689h-0.279V28.509z M80.779,28.083
			v-2.881c-0.025-0.277-0.098-0.529-0.221-0.757c-0.121-0.228-0.283-0.4-0.484-0.516c-0.202-0.116-0.398-0.174-0.589-0.174
			c-0.358,0-0.678,0.161-0.958,0.482c-0.37,0.423-0.555,1.042-0.555,1.855c0,0.822,0.179,1.452,0.537,1.889
			c0.358,0.438,0.757,0.656,1.196,0.656C80.074,28.638,80.432,28.453,80.779,28.083z"/>
		<path style="fill:#0066FF;" d="M86.039,23.749h6.586v0.501h-6.586V23.749z M86.039,25.739h6.586v0.5h-6.586V25.739z"/>
	</g>
	<g>
		<path style="fill:#0066FF;" d="M17.146,46.295l-0.58,1.593h-4.883v-0.226c1.437-1.311,2.447-2.381,3.033-3.211
			s0.879-1.589,0.879-2.276c0-0.525-0.161-0.956-0.482-1.294s-0.706-0.507-1.154-0.507c-0.407,0-0.772,0.119-1.095,0.357
			c-0.324,0.238-0.562,0.587-0.717,1.047h-0.226c0.102-0.753,0.363-1.331,0.784-1.733c0.421-0.403,0.947-0.604,1.578-0.604
			c0.671,0,1.232,0.216,1.682,0.646c0.449,0.432,0.674,0.94,0.674,1.526c0,0.419-0.098,0.838-0.293,1.257
			c-0.301,0.66-0.79,1.357-1.465,2.094c-1.013,1.107-1.646,1.774-1.898,2.002h2.161c0.439,0,0.748-0.016,0.924-0.049
			c0.177-0.032,0.337-0.099,0.479-0.198c0.143-0.1,0.267-0.241,0.373-0.424H17.146z"/>
		<path style="fill:#0066FF;" d="M23.268,39.441v0.226c-0.537,0.053-0.976,0.16-1.315,0.32c-0.34,0.161-0.675,0.406-1.007,0.735
			c-0.332,0.33-0.606,0.697-0.824,1.103c-0.218,0.404-0.4,0.886-0.546,1.443c0.586-0.403,1.174-0.604,1.764-0.604
			c0.565,0,1.056,0.228,1.471,0.684s0.622,1.042,0.622,1.758c0,0.691-0.209,1.322-0.628,1.893c-0.504,0.691-1.172,1.037-2.002,1.037
			c-0.565,0-1.046-0.188-1.44-0.562c-0.773-0.729-1.16-1.673-1.16-2.832c0-0.74,0.148-1.444,0.445-2.112
			c0.297-0.667,0.721-1.259,1.273-1.775c0.551-0.517,1.079-0.865,1.583-1.044c0.505-0.179,0.975-0.269,1.41-0.269H23.268z
			 M19.471,43.713c-0.073,0.55-0.11,0.993-0.11,1.331c0,0.391,0.072,0.814,0.217,1.272c0.144,0.457,0.359,0.82,0.644,1.089
			c0.207,0.191,0.459,0.287,0.757,0.287c0.354,0,0.67-0.167,0.949-0.5c0.279-0.334,0.418-0.811,0.418-1.429
			c0-0.696-0.139-1.298-0.415-1.807c-0.277-0.509-0.669-0.763-1.178-0.763c-0.155,0-0.32,0.032-0.498,0.098
			C20.079,43.357,19.817,43.498,19.471,43.713z"/>
		<path style="fill:#0066FF;" d="M25.172,39.612h4.437v0.231l-2.759,8.216h-0.684l2.472-7.452h-2.277
			c-0.459,0-0.787,0.055-0.982,0.164c-0.342,0.188-0.616,0.477-0.824,0.867l-0.177-0.067L25.172,39.612z"/>
		<path style="fill:#0066FF;" d="M33.579,43.798c0-0.943,0.143-1.756,0.427-2.438s0.663-1.189,1.135-1.523
			c0.366-0.265,0.745-0.396,1.135-0.396c0.635,0,1.205,0.323,1.709,0.971c0.631,0.802,0.946,1.888,0.946,3.259
			c0,0.961-0.139,1.776-0.415,2.448c-0.277,0.671-0.63,1.158-1.059,1.461c-0.43,0.304-0.843,0.455-1.242,0.455
			c-0.79,0-1.447-0.466-1.971-1.397C33.8,45.852,33.579,44.906,33.579,43.798z M34.775,43.952c0,1.139,0.14,2.069,0.421,2.789
			c0.231,0.606,0.578,0.909,1.037,0.909c0.22,0,0.448-0.099,0.684-0.296c0.236-0.197,0.415-0.528,0.537-0.991
			c0.188-0.7,0.281-1.688,0.281-2.961c0-0.943-0.098-1.731-0.293-2.361c-0.146-0.469-0.336-0.8-0.568-0.995
			c-0.167-0.135-0.368-0.202-0.604-0.202c-0.277,0-0.523,0.125-0.739,0.373c-0.293,0.338-0.492,0.868-0.598,1.593
			S34.775,43.248,34.775,43.952z"/>
		<path style="fill:#0066FF;" d="M39.829,43.798c0-0.943,0.143-1.756,0.427-2.438s0.663-1.189,1.135-1.523
			c0.366-0.265,0.745-0.396,1.135-0.396c0.635,0,1.205,0.323,1.709,0.971c0.631,0.802,0.946,1.888,0.946,3.259
			c0,0.961-0.139,1.776-0.415,2.448c-0.277,0.671-0.63,1.158-1.059,1.461c-0.43,0.304-0.843,0.455-1.242,0.455
			c-0.79,0-1.447-0.466-1.971-1.397C40.05,45.852,39.829,44.906,39.829,43.798z M41.025,43.952c0,1.139,0.14,2.069,0.421,2.789
			c0.231,0.606,0.578,0.909,1.037,0.909c0.22,0,0.448-0.099,0.684-0.296c0.236-0.197,0.415-0.528,0.537-0.991
			c0.188-0.7,0.281-1.688,0.281-2.961c0-0.943-0.098-1.731-0.293-2.361c-0.146-0.469-0.336-0.8-0.568-0.995
			c-0.167-0.135-0.368-0.202-0.604-0.202c-0.277,0-0.523,0.125-0.739,0.373c-0.293,0.338-0.492,0.868-0.598,1.593
			S41.025,43.248,41.025,43.952z"/>
		<path style="fill:#0066FF;" d="M46.079,43.798c0-0.943,0.143-1.756,0.427-2.438s0.663-1.189,1.135-1.523
			c0.366-0.265,0.745-0.396,1.135-0.396c0.635,0,1.205,0.323,1.709,0.971c0.631,0.802,0.946,1.888,0.946,3.259
			c0,0.961-0.139,1.776-0.415,2.448c-0.277,0.671-0.63,1.158-1.059,1.461c-0.43,0.304-0.843,0.455-1.242,0.455
			c-0.79,0-1.447-0.466-1.971-1.397C46.3,45.852,46.079,44.906,46.079,43.798z M47.275,43.952c0,1.139,0.14,2.069,0.421,2.789
			c0.231,0.606,0.578,0.909,1.037,0.909c0.22,0,0.448-0.099,0.684-0.296c0.236-0.197,0.415-0.528,0.537-0.991
			c0.188-0.7,0.281-1.688,0.281-2.961c0-0.943-0.098-1.731-0.293-2.361c-0.146-0.469-0.336-0.8-0.568-0.995
			c-0.167-0.135-0.368-0.202-0.604-0.202c-0.277,0-0.523,0.125-0.739,0.373c-0.293,0.338-0.492,0.868-0.598,1.593
			S47.275,43.248,47.275,43.952z"/>
	</g>
	<g>
		<path style="fill:#0066FF;" d="M71.831,53.01v0.866h-1.11v2.186h-1.007v-2.186h-3.503v-0.781l3.839-5.48h0.672v5.396H71.831z
			 M69.713,53.01v-4.107l-2.905,4.107H69.713z"/>
		<path style="fill:#0066FF;" d="M72.748,58.143v-0.269c0.419-0.138,0.744-0.353,0.974-0.644c0.229-0.291,0.345-0.6,0.345-0.925
			c0-0.077-0.018-0.143-0.055-0.195c-0.028-0.037-0.057-0.055-0.085-0.055c-0.045,0-0.143,0.04-0.293,0.122
			c-0.073,0.036-0.151,0.055-0.232,0.055c-0.199,0-0.358-0.059-0.476-0.177c-0.118-0.118-0.177-0.281-0.177-0.488
			c0-0.199,0.076-0.37,0.229-0.513c0.152-0.143,0.339-0.214,0.559-0.214c0.269,0,0.507,0.117,0.717,0.351
			c0.209,0.234,0.314,0.545,0.314,0.931c0,0.42-0.146,0.81-0.437,1.169C73.839,57.652,73.379,57.936,72.748,58.143z"/>
		<path style="fill:#0066FF;" d="M81.791,47.786l-0.477,1.038h-2.49l-0.543,1.11c1.078,0.159,1.933,0.56,2.564,1.202
			c0.541,0.554,0.811,1.205,0.811,1.953c0,0.436-0.088,0.839-0.266,1.209c-0.176,0.37-0.398,0.686-0.668,0.945
			c-0.268,0.261-0.568,0.471-0.896,0.629c-0.469,0.224-0.949,0.336-1.441,0.336c-0.497,0-0.858-0.085-1.083-0.253
			c-0.226-0.169-0.339-0.355-0.339-0.559c0-0.114,0.047-0.215,0.14-0.303c0.094-0.087,0.212-0.131,0.354-0.131
			c0.105,0,0.198,0.017,0.277,0.049c0.08,0.032,0.215,0.116,0.406,0.25c0.305,0.212,0.614,0.317,0.928,0.317
			c0.476,0,0.894-0.18,1.253-0.54c0.361-0.36,0.541-0.799,0.541-1.315c0-0.5-0.16-0.967-0.482-1.4
			c-0.321-0.434-0.765-0.769-1.331-1.004c-0.443-0.184-1.048-0.289-1.812-0.317l1.587-3.217H81.791z"/>
	</g>
	<g>
		<path style="fill:#0066FF;" d="M20.143,57.273v0.226c-0.537,0.053-0.976,0.16-1.315,0.32c-0.34,0.161-0.675,0.406-1.007,0.735
			c-0.332,0.33-0.606,0.697-0.824,1.103c-0.218,0.404-0.4,0.886-0.546,1.443c0.586-0.403,1.174-0.604,1.764-0.604
			c0.565,0,1.056,0.228,1.471,0.684s0.622,1.042,0.622,1.758c0,0.691-0.209,1.322-0.628,1.893c-0.504,0.691-1.172,1.037-2.002,1.037
			c-0.565,0-1.046-0.188-1.44-0.562c-0.773-0.729-1.16-1.673-1.16-2.832c0-0.74,0.148-1.444,0.445-2.112
			c0.297-0.667,0.721-1.259,1.273-1.775c0.551-0.517,1.079-0.865,1.583-1.044c0.505-0.179,0.975-0.269,1.41-0.269H20.143z
			 M16.346,61.545c-0.073,0.55-0.11,0.993-0.11,1.331c0,0.391,0.072,0.814,0.217,1.272c0.144,0.457,0.359,0.82,0.644,1.089
			c0.207,0.191,0.459,0.287,0.757,0.287c0.354,0,0.67-0.167,0.949-0.5c0.279-0.334,0.418-0.811,0.418-1.429
			c0-0.696-0.139-1.298-0.415-1.807c-0.277-0.509-0.669-0.763-1.178-0.763c-0.155,0-0.32,0.032-0.498,0.098
			C16.954,61.189,16.692,61.33,16.346,61.545z"/>
		<path style="fill:#0066FF;" d="M21.241,61.63c0-0.943,0.143-1.756,0.427-2.438s0.663-1.189,1.135-1.523
			c0.366-0.265,0.745-0.396,1.135-0.396c0.635,0,1.205,0.323,1.709,0.971c0.631,0.802,0.946,1.888,0.946,3.259
			c0,0.961-0.139,1.776-0.415,2.448c-0.277,0.671-0.63,1.158-1.059,1.461c-0.43,0.304-0.843,0.455-1.242,0.455
			c-0.79,0-1.447-0.466-1.971-1.397C21.463,63.684,21.241,62.738,21.241,61.63z M22.438,61.784c0,1.139,0.14,2.069,0.421,2.789
			c0.231,0.606,0.578,0.909,1.037,0.909c0.22,0,0.448-0.099,0.684-0.296c0.236-0.197,0.415-0.528,0.537-0.991
			c0.188-0.7,0.281-1.688,0.281-2.961c0-0.943-0.098-1.731-0.293-2.361c-0.146-0.469-0.336-0.8-0.568-0.995
			c-0.167-0.135-0.368-0.202-0.604-0.202c-0.277,0-0.523,0.125-0.739,0.373c-0.293,0.338-0.492,0.868-0.598,1.593
			S22.438,61.08,22.438,61.784z"/>
		<path style="fill:#0066FF;" d="M30.254,61.63c0-0.943,0.143-1.756,0.427-2.438s0.663-1.189,1.135-1.523
			c0.366-0.265,0.745-0.396,1.135-0.396c0.635,0,1.205,0.323,1.709,0.971c0.631,0.802,0.946,1.888,0.946,3.259
			c0,0.961-0.139,1.776-0.415,2.448c-0.277,0.671-0.63,1.158-1.059,1.461c-0.43,0.304-0.843,0.455-1.242,0.455
			c-0.79,0-1.447-0.466-1.971-1.397C30.476,63.684,30.254,62.738,30.254,61.63z M31.45,61.784c0,1.139,0.14,2.069,0.421,2.789
			c0.231,0.606,0.578,0.909,1.037,0.909c0.22,0,0.448-0.099,0.684-0.296c0.236-0.197,0.415-0.528,0.537-0.991
			c0.188-0.7,0.281-1.688,0.281-2.961c0-0.943-0.098-1.731-0.293-2.361c-0.146-0.469-0.336-0.8-0.568-0.995
			c-0.167-0.135-0.368-0.202-0.604-0.202c-0.277,0-0.523,0.125-0.739,0.373c-0.293,0.338-0.492,0.868-0.598,1.593
			S31.45,61.08,31.45,61.784z"/>
		<path style="fill:#0066FF;" d="M36.504,61.63c0-0.943,0.143-1.756,0.427-2.438s0.663-1.189,1.135-1.523
			c0.366-0.265,0.745-0.396,1.135-0.396c0.635,0,1.205,0.323,1.709,0.971c0.631,0.802,0.946,1.888,0.946,3.259
			c0,0.961-0.139,1.776-0.415,2.448c-0.277,0.671-0.63,1.158-1.059,1.461c-0.43,0.304-0.843,0.455-1.242,0.455
			c-0.79,0-1.447-0.466-1.971-1.397C36.726,63.684,36.504,62.738,36.504,61.63z M37.7,61.784c0,1.139,0.14,2.069,0.421,2.789
			c0.231,0.606,0.578,0.909,1.037,0.909c0.22,0,0.448-0.099,0.684-0.296c0.236-0.197,0.415-0.528,0.537-0.991
			c0.188-0.7,0.281-1.688,0.281-2.961c0-0.943-0.098-1.731-0.293-2.361c-0.146-0.469-0.336-0.8-0.568-0.995
			c-0.167-0.135-0.368-0.202-0.604-0.202c-0.277,0-0.523,0.125-0.739,0.373c-0.293,0.338-0.492,0.868-0.598,1.593
			S37.7,61.08,37.7,61.784z"/>
		<path style="fill:#0066FF;" d="M42.754,61.63c0-0.943,0.143-1.756,0.427-2.438s0.663-1.189,1.135-1.523
			c0.366-0.265,0.745-0.396,1.135-0.396c0.635,0,1.205,0.323,1.709,0.971c0.631,0.802,0.946,1.888,0.946,3.259
			c0,0.961-0.139,1.776-0.415,2.448c-0.277,0.671-0.63,1.158-1.059,1.461c-0.43,0.304-0.843,0.455-1.242,0.455
			c-0.79,0-1.447-0.466-1.971-1.397C42.976,63.684,42.754,62.738,42.754,61.63z M43.95,61.784c0,1.139,0.14,2.069,0.421,2.789
			c0.231,0.606,0.578,0.909,1.037,0.909c0.22,0,0.448-0.099,0.684-0.296c0.236-0.197,0.415-0.528,0.537-0.991
			c0.188-0.7,0.281-1.688,0.281-2.961c0-0.943-0.098-1.731-0.293-2.361c-0.146-0.469-0.336-0.8-0.568-0.995
			c-0.167-0.135-0.368-0.202-0.604-0.202c-0.277,0-0.523,0.125-0.739,0.373c-0.293,0.338-0.492,0.868-0.598,1.593
			S43.95,61.08,43.95,61.784z"/>
	</g>
	<g>
		<path style="fill:#0066FF;" d="M0.263,51.429h6.409v0.592H0.263V51.429z M0.263,53.707h6.409v0.604H0.263V53.707z"/>
		<path style="fill:#0066FF;" d="M62.055,50.721h0.305c-0.081,0.663-0.282,1.156-0.601,1.478s-0.693,0.482-1.12,0.482
			c-0.2,0-0.429-0.044-0.687-0.132c-0.258-0.087-0.659-0.284-1.202-0.589c-0.543-0.305-0.961-0.458-1.254-0.458
			c-0.269,0-0.503,0.097-0.705,0.29c-0.201,0.193-0.329,0.476-0.381,0.846h-0.281c0.077-0.659,0.274-1.15,0.592-1.475
			c0.317-0.323,0.678-0.484,1.081-0.484c0.199,0,0.448,0.049,0.745,0.146c0.216,0.072,0.641,0.278,1.275,0.616
			c0.48,0.256,0.873,0.384,1.178,0.384c0.26,0,0.474-0.081,0.641-0.244C61.859,51.371,61.998,51.083,62.055,50.721z M62.055,53.083
			h0.305c-0.081,0.663-0.282,1.156-0.601,1.48c-0.319,0.323-0.693,0.484-1.12,0.484c-0.2,0-0.429-0.044-0.687-0.134
			s-0.659-0.287-1.202-0.592c-0.543-0.306-0.961-0.458-1.254-0.458c-0.269,0-0.503,0.097-0.705,0.29
			c-0.201,0.193-0.329,0.477-0.381,0.852h-0.281c0.077-0.659,0.274-1.15,0.592-1.475c0.317-0.323,0.678-0.485,1.081-0.485
			c0.199,0,0.448,0.049,0.745,0.146c0.216,0.074,0.641,0.279,1.275,0.617c0.48,0.256,0.873,0.385,1.178,0.385
			c0.26,0,0.474-0.084,0.641-0.251C61.859,53.733,61.998,53.446,62.055,53.083z"/>
	</g>
</g>
<g id="theGroup">
</g>
</svg>
