<?xml version="1.0" encoding="iso-8859-1"?>
<!-- Generator: Adobe Illustrator 16.0.0, SVG Export Plug-In . SVG Version: 6.00 Build 0)  -->
<!DOCTYPE svg PUBLIC "-//W3C//DTD SVG 1.1//EN" "http://www.w3.org/Graphics/SVG/1.1/DTD/svg11.dtd">
<svg version="1.1" id="Lager_1" xmlns="http://www.w3.org/2000/svg" xmlns:xlink="http://www.w3.org/1999/xlink" x="0px" y="0px"
	 width="29.79px" height="16.668px" viewBox="0 0 29.79 16.668" style="enable-background:new 0 0 29.79 16.668;"
	 xml:space="preserve">
<g>
	
		<line style="fill:none;stroke:#3A1968;stroke-width:0.2812;stroke-linecap:square;stroke-miterlimit:10;" x1="23.946" y1="0.141" x2="23.946" y2="8.774"/>
	
		<line style="fill:none;stroke:#3A1968;stroke-width:0.2812;stroke-linecap:square;stroke-miterlimit:10;" x1="29.454" y1="0.141" x2="29.454" y2="8.774"/>
	
		<line style="fill:none;stroke:#3A1968;stroke-width:0.2812;stroke-linecap:square;stroke-miterlimit:10;" x1="23.79" y1="0.297" x2="29.649" y2="0.297"/>
	
		<line style="fill:none;stroke:#3A1968;stroke-width:0.2812;stroke-linecap:square;stroke-miterlimit:10;" x1="23.79" y1="8.578" x2="29.649" y2="8.578"/>
	<g>
		<path style="fill:#3A1968;" d="M5.731,11.243l-0.58,1.593H0.269V12.61c1.437-1.311,2.447-2.381,3.033-3.211
			S4.181,7.81,4.181,7.123c0-0.525-0.161-0.956-0.482-1.294S2.993,5.322,2.545,5.322c-0.407,0-0.772,0.119-1.095,0.357
			C1.126,5.917,0.887,6.266,0.732,6.726H0.507C0.608,5.973,0.87,5.395,1.291,4.993c0.421-0.403,0.947-0.604,1.578-0.604
			c0.671,0,1.232,0.216,1.682,0.647C5,5.466,5.225,5.975,5.225,6.561c0,0.419-0.098,0.838-0.293,1.257
			C4.63,8.478,4.142,9.175,3.467,9.912c-1.013,1.107-1.646,1.774-1.898,2.002h2.161c0.439,0,0.748-0.016,0.924-0.049
			c0.177-0.032,0.337-0.099,0.479-0.198c0.143-0.1,0.267-0.241,0.373-0.424H5.731z"/>
		<path style="fill:#3A1968;" d="M12.353,5.371l2.014-0.982h0.202v6.988c0,0.464,0.019,0.753,0.058,0.867
			c0.039,0.113,0.119,0.201,0.241,0.262c0.122,0.062,0.37,0.096,0.745,0.104v0.226h-3.113V12.61
			c0.391-0.009,0.643-0.042,0.757-0.101c0.114-0.06,0.193-0.139,0.238-0.238c0.044-0.1,0.067-0.397,0.067-0.895V6.909
			c0-0.602-0.021-0.988-0.061-1.159c-0.028-0.13-0.081-0.226-0.156-0.287s-0.166-0.092-0.271-0.092c-0.15,0-0.36,0.063-0.628,0.189
			L12.353,5.371z"/>
		<path style="fill:#3A1968;" d="M17.589,8.747c0-0.944,0.143-1.757,0.428-2.439c0.285-0.681,0.663-1.189,1.135-1.523
			c0.367-0.264,0.745-0.396,1.136-0.396c0.635,0,1.204,0.323,1.709,0.971c0.631,0.801,0.946,1.888,0.946,3.259
			c0,0.961-0.139,1.776-0.415,2.448c-0.277,0.671-0.63,1.158-1.06,1.461c-0.429,0.304-0.843,0.455-1.242,0.455
			c-0.789,0-1.446-0.466-1.971-1.397C17.812,10.799,17.589,9.853,17.589,8.747z M18.786,8.899c0,1.139,0.14,2.069,0.421,2.789
			c0.231,0.606,0.577,0.909,1.037,0.909c0.22,0,0.448-0.099,0.684-0.296c0.236-0.197,0.415-0.528,0.537-0.991
			c0.188-0.7,0.281-1.688,0.281-2.961c0-0.944-0.098-1.731-0.293-2.362c-0.146-0.468-0.336-0.799-0.567-0.995
			c-0.167-0.135-0.369-0.202-0.604-0.202c-0.277,0-0.523,0.124-0.739,0.373c-0.293,0.337-0.492,0.869-0.598,1.593
			S18.786,8.195,18.786,8.899z"/>
	</g>
	<g>
		<path style="fill:#3A1968;" d="M9.734,9.637c0,0.188-0.066,0.347-0.198,0.479c-0.132,0.132-0.29,0.198-0.473,0.198
			c-0.187,0-0.347-0.066-0.479-0.198C8.451,9.984,8.385,9.825,8.385,9.637s0.066-0.347,0.199-0.479
			c0.132-0.132,0.292-0.198,0.479-0.198c0.183,0,0.341,0.066,0.473,0.198C9.667,9.291,9.734,9.45,9.734,9.637z"/>
	</g>
</g>
<g id="theGroup">
</g>
</svg>
