<?xml version="1.0" encoding="iso-8859-1"?>
<!-- Generator: Adobe Illustrator 16.0.0, SVG Export Plug-In . SVG Version: 6.00 Build 0)  -->
<!DOCTYPE svg PUBLIC "-//W3C//DTD SVG 1.1//EN" "http://www.w3.org/Graphics/SVG/1.1/DTD/svg11.dtd">
<svg version="1.1" id="Lager_1" xmlns="http://www.w3.org/2000/svg" xmlns:xlink="http://www.w3.org/1999/xlink" x="0px" y="0px"
	 width="48.412px" height="16.396px" viewBox="0 0 48.412 16.396" style="enable-background:new 0 0 48.412 16.396;"
	 xml:space="preserve">
<g>
	
		<line style="fill:none;stroke:#3A1968;stroke-width:0.5;stroke-linecap:square;stroke-miterlimit:10;" x1="0.562" y1="0.25" x2="0.562" y2="15.289"/>
	
		<line style="fill:none;stroke:#3A1968;stroke-width:0.5;stroke-linecap:square;stroke-miterlimit:10;" x1="10.172" y1="0.25" x2="10.172" y2="15.289"/>
	
		<line style="fill:none;stroke:#3A1968;stroke-width:0.5;stroke-linecap:square;stroke-miterlimit:10;" x1="0.25" y1="0.562" x2="10.484" y2="0.562"/>
	
		<line style="fill:none;stroke:#3A1968;stroke-width:0.5;stroke-linecap:square;stroke-miterlimit:10;" x1="0.25" y1="14.976" x2="10.484" y2="14.976"/>
	<g>
		<path style="fill:#3A1968;" d="M18.898,8.394c-0.655-0.537-1.077-0.968-1.267-1.294c-0.189-0.325-0.283-0.663-0.283-1.013
			c0-0.537,0.207-1,0.622-1.389s0.967-0.583,1.654-0.583c0.667,0,1.204,0.181,1.611,0.543c0.406,0.362,0.61,0.775,0.61,1.239
			c0,0.309-0.11,0.625-0.33,0.946c-0.22,0.321-0.677,0.7-1.373,1.135c0.716,0.554,1.19,0.989,1.422,1.307
			c0.31,0.415,0.464,0.853,0.464,1.312c0,0.581-0.222,1.079-0.665,1.492s-1.025,0.619-1.745,0.619c-0.786,0-1.398-0.246-1.838-0.738
			c-0.35-0.395-0.524-0.826-0.524-1.294c0-0.366,0.123-0.729,0.369-1.09C17.872,9.228,18.296,8.83,18.898,8.394z M19.186,8.626
			c-0.338,0.285-0.588,0.595-0.751,0.931s-0.244,0.699-0.244,1.09c0,0.524,0.144,0.944,0.431,1.26
			c0.286,0.315,0.651,0.473,1.096,0.473c0.439,0,0.791-0.124,1.056-0.372s0.396-0.549,0.396-0.903c0-0.293-0.077-0.555-0.231-0.787
			C20.648,9.885,20.064,9.322,19.186,8.626z M19.856,7.741c0.488-0.439,0.798-0.786,0.928-1.041
			c0.131-0.254,0.195-0.542,0.195-0.864c0-0.427-0.12-0.762-0.359-1.004c-0.24-0.242-0.568-0.363-0.983-0.363
			s-0.753,0.12-1.013,0.36c-0.261,0.24-0.391,0.521-0.391,0.843c0,0.211,0.054,0.423,0.161,0.635
			c0.108,0.211,0.262,0.413,0.461,0.604L19.856,7.741z"/>
		<path style="fill:#3A1968;" d="M41.729,9.511v0.866h-1.11v2.186h-1.007v-2.186h-3.504V9.596l3.839-5.48h0.672v5.396H41.729z
			 M39.611,9.511V5.404l-2.906,4.107H39.611z"/>
		<path style="fill:#3A1968;" d="M44.561,8.394c-0.655-0.537-1.077-0.968-1.267-1.294c-0.188-0.325-0.283-0.663-0.283-1.013
			c0-0.537,0.207-1,0.622-1.389s0.967-0.583,1.654-0.583c0.667,0,1.204,0.181,1.611,0.543c0.407,0.362,0.61,0.775,0.61,1.239
			c0,0.309-0.11,0.625-0.329,0.946c-0.221,0.321-0.678,0.7-1.374,1.135c0.717,0.554,1.19,0.989,1.423,1.307
			c0.309,0.415,0.463,0.853,0.463,1.312c0,0.581-0.222,1.079-0.665,1.492s-1.025,0.619-1.745,0.619
			c-0.785,0-1.398-0.246-1.838-0.738c-0.35-0.395-0.524-0.826-0.524-1.294c0-0.366,0.123-0.729,0.369-1.09
			C43.534,9.228,43.959,8.83,44.561,8.394z M44.848,8.626c-0.338,0.285-0.588,0.595-0.751,0.931
			c-0.162,0.336-0.244,0.699-0.244,1.09c0,0.524,0.144,0.944,0.431,1.26s0.652,0.473,1.096,0.473c0.439,0,0.791-0.124,1.056-0.372
			s0.396-0.549,0.396-0.903c0-0.293-0.077-0.555-0.231-0.787C46.311,9.885,45.727,9.322,44.848,8.626z M45.52,7.741
			c0.488-0.439,0.797-0.786,0.928-1.041c0.13-0.254,0.195-0.542,0.195-0.864c0-0.427-0.12-0.762-0.36-1.004S45.715,4.47,45.299,4.47
			c-0.414,0-0.752,0.12-1.013,0.36c-0.261,0.24-0.391,0.521-0.391,0.843c0,0.211,0.054,0.423,0.162,0.635
			c0.107,0.211,0.261,0.413,0.46,0.604L45.52,7.741z"/>
	</g>
	<g>
		<path style="fill:#3A1968;" d="M14.554,9.365c0,0.188-0.066,0.347-0.198,0.479c-0.132,0.132-0.29,0.198-0.473,0.198
			c-0.188,0-0.348-0.066-0.479-0.198c-0.132-0.133-0.198-0.292-0.198-0.479s0.066-0.347,0.198-0.479
			c0.132-0.133,0.292-0.199,0.479-0.199c0.183,0,0.341,0.066,0.473,0.199C14.487,9.018,14.554,9.177,14.554,9.365z"/>
		<path style="fill:#3A1968;" d="M25.745,7.93h6.409v0.592h-6.409V7.93z M25.745,10.208h6.409v0.604h-6.409V10.208z"/>
	</g>
</g>
<g id="theGroup">
</g>
</svg>
