<?xml version="1.0" encoding="iso-8859-1"?>
<!-- Generator: Adobe Illustrator 16.0.0, SVG Export Plug-In . SVG Version: 6.00 Build 0)  -->
<!DOCTYPE svg PUBLIC "-//W3C//DTD SVG 1.1//EN" "http://www.w3.org/Graphics/SVG/1.1/DTD/svg11.dtd">
<svg version="1.1" id="Lager_1" xmlns="http://www.w3.org/2000/svg" xmlns:xlink="http://www.w3.org/1999/xlink" x="0px" y="0px"
	 width="7.336px" height="32.044px" viewBox="0 0 7.336 32.044" style="enable-background:new 0 0 7.336 32.044;"
	 xml:space="preserve">
<g>
	
		<line style="fill:none;stroke:#3A1968;stroke-width:0.5;stroke-linecap:square;stroke-miterlimit:10;" x1="0.25" y1="15.242" x2="7.086" y2="15.242"/>
	<g>
		<path style="fill:#3A1968;" d="M6.057,2.112L5.581,3.149h-2.49L2.547,4.261C3.625,4.419,4.48,4.82,5.111,5.463
			c0.541,0.554,0.812,1.204,0.812,1.953c0,0.436-0.089,0.838-0.266,1.209C5.48,8.995,5.258,9.311,4.988,9.57
			c-0.268,0.261-0.567,0.471-0.896,0.629c-0.468,0.224-0.948,0.336-1.44,0.336c-0.497,0-0.858-0.085-1.083-0.254
			c-0.226-0.168-0.339-0.354-0.339-0.558c0-0.114,0.047-0.215,0.14-0.303C1.463,9.334,1.581,9.29,1.724,9.29
			c0.105,0,0.198,0.016,0.277,0.049c0.08,0.032,0.215,0.116,0.406,0.25c0.305,0.212,0.614,0.317,0.928,0.317
			c0.476,0,0.894-0.18,1.254-0.54c0.36-0.36,0.54-0.799,0.54-1.315c0-0.5-0.16-0.968-0.482-1.4C4.326,6.217,3.882,5.882,3.316,5.646
			C2.873,5.463,2.269,5.357,1.504,5.329l1.587-3.217H6.057z"/>
	</g>
	<g>
		<path style="fill:#3A1968;" d="M6.057,19.935l-0.476,1.038h-2.49l-0.543,1.11c1.078,0.159,1.933,0.56,2.564,1.202
			c0.541,0.554,0.812,1.205,0.812,1.953c0,0.436-0.089,0.839-0.266,1.209s-0.399,0.686-0.669,0.945
			c-0.268,0.261-0.567,0.471-0.896,0.629c-0.468,0.224-0.948,0.336-1.44,0.336c-0.497,0-0.858-0.085-1.083-0.253
			c-0.226-0.169-0.339-0.355-0.339-0.559c0-0.114,0.047-0.215,0.14-0.303c0.094-0.087,0.212-0.131,0.354-0.131
			c0.105,0,0.198,0.017,0.277,0.049c0.08,0.032,0.215,0.116,0.406,0.25c0.305,0.212,0.614,0.317,0.928,0.317
			c0.476,0,0.894-0.18,1.254-0.54c0.36-0.36,0.54-0.799,0.54-1.315c0-0.5-0.16-0.967-0.482-1.4
			c-0.321-0.434-0.765-0.769-1.331-1.004c-0.443-0.184-1.048-0.289-1.812-0.317l1.587-3.217H6.057z"/>
	</g>
</g>
<g id="theGroup">
</g>
</svg>
