<?xml version="1.0" encoding="iso-8859-1"?>
<!-- Generator: Adobe Illustrator 16.0.0, SVG Export Plug-In . SVG Version: 6.00 Build 0)  -->
<!DOCTYPE svg PUBLIC "-//W3C//DTD SVG 1.1//EN" "http://www.w3.org/Graphics/SVG/1.1/DTD/svg11.dtd">
<svg version="1.1" id="Lager_1" xmlns="http://www.w3.org/2000/svg" xmlns:xlink="http://www.w3.org/1999/xlink" x="0px" y="0px"
	 width="110.024px" height="119.608px" viewBox="0 0 110.024 119.608" style="enable-background:new 0 0 110.024 119.608;"
	 xml:space="preserve">
<g>
	
		<line style="fill:none;stroke:#0066FF;stroke-width:0.5;stroke-linecap:square;stroke-miterlimit:10;" x1="10.586" y1="34.595" x2="48.477" y2="34.595"/>
	
		<line style="fill:none;stroke:#0066FF;stroke-width:0.5;stroke-linecap:square;stroke-miterlimit:10;" x1="10.586" y1="68.228" x2="31.289" y2="68.228"/>
	<g>
		<path style="fill:#0066FF;" d="M6.148,2.949V2.724h2.93v0.226H8.767c-0.326,0-0.576,0.137-0.75,0.409
			C7.931,3.484,7.888,3.777,7.888,4.237v3.357c0,0.83-0.083,1.474-0.247,1.932c-0.165,0.458-0.488,0.851-0.971,1.178
			c-0.482,0.327-1.138,0.491-1.968,0.491c-0.903,0-1.589-0.157-2.057-0.47c-0.468-0.313-0.8-0.735-0.995-1.264
			C1.52,9.1,1.455,8.42,1.455,7.423V4.188c0-0.509-0.07-0.842-0.21-1.001C1.104,3.029,0.877,2.949,0.564,2.949H0.253V2.724h3.576
			v0.226H3.512c-0.342,0-0.586,0.108-0.732,0.324C2.678,3.419,2.627,3.725,2.627,4.188v3.607c0,0.321,0.029,0.689,0.088,1.104
			s0.166,0.738,0.321,0.971c0.154,0.231,0.377,0.423,0.668,0.573c0.291,0.151,0.648,0.226,1.071,0.226
			c0.541,0,1.025-0.118,1.453-0.354S6.947,9.778,7.104,9.41C7.26,9.042,7.339,8.418,7.339,7.539V4.188
			c0-0.517-0.057-0.84-0.171-0.971C7.009,3.039,6.773,2.949,6.46,2.949H6.148z"/>
		<path style="fill:#0066FF;" d="M9.163,5.965l1.721-0.696h0.232v1.307c0.289-0.493,0.579-0.837,0.87-1.035s0.597-0.296,0.919-0.296
			c0.562,0,1.029,0.22,1.403,0.659c0.46,0.537,0.69,1.237,0.69,2.1c0,0.965-0.277,1.762-0.83,2.393
			c-0.456,0.517-1.029,0.775-1.721,0.775c-0.301,0-0.562-0.043-0.781-0.128c-0.163-0.062-0.346-0.184-0.549-0.366v1.703
			c0,0.382,0.023,0.625,0.07,0.729c0.046,0.104,0.128,0.186,0.244,0.247c0.116,0.061,0.327,0.091,0.631,0.091v0.226h-2.93v-0.226
			h0.153c0.224,0.004,0.415-0.039,0.574-0.128c0.077-0.045,0.137-0.117,0.18-0.217c0.042-0.1,0.064-0.353,0.064-0.76V7.057
			c0-0.362-0.016-0.592-0.049-0.69S9.97,6.196,9.898,6.147s-0.167-0.073-0.29-0.073c-0.098,0-0.222,0.029-0.373,0.086L9.163,5.965z
			 M11.116,6.935v2.087c0,0.452,0.018,0.749,0.055,0.891c0.057,0.236,0.196,0.443,0.418,0.623c0.222,0.179,0.501,0.269,0.839,0.269
			c0.407,0,0.737-0.159,0.989-0.476c0.329-0.415,0.494-0.999,0.494-1.751c0-0.854-0.187-1.512-0.562-1.972
			c-0.26-0.317-0.57-0.476-0.928-0.476c-0.195,0-0.389,0.049-0.58,0.146C11.696,6.349,11.454,6.569,11.116,6.935z"/>
		<path style="fill:#0066FF;" d="M15.413,5.965l1.721-0.696h0.232v1.307c0.289-0.493,0.579-0.837,0.87-1.035
			s0.597-0.296,0.919-0.296c0.562,0,1.029,0.22,1.403,0.659c0.46,0.537,0.69,1.237,0.69,2.1c0,0.965-0.277,1.762-0.83,2.393
			c-0.456,0.517-1.029,0.775-1.721,0.775c-0.301,0-0.562-0.043-0.781-0.128c-0.163-0.062-0.346-0.184-0.549-0.366v1.703
			c0,0.382,0.023,0.625,0.07,0.729c0.046,0.104,0.128,0.186,0.244,0.247c0.116,0.061,0.327,0.091,0.631,0.091v0.226h-2.93v-0.226
			h0.153c0.224,0.004,0.415-0.039,0.574-0.128c0.077-0.045,0.137-0.117,0.18-0.217c0.042-0.1,0.064-0.353,0.064-0.76V7.057
			c0-0.362-0.016-0.592-0.049-0.69s-0.084-0.171-0.156-0.22s-0.167-0.073-0.29-0.073c-0.098,0-0.222,0.029-0.373,0.086L15.413,5.965
			z M17.366,6.935v2.087c0,0.452,0.018,0.749,0.055,0.891c0.057,0.236,0.196,0.443,0.418,0.623c0.222,0.179,0.501,0.269,0.839,0.269
			c0.407,0,0.737-0.159,0.989-0.476c0.329-0.415,0.494-0.999,0.494-1.751c0-0.854-0.187-1.512-0.562-1.972
			c-0.26-0.317-0.57-0.476-0.928-0.476c-0.195,0-0.389,0.049-0.58,0.146C17.946,6.349,17.704,6.569,17.366,6.935z"/>
		<path style="fill:#0066FF;" d="M23.989,2.321v7.416c0,0.35,0.025,0.582,0.076,0.696c0.051,0.114,0.129,0.2,0.235,0.259
			s0.303,0.088,0.592,0.088V11h-2.741v-0.22c0.256,0,0.431-0.026,0.525-0.079c0.094-0.053,0.167-0.141,0.22-0.263
			s0.079-0.356,0.079-0.702V4.658c0-0.63-0.014-1.018-0.042-1.163c-0.028-0.144-0.074-0.243-0.137-0.296
			c-0.063-0.053-0.144-0.08-0.241-0.08c-0.106,0-0.24,0.033-0.403,0.098l-0.104-0.213l1.667-0.684H23.989z"/>
		<path style="fill:#0066FF;" d="M26.329,7.515c-0.004,0.83,0.197,1.481,0.604,1.953c0.407,0.472,0.885,0.708,1.435,0.708
			c0.366,0,0.685-0.101,0.955-0.302c0.271-0.202,0.498-0.546,0.681-1.035l0.189,0.122c-0.086,0.558-0.334,1.065-0.745,1.523
			c-0.411,0.458-0.925,0.687-1.544,0.687c-0.671,0-1.246-0.261-1.724-0.784c-0.479-0.523-0.717-1.226-0.717-2.109
			c0-0.956,0.245-1.702,0.735-2.237s1.106-0.803,1.847-0.803c0.626,0,1.141,0.207,1.544,0.62s0.604,0.965,0.604,1.657H26.329z
			 M26.329,7.161h2.588c-0.021-0.358-0.063-0.61-0.128-0.757c-0.102-0.228-0.253-0.407-0.455-0.537
			c-0.201-0.13-0.412-0.195-0.631-0.195c-0.338,0-0.64,0.131-0.907,0.394C26.529,6.328,26.374,6.693,26.329,7.161z"/>
		<path style="fill:#0066FF;" d="M30.575,5.409h2.631v0.226h-0.171c-0.159,0-0.28,0.039-0.363,0.116s-0.125,0.181-0.125,0.312
			c0,0.142,0.043,0.311,0.128,0.506l1.3,3.088l1.306-3.204c0.094-0.228,0.141-0.401,0.141-0.519c0-0.057-0.017-0.104-0.049-0.14
			c-0.045-0.062-0.102-0.103-0.171-0.125c-0.069-0.022-0.21-0.034-0.421-0.034V5.409h1.825v0.226
			c-0.211,0.017-0.358,0.059-0.439,0.128c-0.142,0.122-0.271,0.326-0.384,0.61l-1.984,4.797h-0.25l-1.996-4.718
			c-0.089-0.22-0.175-0.377-0.256-0.473c-0.082-0.096-0.186-0.176-0.312-0.241c-0.069-0.037-0.206-0.071-0.409-0.104V5.409z"/>
		<path style="fill:#0066FF;" d="M40.874,10.371c-0.273,0.285-0.54,0.49-0.8,0.614s-0.541,0.186-0.842,0.186
			c-0.61,0-1.144-0.255-1.599-0.766c-0.456-0.51-0.684-1.167-0.684-1.968s0.252-1.535,0.757-2.2
			c0.504-0.666,1.153-0.998,1.947-0.998c0.492,0,0.899,0.157,1.221,0.47V4.677c0-0.639-0.016-1.031-0.046-1.178
			c-0.031-0.146-0.079-0.247-0.144-0.299s-0.146-0.08-0.244-0.08c-0.106,0-0.246,0.033-0.421,0.098l-0.08-0.213l1.667-0.684h0.274
			v6.463c0,0.655,0.015,1.055,0.046,1.2c0.03,0.145,0.079,0.245,0.146,0.302c0.067,0.057,0.146,0.085,0.235,0.085
			c0.11,0,0.256-0.034,0.439-0.104l0.067,0.214l-1.66,0.689h-0.28V10.371z M40.874,9.944V7.063c-0.024-0.277-0.098-0.529-0.22-0.757
			c-0.122-0.228-0.284-0.4-0.485-0.516c-0.202-0.116-0.398-0.174-0.589-0.174c-0.358,0-0.678,0.161-0.958,0.482
			c-0.37,0.423-0.555,1.042-0.555,1.855c0,0.822,0.179,1.452,0.537,1.889c0.358,0.438,0.757,0.656,1.196,0.656
			C40.169,10.5,40.527,10.314,40.874,9.944z"/>
		<path style="fill:#0066FF;" d="M47.923,3.572v1.837h1.306v0.427h-1.306v3.625c0,0.362,0.052,0.606,0.156,0.732
			c0.104,0.126,0.237,0.189,0.399,0.189c0.135,0,0.265-0.042,0.391-0.125c0.126-0.083,0.224-0.207,0.293-0.369H49.4
			c-0.143,0.399-0.344,0.699-0.604,0.9c-0.26,0.201-0.529,0.302-0.806,0.302c-0.187,0-0.37-0.052-0.549-0.156
			c-0.179-0.104-0.312-0.252-0.397-0.446c-0.085-0.193-0.128-0.491-0.128-0.894v-3.76h-0.885V5.635
			c0.224-0.089,0.453-0.241,0.687-0.455c0.234-0.213,0.442-0.467,0.626-0.76c0.093-0.155,0.224-0.438,0.391-0.848H47.923z"/>
		<path style="fill:#0066FF;" d="M50.75,7.515c-0.004,0.83,0.197,1.481,0.604,1.953c0.407,0.472,0.885,0.708,1.435,0.708
			c0.366,0,0.685-0.101,0.955-0.302c0.271-0.202,0.498-0.546,0.681-1.035l0.189,0.122c-0.086,0.558-0.334,1.065-0.745,1.523
			c-0.411,0.458-0.925,0.687-1.544,0.687c-0.671,0-1.246-0.261-1.724-0.784c-0.479-0.523-0.717-1.226-0.717-2.109
			c0-0.956,0.245-1.702,0.735-2.237s1.106-0.803,1.847-0.803c0.626,0,1.141,0.207,1.544,0.62s0.604,0.965,0.604,1.657H50.75z
			 M50.75,7.161h2.588c-0.021-0.358-0.063-0.61-0.128-0.757c-0.102-0.228-0.253-0.407-0.455-0.537
			c-0.201-0.13-0.412-0.195-0.631-0.195c-0.338,0-0.64,0.131-0.907,0.394C50.95,6.328,50.794,6.693,50.75,7.161z"/>
		<path style="fill:#0066FF;" d="M56.942,6.435c0.408-0.407,0.646-0.641,0.721-0.702c0.184-0.154,0.381-0.274,0.592-0.36
			s0.422-0.128,0.629-0.128c0.35,0,0.65,0.102,0.902,0.306c0.254,0.203,0.422,0.498,0.508,0.885
			c0.418-0.488,0.773-0.809,1.062-0.961c0.289-0.152,0.586-0.229,0.891-0.229c0.297,0,0.561,0.077,0.791,0.229
			c0.229,0.153,0.41,0.402,0.545,0.748c0.09,0.236,0.135,0.606,0.135,1.111v2.404c0,0.35,0.027,0.59,0.08,0.721
			c0.039,0.089,0.115,0.166,0.225,0.229c0.109,0.063,0.289,0.095,0.537,0.095V11h-2.758v-0.22h0.115c0.24,0,0.428-0.047,0.562-0.141
			c0.094-0.065,0.16-0.168,0.201-0.311c0.016-0.069,0.023-0.267,0.023-0.592V7.332c0-0.456-0.055-0.777-0.164-0.965
			c-0.158-0.26-0.414-0.391-0.764-0.391c-0.215,0-0.432,0.054-0.65,0.162c-0.217,0.108-0.48,0.308-0.789,0.601l-0.014,0.067
			l0.014,0.263v2.667c0,0.383,0.021,0.621,0.064,0.714c0.041,0.094,0.123,0.172,0.24,0.235c0.117,0.063,0.32,0.095,0.604,0.095V11
			h-2.826v-0.22c0.311,0,0.523-0.037,0.639-0.11s0.197-0.183,0.24-0.33c0.021-0.069,0.031-0.271,0.031-0.604V7.332
			c0-0.456-0.066-0.784-0.201-0.983c-0.18-0.26-0.43-0.391-0.75-0.391c-0.221,0-0.438,0.059-0.654,0.177
			c-0.338,0.179-0.598,0.38-0.781,0.604v2.997c0,0.366,0.025,0.604,0.076,0.714s0.127,0.192,0.227,0.247
			c0.1,0.055,0.303,0.083,0.607,0.083V11h-2.765v-0.22c0.256,0,0.436-0.027,0.537-0.083c0.102-0.055,0.179-0.142,0.232-0.262
			s0.08-0.353,0.08-0.699V7.601c0-0.615-0.019-1.011-0.055-1.19c-0.028-0.134-0.073-0.227-0.134-0.278
			c-0.061-0.051-0.145-0.076-0.25-0.076c-0.114,0-0.25,0.031-0.409,0.091l-0.092-0.22l1.685-0.684h0.262V6.435z"/>
		<path style="fill:#0066FF;" d="M64.453,5.965l1.721-0.696h0.232v1.307c0.288-0.493,0.578-0.837,0.869-1.035
			s0.598-0.296,0.919-0.296c0.562,0,1.029,0.22,1.403,0.659c0.46,0.537,0.689,1.237,0.689,2.1c0,0.965-0.276,1.762-0.83,2.393
			c-0.455,0.517-1.029,0.775-1.721,0.775c-0.301,0-0.562-0.043-0.781-0.128c-0.163-0.062-0.346-0.184-0.549-0.366v1.703
			c0,0.382,0.022,0.625,0.069,0.729c0.047,0.104,0.129,0.186,0.244,0.247c0.116,0.061,0.327,0.091,0.632,0.091v0.226h-2.93v-0.226
			h0.152c0.225,0.004,0.416-0.039,0.574-0.128c0.077-0.045,0.138-0.117,0.18-0.217c0.043-0.1,0.064-0.353,0.064-0.76V7.057
			c0-0.362-0.017-0.592-0.049-0.69s-0.085-0.171-0.155-0.22c-0.071-0.049-0.168-0.073-0.29-0.073c-0.098,0-0.222,0.029-0.373,0.086
			L64.453,5.965z M66.406,6.935v2.087c0,0.452,0.018,0.749,0.055,0.891c0.057,0.236,0.196,0.443,0.418,0.623
			s0.501,0.269,0.839,0.269c0.407,0,0.736-0.159,0.989-0.476c0.329-0.415,0.494-0.999,0.494-1.751c0-0.854-0.188-1.512-0.562-1.972
			c-0.261-0.317-0.569-0.476-0.928-0.476c-0.195,0-0.389,0.049-0.58,0.146C66.985,6.349,66.743,6.569,66.406,6.935z"/>
		<path style="fill:#0066FF;" d="M72.045,7.515c-0.004,0.83,0.198,1.481,0.604,1.953c0.407,0.472,0.886,0.708,1.435,0.708
			c0.366,0,0.685-0.101,0.955-0.302c0.271-0.202,0.498-0.546,0.681-1.035l0.189,0.122c-0.086,0.558-0.334,1.065-0.745,1.523
			c-0.411,0.458-0.926,0.687-1.544,0.687c-0.671,0-1.246-0.261-1.725-0.784c-0.478-0.523-0.717-1.226-0.717-2.109
			c0-0.956,0.245-1.702,0.735-2.237s1.105-0.803,1.847-0.803c0.626,0,1.142,0.207,1.544,0.62s0.604,0.965,0.604,1.657H72.045z
			 M72.045,7.161h2.588c-0.02-0.358-0.062-0.61-0.128-0.757c-0.102-0.228-0.253-0.407-0.454-0.537
			c-0.202-0.13-0.412-0.195-0.632-0.195c-0.338,0-0.641,0.131-0.906,0.394C72.246,6.328,72.09,6.693,72.045,7.161z"/>
		<path style="fill:#0066FF;" d="M78.215,5.244v1.258c0.468-0.838,0.948-1.258,1.44-1.258c0.224,0,0.409,0.068,0.556,0.205
			c0.146,0.137,0.22,0.294,0.22,0.473c0,0.159-0.053,0.293-0.159,0.403c-0.105,0.11-0.231,0.165-0.378,0.165
			c-0.143,0-0.303-0.07-0.479-0.21c-0.177-0.14-0.308-0.21-0.394-0.21c-0.073,0-0.152,0.041-0.238,0.122
			C78.6,6.357,78.41,6.632,78.215,7.015v2.679c0,0.309,0.039,0.543,0.116,0.702c0.053,0.11,0.146,0.202,0.28,0.275
			c0.135,0.073,0.328,0.11,0.58,0.11V11h-2.862v-0.22c0.284,0,0.496-0.045,0.635-0.134c0.102-0.065,0.173-0.169,0.213-0.311
			c0.021-0.069,0.031-0.267,0.031-0.592V7.576c0-0.651-0.014-1.039-0.04-1.163c-0.026-0.124-0.075-0.214-0.146-0.271
			s-0.159-0.085-0.266-0.085c-0.126,0-0.269,0.031-0.427,0.091l-0.062-0.22l1.69-0.684H78.215z"/>
		<path style="fill:#0066FF;" d="M83.859,10.194c-0.574,0.443-0.934,0.7-1.08,0.769c-0.221,0.102-0.454,0.153-0.702,0.153
			c-0.387,0-0.705-0.132-0.955-0.397c-0.251-0.265-0.376-0.612-0.376-1.043c0-0.273,0.062-0.509,0.184-0.708
			c0.167-0.277,0.456-0.537,0.869-0.781s1.1-0.542,2.061-0.892v-0.22c0-0.557-0.089-0.939-0.266-1.147
			c-0.177-0.207-0.435-0.311-0.772-0.311c-0.256,0-0.46,0.069-0.61,0.208c-0.154,0.138-0.231,0.297-0.231,0.476l0.012,0.354
			c0,0.187-0.048,0.332-0.144,0.434c-0.096,0.102-0.221,0.152-0.375,0.152c-0.15,0-0.273-0.053-0.369-0.159s-0.144-0.25-0.144-0.433
			c0-0.35,0.179-0.672,0.537-0.965s0.86-0.439,1.508-0.439c0.496,0,0.903,0.083,1.221,0.25c0.24,0.126,0.417,0.324,0.53,0.592
			c0.074,0.175,0.11,0.533,0.11,1.074v1.898c0,0.533,0.01,0.86,0.03,0.979c0.021,0.12,0.054,0.201,0.101,0.241
			s0.101,0.061,0.162,0.061c0.065,0,0.122-0.014,0.171-0.043c0.086-0.053,0.25-0.201,0.494-0.445v0.342
			c-0.455,0.61-0.891,0.916-1.306,0.916c-0.199,0-0.358-0.069-0.477-0.208S83.863,10.528,83.859,10.194z M83.859,9.798v-2.13
			c-0.614,0.244-1.012,0.417-1.19,0.519c-0.321,0.179-0.552,0.366-0.689,0.562c-0.139,0.195-0.208,0.409-0.208,0.641
			c0,0.293,0.088,0.536,0.263,0.729s0.376,0.29,0.604,0.29C82.947,10.408,83.354,10.205,83.859,9.798z"/>
		<path style="fill:#0066FF;" d="M87.787,3.572v1.837h1.307v0.427h-1.307v3.625c0,0.362,0.053,0.606,0.156,0.732
			s0.237,0.189,0.399,0.189c0.135,0,0.265-0.042,0.391-0.125c0.126-0.083,0.224-0.207,0.293-0.369h0.238
			c-0.143,0.399-0.344,0.699-0.604,0.9c-0.26,0.201-0.528,0.302-0.806,0.302c-0.187,0-0.37-0.052-0.549-0.156
			c-0.18-0.104-0.312-0.252-0.397-0.446c-0.085-0.193-0.128-0.491-0.128-0.894v-3.76h-0.885V5.635
			c0.224-0.089,0.452-0.241,0.687-0.455c0.234-0.213,0.442-0.467,0.626-0.76c0.094-0.155,0.224-0.438,0.391-0.848H87.787z"/>
		<path style="fill:#0066FF;" d="M94.576,5.409v3.388c0,0.646,0.015,1.042,0.046,1.187c0.03,0.145,0.079,0.245,0.146,0.302
			c0.066,0.057,0.146,0.085,0.234,0.085c0.126,0,0.269-0.034,0.428-0.104l0.085,0.214l-1.672,0.689h-0.274V9.987
			c-0.48,0.521-0.847,0.848-1.1,0.983c-0.252,0.134-0.519,0.201-0.799,0.201c-0.313,0-0.585-0.091-0.815-0.271
			c-0.229-0.181-0.39-0.414-0.479-0.699c-0.09-0.285-0.135-0.688-0.135-1.208V6.496c0-0.265-0.028-0.448-0.085-0.549
			c-0.058-0.102-0.142-0.18-0.254-0.235c-0.111-0.055-0.314-0.081-0.607-0.077V5.409h1.96V9.15c0,0.521,0.09,0.863,0.271,1.025
			c0.181,0.163,0.399,0.244,0.656,0.244c0.175,0,0.373-0.055,0.595-0.165s0.485-0.319,0.791-0.628V6.459
			c0-0.317-0.059-0.532-0.175-0.644c-0.115-0.112-0.356-0.172-0.723-0.18V5.409H94.576z"/>
		<path style="fill:#0066FF;" d="M97.561,5.244v1.258c0.468-0.838,0.948-1.258,1.44-1.258c0.224,0,0.409,0.068,0.556,0.205
			c0.146,0.137,0.22,0.294,0.22,0.473c0,0.159-0.053,0.293-0.159,0.403c-0.105,0.11-0.231,0.165-0.378,0.165
			c-0.143,0-0.303-0.07-0.479-0.21c-0.177-0.14-0.308-0.21-0.394-0.21c-0.073,0-0.152,0.041-0.238,0.122
			c-0.183,0.167-0.372,0.441-0.567,0.824v2.679c0,0.309,0.039,0.543,0.116,0.702c0.053,0.11,0.146,0.202,0.28,0.275
			c0.135,0.073,0.328,0.11,0.58,0.11V11h-2.862v-0.22c0.284,0,0.496-0.045,0.635-0.134c0.102-0.065,0.173-0.169,0.213-0.311
			c0.021-0.069,0.031-0.267,0.031-0.592V7.576c0-0.651-0.014-1.039-0.04-1.163c-0.026-0.124-0.075-0.214-0.146-0.271
			s-0.159-0.085-0.266-0.085c-0.126,0-0.269,0.031-0.427,0.091l-0.062-0.22l1.69-0.684H97.561z"/>
	</g>
	<g>
		<path style="fill:#0066FF;" d="M11.611,23.048c0.236-0.558,0.534-0.988,0.894-1.291c0.36-0.303,0.809-0.455,1.346-0.455
			c0.663,0,1.172,0.216,1.525,0.647c0.269,0.321,0.403,0.666,0.403,1.032c0,0.602-0.379,1.225-1.136,1.867
			c0.509,0.2,0.894,0.484,1.154,0.854c0.26,0.371,0.391,0.806,0.391,1.307c0,0.716-0.228,1.336-0.684,1.861
			c-0.594,0.684-1.455,1.025-2.582,1.025c-0.558,0-0.937-0.069-1.139-0.208c-0.201-0.138-0.302-0.287-0.302-0.446
			c0-0.118,0.047-0.222,0.143-0.311s0.21-0.134,0.345-0.134c0.102,0,0.205,0.016,0.311,0.049c0.069,0.021,0.226,0.095,0.47,0.223
			c0.244,0.128,0.413,0.205,0.506,0.229c0.15,0.045,0.311,0.067,0.482,0.067c0.415,0,0.776-0.161,1.083-0.482
			s0.461-0.702,0.461-1.141c0-0.322-0.071-0.635-0.213-0.94c-0.106-0.228-0.222-0.4-0.348-0.519c-0.175-0.163-0.415-0.31-0.72-0.442
			s-0.616-0.198-0.934-0.198h-0.195v-0.184c0.321-0.041,0.644-0.156,0.967-0.348c0.323-0.191,0.558-0.421,0.705-0.689
			s0.22-0.564,0.22-0.885c0-0.419-0.131-0.758-0.394-1.016c-0.262-0.258-0.589-0.388-0.979-0.388c-0.631,0-1.158,0.338-1.581,1.013
			L11.611,23.048z"/>
		<path style="fill:#0066FF;" d="M26.533,32.197v0.226c-0.614-0.309-1.127-0.671-1.538-1.086c-0.586-0.59-1.038-1.286-1.355-2.087
			s-0.476-1.634-0.476-2.497c0-1.261,0.312-2.412,0.934-3.451c0.623-1.04,1.435-1.783,2.436-2.231v0.256
			c-0.5,0.277-0.912,0.655-1.233,1.135s-0.562,1.088-0.72,1.825c-0.159,0.737-0.238,1.506-0.238,2.308
			c0,0.871,0.067,1.662,0.202,2.374c0.106,0.562,0.234,1.012,0.384,1.352c0.151,0.339,0.353,0.666,0.607,0.979
			S26.122,31.913,26.533,32.197z"/>
		<path style="fill:#0066FF;" d="M43.343,26.698v0.867h-1.11v2.185h-1.007v-2.185h-3.503v-0.781l3.839-5.481h0.672v5.396H43.343z
			 M41.226,26.698v-4.107l-2.905,4.107H41.226z"/>
		<path style="fill:#0066FF;" d="M44.058,21.327v-0.256c0.619,0.305,1.133,0.666,1.544,1.081c0.582,0.594,1.031,1.291,1.349,2.09
			c0.317,0.799,0.476,1.632,0.476,2.5c0,1.261-0.311,2.412-0.931,3.451c-0.621,1.04-1.434,1.783-2.438,2.231v-0.226
			c0.5-0.28,0.913-0.66,1.236-1.138c0.324-0.478,0.563-1.086,0.72-1.825c0.157-0.739,0.235-1.509,0.235-2.311
			c0-0.866-0.067-1.658-0.201-2.374c-0.102-0.562-0.229-1.011-0.381-1.349c-0.153-0.338-0.355-0.664-0.607-0.977
			C44.806,21.911,44.473,21.612,44.058,21.327z"/>
	</g>
	<g>
		<path style="fill:#0066FF;" d="M60.635,30.449l2.014-0.982h0.202v6.988c0,0.464,0.019,0.753,0.058,0.867
			c0.039,0.114,0.119,0.201,0.241,0.262s0.37,0.096,0.745,0.104v0.226h-3.113v-0.226c0.391-0.008,0.643-0.042,0.757-0.101
			c0.114-0.059,0.193-0.138,0.238-0.238s0.067-0.398,0.067-0.895v-4.468c0-0.602-0.021-0.988-0.062-1.159
			c-0.028-0.13-0.08-0.226-0.155-0.287c-0.076-0.061-0.166-0.092-0.271-0.092c-0.151,0-0.36,0.063-0.629,0.189L60.635,30.449z"/>
		<path style="fill:#0066FF;" d="M70.846,29.638l-0.476,1.038h-2.49l-0.544,1.111c1.079,0.159,1.934,0.56,2.564,1.202
			c0.541,0.554,0.812,1.205,0.812,1.953c0,0.436-0.089,0.838-0.266,1.209c-0.177,0.37-0.399,0.686-0.669,0.946
			c-0.268,0.26-0.567,0.47-0.896,0.628c-0.468,0.224-0.948,0.336-1.44,0.336c-0.497,0-0.857-0.084-1.084-0.253
			c-0.226-0.168-0.339-0.355-0.339-0.558c0-0.114,0.047-0.215,0.141-0.302s0.212-0.131,0.354-0.131c0.105,0,0.198,0.016,0.277,0.049
			s0.215,0.116,0.406,0.25c0.305,0.212,0.614,0.317,0.928,0.317c0.476,0,0.894-0.18,1.254-0.54c0.36-0.36,0.54-0.798,0.54-1.315
			c0-0.5-0.16-0.967-0.482-1.4c-0.321-0.434-0.765-0.768-1.33-1.004c-0.443-0.184-1.048-0.289-1.812-0.317l1.587-3.217H70.846z"/>
	</g>
	<g>
		<path style="fill:#0066FF;" d="M32.333,45.96l-0.58,1.593H26.87v-0.226c1.437-1.311,2.447-2.381,3.033-3.211
			s0.879-1.589,0.879-2.276c0-0.525-0.161-0.956-0.482-1.294s-0.706-0.507-1.154-0.507c-0.407,0-0.772,0.119-1.095,0.357
			c-0.324,0.238-0.562,0.587-0.717,1.047h-0.226c0.102-0.753,0.363-1.331,0.784-1.733c0.421-0.403,0.947-0.604,1.578-0.604
			c0.671,0,1.232,0.216,1.682,0.647c0.449,0.431,0.674,0.94,0.674,1.526c0,0.419-0.098,0.838-0.293,1.257
			c-0.301,0.659-0.79,1.357-1.465,2.093c-1.013,1.107-1.646,1.774-1.898,2.002h2.161c0.439,0,0.748-0.016,0.924-0.049
			c0.177-0.032,0.337-0.098,0.479-0.198c0.143-0.1,0.267-0.241,0.373-0.424H32.333z"/>
	</g>
	<g>
		<path style="fill:#0066FF;" d="M19.863,55.898l2.014-0.982h0.202v6.988c0,0.464,0.019,0.753,0.058,0.867
			c0.039,0.113,0.119,0.201,0.241,0.262c0.122,0.062,0.37,0.096,0.745,0.104v0.226H20.01v-0.226
			c0.391-0.009,0.643-0.042,0.757-0.101c0.114-0.06,0.193-0.139,0.238-0.238c0.044-0.1,0.067-0.397,0.067-0.895v-4.468
			c0-0.602-0.021-0.988-0.061-1.159c-0.028-0.13-0.081-0.226-0.156-0.287s-0.166-0.092-0.271-0.092c-0.15,0-0.36,0.063-0.628,0.189
			L19.863,55.898z"/>
		<path style="fill:#0066FF;" d="M30.38,61.771l-0.58,1.593h-4.883v-0.226c1.437-1.311,2.447-2.381,3.033-3.211
			s0.879-1.589,0.879-2.276c0-0.525-0.161-0.956-0.482-1.294s-0.706-0.507-1.154-0.507c-0.407,0-0.772,0.119-1.095,0.357
			c-0.324,0.238-0.562,0.587-0.717,1.047h-0.226c0.102-0.753,0.363-1.331,0.784-1.733c0.421-0.403,0.947-0.604,1.578-0.604
			c0.671,0,1.232,0.216,1.682,0.647c0.449,0.431,0.674,0.94,0.674,1.526c0,0.419-0.098,0.838-0.293,1.257
			c-0.301,0.659-0.79,1.357-1.465,2.093c-1.013,1.107-1.646,1.774-1.898,2.002h2.161c0.439,0,0.748-0.016,0.924-0.049
			c0.177-0.032,0.337-0.099,0.479-0.198c0.143-0.1,0.267-0.241,0.373-0.424H30.38z"/>
	</g>
	<g>
		<path style="fill:#0066FF;" d="M43.447,64.082l2.014-0.982h0.202v6.988c0,0.464,0.019,0.753,0.058,0.867
			c0.039,0.113,0.119,0.201,0.241,0.262c0.122,0.062,0.37,0.096,0.745,0.104v0.226h-3.113v-0.226
			c0.391-0.009,0.643-0.042,0.757-0.101c0.114-0.06,0.193-0.139,0.238-0.238c0.044-0.1,0.067-0.397,0.067-0.895V65.62
			c0-0.602-0.021-0.988-0.061-1.159c-0.028-0.131-0.081-0.227-0.156-0.287s-0.166-0.092-0.271-0.092c-0.15,0-0.36,0.063-0.628,0.189
			L43.447,64.082z"/>
		<path style="fill:#0066FF;" d="M53.658,63.271l-0.476,1.038h-2.49l-0.543,1.11c1.078,0.159,1.933,0.56,2.563,1.202
			c0.541,0.554,0.812,1.205,0.812,1.953c0,0.436-0.089,0.839-0.266,1.209c-0.177,0.37-0.4,0.686-0.668,0.945
			c-0.269,0.261-0.568,0.471-0.897,0.629c-0.468,0.224-0.948,0.336-1.44,0.336c-0.497,0-0.858-0.085-1.083-0.253
			c-0.226-0.169-0.339-0.355-0.339-0.559c0-0.114,0.047-0.215,0.14-0.303c0.094-0.087,0.212-0.131,0.354-0.131
			c0.105,0,0.198,0.017,0.277,0.049c0.08,0.032,0.215,0.116,0.406,0.25c0.305,0.212,0.614,0.317,0.928,0.317
			c0.476,0,0.894-0.18,1.254-0.54c0.36-0.36,0.54-0.799,0.54-1.315c0-0.5-0.161-0.967-0.482-1.4s-0.765-0.769-1.331-1.004
			c-0.443-0.184-1.048-0.289-1.812-0.317l1.587-3.217H53.658z"/>
	</g>
	<g>
		<path style="fill:#0066FF;" d="M23.739,79.612l-0.58,1.593h-4.883v-0.226c1.437-1.311,2.447-2.381,3.033-3.211
			s0.879-1.589,0.879-2.276c0-0.525-0.161-0.956-0.482-1.294S21,73.691,20.553,73.691c-0.407,0-0.772,0.119-1.095,0.357
			c-0.324,0.238-0.562,0.587-0.717,1.047h-0.226c0.102-0.753,0.363-1.331,0.784-1.733c0.421-0.403,0.947-0.604,1.578-0.604
			c0.671,0,1.232,0.216,1.682,0.646c0.449,0.432,0.674,0.94,0.674,1.526c0,0.419-0.098,0.838-0.293,1.257
			c-0.301,0.66-0.79,1.357-1.465,2.094c-1.013,1.107-1.646,1.774-1.898,2.002h2.161c0.439,0,0.748-0.016,0.924-0.049
			c0.177-0.032,0.337-0.099,0.479-0.198c0.143-0.1,0.267-0.241,0.373-0.424H23.739z"/>
	</g>
	<g>
		<path style="fill:#0066FF;" d="M26.179,88.578v0.226c-0.537,0.053-0.976,0.16-1.315,0.32c-0.34,0.161-0.675,0.406-1.007,0.735
			c-0.332,0.33-0.606,0.697-0.824,1.103c-0.218,0.404-0.4,0.886-0.546,1.443c0.586-0.403,1.174-0.604,1.764-0.604
			c0.565,0,1.056,0.228,1.471,0.684s0.622,1.042,0.622,1.758c0,0.691-0.209,1.322-0.628,1.893c-0.504,0.691-1.172,1.037-2.002,1.037
			c-0.565,0-1.046-0.188-1.44-0.562c-0.773-0.729-1.16-1.673-1.16-2.832c0-0.74,0.148-1.444,0.445-2.112
			c0.297-0.667,0.721-1.259,1.273-1.775c0.551-0.517,1.079-0.865,1.583-1.044c0.505-0.179,0.975-0.269,1.41-0.269H26.179z
			 M22.383,92.851c-0.073,0.55-0.11,0.993-0.11,1.331c0,0.391,0.072,0.814,0.217,1.272c0.144,0.457,0.359,0.82,0.644,1.089
			c0.207,0.191,0.459,0.287,0.757,0.287c0.354,0,0.67-0.167,0.949-0.5c0.279-0.334,0.418-0.811,0.418-1.429
			c0-0.696-0.139-1.298-0.415-1.807c-0.277-0.509-0.669-0.763-1.178-0.763c-0.155,0-0.32,0.032-0.498,0.098
			C22.99,92.494,22.729,92.635,22.383,92.851z"/>
		<path style="fill:#0066FF;" d="M38.403,89.561l2.014-0.982h0.202v6.988c0,0.464,0.019,0.753,0.058,0.867
			c0.039,0.113,0.119,0.201,0.241,0.262c0.122,0.062,0.37,0.096,0.745,0.104v0.226H38.55V96.8c0.391-0.009,0.643-0.042,0.757-0.101
			c0.114-0.06,0.193-0.139,0.238-0.238c0.044-0.1,0.067-0.397,0.067-0.895v-4.468c0-0.602-0.021-0.988-0.061-1.159
			c-0.028-0.131-0.081-0.227-0.156-0.287s-0.166-0.092-0.271-0.092c-0.15,0-0.36,0.063-0.628,0.189L38.403,89.561z"/>
		<path style="fill:#0066FF;" d="M48.614,88.749l-0.476,1.038h-2.49l-0.543,1.11c1.078,0.159,1.933,0.56,2.563,1.202
			c0.541,0.554,0.812,1.205,0.812,1.953c0,0.436-0.089,0.839-0.266,1.209c-0.177,0.37-0.4,0.686-0.668,0.945
			c-0.269,0.261-0.568,0.471-0.897,0.629c-0.468,0.224-0.948,0.336-1.44,0.336c-0.497,0-0.858-0.085-1.083-0.253
			c-0.226-0.169-0.339-0.355-0.339-0.559c0-0.114,0.047-0.215,0.14-0.303c0.094-0.087,0.212-0.131,0.354-0.131
			c0.105,0,0.198,0.017,0.277,0.049c0.08,0.032,0.215,0.116,0.406,0.25c0.305,0.212,0.614,0.317,0.928,0.317
			c0.476,0,0.894-0.18,1.254-0.54c0.36-0.36,0.54-0.799,0.54-1.315c0-0.5-0.161-0.967-0.482-1.4s-0.765-0.769-1.331-1.004
			c-0.443-0.184-1.048-0.289-1.812-0.317l1.587-3.217H48.614z"/>
	</g>
	<g>
		<path style="fill:#0066FF;" d="M23.153,114.183l-0.58,1.593H17.69v-0.226c1.437-1.311,2.447-2.381,3.033-3.211
			s0.879-1.589,0.879-2.276c0-0.525-0.161-0.956-0.482-1.294s-0.706-0.507-1.154-0.507c-0.407,0-0.772,0.119-1.095,0.357
			c-0.324,0.238-0.562,0.587-0.717,1.047h-0.226c0.102-0.753,0.363-1.331,0.784-1.733c0.421-0.403,0.947-0.604,1.578-0.604
			c0.671,0,1.232,0.216,1.682,0.646c0.449,0.432,0.674,0.94,0.674,1.526c0,0.419-0.098,0.838-0.293,1.257
			c-0.301,0.66-0.79,1.357-1.465,2.094c-1.013,1.107-1.646,1.774-1.898,2.002h2.161c0.439,0,0.748-0.016,0.924-0.049
			c0.177-0.032,0.337-0.099,0.479-0.198c0.143-0.1,0.267-0.241,0.373-0.424H23.153z"/>
		<path style="fill:#0066FF;" d="M25.137,108.311l2.014-0.982h0.202v6.988c0,0.464,0.019,0.753,0.058,0.867
			c0.039,0.113,0.119,0.201,0.241,0.262c0.122,0.062,0.37,0.096,0.745,0.104v0.226h-3.113v-0.226
			c0.391-0.009,0.643-0.042,0.757-0.101c0.114-0.06,0.193-0.139,0.238-0.238c0.044-0.1,0.067-0.397,0.067-0.895v-4.468
			c0-0.602-0.021-0.988-0.061-1.159c-0.028-0.131-0.081-0.227-0.156-0.287s-0.166-0.092-0.271-0.092c-0.15,0-0.36,0.063-0.628,0.189
			L25.137,108.311z"/>
	</g>
	<g>
		<path style="fill:#0066FF;" d="M103.39,6.367h6.409v0.592h-6.409V6.367z M103.39,8.644h6.409v0.604h-6.409V8.644z"/>
	</g>
	<g>
		<path style="fill:#0066FF;" d="M20.32,26.552c0,0.187-0.066,0.347-0.198,0.479c-0.132,0.132-0.29,0.199-0.473,0.199
			c-0.187,0-0.347-0.066-0.479-0.199c-0.132-0.132-0.199-0.292-0.199-0.479s0.066-0.347,0.199-0.479
			c0.132-0.132,0.292-0.199,0.479-0.199c0.183,0,0.341,0.066,0.473,0.199C20.253,26.205,20.32,26.365,20.32,26.552z"/>
		<path style="fill:#0066FF;" d="M27.562,26.234h6.409v0.604h-6.409V26.234z"/>
	</g>
	<g>
		<path style="fill:#0066FF;" d="M0.226,33.281h6.409v0.592H0.226V33.281z M0.226,35.558h6.409v0.604H0.226V35.558z"/>
		<path style="fill:#0066FF;" d="M51.511,34.398h6.409v0.604h-6.409V34.398z"/>
		<path style="fill:#0066FF;" d="M74.671,33.281h6.409v0.592h-6.409V33.281z M74.671,35.558h6.409v0.604h-6.409V35.558z"/>
	</g>
	<g>
		<path style="fill:#0066FF;" d="M11.788,59.848h6.409v0.604h-6.409V59.848z"/>
	</g>
	<g>
		<path style="fill:#0066FF;" d="M0.226,66.914h6.409v0.592H0.226V66.914z M0.226,69.191h6.409v0.604H0.226V69.191z"/>
		<path style="fill:#0066FF;" d="M34.323,68.031h6.409v0.604h-6.409V68.031z"/>
		<path style="fill:#0066FF;" d="M57.483,66.914h6.409v0.592h-6.409V66.914z M57.483,69.191h6.409v0.604h-6.409V69.191z"/>
	</g>
	<g>
		<path style="fill:#0066FF;" d="M0.226,92.393h6.409v0.592H0.226V92.393z M0.226,94.67h6.409v0.604H0.226V94.67z"/>
		<path style="fill:#0066FF;" d="M10.811,93.51h6.409v0.604h-6.409V93.51z"/>
		<path style="fill:#0066FF;" d="M29.284,93.51h6.409v0.604h-6.409V93.51z"/>
		<path style="fill:#0066FF;" d="M52.444,92.393h6.409v0.592h-6.409V92.393z M52.444,94.67h6.409v0.604h-6.409V94.67z"/>
	</g>
	<g>
		<path style="fill:#0066FF;" d="M0.226,111.143h6.409v0.592H0.226V111.143z M0.226,113.42h6.409v0.604H0.226V113.42z"/>
		<path style="fill:#0066FF;" d="M10.811,112.26h6.409v0.604h-6.409V112.26z"/>
	</g>
</g>
<g id="theGroup">
</g>
</svg>
