<?xml version="1.0" encoding="iso-8859-1"?>
<!-- Generator: Adobe Illustrator 16.0.0, SVG Export Plug-In . SVG Version: 6.00 Build 0)  -->
<!DOCTYPE svg PUBLIC "-//W3C//DTD SVG 1.1//EN" "http://www.w3.org/Graphics/SVG/1.1/DTD/svg11.dtd">
<svg version="1.1" id="Lager_1" xmlns="http://www.w3.org/2000/svg" xmlns:xlink="http://www.w3.org/1999/xlink" x="0px" y="0px"
	 width="96.869px" height="71.704px" viewBox="0 0 96.869 71.704" style="enable-background:new 0 0 96.869 71.704;"
	 xml:space="preserve">
<g>
	<g>
		<path style="fill:#0066FF;" d="M22.135,2.131c0.136-0.322,0.309-0.571,0.517-0.746c0.208-0.175,0.468-0.263,0.778-0.263
			c0.383,0,0.677,0.125,0.882,0.374c0.155,0.186,0.233,0.385,0.233,0.597c0,0.348-0.219,0.708-0.656,1.08
			c0.294,0.115,0.517,0.28,0.667,0.494c0.15,0.214,0.226,0.466,0.226,0.755c0,0.414-0.131,0.773-0.395,1.076
			c-0.343,0.396-0.841,0.593-1.493,0.593c-0.322,0-0.542-0.04-0.658-0.12c-0.117-0.08-0.175-0.166-0.175-0.258
			c0-0.068,0.027-0.128,0.083-0.18c0.055-0.052,0.122-0.078,0.199-0.078c0.059,0,0.119,0.009,0.18,0.028
			c0.04,0.012,0.131,0.055,0.272,0.129s0.239,0.118,0.293,0.132c0.087,0.026,0.18,0.039,0.279,0.039c0.24,0,0.449-0.093,0.626-0.279
			c0.178-0.186,0.267-0.406,0.267-0.66c0-0.186-0.041-0.367-0.124-0.543c-0.061-0.132-0.128-0.232-0.201-0.3
			c-0.101-0.094-0.24-0.179-0.417-0.256c-0.176-0.076-0.356-0.114-0.54-0.114h-0.113V3.525c0.186-0.023,0.373-0.091,0.56-0.201
			c0.187-0.111,0.323-0.244,0.408-0.399c0.084-0.155,0.127-0.326,0.127-0.512c0-0.242-0.076-0.438-0.228-0.587
			c-0.152-0.149-0.341-0.224-0.566-0.224c-0.365,0-0.669,0.195-0.914,0.586L22.135,2.131z"/>
	</g>
	<g>
		<path style="fill:#0066FF;" d="M3.882,14.068v0.226c-0.614-0.309-1.127-0.671-1.538-1.086c-0.586-0.59-1.038-1.286-1.355-2.087
			S0.513,9.487,0.513,8.624c0-1.261,0.312-2.412,0.934-3.451c0.623-1.04,1.435-1.783,2.436-2.231v0.256
			c-0.5,0.277-0.912,0.655-1.233,1.135s-0.562,1.088-0.72,1.825C1.77,6.895,1.69,7.664,1.69,8.466c0,0.871,0.067,1.662,0.202,2.374
			c0.106,0.562,0.234,1.012,0.384,1.352c0.151,0.339,0.353,0.666,0.607,0.979S3.471,13.784,3.882,14.068z"/>
		<path style="fill:#0066FF;" d="M12.147,4.919c0.236-0.558,0.534-0.988,0.894-1.291c0.36-0.303,0.809-0.455,1.346-0.455
			c0.663,0,1.172,0.216,1.525,0.647c0.269,0.321,0.403,0.666,0.403,1.032c0,0.602-0.379,1.225-1.136,1.867
			c0.509,0.2,0.894,0.484,1.154,0.854c0.26,0.371,0.391,0.806,0.391,1.307c0,0.716-0.228,1.336-0.684,1.861
			c-0.594,0.684-1.455,1.025-2.582,1.025c-0.558,0-0.937-0.069-1.139-0.208c-0.201-0.138-0.302-0.287-0.302-0.446
			c0-0.118,0.047-0.222,0.143-0.311s0.21-0.134,0.345-0.134c0.102,0,0.205,0.016,0.311,0.049c0.069,0.021,0.226,0.095,0.47,0.223
			c0.244,0.128,0.413,0.205,0.506,0.229c0.15,0.045,0.311,0.067,0.482,0.067c0.415,0,0.776-0.161,1.083-0.482
			s0.461-0.702,0.461-1.141c0-0.322-0.071-0.635-0.213-0.94c-0.106-0.228-0.222-0.4-0.348-0.519c-0.175-0.163-0.415-0.31-0.72-0.442
			s-0.616-0.198-0.934-0.198h-0.195V7.33c0.321-0.041,0.644-0.156,0.967-0.348c0.323-0.191,0.558-0.421,0.705-0.689
			s0.22-0.564,0.22-0.885c0-0.419-0.131-0.758-0.394-1.016c-0.262-0.258-0.589-0.388-0.979-0.388c-0.631,0-1.158,0.338-1.581,1.013
			L12.147,4.919z"/>
		<path style="fill:#0066FF;" d="M17.656,3.198V2.942c0.619,0.305,1.133,0.666,1.544,1.081c0.582,0.594,1.031,1.291,1.349,2.09
			c0.317,0.799,0.476,1.632,0.476,2.5c0,1.261-0.311,2.412-0.931,3.451c-0.621,1.04-1.434,1.783-2.438,2.231v-0.226
			c0.5-0.28,0.913-0.66,1.236-1.138c0.324-0.478,0.563-1.086,0.72-1.825c0.157-0.739,0.235-1.509,0.235-2.311
			c0-0.866-0.067-1.658-0.201-2.374c-0.102-0.562-0.229-1.011-0.381-1.349c-0.153-0.338-0.355-0.664-0.607-0.977
			C18.404,3.782,18.071,3.483,17.656,3.198z"/>
	</g>
	<g>
		<path style="fill:#0066FF;" d="M14.282,32.818v0.226c-0.614-0.309-1.127-0.671-1.538-1.086c-0.586-0.59-1.038-1.286-1.355-2.087
			s-0.476-1.634-0.476-2.497c0-1.261,0.312-2.412,0.934-3.451c0.623-1.04,1.435-1.783,2.436-2.231v0.256
			c-0.5,0.277-0.912,0.655-1.233,1.135s-0.562,1.088-0.72,1.825c-0.159,0.737-0.238,1.506-0.238,2.308
			c0,0.871,0.067,1.662,0.202,2.374c0.106,0.562,0.234,1.012,0.384,1.352c0.151,0.339,0.353,0.666,0.607,0.979
			S13.871,32.534,14.282,32.818z"/>
		<path style="fill:#0066FF;" d="M22.548,23.669c0.236-0.558,0.534-0.988,0.894-1.291c0.36-0.303,0.809-0.455,1.346-0.455
			c0.663,0,1.172,0.216,1.525,0.647c0.269,0.321,0.403,0.666,0.403,1.032c0,0.602-0.379,1.225-1.136,1.867
			c0.509,0.2,0.894,0.484,1.154,0.854c0.26,0.371,0.391,0.806,0.391,1.307c0,0.716-0.228,1.336-0.684,1.861
			c-0.594,0.684-1.455,1.025-2.582,1.025c-0.558,0-0.937-0.069-1.139-0.208c-0.201-0.138-0.302-0.287-0.302-0.446
			c0-0.118,0.047-0.222,0.143-0.311s0.21-0.134,0.345-0.134c0.102,0,0.205,0.016,0.311,0.049c0.069,0.021,0.226,0.095,0.47,0.223
			c0.244,0.128,0.413,0.205,0.506,0.229c0.15,0.045,0.311,0.067,0.482,0.067c0.415,0,0.776-0.161,1.083-0.482
			s0.461-0.702,0.461-1.141c0-0.322-0.071-0.635-0.213-0.94c-0.106-0.228-0.222-0.4-0.348-0.519c-0.175-0.163-0.415-0.31-0.72-0.442
			s-0.616-0.198-0.934-0.198h-0.195V26.08c0.321-0.041,0.644-0.156,0.967-0.348c0.323-0.191,0.558-0.421,0.705-0.689
			s0.22-0.564,0.22-0.885c0-0.419-0.131-0.758-0.394-1.016c-0.262-0.258-0.589-0.388-0.979-0.388c-0.631,0-1.158,0.338-1.581,1.013
			L22.548,23.669z"/>
		<path style="fill:#0066FF;" d="M28.056,21.948v-0.256c0.619,0.305,1.133,0.666,1.544,1.081c0.582,0.594,1.031,1.291,1.349,2.09
			c0.317,0.799,0.476,1.632,0.476,2.5c0,1.261-0.311,2.412-0.931,3.451c-0.621,1.04-1.434,1.783-2.438,2.231v-0.226
			c0.5-0.28,0.913-0.66,1.236-1.138c0.324-0.478,0.563-1.086,0.72-1.825c0.157-0.739,0.235-1.509,0.235-2.311
			c0-0.866-0.067-1.658-0.201-2.374c-0.102-0.562-0.229-1.011-0.381-1.349c-0.153-0.338-0.355-0.664-0.607-0.977
			C28.805,22.532,28.471,22.233,28.056,21.948z"/>
		<path style="fill:#0066FF;" d="M41.77,32.818v0.226c-0.614-0.309-1.127-0.671-1.538-1.086c-0.586-0.59-1.038-1.286-1.355-2.087
			s-0.476-1.634-0.476-2.497c0-1.261,0.312-2.412,0.934-3.451c0.623-1.04,1.435-1.783,2.436-2.231v0.256
			c-0.5,0.277-0.912,0.655-1.233,1.135s-0.562,1.088-0.72,1.825c-0.159,0.737-0.238,1.506-0.238,2.308
			c0,0.871,0.067,1.662,0.202,2.374c0.106,0.562,0.234,1.012,0.384,1.352c0.151,0.339,0.353,0.666,0.607,0.979
			S41.359,32.534,41.77,32.818z"/>
		<path style="fill:#0066FF;" d="M50.035,23.669c0.236-0.558,0.534-0.988,0.895-1.291c0.359-0.303,0.809-0.455,1.346-0.455
			c0.663,0,1.172,0.216,1.525,0.647c0.269,0.321,0.403,0.666,0.403,1.032c0,0.602-0.379,1.225-1.136,1.867
			c0.509,0.2,0.894,0.484,1.154,0.854c0.26,0.371,0.391,0.806,0.391,1.307c0,0.716-0.229,1.336-0.684,1.861
			c-0.595,0.684-1.455,1.025-2.582,1.025c-0.558,0-0.938-0.069-1.139-0.208s-0.302-0.287-0.302-0.446
			c0-0.118,0.048-0.222,0.144-0.311c0.095-0.089,0.21-0.134,0.345-0.134c0.102,0,0.205,0.016,0.312,0.049
			c0.068,0.021,0.226,0.095,0.47,0.223c0.244,0.128,0.413,0.205,0.507,0.229c0.15,0.045,0.311,0.067,0.481,0.067
			c0.415,0,0.776-0.161,1.084-0.482c0.307-0.321,0.46-0.702,0.46-1.141c0-0.322-0.07-0.635-0.213-0.94
			c-0.106-0.228-0.222-0.4-0.348-0.519c-0.176-0.163-0.416-0.31-0.721-0.442s-0.616-0.198-0.934-0.198h-0.195V26.08
			c0.321-0.041,0.644-0.156,0.967-0.348c0.324-0.191,0.559-0.421,0.705-0.689s0.22-0.564,0.22-0.885
			c0-0.419-0.131-0.758-0.394-1.016s-0.589-0.388-0.979-0.388c-0.631,0-1.157,0.338-1.581,1.013L50.035,23.669z"/>
		<path style="fill:#0066FF;" d="M55.545,21.948v-0.256c0.618,0.305,1.133,0.666,1.544,1.081c0.582,0.594,1.031,1.291,1.349,2.09
			c0.317,0.799,0.477,1.632,0.477,2.5c0,1.261-0.311,2.412-0.932,3.451c-0.62,1.04-1.433,1.783-2.438,2.231v-0.226
			c0.5-0.28,0.912-0.66,1.235-1.138s0.563-1.086,0.721-1.825c0.156-0.739,0.234-1.509,0.234-2.311c0-0.866-0.067-1.658-0.201-2.374
			c-0.102-0.562-0.229-1.011-0.382-1.349c-0.152-0.338-0.354-0.664-0.607-0.977C56.293,22.532,55.959,22.233,55.545,21.948z"/>
		<path style="fill:#0066FF;" d="M69.258,32.818v0.226c-0.614-0.309-1.127-0.671-1.538-1.086c-0.586-0.59-1.037-1.286-1.355-2.087
			c-0.316-0.802-0.476-1.634-0.476-2.497c0-1.261,0.312-2.412,0.934-3.451c0.623-1.04,1.435-1.783,2.436-2.231v0.256
			c-0.501,0.277-0.911,0.655-1.233,1.135c-0.321,0.48-0.561,1.088-0.72,1.825c-0.159,0.737-0.238,1.506-0.238,2.308
			c0,0.871,0.067,1.662,0.202,2.374c0.105,0.562,0.233,1.012,0.384,1.352c0.15,0.339,0.354,0.666,0.607,0.979
			S68.847,32.534,69.258,32.818z"/>
		<path style="fill:#0066FF;" d="M77.523,23.669c0.236-0.558,0.534-0.988,0.895-1.291c0.359-0.303,0.809-0.455,1.346-0.455
			c0.663,0,1.172,0.216,1.525,0.647c0.269,0.321,0.403,0.666,0.403,1.032c0,0.602-0.379,1.225-1.136,1.867
			c0.509,0.2,0.894,0.484,1.154,0.854c0.26,0.371,0.391,0.806,0.391,1.307c0,0.716-0.229,1.336-0.684,1.861
			c-0.595,0.684-1.455,1.025-2.582,1.025c-0.558,0-0.938-0.069-1.139-0.208s-0.302-0.287-0.302-0.446
			c0-0.118,0.048-0.222,0.144-0.311c0.095-0.089,0.21-0.134,0.345-0.134c0.102,0,0.205,0.016,0.312,0.049
			c0.068,0.021,0.226,0.095,0.47,0.223c0.244,0.128,0.413,0.205,0.507,0.229c0.15,0.045,0.311,0.067,0.481,0.067
			c0.415,0,0.776-0.161,1.084-0.482c0.307-0.321,0.46-0.702,0.46-1.141c0-0.322-0.07-0.635-0.213-0.94
			c-0.106-0.228-0.222-0.4-0.348-0.519c-0.176-0.163-0.416-0.31-0.721-0.442s-0.616-0.198-0.934-0.198h-0.195V26.08
			c0.321-0.041,0.644-0.156,0.967-0.348c0.324-0.191,0.559-0.421,0.705-0.689s0.22-0.564,0.22-0.885
			c0-0.419-0.131-0.758-0.394-1.016s-0.589-0.388-0.979-0.388c-0.631,0-1.157,0.338-1.581,1.013L77.523,23.669z"/>
		<path style="fill:#0066FF;" d="M83.032,21.948v-0.256c0.618,0.305,1.133,0.666,1.544,1.081c0.582,0.594,1.031,1.291,1.349,2.09
			c0.317,0.799,0.477,1.632,0.477,2.5c0,1.261-0.311,2.412-0.932,3.451c-0.62,1.04-1.433,1.783-2.438,2.231v-0.226
			c0.5-0.28,0.912-0.66,1.235-1.138s0.563-1.086,0.721-1.825c0.156-0.739,0.234-1.509,0.234-2.311c0-0.866-0.067-1.658-0.201-2.374
			c-0.102-0.562-0.229-1.011-0.382-1.349c-0.152-0.338-0.354-0.664-0.607-0.977C83.78,22.532,83.446,22.233,83.032,21.948z"/>
	</g>
	<g>
		<path style="fill:#0066FF;" d="M10.864,49.292v-0.226c0.529-0.009,1.021-0.132,1.477-0.369c0.456-0.238,0.896-0.654,1.321-1.248
			c0.425-0.595,0.721-1.248,0.888-1.96c-0.639,0.411-1.217,0.616-1.733,0.616c-0.582,0-1.08-0.225-1.495-0.674
			s-0.623-1.047-0.623-1.791c0-0.725,0.208-1.37,0.623-1.936c0.5-0.688,1.153-1.031,1.959-1.031c0.68,0,1.261,0.281,1.746,0.842
			c0.594,0.696,0.891,1.555,0.891,2.576c0,0.92-0.226,1.777-0.678,2.572c-0.451,0.796-1.08,1.456-1.886,1.98
			c-0.655,0.432-1.369,0.647-2.143,0.647H10.864z M14.648,45.038c0.073-0.529,0.11-0.952,0.11-1.27c0-0.395-0.067-0.821-0.202-1.279
			c-0.134-0.457-0.324-0.809-0.57-1.053c-0.247-0.244-0.526-0.366-0.839-0.366c-0.362,0-0.68,0.163-0.952,0.488
			c-0.272,0.326-0.409,0.81-0.409,1.453c0,0.858,0.181,1.529,0.543,2.014c0.265,0.351,0.59,0.525,0.977,0.525
			c0.187,0,0.409-0.045,0.665-0.135C14.228,45.327,14.453,45.2,14.648,45.038z"/>
		<path style="fill:#0066FF;" d="M26.149,51.568v0.227c-0.614-0.31-1.127-0.672-1.538-1.087c-0.586-0.59-1.038-1.286-1.355-2.087
			c-0.317-0.802-0.476-1.634-0.476-2.497c0-1.261,0.312-2.411,0.934-3.451c0.623-1.04,1.435-1.783,2.436-2.231v0.257
			c-0.5,0.276-0.912,0.655-1.233,1.136c-0.321,0.479-0.562,1.088-0.72,1.824s-0.238,1.506-0.238,2.308
			c0,0.87,0.067,1.662,0.202,2.374c0.106,0.562,0.234,1.012,0.384,1.352c0.151,0.34,0.353,0.667,0.607,0.98
			C25.406,50.984,25.738,51.284,26.149,51.568z"/>
		<path style="fill:#0066FF;" d="M34.415,42.42c0.236-0.558,0.534-0.988,0.894-1.291c0.36-0.304,0.809-0.455,1.346-0.455
			c0.663,0,1.172,0.216,1.525,0.646c0.269,0.322,0.403,0.666,0.403,1.032c0,0.602-0.379,1.225-1.136,1.867
			c0.509,0.199,0.894,0.484,1.154,0.854s0.391,0.806,0.391,1.307c0,0.716-0.228,1.336-0.684,1.861
			c-0.594,0.684-1.455,1.025-2.582,1.025c-0.558,0-0.937-0.069-1.139-0.207c-0.201-0.139-0.302-0.287-0.302-0.446
			c0-0.118,0.047-0.222,0.143-0.312c0.096-0.089,0.21-0.134,0.345-0.134c0.102,0,0.205,0.017,0.311,0.049
			c0.069,0.021,0.226,0.095,0.47,0.223s0.413,0.204,0.506,0.229c0.15,0.044,0.311,0.066,0.482,0.066c0.415,0,0.776-0.16,1.083-0.482
			c0.307-0.321,0.461-0.701,0.461-1.141c0-0.321-0.071-0.635-0.213-0.94c-0.106-0.228-0.222-0.4-0.348-0.519
			c-0.175-0.163-0.415-0.311-0.72-0.442s-0.616-0.198-0.934-0.198h-0.195V44.83c0.321-0.04,0.644-0.156,0.967-0.348
			c0.323-0.191,0.558-0.421,0.705-0.689s0.22-0.563,0.22-0.885c0-0.42-0.131-0.758-0.394-1.017
			c-0.262-0.259-0.589-0.388-0.979-0.388c-0.631,0-1.158,0.338-1.581,1.014L34.415,42.42z"/>
		<path style="fill:#0066FF;" d="M39.923,40.698v-0.257c0.619,0.306,1.133,0.666,1.544,1.081c0.582,0.594,1.031,1.291,1.349,2.09
			c0.317,0.8,0.476,1.633,0.476,2.5c0,1.261-0.311,2.412-0.931,3.451c-0.621,1.04-1.434,1.783-2.438,2.231v-0.227
			c0.5-0.28,0.913-0.66,1.236-1.138c0.324-0.479,0.563-1.087,0.72-1.825s0.235-1.509,0.235-2.311c0-0.866-0.067-1.658-0.201-2.374
			c-0.102-0.562-0.229-1.011-0.381-1.349c-0.153-0.338-0.355-0.663-0.607-0.977S40.338,40.983,39.923,40.698z"/>
	</g>
	<g>
		<path style="fill:#0066FF;" d="M23.358,66.278l-0.58,1.593h-4.883v-0.226c1.437-1.311,2.447-2.381,3.033-3.211
			s0.879-1.589,0.879-2.276c0-0.525-0.161-0.956-0.482-1.294s-0.706-0.507-1.154-0.507c-0.407,0-0.772,0.119-1.095,0.357
			c-0.324,0.238-0.562,0.587-0.717,1.047h-0.226c0.102-0.753,0.363-1.331,0.784-1.733c0.421-0.403,0.947-0.604,1.578-0.604
			c0.671,0,1.232,0.216,1.682,0.646c0.449,0.432,0.674,0.94,0.674,1.526c0,0.419-0.098,0.838-0.293,1.257
			c-0.301,0.66-0.79,1.357-1.465,2.094c-1.013,1.107-1.646,1.774-1.898,2.002h2.161c0.439,0,0.748-0.016,0.924-0.049
			c0.177-0.032,0.337-0.099,0.479-0.198c0.143-0.1,0.267-0.241,0.373-0.424H23.358z"/>
		<path style="fill:#0066FF;" d="M25.134,59.595h4.437v0.231l-2.759,8.216h-0.684l2.472-7.452h-2.277
			c-0.459,0-0.787,0.055-0.982,0.164c-0.342,0.188-0.616,0.477-0.824,0.867l-0.177-0.067L25.134,59.595z"/>
	</g>
	<g>
		<path style="fill:#0066FF;" d="M4.913,8.105h6.409V8.71H4.913V8.105z"/>
		<path style="fill:#0066FF;" d="M29.986,6.988h6.409v0.592h-6.409V6.988z M29.986,9.265h6.409v0.604h-6.409V9.265z"/>
	</g>
	<g>
		<path style="fill:#0066FF;" d="M0.431,25.738H6.84v0.592H0.431V25.738z M0.431,28.015H6.84v0.604H0.431V28.015z"/>
		<path style="fill:#0066FF;" d="M15.304,26.855h6.409v0.604h-6.409V26.855z"/>
		<path style="fill:#0066FF;" d="M35.547,27.173c0,0.187-0.066,0.347-0.198,0.479c-0.132,0.132-0.29,0.199-0.473,0.199
			c-0.187,0-0.347-0.066-0.479-0.199c-0.132-0.132-0.199-0.292-0.199-0.479s0.066-0.347,0.199-0.479
			c0.132-0.132,0.292-0.199,0.479-0.199c0.183,0,0.341,0.066,0.473,0.199C35.481,26.826,35.547,26.986,35.547,27.173z"/>
		<path style="fill:#0066FF;" d="M42.789,26.855h6.409v0.604h-6.409V26.855z"/>
		<path style="fill:#0066FF;" d="M63.033,27.173c0,0.187-0.066,0.347-0.199,0.479c-0.132,0.132-0.289,0.199-0.473,0.199
			c-0.188,0-0.347-0.066-0.479-0.199c-0.132-0.132-0.198-0.292-0.198-0.479s0.066-0.347,0.198-0.479
			c0.133-0.132,0.292-0.199,0.479-0.199c0.184,0,0.341,0.066,0.473,0.199C62.967,26.826,63.033,26.986,63.033,27.173z"/>
		<path style="fill:#0066FF;" d="M70.274,26.855h6.409v0.604h-6.409V26.855z"/>
		<path style="fill:#0066FF;" d="M90.234,25.738h6.409v0.592h-6.409V25.738z M90.234,28.015h6.409v0.604h-6.409V28.015z"/>
	</g>
	<g>
		<path style="fill:#0066FF;" d="M0.431,44.488H6.84v0.592H0.431V44.488z M0.431,46.766H6.84v0.604H0.431V46.766z"/>
		<path style="fill:#0066FF;" d="M19.937,45.923c0,0.188-0.066,0.347-0.198,0.479c-0.132,0.132-0.29,0.198-0.473,0.198
			c-0.187,0-0.347-0.066-0.479-0.198c-0.132-0.133-0.199-0.292-0.199-0.479s0.066-0.347,0.199-0.479
			c0.132-0.132,0.292-0.198,0.479-0.198c0.183,0,0.341,0.066,0.473,0.198C19.871,45.576,19.937,45.735,19.937,45.923z"/>
		<path style="fill:#0066FF;" d="M27.179,45.605h6.409v0.604h-6.409V45.605z"/>
		<path style="fill:#0066FF;" d="M47.139,44.488h6.409v0.592h-6.409V44.488z M47.139,46.766h6.409v0.604h-6.409V46.766z"/>
	</g>
	<g>
		<path style="fill:#0066FF;" d="M0.431,63.238H6.84v0.592H0.431V63.238z M0.431,65.516H6.84v0.604H0.431V65.516z"/>
		<path style="fill:#0066FF;" d="M11.016,64.355h6.409v0.604h-6.409V64.355z"/>
	</g>
</g>
<g id="theGroup">
</g>
</svg>
