<?xml version="1.0" encoding="iso-8859-1"?>
<!-- Generator: Adobe Illustrator 16.0.0, SVG Export Plug-In . SVG Version: 6.00 Build 0)  -->
<!DOCTYPE svg PUBLIC "-//W3C//DTD SVG 1.1//EN" "http://www.w3.org/Graphics/SVG/1.1/DTD/svg11.dtd">
<svg version="1.1" id="Lager_1" xmlns="http://www.w3.org/2000/svg" xmlns:xlink="http://www.w3.org/1999/xlink" x="0px" y="0px"
	 width="74.512px" height="15.454px" viewBox="0 0 74.512 15.454" style="enable-background:new 0 0 74.512 15.454;"
	 xml:space="preserve">
<g>
	<g>
		<path d="M74.261,4.242v0.501h-0.642v1.263h-0.582V4.743h-2.025V4.291l2.219-3.169h0.389v3.12H74.261z M73.037,4.242V1.867
			l-1.68,2.375H73.037z"/>
	</g>
	<g>
		<path d="M5.603,3.174v0.226C5.066,3.453,4.627,3.56,4.288,3.72S3.612,4.126,3.281,4.456c-0.332,0.33-0.606,0.697-0.824,1.102
			c-0.218,0.405-0.4,0.886-0.546,1.444c0.586-0.403,1.174-0.604,1.764-0.604c0.565,0,1.056,0.228,1.471,0.684
			s0.622,1.042,0.622,1.758c0,0.691-0.209,1.322-0.628,1.893c-0.504,0.691-1.172,1.037-2.002,1.037c-0.565,0-1.046-0.188-1.44-0.562
			c-0.773-0.729-1.16-1.673-1.16-2.832c0-0.741,0.148-1.444,0.445-2.112C1.28,5.595,1.704,5.003,2.255,4.486
			c0.551-0.517,1.079-0.865,1.583-1.044c0.505-0.179,0.975-0.269,1.41-0.269H5.603z M1.807,7.446
			c-0.073,0.549-0.11,0.993-0.11,1.331c0,0.391,0.072,0.814,0.217,1.272c0.144,0.457,0.359,0.82,0.644,1.089
			c0.207,0.191,0.459,0.287,0.757,0.287c0.354,0,0.67-0.167,0.949-0.5c0.279-0.334,0.418-0.811,0.418-1.429
			c0-0.696-0.139-1.298-0.415-1.807C3.99,7.182,3.597,6.928,3.088,6.928c-0.155,0-0.32,0.032-0.498,0.098
			C2.414,7.09,2.152,7.23,1.807,7.446z"/>
		<path d="M6.702,7.532c0-0.944,0.143-1.757,0.427-2.438C7.414,4.412,7.792,3.904,8.264,3.57C8.63,3.306,9.009,3.174,9.399,3.174
			c0.635,0,1.205,0.323,1.709,0.971c0.631,0.801,0.946,1.888,0.946,3.259c0,0.96-0.139,1.776-0.415,2.448
			c-0.277,0.671-0.63,1.158-1.059,1.461c-0.43,0.304-0.843,0.455-1.242,0.455c-0.79,0-1.447-0.466-1.971-1.397
			C6.923,9.585,6.702,8.639,6.702,7.532z M7.898,7.685c0,1.139,0.14,2.069,0.421,2.789c0.231,0.606,0.578,0.909,1.037,0.909
			c0.22,0,0.448-0.099,0.684-0.296c0.236-0.197,0.415-0.528,0.537-0.991c0.188-0.7,0.281-1.687,0.281-2.961
			c0-0.944-0.098-1.731-0.293-2.362c-0.146-0.468-0.336-0.799-0.568-0.995C9.831,3.644,9.629,3.577,9.394,3.577
			c-0.277,0-0.523,0.124-0.739,0.373C8.362,4.287,8.163,4.818,8.057,5.542S7.898,6.98,7.898,7.685z"/>
		<path d="M15.714,7.532c0-0.944,0.143-1.757,0.427-2.438c0.285-0.681,0.663-1.189,1.135-1.523c0.366-0.264,0.745-0.396,1.135-0.396
			c0.635,0,1.205,0.323,1.709,0.971c0.631,0.801,0.946,1.888,0.946,3.259c0,0.96-0.139,1.776-0.415,2.448
			c-0.277,0.671-0.63,1.158-1.059,1.461c-0.43,0.304-0.843,0.455-1.242,0.455c-0.79,0-1.447-0.466-1.971-1.397
			C15.936,9.585,15.714,8.639,15.714,7.532z M16.911,7.685c0,1.139,0.14,2.069,0.421,2.789c0.231,0.606,0.578,0.909,1.037,0.909
			c0.22,0,0.448-0.099,0.684-0.296c0.236-0.197,0.415-0.528,0.537-0.991c0.188-0.7,0.281-1.687,0.281-2.961
			c0-0.944-0.098-1.731-0.293-2.362c-0.146-0.468-0.336-0.799-0.568-0.995c-0.167-0.135-0.368-0.202-0.604-0.202
			c-0.277,0-0.523,0.124-0.739,0.373c-0.293,0.337-0.492,0.869-0.598,1.593S16.911,6.98,16.911,7.685z"/>
		<path d="M21.964,7.532c0-0.944,0.143-1.757,0.427-2.438c0.285-0.681,0.663-1.189,1.135-1.523c0.366-0.264,0.745-0.396,1.135-0.396
			c0.635,0,1.205,0.323,1.709,0.971c0.631,0.801,0.946,1.888,0.946,3.259c0,0.96-0.139,1.776-0.415,2.448
			c-0.277,0.671-0.63,1.158-1.059,1.461c-0.43,0.304-0.843,0.455-1.242,0.455c-0.79,0-1.447-0.466-1.971-1.397
			C22.186,9.585,21.964,8.639,21.964,7.532z M23.161,7.685c0,1.139,0.14,2.069,0.421,2.789c0.231,0.606,0.578,0.909,1.037,0.909
			c0.22,0,0.448-0.099,0.684-0.296c0.236-0.197,0.415-0.528,0.537-0.991c0.188-0.7,0.281-1.687,0.281-2.961
			c0-0.944-0.098-1.731-0.293-2.362c-0.146-0.468-0.336-0.799-0.568-0.995c-0.167-0.135-0.368-0.202-0.604-0.202
			c-0.277,0-0.523,0.124-0.739,0.373c-0.293,0.337-0.492,0.869-0.598,1.593S23.161,6.98,23.161,7.685z"/>
		<path d="M28.214,7.532c0-0.944,0.143-1.757,0.427-2.438c0.285-0.681,0.663-1.189,1.135-1.523c0.366-0.264,0.745-0.396,1.135-0.396
			c0.635,0,1.205,0.323,1.709,0.971c0.631,0.801,0.946,1.888,0.946,3.259c0,0.96-0.139,1.776-0.415,2.448
			c-0.277,0.671-0.63,1.158-1.059,1.461c-0.43,0.304-0.843,0.455-1.242,0.455c-0.79,0-1.447-0.466-1.971-1.397
			C28.436,9.585,28.214,8.639,28.214,7.532z M29.411,7.685c0,1.139,0.14,2.069,0.421,2.789c0.231,0.606,0.578,0.909,1.037,0.909
			c0.22,0,0.448-0.099,0.684-0.296c0.236-0.197,0.415-0.528,0.537-0.991c0.188-0.7,0.281-1.687,0.281-2.961
			c0-0.944-0.098-1.731-0.293-2.362c-0.146-0.468-0.336-0.799-0.568-0.995c-0.167-0.135-0.368-0.202-0.604-0.202
			c-0.277,0-0.523,0.124-0.739,0.373c-0.293,0.337-0.492,0.869-0.598,1.593S29.411,6.98,29.411,7.685z"/>
		<path d="M52.778,3.174v0.226c-0.537,0.053-0.977,0.16-1.315,0.321c-0.34,0.161-0.676,0.406-1.008,0.735
			c-0.331,0.33-0.606,0.697-0.823,1.102c-0.218,0.405-0.4,0.886-0.547,1.444c0.586-0.403,1.174-0.604,1.764-0.604
			c0.566,0,1.057,0.228,1.472,0.684s0.622,1.042,0.622,1.758c0,0.691-0.209,1.322-0.629,1.893c-0.504,0.691-1.172,1.037-2.002,1.037
			c-0.565,0-1.045-0.188-1.439-0.562c-0.773-0.729-1.16-1.673-1.16-2.832c0-0.741,0.148-1.444,0.445-2.112s0.722-1.259,1.272-1.776
			c0.552-0.517,1.08-0.865,1.584-1.044c0.505-0.179,0.975-0.269,1.41-0.269H52.778z M48.981,7.446
			c-0.073,0.549-0.109,0.993-0.109,1.331c0,0.391,0.071,0.814,0.216,1.272c0.145,0.457,0.359,0.82,0.645,1.089
			c0.207,0.191,0.46,0.287,0.757,0.287c0.354,0,0.67-0.167,0.949-0.5c0.278-0.334,0.418-0.811,0.418-1.429
			c0-0.696-0.139-1.298-0.415-1.807c-0.277-0.509-0.67-0.763-1.179-0.763c-0.154,0-0.32,0.032-0.497,0.098
			C49.589,7.09,49.327,7.23,48.981,7.446z"/>
		<path d="M59.527,4.156l2.014-0.982h0.202v6.988c0,0.464,0.019,0.753,0.058,0.867c0.039,0.113,0.119,0.201,0.241,0.262
			c0.122,0.062,0.37,0.096,0.745,0.104v0.226h-3.113v-0.226c0.391-0.009,0.643-0.042,0.757-0.101
			c0.114-0.06,0.193-0.139,0.238-0.238s0.067-0.397,0.067-0.895V5.694c0-0.602-0.021-0.988-0.062-1.159
			c-0.028-0.13-0.08-0.226-0.155-0.287c-0.076-0.061-0.166-0.092-0.271-0.092c-0.151,0-0.36,0.063-0.629,0.189L59.527,4.156z"/>
		<path d="M64.764,7.532c0-0.944,0.143-1.757,0.428-2.438c0.285-0.681,0.663-1.189,1.135-1.523c0.367-0.264,0.745-0.396,1.136-0.396
			c0.635,0,1.204,0.323,1.709,0.971c0.631,0.801,0.946,1.888,0.946,3.259c0,0.96-0.139,1.776-0.415,2.448
			c-0.277,0.671-0.63,1.158-1.06,1.461c-0.429,0.304-0.843,0.455-1.242,0.455c-0.789,0-1.446-0.466-1.971-1.397
			C64.986,9.585,64.764,8.639,64.764,7.532z M65.961,7.685c0,1.139,0.14,2.069,0.421,2.789c0.231,0.606,0.577,0.909,1.037,0.909
			c0.22,0,0.448-0.099,0.684-0.296c0.236-0.197,0.415-0.528,0.537-0.991c0.188-0.7,0.281-1.687,0.281-2.961
			c0-0.944-0.098-1.731-0.293-2.362c-0.146-0.468-0.336-0.799-0.567-0.995c-0.167-0.135-0.369-0.202-0.604-0.202
			c-0.277,0-0.523,0.124-0.739,0.373c-0.293,0.337-0.492,0.869-0.598,1.593S65.961,6.98,65.961,7.685z"/>
	</g>
	<g>
		<path d="M37.218,6.988h6.409v0.592h-6.409V6.988z M37.218,9.266h6.409v0.604h-6.409V9.266z"/>
		<path d="M56.912,8.423c0,0.188-0.066,0.347-0.199,0.479c-0.132,0.132-0.289,0.198-0.473,0.198c-0.188,0-0.347-0.066-0.479-0.198
			c-0.132-0.133-0.198-0.292-0.198-0.479c0-0.187,0.066-0.347,0.198-0.479c0.133-0.132,0.292-0.199,0.479-0.199
			c0.184,0,0.341,0.066,0.473,0.199C56.846,8.076,56.912,8.236,56.912,8.423z"/>
	</g>
</g>
<g id="theGroup">
</g>
</svg>
