<?xml version="1.0" encoding="iso-8859-1"?>
<!-- Generator: Adobe Illustrator 16.0.0, SVG Export Plug-In . SVG Version: 6.00 Build 0)  -->
<!DOCTYPE svg PUBLIC "-//W3C//DTD SVG 1.1//EN" "http://www.w3.org/Graphics/SVG/1.1/DTD/svg11.dtd">
<svg version="1.1" id="Lager_1" xmlns="http://www.w3.org/2000/svg" xmlns:xlink="http://www.w3.org/1999/xlink" x="0px" y="0px"
	 width="129.78px" height="51.376px" viewBox="0 0 129.78 51.376" style="enable-background:new 0 0 129.78 51.376;"
	 xml:space="preserve">
<g>
	
		<line style="fill:none;stroke:#0066FF;stroke-width:0.5;stroke-linecap:square;stroke-miterlimit:10;" x1="0.587" y1="34.585" x2="55.118" y2="34.585"/>
	<g>
		<path style="fill:#0066FF;" d="M9.265,2.724v0.226C8.972,3.002,8.75,3.096,8.6,3.23C8.384,3.43,8.193,3.735,8.026,4.146
			l-2.887,7.044H4.913L1.812,4.054c-0.158-0.366-0.271-0.59-0.335-0.671C1.375,3.257,1.25,3.158,1.102,3.087S0.753,2.97,0.5,2.949
			V2.724h3.381v0.226C3.5,2.986,3.251,3.051,3.137,3.145c-0.114,0.094-0.171,0.214-0.171,0.36c0,0.204,0.094,0.521,0.281,0.952
			L5.353,9.31l1.953-4.792c0.191-0.472,0.287-0.799,0.287-0.983c0-0.118-0.059-0.23-0.177-0.338
			C7.298,3.089,7.099,3.013,6.817,2.968c-0.02-0.004-0.055-0.01-0.104-0.019V2.724H9.265z"/>
		<path style="fill:#0066FF;" d="M12.939,10.194c-0.574,0.443-0.934,0.7-1.081,0.769c-0.22,0.102-0.454,0.153-0.702,0.153
			c-0.387,0-0.705-0.132-0.956-0.397c-0.25-0.265-0.375-0.612-0.375-1.043c0-0.273,0.062-0.509,0.184-0.708
			c0.167-0.277,0.457-0.537,0.87-0.781c0.413-0.244,1.1-0.542,2.06-0.892v-0.22c0-0.557-0.089-0.939-0.266-1.147
			c-0.177-0.207-0.435-0.311-0.772-0.311c-0.256,0-0.459,0.069-0.61,0.208c-0.154,0.138-0.231,0.297-0.231,0.476l0.012,0.354
			c0,0.187-0.048,0.332-0.143,0.434c-0.096,0.102-0.221,0.152-0.375,0.152c-0.15,0-0.274-0.053-0.369-0.159
			c-0.096-0.106-0.144-0.25-0.144-0.433c0-0.35,0.179-0.672,0.537-0.965s0.86-0.439,1.508-0.439c0.496,0,0.903,0.083,1.221,0.25
			c0.24,0.126,0.417,0.324,0.531,0.592c0.073,0.175,0.11,0.533,0.11,1.074v1.898c0,0.533,0.01,0.86,0.03,0.979
			c0.021,0.12,0.054,0.201,0.101,0.241c0.046,0.041,0.101,0.061,0.162,0.061c0.065,0,0.122-0.014,0.171-0.043
			c0.085-0.053,0.25-0.201,0.494-0.445v0.342c-0.456,0.61-0.891,0.916-1.306,0.916c-0.2,0-0.358-0.069-0.477-0.208
			C13.004,10.764,12.943,10.528,12.939,10.194z M11.095,2.84c0.188,0,0.345,0.065,0.473,0.195c0.128,0.13,0.192,0.287,0.192,0.47
			s-0.065,0.339-0.195,0.467c-0.13,0.128-0.285,0.192-0.464,0.192c-0.183,0-0.34-0.064-0.47-0.192
			c-0.13-0.128-0.195-0.284-0.195-0.467s0.064-0.34,0.192-0.47C10.757,2.905,10.913,2.84,11.095,2.84z M12.939,9.798v-2.13
			c-0.615,0.244-1.011,0.417-1.19,0.519c-0.321,0.179-0.551,0.366-0.689,0.562c-0.139,0.195-0.208,0.409-0.208,0.641
			c0,0.293,0.088,0.536,0.263,0.729s0.376,0.29,0.604,0.29C12.027,10.408,12.434,10.205,12.939,9.798z M13.25,2.84
			c0.183,0,0.339,0.065,0.467,0.195c0.128,0.13,0.192,0.287,0.192,0.47s-0.064,0.339-0.192,0.467
			C13.589,4.1,13.433,4.164,13.25,4.164S12.91,4.1,12.78,3.972c-0.13-0.128-0.195-0.284-0.195-0.467s0.065-0.34,0.195-0.47
			C12.91,2.905,13.067,2.84,13.25,2.84z"/>
		<path style="fill:#0066FF;" d="M16.88,5.244v1.258c0.468-0.838,0.948-1.258,1.44-1.258c0.224,0,0.409,0.068,0.556,0.205
			c0.146,0.137,0.22,0.294,0.22,0.473c0,0.159-0.053,0.293-0.159,0.403c-0.105,0.11-0.231,0.165-0.378,0.165
			c-0.143,0-0.302-0.07-0.479-0.21c-0.177-0.14-0.308-0.21-0.394-0.21c-0.073,0-0.152,0.041-0.238,0.122
			c-0.183,0.167-0.372,0.441-0.567,0.824v2.679c0,0.309,0.039,0.543,0.116,0.702c0.053,0.11,0.146,0.202,0.28,0.275
			c0.135,0.073,0.328,0.11,0.58,0.11V11h-2.862v-0.22c0.285,0,0.496-0.045,0.635-0.134c0.102-0.065,0.173-0.169,0.213-0.311
			c0.021-0.069,0.031-0.267,0.031-0.592V7.576c0-0.651-0.014-1.039-0.04-1.163c-0.026-0.124-0.075-0.214-0.146-0.271
			s-0.16-0.085-0.266-0.085c-0.126,0-0.269,0.031-0.427,0.091l-0.062-0.22l1.691-0.684H16.88z"/>
		<path style="fill:#0066FF;" d="M23.306,10.371c-0.273,0.285-0.54,0.49-0.8,0.614s-0.541,0.186-0.842,0.186
			c-0.61,0-1.144-0.255-1.599-0.766c-0.456-0.51-0.684-1.167-0.684-1.968s0.252-1.535,0.757-2.2
			c0.504-0.666,1.153-0.998,1.947-0.998c0.492,0,0.899,0.157,1.221,0.47V4.677c0-0.639-0.016-1.031-0.046-1.178
			c-0.031-0.146-0.079-0.247-0.144-0.299s-0.146-0.08-0.244-0.08c-0.106,0-0.246,0.033-0.421,0.098l-0.08-0.213l1.667-0.684h0.274
			v6.463c0,0.655,0.015,1.055,0.046,1.2c0.03,0.145,0.079,0.245,0.146,0.302c0.067,0.057,0.146,0.085,0.235,0.085
			c0.11,0,0.256-0.034,0.439-0.104l0.067,0.214l-1.66,0.689h-0.28V10.371z M23.306,9.944V7.063c-0.024-0.277-0.098-0.529-0.22-0.757
			c-0.122-0.228-0.284-0.4-0.485-0.516c-0.202-0.116-0.398-0.174-0.589-0.174c-0.358,0-0.678,0.161-0.958,0.482
			c-0.37,0.423-0.555,1.042-0.555,1.855c0,0.822,0.179,1.452,0.537,1.889c0.358,0.438,0.757,0.656,1.196,0.656
			C22.602,10.5,22.959,10.314,23.306,9.944z"/>
		<path style="fill:#0066FF;" d="M26.546,7.515c-0.004,0.83,0.197,1.481,0.604,1.953c0.407,0.472,0.885,0.708,1.435,0.708
			c0.366,0,0.685-0.101,0.955-0.302c0.271-0.202,0.498-0.546,0.681-1.035l0.189,0.122c-0.086,0.558-0.334,1.065-0.745,1.523
			c-0.411,0.458-0.925,0.687-1.544,0.687c-0.671,0-1.246-0.261-1.724-0.784c-0.479-0.523-0.717-1.226-0.717-2.109
			c0-0.956,0.245-1.702,0.735-2.237s1.106-0.803,1.847-0.803c0.626,0,1.141,0.207,1.544,0.62s0.604,0.965,0.604,1.657H26.546z
			 M26.546,7.161h2.588c-0.021-0.358-0.063-0.61-0.128-0.757c-0.102-0.228-0.253-0.407-0.455-0.537
			c-0.201-0.13-0.412-0.195-0.631-0.195c-0.338,0-0.64,0.131-0.907,0.394C26.747,6.328,26.591,6.693,26.546,7.161z"/>
		<path style="fill:#0066FF;" d="M32.74,6.435c0.407-0.407,0.647-0.641,0.72-0.702c0.183-0.154,0.38-0.274,0.592-0.36
			c0.211-0.085,0.421-0.128,0.628-0.128c0.35,0,0.651,0.102,0.903,0.306c0.252,0.203,0.421,0.498,0.506,0.885
			c0.419-0.488,0.773-0.809,1.062-0.961c0.289-0.152,0.586-0.229,0.891-0.229c0.297,0,0.561,0.077,0.791,0.229
			c0.23,0.153,0.412,0.402,0.546,0.748c0.089,0.236,0.134,0.606,0.134,1.111v2.404c0,0.35,0.026,0.59,0.08,0.721
			c0.041,0.089,0.116,0.166,0.226,0.229c0.11,0.063,0.289,0.095,0.537,0.095V11h-2.759v-0.22h0.116c0.24,0,0.427-0.047,0.562-0.141
			c0.093-0.065,0.161-0.168,0.201-0.311c0.016-0.069,0.024-0.267,0.024-0.592V7.332c0-0.456-0.055-0.777-0.165-0.965
			c-0.158-0.26-0.413-0.391-0.763-0.391c-0.216,0-0.433,0.054-0.65,0.162c-0.218,0.108-0.481,0.308-0.791,0.601l-0.012,0.067
			l0.012,0.263v2.667c0,0.383,0.021,0.621,0.064,0.714c0.043,0.094,0.123,0.172,0.241,0.235c0.118,0.063,0.319,0.095,0.604,0.095V11
			h-2.826v-0.22c0.309,0,0.522-0.037,0.638-0.11c0.116-0.073,0.196-0.183,0.241-0.33c0.021-0.069,0.031-0.271,0.031-0.604V7.332
			c0-0.456-0.067-0.784-0.202-0.983c-0.179-0.26-0.429-0.391-0.75-0.391c-0.22,0-0.438,0.059-0.653,0.177
			c-0.338,0.179-0.598,0.38-0.781,0.604v2.997c0,0.366,0.025,0.604,0.076,0.714s0.126,0.192,0.226,0.247
			c0.1,0.055,0.302,0.083,0.607,0.083V11h-2.765v-0.22c0.256,0,0.436-0.027,0.537-0.083c0.102-0.055,0.179-0.142,0.232-0.262
			s0.08-0.353,0.08-0.699V7.601c0-0.615-0.019-1.011-0.055-1.19c-0.028-0.134-0.073-0.227-0.134-0.278
			c-0.061-0.051-0.145-0.076-0.25-0.076c-0.114,0-0.25,0.031-0.409,0.091l-0.092-0.22l1.685-0.684h0.263V6.435z"/>
		<path style="fill:#0066FF;" d="M42.581,5.244v4.492c0,0.35,0.025,0.583,0.076,0.699c0.051,0.116,0.126,0.202,0.226,0.259
			c0.1,0.057,0.282,0.085,0.546,0.085V11h-2.716v-0.22c0.272,0,0.456-0.026,0.549-0.079c0.094-0.053,0.168-0.141,0.223-0.263
			c0.055-0.122,0.083-0.356,0.083-0.702V7.582c0-0.606-0.018-0.999-0.055-1.178c-0.028-0.13-0.073-0.221-0.134-0.272
			c-0.062-0.051-0.145-0.076-0.25-0.076c-0.114,0-0.252,0.031-0.415,0.091l-0.085-0.22l1.685-0.684H42.581z M42.074,2.321
			c0.171,0,0.316,0.06,0.437,0.18s0.18,0.266,0.18,0.437s-0.06,0.317-0.18,0.439S42.245,3.56,42.074,3.56s-0.317-0.061-0.439-0.183
			s-0.183-0.269-0.183-0.439s0.06-0.316,0.18-0.437S41.899,2.321,42.074,2.321z"/>
		<path style="fill:#0066FF;" d="M45.793,6.429c0.655-0.79,1.279-1.185,1.874-1.185c0.305,0,0.568,0.077,0.788,0.229
			c0.22,0.153,0.395,0.404,0.524,0.754c0.09,0.244,0.135,0.619,0.135,1.123v2.386c0,0.354,0.028,0.594,0.085,0.721
			c0.045,0.102,0.117,0.181,0.217,0.238s0.284,0.085,0.553,0.085V11h-2.765v-0.22h0.116c0.261,0,0.443-0.04,0.546-0.119
			c0.104-0.079,0.176-0.196,0.217-0.351c0.016-0.062,0.024-0.252,0.024-0.574V7.448c0-0.509-0.066-0.878-0.198-1.108
			c-0.132-0.229-0.355-0.345-0.668-0.345c-0.484,0-0.966,0.265-1.446,0.793v2.948c0,0.379,0.022,0.613,0.067,0.702
			c0.057,0.118,0.135,0.205,0.235,0.259c0.1,0.055,0.302,0.083,0.607,0.083V11h-2.765v-0.22h0.122c0.285,0,0.477-0.072,0.577-0.217
			c0.1-0.144,0.149-0.42,0.149-0.827V7.661c0-0.671-0.015-1.08-0.046-1.227c-0.03-0.146-0.077-0.246-0.14-0.299
			c-0.063-0.053-0.147-0.08-0.253-0.08c-0.114,0-0.25,0.031-0.409,0.091l-0.092-0.22l1.685-0.684h0.263V6.429z"/>
		<path style="fill:#0066FF;" d="M54.026,5.244v1.904h-0.201c-0.155-0.598-0.354-1.005-0.595-1.221
			c-0.242-0.215-0.55-0.323-0.925-0.323c-0.285,0-0.515,0.075-0.69,0.226c-0.175,0.151-0.262,0.317-0.262,0.501
			c0,0.228,0.065,0.423,0.195,0.586c0.126,0.167,0.382,0.344,0.769,0.531l0.891,0.433c0.826,0.403,1.239,0.934,1.239,1.593
			c0,0.509-0.192,0.918-0.577,1.23c-0.384,0.311-0.815,0.467-1.291,0.467c-0.342,0-0.732-0.061-1.172-0.183
			c-0.135-0.041-0.244-0.061-0.33-0.061c-0.093,0-0.167,0.053-0.22,0.159h-0.201V9.09h0.201c0.114,0.569,0.332,0.999,0.653,1.288
			s0.682,0.433,1.08,0.433c0.281,0,0.51-0.082,0.687-0.247c0.177-0.165,0.265-0.363,0.265-0.595c0-0.281-0.099-0.517-0.296-0.708
			c-0.197-0.191-0.591-0.434-1.181-0.727c-0.59-0.293-0.977-0.558-1.16-0.793c-0.183-0.232-0.274-0.525-0.274-0.879
			c0-0.46,0.158-0.844,0.473-1.154c0.315-0.309,0.723-0.464,1.224-0.464c0.22,0,0.486,0.047,0.799,0.141
			c0.208,0.061,0.346,0.092,0.415,0.092c0.065,0,0.116-0.015,0.153-0.043s0.08-0.092,0.128-0.189H54.026z"/>
		<path style="fill:#0066FF;" d="M56.944,2.321v5.566l1.422-1.3c0.301-0.276,0.476-0.451,0.525-0.524
			c0.033-0.049,0.049-0.098,0.049-0.146c0-0.082-0.034-0.152-0.101-0.211c-0.067-0.059-0.178-0.092-0.333-0.101V5.409h2.429v0.195
			c-0.333,0.008-0.611,0.059-0.833,0.152c-0.222,0.094-0.465,0.261-0.729,0.501l-1.434,1.324l1.434,1.812
			c0.399,0.501,0.667,0.818,0.806,0.952c0.195,0.191,0.366,0.315,0.513,0.373c0.102,0.041,0.279,0.061,0.531,0.061V11h-2.716v-0.22
			c0.154-0.004,0.259-0.027,0.314-0.07c0.055-0.042,0.083-0.103,0.083-0.18c0-0.094-0.082-0.244-0.244-0.452l-1.715-2.191v1.855
			c0,0.362,0.025,0.6,0.076,0.714c0.051,0.114,0.123,0.195,0.217,0.244c0.093,0.049,0.297,0.075,0.61,0.079V11h-2.845v-0.22
			c0.285,0,0.499-0.035,0.641-0.104c0.085-0.045,0.15-0.114,0.195-0.208c0.061-0.134,0.091-0.366,0.091-0.695V4.683
			c0-0.646-0.014-1.042-0.042-1.187c-0.028-0.144-0.075-0.244-0.14-0.299c-0.065-0.055-0.151-0.083-0.257-0.083
			c-0.085,0-0.213,0.035-0.384,0.104l-0.104-0.213l1.66-0.684H56.944z"/>
		<path style="fill:#0066FF;" d="M63.17,6.429c0.655-0.79,1.279-1.185,1.874-1.185c0.305,0,0.567,0.077,0.787,0.229
			c0.22,0.153,0.395,0.404,0.524,0.754c0.09,0.244,0.135,0.619,0.135,1.123v2.386c0,0.354,0.028,0.594,0.085,0.721
			c0.045,0.102,0.117,0.181,0.217,0.238s0.284,0.085,0.553,0.085V11H64.58v-0.22h0.116c0.261,0,0.442-0.04,0.547-0.119
			c0.104-0.079,0.176-0.196,0.216-0.351c0.017-0.062,0.025-0.252,0.025-0.574V7.448c0-0.509-0.066-0.878-0.199-1.108
			c-0.132-0.229-0.354-0.345-0.668-0.345c-0.484,0-0.966,0.265-1.446,0.793v2.948c0,0.379,0.022,0.613,0.067,0.702
			c0.057,0.118,0.135,0.205,0.235,0.259c0.1,0.055,0.302,0.083,0.607,0.083V11h-2.765v-0.22h0.122c0.285,0,0.477-0.072,0.577-0.217
			c0.1-0.144,0.149-0.42,0.149-0.827V7.661c0-0.671-0.015-1.08-0.046-1.227c-0.03-0.146-0.077-0.246-0.14-0.299
			c-0.063-0.053-0.147-0.08-0.253-0.08c-0.114,0-0.25,0.031-0.409,0.091l-0.092-0.22l1.685-0.684h0.263V6.429z"/>
		<path style="fill:#0066FF;" d="M69.719,5.244v4.492c0,0.35,0.025,0.583,0.076,0.699c0.051,0.116,0.126,0.202,0.226,0.259
			s0.282,0.085,0.547,0.085V11h-2.717v-0.22c0.273,0,0.456-0.026,0.55-0.079c0.094-0.053,0.168-0.141,0.223-0.263
			s0.083-0.356,0.083-0.702V7.582c0-0.606-0.019-0.999-0.056-1.178c-0.028-0.13-0.073-0.221-0.134-0.272
			c-0.062-0.051-0.145-0.076-0.25-0.076c-0.114,0-0.253,0.031-0.416,0.091l-0.085-0.22l1.685-0.684H69.719z M69.212,2.321
			c0.171,0,0.316,0.06,0.437,0.18s0.181,0.266,0.181,0.437s-0.061,0.317-0.181,0.439S69.383,3.56,69.212,3.56
			s-0.317-0.061-0.439-0.183S68.59,3.108,68.59,2.938s0.06-0.316,0.18-0.437S69.037,2.321,69.212,2.321z"/>
		<path style="fill:#0066FF;" d="M72.931,6.429c0.655-0.79,1.279-1.185,1.874-1.185c0.305,0,0.567,0.077,0.787,0.229
			c0.22,0.153,0.395,0.404,0.524,0.754c0.09,0.244,0.135,0.619,0.135,1.123v2.386c0,0.354,0.028,0.594,0.085,0.721
			c0.045,0.102,0.117,0.181,0.217,0.238s0.284,0.085,0.553,0.085V11H74.34v-0.22h0.116c0.261,0,0.442-0.04,0.547-0.119
			c0.104-0.079,0.176-0.196,0.216-0.351c0.017-0.062,0.025-0.252,0.025-0.574V7.448c0-0.509-0.066-0.878-0.199-1.108
			c-0.132-0.229-0.354-0.345-0.668-0.345c-0.484,0-0.967,0.265-1.446,0.793v2.948c0,0.379,0.022,0.613,0.067,0.702
			c0.057,0.118,0.135,0.205,0.234,0.259c0.1,0.055,0.303,0.083,0.607,0.083V11h-2.765v-0.22h0.122c0.284,0,0.477-0.072,0.576-0.217
			c0.1-0.144,0.15-0.42,0.15-0.827V7.661c0-0.671-0.016-1.08-0.046-1.227c-0.031-0.146-0.078-0.246-0.141-0.299
			c-0.063-0.053-0.147-0.08-0.253-0.08c-0.114,0-0.251,0.031-0.409,0.091l-0.092-0.22l1.685-0.684h0.263V6.429z"/>
		<path style="fill:#0066FF;" d="M79.046,8.961c-0.342-0.167-0.604-0.4-0.787-0.699c-0.183-0.299-0.274-0.63-0.274-0.992
			c0-0.553,0.208-1.029,0.625-1.428c0.417-0.399,0.951-0.599,1.603-0.599c0.533,0,0.995,0.13,1.386,0.391h1.184
			c0.175,0,0.277,0.005,0.306,0.016s0.049,0.027,0.061,0.052c0.024,0.037,0.037,0.102,0.037,0.195c0,0.106-0.011,0.179-0.03,0.22
			c-0.013,0.021-0.034,0.037-0.064,0.049s-0.134,0.019-0.309,0.019h-0.727c0.229,0.293,0.342,0.667,0.342,1.123
			c0,0.521-0.199,0.966-0.598,1.336s-0.934,0.555-1.605,0.555c-0.276,0-0.56-0.041-0.848-0.122c-0.18,0.155-0.301,0.29-0.363,0.406
			c-0.063,0.116-0.095,0.214-0.095,0.296c0,0.069,0.033,0.136,0.101,0.201c0.067,0.065,0.198,0.112,0.394,0.141
			c0.114,0.016,0.398,0.03,0.854,0.043c0.838,0.02,1.382,0.049,1.63,0.085c0.378,0.053,0.681,0.193,0.906,0.421
			s0.339,0.509,0.339,0.842c0,0.46-0.216,0.891-0.647,1.294c-0.635,0.594-1.463,0.891-2.483,0.891c-0.786,0-1.449-0.177-1.99-0.531
			c-0.305-0.204-0.458-0.415-0.458-0.635c0-0.098,0.022-0.195,0.067-0.293c0.069-0.151,0.212-0.36,0.428-0.629
			c0.028-0.037,0.235-0.256,0.622-0.659c-0.212-0.126-0.361-0.239-0.448-0.339c-0.088-0.1-0.132-0.212-0.132-0.339
			c0-0.142,0.059-0.309,0.174-0.5C78.359,9.582,78.627,9.312,79.046,8.961z M78.985,11c-0.191,0.208-0.336,0.401-0.434,0.58
			c-0.098,0.179-0.146,0.344-0.146,0.494c0,0.195,0.118,0.366,0.354,0.513c0.406,0.252,0.994,0.378,1.764,0.378
			c0.732,0,1.272-0.129,1.62-0.388s0.522-0.534,0.522-0.827c0-0.212-0.104-0.362-0.312-0.452c-0.212-0.089-0.631-0.142-1.258-0.158
			C80.182,11.116,79.478,11.069,78.985,11z M80.108,5.537c-0.302,0-0.554,0.12-0.757,0.36c-0.204,0.24-0.306,0.608-0.306,1.104
			c0,0.643,0.139,1.142,0.415,1.496c0.212,0.269,0.48,0.403,0.806,0.403c0.31,0,0.563-0.116,0.763-0.348
			c0.2-0.232,0.3-0.596,0.3-1.093c0-0.647-0.141-1.153-0.421-1.52C80.7,5.672,80.434,5.537,80.108,5.537z"/>
		<path style="fill:#0066FF;" d="M84.74,7.515c-0.004,0.83,0.198,1.481,0.604,1.953c0.407,0.472,0.886,0.708,1.435,0.708
			c0.366,0,0.685-0.101,0.955-0.302c0.271-0.202,0.498-0.546,0.681-1.035l0.189,0.122c-0.086,0.558-0.334,1.065-0.745,1.523
			c-0.411,0.458-0.926,0.687-1.544,0.687c-0.671,0-1.246-0.261-1.725-0.784c-0.478-0.523-0.717-1.226-0.717-2.109
			c0-0.956,0.245-1.702,0.735-2.237s1.105-0.803,1.847-0.803c0.626,0,1.142,0.207,1.544,0.62s0.604,0.965,0.604,1.657H84.74z
			 M84.74,7.161h2.588c-0.02-0.358-0.062-0.61-0.128-0.757c-0.102-0.228-0.253-0.407-0.454-0.537
			c-0.202-0.13-0.412-0.195-0.632-0.195c-0.338,0-0.641,0.131-0.906,0.394C84.941,6.328,84.785,6.693,84.74,7.161z"/>
		<path style="fill:#0066FF;" d="M90.903,6.429c0.655-0.79,1.279-1.185,1.874-1.185c0.305,0,0.567,0.077,0.787,0.229
			c0.22,0.153,0.395,0.404,0.524,0.754c0.09,0.244,0.135,0.619,0.135,1.123v2.386c0,0.354,0.028,0.594,0.085,0.721
			c0.045,0.102,0.117,0.181,0.217,0.238s0.284,0.085,0.553,0.085V11h-2.766v-0.22h0.116c0.261,0,0.442-0.04,0.547-0.119
			c0.104-0.079,0.176-0.196,0.216-0.351c0.017-0.062,0.025-0.252,0.025-0.574V7.448c0-0.509-0.066-0.878-0.199-1.108
			c-0.132-0.229-0.354-0.345-0.668-0.345c-0.484,0-0.967,0.265-1.446,0.793v2.948c0,0.379,0.022,0.613,0.067,0.702
			c0.057,0.118,0.135,0.205,0.234,0.259c0.1,0.055,0.303,0.083,0.607,0.083V11h-2.765v-0.22h0.122c0.284,0,0.477-0.072,0.576-0.217
			c0.1-0.144,0.15-0.42,0.15-0.827V7.661c0-0.671-0.016-1.08-0.046-1.227c-0.031-0.146-0.078-0.246-0.141-0.299
			c-0.063-0.053-0.147-0.08-0.253-0.08c-0.114,0-0.251,0.031-0.409,0.091l-0.092-0.22l1.685-0.684h0.263V6.429z"/>
	</g>
	<g>
		<path style="fill:#0066FF;" d="M1.465,22.285l2.014-0.982h0.202v6.988c0,0.464,0.019,0.753,0.058,0.867
			c0.039,0.113,0.119,0.201,0.241,0.262c0.122,0.062,0.37,0.096,0.745,0.104v0.226H1.611v-0.226
			c0.391-0.009,0.643-0.042,0.757-0.101c0.114-0.06,0.193-0.139,0.238-0.238c0.044-0.1,0.067-0.397,0.067-0.895v-4.468
			c0-0.602-0.021-0.988-0.061-1.159c-0.028-0.13-0.081-0.226-0.156-0.287s-0.166-0.092-0.271-0.092c-0.15,0-0.36,0.063-0.628,0.189
			L1.465,22.285z"/>
		<path style="fill:#0066FF;" d="M8.648,25.581c-0.655-0.537-1.077-0.968-1.266-1.294c-0.189-0.325-0.284-0.663-0.284-1.013
			c0-0.537,0.207-1,0.622-1.389s0.967-0.583,1.654-0.583c0.667,0,1.205,0.181,1.611,0.543c0.407,0.362,0.61,0.775,0.61,1.239
			c0,0.309-0.11,0.625-0.33,0.946c-0.22,0.321-0.677,0.7-1.374,1.135c0.716,0.554,1.19,0.989,1.422,1.307
			c0.309,0.415,0.464,0.853,0.464,1.312c0,0.581-0.222,1.079-0.666,1.492c-0.443,0.413-1.025,0.619-1.745,0.619
			c-0.786,0-1.398-0.246-1.837-0.738c-0.35-0.395-0.525-0.826-0.525-1.294c0-0.366,0.123-0.729,0.369-1.09
			S8.046,26.017,8.648,25.581z M8.936,25.813c-0.338,0.285-0.588,0.595-0.751,0.931c-0.163,0.336-0.244,0.699-0.244,1.09
			c0,0.524,0.144,0.944,0.431,1.26c0.287,0.315,0.652,0.473,1.096,0.473c0.439,0,0.791-0.124,1.056-0.372s0.396-0.549,0.396-0.903
			c0-0.293-0.077-0.555-0.231-0.787C10.398,27.072,9.814,26.509,8.936,25.813z M9.607,24.928c0.488-0.439,0.797-0.786,0.928-1.041
			s0.195-0.542,0.195-0.864c0-0.427-0.12-0.762-0.36-1.004c-0.24-0.242-0.568-0.363-0.983-0.363s-0.753,0.12-1.013,0.36
			c-0.26,0.24-0.391,0.521-0.391,0.843c0,0.211,0.054,0.423,0.162,0.635c0.108,0.211,0.262,0.413,0.461,0.604L9.607,24.928z"/>
		<path style="fill:#0066FF;" d="M12.952,25.661c0-0.944,0.143-1.757,0.427-2.438c0.285-0.681,0.663-1.189,1.135-1.523
			c0.366-0.264,0.745-0.396,1.135-0.396c0.635,0,1.205,0.323,1.709,0.971c0.631,0.801,0.946,1.888,0.946,3.259
			c0,0.96-0.139,1.776-0.415,2.448c-0.277,0.671-0.63,1.158-1.059,1.461c-0.43,0.304-0.843,0.455-1.242,0.455
			c-0.79,0-1.447-0.466-1.971-1.397C13.173,27.714,12.952,26.768,12.952,25.661z M14.148,25.813c0,1.139,0.14,2.069,0.421,2.789
			c0.231,0.606,0.578,0.909,1.037,0.909c0.22,0,0.448-0.099,0.684-0.296c0.236-0.197,0.415-0.528,0.537-0.991
			c0.188-0.7,0.281-1.688,0.281-2.961c0-0.944-0.098-1.731-0.293-2.362c-0.146-0.468-0.336-0.799-0.568-0.995
			c-0.167-0.135-0.368-0.202-0.604-0.202c-0.277,0-0.523,0.124-0.739,0.373c-0.293,0.337-0.492,0.869-0.598,1.593
			S14.148,25.109,14.148,25.813z"/>
		<path style="fill:#0066FF;" d="M21.964,25.661c0-0.944,0.143-1.757,0.427-2.438c0.285-0.681,0.663-1.189,1.135-1.523
			c0.366-0.264,0.745-0.396,1.135-0.396c0.635,0,1.205,0.323,1.709,0.971c0.631,0.801,0.946,1.888,0.946,3.259
			c0,0.96-0.139,1.776-0.415,2.448c-0.277,0.671-0.63,1.158-1.059,1.461c-0.43,0.304-0.843,0.455-1.242,0.455
			c-0.79,0-1.447-0.466-1.971-1.397C22.186,27.714,21.964,26.768,21.964,25.661z M23.161,25.813c0,1.139,0.14,2.069,0.421,2.789
			c0.231,0.606,0.578,0.909,1.037,0.909c0.22,0,0.448-0.099,0.684-0.296c0.236-0.197,0.415-0.528,0.537-0.991
			c0.188-0.7,0.281-1.688,0.281-2.961c0-0.944-0.098-1.731-0.293-2.362c-0.146-0.468-0.336-0.799-0.568-0.995
			c-0.167-0.135-0.368-0.202-0.604-0.202c-0.277,0-0.523,0.124-0.739,0.373c-0.293,0.337-0.492,0.869-0.598,1.593
			S23.161,25.109,23.161,25.813z"/>
		<path style="fill:#0066FF;" d="M28.214,25.661c0-0.944,0.143-1.757,0.427-2.438c0.285-0.681,0.663-1.189,1.135-1.523
			c0.366-0.264,0.745-0.396,1.135-0.396c0.635,0,1.205,0.323,1.709,0.971c0.631,0.801,0.946,1.888,0.946,3.259
			c0,0.96-0.139,1.776-0.415,2.448c-0.277,0.671-0.63,1.158-1.059,1.461c-0.43,0.304-0.843,0.455-1.242,0.455
			c-0.79,0-1.447-0.466-1.971-1.397C28.436,27.714,28.214,26.768,28.214,25.661z M29.411,25.813c0,1.139,0.14,2.069,0.421,2.789
			c0.231,0.606,0.578,0.909,1.037,0.909c0.22,0,0.448-0.099,0.684-0.296c0.236-0.197,0.415-0.528,0.537-0.991
			c0.188-0.7,0.281-1.688,0.281-2.961c0-0.944-0.098-1.731-0.293-2.362c-0.146-0.468-0.336-0.799-0.568-0.995
			c-0.167-0.135-0.368-0.202-0.604-0.202c-0.277,0-0.523,0.124-0.739,0.373c-0.293,0.337-0.492,0.869-0.598,1.593
			S29.411,25.109,29.411,25.813z"/>
		<path style="fill:#0066FF;" d="M34.464,25.661c0-0.944,0.143-1.757,0.427-2.438c0.285-0.681,0.663-1.189,1.135-1.523
			c0.366-0.264,0.745-0.396,1.135-0.396c0.635,0,1.205,0.323,1.709,0.971c0.631,0.801,0.946,1.888,0.946,3.259
			c0,0.96-0.139,1.776-0.415,2.448c-0.277,0.671-0.63,1.158-1.059,1.461c-0.43,0.304-0.843,0.455-1.242,0.455
			c-0.79,0-1.447-0.466-1.971-1.397C34.686,27.714,34.464,26.768,34.464,25.661z M35.661,25.813c0,1.139,0.14,2.069,0.421,2.789
			c0.231,0.606,0.578,0.909,1.037,0.909c0.22,0,0.448-0.099,0.684-0.296c0.236-0.197,0.415-0.528,0.537-0.991
			c0.188-0.7,0.281-1.688,0.281-2.961c0-0.944-0.098-1.731-0.293-2.362c-0.146-0.468-0.336-0.799-0.568-0.995
			c-0.167-0.135-0.368-0.202-0.604-0.202c-0.277,0-0.523,0.124-0.739,0.373c-0.293,0.337-0.492,0.869-0.598,1.593
			S35.661,25.109,35.661,25.813z"/>
		<path style="fill:#0066FF;" d="M45.82,21.071v5.566l1.422-1.3c0.301-0.276,0.476-0.451,0.525-0.524
			c0.033-0.049,0.049-0.098,0.049-0.146c0-0.082-0.034-0.152-0.101-0.211c-0.067-0.059-0.178-0.092-0.333-0.101v-0.195h2.429v0.195
			c-0.333,0.008-0.611,0.059-0.833,0.152c-0.222,0.094-0.465,0.261-0.729,0.501l-1.434,1.324l1.434,1.812
			c0.399,0.501,0.667,0.818,0.806,0.952c0.195,0.191,0.366,0.315,0.513,0.372c0.102,0.041,0.279,0.062,0.531,0.062v0.22h-2.716
			v-0.22c0.154-0.004,0.259-0.027,0.314-0.07c0.055-0.043,0.083-0.103,0.083-0.18c0-0.094-0.082-0.244-0.244-0.452l-1.715-2.191
			v1.855c0,0.362,0.025,0.601,0.076,0.715c0.051,0.113,0.123,0.195,0.217,0.244c0.093,0.049,0.297,0.075,0.61,0.079v0.22h-2.845
			v-0.22c0.285,0,0.499-0.034,0.641-0.104c0.085-0.045,0.15-0.114,0.195-0.208c0.061-0.134,0.091-0.366,0.091-0.695v-5.091
			c0-0.646-0.014-1.042-0.042-1.187c-0.028-0.144-0.075-0.244-0.14-0.299c-0.065-0.055-0.151-0.083-0.257-0.083
			c-0.085,0-0.213,0.035-0.384,0.104l-0.104-0.213l1.66-0.684H45.82z"/>
		<path style="fill:#0066FF;" d="M52.051,23.994v1.258c0.468-0.838,0.948-1.258,1.44-1.258c0.224,0,0.409,0.068,0.556,0.205
			c0.146,0.137,0.22,0.294,0.22,0.473c0,0.159-0.053,0.293-0.159,0.403c-0.105,0.11-0.231,0.165-0.378,0.165
			c-0.143,0-0.302-0.07-0.479-0.21c-0.177-0.14-0.308-0.21-0.394-0.21c-0.073,0-0.152,0.041-0.238,0.122
			c-0.183,0.167-0.372,0.441-0.567,0.824v2.679c0,0.31,0.039,0.544,0.116,0.702c0.053,0.11,0.146,0.202,0.28,0.274
			c0.135,0.074,0.328,0.11,0.58,0.11v0.22h-2.862v-0.22c0.285,0,0.496-0.045,0.635-0.134c0.102-0.065,0.173-0.169,0.213-0.312
			c0.021-0.069,0.031-0.267,0.031-0.593v-2.166c0-0.651-0.014-1.039-0.04-1.163c-0.026-0.124-0.075-0.214-0.146-0.271
			s-0.16-0.085-0.266-0.085c-0.126,0-0.269,0.031-0.427,0.091l-0.062-0.22l1.691-0.684H52.051z"/>
	</g>
	<g>
		<path style="fill:#0066FF;" d="M69.307,31.193c0.236-0.558,0.534-0.988,0.895-1.291c0.359-0.304,0.809-0.455,1.346-0.455
			c0.663,0,1.172,0.216,1.525,0.646c0.269,0.322,0.403,0.666,0.403,1.032c0,0.602-0.379,1.225-1.136,1.867
			c0.509,0.199,0.894,0.484,1.154,0.854c0.26,0.37,0.391,0.806,0.391,1.307c0,0.716-0.229,1.336-0.684,1.861
			c-0.595,0.684-1.455,1.025-2.582,1.025c-0.558,0-0.938-0.069-1.139-0.207c-0.201-0.139-0.302-0.287-0.302-0.446
			c0-0.118,0.048-0.222,0.144-0.312c0.095-0.089,0.21-0.134,0.345-0.134c0.102,0,0.205,0.017,0.312,0.049
			c0.068,0.021,0.226,0.095,0.47,0.223s0.413,0.204,0.507,0.229c0.15,0.044,0.311,0.066,0.481,0.066c0.415,0,0.776-0.16,1.084-0.482
			c0.307-0.321,0.46-0.701,0.46-1.141c0-0.321-0.07-0.635-0.213-0.94c-0.106-0.228-0.222-0.4-0.348-0.519
			c-0.176-0.163-0.416-0.311-0.721-0.442s-0.616-0.198-0.934-0.198H70.57v-0.184c0.321-0.04,0.644-0.156,0.967-0.348
			c0.324-0.191,0.559-0.421,0.705-0.689s0.22-0.563,0.22-0.885c0-0.42-0.131-0.758-0.394-1.017s-0.589-0.388-0.979-0.388
			c-0.631,0-1.157,0.338-1.581,1.014L69.307,31.193z"/>
		<path style="fill:#0066FF;" d="M80.525,29.447v0.226c-0.537,0.053-0.977,0.16-1.315,0.32c-0.34,0.161-0.676,0.406-1.008,0.735
			c-0.331,0.33-0.606,0.697-0.823,1.103c-0.218,0.404-0.4,0.886-0.547,1.443c0.586-0.403,1.174-0.604,1.764-0.604
			c0.566,0,1.057,0.228,1.472,0.684s0.622,1.042,0.622,1.758c0,0.691-0.209,1.322-0.629,1.893c-0.504,0.691-1.172,1.037-2.002,1.037
			c-0.565,0-1.045-0.188-1.439-0.562c-0.773-0.729-1.16-1.673-1.16-2.832c0-0.74,0.148-1.444,0.445-2.112
			c0.297-0.667,0.722-1.259,1.272-1.775c0.552-0.517,1.08-0.865,1.584-1.044c0.505-0.179,0.975-0.269,1.41-0.269H80.525z
			 M76.729,33.72c-0.073,0.55-0.109,0.993-0.109,1.331c0,0.391,0.071,0.814,0.216,1.272c0.145,0.457,0.359,0.82,0.645,1.089
			c0.207,0.191,0.46,0.287,0.757,0.287c0.354,0,0.67-0.167,0.949-0.5c0.278-0.334,0.418-0.811,0.418-1.429
			c0-0.696-0.139-1.298-0.415-1.807c-0.277-0.509-0.67-0.763-1.179-0.763c-0.154,0-0.32,0.032-0.497,0.098
			C77.336,33.363,77.074,33.504,76.729,33.72z"/>
		<path style="fill:#0066FF;" d="M84.386,33.805c0-0.943,0.143-1.756,0.428-2.438s0.663-1.189,1.135-1.523
			c0.367-0.265,0.745-0.396,1.136-0.396c0.635,0,1.204,0.323,1.709,0.971c0.631,0.802,0.946,1.888,0.946,3.259
			c0,0.961-0.139,1.776-0.415,2.448c-0.277,0.671-0.63,1.158-1.06,1.461c-0.429,0.304-0.843,0.455-1.242,0.455
			c-0.789,0-1.446-0.466-1.971-1.397C84.608,35.858,84.386,34.912,84.386,33.805z M85.583,33.958c0,1.139,0.14,2.069,0.421,2.789
			c0.231,0.606,0.577,0.909,1.037,0.909c0.22,0,0.448-0.099,0.684-0.296c0.236-0.197,0.415-0.528,0.537-0.991
			c0.188-0.7,0.281-1.688,0.281-2.961c0-0.943-0.098-1.731-0.293-2.361c-0.146-0.469-0.336-0.8-0.567-0.995
			c-0.167-0.135-0.369-0.202-0.604-0.202c-0.277,0-0.523,0.125-0.739,0.373c-0.293,0.338-0.492,0.868-0.598,1.593
			S85.583,33.254,85.583,33.958z"/>
		<path style="fill:#0066FF;" d="M90.636,33.805c0-0.943,0.143-1.756,0.428-2.438s0.663-1.189,1.135-1.523
			c0.367-0.265,0.745-0.396,1.136-0.396c0.635,0,1.204,0.323,1.709,0.971c0.631,0.802,0.946,1.888,0.946,3.259
			c0,0.961-0.139,1.776-0.415,2.448c-0.277,0.671-0.63,1.158-1.06,1.461c-0.429,0.304-0.843,0.455-1.242,0.455
			c-0.789,0-1.446-0.466-1.971-1.397C90.858,35.858,90.636,34.912,90.636,33.805z M91.833,33.958c0,1.139,0.14,2.069,0.421,2.789
			c0.231,0.606,0.577,0.909,1.037,0.909c0.22,0,0.448-0.099,0.684-0.296c0.236-0.197,0.415-0.528,0.537-0.991
			c0.188-0.7,0.281-1.688,0.281-2.961c0-0.943-0.098-1.731-0.293-2.361c-0.146-0.469-0.336-0.8-0.567-0.995
			c-0.167-0.135-0.369-0.202-0.604-0.202c-0.277,0-0.523,0.125-0.739,0.373c-0.293,0.338-0.492,0.868-0.598,1.593
			S91.833,33.254,91.833,33.958z"/>
		<path style="fill:#0066FF;" d="M96.886,33.805c0-0.943,0.143-1.756,0.428-2.438s0.663-1.189,1.135-1.523
			c0.367-0.265,0.745-0.396,1.136-0.396c0.635,0,1.204,0.323,1.709,0.971c0.631,0.802,0.946,1.888,0.946,3.259
			c0,0.961-0.139,1.776-0.415,2.448c-0.277,0.671-0.63,1.158-1.06,1.461c-0.429,0.304-0.843,0.455-1.242,0.455
			c-0.789,0-1.446-0.466-1.971-1.397C97.108,35.858,96.886,34.912,96.886,33.805z M98.083,33.958c0,1.139,0.14,2.069,0.421,2.789
			c0.231,0.606,0.577,0.909,1.037,0.909c0.22,0,0.448-0.099,0.684-0.296c0.236-0.197,0.415-0.528,0.537-0.991
			c0.188-0.7,0.281-1.688,0.281-2.961c0-0.943-0.098-1.731-0.293-2.361c-0.146-0.469-0.336-0.8-0.567-0.995
			c-0.167-0.135-0.369-0.202-0.604-0.202c-0.277,0-0.523,0.125-0.739,0.373c-0.293,0.338-0.492,0.868-0.598,1.593
			S98.083,33.254,98.083,33.958z"/>
		<path style="fill:#0066FF;" d="M108.242,29.215v5.566l1.422-1.3c0.301-0.276,0.477-0.451,0.525-0.524
			c0.032-0.049,0.049-0.098,0.049-0.146c0-0.082-0.034-0.151-0.102-0.211c-0.066-0.059-0.178-0.093-0.332-0.101v-0.195h2.429v0.195
			c-0.333,0.008-0.611,0.059-0.833,0.152s-0.465,0.261-0.729,0.501l-1.435,1.324l1.435,1.812c0.399,0.501,0.668,0.818,0.806,0.952
			c0.195,0.191,0.366,0.315,0.513,0.372c0.102,0.041,0.279,0.062,0.531,0.062v0.22h-2.716v-0.22c0.154-0.004,0.259-0.027,0.314-0.07
			c0.055-0.043,0.082-0.103,0.082-0.18c0-0.094-0.081-0.244-0.244-0.452l-1.715-2.191v1.855c0,0.362,0.025,0.601,0.076,0.715
			c0.051,0.113,0.123,0.195,0.217,0.244s0.297,0.075,0.61,0.079v0.22h-2.845v-0.22c0.285,0,0.499-0.034,0.641-0.104
			c0.086-0.045,0.151-0.114,0.195-0.208c0.062-0.134,0.092-0.366,0.092-0.695v-5.091c0-0.646-0.014-1.042-0.043-1.187
			c-0.028-0.145-0.075-0.244-0.14-0.3c-0.065-0.055-0.15-0.082-0.257-0.082c-0.085,0-0.213,0.034-0.385,0.104l-0.104-0.214
			l1.66-0.684H108.242z"/>
		<path style="fill:#0066FF;" d="M114.474,32.139v1.258c0.468-0.839,0.948-1.258,1.44-1.258c0.224,0,0.409,0.068,0.556,0.205
			c0.146,0.136,0.22,0.294,0.22,0.473c0,0.158-0.053,0.293-0.159,0.402c-0.105,0.11-0.231,0.165-0.378,0.165
			c-0.143,0-0.303-0.07-0.479-0.21c-0.177-0.141-0.308-0.211-0.394-0.211c-0.073,0-0.152,0.041-0.238,0.122
			c-0.183,0.167-0.372,0.441-0.567,0.824v2.679c0,0.31,0.039,0.544,0.116,0.702c0.053,0.11,0.146,0.202,0.28,0.274
			c0.135,0.074,0.328,0.11,0.58,0.11v0.22h-2.862v-0.22c0.284,0,0.496-0.045,0.635-0.134c0.102-0.065,0.173-0.169,0.213-0.312
			c0.021-0.069,0.031-0.267,0.031-0.593v-2.166c0-0.651-0.014-1.039-0.04-1.163s-0.075-0.215-0.146-0.271s-0.159-0.085-0.266-0.085
			c-0.126,0-0.269,0.03-0.427,0.091l-0.062-0.22l1.69-0.684H114.474z"/>
		<path style="fill:#0066FF;" d="M120.063,29.215l-2.997,8.851h-0.488l2.997-8.851H120.063z"/>
		<path style="fill:#0066FF;" d="M123.629,37.089c-0.574,0.443-0.934,0.7-1.08,0.769c-0.221,0.103-0.454,0.153-0.702,0.153
			c-0.387,0-0.705-0.133-0.955-0.397c-0.251-0.264-0.376-0.612-0.376-1.043c0-0.272,0.062-0.509,0.184-0.708
			c0.167-0.277,0.456-0.537,0.869-0.781s1.1-0.541,2.061-0.892v-0.22c0-0.558-0.089-0.939-0.266-1.147
			c-0.177-0.207-0.435-0.311-0.772-0.311c-0.256,0-0.46,0.068-0.61,0.207c-0.154,0.139-0.231,0.297-0.231,0.477l0.012,0.354
			c0,0.188-0.048,0.332-0.144,0.434s-0.221,0.152-0.375,0.152c-0.15,0-0.273-0.053-0.369-0.158
			c-0.096-0.106-0.144-0.251-0.144-0.434c0-0.351,0.179-0.672,0.537-0.965s0.86-0.439,1.508-0.439c0.496,0,0.903,0.084,1.221,0.25
			c0.24,0.127,0.417,0.324,0.53,0.593c0.074,0.175,0.11,0.533,0.11,1.074v1.897c0,0.533,0.01,0.86,0.03,0.98s0.054,0.2,0.101,0.24
			c0.047,0.041,0.101,0.062,0.162,0.062c0.065,0,0.122-0.015,0.171-0.043c0.086-0.053,0.25-0.201,0.494-0.445v0.342
			c-0.455,0.61-0.891,0.915-1.306,0.915c-0.199,0-0.358-0.068-0.477-0.207S123.633,37.423,123.629,37.089z M123.629,36.692v-2.13
			c-0.614,0.244-1.012,0.417-1.19,0.519c-0.321,0.179-0.552,0.366-0.689,0.562c-0.139,0.195-0.208,0.408-0.208,0.641
			c0,0.293,0.088,0.536,0.263,0.729s0.376,0.29,0.604,0.29C122.717,37.303,123.124,37.099,123.629,36.692z M122.865,29.191
			c0.326,0,0.603,0.113,0.83,0.342c0.229,0.228,0.342,0.502,0.342,0.823c0,0.326-0.113,0.603-0.342,0.83
			c-0.228,0.229-0.504,0.342-0.83,0.342c-0.321,0-0.596-0.113-0.823-0.342c-0.229-0.228-0.342-0.504-0.342-0.83
			c0-0.321,0.112-0.596,0.339-0.823C122.265,29.305,122.54,29.191,122.865,29.191z M122.865,29.612
			c-0.207,0-0.383,0.072-0.527,0.217s-0.217,0.32-0.217,0.527c0,0.204,0.072,0.379,0.217,0.525s0.32,0.22,0.527,0.22
			c0.208,0,0.384-0.073,0.528-0.22s0.217-0.321,0.217-0.525c0-0.207-0.072-0.383-0.217-0.527S123.073,29.612,122.865,29.612z"/>
		<path style="fill:#0066FF;" d="M127.569,32.139v1.258c0.468-0.839,0.948-1.258,1.44-1.258c0.224,0,0.409,0.068,0.556,0.205
			c0.146,0.136,0.22,0.294,0.22,0.473c0,0.158-0.053,0.293-0.159,0.402c-0.105,0.11-0.231,0.165-0.378,0.165
			c-0.143,0-0.303-0.07-0.479-0.21c-0.177-0.141-0.308-0.211-0.394-0.211c-0.073,0-0.152,0.041-0.238,0.122
			c-0.183,0.167-0.372,0.441-0.567,0.824v2.679c0,0.31,0.039,0.544,0.116,0.702c0.053,0.11,0.146,0.202,0.28,0.274
			c0.135,0.074,0.328,0.11,0.58,0.11v0.22h-2.862v-0.22c0.284,0,0.496-0.045,0.635-0.134c0.102-0.065,0.173-0.169,0.213-0.312
			c0.021-0.069,0.031-0.267,0.031-0.593v-2.166c0-0.651-0.014-1.039-0.04-1.163s-0.075-0.215-0.146-0.271s-0.159-0.085-0.266-0.085
			c-0.126,0-0.269,0.03-0.427,0.091l-0.062-0.22l1.69-0.684H127.569z"/>
	</g>
	<g>
		<path style="fill:#0066FF;" d="M23.424,39.267l-0.476,1.038h-2.49l-0.543,1.11c1.078,0.159,1.933,0.56,2.563,1.202
			c0.541,0.554,0.812,1.205,0.812,1.953c0,0.436-0.089,0.839-0.266,1.209c-0.177,0.37-0.4,0.686-0.668,0.945
			c-0.269,0.261-0.568,0.471-0.897,0.629c-0.468,0.224-0.948,0.336-1.44,0.336c-0.497,0-0.858-0.085-1.083-0.253
			c-0.226-0.169-0.339-0.355-0.339-0.559c0-0.114,0.047-0.215,0.14-0.303c0.094-0.087,0.212-0.131,0.354-0.131
			c0.105,0,0.198,0.017,0.277,0.049c0.08,0.032,0.215,0.116,0.406,0.25c0.305,0.212,0.614,0.317,0.928,0.317
			c0.476,0,0.894-0.18,1.254-0.54c0.36-0.36,0.54-0.799,0.54-1.315c0-0.5-0.161-0.967-0.482-1.4s-0.765-0.769-1.331-1.004
			c-0.443-0.184-1.048-0.289-1.812-0.317l1.587-3.217H23.424z"/>
		<path style="fill:#0066FF;" d="M31.119,46.737c-0.574,0.443-0.934,0.7-1.081,0.769c-0.22,0.103-0.454,0.153-0.702,0.153
			c-0.387,0-0.705-0.133-0.956-0.397c-0.25-0.264-0.375-0.612-0.375-1.043c0-0.272,0.062-0.509,0.184-0.708
			c0.167-0.277,0.457-0.537,0.87-0.781c0.413-0.244,1.1-0.541,2.06-0.892v-0.22c0-0.558-0.089-0.939-0.266-1.147
			c-0.177-0.207-0.435-0.311-0.772-0.311c-0.256,0-0.459,0.068-0.61,0.207c-0.154,0.139-0.231,0.297-0.231,0.477l0.012,0.354
			c0,0.188-0.048,0.332-0.143,0.434c-0.096,0.102-0.221,0.152-0.375,0.152c-0.15,0-0.274-0.053-0.369-0.158
			c-0.096-0.106-0.144-0.251-0.144-0.434c0-0.351,0.179-0.672,0.537-0.965s0.86-0.439,1.508-0.439c0.496,0,0.903,0.084,1.221,0.25
			c0.24,0.127,0.417,0.324,0.531,0.593c0.073,0.175,0.11,0.533,0.11,1.074v1.897c0,0.533,0.01,0.86,0.03,0.98
			c0.021,0.12,0.054,0.2,0.101,0.24c0.046,0.041,0.101,0.062,0.162,0.062c0.065,0,0.122-0.015,0.171-0.043
			c0.085-0.053,0.25-0.201,0.494-0.445v0.342c-0.456,0.61-0.891,0.915-1.306,0.915c-0.2,0-0.358-0.068-0.477-0.207
			C31.184,47.307,31.123,47.071,31.119,46.737z M31.119,46.341v-2.13c-0.615,0.244-1.011,0.417-1.19,0.519
			c-0.321,0.179-0.551,0.366-0.689,0.562c-0.139,0.195-0.208,0.408-0.208,0.641c0,0.293,0.088,0.536,0.263,0.729
			s0.376,0.29,0.604,0.29C30.208,46.951,30.614,46.747,31.119,46.341z M30.356,38.84c0.326,0,0.602,0.113,0.83,0.342
			c0.228,0.228,0.342,0.502,0.342,0.823c0,0.326-0.114,0.603-0.342,0.83c-0.228,0.229-0.504,0.342-0.83,0.342
			c-0.321,0-0.596-0.113-0.824-0.342c-0.228-0.228-0.342-0.504-0.342-0.83c0-0.321,0.113-0.596,0.338-0.823
			C29.755,38.953,30.03,38.84,30.356,38.84z M30.356,39.261c-0.208,0-0.384,0.072-0.528,0.217c-0.145,0.145-0.217,0.32-0.217,0.527
			c0,0.204,0.072,0.379,0.217,0.525c0.144,0.146,0.32,0.22,0.528,0.22s0.383-0.073,0.528-0.22s0.217-0.321,0.217-0.525
			c0-0.207-0.072-0.383-0.217-0.527S30.563,39.261,30.356,39.261z"/>
		<path style="fill:#0066FF;" d="M35.06,41.787v1.258c0.468-0.839,0.948-1.258,1.44-1.258c0.224,0,0.409,0.068,0.556,0.205
			c0.146,0.136,0.22,0.294,0.22,0.473c0,0.158-0.053,0.293-0.159,0.402c-0.105,0.11-0.231,0.165-0.378,0.165
			c-0.143,0-0.302-0.07-0.479-0.21c-0.177-0.141-0.308-0.211-0.394-0.211c-0.073,0-0.152,0.041-0.238,0.122
			c-0.183,0.167-0.372,0.441-0.567,0.824v2.679c0,0.31,0.039,0.544,0.116,0.702c0.053,0.11,0.146,0.202,0.28,0.274
			c0.135,0.074,0.328,0.11,0.58,0.11v0.22h-2.862v-0.22c0.285,0,0.496-0.045,0.635-0.134c0.102-0.065,0.173-0.169,0.213-0.312
			c0.021-0.069,0.031-0.267,0.031-0.593v-2.166c0-0.651-0.014-1.039-0.04-1.163s-0.075-0.215-0.146-0.271s-0.16-0.085-0.266-0.085
			c-0.126,0-0.269,0.03-0.427,0.091l-0.062-0.22l1.691-0.684H35.06z"/>
	</g>
	<g>
		<path style="fill:#0066FF;" d="M98.897,6.367h6.409v0.592h-6.409V6.367z M98.897,8.644h6.409v0.604h-6.409V8.644z"/>
	</g>
	<g>
		<path style="fill:#0066FF;" d="M58.897,33.262h6.409v0.592h-6.409V33.262z M58.897,35.539h6.409v0.604h-6.409V35.539z"/>
	</g>
</g>
<g id="theGroup">
</g>
</svg>
