<?xml version="1.0" encoding="iso-8859-1"?>
<!-- Generator: Adobe Illustrator 16.0.0, SVG Export Plug-In . SVG Version: 6.00 Build 0)  -->
<!DOCTYPE svg PUBLIC "-//W3C//DTD SVG 1.1//EN" "http://www.w3.org/Graphics/SVG/1.1/DTD/svg11.dtd">
<svg version="1.1" id="Lager_1" xmlns="http://www.w3.org/2000/svg" xmlns:xlink="http://www.w3.org/1999/xlink" x="0px" y="0px"
	 width="89.87px" height="90.024px" viewBox="0 0 89.87 90.024" style="enable-background:new 0 0 89.87 90.024;"
	 xml:space="preserve">
<g id="XMLID_1_">
	<g>
		<polygon style="fill:#E5E99B;" points="44.94,44.94 22.62,67.101 45.06,89.53 0.35,89.53 0.35,0.35 45.03,0.35 45.03,44.58 
			45.03,44.94 		"/>
		<polygon style="fill:#E5E99B;" points="89.52,0.35 67.32,22.5 45.03,0.35 		"/>
		<polygon style="fill:#E5E99B;" points="67.32,22.5 45.17,44.601 45.14,44.58 45.03,44.58 45.03,0.35 		"/>
		<polygon style="fill:#E5E99B;" points="89.52,44.58 89.52,89.53 45.06,89.53 67.7,66.891 45.17,44.601 67.32,22.5 		"/>
		<polygon style="fill:#E5E99B;" points="89.52,44.58 67.32,22.5 89.52,0.35 		"/>
		<polygon style="fill:#B1B57A;" points="45.17,44.601 67.7,66.891 45.06,89.53 22.62,67.101 44.94,44.94 45.03,44.94 45.03,44.58 
			45.14,44.58 		"/>
	</g>
	<g>
		<polygon style="fill:none;stroke:#000000;stroke-width:0.7;" points="89.52,44.58 89.52,89.53 45.06,89.53 0.35,89.53 0.35,0.35 
			45.03,0.35 89.52,0.35 		"/>
		<line style="fill:none;stroke:#000000;stroke-width:0.7;" x1="22.62" y1="67.101" x2="44.94" y2="44.94"/>
		<polyline style="fill:none;stroke:#000000;stroke-width:0.7;" points="45.14,44.58 45.17,44.601 67.7,66.891 		"/>
		<polyline style="fill:none;stroke:#000000;stroke-width:0.7;" points="67.7,66.891 45.06,89.53 22.62,67.101 		"/>
		<polyline style="fill:none;stroke:#000000;stroke-width:0.5;stroke-dasharray:2;" points="45.03,62.48 45.03,44.94 45.03,44.58 
			45.03,0.35 		"/>
		<polyline style="fill:none;stroke:#000000;stroke-width:0.5;stroke-dasharray:2;" points="45.03,0.35 67.32,22.5 89.52,44.58 		
			"/>
		<line style="fill:none;stroke:#000000;stroke-width:0.5;stroke-dasharray:2;" x1="45.06" y1="89.53" x2="45.06" y2="72.34"/>
		<polyline style="fill:none;stroke:#000000;stroke-width:0.5;stroke-dasharray:2;" points="45.16,44.61 45.17,44.601 67.32,22.5 
			89.52,0.35 		"/>
	</g>
</g>
<line style="fill:none;stroke:#000000;stroke-width:0.5;stroke-dasharray:2;" x1="67.701" y1="66.862" x2="67.701" y2="22.042"/>
<g>
	<path d="M47.274,64.479v0.545h-2.782v1.935h2.062v0.544h-2.062v2.75h-0.64v-5.773H47.274z"/>
</g>
<path style="fill:none;stroke:#000000;stroke-width:0.5;stroke-dasharray:2;" d="M89.524,21.898"/>
<path style="fill:none;stroke:#000000;stroke-width:0.5;stroke-dasharray:2;" d="M0.513,21.898"/>
<line style="fill:none;stroke:#000000;stroke-width:0.5;stroke-dasharray:2;" x1="0.355" y1="89.534" x2="22.625" y2="67.099"/>
<path style="fill:none;stroke:#000000;stroke-width:0.5;stroke-dasharray:2;" d="M89.524,21.898"/>
<line style="fill:none;stroke:#000000;stroke-width:0.5;stroke-dasharray:2;" x1="67.701" y1="66.894" x2="89.524" y2="44.578"/>
<path style="fill:none;stroke:#000000;stroke-width:0.5;stroke-dasharray:2;" d="M89.524,66.894"/>
<path style="fill:none;stroke:#000000;stroke-width:0.5;stroke-dasharray:2;" d="M67.701,89.534"/>
<line style="fill:none;stroke:#000000;stroke-width:0.5;stroke-dasharray:2;" x1="0.513" y1="44.578" x2="45.03" y2="45.16"/>
<line style="fill:none;stroke:#000000;stroke-width:0.5;stroke-dasharray:2;" x1="0.513" y1="44.578" x2="45.029" y2="0.355"/>
<path style="fill:none;stroke:#000000;stroke-width:0.5;stroke-dasharray:2;" d="M22.349,0.355"/>
<path style="fill:none;stroke:#000000;stroke-width:0.5;stroke-dasharray:2;" d="M0.513,21.898"/>
<line style="fill:none;stroke:#000000;stroke-width:0.5;stroke-dasharray:2;" x1="67.7" y1="66.891" x2="89.52" y2="89.53"/>
<line style="fill:none;stroke:#000000;stroke-width:0.5;stroke-dasharray:2;" x1="22.62" y1="67.101" x2="0.513" y2="44.578"/>
<line style="fill:none;stroke:#000000;stroke-width:0.5;stroke-dasharray:2;" x1="0.35" y1="0.35" x2="44.935" y2="44.58"/>
<g id="theGroup">
</g>
<g>
</g>
<g>
</g>
<g>
</g>
<g>
</g>
<g>
</g>
<g>
</g>
</svg>
