<?xml version="1.0" encoding="iso-8859-1"?>
<!-- Generator: Adobe Illustrator 16.0.0, SVG Export Plug-In . SVG Version: 6.00 Build 0)  -->
<!DOCTYPE svg PUBLIC "-//W3C//DTD SVG 1.1//EN" "http://www.w3.org/Graphics/SVG/1.1/DTD/svg11.dtd">
<svg version="1.1" id="Lager_1" xmlns="http://www.w3.org/2000/svg" xmlns:xlink="http://www.w3.org/1999/xlink" x="0px" y="0px"
	 width="184.505px" height="17.089px" viewBox="0 0 184.505 17.089" style="enable-background:new 0 0 184.505 17.089;"
	 xml:space="preserve">
<g>
	<g>
		<path style="fill:#0066FF;" d="M70.032,5.085l-0.335,0.921h-2.823v-0.13c0.831-0.758,1.415-1.376,1.754-1.856
			c0.338-0.479,0.508-0.918,0.508-1.316c0-0.304-0.093-0.553-0.279-0.748c-0.186-0.195-0.408-0.293-0.667-0.293
			c-0.235,0-0.446,0.069-0.633,0.207s-0.325,0.339-0.415,0.605h-0.13c0.059-0.435,0.21-0.769,0.453-1.002
			c0.244-0.233,0.548-0.35,0.912-0.35c0.388,0,0.712,0.125,0.972,0.374c0.26,0.25,0.39,0.543,0.39,0.882
			c0,0.242-0.057,0.485-0.169,0.727c-0.174,0.381-0.457,0.785-0.847,1.21c-0.586,0.64-0.952,1.026-1.098,1.158h1.249
			c0.254,0,0.433-0.009,0.535-0.028c0.103-0.019,0.195-0.057,0.277-0.115c0.082-0.058,0.154-0.139,0.215-0.245H70.032z"/>
		<path style="fill:#0066FF;" d="M101.509,1.69l1.165-0.568h0.116v4.041c0,0.268,0.011,0.435,0.033,0.501s0.069,0.117,0.14,0.152
			s0.214,0.055,0.431,0.06v0.13h-1.8v-0.13c0.226-0.005,0.371-0.024,0.438-0.059c0.065-0.034,0.111-0.08,0.138-0.137
			c0.025-0.058,0.039-0.23,0.039-0.517V2.58c0-0.348-0.012-0.572-0.036-0.67c-0.016-0.075-0.046-0.13-0.09-0.166
			c-0.043-0.035-0.096-0.053-0.156-0.053c-0.088,0-0.209,0.037-0.364,0.109L101.509,1.69z"/>
		<path style="fill:#0066FF;" d="M132.871,3.642c0-0.545,0.083-1.016,0.247-1.41c0.165-0.394,0.384-0.688,0.656-0.88
			c0.212-0.153,0.431-0.229,0.656-0.229c0.367,0,0.696,0.187,0.988,0.561c0.365,0.464,0.547,1.092,0.547,1.884
			c0,0.555-0.08,1.027-0.239,1.415c-0.16,0.388-0.364,0.67-0.612,0.845c-0.249,0.175-0.488,0.263-0.719,0.263
			c-0.456,0-0.836-0.269-1.14-0.808C133,4.829,132.871,4.282,132.871,3.642z M133.563,3.73c0,0.659,0.081,1.196,0.243,1.612
			c0.134,0.351,0.334,0.526,0.6,0.526c0.127,0,0.259-0.057,0.396-0.171c0.137-0.114,0.24-0.305,0.311-0.574
			c0.108-0.404,0.162-0.975,0.162-1.711c0-0.545-0.057-1-0.169-1.365c-0.085-0.271-0.194-0.462-0.328-0.575
			c-0.097-0.078-0.213-0.117-0.35-0.117c-0.16,0-0.303,0.072-0.427,0.215c-0.17,0.195-0.285,0.502-0.346,0.921
			C133.594,2.91,133.563,3.323,133.563,3.73z"/>
	</g>
	<g>
		<path style="fill:#0066FF;" d="M19.458,11.895v2.125c0,0.301,0.033,0.491,0.099,0.571c0.087,0.104,0.204,0.155,0.349,0.155h0.293
			v0.127h-1.93v-0.127h0.145c0.094,0,0.18-0.023,0.257-0.07c0.078-0.048,0.131-0.111,0.161-0.19c0.029-0.08,0.044-0.235,0.044-0.466
			v-2.125h-0.628v-0.254h0.628v-0.212c0-0.322,0.052-0.595,0.155-0.818s0.262-0.404,0.475-0.541
			c0.213-0.138,0.452-0.207,0.718-0.207c0.247,0,0.474,0.08,0.681,0.24c0.137,0.105,0.205,0.225,0.205,0.356
			c0,0.07-0.031,0.137-0.092,0.199c-0.062,0.062-0.127,0.094-0.198,0.094c-0.054,0-0.111-0.02-0.171-0.059
			c-0.06-0.039-0.134-0.122-0.221-0.25c-0.087-0.129-0.167-0.215-0.24-0.26c-0.073-0.045-0.154-0.067-0.244-0.067
			c-0.108,0-0.2,0.029-0.275,0.087s-0.129,0.146-0.162,0.268c-0.033,0.122-0.049,0.434-0.049,0.938v0.232h0.833v0.254H19.458z"/>
		<path style="fill:#0066FF;" d="M21.086,12.858c-0.002,0.479,0.114,0.856,0.35,1.129c0.235,0.273,0.512,0.409,0.829,0.409
			c0.212,0,0.396-0.058,0.552-0.175c0.156-0.116,0.288-0.315,0.394-0.598l0.109,0.07c-0.049,0.322-0.193,0.616-0.431,0.881
			c-0.237,0.265-0.535,0.396-0.893,0.396c-0.388,0-0.721-0.151-0.997-0.453c-0.276-0.303-0.415-0.709-0.415-1.22
			c0-0.553,0.142-0.983,0.425-1.293s0.639-0.464,1.067-0.464c0.362,0,0.66,0.119,0.893,0.358c0.233,0.238,0.35,0.558,0.35,0.958
			H21.086z M21.086,12.653h1.496c-0.012-0.207-0.036-0.353-0.074-0.438c-0.059-0.132-0.146-0.235-0.263-0.311
			c-0.116-0.075-0.238-0.112-0.365-0.112c-0.195,0-0.37,0.075-0.524,0.228C21.203,12.172,21.112,12.383,21.086,12.653z"/>
		<path style="fill:#0066FF;" d="M24.631,12.233c0.235-0.235,0.374-0.37,0.417-0.405c0.106-0.09,0.22-0.159,0.342-0.208
			c0.122-0.05,0.243-0.074,0.363-0.074c0.202,0,0.376,0.059,0.522,0.176c0.146,0.118,0.243,0.288,0.293,0.512
			c0.242-0.282,0.447-0.467,0.614-0.556c0.167-0.088,0.339-0.132,0.515-0.132c0.172,0,0.324,0.044,0.457,0.132
			c0.133,0.089,0.238,0.232,0.316,0.433c0.052,0.137,0.078,0.351,0.078,0.642v1.391c0,0.202,0.015,0.341,0.046,0.416
			c0.023,0.052,0.067,0.097,0.13,0.133s0.167,0.055,0.311,0.055v0.127h-1.595v-0.127h0.067c0.139,0,0.247-0.027,0.325-0.081
			c0.054-0.038,0.093-0.098,0.116-0.18c0.009-0.04,0.014-0.154,0.014-0.343v-1.391c0-0.263-0.032-0.449-0.095-0.557
			c-0.092-0.151-0.239-0.227-0.441-0.227c-0.125,0-0.25,0.031-0.376,0.094s-0.278,0.178-0.457,0.348l-0.007,0.039l0.007,0.151v1.542
			c0,0.222,0.012,0.358,0.037,0.413c0.025,0.054,0.071,0.1,0.139,0.136c0.068,0.036,0.185,0.055,0.35,0.055v0.127h-1.634v-0.127
			c0.179,0,0.302-0.021,0.369-0.063s0.114-0.106,0.14-0.19c0.012-0.04,0.018-0.156,0.018-0.35v-1.391
			c0-0.263-0.039-0.452-0.117-0.567c-0.104-0.15-0.248-0.227-0.434-0.227c-0.127,0-0.253,0.034-0.377,0.103
			c-0.195,0.104-0.346,0.22-0.452,0.35v1.732c0,0.212,0.015,0.35,0.044,0.413c0.03,0.063,0.073,0.111,0.131,0.143
			c0.058,0.032,0.175,0.048,0.351,0.048v0.127h-1.599v-0.127c0.148,0,0.252-0.016,0.311-0.048c0.059-0.031,0.104-0.082,0.134-0.151
			c0.03-0.069,0.046-0.204,0.046-0.404v-1.235c0-0.354-0.011-0.584-0.032-0.688c-0.017-0.078-0.042-0.131-0.078-0.161
			c-0.036-0.029-0.083-0.044-0.145-0.044c-0.066,0-0.145,0.018-0.236,0.053l-0.053-0.127l0.974-0.395h0.152V12.233z"/>
		<path style="fill:#0066FF;" d="M143.709,10.579v1.062h0.756v0.247h-0.756v2.096c0,0.21,0.03,0.351,0.091,0.424
			c0.06,0.073,0.137,0.109,0.23,0.109c0.078,0,0.153-0.024,0.226-0.072c0.073-0.048,0.13-0.119,0.17-0.214h0.138
			c-0.083,0.23-0.199,0.404-0.35,0.521c-0.15,0.117-0.306,0.175-0.466,0.175c-0.108,0-0.214-0.03-0.317-0.09
			s-0.18-0.146-0.229-0.258c-0.05-0.111-0.074-0.284-0.074-0.517v-2.174h-0.512v-0.116c0.13-0.052,0.262-0.14,0.397-0.263
			c0.135-0.124,0.256-0.271,0.361-0.439c0.055-0.09,0.13-0.253,0.226-0.49H143.709z"/>
		<path style="fill:#0066FF;" d="M145.915,11.546v2.597c0,0.202,0.015,0.337,0.044,0.404c0.029,0.066,0.073,0.117,0.131,0.149
			c0.058,0.033,0.163,0.05,0.315,0.05v0.127h-1.57v-0.127c0.158,0,0.264-0.016,0.318-0.046c0.054-0.03,0.097-0.081,0.128-0.151
			c0.032-0.071,0.048-0.206,0.048-0.406v-1.245c0-0.351-0.011-0.578-0.031-0.682c-0.017-0.075-0.043-0.127-0.078-0.157
			c-0.035-0.029-0.083-0.044-0.145-0.044c-0.065,0-0.146,0.018-0.24,0.053l-0.049-0.127l0.974-0.395H145.915z M145.622,9.855
			c0.099,0,0.183,0.034,0.252,0.104c0.07,0.069,0.104,0.153,0.104,0.252s-0.034,0.184-0.104,0.254
			c-0.069,0.07-0.153,0.105-0.252,0.105s-0.184-0.035-0.254-0.105s-0.105-0.155-0.105-0.254s0.034-0.183,0.104-0.252
			C145.436,9.89,145.521,9.855,145.622,9.855z"/>
		<path style="fill:#0066FF;" d="M148.411,11.546c0.489,0,0.882,0.186,1.179,0.558c0.252,0.317,0.377,0.682,0.377,1.094
			c0,0.289-0.069,0.582-0.208,0.878c-0.139,0.297-0.33,0.521-0.573,0.671s-0.515,0.226-0.813,0.226
			c-0.486,0-0.874-0.194-1.161-0.582c-0.242-0.327-0.363-0.694-0.363-1.101c0-0.297,0.074-0.592,0.221-0.884
			c0.147-0.293,0.341-0.51,0.581-0.649C147.889,11.615,148.143,11.546,148.411,11.546z M148.302,11.775
			c-0.125,0-0.25,0.036-0.376,0.11s-0.228,0.204-0.305,0.391c-0.078,0.186-0.117,0.424-0.117,0.716c0,0.471,0.094,0.876,0.281,1.218
			c0.187,0.341,0.433,0.512,0.739,0.512c0.228,0,0.416-0.095,0.564-0.282c0.148-0.188,0.222-0.512,0.222-0.971
			c0-0.574-0.123-1.025-0.37-1.355C148.773,11.888,148.561,11.775,148.302,11.775z"/>
		<path style="fill:#0066FF;" d="M177.997,10.579v1.062h0.756v0.247h-0.756v2.096c0,0.21,0.03,0.351,0.091,0.424
			c0.06,0.073,0.137,0.109,0.23,0.109c0.078,0,0.153-0.024,0.226-0.072c0.073-0.048,0.13-0.119,0.17-0.214h0.138
			c-0.083,0.23-0.199,0.404-0.35,0.521c-0.15,0.117-0.306,0.175-0.466,0.175c-0.108,0-0.214-0.03-0.317-0.09
			s-0.18-0.146-0.229-0.258c-0.05-0.111-0.074-0.284-0.074-0.517v-2.174h-0.512v-0.116c0.13-0.052,0.262-0.14,0.397-0.263
			c0.135-0.124,0.256-0.271,0.361-0.439c0.055-0.09,0.13-0.253,0.226-0.49H177.997z"/>
		<path style="fill:#0066FF;" d="M180.203,11.546v2.597c0,0.202,0.015,0.337,0.044,0.404c0.029,0.066,0.073,0.117,0.131,0.149
			c0.058,0.033,0.163,0.05,0.315,0.05v0.127h-1.57v-0.127c0.158,0,0.264-0.016,0.318-0.046c0.054-0.03,0.097-0.081,0.128-0.151
			c0.032-0.071,0.048-0.206,0.048-0.406v-1.245c0-0.351-0.011-0.578-0.031-0.682c-0.017-0.075-0.043-0.127-0.078-0.157
			c-0.035-0.029-0.083-0.044-0.145-0.044c-0.065,0-0.146,0.018-0.24,0.053l-0.049-0.127l0.974-0.395H180.203z M179.91,9.855
			c0.099,0,0.183,0.034,0.252,0.104c0.07,0.069,0.104,0.153,0.104,0.252s-0.034,0.184-0.104,0.254
			c-0.069,0.07-0.153,0.105-0.252,0.105s-0.184-0.035-0.254-0.105s-0.105-0.155-0.105-0.254s0.034-0.183,0.104-0.252
			C179.724,9.89,179.81,9.855,179.91,9.855z"/>
		<path style="fill:#0066FF;" d="M182.698,11.546c0.489,0,0.882,0.186,1.179,0.558c0.252,0.317,0.377,0.682,0.377,1.094
			c0,0.289-0.069,0.582-0.208,0.878c-0.139,0.297-0.33,0.521-0.573,0.671s-0.515,0.226-0.813,0.226
			c-0.486,0-0.874-0.194-1.161-0.582c-0.242-0.327-0.363-0.694-0.363-1.101c0-0.297,0.074-0.592,0.221-0.884
			c0.147-0.293,0.341-0.51,0.581-0.649C182.176,11.615,182.43,11.546,182.698,11.546z M182.589,11.775
			c-0.125,0-0.25,0.036-0.376,0.11s-0.228,0.204-0.305,0.391c-0.078,0.186-0.117,0.424-0.117,0.716c0,0.471,0.094,0.876,0.281,1.218
			c0.187,0.341,0.433,0.512,0.739,0.512c0.228,0,0.416-0.095,0.564-0.282c0.148-0.188,0.222-0.512,0.222-0.971
			c0-0.574-0.123-1.025-0.37-1.355C183.061,11.888,182.848,11.775,182.589,11.775z"/>
	</g>
	<g>
		<path style="fill:#0066FF;" d="M47.866,14.068v0.227c-0.614-0.31-1.127-0.672-1.538-1.087c-0.586-0.59-1.038-1.286-1.355-2.087
			c-0.317-0.802-0.476-1.634-0.476-2.497c0-1.261,0.312-2.412,0.934-3.451c0.623-1.04,1.435-1.783,2.436-2.231v0.256
			c-0.5,0.277-0.912,0.655-1.233,1.135s-0.562,1.088-0.72,1.825c-0.159,0.737-0.238,1.506-0.238,2.308
			c0,0.871,0.067,1.662,0.202,2.374c0.106,0.562,0.234,1.012,0.384,1.352c0.151,0.34,0.353,0.667,0.607,0.98
			C47.123,13.484,47.455,13.784,47.866,14.068z"/>
		<path style="fill:#0066FF;" d="M65.773,3.345l-0.476,1.038h-2.49l-0.543,1.111c1.078,0.159,1.933,0.56,2.563,1.202
			c0.541,0.554,0.812,1.205,0.812,1.953c0,0.436-0.089,0.838-0.266,1.209c-0.177,0.37-0.4,0.686-0.668,0.945
			c-0.269,0.261-0.568,0.471-0.897,0.629c-0.468,0.224-0.948,0.336-1.44,0.336c-0.497,0-0.858-0.085-1.083-0.253
			c-0.226-0.169-0.339-0.355-0.339-0.559c0-0.114,0.047-0.215,0.14-0.303c0.094-0.087,0.212-0.131,0.354-0.131
			c0.105,0,0.198,0.016,0.277,0.049c0.08,0.033,0.215,0.116,0.406,0.25c0.305,0.212,0.614,0.317,0.928,0.317
			c0.476,0,0.894-0.18,1.254-0.54c0.36-0.359,0.54-0.799,0.54-1.315c0-0.5-0.161-0.967-0.482-1.4
			c-0.321-0.434-0.765-0.768-1.331-1.004c-0.443-0.184-1.048-0.289-1.812-0.317l1.587-3.217H65.773z"/>
		<path style="fill:#0066FF;" d="M100.535,3.345l-0.476,1.038h-2.49l-0.544,1.111c1.079,0.159,1.934,0.56,2.564,1.202
			c0.541,0.554,0.812,1.205,0.812,1.953c0,0.436-0.089,0.838-0.266,1.209c-0.177,0.37-0.399,0.686-0.669,0.945
			c-0.268,0.261-0.567,0.471-0.896,0.629c-0.468,0.224-0.948,0.336-1.44,0.336c-0.497,0-0.857-0.085-1.084-0.253
			c-0.226-0.169-0.339-0.355-0.339-0.559c0-0.114,0.047-0.215,0.141-0.303c0.094-0.087,0.212-0.131,0.354-0.131
			c0.105,0,0.198,0.016,0.277,0.049s0.215,0.116,0.406,0.25c0.305,0.212,0.614,0.317,0.928,0.317c0.476,0,0.894-0.18,1.254-0.54
			c0.36-0.359,0.54-0.799,0.54-1.315c0-0.5-0.16-0.967-0.482-1.4c-0.321-0.434-0.765-0.768-1.33-1.004
			c-0.443-0.184-1.048-0.289-1.812-0.317l1.587-3.217H100.535z"/>
		<path style="fill:#0066FF;" d="M131.785,3.345l-0.476,1.038h-2.49l-0.544,1.111c1.079,0.159,1.934,0.56,2.564,1.202
			c0.541,0.554,0.812,1.205,0.812,1.953c0,0.436-0.089,0.838-0.266,1.209c-0.177,0.37-0.399,0.686-0.669,0.945
			c-0.268,0.261-0.567,0.471-0.896,0.629c-0.468,0.224-0.948,0.336-1.44,0.336c-0.497,0-0.857-0.085-1.084-0.253
			c-0.226-0.169-0.339-0.355-0.339-0.559c0-0.114,0.047-0.215,0.141-0.303c0.094-0.087,0.212-0.131,0.354-0.131
			c0.105,0,0.198,0.016,0.277,0.049s0.215,0.116,0.406,0.25c0.305,0.212,0.614,0.317,0.928,0.317c0.476,0,0.894-0.18,1.254-0.54
			c0.36-0.359,0.54-0.799,0.54-1.315c0-0.5-0.16-0.967-0.482-1.4c-0.321-0.434-0.765-0.768-1.33-1.004
			c-0.443-0.184-1.048-0.289-1.812-0.317l1.587-3.217H131.785z"/>
		<path style="fill:#0066FF;" d="M138.115,3.198V2.942c0.618,0.305,1.133,0.666,1.544,1.081c0.582,0.594,1.031,1.291,1.349,2.09
			c0.317,0.799,0.477,1.632,0.477,2.5c0,1.262-0.311,2.412-0.932,3.451c-0.62,1.04-1.433,1.783-2.438,2.231v-0.227
			c0.5-0.28,0.912-0.66,1.235-1.138c0.323-0.479,0.563-1.087,0.721-1.825c0.156-0.739,0.234-1.509,0.234-2.311
			c0-0.866-0.067-1.658-0.201-2.374c-0.102-0.562-0.229-1.011-0.382-1.349c-0.152-0.338-0.354-0.664-0.607-0.977
			C138.863,3.782,138.529,3.483,138.115,3.198z"/>
	</g>
	<g>
		<path style="fill:#CC0000;" d="M5.731,10.028l-0.58,1.593H0.269v-0.226c1.437-1.311,2.447-2.381,3.033-3.211
			s0.879-1.589,0.879-2.276c0-0.525-0.161-0.956-0.482-1.294S2.993,4.107,2.545,4.107c-0.407,0-0.772,0.119-1.095,0.357
			C1.126,4.703,0.887,5.052,0.732,5.512H0.507C0.608,4.759,0.87,4.181,1.291,3.778c0.421-0.403,0.947-0.604,1.578-0.604
			c0.671,0,1.232,0.216,1.682,0.647C5,4.252,5.225,4.761,5.225,5.347c0,0.419-0.098,0.838-0.293,1.257
			C4.63,7.263,4.142,7.961,3.467,8.697c-1.013,1.106-1.646,1.774-1.898,2.002h2.161c0.439,0,0.748-0.016,0.924-0.049
			c0.177-0.032,0.337-0.099,0.479-0.198c0.143-0.1,0.267-0.241,0.373-0.424H5.731z"/>
		<path style="fill:#CC0000;" d="M6.702,7.532c0-0.944,0.143-1.757,0.427-2.438C7.414,4.412,7.792,3.904,8.264,3.57
			C8.63,3.306,9.009,3.174,9.399,3.174c0.635,0,1.205,0.323,1.709,0.971c0.631,0.801,0.946,1.888,0.946,3.259
			c0,0.96-0.139,1.776-0.415,2.447c-0.277,0.672-0.63,1.159-1.059,1.462c-0.43,0.304-0.843,0.455-1.242,0.455
			c-0.79,0-1.447-0.466-1.971-1.397C6.923,9.584,6.702,8.639,6.702,7.532z M7.898,7.685c0,1.139,0.14,2.068,0.421,2.789
			c0.231,0.606,0.578,0.909,1.037,0.909c0.22,0,0.448-0.099,0.684-0.296c0.236-0.197,0.415-0.527,0.537-0.992
			c0.188-0.699,0.281-1.686,0.281-2.96c0-0.944-0.098-1.731-0.293-2.362c-0.146-0.468-0.336-0.799-0.568-0.995
			C9.831,3.644,9.629,3.577,9.394,3.577c-0.277,0-0.523,0.124-0.739,0.373C8.362,4.287,8.163,4.818,8.057,5.542
			S7.898,6.98,7.898,7.685z"/>
		<path style="fill:#CC0000;" d="M54.207,10.028l-0.58,1.593h-4.883v-0.226c1.437-1.311,2.447-2.381,3.033-3.211
			s0.879-1.589,0.879-2.276c0-0.525-0.161-0.956-0.482-1.294s-0.706-0.507-1.154-0.507c-0.407,0-0.772,0.119-1.095,0.357
			c-0.324,0.238-0.562,0.587-0.717,1.047h-0.226c0.102-0.753,0.363-1.331,0.784-1.733c0.421-0.403,0.947-0.604,1.578-0.604
			c0.671,0,1.232,0.216,1.682,0.647c0.449,0.431,0.674,0.94,0.674,1.526c0,0.419-0.098,0.838-0.293,1.257
			c-0.301,0.659-0.79,1.357-1.465,2.093c-1.013,1.106-1.646,1.774-1.898,2.002h2.161c0.439,0,0.748-0.016,0.924-0.049
			c0.177-0.032,0.337-0.099,0.479-0.198c0.143-0.1,0.267-0.241,0.373-0.424H54.207z"/>
		<path style="fill:#CC0000;" d="M116.928,4.156l2.014-0.982h0.202v6.988c0,0.464,0.019,0.753,0.058,0.867
			c0.039,0.113,0.119,0.201,0.241,0.262c0.122,0.062,0.37,0.096,0.745,0.104v0.226h-3.113v-0.226
			c0.391-0.009,0.643-0.042,0.757-0.101c0.114-0.06,0.193-0.139,0.238-0.238s0.067-0.397,0.067-0.895V5.694
			c0-0.602-0.021-0.988-0.062-1.159c-0.028-0.13-0.08-0.226-0.155-0.287c-0.076-0.061-0.166-0.092-0.271-0.092
			c-0.151,0-0.36,0.063-0.629,0.189L116.928,4.156z"/>
	</g>
	<g>
		<path style="fill:#0066FF;" d="M170.348,3.345l-0.476,1.038h-2.49l-0.544,1.111c1.079,0.159,1.934,0.56,2.564,1.202
			c0.541,0.554,0.812,1.205,0.812,1.953c0,0.436-0.089,0.838-0.266,1.209c-0.177,0.37-0.399,0.686-0.669,0.945
			c-0.268,0.261-0.567,0.471-0.896,0.629c-0.468,0.224-0.948,0.336-1.44,0.336c-0.497,0-0.857-0.085-1.084-0.253
			c-0.226-0.169-0.339-0.355-0.339-0.559c0-0.114,0.047-0.215,0.141-0.303c0.094-0.087,0.212-0.131,0.354-0.131
			c0.105,0,0.198,0.016,0.277,0.049s0.215,0.116,0.406,0.25c0.305,0.212,0.614,0.317,0.928,0.317c0.476,0,0.894-0.18,1.254-0.54
			c0.36-0.359,0.54-0.799,0.54-1.315c0-0.5-0.16-0.967-0.482-1.4c-0.321-0.434-0.765-0.768-1.33-1.004
			c-0.443-0.184-1.048-0.289-1.812-0.317l1.587-3.217H170.348z"/>
		<path style="fill:#0066FF;" d="M172.637,4.156l2.014-0.982h0.202v6.988c0,0.464,0.019,0.753,0.058,0.867
			c0.039,0.113,0.119,0.201,0.241,0.262c0.122,0.062,0.37,0.096,0.745,0.104v0.226h-3.113v-0.226
			c0.391-0.009,0.643-0.042,0.757-0.101c0.114-0.06,0.193-0.139,0.238-0.238s0.067-0.397,0.067-0.895V5.694
			c0-0.602-0.021-0.988-0.062-1.159c-0.028-0.13-0.08-0.226-0.155-0.287c-0.076-0.061-0.166-0.092-0.271-0.092
			c-0.151,0-0.36,0.063-0.629,0.189L172.637,4.156z"/>
	</g>
	<g>
		<path style="fill:#CC0000;" d="M13.965,4.156l2.014-0.982h0.202v6.988c0,0.464,0.019,0.753,0.058,0.867
			c0.039,0.113,0.119,0.201,0.241,0.262c0.122,0.062,0.37,0.096,0.745,0.104v0.226h-3.113v-0.226
			c0.391-0.009,0.643-0.042,0.757-0.101c0.114-0.06,0.193-0.139,0.238-0.238c0.044-0.1,0.067-0.397,0.067-0.895V5.694
			c0-0.602-0.021-0.988-0.061-1.159c-0.028-0.13-0.081-0.226-0.156-0.287s-0.166-0.092-0.271-0.092c-0.15,0-0.36,0.063-0.628,0.189
			L13.965,4.156z"/>
		<path style="fill:#CC0000;" d="M83.689,7.532c0-0.944,0.143-1.757,0.427-2.438c0.285-0.681,0.663-1.189,1.135-1.523
			c0.366-0.264,0.745-0.396,1.135-0.396c0.635,0,1.205,0.323,1.709,0.971c0.631,0.801,0.946,1.888,0.946,3.259
			c0,0.96-0.139,1.776-0.415,2.447c-0.277,0.672-0.63,1.159-1.059,1.462c-0.43,0.304-0.843,0.455-1.242,0.455
			c-0.79,0-1.447-0.466-1.971-1.397C83.911,9.584,83.689,8.639,83.689,7.532z M84.885,7.685c0,1.139,0.14,2.068,0.421,2.789
			c0.231,0.606,0.578,0.909,1.037,0.909c0.22,0,0.448-0.099,0.684-0.296c0.236-0.197,0.415-0.527,0.537-0.992
			c0.188-0.699,0.281-1.686,0.281-2.96c0-0.944-0.098-1.731-0.293-2.362c-0.146-0.468-0.336-0.799-0.568-0.995
			c-0.167-0.135-0.368-0.202-0.604-0.202c-0.277,0-0.523,0.124-0.739,0.373c-0.293,0.337-0.492,0.869-0.598,1.593
			S84.885,6.98,84.885,7.685z"/>
	</g>
	<g>
		<path style="fill:#0066FF;" d="M34.005,6.988h6.409v0.592h-6.409V6.988z M34.005,9.265h6.409v0.604h-6.409V9.265z"/>
		<path style="fill:#0066FF;" d="M58.199,8.423c0,0.187-0.066,0.347-0.198,0.479c-0.132,0.132-0.29,0.199-0.473,0.199
			c-0.187,0-0.347-0.066-0.479-0.199C56.916,8.77,56.85,8.61,56.85,8.423s0.066-0.347,0.199-0.479
			c0.132-0.132,0.292-0.199,0.479-0.199c0.183,0,0.341,0.066,0.473,0.199C58.132,8.076,58.199,8.236,58.199,8.423z"/>
		<path style="fill:#0066FF;" d="M77.102,5.212H77.7V8.13H80.6v0.592H77.7v2.899h-0.598V8.722H74.19V8.13h2.912V5.212z"/>
		<path style="fill:#0066FF;" d="M92.946,8.423c0,0.187-0.066,0.347-0.198,0.479c-0.132,0.132-0.29,0.199-0.473,0.199
			c-0.187,0-0.347-0.066-0.479-0.199c-0.132-0.132-0.199-0.292-0.199-0.479s0.066-0.347,0.199-0.479
			c0.132-0.132,0.292-0.199,0.479-0.199c0.183,0,0.341,0.066,0.473,0.199C92.88,8.076,92.946,8.236,92.946,8.423z"/>
		<path style="fill:#0066FF;" d="M110.486,5.212h0.599V8.13h2.899v0.592h-2.899v2.899h-0.599V8.722h-2.911V8.13h2.911V5.212z"/>
		<path style="fill:#0066FF;" d="M124.183,8.423c0,0.187-0.066,0.347-0.199,0.479c-0.132,0.132-0.289,0.199-0.473,0.199
			c-0.188,0-0.347-0.066-0.479-0.199c-0.132-0.132-0.198-0.292-0.198-0.479s0.066-0.347,0.198-0.479
			c0.133-0.132,0.292-0.199,0.479-0.199c0.184,0,0.341,0.066,0.473,0.199C124.116,8.076,124.183,8.236,124.183,8.423z"/>
		<path style="fill:#0066FF;" d="M155.099,6.988h6.409v0.592h-6.409V6.988z M155.099,9.265h6.409v0.604h-6.409V9.265z"/>
	</g>
</g>
<g id="theGroup">
</g>
</svg>
