<?xml version="1.0" encoding="iso-8859-1"?>
<!-- Generator: Adobe Illustrator 16.0.0, SVG Export Plug-In . SVG Version: 6.00 Build 0)  -->
<!DOCTYPE svg PUBLIC "-//W3C//DTD SVG 1.1//EN" "http://www.w3.org/Graphics/SVG/1.1/DTD/svg11.dtd">
<svg version="1.1" id="Lager_1" xmlns="http://www.w3.org/2000/svg" xmlns:xlink="http://www.w3.org/1999/xlink" x="0px" y="0px"
	 width="181.238px" height="32.044px" viewBox="0 0 181.238 32.044" style="enable-background:new 0 0 181.238 32.044;"
	 xml:space="preserve">
<g>
	
		<line style="fill:none;stroke:#0066FF;stroke-width:0.5;stroke-linecap:square;stroke-miterlimit:10;" x1="0.25" y1="15.242" x2="7.672" y2="15.242"/>
	
		<line style="fill:none;stroke:#0066FF;stroke-width:0.5;stroke-linecap:square;stroke-miterlimit:10;" x1="67.906" y1="15.242" x2="75.328" y2="15.242"/>
	
		<line style="fill:none;stroke:#0066FF;stroke-width:0.5;stroke-linecap:square;stroke-miterlimit:10;" x1="122.242" y1="15.242" x2="140.797" y2="15.242"/>
	<g>
		<path style="fill:#0066FF;" d="M6.763,8.796l-0.58,1.593H1.3v-0.226c1.437-1.311,2.447-2.381,3.033-3.211s0.879-1.589,0.879-2.276
			c0-0.525-0.161-0.956-0.482-1.294S4.024,2.875,3.576,2.875c-0.407,0-0.772,0.119-1.095,0.357C2.157,3.47,1.918,3.819,1.764,4.279
			H1.538C1.64,3.526,1.901,2.948,2.322,2.546C2.743,2.143,3.269,1.941,3.9,1.941c0.671,0,1.232,0.216,1.682,0.646
			c0.449,0.432,0.674,0.94,0.674,1.526c0,0.419-0.098,0.838-0.293,1.257C5.662,6.03,5.173,6.729,4.498,7.465
			C3.485,8.571,2.852,9.239,2.6,9.467h2.161c0.439,0,0.748-0.017,0.924-0.049C5.862,9.386,6.022,9.319,6.164,9.22
			c0.143-0.1,0.267-0.241,0.373-0.424H6.763z"/>
		<path style="fill:#0066FF;" d="M74.413,8.796l-0.58,1.593H68.95v-0.226c1.437-1.311,2.447-2.381,3.033-3.211
			s0.879-1.589,0.879-2.276c0-0.525-0.161-0.956-0.482-1.294s-0.706-0.507-1.154-0.507c-0.407,0-0.772,0.119-1.095,0.357
			c-0.324,0.237-0.562,0.587-0.717,1.047h-0.226c0.102-0.753,0.363-1.331,0.784-1.733c0.421-0.403,0.947-0.604,1.578-0.604
			c0.671,0,1.232,0.216,1.682,0.646c0.449,0.432,0.674,0.94,0.674,1.526c0,0.419-0.098,0.838-0.293,1.257
			c-0.301,0.659-0.79,1.357-1.465,2.094c-1.013,1.106-1.646,1.774-1.898,2.002h2.161c0.439,0,0.748-0.017,0.924-0.049
			c0.177-0.032,0.337-0.099,0.479-0.198c0.143-0.1,0.267-0.241,0.373-0.424H74.413z"/>
		<path style="fill:#0066FF;" d="M123.108,2.924l2.014-0.982h0.202V8.93c0,0.464,0.019,0.753,0.058,0.867
			c0.039,0.113,0.119,0.201,0.241,0.262c0.122,0.062,0.37,0.096,0.745,0.104v0.226h-3.113v-0.226
			c0.391-0.009,0.643-0.042,0.757-0.102c0.114-0.059,0.193-0.138,0.238-0.237s0.067-0.398,0.067-0.895V4.462
			c0-0.603-0.021-0.988-0.062-1.159c-0.028-0.131-0.08-0.227-0.155-0.287c-0.076-0.062-0.166-0.092-0.271-0.092
			c-0.151,0-0.36,0.063-0.629,0.189L123.108,2.924z"/>
		<path style="fill:#0066FF;" d="M133.625,8.796l-0.58,1.593h-4.883v-0.226c1.437-1.311,2.447-2.381,3.033-3.211
			s0.879-1.589,0.879-2.276c0-0.525-0.16-0.956-0.481-1.294c-0.322-0.338-0.706-0.507-1.154-0.507c-0.406,0-0.771,0.119-1.096,0.357
			c-0.323,0.237-0.562,0.587-0.717,1.047H128.4c0.102-0.753,0.363-1.331,0.784-1.733c0.421-0.403,0.947-0.604,1.578-0.604
			c0.671,0,1.231,0.216,1.681,0.646c0.45,0.432,0.675,0.94,0.675,1.526c0,0.419-0.098,0.838-0.293,1.257
			c-0.301,0.659-0.789,1.357-1.465,2.094c-1.014,1.106-1.646,1.774-1.898,2.002h2.161c0.439,0,0.747-0.017,0.925-0.049
			c0.177-0.032,0.336-0.099,0.479-0.198s0.267-0.241,0.373-0.424H133.625z"/>
		<path style="fill:#0066FF;" d="M134.595,6.299c0-0.943,0.143-1.757,0.428-2.438c0.285-0.681,0.663-1.188,1.135-1.522
			c0.367-0.265,0.745-0.396,1.136-0.396c0.635,0,1.204,0.323,1.709,0.971c0.631,0.801,0.946,1.888,0.946,3.259
			c0,0.96-0.139,1.776-0.415,2.447c-0.277,0.672-0.63,1.159-1.06,1.462c-0.429,0.304-0.843,0.455-1.242,0.455
			c-0.789,0-1.446-0.466-1.971-1.397C134.817,8.352,134.595,7.406,134.595,6.299z M135.792,6.452c0,1.139,0.14,2.068,0.421,2.789
			c0.231,0.606,0.577,0.909,1.037,0.909c0.22,0,0.448-0.099,0.684-0.296c0.236-0.197,0.415-0.528,0.537-0.992
			c0.188-0.699,0.281-1.687,0.281-2.96c0-0.944-0.098-1.731-0.293-2.362c-0.146-0.468-0.336-0.799-0.567-0.994
			c-0.167-0.135-0.369-0.202-0.604-0.202c-0.277,0-0.523,0.124-0.739,0.373c-0.293,0.337-0.492,0.868-0.598,1.593
			C135.845,5.033,135.792,5.748,135.792,6.452z"/>
	</g>
	<g>
		<path style="fill:#0066FF;" d="M16.699,17.767c-0.574,0.443-0.934,0.7-1.081,0.769c-0.22,0.103-0.454,0.153-0.702,0.153
			c-0.387,0-0.705-0.133-0.956-0.397c-0.25-0.264-0.375-0.612-0.375-1.043c0-0.272,0.062-0.509,0.184-0.708
			c0.167-0.276,0.457-0.537,0.87-0.781c0.413-0.244,1.1-0.541,2.06-0.892v-0.22c0-0.557-0.089-0.939-0.266-1.147
			c-0.177-0.207-0.435-0.311-0.772-0.311c-0.256,0-0.459,0.069-0.61,0.207c-0.154,0.139-0.231,0.297-0.231,0.477l0.012,0.354
			c0,0.188-0.048,0.332-0.143,0.434c-0.096,0.102-0.221,0.152-0.375,0.152c-0.15,0-0.274-0.053-0.369-0.158
			c-0.096-0.106-0.144-0.251-0.144-0.434c0-0.35,0.179-0.672,0.537-0.965s0.86-0.439,1.508-0.439c0.496,0,0.903,0.084,1.221,0.251
			c0.24,0.126,0.417,0.323,0.531,0.592c0.073,0.175,0.11,0.533,0.11,1.074v1.897c0,0.533,0.01,0.86,0.03,0.98
			c0.021,0.12,0.054,0.2,0.101,0.24c0.046,0.041,0.101,0.062,0.162,0.062c0.065,0,0.122-0.015,0.171-0.043
			c0.085-0.053,0.25-0.201,0.494-0.445v0.342c-0.456,0.61-0.891,0.915-1.306,0.915c-0.2,0-0.358-0.068-0.477-0.207
			C16.764,18.336,16.703,18.101,16.699,17.767z M16.699,17.37v-2.13c-0.615,0.244-1.011,0.417-1.19,0.519
			c-0.321,0.179-0.551,0.366-0.689,0.562c-0.139,0.195-0.208,0.408-0.208,0.641c0,0.293,0.088,0.536,0.263,0.729
			s0.376,0.29,0.604,0.29C15.788,17.98,16.194,17.776,16.699,17.37z"/>
		<path style="fill:#0066FF;" d="M18.717,12.981h2.631v0.226h-0.171c-0.159,0-0.28,0.039-0.363,0.116s-0.125,0.182-0.125,0.312
			c0,0.143,0.043,0.312,0.128,0.507l1.3,3.088l1.306-3.204c0.094-0.228,0.141-0.4,0.141-0.519c0-0.058-0.017-0.104-0.049-0.141
			c-0.045-0.062-0.102-0.103-0.171-0.125c-0.069-0.022-0.21-0.034-0.421-0.034v-0.226h1.825v0.226
			c-0.211,0.017-0.358,0.06-0.439,0.129c-0.142,0.122-0.271,0.325-0.384,0.61l-1.984,4.797h-0.25l-1.996-4.718
			c-0.089-0.22-0.175-0.377-0.256-0.473c-0.082-0.096-0.186-0.177-0.312-0.241c-0.069-0.037-0.206-0.071-0.409-0.104V12.981z"/>
		<path style="fill:#0066FF;" d="M33.404,10.125v0.226c-0.537,0.054-0.976,0.16-1.315,0.321c-0.34,0.16-0.675,0.405-1.007,0.735
			c-0.332,0.329-0.606,0.696-0.824,1.102s-0.4,0.886-0.546,1.443c0.586-0.403,1.174-0.604,1.764-0.604
			c0.565,0,1.056,0.229,1.471,0.684c0.415,0.456,0.622,1.042,0.622,1.758c0,0.691-0.209,1.322-0.628,1.893
			c-0.504,0.691-1.172,1.037-2.002,1.037c-0.565,0-1.046-0.188-1.44-0.562c-0.773-0.729-1.16-1.673-1.16-2.832
			c0-0.74,0.148-1.444,0.445-2.111c0.297-0.668,0.721-1.26,1.273-1.776c0.551-0.517,1.079-0.864,1.583-1.044
			c0.505-0.179,0.975-0.269,1.41-0.269H33.404z M29.608,14.397c-0.073,0.55-0.11,0.993-0.11,1.331c0,0.391,0.072,0.814,0.217,1.272
			c0.144,0.457,0.359,0.82,0.644,1.089c0.207,0.191,0.459,0.287,0.757,0.287c0.354,0,0.67-0.167,0.949-0.5
			c0.279-0.334,0.418-0.811,0.418-1.429c0-0.695-0.139-1.298-0.415-1.807c-0.277-0.509-0.669-0.763-1.178-0.763
			c-0.155,0-0.32,0.032-0.498,0.098C30.215,14.042,29.954,14.182,29.608,14.397z"/>
		<path style="fill:#0066FF;" d="M34.503,14.483c0-0.944,0.143-1.757,0.427-2.438s0.663-1.189,1.135-1.523
			c0.366-0.264,0.745-0.396,1.135-0.396c0.635,0,1.205,0.323,1.709,0.971c0.631,0.802,0.946,1.888,0.946,3.259
			c0,0.961-0.139,1.776-0.415,2.448c-0.277,0.671-0.63,1.158-1.059,1.461c-0.43,0.304-0.843,0.455-1.242,0.455
			c-0.79,0-1.447-0.466-1.971-1.397C34.725,16.535,34.503,15.59,34.503,14.483z M35.699,14.636c0,1.14,0.14,2.069,0.421,2.789
			c0.231,0.606,0.578,0.909,1.037,0.909c0.22,0,0.448-0.099,0.684-0.296c0.236-0.197,0.415-0.528,0.537-0.991
			c0.188-0.7,0.281-1.687,0.281-2.961c0-0.943-0.098-1.73-0.293-2.361c-0.146-0.468-0.336-0.8-0.568-0.995
			c-0.167-0.135-0.368-0.201-0.604-0.201c-0.277,0-0.523,0.124-0.739,0.372c-0.293,0.338-0.492,0.869-0.598,1.593
			C35.752,13.218,35.699,13.932,35.699,14.636z"/>
		<path style="fill:#0066FF;" d="M45.471,9.894v5.566l1.422-1.301c0.301-0.276,0.476-0.451,0.525-0.524
			c0.033-0.049,0.049-0.098,0.049-0.146c0-0.081-0.034-0.151-0.101-0.211c-0.067-0.059-0.178-0.092-0.333-0.101v-0.195h2.429v0.195
			c-0.333,0.009-0.611,0.06-0.833,0.152c-0.222,0.094-0.465,0.261-0.729,0.501l-1.434,1.324l1.434,1.812
			c0.399,0.501,0.667,0.818,0.806,0.952c0.195,0.191,0.366,0.315,0.513,0.372c0.102,0.041,0.279,0.062,0.531,0.062v0.22h-2.716
			v-0.22c0.154-0.004,0.259-0.027,0.314-0.07c0.055-0.043,0.083-0.103,0.083-0.18c0-0.094-0.082-0.244-0.244-0.452l-1.715-2.19
			v1.854c0,0.362,0.025,0.601,0.076,0.715c0.051,0.113,0.123,0.195,0.217,0.244c0.093,0.049,0.297,0.075,0.61,0.079v0.22H43.53
			v-0.22c0.285,0,0.499-0.034,0.641-0.104c0.085-0.045,0.15-0.114,0.195-0.208c0.061-0.134,0.091-0.366,0.091-0.695v-5.091
			c0-0.646-0.014-1.042-0.042-1.187s-0.075-0.244-0.14-0.299c-0.065-0.056-0.151-0.083-0.257-0.083
			c-0.085,0-0.213,0.035-0.384,0.104l-0.104-0.213l1.66-0.684H45.471z"/>
		<path style="fill:#0066FF;" d="M51.703,12.816v1.258c0.468-0.838,0.948-1.258,1.44-1.258c0.224,0,0.409,0.068,0.556,0.205
			s0.22,0.294,0.22,0.473c0,0.159-0.053,0.293-0.159,0.403c-0.105,0.109-0.231,0.164-0.378,0.164c-0.143,0-0.302-0.069-0.479-0.21
			c-0.177-0.141-0.308-0.211-0.394-0.211c-0.073,0-0.152,0.041-0.238,0.122c-0.183,0.167-0.372,0.441-0.567,0.824v2.679
			c0,0.31,0.039,0.544,0.116,0.702c0.053,0.11,0.146,0.202,0.28,0.274c0.135,0.074,0.328,0.11,0.58,0.11v0.22h-2.862v-0.22
			c0.285,0,0.496-0.045,0.635-0.134c0.102-0.065,0.173-0.169,0.213-0.312c0.021-0.069,0.031-0.267,0.031-0.593v-2.166
			c0-0.651-0.014-1.038-0.04-1.163c-0.026-0.124-0.075-0.214-0.146-0.271c-0.071-0.057-0.16-0.085-0.266-0.085
			c-0.126,0-0.269,0.03-0.427,0.091l-0.062-0.22l1.691-0.684H51.703z"/>
		<path style="fill:#0066FF;" d="M87.342,10.125v0.226c-0.537,0.054-0.976,0.16-1.315,0.321c-0.34,0.16-0.675,0.405-1.007,0.735
			c-0.332,0.329-0.606,0.696-0.824,1.102s-0.4,0.886-0.546,1.443c0.586-0.403,1.174-0.604,1.764-0.604
			c0.565,0,1.056,0.229,1.471,0.684c0.415,0.456,0.622,1.042,0.622,1.758c0,0.691-0.209,1.322-0.628,1.893
			c-0.504,0.691-1.172,1.037-2.002,1.037c-0.565,0-1.046-0.188-1.44-0.562c-0.773-0.729-1.16-1.673-1.16-2.832
			c0-0.74,0.148-1.444,0.445-2.111c0.297-0.668,0.721-1.26,1.273-1.776c0.551-0.517,1.079-0.864,1.583-1.044
			c0.505-0.179,0.975-0.269,1.41-0.269H87.342z M83.545,14.397c-0.073,0.55-0.11,0.993-0.11,1.331c0,0.391,0.072,0.814,0.217,1.272
			c0.144,0.457,0.359,0.82,0.644,1.089c0.207,0.191,0.459,0.287,0.757,0.287c0.354,0,0.67-0.167,0.949-0.5
			c0.279-0.334,0.418-0.811,0.418-1.429c0-0.695-0.139-1.298-0.415-1.807c-0.277-0.509-0.669-0.763-1.178-0.763
			c-0.155,0-0.32,0.032-0.498,0.098C84.153,14.042,83.891,14.182,83.545,14.397z"/>
		<path style="fill:#0066FF;" d="M88.44,14.483c0-0.944,0.143-1.757,0.427-2.438s0.663-1.189,1.135-1.523
			c0.366-0.264,0.745-0.396,1.135-0.396c0.635,0,1.205,0.323,1.708,0.971c0.631,0.802,0.947,1.888,0.947,3.259
			c0,0.961-0.139,1.776-0.416,2.448c-0.277,0.671-0.629,1.158-1.059,1.461c-0.43,0.304-0.843,0.455-1.242,0.455
			c-0.79,0-1.447-0.466-1.971-1.397C88.662,16.535,88.44,15.59,88.44,14.483z M89.637,14.636c0,1.14,0.14,2.069,0.421,2.789
			c0.231,0.606,0.578,0.909,1.037,0.909c0.22,0,0.448-0.099,0.684-0.296c0.236-0.197,0.416-0.528,0.537-0.991
			c0.188-0.7,0.281-1.687,0.281-2.961c0-0.943-0.098-1.73-0.293-2.361c-0.146-0.468-0.335-0.8-0.567-0.995
			c-0.167-0.135-0.368-0.201-0.604-0.201c-0.277,0-0.523,0.124-0.739,0.372c-0.293,0.338-0.492,0.869-0.598,1.593
			C89.689,13.218,89.637,13.932,89.637,14.636z"/>
		<path style="fill:#0066FF;" d="M99.796,9.894v5.566l1.422-1.301c0.301-0.276,0.477-0.451,0.525-0.524
			c0.032-0.049,0.049-0.098,0.049-0.146c0-0.081-0.034-0.151-0.102-0.211c-0.066-0.059-0.178-0.092-0.332-0.101v-0.195h2.429v0.195
			c-0.333,0.009-0.611,0.06-0.833,0.152c-0.222,0.094-0.465,0.261-0.729,0.501l-1.435,1.324l1.435,1.812
			c0.399,0.501,0.668,0.818,0.806,0.952c0.195,0.191,0.366,0.315,0.513,0.372c0.102,0.041,0.279,0.062,0.531,0.062v0.22h-2.716
			v-0.22c0.154-0.004,0.259-0.027,0.314-0.07c0.055-0.043,0.082-0.103,0.082-0.18c0-0.094-0.081-0.244-0.244-0.452l-1.715-2.19
			v1.854c0,0.362,0.025,0.601,0.076,0.715c0.051,0.113,0.123,0.195,0.217,0.244s0.297,0.075,0.61,0.079v0.22h-2.845v-0.22
			c0.285,0,0.499-0.034,0.641-0.104c0.086-0.045,0.151-0.114,0.195-0.208c0.062-0.134,0.092-0.366,0.092-0.695v-5.091
			c0-0.646-0.014-1.042-0.043-1.187c-0.028-0.145-0.075-0.244-0.14-0.299c-0.065-0.056-0.15-0.083-0.257-0.083
			c-0.085,0-0.213,0.035-0.385,0.104l-0.104-0.213l1.66-0.684H99.796z"/>
		<path style="fill:#0066FF;" d="M106.027,12.816v1.258c0.468-0.838,0.948-1.258,1.44-1.258c0.224,0,0.409,0.068,0.556,0.205
			s0.22,0.294,0.22,0.473c0,0.159-0.053,0.293-0.159,0.403c-0.105,0.109-0.231,0.164-0.378,0.164c-0.143,0-0.303-0.069-0.479-0.21
			s-0.308-0.211-0.394-0.211c-0.073,0-0.152,0.041-0.238,0.122c-0.183,0.167-0.372,0.441-0.567,0.824v2.679
			c0,0.31,0.039,0.544,0.116,0.702c0.053,0.11,0.146,0.202,0.28,0.274c0.135,0.074,0.328,0.11,0.58,0.11v0.22h-2.862v-0.22
			c0.284,0,0.496-0.045,0.635-0.134c0.102-0.065,0.173-0.169,0.213-0.312c0.021-0.069,0.031-0.267,0.031-0.593v-2.166
			c0-0.651-0.014-1.038-0.04-1.163c-0.026-0.124-0.075-0.214-0.146-0.271c-0.071-0.057-0.159-0.085-0.266-0.085
			c-0.126,0-0.269,0.03-0.427,0.091l-0.062-0.22l1.69-0.684H106.027z"/>
		<path style="fill:#0066FF;" d="M160.556,15.521v0.866h-1.11v2.186h-1.007v-2.186h-3.504v-0.78l3.839-5.481h0.672v5.396H160.556z
			 M158.438,15.521v-4.107l-2.906,4.107H158.438z"/>
		<path style="fill:#0066FF;" d="M161.44,14.483c0-0.944,0.143-1.757,0.428-2.438s0.663-1.189,1.135-1.523
			c0.367-0.264,0.745-0.396,1.136-0.396c0.635,0,1.204,0.323,1.709,0.971c0.631,0.802,0.946,1.888,0.946,3.259
			c0,0.961-0.139,1.776-0.415,2.448c-0.277,0.671-0.63,1.158-1.06,1.461c-0.429,0.304-0.843,0.455-1.242,0.455
			c-0.789,0-1.446-0.466-1.971-1.397C161.663,16.535,161.44,15.59,161.44,14.483z M162.638,14.636c0,1.14,0.14,2.069,0.421,2.789
			c0.231,0.606,0.577,0.909,1.037,0.909c0.22,0,0.448-0.099,0.684-0.296c0.236-0.197,0.415-0.528,0.537-0.991
			c0.188-0.7,0.281-1.687,0.281-2.961c0-0.943-0.098-1.73-0.293-2.361c-0.146-0.468-0.336-0.8-0.567-0.995
			c-0.167-0.135-0.369-0.201-0.604-0.201c-0.277,0-0.523,0.124-0.739,0.372c-0.293,0.338-0.492,0.869-0.598,1.593
			C162.69,13.218,162.638,13.932,162.638,14.636z"/>
		<path style="fill:#0066FF;" d="M172.796,9.894v5.566l1.422-1.301c0.301-0.276,0.477-0.451,0.525-0.524
			c0.032-0.049,0.049-0.098,0.049-0.146c0-0.081-0.034-0.151-0.102-0.211c-0.066-0.059-0.178-0.092-0.332-0.101v-0.195h2.429v0.195
			c-0.333,0.009-0.611,0.06-0.833,0.152c-0.222,0.094-0.465,0.261-0.729,0.501l-1.435,1.324l1.435,1.812
			c0.399,0.501,0.668,0.818,0.806,0.952c0.195,0.191,0.366,0.315,0.513,0.372c0.102,0.041,0.279,0.062,0.531,0.062v0.22h-2.716
			v-0.22c0.154-0.004,0.259-0.027,0.314-0.07c0.055-0.043,0.082-0.103,0.082-0.18c0-0.094-0.081-0.244-0.244-0.452l-1.715-2.19
			v1.854c0,0.362,0.025,0.601,0.076,0.715c0.051,0.113,0.123,0.195,0.217,0.244s0.297,0.075,0.61,0.079v0.22h-2.845v-0.22
			c0.285,0,0.499-0.034,0.641-0.104c0.086-0.045,0.151-0.114,0.195-0.208c0.062-0.134,0.092-0.366,0.092-0.695v-5.091
			c0-0.646-0.014-1.042-0.043-1.187c-0.028-0.145-0.075-0.244-0.14-0.299c-0.065-0.056-0.15-0.083-0.257-0.083
			c-0.085,0-0.213,0.035-0.385,0.104l-0.104-0.213l1.66-0.684H172.796z"/>
		<path style="fill:#0066FF;" d="M179.027,12.816v1.258c0.468-0.838,0.948-1.258,1.44-1.258c0.224,0,0.409,0.068,0.556,0.205
			s0.22,0.294,0.22,0.473c0,0.159-0.053,0.293-0.159,0.403c-0.105,0.109-0.231,0.164-0.378,0.164c-0.143,0-0.303-0.069-0.479-0.21
			s-0.308-0.211-0.394-0.211c-0.073,0-0.152,0.041-0.238,0.122c-0.183,0.167-0.372,0.441-0.567,0.824v2.679
			c0,0.31,0.039,0.544,0.116,0.702c0.053,0.11,0.146,0.202,0.28,0.274c0.135,0.074,0.328,0.11,0.58,0.11v0.22h-2.862v-0.22
			c0.284,0,0.496-0.045,0.635-0.134c0.102-0.065,0.173-0.169,0.213-0.312c0.021-0.069,0.031-0.267,0.031-0.593v-2.166
			c0-0.651-0.014-1.038-0.04-1.163c-0.026-0.124-0.075-0.214-0.146-0.271c-0.071-0.057-0.159-0.085-0.266-0.085
			c-0.126,0-0.269,0.03-0.427,0.091l-0.062-0.22l1.69-0.684H179.027z"/>
	</g>
	<g>
		<path style="fill:#0066FF;" d="M1.666,21.51c0.236-0.558,0.534-0.988,0.894-1.291c0.36-0.304,0.809-0.455,1.346-0.455
			c0.663,0,1.172,0.216,1.525,0.646c0.269,0.322,0.403,0.666,0.403,1.032c0,0.602-0.379,1.225-1.136,1.867
			c0.509,0.199,0.894,0.484,1.154,0.854s0.391,0.806,0.391,1.307c0,0.716-0.228,1.336-0.684,1.861
			c-0.594,0.684-1.455,1.025-2.582,1.025c-0.558,0-0.937-0.069-1.139-0.207c-0.201-0.139-0.302-0.287-0.302-0.446
			c0-0.118,0.047-0.222,0.143-0.312c0.096-0.089,0.21-0.134,0.345-0.134c0.102,0,0.205,0.017,0.311,0.049
			c0.069,0.021,0.226,0.095,0.47,0.223s0.413,0.204,0.506,0.229c0.15,0.044,0.311,0.066,0.482,0.066c0.415,0,0.776-0.16,1.083-0.482
			c0.307-0.321,0.461-0.701,0.461-1.141c0-0.321-0.071-0.635-0.213-0.94c-0.106-0.228-0.222-0.4-0.348-0.519
			c-0.175-0.163-0.415-0.311-0.72-0.442s-0.616-0.198-0.934-0.198H2.93V23.92c0.321-0.04,0.644-0.156,0.967-0.348
			c0.323-0.191,0.558-0.421,0.705-0.689s0.22-0.563,0.22-0.885c0-0.42-0.131-0.758-0.394-1.017
			c-0.262-0.259-0.589-0.388-0.979-0.388c-0.631,0-1.158,0.338-1.581,1.014L1.666,21.51z"/>
		<path style="fill:#0066FF;" d="M69.316,21.51c0.236-0.558,0.534-0.988,0.894-1.291c0.36-0.304,0.809-0.455,1.346-0.455
			c0.663,0,1.172,0.216,1.525,0.646c0.269,0.322,0.403,0.666,0.403,1.032c0,0.602-0.379,1.225-1.136,1.867
			c0.509,0.199,0.894,0.484,1.154,0.854s0.391,0.806,0.391,1.307c0,0.716-0.228,1.336-0.684,1.861
			c-0.594,0.684-1.455,1.025-2.582,1.025c-0.558,0-0.937-0.069-1.139-0.207c-0.201-0.139-0.302-0.287-0.302-0.446
			c0-0.118,0.047-0.222,0.143-0.312c0.096-0.089,0.21-0.134,0.345-0.134c0.102,0,0.205,0.017,0.311,0.049
			c0.069,0.021,0.226,0.095,0.47,0.223s0.413,0.204,0.506,0.229c0.15,0.044,0.311,0.066,0.482,0.066c0.415,0,0.776-0.16,1.083-0.482
			c0.307-0.321,0.461-0.701,0.461-1.141c0-0.321-0.071-0.635-0.213-0.94c-0.106-0.228-0.222-0.4-0.348-0.519
			c-0.175-0.163-0.415-0.311-0.72-0.442s-0.616-0.198-0.934-0.198H70.58V23.92c0.321-0.04,0.644-0.156,0.967-0.348
			c0.323-0.191,0.558-0.421,0.705-0.689s0.22-0.563,0.22-0.885c0-0.42-0.131-0.758-0.394-1.017
			c-0.262-0.259-0.589-0.388-0.979-0.388c-0.631,0-1.158,0.338-1.581,1.014L69.316,21.51z"/>
		<path style="fill:#0066FF;" d="M129.191,21.51c0.236-0.558,0.534-0.988,0.895-1.291c0.359-0.304,0.809-0.455,1.346-0.455
			c0.663,0,1.172,0.216,1.525,0.646c0.269,0.322,0.403,0.666,0.403,1.032c0,0.602-0.379,1.225-1.136,1.867
			c0.509,0.199,0.894,0.484,1.154,0.854c0.26,0.37,0.391,0.806,0.391,1.307c0,0.716-0.229,1.336-0.684,1.861
			c-0.595,0.684-1.455,1.025-2.582,1.025c-0.558,0-0.938-0.069-1.139-0.207c-0.201-0.139-0.302-0.287-0.302-0.446
			c0-0.118,0.048-0.222,0.144-0.312c0.095-0.089,0.21-0.134,0.345-0.134c0.102,0,0.205,0.017,0.312,0.049
			c0.068,0.021,0.226,0.095,0.47,0.223s0.413,0.204,0.507,0.229c0.15,0.044,0.311,0.066,0.481,0.066c0.415,0,0.776-0.16,1.084-0.482
			c0.307-0.321,0.46-0.701,0.46-1.141c0-0.321-0.07-0.635-0.213-0.94c-0.106-0.228-0.222-0.4-0.348-0.519
			c-0.176-0.163-0.416-0.311-0.721-0.442s-0.616-0.198-0.934-0.198h-0.195V23.92c0.321-0.04,0.644-0.156,0.967-0.348
			c0.324-0.191,0.559-0.421,0.705-0.689s0.22-0.563,0.22-0.885c0-0.42-0.131-0.758-0.394-1.017s-0.589-0.388-0.979-0.388
			c-0.631,0-1.157,0.338-1.581,1.014L129.191,21.51z"/>
	</g>
	<g>
		<path style="fill:#0066FF;" d="M57.546,13.939h6.409v0.593h-6.409V13.939z M57.546,16.217h6.409v0.604h-6.409V16.217z"/>
		<path style="fill:#0066FF;" d="M79.39,15.374c0,0.188-0.066,0.348-0.198,0.479c-0.132,0.132-0.29,0.198-0.473,0.198
			c-0.187,0-0.347-0.066-0.479-0.198c-0.132-0.132-0.199-0.292-0.199-0.479c0-0.187,0.066-0.347,0.199-0.479
			c0.132-0.133,0.292-0.199,0.479-0.199c0.183,0,0.341,0.066,0.473,0.199C79.323,15.027,79.39,15.188,79.39,15.374z"/>
		<path style="fill:#0066FF;" d="M111.869,13.939h6.409v0.593h-6.409V13.939z M111.869,16.217h6.409v0.604h-6.409V16.217z"/>
		<path style="fill:#0066FF;" d="M144.554,13.939h6.409v0.593h-6.409V13.939z M144.554,16.217h6.409v0.604h-6.409V16.217z"/>
	</g>
</g>
<g id="theGroup">
</g>
</svg>
