<?xml version="1.0" encoding="iso-8859-1"?>
<!-- Generator: Adobe Illustrator 16.0.0, SVG Export Plug-In . SVG Version: 6.00 Build 0)  -->
<!DOCTYPE svg PUBLIC "-//W3C//DTD SVG 1.1//EN" "http://www.w3.org/Graphics/SVG/1.1/DTD/svg11.dtd">
<svg version="1.1" id="Lager_1" xmlns="http://www.w3.org/2000/svg" xmlns:xlink="http://www.w3.org/1999/xlink" x="0px" y="0px"
	 width="41.54px" height="32.044px" viewBox="0 0 41.54 32.044" style="enable-background:new 0 0 41.54 32.044;"
	 xml:space="preserve">
<g>
	
		<line style="fill:none;stroke:#000000;stroke-width:0.5;stroke-linecap:square;stroke-miterlimit:10;" x1="0.586" y1="15.242" x2="11.915" y2="15.242"/>
	
		<line style="fill:none;stroke:#000000;stroke-width:0.5;stroke-linecap:square;stroke-miterlimit:10;" x1="33.868" y1="15.242" x2="41.29" y2="15.242"/>
	<g>
		<path d="M1.465,2.924l2.014-0.982h0.202V8.93c0,0.464,0.019,0.753,0.058,0.867c0.039,0.113,0.119,0.201,0.241,0.262
			c0.122,0.062,0.37,0.096,0.745,0.104v0.226H1.611v-0.226c0.391-0.009,0.643-0.042,0.757-0.102
			c0.114-0.059,0.193-0.138,0.238-0.237c0.044-0.1,0.067-0.398,0.067-0.895V4.462c0-0.603-0.021-0.988-0.061-1.159
			C2.584,3.172,2.532,3.076,2.457,3.016C2.381,2.954,2.291,2.924,2.185,2.924c-0.15,0-0.36,0.063-0.628,0.189L1.465,2.924z"/>
		<path d="M7.715,2.924l2.014-0.982h0.202V8.93c0,0.464,0.019,0.753,0.058,0.867c0.039,0.113,0.119,0.201,0.241,0.262
			c0.122,0.062,0.37,0.096,0.745,0.104v0.226H7.861v-0.226c0.391-0.009,0.643-0.042,0.757-0.102
			c0.114-0.059,0.193-0.138,0.238-0.237c0.044-0.1,0.067-0.398,0.067-0.895V4.462c0-0.603-0.021-0.988-0.061-1.159
			C8.834,3.172,8.782,3.076,8.707,3.016C8.631,2.954,8.541,2.924,8.435,2.924c-0.15,0-0.36,0.063-0.628,0.189L7.715,2.924z"/>
		<path d="M35.272,3.687c0.236-0.558,0.534-0.987,0.895-1.291c0.359-0.303,0.809-0.454,1.346-0.454c0.663,0,1.172,0.216,1.525,0.646
			c0.269,0.321,0.403,0.666,0.403,1.032c0,0.602-0.379,1.225-1.136,1.867c0.509,0.199,0.894,0.484,1.154,0.854
			c0.26,0.37,0.391,0.806,0.391,1.307c0,0.716-0.229,1.336-0.684,1.861c-0.595,0.684-1.455,1.025-2.582,1.025
			c-0.558,0-0.938-0.069-1.139-0.208c-0.201-0.138-0.302-0.286-0.302-0.445c0-0.118,0.048-0.222,0.144-0.312
			c0.095-0.089,0.21-0.134,0.345-0.134c0.102,0,0.205,0.016,0.312,0.049c0.068,0.021,0.226,0.095,0.47,0.223
			s0.413,0.204,0.507,0.229c0.15,0.045,0.311,0.067,0.481,0.067c0.415,0,0.776-0.161,1.084-0.482c0.307-0.321,0.46-0.701,0.46-1.141
			c0-0.322-0.07-0.635-0.213-0.94c-0.106-0.228-0.222-0.4-0.348-0.519c-0.176-0.163-0.416-0.311-0.721-0.442
			c-0.305-0.133-0.616-0.198-0.934-0.198h-0.195V6.098c0.321-0.041,0.644-0.156,0.967-0.348c0.324-0.191,0.559-0.421,0.705-0.689
			s0.22-0.564,0.22-0.886c0-0.419-0.131-0.758-0.394-1.016c-0.263-0.259-0.589-0.388-0.979-0.388c-0.631,0-1.157,0.338-1.581,1.013
			L35.272,3.687z"/>
	</g>
	<g>
		<path d="M31.591,16.979l-0.58,1.593h-4.883v-0.226c1.437-1.311,2.447-2.381,3.033-3.211s0.879-1.589,0.879-2.276
			c0-0.524-0.16-0.956-0.481-1.294c-0.322-0.338-0.706-0.507-1.154-0.507c-0.406,0-0.771,0.119-1.096,0.357
			c-0.323,0.238-0.562,0.587-0.717,1.047h-0.226c0.102-0.753,0.363-1.331,0.784-1.733c0.421-0.403,0.947-0.604,1.578-0.604
			c0.671,0,1.231,0.216,1.681,0.647c0.45,0.431,0.675,0.939,0.675,1.525c0,0.419-0.098,0.839-0.293,1.258
			c-0.301,0.659-0.789,1.356-1.465,2.093c-1.014,1.107-1.646,1.774-1.898,2.002h2.161c0.439,0,0.747-0.016,0.925-0.049
			c0.177-0.032,0.336-0.099,0.479-0.198s0.267-0.241,0.373-0.424H31.591z"/>
	</g>
	<g>
		<path d="M9.127,25.159v0.866h-1.11v2.186H7.009v-2.186H3.506v-0.781l3.839-5.48h0.672v5.396H9.127z M7.009,25.159v-4.107
			l-2.905,4.107H7.009z"/>
		<path d="M40.452,25.159v0.866h-1.11v2.186h-1.007v-2.186h-3.504v-0.781l3.839-5.48h0.672v5.396H40.452z M38.335,25.159v-4.107
			l-2.906,4.107H38.335z"/>
	</g>
	<g>
		<path d="M15.694,13.939h6.409v0.593h-6.409V13.939z M15.694,16.217h6.409v0.604h-6.409V16.217z"/>
	</g>
</g>
<g id="theGroup">
</g>
</svg>
