<?xml version="1.0" encoding="iso-8859-1"?>
<!-- Generator: Adobe Illustrator 16.0.0, SVG Export Plug-In . SVG Version: 6.00 Build 0)  -->
<!DOCTYPE svg PUBLIC "-//W3C//DTD SVG 1.1//EN" "http://www.w3.org/Graphics/SVG/1.1/DTD/svg11.dtd">
<svg version="1.1" id="Lager_1" xmlns="http://www.w3.org/2000/svg" xmlns:xlink="http://www.w3.org/1999/xlink" x="0px" y="0px"
	 width="93.258px" height="88.681px" viewBox="0 0 93.258 88.681" style="enable-background:new 0 0 93.258 88.681;"
	 xml:space="preserve">
<g>
	
		<line style="fill:none;stroke:#0066FF;stroke-width:0.5;stroke-linecap:square;stroke-miterlimit:10;" x1="10.597" y1="34.585" x2="58.253" y2="34.585"/>
	<g>
		<path style="fill:#0066FF;" d="M2.563,7.124v2.411c0,0.521,0.057,0.844,0.171,0.971c0.155,0.179,0.389,0.269,0.702,0.269h0.317V11
			H0.208v-0.226h0.311c0.35,0,0.601-0.114,0.751-0.342c0.082-0.126,0.122-0.425,0.122-0.897V4.188c0-0.521-0.055-0.844-0.165-0.971
			C1.068,3.039,0.832,2.949,0.519,2.949H0.208V2.724h3.034c0.74,0,1.324,0.076,1.751,0.229C5.42,3.105,5.78,3.362,6.073,3.725
			s0.439,0.792,0.439,1.288c0,0.675-0.223,1.225-0.668,1.647C5.398,7.083,4.769,7.295,3.955,7.295c-0.199,0-0.415-0.014-0.647-0.042
			S2.828,7.181,2.563,7.124z M2.563,6.776C2.779,6.817,2.97,6.848,3.137,6.868c0.167,0.02,0.309,0.03,0.427,0.03
			c0.423,0,0.788-0.164,1.096-0.491C4.967,6.08,5.121,5.655,5.121,5.135c0-0.358-0.073-0.691-0.22-0.998S4.547,3.6,4.278,3.447
			C4.01,3.294,3.705,3.218,3.363,3.218c-0.208,0-0.474,0.039-0.8,0.116V6.776z"/>
		<path style="fill:#0066FF;" d="M9.053,5.244v1.258c0.468-0.838,0.948-1.258,1.44-1.258c0.224,0,0.409,0.068,0.556,0.205
			c0.146,0.137,0.22,0.294,0.22,0.473c0,0.159-0.053,0.293-0.159,0.403c-0.105,0.11-0.231,0.165-0.378,0.165
			c-0.143,0-0.302-0.07-0.479-0.21c-0.177-0.14-0.308-0.21-0.394-0.21c-0.073,0-0.152,0.041-0.238,0.122
			C9.438,6.357,9.249,6.632,9.053,7.015v2.679c0,0.309,0.039,0.543,0.116,0.702c0.053,0.11,0.146,0.202,0.28,0.275
			c0.135,0.073,0.328,0.11,0.58,0.11V11H7.167v-0.22c0.285,0,0.496-0.045,0.635-0.134c0.102-0.065,0.173-0.169,0.213-0.311
			c0.021-0.069,0.031-0.267,0.031-0.592V7.576c0-0.651-0.014-1.039-0.04-1.163C7.98,6.289,7.931,6.199,7.86,6.142
			S7.7,6.056,7.594,6.056c-0.126,0-0.269,0.031-0.427,0.091l-0.062-0.22l1.691-0.684H9.053z"/>
		<path style="fill:#0066FF;" d="M13.459,5.244v4.492c0,0.35,0.025,0.583,0.076,0.699c0.051,0.116,0.126,0.202,0.226,0.259
			c0.1,0.057,0.282,0.085,0.546,0.085V11h-2.716v-0.22c0.272,0,0.456-0.026,0.549-0.079c0.094-0.053,0.168-0.141,0.223-0.263
			c0.055-0.122,0.083-0.356,0.083-0.702V7.582c0-0.606-0.018-0.999-0.055-1.178c-0.028-0.13-0.073-0.221-0.134-0.272
			c-0.062-0.051-0.145-0.076-0.25-0.076c-0.114,0-0.252,0.031-0.415,0.091l-0.085-0.22l1.685-0.684H13.459z M12.952,2.321
			c0.171,0,0.316,0.06,0.437,0.18s0.18,0.266,0.18,0.437s-0.06,0.317-0.18,0.439S13.123,3.56,12.952,3.56s-0.317-0.061-0.439-0.183
			S12.33,3.108,12.33,2.938s0.06-0.316,0.18-0.437S12.777,2.321,12.952,2.321z"/>
		<path style="fill:#0066FF;" d="M18.654,5.244v1.904h-0.201c-0.155-0.598-0.354-1.005-0.595-1.221
			c-0.242-0.215-0.55-0.323-0.925-0.323c-0.285,0-0.515,0.075-0.69,0.226c-0.175,0.151-0.262,0.317-0.262,0.501
			c0,0.228,0.065,0.423,0.195,0.586c0.126,0.167,0.382,0.344,0.769,0.531l0.891,0.433c0.826,0.403,1.239,0.934,1.239,1.593
			c0,0.509-0.192,0.918-0.577,1.23c-0.384,0.311-0.815,0.467-1.291,0.467c-0.342,0-0.732-0.061-1.172-0.183
			c-0.135-0.041-0.244-0.061-0.33-0.061c-0.093,0-0.167,0.053-0.22,0.159h-0.201V9.09h0.201c0.114,0.569,0.332,0.999,0.653,1.288
			s0.682,0.433,1.08,0.433c0.281,0,0.51-0.082,0.687-0.247c0.177-0.165,0.265-0.363,0.265-0.595c0-0.281-0.099-0.517-0.296-0.708
			c-0.197-0.191-0.591-0.434-1.181-0.727c-0.59-0.293-0.977-0.558-1.16-0.793c-0.183-0.232-0.274-0.525-0.274-0.879
			c0-0.46,0.158-0.844,0.473-1.154c0.315-0.309,0.723-0.464,1.224-0.464c0.22,0,0.486,0.047,0.799,0.141
			c0.208,0.061,0.346,0.092,0.415,0.092c0.065,0,0.116-0.015,0.153-0.043s0.08-0.092,0.128-0.189H18.654z"/>
		<path style="fill:#0066FF;" d="M20.857,7.515c-0.004,0.83,0.197,1.481,0.604,1.953c0.407,0.472,0.885,0.708,1.435,0.708
			c0.366,0,0.685-0.101,0.955-0.302c0.271-0.202,0.498-0.546,0.681-1.035l0.189,0.122c-0.086,0.558-0.334,1.065-0.745,1.523
			c-0.411,0.458-0.925,0.687-1.544,0.687c-0.671,0-1.246-0.261-1.724-0.784c-0.479-0.523-0.717-1.226-0.717-2.109
			c0-0.956,0.245-1.702,0.735-2.237s1.106-0.803,1.847-0.803c0.626,0,1.141,0.207,1.544,0.62s0.604,0.965,0.604,1.657H20.857z
			 M20.857,7.161h2.588c-0.021-0.358-0.063-0.61-0.128-0.757c-0.102-0.228-0.253-0.407-0.455-0.537
			c-0.201-0.13-0.412-0.195-0.631-0.195c-0.338,0-0.64,0.131-0.907,0.394C21.058,6.328,20.902,6.693,20.857,7.161z"/>
		<path style="fill:#0066FF;" d="M27.014,3.572v1.837h1.306v0.427h-1.306v3.625c0,0.362,0.052,0.606,0.156,0.732
			c0.104,0.126,0.237,0.189,0.399,0.189c0.135,0,0.265-0.042,0.391-0.125c0.126-0.083,0.224-0.207,0.293-0.369h0.238
			c-0.143,0.399-0.344,0.699-0.604,0.9c-0.26,0.201-0.529,0.302-0.806,0.302c-0.187,0-0.37-0.052-0.549-0.156
			c-0.179-0.104-0.312-0.252-0.397-0.446c-0.085-0.193-0.128-0.491-0.128-0.894v-3.76h-0.885V5.635
			c0.224-0.089,0.453-0.241,0.687-0.455c0.234-0.213,0.442-0.467,0.626-0.76c0.093-0.155,0.224-0.438,0.391-0.848H27.014z"/>
		<path style="fill:#0066FF;" d="M31.623,5.965l1.721-0.696h0.232v1.307c0.289-0.493,0.579-0.837,0.87-1.035
			s0.597-0.296,0.919-0.296c0.562,0,1.029,0.22,1.403,0.659c0.46,0.537,0.69,1.237,0.69,2.1c0,0.965-0.277,1.762-0.83,2.393
			c-0.456,0.517-1.029,0.775-1.721,0.775c-0.301,0-0.562-0.043-0.781-0.128c-0.163-0.062-0.346-0.184-0.549-0.366v1.703
			c0,0.382,0.023,0.625,0.07,0.729c0.046,0.104,0.128,0.186,0.244,0.247c0.116,0.061,0.327,0.091,0.631,0.091v0.226h-2.93v-0.226
			h0.153c0.224,0.004,0.415-0.039,0.574-0.128c0.077-0.045,0.137-0.117,0.18-0.217c0.042-0.1,0.064-0.353,0.064-0.76V7.057
			c0-0.362-0.016-0.592-0.049-0.69s-0.084-0.171-0.156-0.22s-0.167-0.073-0.29-0.073c-0.098,0-0.222,0.029-0.373,0.086L31.623,5.965
			z M33.576,6.935v2.087c0,0.452,0.018,0.749,0.055,0.891c0.057,0.236,0.196,0.443,0.418,0.623c0.222,0.179,0.501,0.269,0.839,0.269
			c0.407,0,0.737-0.159,0.989-0.476c0.329-0.415,0.494-0.999,0.494-1.751c0-0.854-0.187-1.512-0.562-1.972
			c-0.26-0.317-0.57-0.476-0.928-0.476c-0.195,0-0.389,0.049-0.58,0.146C34.156,6.349,33.914,6.569,33.576,6.935z"/>
		<path style="fill:#0066FF;" d="M39.216,7.515c-0.004,0.83,0.197,1.481,0.604,1.953c0.407,0.472,0.885,0.708,1.435,0.708
			c0.366,0,0.685-0.101,0.955-0.302c0.271-0.202,0.498-0.546,0.681-1.035l0.189,0.122c-0.086,0.558-0.334,1.065-0.745,1.523
			c-0.411,0.458-0.925,0.687-1.544,0.687c-0.671,0-1.246-0.261-1.724-0.784c-0.479-0.523-0.717-1.226-0.717-2.109
			c0-0.956,0.245-1.702,0.735-2.237s1.106-0.803,1.847-0.803c0.626,0,1.141,0.207,1.544,0.62s0.604,0.965,0.604,1.657H39.216z
			 M39.216,7.161h2.588c-0.021-0.358-0.063-0.61-0.128-0.757c-0.102-0.228-0.253-0.407-0.455-0.537
			c-0.201-0.13-0.412-0.195-0.631-0.195c-0.338,0-0.64,0.131-0.907,0.394C39.416,6.328,39.261,6.693,39.216,7.161z"/>
		<path style="fill:#0066FF;" d="M45.385,5.244v1.258c0.468-0.838,0.948-1.258,1.44-1.258c0.224,0,0.409,0.068,0.556,0.205
			c0.146,0.137,0.22,0.294,0.22,0.473c0,0.159-0.053,0.293-0.159,0.403c-0.105,0.11-0.231,0.165-0.378,0.165
			c-0.143,0-0.302-0.07-0.479-0.21c-0.177-0.14-0.308-0.21-0.394-0.21c-0.073,0-0.152,0.041-0.238,0.122
			c-0.183,0.167-0.372,0.441-0.567,0.824v2.679c0,0.309,0.039,0.543,0.116,0.702c0.053,0.11,0.146,0.202,0.28,0.275
			c0.135,0.073,0.328,0.11,0.58,0.11V11h-2.862v-0.22c0.285,0,0.496-0.045,0.635-0.134c0.102-0.065,0.173-0.169,0.213-0.311
			c0.021-0.069,0.031-0.267,0.031-0.592V7.576c0-0.651-0.014-1.039-0.04-1.163c-0.026-0.124-0.075-0.214-0.146-0.271
			s-0.16-0.085-0.266-0.085c-0.126,0-0.269,0.031-0.427,0.091l-0.062-0.22l1.691-0.684H45.385z"/>
		<path style="fill:#0066FF;" d="M50.584,5.965l1.721-0.696h0.232v1.307c0.288-0.493,0.578-0.837,0.869-1.035
			s0.598-0.296,0.919-0.296c0.562,0,1.029,0.22,1.403,0.659c0.46,0.537,0.689,1.237,0.689,2.1c0,0.965-0.276,1.762-0.83,2.393
			c-0.455,0.517-1.029,0.775-1.721,0.775c-0.301,0-0.562-0.043-0.781-0.128c-0.163-0.062-0.346-0.184-0.549-0.366v1.703
			c0,0.382,0.022,0.625,0.069,0.729c0.047,0.104,0.129,0.186,0.244,0.247c0.116,0.061,0.327,0.091,0.632,0.091v0.226h-2.93v-0.226
			h0.152c0.225,0.004,0.416-0.039,0.574-0.128c0.077-0.045,0.138-0.117,0.18-0.217c0.043-0.1,0.064-0.353,0.064-0.76V7.057
			c0-0.362-0.017-0.592-0.049-0.69s-0.085-0.171-0.155-0.22c-0.071-0.049-0.168-0.073-0.29-0.073c-0.098,0-0.222,0.029-0.373,0.086
			L50.584,5.965z M52.537,6.935v2.087c0,0.452,0.018,0.749,0.055,0.891c0.057,0.236,0.196,0.443,0.418,0.623
			s0.501,0.269,0.839,0.269c0.407,0,0.736-0.159,0.989-0.476c0.329-0.415,0.494-0.999,0.494-1.751c0-0.854-0.188-1.512-0.562-1.972
			c-0.261-0.317-0.569-0.476-0.928-0.476c-0.195,0-0.389,0.049-0.58,0.146C53.116,6.349,52.874,6.569,52.537,6.935z"/>
		<path style="fill:#0066FF;" d="M59.165,5.244v4.492c0,0.35,0.025,0.583,0.076,0.699c0.051,0.116,0.126,0.202,0.226,0.259
			s0.282,0.085,0.547,0.085V11h-2.717v-0.22c0.273,0,0.456-0.026,0.55-0.079c0.094-0.053,0.168-0.141,0.223-0.263
			s0.083-0.356,0.083-0.702V7.582c0-0.606-0.019-0.999-0.056-1.178c-0.028-0.13-0.073-0.221-0.134-0.272
			c-0.062-0.051-0.145-0.076-0.25-0.076c-0.114,0-0.253,0.031-0.416,0.091l-0.085-0.22l1.685-0.684H59.165z M58.658,2.321
			c0.171,0,0.316,0.06,0.437,0.18s0.181,0.266,0.181,0.437s-0.061,0.317-0.181,0.439S58.829,3.56,58.658,3.56
			s-0.317-0.061-0.439-0.183s-0.183-0.269-0.183-0.439s0.06-0.316,0.18-0.437S58.483,2.321,58.658,2.321z"/>
		<path style="fill:#0066FF;" d="M65.605,9.285L65.538,11h-4.932v-0.22l3.711-4.944h-1.831c-0.395,0-0.653,0.025-0.774,0.076
			c-0.123,0.051-0.223,0.147-0.3,0.29c-0.109,0.204-0.173,0.456-0.188,0.757h-0.244l0.036-1.55h4.688v0.226l-3.747,4.956h2.038
			c0.427,0,0.717-0.035,0.87-0.106c0.152-0.071,0.275-0.196,0.369-0.375c0.064-0.13,0.12-0.405,0.164-0.824H65.605z"/>
		<path style="fill:#0066FF;" d="M71.078,9.285L71.011,11h-4.932v-0.22l3.711-4.944h-1.831c-0.395,0-0.653,0.025-0.774,0.076
			c-0.123,0.051-0.223,0.147-0.3,0.29c-0.109,0.204-0.173,0.456-0.188,0.757h-0.244l0.036-1.55h4.688v0.226l-3.747,4.956h2.038
			c0.427,0,0.717-0.035,0.87-0.106c0.152-0.071,0.275-0.196,0.369-0.375c0.064-0.13,0.12-0.405,0.164-0.824H71.078z"/>
		<path style="fill:#0066FF;" d="M74.861,10.194c-0.574,0.443-0.934,0.7-1.08,0.769c-0.221,0.102-0.454,0.153-0.702,0.153
			c-0.387,0-0.705-0.132-0.955-0.397c-0.251-0.265-0.376-0.612-0.376-1.043c0-0.273,0.062-0.509,0.184-0.708
			c0.167-0.277,0.456-0.537,0.869-0.781s1.1-0.542,2.061-0.892v-0.22c0-0.557-0.089-0.939-0.266-1.147
			c-0.177-0.207-0.435-0.311-0.772-0.311c-0.256,0-0.46,0.069-0.61,0.208c-0.154,0.138-0.231,0.297-0.231,0.476l0.012,0.354
			c0,0.187-0.048,0.332-0.144,0.434c-0.096,0.102-0.221,0.152-0.375,0.152c-0.15,0-0.273-0.053-0.369-0.159s-0.144-0.25-0.144-0.433
			c0-0.35,0.179-0.672,0.537-0.965s0.86-0.439,1.508-0.439c0.496,0,0.903,0.083,1.221,0.25c0.24,0.126,0.417,0.324,0.53,0.592
			c0.074,0.175,0.11,0.533,0.11,1.074v1.898c0,0.533,0.01,0.86,0.03,0.979c0.021,0.12,0.054,0.201,0.101,0.241
			s0.101,0.061,0.162,0.061c0.065,0,0.122-0.014,0.171-0.043c0.086-0.053,0.25-0.201,0.494-0.445v0.342
			c-0.455,0.61-0.891,0.916-1.306,0.916c-0.199,0-0.358-0.069-0.477-0.208S74.865,10.528,74.861,10.194z M74.861,9.798v-2.13
			c-0.614,0.244-1.012,0.417-1.19,0.519c-0.321,0.179-0.552,0.366-0.689,0.562c-0.139,0.195-0.208,0.409-0.208,0.641
			c0,0.293,0.088,0.536,0.263,0.729s0.376,0.29,0.604,0.29C73.949,10.408,74.356,10.205,74.861,9.798z"/>
	</g>
	<g>
		<path style="fill:#0066FF;" d="M20.143,25.581c-0.655-0.537-1.077-0.968-1.266-1.294c-0.189-0.325-0.284-0.663-0.284-1.013
			c0-0.537,0.207-1,0.622-1.389s0.967-0.583,1.654-0.583c0.667,0,1.205,0.181,1.611,0.543c0.407,0.362,0.61,0.775,0.61,1.239
			c0,0.309-0.11,0.625-0.33,0.946c-0.22,0.321-0.677,0.7-1.374,1.135c0.716,0.554,1.19,0.989,1.422,1.307
			c0.309,0.415,0.464,0.852,0.464,1.312c0,0.582-0.222,1.08-0.666,1.492c-0.443,0.413-1.025,0.62-1.745,0.62
			c-0.786,0-1.398-0.246-1.837-0.738c-0.35-0.395-0.525-0.826-0.525-1.294c0-0.366,0.123-0.729,0.369-1.09
			C19.116,26.415,19.541,26.017,20.143,25.581z M20.43,25.813c-0.338,0.285-0.588,0.595-0.751,0.931
			c-0.163,0.335-0.244,0.699-0.244,1.089c0,0.525,0.144,0.945,0.431,1.26c0.287,0.315,0.652,0.473,1.096,0.473
			c0.439,0,0.791-0.124,1.056-0.373c0.265-0.248,0.396-0.549,0.396-0.903c0-0.293-0.077-0.555-0.231-0.787
			C21.893,27.073,21.309,26.509,20.43,25.813z M21.101,24.928c0.488-0.439,0.797-0.786,0.928-1.041s0.195-0.542,0.195-0.864
			c0-0.427-0.12-0.762-0.36-1.004c-0.24-0.242-0.568-0.363-0.983-0.363s-0.753,0.12-1.013,0.36c-0.26,0.24-0.391,0.521-0.391,0.843
			c0,0.211,0.054,0.423,0.162,0.635c0.108,0.211,0.262,0.413,0.461,0.604L21.101,24.928z"/>
		<path style="fill:#0066FF;" d="M29.726,28.157l-0.58,1.593h-4.883v-0.226c1.437-1.311,2.447-2.381,3.033-3.211
			s0.879-1.589,0.879-2.276c0-0.525-0.161-0.956-0.482-1.294s-0.706-0.507-1.154-0.507c-0.407,0-0.772,0.119-1.095,0.357
			c-0.324,0.238-0.562,0.587-0.717,1.047h-0.226c0.102-0.753,0.363-1.331,0.784-1.733c0.421-0.403,0.947-0.604,1.578-0.604
			c0.671,0,1.232,0.216,1.682,0.647c0.449,0.431,0.674,0.94,0.674,1.526c0,0.419-0.098,0.838-0.293,1.257
			c-0.301,0.659-0.79,1.357-1.465,2.093c-1.013,1.107-1.646,1.774-1.898,2.002h2.161c0.439,0,0.748-0.016,0.924-0.049
			c0.177-0.032,0.337-0.098,0.479-0.198c0.143-0.1,0.267-0.241,0.373-0.424H29.726z"/>
		<path style="fill:#0066FF;" d="M35.847,21.303v0.226c-0.537,0.053-0.976,0.16-1.315,0.321s-0.675,0.406-1.007,0.735
			c-0.332,0.33-0.606,0.697-0.824,1.102c-0.218,0.405-0.4,0.886-0.546,1.444c0.586-0.403,1.174-0.604,1.764-0.604
			c0.565,0,1.056,0.228,1.471,0.684s0.622,1.042,0.622,1.758c0,0.692-0.209,1.322-0.628,1.892c-0.504,0.692-1.172,1.038-2.002,1.038
			c-0.565,0-1.046-0.187-1.44-0.562c-0.773-0.729-1.16-1.672-1.16-2.832c0-0.741,0.148-1.444,0.445-2.112
			c0.297-0.667,0.721-1.259,1.273-1.776c0.551-0.517,1.079-0.865,1.583-1.044c0.505-0.179,0.975-0.269,1.41-0.269H35.847z
			 M32.051,25.575c-0.073,0.549-0.11,0.993-0.11,1.331c0,0.391,0.072,0.815,0.217,1.272c0.144,0.458,0.359,0.821,0.644,1.089
			c0.207,0.191,0.459,0.287,0.757,0.287c0.354,0,0.67-0.167,0.949-0.5s0.418-0.81,0.418-1.428c0-0.696-0.139-1.298-0.415-1.807
			c-0.277-0.509-0.669-0.763-1.178-0.763c-0.155,0-0.32,0.032-0.498,0.098C32.658,25.219,32.396,25.359,32.051,25.575z"/>
		<path style="fill:#0066FF;" d="M42.052,21.071v5.566l1.422-1.3c0.301-0.276,0.476-0.451,0.525-0.524
			c0.033-0.049,0.049-0.098,0.049-0.146c0-0.082-0.034-0.152-0.101-0.211c-0.067-0.059-0.178-0.092-0.333-0.101v-0.195h2.429v0.195
			c-0.333,0.008-0.611,0.059-0.833,0.152c-0.222,0.094-0.465,0.261-0.729,0.501l-1.434,1.324l1.434,1.812
			c0.399,0.501,0.667,0.818,0.806,0.952c0.195,0.191,0.366,0.315,0.513,0.373c0.102,0.041,0.279,0.061,0.531,0.061v0.22h-2.716
			v-0.22c0.154-0.004,0.259-0.027,0.314-0.07c0.055-0.042,0.083-0.103,0.083-0.18c0-0.094-0.082-0.244-0.244-0.452l-1.715-2.191
			v1.855c0,0.362,0.025,0.6,0.076,0.714c0.051,0.114,0.123,0.195,0.217,0.244c0.093,0.049,0.297,0.075,0.61,0.079v0.22H40.11v-0.22
			c0.285,0,0.499-0.035,0.641-0.104c0.085-0.045,0.15-0.114,0.195-0.208c0.061-0.134,0.091-0.366,0.091-0.695v-5.091
			c0-0.646-0.014-1.042-0.042-1.187c-0.028-0.144-0.075-0.244-0.14-0.299c-0.065-0.055-0.151-0.083-0.257-0.083
			c-0.085,0-0.213,0.035-0.384,0.104l-0.104-0.213l1.66-0.684H42.052z"/>
		<path style="fill:#0066FF;" d="M48.283,23.994v1.258c0.468-0.838,0.948-1.258,1.44-1.258c0.224,0,0.409,0.068,0.556,0.205
			c0.146,0.137,0.22,0.294,0.22,0.473c0,0.159-0.053,0.293-0.159,0.403c-0.105,0.11-0.231,0.165-0.378,0.165
			c-0.143,0-0.303-0.07-0.479-0.21c-0.177-0.14-0.308-0.21-0.394-0.21c-0.073,0-0.152,0.041-0.238,0.122
			c-0.183,0.167-0.372,0.441-0.567,0.824v2.679c0,0.309,0.039,0.543,0.116,0.702c0.053,0.11,0.146,0.202,0.28,0.275
			c0.135,0.073,0.327,0.11,0.58,0.11v0.22h-2.862v-0.22c0.285,0,0.496-0.045,0.635-0.134c0.102-0.065,0.173-0.169,0.213-0.311
			c0.021-0.069,0.031-0.267,0.031-0.592v-2.167c0-0.651-0.014-1.039-0.04-1.163c-0.026-0.124-0.075-0.214-0.146-0.271
			s-0.16-0.085-0.266-0.085c-0.126,0-0.269,0.031-0.427,0.091l-0.062-0.22l1.691-0.684H48.283z"/>
	</g>
	<g>
		<path style="fill:#0066FF;" d="M11.475,40.078l2.014-0.982h0.202v6.988c0,0.464,0.019,0.753,0.058,0.867
			c0.039,0.113,0.119,0.201,0.241,0.262c0.122,0.062,0.37,0.096,0.745,0.104v0.226h-3.113v-0.226
			c0.391-0.009,0.643-0.042,0.757-0.101c0.114-0.06,0.193-0.139,0.238-0.238c0.044-0.1,0.067-0.397,0.067-0.895v-4.468
			c0-0.602-0.021-0.988-0.061-1.159c-0.028-0.13-0.081-0.226-0.156-0.287s-0.166-0.092-0.271-0.092c-0.15,0-0.36,0.063-0.628,0.189
			L11.475,40.078z"/>
		<path style="fill:#0066FF;" d="M17.517,39.267h4.437v0.232l-2.759,8.215h-0.684l2.472-7.452h-2.277
			c-0.459,0-0.787,0.055-0.982,0.165c-0.342,0.187-0.616,0.476-0.824,0.867l-0.177-0.067L17.517,39.267z"/>
		<path style="fill:#0066FF;" d="M26.198,42.508l1.721-0.696h0.232v1.307c0.289-0.493,0.579-0.837,0.87-1.035
			s0.597-0.296,0.919-0.296c0.562,0,1.029,0.22,1.403,0.659c0.46,0.537,0.69,1.237,0.69,2.1c0,0.965-0.277,1.762-0.83,2.393
			c-0.456,0.517-1.029,0.775-1.721,0.775c-0.301,0-0.562-0.043-0.781-0.128c-0.163-0.062-0.346-0.184-0.549-0.366v1.702
			c0,0.383,0.023,0.626,0.07,0.729c0.046,0.104,0.128,0.187,0.244,0.247c0.116,0.062,0.327,0.092,0.631,0.092v0.227h-2.93V49.99
			h0.153c0.224,0.004,0.415-0.038,0.574-0.128c0.077-0.045,0.137-0.117,0.18-0.217c0.042-0.1,0.064-0.353,0.064-0.76V43.6
			c0-0.362-0.016-0.592-0.049-0.69s-0.084-0.171-0.156-0.22s-0.167-0.073-0.29-0.073c-0.098,0-0.222,0.029-0.373,0.086
			L26.198,42.508z M28.151,43.478v2.087c0,0.452,0.018,0.749,0.055,0.892c0.057,0.235,0.196,0.443,0.418,0.622
			c0.222,0.179,0.501,0.269,0.839,0.269c0.407,0,0.737-0.158,0.989-0.477c0.329-0.414,0.494-0.998,0.494-1.751
			c0-0.854-0.187-1.512-0.562-1.972c-0.26-0.317-0.57-0.476-0.928-0.476c-0.195,0-0.389,0.049-0.58,0.146
			C28.73,42.892,28.489,43.112,28.151,43.478z"/>
		<path style="fill:#0066FF;" d="M34.779,41.787v4.492c0,0.351,0.025,0.583,0.076,0.699s0.126,0.202,0.226,0.26
			c0.1,0.057,0.282,0.085,0.546,0.085v0.22h-2.716v-0.22c0.272,0,0.456-0.026,0.549-0.079s0.168-0.141,0.223-0.263
			c0.055-0.122,0.083-0.356,0.083-0.702v-2.154c0-0.606-0.018-0.999-0.055-1.178c-0.028-0.13-0.073-0.221-0.134-0.272
			c-0.062-0.051-0.145-0.076-0.25-0.076c-0.114,0-0.252,0.031-0.415,0.091l-0.085-0.22l1.685-0.684H34.779z M34.272,38.864
			c0.171,0,0.316,0.06,0.437,0.18s0.18,0.266,0.18,0.437s-0.06,0.317-0.18,0.439s-0.266,0.183-0.437,0.183s-0.317-0.061-0.439-0.183
			s-0.183-0.269-0.183-0.439s0.06-0.316,0.18-0.437S34.098,38.864,34.272,38.864z"/>
		<path style="fill:#0066FF;" d="M41.219,45.828l-0.067,1.715H36.22v-0.22l3.711-4.944H38.1c-0.395,0-0.653,0.025-0.775,0.076
			c-0.122,0.051-0.222,0.147-0.299,0.29c-0.109,0.204-0.173,0.456-0.189,0.757h-0.244l0.037-1.55h4.688v0.226l-3.748,4.956h2.039
			c0.427,0,0.717-0.035,0.87-0.106c0.153-0.071,0.276-0.196,0.37-0.375c0.065-0.131,0.12-0.405,0.165-0.824H41.219z"/>
		<path style="fill:#0066FF;" d="M46.692,45.828l-0.067,1.715h-4.932v-0.22l3.711-4.944h-1.831c-0.395,0-0.653,0.025-0.775,0.076
			c-0.122,0.051-0.222,0.147-0.299,0.29c-0.109,0.204-0.173,0.456-0.189,0.757h-0.244l0.037-1.55h4.688v0.226l-3.748,4.956h2.039
			c0.427,0,0.717-0.035,0.87-0.106c0.153-0.071,0.276-0.196,0.37-0.375c0.065-0.131,0.12-0.405,0.165-0.824H46.692z"/>
		<path style="fill:#0066FF;" d="M50.042,41.787c0.846,0,1.525,0.322,2.039,0.965c0.434,0.549,0.652,1.18,0.652,1.892
			c0,0.501-0.121,1.007-0.359,1.521c-0.24,0.512-0.572,0.898-0.992,1.159c-0.422,0.261-0.891,0.391-1.408,0.391
			c-0.842,0-1.511-0.336-2.007-1.007c-0.419-0.565-0.629-1.201-0.629-1.904c0-0.513,0.127-1.022,0.382-1.529
			c0.254-0.506,0.589-0.881,1.004-1.123C49.138,41.909,49.577,41.787,50.042,41.787z M49.853,42.184
			c-0.217,0-0.434,0.064-0.65,0.192c-0.217,0.128-0.394,0.353-0.527,0.674c-0.135,0.321-0.201,0.734-0.201,1.239
			c0,0.813,0.161,1.516,0.484,2.105c0.324,0.59,0.75,0.885,1.279,0.885c0.395,0,0.721-0.162,0.977-0.488
			c0.256-0.325,0.385-0.885,0.385-1.679c0-0.992-0.215-1.773-0.641-2.343C50.669,42.379,50.3,42.184,49.853,42.184z"/>
		<path style="fill:#0066FF;" d="M55.192,41.787v1.258c0.468-0.838,0.948-1.258,1.44-1.258c0.224,0,0.409,0.068,0.556,0.205
			c0.146,0.137,0.22,0.294,0.22,0.473c0,0.159-0.053,0.293-0.159,0.403c-0.105,0.11-0.231,0.165-0.378,0.165
			c-0.143,0-0.303-0.07-0.479-0.21c-0.177-0.14-0.308-0.21-0.394-0.21c-0.073,0-0.152,0.041-0.238,0.122
			c-0.183,0.167-0.372,0.441-0.567,0.824v2.679c0,0.31,0.039,0.544,0.116,0.702c0.053,0.11,0.146,0.202,0.28,0.274
			c0.135,0.074,0.328,0.11,0.58,0.11v0.22h-2.862v-0.22c0.284,0,0.496-0.045,0.635-0.134c0.102-0.065,0.173-0.169,0.213-0.312
			c0.021-0.069,0.031-0.267,0.031-0.593v-2.166c0-0.651-0.014-1.039-0.04-1.163c-0.026-0.124-0.075-0.214-0.146-0.271
			s-0.159-0.085-0.266-0.085c-0.126,0-0.269,0.031-0.427,0.091l-0.062-0.22l1.69-0.684H55.192z"/>
	</g>
	<g>
		<path style="fill:#0066FF;" d="M16.021,63.046v0.866h-1.11v2.186h-1.007v-2.186H10.4v-0.781l3.839-5.48h0.672v5.396H16.021z
			 M13.904,63.046v-4.107l-2.905,4.107H13.904z"/>
		<path style="fill:#0066FF;" d="M18.854,61.929c-0.655-0.537-1.077-0.968-1.266-1.294c-0.189-0.325-0.284-0.663-0.284-1.013
			c0-0.537,0.207-1,0.622-1.389s0.967-0.583,1.654-0.583c0.667,0,1.205,0.181,1.611,0.543s0.61,0.775,0.61,1.239
			c0,0.31-0.11,0.625-0.33,0.946s-0.677,0.699-1.374,1.135c0.716,0.554,1.19,0.989,1.422,1.307c0.309,0.415,0.464,0.853,0.464,1.312
			c0,0.581-0.222,1.079-0.666,1.492c-0.443,0.413-1.025,0.619-1.745,0.619c-0.786,0-1.398-0.246-1.837-0.738
			c-0.35-0.395-0.525-0.826-0.525-1.294c0-0.366,0.123-0.729,0.369-1.09S18.251,62.364,18.854,61.929z M19.141,62.161
			c-0.338,0.284-0.588,0.595-0.751,0.931c-0.163,0.336-0.244,0.699-0.244,1.09c0,0.524,0.144,0.944,0.431,1.26
			c0.287,0.315,0.652,0.473,1.096,0.473c0.439,0,0.791-0.124,1.056-0.372s0.396-0.549,0.396-0.903c0-0.293-0.077-0.555-0.231-0.787
			C20.604,63.42,20.02,62.856,19.141,62.161z M19.812,61.275c0.488-0.439,0.797-0.786,0.928-1.04s0.195-0.542,0.195-0.864
			c0-0.427-0.12-0.762-0.36-1.004c-0.24-0.241-0.568-0.363-0.983-0.363s-0.753,0.12-1.013,0.36s-0.391,0.521-0.391,0.843
			c0,0.211,0.054,0.423,0.162,0.635c0.108,0.211,0.262,0.413,0.461,0.604L19.812,61.275z"/>
		<path style="fill:#0066FF;" d="M22.989,68.179V67.91c0.419-0.138,0.744-0.353,0.974-0.644c0.229-0.291,0.345-0.6,0.345-0.925
			c0-0.077-0.018-0.143-0.055-0.195c-0.028-0.037-0.057-0.055-0.085-0.055c-0.045,0-0.143,0.04-0.293,0.122
			c-0.073,0.036-0.151,0.055-0.232,0.055c-0.199,0-0.358-0.059-0.476-0.177c-0.118-0.118-0.177-0.281-0.177-0.488
			c0-0.199,0.076-0.37,0.229-0.513c0.152-0.143,0.339-0.214,0.559-0.214c0.269,0,0.507,0.117,0.717,0.351
			c0.209,0.234,0.314,0.545,0.314,0.931c0,0.42-0.146,0.81-0.437,1.169C24.08,67.688,23.62,67.972,22.989,68.179z"/>
		<path style="fill:#0066FF;" d="M32.031,57.821l-0.476,1.038h-2.49l-0.543,1.11c1.078,0.159,1.933,0.56,2.563,1.202
			c0.541,0.554,0.812,1.205,0.812,1.953c0,0.436-0.089,0.839-0.266,1.209c-0.177,0.37-0.4,0.686-0.668,0.945
			c-0.269,0.261-0.568,0.471-0.897,0.629c-0.468,0.224-0.948,0.336-1.44,0.336c-0.497,0-0.858-0.085-1.083-0.253
			c-0.226-0.169-0.339-0.355-0.339-0.559c0-0.114,0.047-0.215,0.14-0.303c0.094-0.087,0.212-0.131,0.354-0.131
			c0.105,0,0.198,0.017,0.277,0.049c0.08,0.032,0.215,0.116,0.406,0.25c0.305,0.212,0.614,0.317,0.928,0.317
			c0.476,0,0.894-0.18,1.254-0.54c0.36-0.36,0.54-0.799,0.54-1.315c0-0.5-0.161-0.967-0.482-1.4s-0.765-0.769-1.331-1.004
			c-0.443-0.184-1.048-0.289-1.812-0.317l1.587-3.217H32.031z"/>
		<path style="fill:#0066FF;" d="M33.514,66.269v-0.226c0.529-0.009,1.021-0.132,1.477-0.369c0.456-0.238,0.896-0.654,1.321-1.248
			c0.425-0.595,0.721-1.248,0.888-1.96c-0.639,0.411-1.217,0.616-1.733,0.616c-0.582,0-1.08-0.225-1.495-0.674
			s-0.623-1.047-0.623-1.791c0-0.725,0.208-1.37,0.623-1.936c0.5-0.688,1.153-1.031,1.959-1.031c0.68,0,1.261,0.281,1.746,0.842
			c0.594,0.696,0.891,1.555,0.891,2.576c0,0.92-0.226,1.777-0.678,2.572c-0.451,0.796-1.08,1.456-1.886,1.98
			c-0.655,0.432-1.369,0.647-2.143,0.647H33.514z M37.298,62.015c0.073-0.529,0.11-0.952,0.11-1.27c0-0.395-0.067-0.821-0.202-1.279
			c-0.134-0.457-0.324-0.809-0.57-1.053c-0.247-0.244-0.526-0.366-0.839-0.366c-0.362,0-0.68,0.163-0.952,0.488
			c-0.272,0.326-0.409,0.81-0.409,1.453c0,0.858,0.181,1.529,0.543,2.014c0.265,0.351,0.59,0.525,0.977,0.525
			c0.187,0,0.409-0.045,0.665-0.135C36.877,62.304,37.103,62.177,37.298,62.015z"/>
		<path style="fill:#0066FF;" d="M44.663,57.418v5.566l1.422-1.3c0.301-0.276,0.476-0.451,0.525-0.524
			c0.033-0.049,0.049-0.098,0.049-0.146c0-0.082-0.034-0.151-0.101-0.211c-0.067-0.059-0.178-0.093-0.333-0.101v-0.195h2.428v0.195
			c-0.333,0.008-0.611,0.059-0.833,0.152s-0.465,0.261-0.729,0.501l-1.434,1.324l1.434,1.812c0.399,0.501,0.667,0.818,0.806,0.952
			c0.195,0.191,0.366,0.315,0.512,0.372c0.103,0.041,0.279,0.062,0.531,0.062v0.22h-2.715v-0.22c0.154-0.004,0.259-0.027,0.314-0.07
			c0.055-0.043,0.083-0.103,0.083-0.18c0-0.094-0.082-0.244-0.244-0.452l-1.715-2.191v1.855c0,0.362,0.025,0.601,0.076,0.715
			c0.051,0.113,0.123,0.195,0.217,0.244c0.093,0.049,0.297,0.075,0.61,0.079v0.22h-2.845v-0.22c0.285,0,0.499-0.034,0.641-0.104
			c0.085-0.045,0.15-0.114,0.195-0.208c0.061-0.134,0.091-0.366,0.091-0.695V59.78c0-0.646-0.014-1.042-0.042-1.187
			s-0.075-0.244-0.14-0.3c-0.065-0.055-0.151-0.082-0.257-0.082c-0.085,0-0.213,0.034-0.384,0.104l-0.104-0.214l1.66-0.684H44.663z"
			/>
		<path style="fill:#0066FF;" d="M50.894,60.342V61.6c0.468-0.839,0.948-1.258,1.44-1.258c0.224,0,0.409,0.068,0.556,0.205
			c0.146,0.136,0.22,0.294,0.22,0.473c0,0.158-0.053,0.293-0.159,0.402c-0.105,0.11-0.231,0.165-0.378,0.165
			c-0.143,0-0.303-0.07-0.479-0.21c-0.177-0.141-0.308-0.211-0.394-0.211c-0.073,0-0.152,0.041-0.238,0.122
			c-0.183,0.167-0.372,0.441-0.567,0.824v2.679c0,0.31,0.039,0.544,0.116,0.702c0.053,0.11,0.146,0.202,0.28,0.274
			c0.135,0.074,0.328,0.11,0.58,0.11v0.22h-2.862v-0.22c0.284,0,0.496-0.045,0.635-0.134c0.102-0.065,0.173-0.169,0.213-0.312
			c0.021-0.069,0.031-0.267,0.031-0.593v-2.166c0-0.651-0.014-1.039-0.04-1.163s-0.075-0.215-0.146-0.271s-0.159-0.085-0.266-0.085
			c-0.126,0-0.269,0.03-0.427,0.091l-0.062-0.22l1.69-0.684H50.894z"/>
		<path style="fill:#0066FF;" d="M56.484,57.418l-2.997,8.851h-0.488l2.997-8.851H56.484z"/>
		<path style="fill:#0066FF;" d="M56.479,61.062l1.721-0.696h0.232v1.307c0.288-0.492,0.578-0.837,0.869-1.035
			c0.291-0.197,0.598-0.296,0.919-0.296c0.562,0,1.029,0.22,1.403,0.659c0.46,0.537,0.689,1.237,0.689,2.1
			c0,0.965-0.276,1.762-0.83,2.393c-0.455,0.517-1.029,0.775-1.721,0.775c-0.301,0-0.562-0.043-0.781-0.128
			c-0.163-0.062-0.346-0.184-0.549-0.366v1.702c0,0.383,0.022,0.626,0.069,0.729c0.047,0.104,0.129,0.187,0.244,0.247
			c0.116,0.062,0.327,0.092,0.632,0.092v0.227h-2.93v-0.227H56.6c0.225,0.004,0.416-0.038,0.574-0.128
			c0.077-0.045,0.138-0.117,0.18-0.217c0.043-0.1,0.064-0.353,0.064-0.76v-5.286c0-0.361-0.017-0.592-0.049-0.689
			s-0.085-0.171-0.155-0.22c-0.071-0.049-0.168-0.073-0.29-0.073c-0.098,0-0.222,0.028-0.373,0.086L56.479,61.062z M58.432,62.033
			v2.087c0,0.452,0.018,0.749,0.055,0.892c0.057,0.235,0.196,0.443,0.418,0.622s0.501,0.269,0.839,0.269
			c0.407,0,0.736-0.158,0.989-0.477c0.329-0.414,0.494-0.998,0.494-1.751c0-0.854-0.188-1.512-0.562-1.972
			c-0.261-0.317-0.569-0.477-0.928-0.477c-0.195,0-0.389,0.049-0.58,0.146C59.011,61.447,58.769,61.666,58.432,62.033z"/>
		<path style="fill:#0066FF;" d="M65.06,60.342v4.492c0,0.351,0.025,0.583,0.076,0.699s0.126,0.202,0.226,0.26
			c0.1,0.057,0.282,0.085,0.547,0.085v0.22h-2.717v-0.22c0.273,0,0.456-0.026,0.55-0.079s0.168-0.141,0.223-0.263
			s0.083-0.356,0.083-0.702V62.68c0-0.606-0.019-0.999-0.056-1.178c-0.028-0.131-0.073-0.221-0.134-0.271
			c-0.062-0.051-0.145-0.076-0.25-0.076c-0.114,0-0.253,0.03-0.416,0.091l-0.085-0.22l1.685-0.684H65.06z M64.553,57.418
			c0.171,0,0.316,0.061,0.437,0.181s0.181,0.266,0.181,0.437s-0.061,0.317-0.181,0.439s-0.266,0.183-0.437,0.183
			s-0.317-0.061-0.439-0.183s-0.183-0.269-0.183-0.439s0.06-0.316,0.18-0.437S64.378,57.418,64.553,57.418z"/>
		<path style="fill:#0066FF;" d="M71.5,64.383l-0.067,1.715h-4.932v-0.22l3.711-4.944h-1.831c-0.395,0-0.653,0.026-0.774,0.077
			c-0.123,0.051-0.223,0.147-0.3,0.29c-0.109,0.203-0.173,0.455-0.188,0.756h-0.244l0.036-1.55h4.688v0.226l-3.747,4.956h2.038
			c0.427,0,0.717-0.035,0.87-0.106c0.152-0.071,0.275-0.196,0.369-0.375c0.064-0.131,0.12-0.405,0.164-0.824H71.5z"/>
		<path style="fill:#0066FF;" d="M76.973,64.383l-0.067,1.715h-4.932v-0.22l3.711-4.944h-1.831c-0.395,0-0.653,0.026-0.774,0.077
			c-0.123,0.051-0.223,0.147-0.3,0.29c-0.109,0.203-0.173,0.455-0.188,0.756h-0.244l0.036-1.55h4.688v0.226l-3.747,4.956h2.038
			c0.427,0,0.717-0.035,0.87-0.106c0.152-0.071,0.275-0.196,0.369-0.375c0.064-0.131,0.12-0.405,0.164-0.824H76.973z"/>
		<path style="fill:#0066FF;" d="M80.756,65.292c-0.574,0.443-0.934,0.7-1.08,0.769c-0.221,0.103-0.454,0.153-0.702,0.153
			c-0.387,0-0.705-0.133-0.955-0.397c-0.251-0.264-0.376-0.612-0.376-1.043c0-0.272,0.062-0.509,0.184-0.708
			c0.167-0.277,0.456-0.537,0.869-0.781s1.1-0.541,2.061-0.892v-0.22c0-0.558-0.089-0.939-0.266-1.147
			c-0.177-0.207-0.435-0.311-0.772-0.311c-0.256,0-0.46,0.068-0.61,0.207c-0.154,0.139-0.231,0.297-0.231,0.477l0.012,0.354
			c0,0.188-0.048,0.332-0.144,0.434s-0.221,0.152-0.375,0.152c-0.15,0-0.273-0.053-0.369-0.158
			c-0.096-0.106-0.144-0.251-0.144-0.434c0-0.351,0.179-0.672,0.537-0.965s0.86-0.439,1.508-0.439c0.496,0,0.903,0.084,1.221,0.25
			c0.24,0.127,0.417,0.324,0.53,0.593c0.074,0.175,0.11,0.533,0.11,1.074v1.897c0,0.533,0.01,0.86,0.03,0.98s0.054,0.2,0.101,0.24
			c0.047,0.041,0.101,0.062,0.162,0.062c0.065,0,0.122-0.015,0.171-0.043c0.086-0.053,0.25-0.201,0.494-0.445v0.342
			c-0.455,0.61-0.891,0.915-1.306,0.915c-0.199,0-0.358-0.068-0.477-0.207S80.76,65.626,80.756,65.292z M80.756,64.896v-2.13
			c-0.614,0.244-1.012,0.417-1.19,0.519c-0.321,0.179-0.552,0.366-0.689,0.562c-0.139,0.195-0.208,0.408-0.208,0.641
			c0,0.293,0.088,0.536,0.263,0.729s0.376,0.29,0.604,0.29C79.844,65.506,80.251,65.302,80.756,64.896z"/>
	</g>
	<g>
		<path style="fill:#0066FF;" d="M16.021,81.796v0.866h-1.11v2.186h-1.007v-2.186H10.4v-0.781l3.839-5.48h0.672v5.396H16.021z
			 M13.904,81.796v-4.107l-2.905,4.107H13.904z"/>
		<path style="fill:#0066FF;" d="M17.114,85.019v-0.226c0.529-0.009,1.021-0.132,1.477-0.369c0.456-0.238,0.896-0.654,1.321-1.248
			c0.425-0.595,0.721-1.248,0.888-1.96c-0.639,0.411-1.217,0.616-1.733,0.616c-0.582,0-1.08-0.225-1.495-0.674
			s-0.623-1.047-0.623-1.791c0-0.725,0.208-1.37,0.623-1.936c0.5-0.688,1.153-1.031,1.959-1.031c0.68,0,1.261,0.281,1.746,0.842
			c0.594,0.696,0.891,1.555,0.891,2.576c0,0.92-0.226,1.777-0.678,2.572c-0.451,0.796-1.08,1.456-1.886,1.98
			c-0.655,0.432-1.369,0.647-2.143,0.647H17.114z M20.898,80.765c0.073-0.529,0.11-0.952,0.11-1.27c0-0.395-0.067-0.821-0.202-1.279
			c-0.134-0.457-0.324-0.809-0.57-1.053c-0.247-0.244-0.526-0.366-0.839-0.366c-0.362,0-0.68,0.163-0.952,0.488
			c-0.272,0.326-0.409,0.81-0.409,1.453c0,0.858,0.181,1.529,0.543,2.014c0.265,0.351,0.59,0.525,0.977,0.525
			c0.187,0,0.409-0.045,0.665-0.135C20.478,81.054,20.703,80.927,20.898,80.765z"/>
		<path style="fill:#0066FF;" d="M28.263,76.168v5.566l1.422-1.3c0.301-0.276,0.476-0.451,0.525-0.524
			c0.033-0.049,0.049-0.098,0.049-0.146c0-0.082-0.034-0.151-0.101-0.211c-0.067-0.059-0.178-0.093-0.333-0.101v-0.195h2.429v0.195
			c-0.333,0.008-0.611,0.059-0.833,0.152s-0.465,0.261-0.729,0.501l-1.434,1.324l1.434,1.812c0.399,0.501,0.667,0.818,0.806,0.952
			c0.195,0.191,0.366,0.315,0.513,0.372c0.102,0.041,0.279,0.062,0.531,0.062v0.22h-2.716v-0.22c0.154-0.004,0.259-0.027,0.314-0.07
			c0.055-0.043,0.083-0.103,0.083-0.18c0-0.094-0.082-0.244-0.244-0.452l-1.715-2.191v1.855c0,0.362,0.025,0.601,0.076,0.715
			c0.051,0.113,0.123,0.195,0.217,0.244c0.093,0.049,0.297,0.075,0.61,0.079v0.22h-2.845v-0.22c0.285,0,0.499-0.034,0.641-0.104
			c0.085-0.045,0.15-0.114,0.195-0.208c0.061-0.134,0.091-0.366,0.091-0.695V78.53c0-0.646-0.014-1.042-0.042-1.187
			s-0.075-0.244-0.14-0.3c-0.065-0.055-0.151-0.082-0.257-0.082c-0.085,0-0.213,0.034-0.384,0.104l-0.104-0.214l1.66-0.684H28.263z"
			/>
		<path style="fill:#0066FF;" d="M34.494,79.092v1.258c0.468-0.839,0.948-1.258,1.44-1.258c0.224,0,0.409,0.068,0.556,0.205
			c0.146,0.136,0.22,0.294,0.22,0.473c0,0.158-0.053,0.293-0.159,0.402c-0.105,0.11-0.231,0.165-0.378,0.165
			c-0.143,0-0.302-0.07-0.479-0.21c-0.177-0.141-0.308-0.211-0.394-0.211c-0.073,0-0.152,0.041-0.238,0.122
			c-0.183,0.167-0.372,0.441-0.567,0.824v2.679c0,0.31,0.039,0.544,0.116,0.702c0.053,0.11,0.146,0.202,0.28,0.274
			c0.135,0.074,0.328,0.11,0.58,0.11v0.22h-2.862v-0.22c0.285,0,0.496-0.045,0.635-0.134c0.102-0.065,0.173-0.169,0.213-0.312
			c0.021-0.069,0.031-0.267,0.031-0.593v-2.166c0-0.651-0.014-1.039-0.04-1.163s-0.075-0.215-0.146-0.271s-0.16-0.085-0.266-0.085
			c-0.126,0-0.269,0.03-0.427,0.091l-0.062-0.22l1.691-0.684H34.494z"/>
		<path style="fill:#0066FF;" d="M40.083,76.168l-2.997,8.851h-0.488l2.997-8.851H40.083z"/>
		<path style="fill:#0066FF;" d="M40.079,79.812l1.721-0.696h0.232v1.307c0.289-0.492,0.579-0.837,0.87-1.035
			c0.291-0.197,0.597-0.296,0.919-0.296c0.562,0,1.029,0.22,1.403,0.659c0.46,0.537,0.69,1.237,0.69,2.1
			c0,0.965-0.277,1.762-0.83,2.393c-0.456,0.517-1.029,0.775-1.721,0.775c-0.301,0-0.562-0.043-0.781-0.128
			c-0.163-0.062-0.346-0.184-0.549-0.366v1.702c0,0.383,0.023,0.626,0.07,0.729c0.046,0.104,0.128,0.187,0.244,0.247
			c0.116,0.062,0.327,0.092,0.631,0.092v0.227h-2.93v-0.227h0.153c0.224,0.004,0.415-0.038,0.574-0.128
			c0.077-0.045,0.137-0.117,0.18-0.217c0.042-0.1,0.064-0.353,0.064-0.76v-5.286c0-0.361-0.016-0.592-0.049-0.689
			s-0.084-0.171-0.156-0.22s-0.167-0.073-0.29-0.073c-0.098,0-0.222,0.028-0.373,0.086L40.079,79.812z M42.032,80.783v2.087
			c0,0.452,0.018,0.749,0.055,0.892c0.057,0.235,0.196,0.443,0.418,0.622c0.222,0.179,0.501,0.269,0.839,0.269
			c0.407,0,0.737-0.158,0.989-0.477c0.329-0.414,0.494-0.998,0.494-1.751c0-0.854-0.187-1.512-0.562-1.972
			c-0.26-0.317-0.57-0.477-0.928-0.477c-0.195,0-0.389,0.049-0.58,0.146C42.611,80.197,42.37,80.416,42.032,80.783z"/>
		<path style="fill:#0066FF;" d="M48.66,79.092v4.492c0,0.351,0.025,0.583,0.076,0.699s0.126,0.202,0.226,0.26
			c0.1,0.057,0.282,0.085,0.547,0.085v0.22h-2.716v-0.22c0.272,0,0.456-0.026,0.549-0.079s0.168-0.141,0.223-0.263
			c0.055-0.122,0.083-0.356,0.083-0.702V81.43c0-0.606-0.018-0.999-0.055-1.178c-0.028-0.131-0.073-0.221-0.134-0.271
			c-0.062-0.051-0.145-0.076-0.25-0.076c-0.114,0-0.252,0.03-0.415,0.091l-0.085-0.22l1.685-0.684H48.66z M48.153,76.168
			c0.171,0,0.316,0.061,0.437,0.181s0.181,0.266,0.181,0.437s-0.061,0.317-0.181,0.439s-0.266,0.183-0.437,0.183
			s-0.317-0.061-0.439-0.183s-0.183-0.269-0.183-0.439s0.06-0.316,0.18-0.437S47.979,76.168,48.153,76.168z"/>
		<path style="fill:#0066FF;" d="M55.1,83.133l-0.067,1.715h-4.932v-0.22l3.711-4.944H51.98c-0.395,0-0.653,0.026-0.774,0.077
			c-0.123,0.051-0.223,0.147-0.3,0.29c-0.109,0.203-0.173,0.455-0.188,0.756h-0.244l0.036-1.55h4.688v0.226l-3.747,4.956h2.038
			c0.427,0,0.717-0.035,0.87-0.106c0.152-0.071,0.275-0.196,0.369-0.375c0.064-0.131,0.12-0.405,0.164-0.824H55.1z"/>
		<path style="fill:#0066FF;" d="M60.573,83.133l-0.067,1.715h-4.932v-0.22l3.711-4.944h-1.831c-0.395,0-0.653,0.026-0.774,0.077
			c-0.123,0.051-0.223,0.147-0.3,0.29c-0.109,0.203-0.173,0.455-0.188,0.756h-0.244l0.036-1.55h4.688v0.226l-3.747,4.956h2.038
			c0.427,0,0.717-0.035,0.87-0.106c0.152-0.071,0.275-0.196,0.369-0.375c0.064-0.131,0.12-0.405,0.164-0.824H60.573z"/>
		<path style="fill:#0066FF;" d="M64.355,84.042c-0.574,0.443-0.934,0.7-1.08,0.769c-0.221,0.103-0.454,0.153-0.702,0.153
			c-0.387,0-0.705-0.133-0.955-0.397c-0.251-0.264-0.376-0.612-0.376-1.043c0-0.272,0.062-0.509,0.184-0.708
			c0.167-0.277,0.456-0.537,0.869-0.781s1.1-0.541,2.061-0.892v-0.22c0-0.558-0.089-0.939-0.266-1.147
			c-0.177-0.207-0.435-0.311-0.772-0.311c-0.256,0-0.46,0.068-0.61,0.207c-0.154,0.139-0.231,0.297-0.231,0.477l0.012,0.354
			c0,0.188-0.048,0.332-0.144,0.434s-0.221,0.152-0.375,0.152c-0.15,0-0.273-0.053-0.369-0.158
			c-0.096-0.106-0.144-0.251-0.144-0.434c0-0.351,0.179-0.672,0.537-0.965s0.86-0.439,1.508-0.439c0.496,0,0.903,0.084,1.221,0.25
			c0.24,0.127,0.417,0.324,0.53,0.593c0.074,0.175,0.11,0.533,0.11,1.074v1.897c0,0.533,0.01,0.86,0.03,0.98s0.054,0.2,0.101,0.24
			c0.047,0.041,0.101,0.062,0.162,0.062c0.065,0,0.122-0.015,0.171-0.043c0.086-0.053,0.25-0.201,0.494-0.445v0.342
			c-0.455,0.61-0.891,0.915-1.306,0.915c-0.199,0-0.358-0.068-0.477-0.207S64.359,84.376,64.355,84.042z M64.355,83.646v-2.13
			c-0.614,0.244-1.012,0.417-1.19,0.519c-0.321,0.179-0.552,0.366-0.689,0.562c-0.139,0.195-0.208,0.408-0.208,0.641
			c0,0.293,0.088,0.536,0.263,0.729s0.376,0.29,0.604,0.29C63.443,84.256,63.851,84.052,64.355,83.646z"/>
	</g>
	<g>
		<path style="fill:#0066FF;" d="M80.743,6.367h6.409v0.592h-6.409V6.367z M80.743,8.644h6.409v0.604h-6.409V8.644z"/>
	</g>
	<g>
		<path style="fill:#0066FF;" d="M0.226,33.262h6.409v0.592H0.226V33.262z M0.226,35.539h6.409v0.604H0.226V35.539z"/>
		<path style="fill:#0066FF;" d="M68.029,32.554h0.305c-0.081,0.664-0.281,1.156-0.601,1.478c-0.32,0.321-0.693,0.482-1.12,0.482
			c-0.199,0-0.429-0.043-0.687-0.131c-0.259-0.087-0.659-0.284-1.203-0.589c-0.543-0.305-0.961-0.458-1.254-0.458
			c-0.269,0-0.504,0.097-0.705,0.29c-0.201,0.193-0.328,0.475-0.382,0.846h-0.28c0.077-0.659,0.274-1.151,0.592-1.474
			c0.317-0.324,0.678-0.485,1.081-0.485c0.199,0,0.447,0.049,0.744,0.146c0.216,0.073,0.641,0.279,1.275,0.617
			c0.48,0.256,0.873,0.384,1.178,0.384c0.261,0,0.475-0.082,0.642-0.244C67.834,33.203,67.972,32.916,68.029,32.554z M68.029,34.916
			h0.305c-0.081,0.663-0.281,1.157-0.601,1.48c-0.32,0.324-0.693,0.485-1.12,0.485c-0.199,0-0.429-0.045-0.687-0.134
			c-0.259-0.089-0.659-0.287-1.203-0.592c-0.543-0.306-0.961-0.458-1.254-0.458c-0.269,0-0.504,0.097-0.705,0.29
			s-0.328,0.477-0.382,0.852h-0.28c0.077-0.659,0.274-1.151,0.592-1.474c0.317-0.324,0.678-0.485,1.081-0.485
			c0.199,0,0.447,0.049,0.744,0.146c0.216,0.073,0.641,0.279,1.275,0.617c0.48,0.256,0.873,0.384,1.178,0.384
			c0.261,0,0.475-0.083,0.642-0.25C67.834,35.565,67.972,35.278,68.029,34.916z"/>
	</g>
	<g>
		<path style="fill:#0066FF;" d="M6.244,60.757h0.305c-0.081,0.663-0.282,1.156-0.601,1.478s-0.693,0.482-1.12,0.482
			c-0.2,0-0.429-0.044-0.687-0.132c-0.258-0.087-0.659-0.284-1.202-0.589c-0.543-0.305-0.961-0.458-1.254-0.458
			c-0.269,0-0.503,0.097-0.705,0.29c-0.201,0.193-0.329,0.476-0.381,0.846H0.317c0.077-0.659,0.274-1.15,0.592-1.475
			c0.317-0.323,0.678-0.484,1.081-0.484c0.199,0,0.448,0.049,0.745,0.146c0.216,0.072,0.641,0.278,1.275,0.616
			c0.48,0.256,0.873,0.384,1.178,0.384c0.26,0,0.474-0.081,0.641-0.244C6.049,61.406,6.187,61.119,6.244,60.757z M6.244,63.119
			h0.305c-0.081,0.663-0.282,1.156-0.601,1.48c-0.319,0.323-0.693,0.484-1.12,0.484c-0.2,0-0.429-0.044-0.687-0.134
			s-0.659-0.287-1.202-0.592C2.396,64.053,1.978,63.9,1.685,63.9c-0.269,0-0.503,0.097-0.705,0.29
			c-0.201,0.193-0.329,0.477-0.381,0.852H0.317c0.077-0.659,0.274-1.15,0.592-1.475c0.317-0.323,0.678-0.485,1.081-0.485
			c0.199,0,0.448,0.049,0.745,0.146c0.216,0.074,0.641,0.279,1.275,0.617c0.48,0.256,0.873,0.385,1.178,0.385
			c0.26,0,0.474-0.084,0.641-0.251C6.049,63.769,6.187,63.481,6.244,63.119z"/>
		<path style="fill:#0066FF;" d="M92.642,60.757h0.305c-0.081,0.663-0.281,1.156-0.601,1.478c-0.32,0.321-0.693,0.482-1.12,0.482
			c-0.199,0-0.429-0.044-0.687-0.132c-0.259-0.087-0.659-0.284-1.203-0.589c-0.543-0.305-0.961-0.458-1.254-0.458
			c-0.269,0-0.504,0.097-0.705,0.29s-0.328,0.476-0.382,0.846h-0.28c0.077-0.659,0.274-1.15,0.592-1.475
			c0.317-0.323,0.678-0.484,1.081-0.484c0.199,0,0.447,0.049,0.744,0.146c0.216,0.072,0.641,0.278,1.275,0.616
			c0.48,0.256,0.873,0.384,1.178,0.384c0.261,0,0.475-0.081,0.642-0.244C92.446,61.406,92.584,61.119,92.642,60.757z M92.642,63.119
			h0.305c-0.081,0.663-0.281,1.156-0.601,1.48c-0.32,0.323-0.693,0.484-1.12,0.484c-0.199,0-0.429-0.044-0.687-0.134
			c-0.259-0.09-0.659-0.287-1.203-0.592c-0.543-0.306-0.961-0.458-1.254-0.458c-0.269,0-0.504,0.097-0.705,0.29
			s-0.328,0.477-0.382,0.852h-0.28c0.077-0.659,0.274-1.15,0.592-1.475c0.317-0.323,0.678-0.485,1.081-0.485
			c0.199,0,0.447,0.049,0.744,0.146c0.216,0.074,0.641,0.279,1.275,0.617c0.48,0.256,0.873,0.385,1.178,0.385
			c0.261,0,0.475-0.084,0.642-0.251C92.446,63.769,92.584,63.481,92.642,63.119z"/>
	</g>
	<g>
		<path style="fill:#0066FF;" d="M6.244,79.507h0.305c-0.081,0.663-0.282,1.156-0.601,1.478s-0.693,0.482-1.12,0.482
			c-0.2,0-0.429-0.044-0.687-0.132c-0.258-0.087-0.659-0.284-1.202-0.589c-0.543-0.305-0.961-0.458-1.254-0.458
			c-0.269,0-0.503,0.097-0.705,0.29c-0.201,0.193-0.329,0.476-0.381,0.846H0.317c0.077-0.659,0.274-1.15,0.592-1.475
			c0.317-0.323,0.678-0.484,1.081-0.484c0.199,0,0.448,0.049,0.745,0.146c0.216,0.072,0.641,0.278,1.275,0.616
			c0.48,0.256,0.873,0.384,1.178,0.384c0.26,0,0.474-0.081,0.641-0.244C6.049,80.156,6.187,79.869,6.244,79.507z M6.244,81.869
			h0.305c-0.081,0.663-0.282,1.156-0.601,1.48c-0.319,0.323-0.693,0.484-1.12,0.484c-0.2,0-0.429-0.044-0.687-0.134
			s-0.659-0.287-1.202-0.592c-0.543-0.306-0.961-0.458-1.254-0.458c-0.269,0-0.503,0.097-0.705,0.29
			c-0.201,0.193-0.329,0.477-0.381,0.852H0.317c0.077-0.659,0.274-1.15,0.592-1.475c0.317-0.323,0.678-0.485,1.081-0.485
			c0.199,0,0.448,0.049,0.745,0.146c0.216,0.074,0.641,0.279,1.275,0.617c0.48,0.256,0.873,0.385,1.178,0.385
			c0.26,0,0.474-0.084,0.641-0.251C6.049,82.519,6.187,82.231,6.244,81.869z"/>
	</g>
</g>
<g id="theGroup">
</g>
</svg>
