<?xml version="1.0" encoding="iso-8859-1"?>
<!-- Generator: Adobe Illustrator 16.0.0, SVG Export Plug-In . SVG Version: 6.00 Build 0)  -->
<!DOCTYPE svg PUBLIC "-//W3C//DTD SVG 1.1//EN" "http://www.w3.org/Graphics/SVG/1.1/DTD/svg11.dtd">
<svg version="1.1" id="Lager_1" xmlns="http://www.w3.org/2000/svg" xmlns:xlink="http://www.w3.org/1999/xlink" x="0px" y="0px"
	 width="14.172px" height="32.044px" viewBox="0 0 14.172 32.044" style="enable-background:new 0 0 14.172 32.044;"
	 xml:space="preserve">
<g>
	
		<line style="fill:none;stroke:#000000;stroke-width:0.5;stroke-linecap:square;stroke-miterlimit:10;" x1="0.25" y1="15.242" x2="13.922" y2="15.242"/>
	<g>
		<path d="M4.781,3.687c0.236-0.558,0.534-0.987,0.894-1.291c0.36-0.303,0.809-0.454,1.346-0.454c0.663,0,1.172,0.216,1.526,0.646
			C8.814,2.909,8.949,3.254,8.949,3.62c0,0.602-0.379,1.225-1.135,1.867c0.509,0.199,0.893,0.484,1.154,0.854
			s0.392,0.806,0.392,1.307c0,0.716-0.229,1.336-0.685,1.861c-0.594,0.684-1.455,1.025-2.582,1.025
			c-0.558,0-0.937-0.069-1.139-0.208c-0.201-0.138-0.302-0.286-0.302-0.445c0-0.118,0.047-0.222,0.143-0.312
			c0.096-0.089,0.21-0.134,0.345-0.134c0.102,0,0.205,0.016,0.311,0.049c0.069,0.021,0.226,0.095,0.47,0.223
			s0.413,0.204,0.506,0.229c0.15,0.045,0.311,0.067,0.482,0.067c0.415,0,0.776-0.161,1.083-0.482S8.455,8.82,8.455,8.381
			c0-0.322-0.071-0.635-0.213-0.94C8.136,7.213,8.02,7.04,7.894,6.922c-0.175-0.163-0.415-0.311-0.72-0.442
			C6.868,6.347,6.557,6.281,6.24,6.281H6.044V6.098C6.366,6.057,6.688,5.941,7.012,5.75C7.335,5.559,7.57,5.329,7.716,5.061
			s0.22-0.564,0.22-0.886c0-0.419-0.131-0.758-0.394-1.016C7.28,2.9,6.954,2.771,6.563,2.771c-0.631,0-1.158,0.338-1.581,1.013
			L4.781,3.687z"/>
	</g>
	<g>
		<path d="M6.752,26.618l-0.58,1.593H1.29v-0.226c1.437-1.311,2.447-2.381,3.033-3.211s0.879-1.589,0.879-2.276
			c0-0.525-0.161-0.956-0.482-1.294s-0.706-0.507-1.154-0.507c-0.407,0-0.772,0.119-1.095,0.357
			c-0.324,0.238-0.562,0.587-0.717,1.047H1.528c0.102-0.753,0.363-1.331,0.784-1.733c0.421-0.403,0.947-0.604,1.578-0.604
			c0.671,0,1.232,0.216,1.682,0.646c0.449,0.432,0.674,0.94,0.674,1.526c0,0.419-0.098,0.838-0.293,1.257
			c-0.301,0.66-0.79,1.357-1.465,2.094c-1.013,1.107-1.646,1.774-1.898,2.002H4.75c0.439,0,0.748-0.016,0.924-0.049
			c0.177-0.032,0.337-0.099,0.479-0.198c0.143-0.1,0.267-0.241,0.373-0.424H6.752z"/>
		<path d="M7.723,24.121c0-0.943,0.143-1.756,0.427-2.438s0.663-1.189,1.135-1.523c0.367-0.265,0.744-0.396,1.135-0.396
			c0.635,0,1.205,0.323,1.709,0.971c0.631,0.802,0.947,1.888,0.947,3.259c0,0.961-0.139,1.776-0.416,2.448
			c-0.277,0.671-0.629,1.158-1.059,1.461c-0.43,0.304-0.844,0.455-1.242,0.455c-0.789,0-1.447-0.466-1.971-1.397
			C7.944,26.175,7.723,25.229,7.723,24.121z M8.919,24.274c0,1.139,0.14,2.069,0.421,2.789c0.232,0.606,0.578,0.909,1.037,0.909
			c0.221,0,0.449-0.099,0.684-0.296c0.236-0.197,0.416-0.528,0.537-0.991c0.188-0.7,0.281-1.688,0.281-2.961
			c0-0.943-0.098-1.731-0.293-2.361c-0.146-0.469-0.336-0.8-0.566-0.995c-0.168-0.135-0.369-0.202-0.605-0.202
			c-0.277,0-0.523,0.125-0.738,0.373c-0.293,0.338-0.492,0.868-0.598,1.593C8.972,22.856,8.919,23.57,8.919,24.274z"/>
	</g>
</g>
<g id="theGroup">
</g>
</svg>
