<?xml version="1.0" encoding="iso-8859-1"?>
<!-- Generator: Adobe Illustrator 16.0.0, SVG Export Plug-In . SVG Version: 6.00 Build 0)  -->
<!DOCTYPE svg PUBLIC "-//W3C//DTD SVG 1.1//EN" "http://www.w3.org/Graphics/SVG/1.1/DTD/svg11.dtd">
<svg version="1.1" id="Lager_1" xmlns="http://www.w3.org/2000/svg" xmlns:xlink="http://www.w3.org/1999/xlink" x="0px" y="0px"
	 width="27.282px" height="32.044px" viewBox="0 0 27.282 32.044" style="enable-background:new 0 0 27.282 32.044;"
	 xml:space="preserve">
<g>
	
		<line style="fill:none;stroke:#000000;stroke-width:0.5;stroke-linecap:square;stroke-miterlimit:10;" x1="20.196" y1="15.242" x2="27.032" y2="15.242"/>
	<g>
		<path d="M21.934,2.924l2.014-0.982h0.202V8.93c0,0.464,0.019,0.753,0.058,0.867c0.039,0.113,0.119,0.201,0.241,0.262
			c0.122,0.062,0.37,0.096,0.745,0.104v0.226H22.08v-0.226c0.391-0.009,0.643-0.042,0.757-0.102
			c0.114-0.059,0.193-0.138,0.238-0.237s0.067-0.398,0.067-0.895V4.462c0-0.603-0.021-0.988-0.062-1.159
			c-0.028-0.131-0.08-0.227-0.155-0.287c-0.076-0.062-0.166-0.092-0.271-0.092c-0.151,0-0.36,0.063-0.629,0.189L21.934,2.924z"/>
	</g>
	<g>
		<path d="M26.012,19.935l-0.476,1.038h-2.49l-0.544,1.11c1.079,0.159,1.934,0.56,2.564,1.202c0.541,0.554,0.812,1.205,0.812,1.953
			c0,0.436-0.089,0.839-0.266,1.209s-0.399,0.686-0.669,0.945c-0.268,0.261-0.567,0.471-0.896,0.629
			c-0.468,0.224-0.948,0.336-1.44,0.336c-0.497,0-0.857-0.085-1.084-0.253c-0.226-0.169-0.339-0.355-0.339-0.559
			c0-0.114,0.047-0.215,0.141-0.303c0.094-0.087,0.212-0.131,0.354-0.131c0.105,0,0.198,0.017,0.277,0.049s0.215,0.116,0.406,0.25
			c0.305,0.212,0.614,0.317,0.928,0.317c0.476,0,0.894-0.18,1.254-0.54s0.54-0.799,0.54-1.315c0-0.5-0.16-0.967-0.482-1.4
			c-0.321-0.434-0.765-0.769-1.33-1.004c-0.443-0.184-1.048-0.289-1.812-0.317l1.587-3.217H26.012z"/>
	</g>
	<g>
		<path d="M4.309,14.616c0.252-0.032,0.421-0.138,0.507-0.316c0.048-0.099,0.073-0.239,0.073-0.423c0-0.376-0.133-0.648-0.399-0.818
			c-0.266-0.169-0.646-0.254-1.142-0.254c-0.572,0-0.979,0.155-1.218,0.466c-0.134,0.172-0.221,0.428-0.262,0.767H0.842
			c0.021-0.808,0.281-1.369,0.783-1.686s1.084-0.475,1.747-0.475c0.768,0,1.392,0.146,1.872,0.439
			c0.476,0.293,0.713,0.749,0.713,1.367v3.766c0,0.114,0.023,0.206,0.07,0.274c0.046,0.069,0.146,0.104,0.296,0.104
			c0.049,0,0.104-0.004,0.165-0.01c0.061-0.006,0.126-0.015,0.195-0.027v0.812c-0.171,0.049-0.301,0.079-0.391,0.092
			c-0.09,0.013-0.212,0.019-0.366,0.019c-0.379,0-0.653-0.135-0.824-0.403c-0.089-0.142-0.152-0.344-0.189-0.604
			c-0.224,0.293-0.545,0.547-0.964,0.763c-0.419,0.216-0.881,0.323-1.386,0.323c-0.606,0-1.102-0.184-1.486-0.552
			C0.693,17.872,0.5,17.412,0.5,16.859c0-0.605,0.189-1.074,0.568-1.407c0.378-0.334,0.875-0.539,1.489-0.616L4.309,14.616z
			 M1.996,17.584c0.231,0.183,0.506,0.274,0.824,0.274c0.387,0,0.761-0.09,1.123-0.269c0.61-0.296,0.916-0.782,0.916-1.456V15.25
			c-0.134,0.086-0.307,0.157-0.518,0.215c-0.211,0.057-0.418,0.098-0.622,0.122l-0.664,0.085c-0.398,0.053-0.697,0.137-0.897,0.25
			c-0.34,0.19-0.51,0.495-0.51,0.913C1.648,17.151,1.764,17.401,1.996,17.584z"/>
	</g>
	<g>
		<path d="M9.835,13.939h6.409v0.593H9.835V13.939z M9.835,16.217h6.409v0.604H9.835V16.217z"/>
	</g>
</g>
<g id="theGroup">
</g>
</svg>
