<?xml version="1.0" encoding="iso-8859-1"?>
<!-- Generator: Adobe Illustrator 16.0.0, SVG Export Plug-In . SVG Version: 6.00 Build 0)  -->
<!DOCTYPE svg PUBLIC "-//W3C//DTD SVG 1.1//EN" "http://www.w3.org/Graphics/SVG/1.1/DTD/svg11.dtd">
<svg version="1.1" id="Lager_1" xmlns="http://www.w3.org/2000/svg" xmlns:xlink="http://www.w3.org/1999/xlink" x="0px" y="0px"
	 width="128.842px" height="15.454px" viewBox="0 0 128.842 15.454" style="enable-background:new 0 0 128.842 15.454;"
	 xml:space="preserve">
<g>
	<g>
		<path d="M26.442,1.122v0.131c-0.311,0.03-0.564,0.092-0.76,0.185c-0.197,0.093-0.391,0.235-0.583,0.425
			c-0.191,0.19-0.351,0.403-0.476,0.637c-0.126,0.234-0.231,0.513-0.316,0.834c0.339-0.232,0.679-0.349,1.02-0.349
			c0.327,0,0.611,0.132,0.851,0.395c0.24,0.264,0.36,0.603,0.36,1.017c0,0.4-0.121,0.764-0.363,1.094
			c-0.292,0.4-0.678,0.6-1.158,0.6c-0.327,0-0.604-0.108-0.833-0.324c-0.447-0.421-0.67-0.967-0.67-1.638
			c0-0.428,0.086-0.835,0.257-1.221c0.172-0.386,0.417-0.728,0.736-1.027s0.624-0.5,0.916-0.604
			c0.292-0.104,0.563-0.155,0.815-0.155H26.442z M24.248,3.592c-0.042,0.317-0.063,0.574-0.063,0.769
			c0,0.226,0.042,0.471,0.125,0.736c0.083,0.265,0.208,0.475,0.372,0.63c0.12,0.111,0.266,0.166,0.438,0.166
			c0.205,0,0.388-0.097,0.549-0.29s0.242-0.468,0.242-0.826c0-0.402-0.08-0.75-0.24-1.044c-0.16-0.294-0.387-0.441-0.681-0.441
			c-0.09,0-0.186,0.019-0.288,0.056C24.599,3.387,24.447,3.468,24.248,3.592z"/>
	</g>
	<g>
		<path d="M0.635,4.919c0.236-0.558,0.534-0.988,0.894-1.291c0.36-0.303,0.809-0.455,1.346-0.455c0.663,0,1.172,0.216,1.525,0.647
			c0.269,0.321,0.403,0.666,0.403,1.032c0,0.602-0.379,1.225-1.136,1.867c0.509,0.2,0.894,0.484,1.154,0.854
			c0.26,0.371,0.391,0.806,0.391,1.307c0,0.716-0.228,1.336-0.684,1.861c-0.594,0.684-1.455,1.025-2.582,1.025
			c-0.558,0-0.937-0.069-1.139-0.207c-0.201-0.139-0.302-0.287-0.302-0.446c0-0.118,0.047-0.222,0.143-0.312
			c0.096-0.089,0.21-0.134,0.345-0.134c0.102,0,0.205,0.017,0.311,0.049c0.069,0.021,0.226,0.095,0.47,0.223
			s0.413,0.204,0.506,0.229c0.15,0.044,0.311,0.066,0.482,0.066c0.415,0,0.776-0.16,1.083-0.482
			c0.307-0.321,0.461-0.701,0.461-1.141c0-0.321-0.071-0.635-0.213-0.94c-0.106-0.228-0.222-0.4-0.348-0.519
			c-0.175-0.163-0.415-0.31-0.72-0.442S2.411,7.514,2.094,7.514H1.898V7.33C2.22,7.29,2.542,7.174,2.866,6.982
			C3.189,6.791,3.424,6.562,3.57,6.293s0.22-0.564,0.22-0.885c0-0.419-0.131-0.758-0.394-1.016C3.134,4.133,2.808,4.004,2.417,4.004
			c-0.631,0-1.158,0.338-1.581,1.013L0.635,4.919z"/>
		<path d="M11.965,4.156l2.014-0.982h0.202v6.988c0,0.464,0.019,0.753,0.058,0.867c0.039,0.113,0.119,0.201,0.241,0.262
			c0.122,0.062,0.37,0.096,0.745,0.104v0.226h-3.113v-0.226c0.391-0.009,0.643-0.042,0.757-0.101
			c0.114-0.06,0.193-0.139,0.238-0.238c0.044-0.1,0.067-0.397,0.067-0.895V5.694c0-0.602-0.021-0.988-0.061-1.159
			c-0.028-0.13-0.081-0.226-0.156-0.287s-0.166-0.092-0.271-0.092c-0.15,0-0.36,0.063-0.628,0.189L11.965,4.156z"/>
		<path d="M17.202,7.532c0-0.944,0.143-1.757,0.427-2.438c0.285-0.681,0.663-1.189,1.135-1.523c0.366-0.264,0.745-0.396,1.135-0.396
			c0.635,0,1.205,0.323,1.709,0.971c0.631,0.801,0.946,1.888,0.946,3.259c0,0.96-0.139,1.776-0.415,2.448
			c-0.277,0.671-0.63,1.158-1.059,1.461c-0.43,0.304-0.843,0.455-1.242,0.455c-0.79,0-1.447-0.466-1.971-1.397
			C17.423,9.585,17.202,8.639,17.202,7.532z M18.398,7.685c0,1.139,0.14,2.069,0.421,2.789c0.231,0.606,0.578,0.909,1.037,0.909
			c0.22,0,0.448-0.099,0.684-0.296c0.236-0.197,0.415-0.528,0.537-0.991c0.188-0.7,0.281-1.687,0.281-2.961
			c0-0.944-0.098-1.731-0.293-2.362c-0.146-0.468-0.336-0.799-0.568-0.995c-0.167-0.135-0.368-0.202-0.604-0.202
			c-0.277,0-0.523,0.124-0.739,0.373c-0.293,0.337-0.492,0.869-0.598,1.593S18.398,6.98,18.398,7.685z"/>
		<path d="M37.711,7.397c0.574,0.122,1.003,0.317,1.288,0.586c0.395,0.375,0.592,0.832,0.592,1.373c0,0.411-0.13,0.805-0.391,1.182
			c-0.26,0.376-0.618,0.65-1.071,0.823c-0.454,0.174-1.146,0.26-2.078,0.26h-3.906v-0.226h0.311c0.346,0,0.594-0.11,0.745-0.33
			c0.093-0.143,0.14-0.445,0.14-0.909V4.81c0-0.513-0.059-0.836-0.177-0.971C33.006,3.66,32.77,3.57,32.456,3.57h-0.311V3.345h3.577
			c0.667,0,1.202,0.049,1.605,0.146c0.61,0.146,1.076,0.406,1.397,0.778c0.321,0.372,0.482,0.8,0.482,1.285
			c0,0.415-0.126,0.787-0.379,1.114C38.576,6.996,38.204,7.239,37.711,7.397z M34.513,7.068c0.15,0.028,0.322,0.05,0.516,0.064
			c0.193,0.015,0.406,0.021,0.638,0.021c0.594,0,1.041-0.064,1.339-0.192c0.299-0.128,0.528-0.324,0.687-0.589
			c0.158-0.265,0.238-0.553,0.238-0.867c0-0.484-0.197-0.897-0.592-1.239c-0.395-0.342-0.97-0.513-1.727-0.513
			c-0.407,0-0.773,0.044-1.099,0.134V7.068z M34.513,11.023c0.472,0.109,0.938,0.164,1.398,0.164c0.736,0,1.298-0.165,1.685-0.497
			c0.386-0.332,0.58-0.741,0.58-1.229c0-0.322-0.087-0.631-0.262-0.928c-0.175-0.297-0.46-0.531-0.854-0.702
			c-0.395-0.171-0.883-0.257-1.465-0.257c-0.252,0-0.468,0.004-0.647,0.013c-0.179,0.008-0.323,0.022-0.433,0.042V11.023z"/>
		<path d="M44.605,8.136c-0.004,0.83,0.197,1.481,0.604,1.953c0.407,0.473,0.885,0.708,1.435,0.708c0.366,0,0.685-0.101,0.955-0.302
			s0.498-0.546,0.681-1.034l0.189,0.121c-0.086,0.558-0.334,1.065-0.745,1.523c-0.411,0.458-0.925,0.687-1.544,0.687
			c-0.671,0-1.246-0.262-1.724-0.784c-0.479-0.522-0.717-1.226-0.717-2.109c0-0.956,0.245-1.701,0.735-2.236
			s1.106-0.803,1.847-0.803c0.626,0,1.141,0.207,1.544,0.62s0.604,0.965,0.604,1.657H44.605z M44.605,7.782h2.588
			c-0.021-0.358-0.063-0.61-0.128-0.757c-0.102-0.228-0.253-0.407-0.455-0.537c-0.201-0.13-0.412-0.195-0.631-0.195
			c-0.338,0-0.64,0.131-0.907,0.394C44.806,6.949,44.65,7.314,44.605,7.782z"/>
		<path d="M51.062,2.942v7.416c0,0.351,0.025,0.582,0.076,0.696c0.051,0.113,0.129,0.2,0.235,0.259
			c0.106,0.06,0.303,0.089,0.592,0.089v0.22h-2.741v-0.22c0.256,0,0.431-0.026,0.525-0.079s0.167-0.141,0.22-0.263
			s0.079-0.356,0.079-0.702V5.279c0-0.63-0.014-1.018-0.042-1.163c-0.028-0.144-0.074-0.243-0.137-0.296
			c-0.063-0.053-0.144-0.08-0.241-0.08c-0.106,0-0.24,0.033-0.403,0.098L49.12,3.625l1.667-0.684H51.062z"/>
		<path d="M54.384,2.942v7.416c0,0.351,0.025,0.582,0.076,0.696c0.051,0.113,0.129,0.2,0.235,0.259
			c0.106,0.06,0.303,0.089,0.592,0.089v0.22h-2.741v-0.22c0.256,0,0.431-0.026,0.525-0.079s0.167-0.141,0.22-0.263
			s0.079-0.356,0.079-0.702V5.279c0-0.63-0.014-1.018-0.042-1.163c-0.028-0.144-0.074-0.243-0.137-0.296
			c-0.063-0.053-0.144-0.08-0.241-0.08c-0.106,0-0.24,0.033-0.403,0.098l-0.104-0.213l1.667-0.684H54.384z"/>
		<path d="M56.724,8.136c-0.004,0.83,0.197,1.481,0.604,1.953c0.407,0.473,0.885,0.708,1.435,0.708c0.366,0,0.685-0.101,0.955-0.302
			s0.498-0.546,0.681-1.034l0.189,0.121c-0.086,0.558-0.334,1.065-0.745,1.523c-0.411,0.458-0.925,0.687-1.544,0.687
			c-0.671,0-1.246-0.262-1.724-0.784c-0.479-0.522-0.717-1.226-0.717-2.109c0-0.956,0.245-1.701,0.735-2.236
			s1.106-0.803,1.847-0.803c0.626,0,1.141,0.207,1.544,0.62s0.604,0.965,0.604,1.657H56.724z M56.724,7.782h2.588
			c-0.021-0.358-0.063-0.61-0.128-0.757c-0.102-0.228-0.253-0.407-0.455-0.537c-0.201-0.13-0.412-0.195-0.631-0.195
			c-0.338,0-0.64,0.131-0.907,0.394C56.924,6.949,56.769,7.314,56.724,7.782z"/>
		<path d="M62.893,5.865v1.258c0.468-0.838,0.948-1.258,1.44-1.258c0.224,0,0.409,0.068,0.556,0.205
			c0.146,0.137,0.22,0.294,0.22,0.473c0,0.159-0.053,0.293-0.159,0.403c-0.105,0.11-0.231,0.165-0.378,0.165
			c-0.143,0-0.302-0.07-0.479-0.21c-0.177-0.14-0.308-0.21-0.394-0.21c-0.073,0-0.152,0.041-0.238,0.122
			c-0.183,0.167-0.372,0.441-0.567,0.824v2.679c0,0.31,0.039,0.544,0.116,0.702c0.053,0.11,0.146,0.202,0.28,0.274
			c0.135,0.074,0.328,0.11,0.58,0.11v0.22h-2.862v-0.22c0.285,0,0.496-0.045,0.635-0.134c0.102-0.065,0.173-0.169,0.213-0.312
			c0.021-0.069,0.031-0.267,0.031-0.593V8.197c0-0.651-0.014-1.039-0.04-1.163C61.82,6.91,61.771,6.82,61.7,6.763
			s-0.16-0.085-0.266-0.085c-0.126,0-0.269,0.031-0.427,0.091l-0.062-0.22l1.691-0.684H62.893z"/>
		<path d="M68.739,4.919c0.236-0.558,0.534-0.988,0.895-1.291c0.359-0.303,0.809-0.455,1.346-0.455c0.663,0,1.172,0.216,1.525,0.647
			c0.269,0.321,0.403,0.666,0.403,1.032c0,0.602-0.379,1.225-1.136,1.867c0.509,0.2,0.894,0.484,1.154,0.854
			c0.26,0.371,0.391,0.806,0.391,1.307c0,0.716-0.229,1.336-0.684,1.861c-0.595,0.684-1.455,1.025-2.582,1.025
			c-0.558,0-0.938-0.069-1.139-0.207c-0.201-0.139-0.302-0.287-0.302-0.446c0-0.118,0.048-0.222,0.144-0.312
			c0.095-0.089,0.21-0.134,0.345-0.134c0.102,0,0.205,0.017,0.312,0.049c0.068,0.021,0.226,0.095,0.47,0.223
			s0.413,0.204,0.507,0.229c0.15,0.044,0.311,0.066,0.481,0.066c0.415,0,0.776-0.16,1.084-0.482c0.307-0.321,0.46-0.701,0.46-1.141
			c0-0.321-0.07-0.635-0.213-0.94c-0.106-0.228-0.222-0.4-0.348-0.519c-0.176-0.163-0.416-0.31-0.721-0.442
			s-0.616-0.198-0.934-0.198h-0.195V7.33c0.321-0.041,0.644-0.156,0.967-0.348c0.324-0.191,0.559-0.421,0.705-0.689
			s0.22-0.564,0.22-0.885c0-0.419-0.131-0.758-0.394-1.016s-0.589-0.388-0.979-0.388c-0.631,0-1.157,0.338-1.581,1.013L68.739,4.919
			z"/>
		<path d="M77.181,7.532c0-0.944,0.143-1.757,0.428-2.438c0.285-0.681,0.663-1.189,1.135-1.523c0.367-0.264,0.745-0.396,1.136-0.396
			c0.635,0,1.204,0.323,1.709,0.971c0.631,0.801,0.946,1.888,0.946,3.259c0,0.96-0.139,1.776-0.415,2.448
			c-0.277,0.671-0.63,1.158-1.06,1.461c-0.429,0.304-0.843,0.455-1.242,0.455c-0.789,0-1.446-0.466-1.971-1.397
			C77.403,9.585,77.181,8.639,77.181,7.532z M78.378,7.685c0,1.139,0.14,2.069,0.421,2.789c0.231,0.606,0.577,0.909,1.037,0.909
			c0.22,0,0.448-0.099,0.684-0.296c0.236-0.197,0.415-0.528,0.537-0.991c0.188-0.7,0.281-1.687,0.281-2.961
			c0-0.944-0.098-1.731-0.293-2.362c-0.146-0.468-0.336-0.799-0.567-0.995c-0.167-0.135-0.369-0.202-0.604-0.202
			c-0.277,0-0.523,0.124-0.739,0.373c-0.293,0.337-0.492,0.869-0.598,1.593S78.378,6.98,78.378,7.685z"/>
		<path d="M83.431,7.532c0-0.944,0.143-1.757,0.428-2.438c0.285-0.681,0.663-1.189,1.135-1.523c0.367-0.264,0.745-0.396,1.136-0.396
			c0.635,0,1.204,0.323,1.709,0.971c0.631,0.801,0.946,1.888,0.946,3.259c0,0.96-0.139,1.776-0.415,2.448
			c-0.277,0.671-0.63,1.158-1.06,1.461c-0.429,0.304-0.843,0.455-1.242,0.455c-0.789,0-1.446-0.466-1.971-1.397
			C83.653,9.585,83.431,8.639,83.431,7.532z M84.628,7.685c0,1.139,0.14,2.069,0.421,2.789c0.231,0.606,0.577,0.909,1.037,0.909
			c0.22,0,0.448-0.099,0.684-0.296c0.236-0.197,0.415-0.528,0.537-0.991c0.188-0.7,0.281-1.687,0.281-2.961
			c0-0.944-0.098-1.731-0.293-2.362c-0.146-0.468-0.336-0.799-0.567-0.995c-0.167-0.135-0.369-0.202-0.604-0.202
			c-0.277,0-0.523,0.124-0.739,0.373c-0.293,0.337-0.492,0.869-0.598,1.593S84.628,6.98,84.628,7.685z"/>
		<path d="M89.681,7.532c0-0.944,0.143-1.757,0.428-2.438c0.285-0.681,0.663-1.189,1.135-1.523c0.367-0.264,0.745-0.396,1.136-0.396
			c0.635,0,1.204,0.323,1.709,0.971c0.631,0.801,0.946,1.888,0.946,3.259c0,0.96-0.139,1.776-0.415,2.448
			c-0.277,0.671-0.63,1.158-1.06,1.461c-0.429,0.304-0.843,0.455-1.242,0.455c-0.789,0-1.446-0.466-1.971-1.397
			C89.903,9.585,89.681,8.639,89.681,7.532z M90.878,7.685c0,1.139,0.14,2.069,0.421,2.789c0.231,0.606,0.577,0.909,1.037,0.909
			c0.22,0,0.448-0.099,0.684-0.296c0.236-0.197,0.415-0.528,0.537-0.991c0.188-0.7,0.281-1.687,0.281-2.961
			c0-0.944-0.098-1.731-0.293-2.362c-0.146-0.468-0.336-0.799-0.567-0.995c-0.167-0.135-0.369-0.202-0.604-0.202
			c-0.277,0-0.523,0.124-0.739,0.373c-0.293,0.337-0.492,0.869-0.598,1.593S90.878,6.98,90.878,7.685z"/>
		<path d="M98.693,7.532c0-0.944,0.143-1.757,0.428-2.438c0.285-0.681,0.663-1.189,1.135-1.523c0.367-0.264,0.745-0.396,1.136-0.396
			c0.635,0,1.204,0.323,1.709,0.971c0.631,0.801,0.946,1.888,0.946,3.259c0,0.96-0.139,1.776-0.415,2.448
			c-0.277,0.671-0.63,1.158-1.06,1.461c-0.429,0.304-0.843,0.455-1.242,0.455c-0.789,0-1.446-0.466-1.971-1.397
			C98.916,9.585,98.693,8.639,98.693,7.532z M99.891,7.685c0,1.139,0.14,2.069,0.421,2.789c0.231,0.606,0.577,0.909,1.037,0.909
			c0.22,0,0.448-0.099,0.684-0.296c0.236-0.197,0.415-0.528,0.537-0.991c0.188-0.7,0.281-1.687,0.281-2.961
			c0-0.944-0.098-1.731-0.293-2.362c-0.146-0.468-0.336-0.799-0.567-0.995c-0.167-0.135-0.369-0.202-0.604-0.202
			c-0.277,0-0.523,0.124-0.739,0.373c-0.293,0.337-0.492,0.869-0.598,1.593S99.891,6.98,99.891,7.685z"/>
		<path d="M104.943,7.532c0-0.944,0.143-1.757,0.428-2.438c0.285-0.681,0.663-1.189,1.135-1.523
			c0.367-0.264,0.745-0.396,1.136-0.396c0.635,0,1.204,0.323,1.709,0.971c0.631,0.801,0.946,1.888,0.946,3.259
			c0,0.96-0.139,1.776-0.415,2.448c-0.277,0.671-0.63,1.158-1.06,1.461c-0.429,0.304-0.843,0.455-1.242,0.455
			c-0.789,0-1.446-0.466-1.971-1.397C105.166,9.585,104.943,8.639,104.943,7.532z M106.141,7.685c0,1.139,0.14,2.069,0.421,2.789
			c0.231,0.606,0.577,0.909,1.037,0.909c0.22,0,0.448-0.099,0.684-0.296c0.236-0.197,0.415-0.528,0.537-0.991
			c0.188-0.7,0.281-1.687,0.281-2.961c0-0.944-0.098-1.731-0.293-2.362c-0.146-0.468-0.336-0.799-0.567-0.995
			c-0.167-0.135-0.369-0.202-0.604-0.202c-0.277,0-0.523,0.124-0.739,0.373c-0.293,0.337-0.492,0.869-0.598,1.593
			S106.141,6.98,106.141,7.685z"/>
		<path d="M111.193,7.532c0-0.944,0.143-1.757,0.428-2.438c0.285-0.681,0.663-1.189,1.135-1.523
			c0.367-0.264,0.745-0.396,1.136-0.396c0.635,0,1.204,0.323,1.709,0.971c0.631,0.801,0.946,1.888,0.946,3.259
			c0,0.96-0.139,1.776-0.415,2.448c-0.277,0.671-0.63,1.158-1.06,1.461c-0.429,0.304-0.843,0.455-1.242,0.455
			c-0.789,0-1.446-0.466-1.971-1.397C111.416,9.585,111.193,8.639,111.193,7.532z M112.391,7.685c0,1.139,0.14,2.069,0.421,2.789
			c0.231,0.606,0.577,0.909,1.037,0.909c0.22,0,0.448-0.099,0.684-0.296c0.236-0.197,0.415-0.528,0.537-0.991
			c0.188-0.7,0.281-1.687,0.281-2.961c0-0.944-0.098-1.731-0.293-2.362c-0.146-0.468-0.336-0.799-0.567-0.995
			c-0.167-0.135-0.369-0.202-0.604-0.202c-0.277,0-0.523,0.124-0.739,0.373c-0.293,0.337-0.492,0.869-0.598,1.593
			S112.391,6.98,112.391,7.685z"/>
		<path d="M126.278,7.397c0.574,0.122,1.004,0.317,1.288,0.586c0.395,0.375,0.593,0.832,0.593,1.373
			c0,0.411-0.131,0.805-0.391,1.182c-0.261,0.376-0.618,0.65-1.071,0.823c-0.454,0.174-1.146,0.26-2.079,0.26h-3.906v-0.226h0.312
			c0.346,0,0.595-0.11,0.745-0.33c0.094-0.143,0.141-0.445,0.141-0.909V4.81c0-0.513-0.06-0.836-0.178-0.971
			c-0.158-0.179-0.395-0.269-0.708-0.269h-0.312V3.345h3.577c0.667,0,1.202,0.049,1.605,0.146c0.61,0.146,1.076,0.406,1.397,0.778
			c0.321,0.372,0.482,0.8,0.482,1.285c0,0.415-0.126,0.787-0.379,1.114C127.144,6.996,126.771,7.239,126.278,7.397z M123.081,7.068
			c0.15,0.028,0.322,0.05,0.516,0.064c0.192,0.015,0.405,0.021,0.638,0.021c0.594,0,1.04-0.064,1.34-0.192
			c0.299-0.128,0.527-0.324,0.687-0.589c0.158-0.265,0.238-0.553,0.238-0.867c0-0.484-0.198-0.897-0.593-1.239
			s-0.97-0.513-1.728-0.513c-0.406,0-0.772,0.044-1.098,0.134V7.068z M123.081,11.023c0.472,0.109,0.938,0.164,1.397,0.164
			c0.736,0,1.298-0.165,1.685-0.497s0.58-0.741,0.58-1.229c0-0.322-0.088-0.631-0.263-0.928c-0.175-0.297-0.46-0.531-0.854-0.702
			s-0.883-0.257-1.465-0.257c-0.253,0-0.468,0.004-0.647,0.013c-0.179,0.008-0.323,0.022-0.433,0.042V11.023z"/>
	</g>
	<g>
		<path d="M9.343,8.423c0,0.188-0.066,0.347-0.198,0.479c-0.132,0.132-0.29,0.198-0.473,0.198c-0.187,0-0.347-0.066-0.479-0.198
			C8.061,8.77,7.994,8.61,7.994,8.423c0-0.187,0.066-0.347,0.199-0.479c0.132-0.132,0.292-0.199,0.479-0.199
			c0.183,0,0.341,0.066,0.473,0.199C9.277,8.076,9.343,8.236,9.343,8.423z"/>
	</g>
</g>
<g id="theGroup">
</g>
</svg>
