<?xml version="1.0" encoding="iso-8859-1"?>
<!-- Generator: Adobe Illustrator 16.0.0, SVG Export Plug-In . SVG Version: 6.00 Build 0)  -->
<!DOCTYPE svg PUBLIC "-//W3C//DTD SVG 1.1//EN" "http://www.w3.org/Graphics/SVG/1.1/DTD/svg11.dtd">
<svg version="1.1" id="Lager_1" xmlns="http://www.w3.org/2000/svg" xmlns:xlink="http://www.w3.org/1999/xlink" x="0px" y="0px"
	 width="7.922px" height="32.044px" viewBox="0 0 7.922 32.044" style="enable-background:new 0 0 7.922 32.044;"
	 xml:space="preserve">
<g>
	
		<line style="fill:none;stroke:#000000;stroke-width:0.5;stroke-linecap:square;stroke-miterlimit:10;" x1="0.25" y1="15.242" x2="7.672" y2="15.242"/>
	<g>
		<path d="M6.753,8.796l-0.58,1.593H1.29v-0.226c1.437-1.311,2.447-2.381,3.033-3.211s0.879-1.589,0.879-2.276
			c0-0.525-0.16-0.956-0.482-1.294C4.399,3.044,4.014,2.875,3.566,2.875c-0.407,0-0.772,0.119-1.095,0.357
			C2.147,3.47,1.909,3.819,1.754,4.279H1.528C1.63,3.526,1.891,2.948,2.312,2.546C2.733,2.143,3.259,1.941,3.89,1.941
			c0.671,0,1.232,0.216,1.681,0.646c0.45,0.432,0.675,0.94,0.675,1.526c0,0.419-0.098,0.838-0.293,1.257
			C5.652,6.03,5.164,6.729,4.488,7.465C3.475,8.571,2.842,9.239,2.59,9.467h2.161c0.439,0,0.747-0.017,0.925-0.049
			C5.853,9.386,6.012,9.319,6.154,9.22s0.267-0.241,0.373-0.424H6.753z"/>
	</g>
	<g>
		<path d="M6.547,19.764v0.226c-0.537,0.053-0.977,0.16-1.315,0.32c-0.341,0.161-0.676,0.406-1.007,0.735
			c-0.332,0.33-0.606,0.697-0.824,1.103c-0.218,0.404-0.4,0.886-0.546,1.443c0.586-0.403,1.174-0.604,1.764-0.604
			c0.566,0,1.056,0.228,1.471,0.684s0.622,1.042,0.622,1.758c0,0.691-0.209,1.322-0.629,1.893c-0.504,0.691-1.172,1.037-2.001,1.037
			c-0.565,0-1.046-0.188-1.44-0.562c-0.773-0.729-1.16-1.673-1.16-2.832c0-0.74,0.148-1.444,0.445-2.112
			c0.297-0.667,0.721-1.259,1.273-1.775c0.551-0.517,1.079-0.865,1.583-1.044c0.505-0.179,0.975-0.269,1.41-0.269H6.547z
			 M2.75,24.036c-0.073,0.55-0.11,0.993-0.11,1.331c0,0.391,0.072,0.814,0.217,1.272c0.144,0.457,0.359,0.82,0.644,1.089
			c0.207,0.191,0.459,0.287,0.757,0.287c0.354,0,0.67-0.167,0.949-0.5c0.278-0.334,0.418-0.811,0.418-1.429
			c0-0.696-0.139-1.298-0.415-1.807s-0.669-0.763-1.178-0.763c-0.155,0-0.32,0.032-0.498,0.098C3.357,23.68,3.096,23.82,2.75,24.036
			z"/>
	</g>
</g>
<g id="theGroup">
</g>
</svg>
