<?xml version="1.0" encoding="iso-8859-1"?>
<!-- Generator: Adobe Illustrator 16.0.0, SVG Export Plug-In . SVG Version: 6.00 Build 0)  -->
<!DOCTYPE svg PUBLIC "-//W3C//DTD SVG 1.1//EN" "http://www.w3.org/Graphics/SVG/1.1/DTD/svg11.dtd">
<svg version="1.1" id="Lager_1" xmlns="http://www.w3.org/2000/svg" xmlns:xlink="http://www.w3.org/1999/xlink" x="0px" y="0px"
	 width="137.642px" height="32.014px" viewBox="0 0 137.642 32.014" style="enable-background:new 0 0 137.642 32.014;"
	 xml:space="preserve">
<g>
	
		<line style="fill:none;stroke:#0066FF;stroke-width:0.5;stroke-linecap:square;stroke-miterlimit:10;" x1="45.391" y1="15.232" x2="71.993" y2="15.232"/>
	<g>
		<path style="fill:#0066FF;" d="M53.18,6.219c-0.655-0.537-1.077-0.968-1.266-1.294C51.724,4.6,51.63,4.262,51.63,3.913
			c0-0.537,0.207-1,0.622-1.389s0.967-0.583,1.654-0.583c0.667,0,1.205,0.181,1.611,0.543c0.407,0.362,0.61,0.775,0.61,1.239
			c0,0.309-0.11,0.625-0.33,0.946c-0.22,0.321-0.677,0.7-1.374,1.135c0.716,0.554,1.19,0.989,1.422,1.307
			c0.309,0.415,0.464,0.852,0.464,1.312c0,0.582-0.222,1.08-0.666,1.492c-0.443,0.413-1.025,0.62-1.745,0.62
			c-0.786,0-1.398-0.246-1.837-0.738c-0.35-0.395-0.525-0.826-0.525-1.294c0-0.366,0.123-0.729,0.369-1.09
			C52.153,7.053,52.578,6.655,53.18,6.219z M53.467,6.452c-0.338,0.285-0.588,0.595-0.751,0.931
			c-0.163,0.335-0.244,0.699-0.244,1.089c0,0.525,0.144,0.945,0.431,1.26c0.287,0.315,0.652,0.473,1.096,0.473
			c0.439,0,0.791-0.124,1.056-0.373c0.265-0.248,0.396-0.549,0.396-0.903c0-0.293-0.077-0.555-0.231-0.787
			C54.93,7.711,54.346,7.147,53.467,6.452z M54.138,5.566c0.488-0.439,0.797-0.786,0.928-1.041s0.195-0.542,0.195-0.864
			c0-0.427-0.12-0.762-0.36-1.004c-0.24-0.242-0.568-0.363-0.983-0.363s-0.753,0.12-1.013,0.36c-0.26,0.24-0.391,0.521-0.391,0.843
			c0,0.211,0.054,0.423,0.162,0.635c0.108,0.211,0.262,0.413,0.461,0.604L54.138,5.566z"/>
		<path style="fill:#0066FF;" d="M57.703,12.469v-0.269c0.419-0.138,0.744-0.353,0.974-0.644c0.229-0.291,0.345-0.599,0.345-0.925
			c0-0.077-0.018-0.143-0.055-0.195c-0.028-0.037-0.057-0.055-0.085-0.055c-0.045,0-0.143,0.041-0.293,0.122
			c-0.073,0.036-0.151,0.055-0.232,0.055c-0.199,0-0.358-0.059-0.476-0.177c-0.118-0.118-0.177-0.281-0.177-0.488
			c0-0.2,0.076-0.371,0.229-0.513c0.152-0.143,0.339-0.214,0.559-0.214c0.269,0,0.507,0.117,0.717,0.351s0.314,0.544,0.314,0.931
			c0,0.419-0.146,0.809-0.437,1.169C58.794,11.978,58.333,12.262,57.703,12.469z"/>
		<path style="fill:#0066FF;" d="M65.973,7.336v0.867h-1.11v2.185h-1.007V8.203h-3.503V7.422l3.839-5.481h0.672v5.396H65.973z
			 M63.855,7.336V3.229L60.95,7.336H63.855z"/>
	</g>
	<g>
		<path style="fill:#0066FF;" d="M2.398,14.383c-0.655-0.537-1.077-0.968-1.266-1.294c-0.189-0.325-0.284-0.663-0.284-1.013
			c0-0.537,0.207-1,0.622-1.389s0.967-0.583,1.654-0.583c0.667,0,1.205,0.181,1.611,0.543c0.407,0.362,0.61,0.775,0.61,1.239
			c0,0.309-0.11,0.625-0.33,0.946c-0.22,0.321-0.677,0.7-1.374,1.135c0.716,0.554,1.19,0.989,1.422,1.307
			c0.309,0.415,0.464,0.852,0.464,1.312c0,0.581-0.222,1.079-0.666,1.492c-0.443,0.413-1.025,0.619-1.745,0.619
			c-0.786,0-1.398-0.246-1.837-0.738c-0.35-0.395-0.525-0.826-0.525-1.294c0-0.366,0.123-0.729,0.369-1.09
			C1.372,15.217,1.796,14.819,2.398,14.383z M2.686,14.616C2.348,14.9,2.098,15.21,1.935,15.546
			c-0.163,0.335-0.244,0.698-0.244,1.09c0,0.524,0.144,0.944,0.431,1.26c0.287,0.315,0.652,0.473,1.096,0.473
			c0.439,0,0.791-0.124,1.056-0.372s0.396-0.549,0.396-0.903c0-0.293-0.077-0.556-0.231-0.787
			C4.148,15.875,3.564,15.311,2.686,14.616z M3.357,13.73c0.488-0.439,0.797-0.786,0.928-1.041s0.195-0.542,0.195-0.864
			c0-0.427-0.12-0.762-0.36-1.004c-0.24-0.242-0.568-0.363-0.983-0.363s-0.753,0.12-1.013,0.36c-0.26,0.24-0.391,0.521-0.391,0.843
			c0,0.211,0.054,0.423,0.162,0.635c0.108,0.211,0.262,0.413,0.461,0.604L3.357,13.73z"/>
		<path style="fill:#0066FF;" d="M6.921,20.633v-0.269c0.419-0.138,0.744-0.353,0.974-0.644c0.229-0.291,0.345-0.6,0.345-0.925
			c0-0.077-0.018-0.143-0.055-0.195c-0.028-0.037-0.057-0.055-0.085-0.055c-0.045,0-0.143,0.04-0.293,0.122
			c-0.073,0.036-0.151,0.055-0.232,0.055c-0.199,0-0.358-0.059-0.476-0.177c-0.118-0.118-0.177-0.281-0.177-0.488
			c0-0.199,0.076-0.37,0.229-0.513c0.152-0.143,0.339-0.214,0.559-0.214c0.269,0,0.507,0.117,0.717,0.351
			c0.209,0.234,0.314,0.545,0.314,0.931c0,0.42-0.146,0.81-0.437,1.169C8.013,20.142,7.552,20.426,6.921,20.633z"/>
		<path style="fill:#0066FF;" d="M15.191,15.5v0.867h-1.11v2.185h-1.007v-2.185H9.57v-0.782l3.839-5.481h0.672V15.5H15.191z
			 M13.074,15.5v-4.107L10.168,15.5H13.074z"/>
		<path style="fill:#0066FF;" d="M20.801,13.987c0.407-0.407,0.647-0.641,0.72-0.702c0.183-0.154,0.38-0.274,0.592-0.36
			c0.211-0.085,0.421-0.128,0.628-0.128c0.35,0,0.651,0.102,0.903,0.306c0.252,0.203,0.421,0.498,0.506,0.885
			c0.419-0.488,0.773-0.809,1.062-0.961c0.289-0.152,0.586-0.229,0.891-0.229c0.297,0,0.561,0.077,0.791,0.229
			c0.23,0.153,0.412,0.402,0.546,0.748c0.089,0.236,0.134,0.606,0.134,1.111v2.404c0,0.351,0.026,0.59,0.08,0.721
			c0.041,0.089,0.116,0.166,0.226,0.229c0.11,0.063,0.289,0.095,0.537,0.095v0.22h-2.759v-0.22h0.116
			c0.24,0,0.427-0.047,0.562-0.141c0.093-0.064,0.161-0.169,0.201-0.312c0.016-0.068,0.024-0.266,0.024-0.592v-2.404
			c0-0.456-0.055-0.777-0.165-0.965c-0.158-0.26-0.413-0.391-0.763-0.391c-0.216,0-0.433,0.054-0.65,0.162
			c-0.218,0.108-0.481,0.308-0.791,0.601l-0.012,0.067l0.012,0.263v2.667c0,0.383,0.021,0.621,0.064,0.715
			c0.043,0.093,0.123,0.172,0.241,0.234c0.118,0.063,0.319,0.095,0.604,0.095v0.22h-2.826v-0.22c0.309,0,0.522-0.036,0.638-0.11
			c0.116-0.072,0.196-0.183,0.241-0.329c0.021-0.069,0.031-0.271,0.031-0.604v-2.404c0-0.456-0.067-0.784-0.202-0.983
			c-0.179-0.26-0.429-0.391-0.75-0.391c-0.22,0-0.438,0.059-0.653,0.177c-0.338,0.179-0.598,0.38-0.781,0.604v2.997
			c0,0.366,0.025,0.604,0.076,0.715c0.051,0.109,0.126,0.191,0.226,0.247c0.1,0.055,0.302,0.082,0.607,0.082v0.22h-2.765v-0.22
			c0.256,0,0.436-0.027,0.537-0.082c0.102-0.056,0.179-0.143,0.232-0.263s0.08-0.354,0.08-0.699v-2.136
			c0-0.615-0.019-1.011-0.055-1.19c-0.028-0.134-0.073-0.227-0.134-0.278c-0.061-0.051-0.145-0.076-0.25-0.076
			c-0.114,0-0.25,0.031-0.409,0.091l-0.092-0.22l1.685-0.684h0.263V13.987z"/>
		<path style="fill:#0066FF;" d="M30.636,9.873v7.416c0,0.351,0.025,0.582,0.076,0.696c0.051,0.113,0.129,0.2,0.235,0.259
			c0.106,0.06,0.303,0.089,0.592,0.089v0.22h-2.741v-0.22c0.256,0,0.431-0.026,0.525-0.079s0.167-0.141,0.22-0.263
			s0.079-0.356,0.079-0.702V12.21c0-0.63-0.014-1.018-0.042-1.163c-0.028-0.144-0.074-0.243-0.137-0.296
			c-0.063-0.053-0.144-0.08-0.241-0.08c-0.106,0-0.24,0.033-0.403,0.098l-0.104-0.213l1.667-0.684H30.636z"/>
		<path style="fill:#0066FF;" d="M79.771,9.873v7.416c0,0.351,0.025,0.582,0.076,0.696c0.051,0.113,0.129,0.2,0.235,0.259
			c0.105,0.06,0.303,0.089,0.592,0.089v0.22h-2.74v-0.22c0.256,0,0.431-0.026,0.524-0.079s0.167-0.141,0.22-0.263
			s0.079-0.356,0.079-0.702V12.21c0-0.63-0.014-1.018-0.042-1.163c-0.029-0.144-0.075-0.243-0.138-0.296
			c-0.063-0.053-0.144-0.08-0.241-0.08c-0.105,0-0.24,0.033-0.402,0.098l-0.104-0.213l1.667-0.684H79.771z"/>
		<path style="fill:#0066FF;" d="M94.582,14.463c0-0.944,0.143-1.757,0.428-2.438c0.285-0.681,0.663-1.189,1.135-1.523
			c0.367-0.264,0.745-0.396,1.136-0.396c0.635,0,1.204,0.323,1.709,0.971c0.631,0.801,0.946,1.888,0.946,3.259
			c0,0.96-0.139,1.776-0.415,2.448c-0.277,0.671-0.63,1.158-1.06,1.461c-0.429,0.304-0.843,0.455-1.242,0.455
			c-0.789,0-1.446-0.466-1.971-1.397C94.805,16.516,94.582,15.57,94.582,14.463z M95.779,14.616c0,1.139,0.14,2.069,0.421,2.789
			c0.231,0.606,0.577,0.909,1.037,0.909c0.22,0,0.448-0.099,0.684-0.296c0.236-0.197,0.415-0.528,0.537-0.991
			c0.188-0.7,0.281-1.687,0.281-2.961c0-0.944-0.098-1.731-0.293-2.362c-0.146-0.468-0.336-0.799-0.567-0.995
			c-0.167-0.135-0.369-0.202-0.604-0.202c-0.277,0-0.523,0.124-0.739,0.373c-0.293,0.337-0.492,0.869-0.598,1.593
			S95.779,13.912,95.779,14.616z"/>
		<path style="fill:#0066FF;" d="M100.865,20.633v-0.269c0.419-0.138,0.743-0.353,0.973-0.644c0.23-0.291,0.346-0.6,0.346-0.925
			c0-0.077-0.019-0.143-0.056-0.195c-0.028-0.037-0.057-0.055-0.085-0.055c-0.045,0-0.143,0.04-0.293,0.122
			c-0.073,0.036-0.15,0.055-0.232,0.055c-0.199,0-0.357-0.059-0.476-0.177s-0.177-0.281-0.177-0.488c0-0.199,0.076-0.37,0.229-0.513
			s0.339-0.214,0.559-0.214c0.269,0,0.507,0.117,0.717,0.351c0.21,0.234,0.314,0.545,0.314,0.931c0,0.42-0.146,0.81-0.437,1.169
			C101.956,20.142,101.495,20.426,100.865,20.633z"/>
		<path style="fill:#0066FF;" d="M105.133,14.463c0-0.944,0.143-1.757,0.428-2.438c0.285-0.681,0.663-1.189,1.135-1.523
			c0.367-0.264,0.745-0.396,1.136-0.396c0.635,0,1.204,0.323,1.709,0.971c0.631,0.801,0.946,1.888,0.946,3.259
			c0,0.96-0.139,1.776-0.415,2.448c-0.277,0.671-0.63,1.158-1.06,1.461c-0.429,0.304-0.843,0.455-1.242,0.455
			c-0.789,0-1.446-0.466-1.971-1.397C105.355,16.516,105.133,15.57,105.133,14.463z M106.33,14.616c0,1.139,0.14,2.069,0.421,2.789
			c0.231,0.606,0.577,0.909,1.037,0.909c0.22,0,0.448-0.099,0.684-0.296c0.236-0.197,0.415-0.528,0.537-0.991
			c0.188-0.7,0.281-1.687,0.281-2.961c0-0.944-0.098-1.731-0.293-2.362c-0.146-0.468-0.336-0.799-0.567-0.995
			c-0.167-0.135-0.369-0.202-0.604-0.202c-0.277,0-0.523,0.124-0.739,0.373c-0.293,0.337-0.492,0.869-0.598,1.593
			S106.33,13.912,106.33,14.616z"/>
		<path style="fill:#0066FF;" d="M111.383,14.463c0-0.944,0.143-1.757,0.428-2.438c0.285-0.681,0.663-1.189,1.135-1.523
			c0.367-0.264,0.745-0.396,1.136-0.396c0.635,0,1.204,0.323,1.709,0.971c0.631,0.801,0.946,1.888,0.946,3.259
			c0,0.96-0.139,1.776-0.415,2.448c-0.277,0.671-0.63,1.158-1.06,1.461c-0.429,0.304-0.843,0.455-1.242,0.455
			c-0.789,0-1.446-0.466-1.971-1.397C111.605,16.516,111.383,15.57,111.383,14.463z M112.58,14.616c0,1.139,0.14,2.069,0.421,2.789
			c0.231,0.606,0.577,0.909,1.037,0.909c0.22,0,0.448-0.099,0.684-0.296c0.236-0.197,0.415-0.528,0.537-0.991
			c0.188-0.7,0.281-1.687,0.281-2.961c0-0.944-0.098-1.731-0.293-2.362c-0.146-0.468-0.336-0.799-0.567-0.995
			c-0.167-0.135-0.369-0.202-0.604-0.202c-0.277,0-0.523,0.124-0.739,0.373c-0.293,0.337-0.492,0.869-0.598,1.593
			S112.58,13.912,112.58,14.616z"/>
		<path style="fill:#0066FF;" d="M119.58,14.383c-0.655-0.537-1.077-0.968-1.267-1.294c-0.188-0.325-0.283-0.663-0.283-1.013
			c0-0.537,0.207-1,0.622-1.389s0.967-0.583,1.654-0.583c0.667,0,1.204,0.181,1.611,0.543c0.407,0.362,0.61,0.775,0.61,1.239
			c0,0.309-0.11,0.625-0.329,0.946c-0.221,0.321-0.678,0.7-1.374,1.135c0.717,0.554,1.19,0.989,1.423,1.307
			c0.309,0.415,0.463,0.852,0.463,1.312c0,0.581-0.222,1.079-0.665,1.492s-1.025,0.619-1.745,0.619
			c-0.785,0-1.398-0.246-1.838-0.738c-0.35-0.395-0.524-0.826-0.524-1.294c0-0.366,0.123-0.729,0.369-1.09
			C118.554,15.217,118.979,14.819,119.58,14.383z M119.867,14.616c-0.338,0.285-0.588,0.595-0.751,0.931
			c-0.162,0.335-0.244,0.698-0.244,1.09c0,0.524,0.144,0.944,0.431,1.26s0.652,0.473,1.096,0.473c0.439,0,0.791-0.124,1.056-0.372
			s0.396-0.549,0.396-0.903c0-0.293-0.077-0.556-0.231-0.787C121.33,15.875,120.746,15.311,119.867,14.616z M120.539,13.73
			c0.488-0.439,0.797-0.786,0.928-1.041c0.13-0.254,0.195-0.542,0.195-0.864c0-0.427-0.12-0.762-0.36-1.004
			s-0.567-0.363-0.983-0.363c-0.414,0-0.752,0.12-1.013,0.36c-0.261,0.24-0.391,0.521-0.391,0.843c0,0.211,0.054,0.423,0.162,0.635
			c0.107,0.211,0.261,0.413,0.46,0.604L120.539,13.73z"/>
		<path style="fill:#0066FF;" d="M130.61,15.5v0.867h-1.11v2.185h-1.007v-2.185h-3.504v-0.782l3.839-5.481h0.672V15.5H130.61z
			 M128.493,15.5v-4.107l-2.906,4.107H128.493z"/>
		<path style="fill:#0066FF;" d="M136.482,9.873v7.416c0,0.351,0.025,0.582,0.076,0.696c0.051,0.113,0.129,0.2,0.235,0.259
			c0.105,0.06,0.303,0.089,0.592,0.089v0.22h-2.74v-0.22c0.256,0,0.431-0.026,0.524-0.079s0.167-0.141,0.22-0.263
			s0.079-0.356,0.079-0.702V12.21c0-0.63-0.014-1.018-0.042-1.163c-0.029-0.144-0.075-0.243-0.138-0.296
			c-0.063-0.053-0.144-0.08-0.241-0.08c-0.105,0-0.24,0.033-0.402,0.098l-0.104-0.213l1.667-0.684H136.482z"/>
	</g>
	<g>
		<path style="fill:#0066FF;" d="M46.27,20.716l2.014-0.982h0.202v6.988c0,0.464,0.019,0.753,0.058,0.867
			c0.039,0.113,0.119,0.201,0.241,0.262c0.122,0.062,0.37,0.096,0.745,0.104v0.226h-3.113v-0.226
			c0.391-0.009,0.643-0.042,0.757-0.101c0.114-0.06,0.193-0.139,0.238-0.238c0.044-0.1,0.067-0.397,0.067-0.895v-4.468
			c0-0.602-0.021-0.988-0.061-1.159c-0.028-0.131-0.081-0.227-0.156-0.287s-0.166-0.092-0.271-0.092c-0.15,0-0.36,0.063-0.628,0.189
			L46.27,20.716z"/>
		<path style="fill:#0066FF;" d="M53.294,24.091c0-0.943,0.143-1.756,0.427-2.438s0.663-1.189,1.135-1.523
			c0.366-0.265,0.745-0.396,1.135-0.396c0.635,0,1.205,0.323,1.709,0.971c0.631,0.802,0.946,1.888,0.946,3.259
			c0,0.961-0.139,1.776-0.415,2.448c-0.277,0.671-0.63,1.158-1.059,1.461c-0.43,0.304-0.843,0.455-1.242,0.455
			c-0.79,0-1.447-0.466-1.971-1.397C53.516,26.145,53.294,25.199,53.294,24.091z M54.49,24.245c0,1.139,0.14,2.069,0.421,2.789
			c0.231,0.606,0.578,0.909,1.037,0.909c0.22,0,0.448-0.099,0.684-0.296c0.236-0.197,0.415-0.528,0.537-0.991
			c0.188-0.7,0.281-1.688,0.281-2.961c0-0.943-0.098-1.731-0.293-2.361c-0.146-0.469-0.336-0.8-0.568-0.995
			c-0.167-0.135-0.368-0.202-0.604-0.202c-0.277,0-0.523,0.125-0.739,0.373c-0.293,0.338-0.492,0.868-0.598,1.593
			S54.49,23.541,54.49,24.245z"/>
		<path style="fill:#0066FF;" d="M59.544,24.091c0-0.943,0.143-1.756,0.427-2.438s0.663-1.189,1.135-1.523
			c0.366-0.265,0.745-0.396,1.135-0.396c0.635,0,1.205,0.323,1.709,0.971c0.631,0.802,0.946,1.888,0.946,3.259
			c0,0.961-0.139,1.776-0.415,2.448c-0.277,0.671-0.63,1.158-1.059,1.461c-0.43,0.304-0.843,0.455-1.242,0.455
			c-0.79,0-1.447-0.466-1.971-1.397C59.766,26.145,59.544,25.199,59.544,24.091z M60.74,24.245c0,1.139,0.14,2.069,0.421,2.789
			c0.231,0.606,0.578,0.909,1.037,0.909c0.22,0,0.448-0.099,0.684-0.296c0.236-0.197,0.415-0.528,0.537-0.991
			c0.188-0.7,0.281-1.688,0.281-2.961c0-0.943-0.098-1.731-0.293-2.361c-0.146-0.469-0.336-0.8-0.568-0.995
			c-0.167-0.135-0.368-0.202-0.604-0.202c-0.277,0-0.523,0.125-0.739,0.373c-0.293,0.338-0.492,0.868-0.598,1.593
			S60.74,23.541,60.74,24.245z"/>
		<path style="fill:#0066FF;" d="M65.794,24.091c0-0.943,0.143-1.756,0.427-2.438s0.663-1.189,1.135-1.523
			c0.366-0.265,0.745-0.396,1.135-0.396c0.634,0,1.205,0.323,1.708,0.971c0.631,0.802,0.947,1.888,0.947,3.259
			c0,0.961-0.139,1.776-0.416,2.448c-0.277,0.671-0.629,1.158-1.059,1.461c-0.43,0.304-0.844,0.455-1.242,0.455
			c-0.79,0-1.447-0.466-1.971-1.397C66.016,26.145,65.794,25.199,65.794,24.091z M66.99,24.245c0,1.139,0.14,2.069,0.421,2.789
			c0.231,0.606,0.578,0.909,1.037,0.909c0.22,0,0.448-0.099,0.683-0.296c0.236-0.197,0.416-0.528,0.537-0.991
			c0.188-0.7,0.281-1.688,0.281-2.961c0-0.943-0.098-1.731-0.293-2.361c-0.146-0.469-0.336-0.8-0.567-0.995
			c-0.167-0.135-0.368-0.202-0.604-0.202c-0.277,0-0.523,0.125-0.739,0.373c-0.293,0.338-0.492,0.868-0.598,1.593
			S66.99,23.541,66.99,24.245z"/>
	</g>
	<g>
		<path style="fill:#0066FF;" d="M35.03,13.919h6.409v0.592H35.03V13.919z M35.03,16.196h6.409V16.8H35.03V16.196z"/>
		<path style="fill:#0066FF;" d="M84.166,13.919h6.409v0.592h-6.409V13.919z M84.166,16.196h6.409V16.8h-6.409V16.196z"/>
	</g>
</g>
<g id="theGroup">
</g>
</svg>
