<?xml version="1.0" encoding="iso-8859-1"?>
<!-- Generator: Adobe Illustrator 16.0.0, SVG Export Plug-In . SVG Version: 6.00 Build 0)  -->
<!DOCTYPE svg PUBLIC "-//W3C//DTD SVG 1.1//EN" "http://www.w3.org/Graphics/SVG/1.1/DTD/svg11.dtd">
<svg version="1.1" id="Lager_1" xmlns="http://www.w3.org/2000/svg" xmlns:xlink="http://www.w3.org/1999/xlink" x="0px" y="0px"
	 width="85.212px" height="32.044px" viewBox="0 0 85.212 32.044" style="enable-background:new 0 0 85.212 32.044;"
	 xml:space="preserve">
<g>
	
		<line style="fill:none;stroke:#000000;stroke-width:0.5;stroke-linecap:square;stroke-miterlimit:10;" x1="77.54" y1="15.242" x2="84.962" y2="15.242"/>
	<g>
		<path d="M79.59,2.924l2.014-0.982h0.202V8.93c0,0.464,0.019,0.753,0.058,0.867c0.039,0.113,0.119,0.201,0.241,0.262
			c0.122,0.062,0.37,0.096,0.745,0.104v0.226h-3.113v-0.226c0.391-0.009,0.643-0.042,0.757-0.102
			c0.114-0.059,0.193-0.138,0.238-0.237s0.067-0.398,0.067-0.895V4.462c0-0.603-0.021-0.988-0.062-1.159
			c-0.028-0.131-0.08-0.227-0.155-0.287c-0.076-0.062-0.166-0.092-0.271-0.092c-0.151,0-0.36,0.063-0.629,0.189L79.59,2.924z"/>
	</g>
	<g>
		<path d="M2.558,10.748v3.253h1.507c0.346,0,0.599-0.076,0.76-0.229c0.161-0.153,0.268-0.455,0.321-0.907h0.226v2.802H5.146
			C5.141,15.346,5.1,15.109,5.02,14.959c-0.079-0.15-0.189-0.263-0.33-0.339c-0.14-0.075-0.349-0.112-0.625-0.112H2.558v2.6
			c0,0.419,0.026,0.695,0.079,0.83c0.041,0.102,0.126,0.189,0.256,0.263c0.179,0.098,0.366,0.146,0.562,0.146h0.299v0.226H0.201
			v-0.226h0.293c0.342,0,0.59-0.1,0.745-0.3c0.098-0.13,0.146-0.443,0.146-0.939v-5.347c0-0.419-0.027-0.695-0.08-0.83
			c-0.041-0.102-0.124-0.189-0.25-0.263c-0.175-0.098-0.362-0.146-0.562-0.146H0.201v-0.226H6.36l0.08,1.819H6.226
			c-0.106-0.387-0.229-0.671-0.369-0.852c-0.141-0.181-0.313-0.312-0.519-0.394c-0.206-0.082-0.524-0.122-0.955-0.122H2.558z"/>
		<path d="M9.964,12.816c0.846,0,1.526,0.322,2.039,0.965c0.436,0.549,0.653,1.18,0.653,1.892c0,0.501-0.12,1.007-0.36,1.521
			c-0.24,0.512-0.571,0.898-0.992,1.159c-0.421,0.261-0.89,0.391-1.407,0.391c-0.842,0-1.511-0.336-2.008-1.007
			C7.47,17.171,7.26,16.535,7.26,15.832c0-0.513,0.127-1.022,0.382-1.529c0.254-0.506,0.589-0.881,1.004-1.123
			C9.061,12.938,9.5,12.816,9.964,12.816z M8.878,10.418c0.187,0,0.345,0.065,0.473,0.195c0.128,0.131,0.192,0.287,0.192,0.47
			c0,0.184-0.065,0.339-0.195,0.468c-0.13,0.128-0.285,0.191-0.464,0.191c-0.184,0-0.34-0.063-0.47-0.191
			c-0.13-0.129-0.195-0.284-0.195-0.468c0-0.183,0.064-0.339,0.192-0.47C8.539,10.483,8.695,10.418,8.878,10.418z M9.775,13.214
			c-0.215,0-0.432,0.063-0.65,0.192c-0.218,0.128-0.394,0.353-0.528,0.674s-0.201,0.734-0.201,1.239
			c0,0.813,0.162,1.516,0.485,2.105c0.324,0.59,0.75,0.885,1.279,0.885c0.395,0,0.72-0.162,0.977-0.488
			c0.256-0.325,0.385-0.885,0.385-1.678c0-0.993-0.214-1.774-0.641-2.344C10.591,13.409,10.223,13.214,9.775,13.214z M11.033,10.418
			c0.183,0,0.338,0.065,0.467,0.195c0.128,0.131,0.192,0.287,0.192,0.47c0,0.184-0.064,0.339-0.192,0.468
			c-0.128,0.128-0.284,0.191-0.467,0.191c-0.184,0-0.34-0.063-0.47-0.191c-0.13-0.129-0.195-0.284-0.195-0.468
			c0-0.183,0.065-0.339,0.195-0.47C10.693,10.483,10.849,10.418,11.033,10.418z"/>
		<path d="M15.116,12.816v1.258c0.468-0.838,0.948-1.258,1.44-1.258c0.224,0,0.409,0.068,0.556,0.205s0.22,0.294,0.22,0.473
			c0,0.159-0.053,0.293-0.159,0.403c-0.105,0.109-0.231,0.164-0.378,0.164c-0.143,0-0.302-0.069-0.479-0.21
			c-0.177-0.141-0.308-0.211-0.394-0.211c-0.073,0-0.152,0.041-0.238,0.122c-0.183,0.167-0.372,0.441-0.567,0.824v2.679
			c0,0.31,0.039,0.544,0.116,0.702c0.053,0.11,0.146,0.202,0.28,0.274c0.135,0.074,0.328,0.11,0.58,0.11v0.22H13.23v-0.22
			c0.285,0,0.496-0.045,0.635-0.134c0.102-0.065,0.173-0.169,0.213-0.312c0.021-0.069,0.031-0.267,0.031-0.593v-2.166
			c0-0.651-0.014-1.038-0.04-1.163c-0.026-0.124-0.075-0.214-0.146-0.271c-0.071-0.057-0.16-0.085-0.266-0.085
			c-0.126,0-0.269,0.03-0.427,0.091l-0.062-0.22l1.691-0.684H15.116z"/>
		<path d="M19.234,9.894v4.089c0.452-0.496,0.81-0.814,1.074-0.955c0.265-0.141,0.529-0.211,0.794-0.211
			c0.317,0,0.59,0.088,0.817,0.263c0.228,0.175,0.397,0.45,0.507,0.824c0.077,0.261,0.116,0.736,0.116,1.428v1.978
			c0,0.354,0.028,0.597,0.085,0.727c0.041,0.098,0.11,0.175,0.208,0.232c0.098,0.057,0.276,0.085,0.537,0.085v0.22h-2.747v-0.22
			h0.128c0.26,0,0.441-0.04,0.543-0.119c0.102-0.079,0.173-0.196,0.213-0.351c0.012-0.065,0.018-0.257,0.018-0.574v-1.978
			c0-0.61-0.031-1.011-0.094-1.202c-0.063-0.191-0.164-0.334-0.302-0.43s-0.305-0.144-0.5-0.144c-0.199,0-0.407,0.053-0.623,0.158
			c-0.216,0.106-0.474,0.319-0.775,0.641v2.954c0,0.383,0.021,0.621,0.064,0.715c0.042,0.093,0.122,0.172,0.238,0.234
			c0.116,0.063,0.316,0.095,0.601,0.095v0.22h-2.771v-0.22c0.248,0,0.443-0.039,0.586-0.116c0.081-0.04,0.146-0.118,0.195-0.231
			c0.049-0.114,0.073-0.346,0.073-0.696v-5.06c0-0.639-0.016-1.031-0.046-1.178c-0.031-0.146-0.078-0.246-0.141-0.299
			s-0.147-0.08-0.253-0.08c-0.086,0-0.224,0.033-0.415,0.098l-0.086-0.213l1.673-0.684H19.234z"/>
		<path d="M27.011,17.767c-0.574,0.443-0.934,0.7-1.081,0.769c-0.22,0.103-0.454,0.153-0.702,0.153
			c-0.387,0-0.705-0.133-0.956-0.397c-0.25-0.264-0.375-0.612-0.375-1.043c0-0.272,0.062-0.509,0.184-0.708
			c0.167-0.276,0.457-0.537,0.87-0.781c0.413-0.244,1.1-0.541,2.06-0.892v-0.22c0-0.557-0.089-0.939-0.266-1.147
			c-0.177-0.207-0.435-0.311-0.772-0.311c-0.256,0-0.459,0.069-0.61,0.207c-0.154,0.139-0.231,0.297-0.231,0.477l0.012,0.354
			c0,0.188-0.048,0.332-0.143,0.434c-0.096,0.102-0.221,0.152-0.375,0.152c-0.15,0-0.274-0.053-0.369-0.158
			c-0.096-0.106-0.144-0.251-0.144-0.434c0-0.35,0.179-0.672,0.537-0.965s0.86-0.439,1.508-0.439c0.496,0,0.903,0.084,1.221,0.251
			c0.24,0.126,0.417,0.323,0.531,0.592c0.073,0.175,0.11,0.533,0.11,1.074v1.897c0,0.533,0.01,0.86,0.03,0.98
			c0.021,0.12,0.054,0.2,0.101,0.24c0.046,0.041,0.101,0.062,0.162,0.062c0.065,0,0.122-0.015,0.171-0.043
			c0.085-0.053,0.25-0.201,0.494-0.445v0.342c-0.456,0.61-0.891,0.915-1.306,0.915c-0.2,0-0.358-0.068-0.477-0.207
			C27.076,18.336,27.015,18.101,27.011,17.767z M27.011,17.37v-2.13c-0.615,0.244-1.011,0.417-1.19,0.519
			c-0.321,0.179-0.551,0.366-0.689,0.562c-0.139,0.195-0.208,0.408-0.208,0.641c0,0.293,0.088,0.536,0.263,0.729
			s0.376,0.29,0.604,0.29C26.099,17.98,26.506,17.776,27.011,17.37z M26.248,9.869c0.326,0,0.602,0.113,0.83,0.342
			c0.228,0.228,0.342,0.502,0.342,0.823c0,0.326-0.114,0.603-0.342,0.83c-0.228,0.229-0.504,0.342-0.83,0.342
			c-0.321,0-0.596-0.113-0.824-0.342c-0.228-0.228-0.342-0.504-0.342-0.83c0-0.321,0.113-0.596,0.338-0.823
			C25.646,9.982,25.922,9.869,26.248,9.869z M26.248,10.29c-0.208,0-0.384,0.072-0.528,0.217c-0.145,0.145-0.217,0.32-0.217,0.527
			c0,0.204,0.072,0.379,0.217,0.525c0.144,0.146,0.32,0.22,0.528,0.22s0.383-0.073,0.528-0.22s0.217-0.321,0.217-0.525
			c0-0.207-0.072-0.383-0.217-0.527S26.455,10.29,26.248,10.29z"/>
		<path d="M31.239,9.894v7.415c0,0.351,0.025,0.582,0.076,0.696c0.051,0.113,0.129,0.2,0.235,0.259
			c0.106,0.06,0.303,0.089,0.592,0.089v0.22h-2.741v-0.22c0.256,0,0.431-0.026,0.525-0.079s0.167-0.141,0.22-0.263
			s0.079-0.356,0.079-0.702V12.23c0-0.63-0.014-1.018-0.042-1.162s-0.074-0.243-0.137-0.296c-0.063-0.053-0.144-0.08-0.241-0.08
			c-0.106,0-0.24,0.033-0.403,0.098l-0.104-0.213l1.667-0.684H31.239z"/>
		<path d="M34.562,9.894v7.415c0,0.351,0.025,0.582,0.076,0.696c0.051,0.113,0.129,0.2,0.235,0.259
			c0.106,0.06,0.303,0.089,0.592,0.089v0.22h-2.741v-0.22c0.256,0,0.431-0.026,0.525-0.079s0.167-0.141,0.22-0.263
			s0.079-0.356,0.079-0.702V12.23c0-0.63-0.014-1.018-0.042-1.162s-0.074-0.243-0.137-0.296c-0.063-0.053-0.144-0.08-0.241-0.08
			c-0.106,0-0.24,0.033-0.403,0.098l-0.104-0.213l1.667-0.684H34.562z"/>
		<path d="M39.129,17.767c-0.574,0.443-0.934,0.7-1.081,0.769c-0.22,0.103-0.454,0.153-0.702,0.153
			c-0.387,0-0.705-0.133-0.956-0.397c-0.25-0.264-0.375-0.612-0.375-1.043c0-0.272,0.062-0.509,0.184-0.708
			c0.167-0.276,0.457-0.537,0.87-0.781c0.413-0.244,1.1-0.541,2.06-0.892v-0.22c0-0.557-0.089-0.939-0.266-1.147
			c-0.177-0.207-0.435-0.311-0.772-0.311c-0.256,0-0.459,0.069-0.61,0.207c-0.154,0.139-0.231,0.297-0.231,0.477l0.012,0.354
			c0,0.188-0.048,0.332-0.143,0.434c-0.096,0.102-0.221,0.152-0.375,0.152c-0.15,0-0.274-0.053-0.369-0.158
			c-0.096-0.106-0.144-0.251-0.144-0.434c0-0.35,0.179-0.672,0.537-0.965s0.86-0.439,1.508-0.439c0.496,0,0.903,0.084,1.221,0.251
			c0.24,0.126,0.417,0.323,0.531,0.592c0.073,0.175,0.11,0.533,0.11,1.074v1.897c0,0.533,0.01,0.86,0.03,0.98
			c0.021,0.12,0.054,0.2,0.101,0.24c0.046,0.041,0.101,0.062,0.162,0.062c0.065,0,0.122-0.015,0.171-0.043
			c0.085-0.053,0.25-0.201,0.494-0.445v0.342c-0.456,0.61-0.891,0.915-1.306,0.915c-0.2,0-0.358-0.068-0.477-0.207
			C39.194,18.336,39.133,18.101,39.129,17.767z M39.129,17.37v-2.13c-0.615,0.244-1.011,0.417-1.19,0.519
			c-0.321,0.179-0.551,0.366-0.689,0.562c-0.139,0.195-0.208,0.408-0.208,0.641c0,0.293,0.088,0.536,0.263,0.729
			s0.376,0.29,0.604,0.29C38.218,17.98,38.625,17.776,39.129,17.37z"/>
		<path d="M43.064,14.001c0.655-0.789,1.279-1.185,1.874-1.185c0.305,0,0.567,0.077,0.787,0.229s0.395,0.403,0.524,0.754
			c0.09,0.244,0.135,0.618,0.135,1.123v2.386c0,0.354,0.028,0.595,0.085,0.721c0.045,0.102,0.117,0.181,0.217,0.238
			c0.1,0.057,0.284,0.085,0.553,0.085v0.22h-2.766v-0.22h0.116c0.261,0,0.442-0.04,0.547-0.119c0.104-0.079,0.176-0.196,0.216-0.351
			c0.017-0.062,0.025-0.253,0.025-0.574v-2.288c0-0.509-0.066-0.878-0.199-1.108c-0.132-0.229-0.354-0.345-0.668-0.345
			c-0.484,0-0.967,0.265-1.446,0.794v2.947c0,0.379,0.022,0.612,0.067,0.702c0.057,0.118,0.135,0.204,0.235,0.26
			c0.1,0.055,0.303,0.082,0.607,0.082v0.22h-2.765v-0.22h0.122c0.285,0,0.477-0.072,0.577-0.217c0.1-0.145,0.149-0.42,0.149-0.827
			v-2.075c0-0.671-0.015-1.08-0.046-1.227c-0.03-0.146-0.077-0.246-0.14-0.299c-0.063-0.053-0.147-0.079-0.253-0.079
			c-0.114,0-0.25,0.03-0.409,0.091l-0.092-0.22l1.685-0.684h0.263V14.001z"/>
		<path d="M51.634,17.943c-0.272,0.285-0.539,0.489-0.8,0.613s-0.541,0.187-0.843,0.187c-0.609,0-1.143-0.255-1.599-0.766
			s-0.684-1.167-0.684-1.969s0.252-1.535,0.757-2.2s1.153-0.998,1.947-0.998c0.492,0,0.899,0.157,1.221,0.47v-1.031
			c0-0.639-0.016-1.031-0.046-1.178s-0.078-0.246-0.144-0.299s-0.146-0.08-0.244-0.08c-0.105,0-0.246,0.033-0.421,0.098L50.7,10.577
			l1.666-0.684h0.274v6.463c0,0.655,0.016,1.056,0.046,1.199c0.03,0.145,0.079,0.245,0.146,0.303
			c0.067,0.057,0.146,0.085,0.234,0.085c0.11,0,0.257-0.034,0.439-0.104l0.067,0.214l-1.66,0.689h-0.28V17.943z M51.634,17.517
			v-2.881c-0.024-0.276-0.098-0.529-0.22-0.757s-0.284-0.399-0.485-0.516s-0.397-0.174-0.589-0.174c-0.358,0-0.678,0.16-0.958,0.481
			c-0.371,0.424-0.556,1.042-0.556,1.855c0,0.822,0.179,1.452,0.537,1.89c0.357,0.438,0.757,0.656,1.196,0.656
			C50.93,18.072,51.288,17.887,51.634,17.517z"/>
		<path d="M54.874,15.087c-0.004,0.83,0.198,1.481,0.604,1.953c0.407,0.473,0.886,0.708,1.435,0.708
			c0.366,0,0.685-0.101,0.955-0.302s0.498-0.546,0.681-1.034l0.189,0.121c-0.086,0.558-0.334,1.065-0.745,1.523
			s-0.926,0.687-1.544,0.687c-0.671,0-1.246-0.262-1.725-0.784c-0.478-0.522-0.717-1.226-0.717-2.108
			c0-0.956,0.245-1.702,0.735-2.237s1.105-0.803,1.847-0.803c0.626,0,1.142,0.207,1.544,0.62s0.604,0.965,0.604,1.656H54.874z
			 M54.874,14.733h2.588c-0.02-0.358-0.062-0.61-0.128-0.757c-0.102-0.228-0.253-0.407-0.454-0.537
			c-0.202-0.13-0.412-0.195-0.632-0.195c-0.338,0-0.641,0.131-0.906,0.394C55.075,13.9,54.919,14.266,54.874,14.733z"/>
		<path d="M61.03,11.145v1.837h1.307v0.428H61.03v3.625c0,0.362,0.053,0.606,0.156,0.732s0.237,0.189,0.399,0.189
			c0.135,0,0.265-0.042,0.391-0.125c0.126-0.084,0.224-0.207,0.293-0.37h0.238c-0.143,0.399-0.344,0.699-0.604,0.9
			c-0.26,0.202-0.528,0.303-0.806,0.303c-0.187,0-0.37-0.052-0.549-0.156c-0.18-0.104-0.312-0.252-0.397-0.445
			c-0.085-0.193-0.128-0.491-0.128-0.895v-3.759h-0.885v-0.202c0.224-0.089,0.452-0.24,0.687-0.454s0.442-0.467,0.626-0.76
			c0.094-0.155,0.224-0.438,0.391-0.849H61.03z"/>
		<path d="M69.211,17.767c-0.574,0.443-0.934,0.7-1.08,0.769c-0.221,0.103-0.454,0.153-0.702,0.153
			c-0.387,0-0.705-0.133-0.955-0.397c-0.251-0.264-0.376-0.612-0.376-1.043c0-0.272,0.062-0.509,0.184-0.708
			c0.167-0.276,0.456-0.537,0.869-0.781s1.1-0.541,2.061-0.892v-0.22c0-0.557-0.089-0.939-0.266-1.147
			c-0.177-0.207-0.435-0.311-0.772-0.311c-0.256,0-0.46,0.069-0.61,0.207c-0.154,0.139-0.231,0.297-0.231,0.477l0.012,0.354
			c0,0.188-0.048,0.332-0.144,0.434s-0.221,0.152-0.375,0.152c-0.15,0-0.273-0.053-0.369-0.158
			c-0.096-0.106-0.144-0.251-0.144-0.434c0-0.35,0.179-0.672,0.537-0.965s0.86-0.439,1.508-0.439c0.496,0,0.903,0.084,1.221,0.251
			c0.24,0.126,0.417,0.323,0.53,0.592c0.074,0.175,0.11,0.533,0.11,1.074v1.897c0,0.533,0.01,0.86,0.03,0.98s0.054,0.2,0.101,0.24
			c0.047,0.041,0.101,0.062,0.162,0.062c0.065,0,0.122-0.015,0.171-0.043c0.086-0.053,0.25-0.201,0.494-0.445v0.342
			c-0.455,0.61-0.891,0.915-1.306,0.915c-0.199,0-0.358-0.068-0.477-0.207S69.215,18.101,69.211,17.767z M67.367,10.412
			c0.188,0,0.345,0.065,0.474,0.195c0.128,0.13,0.192,0.287,0.192,0.47c0,0.184-0.065,0.339-0.195,0.467
			c-0.131,0.129-0.285,0.192-0.465,0.192c-0.183,0-0.339-0.063-0.47-0.192c-0.13-0.128-0.195-0.283-0.195-0.467
			c0-0.183,0.064-0.34,0.192-0.47S67.185,10.412,67.367,10.412z M69.211,17.37v-2.13c-0.614,0.244-1.012,0.417-1.19,0.519
			c-0.321,0.179-0.552,0.366-0.689,0.562c-0.139,0.195-0.208,0.408-0.208,0.641c0,0.293,0.088,0.536,0.263,0.729
			s0.376,0.29,0.604,0.29C68.299,17.98,68.706,17.776,69.211,17.37z M69.521,10.412c0.184,0,0.339,0.065,0.468,0.195
			c0.128,0.13,0.192,0.287,0.192,0.47c0,0.184-0.064,0.339-0.192,0.467c-0.129,0.129-0.284,0.192-0.468,0.192
			c-0.183,0-0.339-0.063-0.47-0.192c-0.13-0.128-0.195-0.283-0.195-0.467c0-0.183,0.065-0.34,0.195-0.47
			C69.183,10.478,69.339,10.412,69.521,10.412z"/>
		<path d="M73.152,12.816v1.258c0.468-0.838,0.948-1.258,1.44-1.258c0.224,0,0.409,0.068,0.556,0.205s0.22,0.294,0.22,0.473
			c0,0.159-0.053,0.293-0.159,0.403c-0.105,0.109-0.231,0.164-0.378,0.164c-0.143,0-0.303-0.069-0.479-0.21
			s-0.308-0.211-0.394-0.211c-0.073,0-0.152,0.041-0.238,0.122c-0.183,0.167-0.372,0.441-0.567,0.824v2.679
			c0,0.31,0.039,0.544,0.116,0.702c0.053,0.11,0.146,0.202,0.28,0.274c0.135,0.074,0.328,0.11,0.58,0.11v0.22h-2.862v-0.22
			c0.284,0,0.496-0.045,0.635-0.134c0.102-0.065,0.173-0.169,0.213-0.312c0.021-0.069,0.031-0.267,0.031-0.593v-2.166
			c0-0.651-0.014-1.038-0.04-1.163c-0.026-0.124-0.075-0.214-0.146-0.271c-0.071-0.057-0.159-0.085-0.266-0.085
			c-0.126,0-0.269,0.03-0.427,0.091l-0.062-0.22l1.69-0.684H73.152z"/>
	</g>
	<g>
		<path d="M84.127,25.159v0.866h-1.11v2.186H82.01v-2.186h-3.504v-0.781l3.839-5.48h0.672v5.396H84.127z M82.01,25.159v-4.107
			l-2.906,4.107H82.01z"/>
	</g>
</g>
<g id="theGroup">
</g>
</svg>
