<?xml version="1.0" encoding="iso-8859-1"?>
<!-- Generator: Adobe Illustrator 16.0.0, SVG Export Plug-In . SVG Version: 6.00 Build 0)  -->
<!DOCTYPE svg PUBLIC "-//W3C//DTD SVG 1.1//EN" "http://www.w3.org/Graphics/SVG/1.1/DTD/svg11.dtd">
<svg version="1.1" id="Lager_1" xmlns="http://www.w3.org/2000/svg" xmlns:xlink="http://www.w3.org/1999/xlink" x="0px" y="0px"
	 width="99.639px" height="15.454px" viewBox="0 0 99.639 15.454" style="enable-background:new 0 0 99.639 15.454;"
	 xml:space="preserve">
<g>
	<g>
		<path d="M99.265,1.122v0.131c-0.311,0.03-0.564,0.092-0.761,0.185c-0.196,0.093-0.391,0.235-0.582,0.425S97.571,2.266,97.445,2.5
			c-0.126,0.234-0.23,0.513-0.315,0.834c0.339-0.232,0.679-0.349,1.02-0.349c0.327,0,0.61,0.132,0.851,0.395
			c0.24,0.264,0.36,0.603,0.36,1.017c0,0.4-0.122,0.764-0.364,1.094c-0.291,0.4-0.677,0.6-1.157,0.6
			c-0.327,0-0.604-0.108-0.833-0.324c-0.446-0.421-0.67-0.967-0.67-1.638c0-0.428,0.086-0.835,0.258-1.221s0.417-0.728,0.735-1.027
			s0.624-0.5,0.916-0.604c0.291-0.104,0.563-0.155,0.814-0.155H99.265z M97.07,3.592c-0.043,0.317-0.064,0.574-0.064,0.769
			c0,0.226,0.042,0.471,0.126,0.736c0.083,0.265,0.207,0.475,0.372,0.63c0.12,0.111,0.266,0.166,0.438,0.166
			c0.205,0,0.388-0.097,0.549-0.29s0.241-0.468,0.241-0.826c0-0.402-0.08-0.75-0.239-1.044c-0.16-0.294-0.388-0.441-0.682-0.441
			c-0.089,0-0.185,0.019-0.287,0.056C97.421,3.387,97.27,3.468,97.07,3.592z"/>
	</g>
	<g>
		<path d="M5.731,10.028l-0.58,1.593H0.269v-0.226c1.437-1.311,2.447-2.381,3.033-3.211s0.879-1.589,0.879-2.276
			c0-0.525-0.161-0.956-0.482-1.294S2.993,4.107,2.545,4.107c-0.407,0-0.772,0.119-1.095,0.357C1.126,4.703,0.887,5.052,0.732,5.512
			H0.507C0.608,4.759,0.87,4.181,1.291,3.778c0.421-0.403,0.947-0.604,1.578-0.604c0.671,0,1.232,0.216,1.682,0.647
			C5,4.252,5.225,4.761,5.225,5.347c0,0.419-0.098,0.838-0.293,1.257C4.63,7.263,4.142,7.961,3.467,8.697
			c-1.013,1.107-1.646,1.774-1.898,2.002h2.161c0.439,0,0.748-0.016,0.924-0.049c0.177-0.032,0.337-0.099,0.479-0.198
			c0.143-0.1,0.267-0.241,0.373-0.424H5.731z"/>
		<path d="M9.46,4.919c0.236-0.558,0.534-0.988,0.894-1.291c0.36-0.303,0.809-0.455,1.346-0.455c0.663,0,1.172,0.216,1.525,0.647
			c0.269,0.321,0.403,0.666,0.403,1.032c0,0.602-0.379,1.225-1.136,1.867c0.509,0.2,0.894,0.484,1.154,0.854
			c0.26,0.371,0.391,0.806,0.391,1.307c0,0.716-0.228,1.336-0.684,1.861c-0.594,0.684-1.455,1.025-2.582,1.025
			c-0.558,0-0.937-0.069-1.139-0.207c-0.201-0.139-0.302-0.287-0.302-0.446c0-0.118,0.047-0.222,0.143-0.312
			c0.096-0.089,0.21-0.134,0.345-0.134c0.102,0,0.205,0.017,0.311,0.049c0.069,0.021,0.226,0.095,0.47,0.223
			s0.413,0.204,0.506,0.229c0.15,0.044,0.311,0.066,0.482,0.066c0.415,0,0.776-0.16,1.083-0.482
			c0.307-0.321,0.461-0.701,0.461-1.141c0-0.321-0.071-0.635-0.213-0.94c-0.106-0.228-0.222-0.4-0.348-0.519
			c-0.175-0.163-0.415-0.31-0.72-0.442s-0.616-0.198-0.934-0.198h-0.195V7.33c0.321-0.041,0.644-0.156,0.967-0.348
			c0.323-0.191,0.558-0.421,0.705-0.689s0.22-0.564,0.22-0.885c0-0.419-0.131-0.758-0.394-1.016
			c-0.262-0.258-0.589-0.388-0.979-0.388c-0.631,0-1.158,0.338-1.581,1.013L9.46,4.919z"/>
		<path d="M15.527,7.532c0-0.944,0.143-1.757,0.427-2.438c0.285-0.681,0.663-1.189,1.135-1.523c0.366-0.264,0.745-0.396,1.135-0.396
			c0.635,0,1.205,0.323,1.709,0.971c0.631,0.801,0.946,1.888,0.946,3.259c0,0.96-0.139,1.776-0.415,2.448
			c-0.277,0.671-0.63,1.158-1.059,1.461c-0.43,0.304-0.843,0.455-1.242,0.455c-0.79,0-1.447-0.466-1.971-1.397
			C15.749,9.585,15.527,8.639,15.527,7.532z M16.723,7.685c0,1.139,0.14,2.069,0.421,2.789c0.231,0.606,0.578,0.909,1.037,0.909
			c0.22,0,0.448-0.099,0.684-0.296c0.236-0.197,0.415-0.528,0.537-0.991c0.188-0.7,0.281-1.687,0.281-2.961
			c0-0.944-0.098-1.731-0.293-2.362c-0.146-0.468-0.336-0.799-0.568-0.995c-0.167-0.135-0.368-0.202-0.604-0.202
			c-0.277,0-0.523,0.124-0.739,0.373c-0.293,0.337-0.492,0.869-0.598,1.593S16.723,6.98,16.723,7.685z"/>
		<path d="M21.777,7.532c0-0.944,0.143-1.757,0.427-2.438c0.285-0.681,0.663-1.189,1.135-1.523c0.366-0.264,0.745-0.396,1.135-0.396
			c0.635,0,1.205,0.323,1.709,0.971c0.631,0.801,0.946,1.888,0.946,3.259c0,0.96-0.139,1.776-0.415,2.448
			c-0.277,0.671-0.63,1.158-1.059,1.461c-0.43,0.304-0.843,0.455-1.242,0.455c-0.79,0-1.447-0.466-1.971-1.397
			C21.999,9.585,21.777,8.639,21.777,7.532z M22.973,7.685c0,1.139,0.14,2.069,0.421,2.789c0.231,0.606,0.578,0.909,1.037,0.909
			c0.22,0,0.448-0.099,0.684-0.296c0.236-0.197,0.415-0.528,0.537-0.991c0.188-0.7,0.281-1.687,0.281-2.961
			c0-0.944-0.098-1.731-0.293-2.362c-0.146-0.468-0.336-0.799-0.568-0.995c-0.167-0.135-0.368-0.202-0.604-0.202
			c-0.277,0-0.523,0.124-0.739,0.373c-0.293,0.337-0.492,0.869-0.598,1.593S22.973,6.98,22.973,7.685z"/>
		<path d="M30.789,7.532c0-0.944,0.143-1.757,0.427-2.438c0.285-0.681,0.663-1.189,1.135-1.523c0.366-0.264,0.745-0.396,1.135-0.396
			c0.635,0,1.205,0.323,1.709,0.971c0.631,0.801,0.946,1.888,0.946,3.259c0,0.96-0.139,1.776-0.415,2.448
			c-0.277,0.671-0.63,1.158-1.059,1.461c-0.43,0.304-0.843,0.455-1.242,0.455c-0.79,0-1.447-0.466-1.971-1.397
			C31.011,9.585,30.789,8.639,30.789,7.532z M31.985,7.685c0,1.139,0.14,2.069,0.421,2.789c0.231,0.606,0.578,0.909,1.037,0.909
			c0.22,0,0.448-0.099,0.684-0.296c0.236-0.197,0.415-0.528,0.537-0.991c0.188-0.7,0.281-1.687,0.281-2.961
			c0-0.944-0.098-1.731-0.293-2.362c-0.146-0.468-0.336-0.799-0.568-0.995c-0.167-0.135-0.368-0.202-0.604-0.202
			c-0.277,0-0.523,0.124-0.739,0.373c-0.293,0.337-0.492,0.869-0.598,1.593S31.985,6.98,31.985,7.685z"/>
		<path d="M37.039,7.532c0-0.944,0.143-1.757,0.427-2.438c0.285-0.681,0.663-1.189,1.135-1.523c0.366-0.264,0.745-0.396,1.135-0.396
			c0.635,0,1.205,0.323,1.709,0.971c0.631,0.801,0.946,1.888,0.946,3.259c0,0.96-0.139,1.776-0.415,2.448
			c-0.277,0.671-0.63,1.158-1.059,1.461c-0.43,0.304-0.843,0.455-1.242,0.455c-0.79,0-1.447-0.466-1.971-1.397
			C37.261,9.585,37.039,8.639,37.039,7.532z M38.235,7.685c0,1.139,0.14,2.069,0.421,2.789c0.231,0.606,0.578,0.909,1.037,0.909
			c0.22,0,0.448-0.099,0.684-0.296c0.236-0.197,0.415-0.528,0.537-0.991c0.188-0.7,0.281-1.687,0.281-2.961
			c0-0.944-0.098-1.731-0.293-2.362c-0.146-0.468-0.336-0.799-0.568-0.995c-0.167-0.135-0.368-0.202-0.604-0.202
			c-0.277,0-0.523,0.124-0.739,0.373c-0.293,0.337-0.492,0.869-0.598,1.593S38.235,6.98,38.235,7.685z"/>
		<path d="M43.289,7.532c0-0.944,0.143-1.757,0.427-2.438c0.285-0.681,0.663-1.189,1.135-1.523c0.366-0.264,0.745-0.396,1.135-0.396
			c0.635,0,1.205,0.323,1.709,0.971c0.631,0.801,0.946,1.888,0.946,3.259c0,0.96-0.139,1.776-0.415,2.448
			c-0.277,0.671-0.63,1.158-1.059,1.461c-0.43,0.304-0.843,0.455-1.242,0.455c-0.79,0-1.447-0.466-1.971-1.397
			C43.511,9.585,43.289,8.639,43.289,7.532z M44.485,7.685c0,1.139,0.14,2.069,0.421,2.789c0.231,0.606,0.578,0.909,1.037,0.909
			c0.22,0,0.448-0.099,0.684-0.296c0.236-0.197,0.415-0.528,0.537-0.991c0.188-0.7,0.281-1.687,0.281-2.961
			c0-0.944-0.098-1.731-0.293-2.362c-0.146-0.468-0.336-0.799-0.568-0.995c-0.167-0.135-0.368-0.202-0.604-0.202
			c-0.277,0-0.523,0.124-0.739,0.373c-0.293,0.337-0.492,0.869-0.598,1.593S44.485,6.98,44.485,7.685z"/>
		<path d="M68.169,10.028l-0.58,1.593h-4.883v-0.226c1.437-1.311,2.447-2.381,3.033-3.211s0.879-1.589,0.879-2.276
			c0-0.525-0.16-0.956-0.481-1.294c-0.322-0.338-0.706-0.507-1.154-0.507c-0.406,0-0.771,0.119-1.096,0.357
			c-0.323,0.238-0.562,0.587-0.717,1.047h-0.226c0.102-0.753,0.363-1.331,0.784-1.733c0.421-0.403,0.947-0.604,1.578-0.604
			c0.671,0,1.231,0.216,1.681,0.647c0.45,0.431,0.675,0.94,0.675,1.526c0,0.419-0.098,0.838-0.293,1.257
			c-0.301,0.659-0.789,1.357-1.465,2.093c-1.014,1.107-1.646,1.774-1.898,2.002h2.161c0.439,0,0.747-0.016,0.925-0.049
			c0.177-0.032,0.336-0.099,0.479-0.198s0.267-0.241,0.373-0.424H68.169z"/>
		<path d="M69.172,13.702v-0.269c0.419-0.138,0.743-0.353,0.973-0.644c0.23-0.291,0.346-0.6,0.346-0.925
			c0-0.077-0.019-0.143-0.056-0.195c-0.028-0.037-0.057-0.055-0.085-0.055c-0.045,0-0.143,0.04-0.293,0.122
			c-0.073,0.036-0.15,0.055-0.232,0.055c-0.199,0-0.357-0.059-0.476-0.177s-0.177-0.281-0.177-0.488c0-0.199,0.076-0.37,0.229-0.513
			s0.339-0.214,0.559-0.214c0.269,0,0.507,0.117,0.717,0.351c0.21,0.234,0.314,0.545,0.314,0.931c0,0.42-0.146,0.81-0.437,1.169
			C70.263,13.211,69.802,13.495,69.172,13.702z"/>
		<path d="M73.422,4.919c0.236-0.558,0.534-0.988,0.895-1.291c0.359-0.303,0.809-0.455,1.346-0.455c0.663,0,1.172,0.216,1.525,0.647
			c0.269,0.321,0.403,0.666,0.403,1.032c0,0.602-0.379,1.225-1.136,1.867c0.509,0.2,0.894,0.484,1.154,0.854
			C77.869,7.945,78,8.38,78,8.881c0,0.716-0.229,1.336-0.684,1.861c-0.595,0.684-1.455,1.025-2.582,1.025
			c-0.558,0-0.938-0.069-1.139-0.207c-0.201-0.139-0.302-0.287-0.302-0.446c0-0.118,0.048-0.222,0.144-0.312
			c0.095-0.089,0.21-0.134,0.345-0.134c0.102,0,0.205,0.017,0.312,0.049c0.068,0.021,0.226,0.095,0.47,0.223
			s0.413,0.204,0.507,0.229c0.15,0.044,0.311,0.066,0.481,0.066c0.415,0,0.776-0.16,1.084-0.482c0.307-0.321,0.46-0.701,0.46-1.141
			c0-0.321-0.07-0.635-0.213-0.94c-0.106-0.228-0.222-0.4-0.348-0.519c-0.176-0.163-0.416-0.31-0.721-0.442
			s-0.616-0.198-0.934-0.198h-0.195V7.33c0.321-0.041,0.644-0.156,0.967-0.348c0.324-0.191,0.559-0.421,0.705-0.689
			s0.22-0.564,0.22-0.885c0-0.419-0.131-0.758-0.394-1.016s-0.589-0.388-0.979-0.388c-0.631,0-1.157,0.338-1.581,1.013L73.422,4.919
			z"/>
		<path d="M84.752,4.156l2.014-0.982h0.202v6.988c0,0.464,0.019,0.753,0.058,0.867c0.039,0.113,0.119,0.201,0.241,0.262
			c0.122,0.062,0.37,0.096,0.745,0.104v0.226h-3.113v-0.226c0.391-0.009,0.643-0.042,0.757-0.101
			c0.114-0.06,0.193-0.139,0.238-0.238s0.067-0.397,0.067-0.895V5.694c0-0.602-0.021-0.988-0.062-1.159
			c-0.028-0.13-0.08-0.226-0.155-0.287c-0.076-0.061-0.166-0.092-0.271-0.092c-0.151,0-0.36,0.063-0.629,0.189L84.752,4.156z"/>
		<path d="M89.988,7.532c0-0.944,0.143-1.757,0.428-2.438c0.285-0.681,0.663-1.189,1.135-1.523c0.367-0.264,0.745-0.396,1.136-0.396
			c0.635,0,1.204,0.323,1.709,0.971c0.631,0.801,0.946,1.888,0.946,3.259c0,0.96-0.139,1.776-0.415,2.448
			c-0.277,0.671-0.63,1.158-1.06,1.461c-0.429,0.304-0.843,0.455-1.242,0.455c-0.789,0-1.446-0.466-1.971-1.397
			C90.211,9.585,89.988,8.639,89.988,7.532z M91.186,7.685c0,1.139,0.14,2.069,0.421,2.789c0.231,0.606,0.577,0.909,1.037,0.909
			c0.22,0,0.448-0.099,0.684-0.296c0.236-0.197,0.415-0.528,0.537-0.991c0.188-0.7,0.281-1.687,0.281-2.961
			c0-0.944-0.098-1.731-0.293-2.362c-0.146-0.468-0.336-0.799-0.567-0.995c-0.167-0.135-0.369-0.202-0.604-0.202
			c-0.277,0-0.523,0.124-0.739,0.373c-0.293,0.337-0.492,0.869-0.598,1.593S91.186,6.98,91.186,7.685z"/>
	</g>
	<g>
		<path d="M52.306,6.988h6.409v0.592h-6.409V6.988z M52.306,9.266h6.409v0.604h-6.409V9.266z"/>
		<path d="M82.162,8.423c0,0.188-0.066,0.347-0.199,0.479c-0.132,0.132-0.289,0.198-0.473,0.198c-0.188,0-0.347-0.066-0.479-0.198
			c-0.132-0.133-0.198-0.292-0.198-0.479c0-0.187,0.066-0.347,0.198-0.479c0.133-0.132,0.292-0.199,0.479-0.199
			c0.184,0,0.341,0.066,0.473,0.199C82.096,8.076,82.162,8.236,82.162,8.423z"/>
	</g>
</g>
<g id="theGroup">
</g>
</svg>
