<?xml version="1.0" encoding="iso-8859-1"?>
<!-- Generator: Adobe Illustrator 16.0.0, SVG Export Plug-In . SVG Version: 6.00 Build 0)  -->
<!DOCTYPE svg PUBLIC "-//W3C//DTD SVG 1.1//EN" "http://www.w3.org/Graphics/SVG/1.1/DTD/svg11.dtd">
<svg version="1.1" id="Lager_1" xmlns="http://www.w3.org/2000/svg" xmlns:xlink="http://www.w3.org/1999/xlink" x="0px" y="0px"
	 width="7.141px" height="32.044px" viewBox="0 0 7.141 32.044" style="enable-background:new 0 0 7.141 32.044;"
	 xml:space="preserve">
<g>
	
		<line style="fill:none;stroke:#000000;stroke-width:0.5;stroke-linecap:square;stroke-miterlimit:10;" x1="0.25" y1="15.242" x2="6.891" y2="15.242"/>
	<g>
		<path d="M2.844,6.22C2.189,5.683,1.767,5.251,1.578,4.926C1.388,4.601,1.294,4.263,1.294,3.913c0-0.537,0.207-1,0.622-1.389
			S2.883,1.941,3.57,1.941c0.667,0,1.205,0.181,1.611,0.543c0.407,0.362,0.61,0.775,0.61,1.239c0,0.309-0.11,0.624-0.329,0.946
			C5.242,4.991,4.785,5.369,4.089,5.805c0.716,0.554,1.19,0.989,1.423,1.307C5.82,7.526,5.975,7.963,5.975,8.423
			c0,0.582-0.222,1.08-0.665,1.492c-0.443,0.413-1.025,0.62-1.745,0.62c-0.786,0-1.398-0.246-1.837-0.738
			c-0.35-0.396-0.525-0.826-0.525-1.294c0-0.366,0.123-0.729,0.369-1.09S2.242,6.655,2.844,6.22z M3.131,6.452
			C2.793,6.736,2.543,7.047,2.38,7.383C2.217,7.718,2.136,8.081,2.136,8.472c0,0.525,0.144,0.945,0.431,1.261
			c0.287,0.315,0.652,0.473,1.096,0.473c0.439,0,0.791-0.124,1.056-0.372S5.114,9.284,5.114,8.93c0-0.293-0.077-0.556-0.231-0.787
			C4.594,7.711,4.01,7.147,3.131,6.452z M3.802,5.566C4.291,5.127,4.6,4.78,4.73,4.526c0.13-0.255,0.195-0.543,0.195-0.864
			c0-0.427-0.121-0.762-0.36-1.004c-0.24-0.242-0.568-0.363-0.983-0.363s-0.753,0.12-1.013,0.36S2.179,3.176,2.179,3.498
			c0,0.211,0.054,0.423,0.162,0.635c0.108,0.211,0.262,0.412,0.461,0.604L3.802,5.566z"/>
	</g>
	<g>
		<path d="M1.266,21.51c0.236-0.558,0.534-0.988,0.894-1.291c0.36-0.304,0.809-0.455,1.346-0.455c0.663,0,1.172,0.216,1.525,0.646
			c0.269,0.322,0.403,0.666,0.403,1.032c0,0.602-0.379,1.225-1.136,1.867c0.509,0.199,0.894,0.484,1.154,0.854
			c0.26,0.37,0.391,0.806,0.391,1.307c0,0.716-0.229,1.336-0.684,1.861c-0.595,0.684-1.455,1.025-2.582,1.025
			c-0.558,0-0.937-0.069-1.139-0.207c-0.201-0.139-0.302-0.287-0.302-0.446c0-0.118,0.047-0.222,0.143-0.312
			c0.096-0.089,0.21-0.134,0.345-0.134c0.102,0,0.205,0.017,0.311,0.049c0.069,0.021,0.226,0.095,0.47,0.223
			s0.413,0.204,0.506,0.229c0.15,0.044,0.311,0.066,0.482,0.066c0.415,0,0.776-0.16,1.083-0.482c0.307-0.321,0.46-0.701,0.46-1.141
			c0-0.321-0.07-0.635-0.213-0.94c-0.106-0.228-0.222-0.4-0.348-0.519c-0.175-0.163-0.415-0.311-0.72-0.442
			s-0.616-0.198-0.934-0.198H2.529V23.92c0.321-0.04,0.644-0.156,0.967-0.348c0.323-0.191,0.558-0.421,0.705-0.689
			s0.22-0.563,0.22-0.885c0-0.42-0.131-0.758-0.394-1.017c-0.262-0.259-0.589-0.388-0.979-0.388c-0.631,0-1.158,0.338-1.581,1.014
			L1.266,21.51z"/>
	</g>
</g>
<g id="theGroup">
</g>
</svg>
