<?xml version="1.0" encoding="iso-8859-1"?>
<!-- Generator: Adobe Illustrator 16.0.0, SVG Export Plug-In . SVG Version: 6.00 Build 0)  -->
<!DOCTYPE svg PUBLIC "-//W3C//DTD SVG 1.1//EN" "http://www.w3.org/Graphics/SVG/1.1/DTD/svg11.dtd">
<svg version="1.1" id="Lager_1" xmlns="http://www.w3.org/2000/svg" xmlns:xlink="http://www.w3.org/1999/xlink" x="0px" y="0px"
	 width="7.922px" height="32.044px" viewBox="0 0 7.922 32.044" style="enable-background:new 0 0 7.922 32.044;"
	 xml:space="preserve">
<g>
	
		<line style="fill:none;stroke:#000000;stroke-width:0.5;stroke-linecap:square;stroke-miterlimit:10;" x1="0.25" y1="15.242" x2="7.672" y2="15.242"/>
	<g>
		<path d="M2.301,2.924l2.014-0.982h0.202V8.93c0,0.464,0.019,0.753,0.058,0.867c0.039,0.113,0.119,0.201,0.241,0.262
			c0.122,0.062,0.37,0.096,0.745,0.104v0.226H2.447v-0.226c0.391-0.009,0.643-0.042,0.757-0.102
			c0.114-0.059,0.193-0.138,0.238-0.237c0.044-0.1,0.067-0.398,0.067-0.895V4.462c0-0.603-0.021-0.988-0.061-1.159
			C3.42,3.172,3.368,3.076,3.292,3.016C3.217,2.954,3.127,2.924,3.021,2.924c-0.15,0-0.36,0.063-0.628,0.189L2.301,2.924z"/>
	</g>
	<g>
		<path d="M2.093,19.935H6.53v0.231l-2.759,8.216H3.088l2.473-7.452H3.283c-0.459,0-0.787,0.055-0.982,0.164
			c-0.342,0.188-0.616,0.477-0.824,0.867L1.3,21.894L2.093,19.935z"/>
	</g>
</g>
<g id="theGroup">
</g>
</svg>
