<?xml version="1.0" encoding="iso-8859-1"?>
<!-- Generator: Adobe Illustrator 16.0.0, SVG Export Plug-In . SVG Version: 6.00 Build 0)  -->
<!DOCTYPE svg PUBLIC "-//W3C//DTD SVG 1.1//EN" "http://www.w3.org/Graphics/SVG/1.1/DTD/svg11.dtd">
<svg version="1.1" id="Lager_1" xmlns="http://www.w3.org/2000/svg" xmlns:xlink="http://www.w3.org/1999/xlink" x="0px" y="0px"
	 width="28.382px" height="15.846px" viewBox="0 0 28.382 15.846" style="enable-background:new 0 0 28.382 15.846;"
	 xml:space="preserve">
<g>
	<g>
		<path d="M21.143,10.303v1.101h-0.116c-0.089-0.346-0.204-0.581-0.344-0.706c-0.141-0.124-0.318-0.187-0.535-0.187
			c-0.164,0-0.297,0.043-0.398,0.131c-0.102,0.087-0.151,0.183-0.151,0.289c0,0.132,0.037,0.244,0.112,0.339
			c0.073,0.097,0.222,0.198,0.445,0.307l0.515,0.251c0.478,0.232,0.717,0.539,0.717,0.921c0,0.294-0.111,0.53-0.334,0.711
			c-0.222,0.18-0.471,0.27-0.746,0.27c-0.197,0-0.424-0.035-0.678-0.105c-0.077-0.023-0.141-0.035-0.19-0.035
			c-0.054,0-0.097,0.03-0.127,0.092h-0.116v-1.154h0.116c0.065,0.329,0.191,0.577,0.378,0.744c0.186,0.168,0.394,0.251,0.624,0.251
			c0.162,0,0.295-0.048,0.397-0.143c0.102-0.096,0.153-0.21,0.153-0.345c0-0.162-0.058-0.299-0.171-0.409
			c-0.114-0.11-0.342-0.25-0.684-0.42c-0.341-0.169-0.564-0.322-0.67-0.458c-0.105-0.135-0.159-0.304-0.159-0.509
			c0-0.266,0.092-0.488,0.273-0.667c0.183-0.179,0.419-0.268,0.708-0.268c0.127,0,0.281,0.026,0.462,0.081
			c0.12,0.035,0.2,0.053,0.24,0.053c0.037,0,0.067-0.008,0.088-0.024c0.021-0.017,0.046-0.054,0.074-0.109H21.143z"/>
		<path d="M22.41,11.616c-0.003,0.479,0.114,0.856,0.349,1.129c0.235,0.273,0.512,0.409,0.83,0.409c0.211,0,0.396-0.058,0.552-0.175
			c0.156-0.116,0.287-0.315,0.394-0.598l0.109,0.07c-0.05,0.322-0.193,0.616-0.431,0.881s-0.535,0.396-0.893,0.396
			c-0.389,0-0.721-0.151-0.997-0.453c-0.276-0.303-0.414-0.709-0.414-1.22c0-0.553,0.142-0.983,0.425-1.293s0.64-0.464,1.067-0.464
			c0.362,0,0.66,0.119,0.893,0.358c0.233,0.238,0.35,0.558,0.35,0.958H22.41z M22.41,11.411h1.496
			c-0.012-0.207-0.037-0.353-0.074-0.438c-0.059-0.132-0.146-0.235-0.263-0.311c-0.117-0.075-0.238-0.112-0.365-0.112
			c-0.195,0-0.37,0.075-0.524,0.228C22.525,10.929,22.436,11.14,22.41,11.411z"/>
		<path d="M24.864,10.398h1.521v0.131c-0.097,0-0.164,0.017-0.203,0.05c-0.039,0.032-0.058,0.076-0.058,0.13
			c0,0.057,0.041,0.144,0.123,0.262c0.025,0.037,0.064,0.096,0.116,0.176l0.229,0.367l0.265-0.367
			c0.169-0.232,0.254-0.38,0.254-0.44c0-0.05-0.02-0.092-0.06-0.126s-0.104-0.051-0.194-0.051v-0.131h1.094v0.131
			c-0.115,0.007-0.215,0.039-0.3,0.095c-0.115,0.08-0.272,0.255-0.473,0.522l-0.441,0.59l0.805,1.157
			c0.197,0.284,0.339,0.456,0.424,0.514c0.084,0.058,0.193,0.09,0.328,0.097v0.127H26.77v-0.127c0.105,0,0.188-0.023,0.247-0.07
			c0.044-0.033,0.066-0.077,0.066-0.131s-0.075-0.19-0.226-0.409l-0.473-0.691l-0.519,0.691c-0.16,0.214-0.24,0.341-0.24,0.381
			c0,0.057,0.026,0.107,0.079,0.153c0.054,0.046,0.133,0.071,0.238,0.076v0.127h-1.055v-0.127c0.085-0.012,0.158-0.041,0.222-0.088
			c0.09-0.068,0.24-0.242,0.452-0.522l0.678-0.9l-0.614-0.889c-0.174-0.254-0.309-0.413-0.404-0.479
			c-0.095-0.064-0.215-0.097-0.357-0.097V10.398z"/>
	</g>
	<g>
		<path d="M1.465,2.923l2.014-0.982h0.202v6.988c0,0.464,0.019,0.753,0.058,0.867c0.039,0.113,0.119,0.201,0.241,0.262
			c0.122,0.062,0.37,0.096,0.745,0.104v0.226H1.611v-0.226c0.391-0.009,0.643-0.042,0.757-0.101c0.114-0.06,0.193-0.139,0.238-0.238
			c0.044-0.1,0.067-0.397,0.067-0.895V4.461c0-0.602-0.021-0.988-0.061-1.159c-0.028-0.13-0.081-0.226-0.156-0.287
			S2.291,2.923,2.185,2.923c-0.15,0-0.36,0.063-0.628,0.189L1.465,2.923z"/>
		<path d="M11.981,8.795l-0.58,1.593H6.519v-0.226c1.437-1.311,2.447-2.381,3.033-3.211s0.879-1.589,0.879-2.276
			c0-0.525-0.161-0.956-0.482-1.294S9.243,2.875,8.795,2.875c-0.407,0-0.772,0.119-1.095,0.357C7.376,3.47,7.137,3.819,6.982,4.279
			H6.757C6.858,3.526,7.12,2.948,7.541,2.545c0.421-0.403,0.947-0.604,1.578-0.604c0.671,0,1.232,0.216,1.682,0.647
			c0.449,0.431,0.674,0.94,0.674,1.526c0,0.419-0.098,0.838-0.293,1.257c-0.301,0.659-0.79,1.357-1.465,2.093
			C8.704,8.571,8.071,9.239,7.818,9.466h2.161c0.439,0,0.748-0.016,0.924-0.049c0.177-0.032,0.337-0.098,0.479-0.198
			c0.143-0.1,0.267-0.241,0.373-0.424H11.981z"/>
		<path d="M18.231,8.795l-0.58,1.593h-4.883v-0.226c1.437-1.311,2.447-2.381,3.033-3.211s0.879-1.589,0.879-2.276
			c0-0.525-0.16-0.956-0.481-1.294c-0.322-0.338-0.706-0.507-1.154-0.507c-0.407,0-0.772,0.119-1.095,0.357
			c-0.324,0.238-0.562,0.587-0.717,1.047h-0.226c0.102-0.753,0.363-1.331,0.784-1.733c0.421-0.403,0.947-0.604,1.577-0.604
			c0.672,0,1.232,0.216,1.682,0.647c0.45,0.431,0.675,0.94,0.675,1.526c0,0.419-0.098,0.838-0.293,1.257
			c-0.301,0.659-0.789,1.357-1.465,2.093c-1.013,1.107-1.646,1.774-1.898,2.002h2.161c0.439,0,0.747-0.016,0.925-0.049
			c0.177-0.032,0.336-0.098,0.479-0.198c0.143-0.1,0.267-0.241,0.373-0.424H18.231z"/>
	</g>
</g>
<g id="theGroup">
</g>
</svg>
