<?xml version="1.0" encoding="iso-8859-1"?>
<!-- Generator: Adobe Illustrator 16.0.0, SVG Export Plug-In . SVG Version: 6.00 Build 0)  -->
<!DOCTYPE svg PUBLIC "-//W3C//DTD SVG 1.1//EN" "http://www.w3.org/Graphics/SVG/1.1/DTD/svg11.dtd">
<svg version="1.1" id="Lager_1" xmlns="http://www.w3.org/2000/svg" xmlns:xlink="http://www.w3.org/1999/xlink" x="0px" y="0px"
	 width="20.881px" height="34.943px" viewBox="0 0 20.881 34.943" style="enable-background:new 0 0 20.881 34.943;"
	 xml:space="preserve">
<polygon style="fill:none;stroke:#AFD4E8;" points="0.5,0.5 0.5,17.506 20.343,17.506 20.343,0.5 0.5,0.5 "/>
<polygon style="fill:none;stroke:#AFD4E8;" points="0.538,17.436 0.538,34.443 20.381,34.443 20.381,17.436 0.538,17.436 "/>
<line style="fill:none;stroke:#000000;stroke-width:0.7;" x1="3.433" y1="9.068" x2="17.433" y2="9.068"/>
<line x1="3.735" y1="28.768" x2="17.734" y2="28.768"/>
<g>
	<line style="fill:none;stroke:#000000;stroke-width:0.7;" x1="1.985" y1="28.768" x2="19.484" y2="28.768"/>
</g>
<g>
	<path d="M6.045,22.968c0.9,0,1.629,0.72,1.629,1.62s-0.729,1.63-1.629,1.63s-1.621-0.729-1.621-1.63S5.145,22.968,6.045,22.968z"/>
	<path d="M10.545,22.968c0.9,0,1.629,0.72,1.629,1.62s-0.729,1.63-1.629,1.63s-1.621-0.729-1.621-1.63S9.645,22.968,10.545,22.968z"
		/>
	<path d="M15.045,22.968c0.9,0,1.629,0.72,1.629,1.62s-0.729,1.63-1.629,1.63s-1.621-0.729-1.621-1.63S14.145,22.968,15.045,22.968z
		"/>
</g>
<g id="theGroup">
</g>
<g>
</g>
<g>
</g>
<g>
</g>
<g>
</g>
<g>
</g>
<g>
</g>
</svg>
